<svg width="46" height="12" viewBox="0 0 46 12" fill="none" xmlns="http://www.w3.org/2000/svg">
<path d="M0.749396 11.4519V0.851547H4.53524C5.63566 0.851547 6.46854 1.10394 7.03389 1.60872C7.59925 2.11349 7.88192 2.76466 7.88192 3.56221C7.88192 4.17804 7.72039 4.67777 7.39733 5.0614C7.07428 5.44504 6.70074 5.72266 6.27672 5.89429V6.00029C6.7815 6.18201 7.21561 6.47983 7.57905 6.89375C7.9425 7.29757 8.12422 7.83264 8.12422 8.49895C8.12422 9.04411 7.98793 9.54384 7.71534 9.99814C7.45286 10.4423 7.06418 10.7957 6.5493 11.0582C6.03443 11.3207 5.40346 11.4519 4.65638 11.4519H0.749396ZM2.35459 5.27341H4.33837C4.9542 5.27341 5.42365 5.15226 5.74671 4.90997C6.06977 4.65758 6.23129 4.279 6.23129 3.77422C6.23129 2.77476 5.59023 2.27502 4.30809 2.27502H2.35459V5.27341ZM2.35459 9.96785H4.44438C5.10059 9.96785 5.60537 9.82652 5.95871 9.54384C6.31206 9.26116 6.48873 8.84725 6.48873 8.30208C6.48873 7.76702 6.30196 7.35815 5.92843 7.07547C5.55489 6.7827 5.05011 6.63631 4.41409 6.63631H2.35459V9.96785ZM9.40549 11.4519L12.5704 0.851547H14.4785L17.6435 11.4519H15.902L15.1903 8.90782H11.8587L11.147 11.4519H9.40549ZM13.4791 3.12305L12.2222 7.62063H14.8268L13.5699 3.12305H13.4791ZM18.8339 11.4519V0.851547H20.4088L24.8458 8.62009V0.851547H26.3753V11.4519H24.8004L20.3634 3.68336V11.4519H18.8339ZM27.914 11.4519V0.851547H29.4889L33.9259 8.62009V0.851547H35.4554V11.4519H33.8805L29.4435 3.68336V11.4519H27.914ZM39.9622 11.4519V7.42377L36.4641 0.851547H38.2964L40.7648 5.72771L43.2332 0.851547H45.0655L41.5674 7.42377V11.4519H39.9622Z" fill="white"/>
</svg>
