<svg width="172" height="56" viewBox="0 0 172 56" fill="none" xmlns="http://www.w3.org/2000/svg">
<path d="M59.6417 34.3949V21.4921H63.8628C64.8704 21.4921 65.6999 21.6641 66.3512 22.0082C67.0147 22.3523 67.5063 22.8192 67.8258 23.4091C68.1576 23.9866 68.3235 24.6441 68.3235 25.3814C68.3235 26.217 68.1084 26.9604 67.6783 27.6117C67.2605 28.2507 66.6154 28.7177 65.7429 29.0126L68.4525 34.3949H66.1853L63.7153 29.2891H61.5956V34.3949H59.6417ZM61.5956 27.5195H63.7522C64.6369 27.5195 65.2821 27.3229 65.6876 26.9297C66.1054 26.5365 66.3143 26.0204 66.3143 25.3814C66.3143 24.7301 66.1116 24.214 65.706 23.833C65.3005 23.4398 64.6431 23.2432 63.7338 23.2432H61.5956V27.5195ZM70.7862 34.3949V21.4921H79.0256V23.2432H72.7401V27.0034H78.4726V28.7361H72.7401V32.6438H79.0256V34.3949H70.7862ZM86.0228 34.6161C85.1134 34.6161 84.3147 34.4502 83.6265 34.1184C82.9507 33.7866 82.4161 33.3135 82.0229 32.6991C81.642 32.0847 81.4453 31.3535 81.433 30.5056H83.4975C83.5098 31.1569 83.731 31.716 84.1611 32.183C84.6035 32.6377 85.2179 32.865 86.0043 32.865C86.7293 32.865 87.2946 32.6991 87.7001 32.3673C88.1056 32.0232 88.3084 31.5809 88.3084 31.0402C88.3084 30.5855 88.1855 30.2107 87.9397 29.9158C87.7063 29.6086 87.3376 29.3382 86.8338 29.1048C86.33 28.859 85.6787 28.6071 84.8799 28.349C83.8109 28.0049 83.0244 27.5318 82.5206 26.9297C82.0167 26.3153 81.7648 25.5657 81.7648 24.6809C81.7648 23.661 82.1335 22.8377 82.8708 22.211C83.6081 21.5843 84.6219 21.2709 85.9122 21.2709C87.1656 21.2709 88.1732 21.5965 88.9351 22.2478C89.697 22.8868 90.0902 23.7777 90.1148 24.9206H88.0319C88.0319 24.6133 87.9459 24.3184 87.7739 24.0358C87.6018 23.7409 87.356 23.5012 87.0366 23.3169C86.7171 23.1203 86.3238 23.022 85.8569 23.022C85.2793 23.0097 84.7939 23.151 84.4007 23.446C84.0075 23.7286 83.8109 24.1157 83.8109 24.6072C83.8109 25.2093 84.0505 25.6824 84.5297 26.0265C85.009 26.3583 85.7893 26.7024 86.8707 27.0587C87.5465 27.2799 88.1425 27.5503 88.6586 27.8698C89.187 28.177 89.5987 28.5763 89.8936 29.0679C90.2008 29.5471 90.3544 30.1616 90.3544 30.9111C90.3544 31.5993 90.1824 32.226 89.8383 32.7913C89.4942 33.3442 88.9965 33.7866 88.3453 34.1184C87.7063 34.4502 86.9321 34.6161 86.0228 34.6161ZM92.8909 34.3949V21.4921H101.13V23.2432H94.8448V27.0034H100.577V28.7361H94.8448V32.6438H101.13V34.3949H92.8909ZM107.021 34.3949V23.2432H103.556V21.4921H112.441V23.2432H108.975V34.3949H107.021Z" fill="black"/>
<mask id="path-2-inside-1_2658_31053" fill="white">
<path fill-rule="evenodd" clip-rule="evenodd" d="M165.036 0.562134H5.60281V8.81176H0.000976562V48.2289H6.38433V55.5621H165.57V48.2289H172.001V8.81176H165.036V0.562134Z"/>
</mask>
<path d="M5.60281 0.562134V-2.20275H2.83792V0.562134H5.60281ZM165.036 0.562134H167.801V-2.20275H165.036V0.562134ZM5.60281 8.81176V11.5767H8.36769V8.81176H5.60281ZM0.000976562 8.81176V6.04688H-2.76391V8.81176H0.000976562ZM0.000976562 48.2289H-2.76391V50.9938H0.000976562V48.2289ZM6.38433 48.2289H9.14921V45.464H6.38433V48.2289ZM6.38433 55.5621H3.61944V58.327H6.38433V55.5621ZM165.57 55.5621V58.327H168.335V55.5621H165.57ZM165.57 48.2289V45.464H162.805V48.2289H165.57ZM172.001 48.2289V50.9938H174.766V48.2289H172.001ZM172.001 8.81176H174.766V6.04688H172.001V8.81176ZM165.036 8.81176H162.271V11.5767H165.036V8.81176ZM5.60281 3.32702H165.036V-2.20275H5.60281V3.32702ZM8.36769 8.81176V0.562134H2.83792V8.81176H8.36769ZM0.000976562 11.5767H5.60281V6.04688H0.000976562V11.5767ZM2.76586 48.2289V8.81176H-2.76391V48.2289H2.76586ZM0.000976562 50.9938H6.38433V45.464H0.000976562V50.9938ZM3.61944 48.2289V55.5621H9.14921V48.2289H3.61944ZM165.57 52.7972H6.38433V58.327H165.57V52.7972ZM162.805 48.2289V55.5621H168.335V48.2289H162.805ZM172.001 45.464H165.57V50.9938H172.001V45.464ZM169.236 8.81176V48.2289H174.766V8.81176H169.236ZM165.036 11.5767H172.001V6.04688H165.036V11.5767ZM162.271 0.562134V8.81176H167.801V0.562134H162.271Z" fill="#A9B149" mask="url(#path-2-inside-1_2658_31053)"/>
</svg>
