<svg width="261" height="56" viewBox="0 0 261 56" fill="none" xmlns="http://www.w3.org/2000/svg">
<path fill-rule="evenodd" clip-rule="evenodd" d="M250.436 -0.000366211H8.67376V8.2939H0.176758V47.9244H9.85603V55.2973H251.248V47.9244H260.998V8.2939H250.436V-0.000366211Z" fill="#A9B149"/>
<path d="M59.9532 33.3536V20.4508H62.0177L64.6904 26.2755L67.3631 20.4508H69.4276V33.3536H67.5659V24.1742L65.4646 28.7823H63.9162L61.8149 24.1926V33.3536H59.9532ZM71.9641 33.3536V31.6209H74.7658V22.1834H72.0009V20.4508H79.4846V22.1834H76.7197V31.6209H79.5214V33.3536H71.9641ZM82.2054 33.3536V20.4508H84.1224L89.5231 29.9067V20.4508H91.3848V33.3536H89.4678L84.0671 23.8977V33.3536H82.2054ZM96.8705 33.3536V22.2019H93.4052V20.4508H102.29V22.2019H98.8244V33.3536H96.8705ZM115.215 33.3536V20.4508H117.279L119.952 26.2755L122.625 20.4508H124.689V33.3536H122.828V24.1742L120.726 28.7823H119.178L117.077 24.1926V33.3536H115.215ZM130.028 33.3536V28.4505L125.77 20.4508H128L131.004 26.3861L134.009 20.4508H136.239L131.981 28.4505V33.3536H130.028ZM148.612 33.3536V20.4508H153.22C154.559 20.4508 155.573 20.758 156.261 21.3724C156.949 21.9868 157.293 22.7794 157.293 23.7502C157.293 24.4998 157.097 25.1081 156.703 25.575C156.31 26.042 155.856 26.3799 155.339 26.5888V26.7179C155.954 26.939 156.482 27.3015 156.925 27.8054C157.367 28.2969 157.588 28.9482 157.588 29.7592C157.588 30.4228 157.422 31.0311 157.091 31.584C156.771 32.1247 156.298 32.5548 155.671 32.8743C155.045 33.1938 154.277 33.3536 153.367 33.3536H148.612ZM150.565 25.8331H152.98C153.73 25.8331 154.301 25.6856 154.694 25.3907C155.088 25.0835 155.284 24.6227 155.284 24.0083C155.284 22.7917 154.504 22.1834 152.943 22.1834H150.565V25.8331ZM150.565 31.5472H153.109C153.908 31.5472 154.522 31.3751 154.952 31.0311C155.382 30.687 155.598 30.1832 155.598 29.5196C155.598 28.8683 155.37 28.3706 154.916 28.0266C154.461 27.6702 153.846 27.492 153.072 27.492H150.565V31.5472ZM159.148 33.3536L163 20.4508H165.323L169.175 33.3536H167.055L166.189 30.2569H162.134L161.268 33.3536H159.148ZM164.106 23.2157L162.576 28.6901H165.747L164.217 23.2157H164.106ZM170.624 33.3536V20.4508H172.541L177.942 29.9067V20.4508H179.804V33.3536H177.887L172.486 23.8977V33.3536H170.624ZM181.676 33.3536V20.4508H183.593L188.994 29.9067V20.4508H190.856V33.3536H188.939L183.538 23.8977V33.3536H181.676ZM196.342 33.3536V28.4505L192.084 20.4508H194.314L197.319 26.3861L200.323 20.4508H202.553L198.295 28.4505V33.3536H196.342Z" fill="white"/>
</svg>
