<svg width="19" height="19" viewBox="0 0 19 19" fill="none" xmlns="http://www.w3.org/2000/svg">
<path d="M10.8127 9.18488L15.9886 3.01514C16.0754 2.91261 16.0024 2.75684 15.8683 2.75684H14.2948C14.2022 2.75684 14.1134 2.79824 14.0523 2.86923L9.78338 7.95842L5.51445 2.86923C5.4553 2.79824 5.36657 2.75684 5.27192 2.75684H3.69843C3.56435 2.75684 3.49139 2.91261 3.57815 3.01514L8.75411 9.18488L3.57815 15.3546C3.55871 15.3775 3.54625 15.4054 3.54222 15.4352C3.5382 15.4649 3.5428 15.4951 3.55546 15.5223C3.56812 15.5495 3.58833 15.5725 3.61367 15.5886C3.63901 15.6046 3.66843 15.6131 3.69843 15.6129H5.27192C5.36459 15.6129 5.45332 15.5715 5.51445 15.5005L9.78338 10.4113L14.0523 15.5005C14.1115 15.5715 14.2002 15.6129 14.2948 15.6129H15.8683C16.0024 15.6129 16.0754 15.4572 15.9886 15.3546L10.8127 9.18488Z" fill="black" fill-opacity="0.85"/>
</svg>
