<svg width="30" height="11" viewBox="0 0 30 11" fill="none" xmlns="http://www.w3.org/2000/svg">
<path d="M0.605314 10.3159V0.893379H6.6492V2.226H2.03216V5.1066H5.90886V6.35845H2.03216V10.3159H0.605314ZM7.51889 10.3159L10.3322 0.893379H12.0282L14.8416 10.3159H13.2936L12.6609 8.05451H9.69954L9.06688 10.3159H7.51889ZM11.1398 2.91249L10.0226 6.91034H12.3378L11.2206 2.91249H11.1398ZM18.8745 10.4774C18.0848 10.4774 17.4118 10.2755 16.8554 9.87171C16.308 9.46789 15.8862 8.90254 15.5901 8.17566C15.3029 7.4398 15.1594 6.58728 15.1594 5.61811C15.1594 4.63996 15.3029 3.78744 15.5901 3.06056C15.8862 2.32471 16.3125 1.75487 16.8689 1.35105C17.4252 0.938248 18.0938 0.73185 18.8745 0.73185C19.8886 0.73185 20.6962 1.01004 21.2975 1.56642C21.8987 2.11382 22.2487 2.85865 22.3474 3.80091H20.7725C20.6917 3.30734 20.4898 2.89903 20.1668 2.57597C19.8527 2.24394 19.4174 2.07793 18.8611 2.07793C18.1521 2.07793 17.6002 2.39201 17.2054 3.02018C16.8105 3.64835 16.6131 4.51433 16.6131 5.61811C16.6131 6.71292 16.8105 7.57441 17.2054 8.20258C17.6002 8.82177 18.1521 9.13137 18.8611 9.13137C19.4354 9.13137 19.8751 8.9833 20.1802 8.68716C20.4853 8.38205 20.6828 7.98272 20.7725 7.48916H22.3474C22.2038 8.41346 21.8404 9.14483 21.2571 9.68326C20.6738 10.2127 19.8796 10.4774 18.8745 10.4774ZM23.5536 10.3159V0.893379H29.5706V2.17215H24.9805V4.91815H29.1668V6.18346H24.9805V9.03714H29.5706V10.3159H23.5536Z" fill="white"/>
</svg>
