<svg width="70" height="10" viewBox="0 0 70 10" fill="none" xmlns="http://www.w3.org/2000/svg">
<path d="M0.834118 9.78857V0.366035H2.26096V4.26966H6.37996V0.366035H7.8068V9.78857H6.37996V5.57535H2.26096V9.78857H0.834118ZM9.02647 9.78857V0.366035H15.0434V1.64481H10.4533V4.39081H14.6396V5.65612H10.4533V8.5098H15.0434V9.78857H9.02647ZM15.9939 9.78857L18.8072 0.366035H20.5032L23.3165 9.78857H21.7686L21.1359 7.52716H18.1745L17.5419 9.78857H15.9939ZM19.6148 2.38515L18.4976 6.383H20.8128L19.6956 2.38515H19.6148ZM24.0516 9.78857V0.366035H26.313C27.8296 0.366035 28.9558 0.787806 29.6917 1.63135C30.4275 2.46592 30.7955 3.61457 30.7955 5.0773C30.7955 6.54004 30.4275 7.69318 29.6917 8.53672C28.9558 9.37129 27.8296 9.78857 26.313 9.78857H24.0516ZM25.4785 8.46942H26.2592C27.354 8.46942 28.1437 8.16431 28.6283 7.55409C29.1129 6.93489 29.3552 6.1093 29.3552 5.0773C29.3552 4.04531 29.1129 3.22421 28.6283 2.61398C28.1437 1.99479 27.354 1.68519 26.2592 1.68519H25.4785V8.46942ZM42.5362 9.9501C41.8363 9.9501 41.2215 9.75268 40.6921 9.35783C40.1626 8.95401 39.7498 8.38865 39.4537 7.66177C39.1576 6.93489 39.0095 6.0734 39.0095 5.0773C39.0095 4.09916 39.1576 3.24664 39.4537 2.51976C39.7498 1.79288 40.1716 1.22752 40.719 0.823702C41.2754 0.410905 41.9395 0.204506 42.7112 0.204506C43.6445 0.204506 44.3938 0.460261 44.9592 0.97177C45.5335 1.48328 45.8835 2.20567 46.0091 3.13895H44.4611C44.3714 2.65437 44.1739 2.26849 43.8688 1.98133C43.5727 1.69416 43.1868 1.55058 42.7112 1.55058C41.9843 1.55058 41.4279 1.86467 41.0421 2.49284C40.6562 3.12101 40.4633 3.9825 40.4633 5.0773C40.4633 6.21698 40.6652 7.09193 41.069 7.70215C41.4818 8.3034 42.0157 8.60403 42.6708 8.60403C43.1105 8.60403 43.474 8.47391 43.7611 8.21366C44.0483 7.95342 44.2682 7.62139 44.4207 7.21757C44.5733 6.80477 44.6675 6.36954 44.7034 5.91187H42.7247V4.72732H46.1437V9.78857H44.8245L44.7303 8.52326H44.6496C44.4701 8.93606 44.2188 9.27706 43.8958 9.54628C43.5727 9.8155 43.1195 9.9501 42.5362 9.9501ZM47.3634 9.78857V0.366035H53.3803V1.64481H48.7902V4.39081H52.9765V5.65612H48.7902V8.5098H53.3803V9.78857H47.3634ZM54.3308 9.78857L57.1441 0.366035H58.8401L61.6534 9.78857H60.1055L59.4728 7.52716H56.5114L55.8788 9.78857H54.3308ZM57.9517 2.38515L56.8345 6.383H59.1497L58.0325 2.38515H57.9517ZM62.6308 9.78857V0.366035H65.7133C66.4492 0.366035 67.0549 0.491669 67.5305 0.742936C68.0151 0.994204 68.3741 1.33521 68.6074 1.76596C68.8497 2.18773 68.9708 2.66783 68.9708 3.20626C68.9708 3.81648 68.8138 4.3594 68.4997 4.83501C68.1946 5.30165 67.7235 5.64266 67.0863 5.85803L69.0651 9.78857H67.4094L65.6057 6.05994H64.0577V9.78857H62.6308ZM64.0577 4.76771H65.6326C66.2787 4.76771 66.7498 4.62413 67.046 4.33696C67.3511 4.0498 67.5036 3.6729 67.5036 3.20626C67.5036 2.73064 67.3556 2.35374 67.0594 2.07555C66.7633 1.78839 66.2832 1.64481 65.6191 1.64481H64.0577V4.76771Z" fill="#111111"/>
</svg>
