<svg width="61" height="10" viewBox="0 0 61 10" fill="none" xmlns="http://www.w3.org/2000/svg">
<path d="M0.176245 9.77838V0.355842H1.57617L5.52017 7.26122V0.355842H6.87971V9.77838H5.47979L1.53578 2.87301V9.77838H0.176245ZM8.23399 9.77838V0.355842H14.251V1.63462H9.66083V4.38061H13.8471V5.64592H9.66083V8.49961H14.251V9.77838H8.23399ZM18.8897 9.93991C18.1 9.93991 17.4269 9.738 16.8705 9.33418C16.3231 8.93035 15.9014 8.365 15.6052 7.63812C15.3181 6.90226 15.1745 6.04975 15.1745 5.08057C15.1745 4.10242 15.3181 3.24991 15.6052 2.52303C15.9014 1.78717 16.3276 1.21733 16.884 0.813509C17.4404 0.400712 18.1089 0.194313 18.8897 0.194313C19.9037 0.194313 20.7114 0.472502 21.3126 1.02888C21.9138 1.57629 22.2638 2.32111 22.3625 3.26337H20.7876C20.7069 2.76981 20.505 2.3615 20.1819 2.03844C19.8678 1.70641 19.4326 1.54039 18.8762 1.54039C18.1673 1.54039 17.6154 1.85447 17.2205 2.48264C16.8257 3.11081 16.6282 3.97679 16.6282 5.08057C16.6282 6.17538 16.8257 7.03687 17.2205 7.66504C17.6154 8.28424 18.1673 8.59383 18.8762 8.59383C19.4505 8.59383 19.8902 8.44577 20.1954 8.14963C20.5005 7.84452 20.6979 7.44518 20.7876 6.95162H22.3625C22.219 7.87593 21.8555 8.60729 21.2722 9.14573C20.6889 9.67518 19.8947 9.93991 18.8897 9.93991ZM23.5149 9.77838V0.355842H24.9417V4.66329L28.28 0.355842H30.0434L26.3551 5.02673V5.10749L30.1241 9.77838H28.3204L24.9417 5.5517V9.77838H23.5149ZM31.2496 9.77838V0.355842H32.6764V8.49961H37.3204V9.77838H31.2496ZM38.2036 9.77838L41.0169 0.355842H42.7129L45.5262 9.77838H43.9782L43.3456 7.51697H40.3842L39.7515 9.77838H38.2036ZM41.8245 2.37496L40.7073 6.37281H43.0225L41.9053 2.37496H41.8245ZM49.5592 9.93991C48.7695 9.93991 48.0964 9.738 47.5401 9.33418C46.9927 8.93035 46.5709 8.365 46.2748 7.63812C45.9876 6.90226 45.844 6.04975 45.844 5.08057C45.844 4.10242 45.9876 3.24991 46.2748 2.52303C46.5709 1.78717 46.9971 1.21733 47.5535 0.813509C48.1099 0.400712 48.7785 0.194313 49.5592 0.194313C50.5732 0.194313 51.3809 0.472502 51.9821 1.02888C52.5834 1.57629 52.9333 2.32111 53.0321 3.26337H51.4571C51.3764 2.76981 51.1745 2.3615 50.8514 2.03844C50.5373 1.70641 50.1021 1.54039 49.5457 1.54039C48.8368 1.54039 48.2849 1.85447 47.89 2.48264C47.4952 3.11081 47.2978 3.97679 47.2978 5.08057C47.2978 6.17538 47.4952 7.03687 47.89 7.66504C48.2849 8.28424 48.8368 8.59383 49.5457 8.59383C50.12 8.59383 50.5598 8.44577 50.8649 8.14963C51.17 7.84452 51.3674 7.44518 51.4571 6.95162H53.0321C52.8885 7.87593 52.525 8.60729 51.9417 9.14573C51.3584 9.67518 50.5642 9.93991 49.5592 9.93991ZM54.2383 9.77838V0.355842H60.2552V1.63462H55.6651V4.38061H59.8514V5.64592H55.6651V8.49961H60.2552V9.77838H54.2383Z" fill="white"/>
</svg>
