<svg width="46" height="11" viewBox="0 0 46 11" fill="none" xmlns="http://www.w3.org/2000/svg">
<path d="M4.09927 10.3559C3.33649 10.3559 2.67691 10.1584 2.12053 9.76359C1.56415 9.36874 1.1379 8.80788 0.84176 8.081C0.545623 7.35411 0.397554 6.48814 0.397554 5.48307C0.397554 4.478 0.545623 3.61202 0.84176 2.88514C1.1379 2.15826 1.56415 1.59739 2.12053 1.20254C2.67691 0.807692 3.33649 0.610268 4.09927 0.610268C4.87102 0.610268 5.53059 0.807692 6.078 1.20254C6.63438 1.59739 7.06064 2.15826 7.35677 2.88514C7.65291 3.61202 7.80098 4.478 7.80098 5.48307C7.80098 6.48814 7.65291 7.35411 7.35677 8.081C7.06064 8.80788 6.63438 9.36874 6.078 9.76359C5.53059 10.1584 4.87102 10.3559 4.09927 10.3559ZM4.09927 9.00979C4.7723 9.00979 5.31522 8.70916 5.72802 8.10792C6.14082 7.4977 6.34721 6.62274 6.34721 5.48307C6.34721 4.34339 6.14082 3.47292 5.72802 2.87168C5.31522 2.26146 4.7723 1.95634 4.09927 1.95634C3.41725 1.95634 2.86985 2.26146 2.45705 2.87168C2.05323 3.47292 1.85132 4.34339 1.85132 5.48307C1.85132 6.62274 2.05323 7.4977 2.45705 8.10792C2.86985 8.70916 3.41725 9.00979 4.09927 9.00979ZM11.7397 10.3559C11.1026 10.3559 10.5327 10.2257 10.0302 9.9655C9.53665 9.70526 9.14628 9.31041 8.85912 8.78096C8.57196 8.24252 8.42838 7.565 8.42838 6.74838V0.771797H9.85522V6.82914C9.85522 7.54705 10.0257 8.10343 10.3667 8.49828C10.7077 8.88415 11.1744 9.07709 11.7666 9.07709C12.3589 9.07709 12.8256 8.88415 13.1666 8.49828C13.5076 8.10343 13.6781 7.54705 13.6781 6.82914V0.771797H15.1049V6.74838C15.1049 7.565 14.9568 8.24252 14.6607 8.78096C14.3646 9.31041 13.9608 9.70526 13.4492 9.9655C12.9467 10.2257 12.3769 10.3559 11.7397 10.3559ZM18.7206 10.1943V2.05057H16.19V0.771797H22.6781V2.05057H20.1474V10.1943H18.7206ZM24.1939 10.1943V0.771797H30.2378V2.10441H25.6207V4.98502H29.4974V6.23687H25.6207V10.1943H24.1939ZM32.0093 10.1943V8.92902H34.0554V2.03711H32.0363V0.771797H37.5013V2.03711H35.4822V8.92902H37.5282V10.1943H32.0093ZM41.7227 10.1943V2.05057H39.1921V0.771797H45.6802V2.05057H43.1496V10.1943H41.7227Z" fill="white"/>
</svg>
