<svg width="228" height="21" viewBox="0 0 228 21" fill="none" xmlns="http://www.w3.org/2000/svg">
<path d="M6.4729 15.4467C5.23899 15.4467 4.18737 15.1312 3.31803 14.5003C2.46271 13.8693 1.80369 12.9859 1.34098 11.8502C0.892284 10.7004 0.667938 9.36835 0.667938 7.85401C0.667938 6.32565 0.892284 4.99359 1.34098 3.85784C1.80369 2.70807 2.46972 1.81769 3.33906 1.18672C4.2084 0.541725 5.25301 0.219227 6.4729 0.219227C8.05734 0.219227 9.31929 0.653898 10.2587 1.52324C11.1982 2.37856 11.745 3.54235 11.8993 5.01463H9.43847C9.31228 4.24344 8.99679 3.60545 8.49201 3.10067C8.00125 2.58187 7.3212 2.32247 6.45186 2.32247C5.34415 2.32247 4.48182 2.81323 3.86487 3.79474C3.24792 4.77626 2.93944 6.12935 2.93944 7.85401C2.93944 9.56465 3.24792 10.9107 3.86487 11.8922C4.48182 12.8597 5.34415 13.3435 6.45186 13.3435C7.34925 13.3435 8.03631 13.1121 8.51304 12.6494C8.98978 12.1727 9.29826 11.5487 9.43847 10.7775H11.8993C11.6749 12.2217 11.107 13.3645 10.1956 14.2058C9.28423 15.0331 8.04332 15.4467 6.4729 15.4467ZM13.6367 15.1943V0.0509674H15.8662V6.31864C16.1466 5.79984 16.5953 5.37218 17.2123 5.03566C17.8292 4.68512 18.5233 4.50985 19.2945 4.50985C20.5845 4.50985 21.566 4.90245 22.239 5.68767C22.9121 6.45886 23.2486 7.57358 23.2486 9.03183V15.1943H21.0191V9.34731C21.0191 8.47797 20.8088 7.80493 20.3882 7.3282C19.9675 6.85146 19.3856 6.61309 18.6425 6.61309C17.8713 6.61309 17.2123 6.87249 16.6654 7.39129C16.1326 7.9101 15.8662 8.66025 15.8662 9.64177V15.1943H13.6367ZM30.3914 15.4467C29.3959 15.4467 28.5055 15.2224 27.7203 14.7737C26.9351 14.325 26.3181 13.694 25.8694 12.8808C25.4207 12.0535 25.1964 11.086 25.1964 9.97829C25.1964 8.87058 25.4207 7.9101 25.8694 7.09684C26.3181 6.26956 26.9351 5.63158 27.7203 5.18289C28.5055 4.73419 29.4029 4.50985 30.4124 4.50985C31.422 4.50985 32.3124 4.73419 33.0836 5.18289C33.8688 5.63158 34.4787 6.26956 34.9134 7.09684C35.3621 7.9101 35.5864 8.87058 35.5864 9.97829C35.5864 11.086 35.3621 12.0535 34.9134 12.8808C34.4647 13.694 33.8477 14.325 33.0625 14.7737C32.2913 15.2224 31.401 15.4467 30.3914 15.4467ZM30.3914 13.3224C30.9242 13.3224 31.415 13.2033 31.8637 12.9649C32.3124 12.7265 32.6699 12.362 32.9363 11.8712C33.2168 11.3664 33.357 10.7355 33.357 9.97829C33.357 9.2071 33.2168 8.57612 32.9363 8.08537C32.6699 7.59461 32.3124 7.23005 31.8637 6.99168C31.429 6.75331 30.9453 6.63413 30.4124 6.63413C29.8796 6.63413 29.3889 6.75331 28.9402 6.99168C28.4915 7.23005 28.1269 7.59461 27.8465 8.08537C27.5801 8.57612 27.4469 9.2071 27.4469 9.97829C27.4469 11.1281 27.7343 11.9764 28.3092 12.5232C28.8981 13.056 29.5922 13.3224 30.3914 13.3224ZM42.3717 15.4467C41.3761 15.4467 40.4858 15.2224 39.7006 14.7737C38.9154 14.325 38.2984 13.694 37.8497 12.8808C37.401 12.0535 37.1767 11.086 37.1767 9.97829C37.1767 8.87058 37.401 7.9101 37.8497 7.09684C38.2984 6.26956 38.9154 5.63158 39.7006 5.18289C40.4858 4.73419 41.3832 4.50985 42.3927 4.50985C43.4023 4.50985 44.2926 4.73419 45.0638 5.18289C45.8491 5.63158 46.459 6.26956 46.8937 7.09684C47.3424 7.9101 47.5667 8.87058 47.5667 9.97829C47.5667 11.086 47.3424 12.0535 46.8937 12.8808C46.445 13.694 45.828 14.325 45.0428 14.7737C44.2716 15.2224 43.3812 15.4467 42.3717 15.4467ZM42.3717 13.3224C42.9045 13.3224 43.3953 13.2033 43.844 12.9649C44.2926 12.7265 44.6502 12.362 44.9166 11.8712C45.197 11.3664 45.3373 10.7355 45.3373 9.97829C45.3373 9.2071 45.197 8.57612 44.9166 8.08537C44.6502 7.59461 44.2926 7.23005 43.844 6.99168C43.4093 6.75331 42.9255 6.63413 42.3927 6.63413C41.8599 6.63413 41.3691 6.75331 40.9204 6.99168C40.4718 7.23005 40.1072 7.59461 39.8268 8.08537C39.5603 8.57612 39.4271 9.2071 39.4271 9.97829C39.4271 11.1281 39.7146 11.9764 40.2895 12.5232C40.8784 13.056 41.5725 13.3224 42.3717 13.3224ZM54.4361 15.4467C53.062 15.4467 51.9683 15.1242 51.155 14.4792C50.3418 13.8342 49.8791 12.9789 49.7669 11.9133H52.0594C52.1436 12.404 52.3889 12.8036 52.7956 13.1121C53.2162 13.4206 53.7701 13.5748 54.4571 13.5748C55.1161 13.5748 55.6209 13.4416 55.9715 13.1752C56.336 12.8948 56.5183 12.5723 56.5183 12.2077C56.5183 11.6749 56.301 11.3103 55.8663 11.114C55.4457 10.9177 54.8217 10.7705 53.9944 10.6724C53.2793 10.5882 52.6273 10.427 52.0384 10.1886C51.4635 9.93622 51.0078 9.5997 50.6713 9.17905C50.3348 8.74438 50.1665 8.20455 50.1665 7.55955C50.1665 6.64815 50.5241 5.91201 51.2392 5.35115C51.9543 4.79028 52.9498 4.50985 54.2258 4.50985C55.5017 4.50985 56.4903 4.79729 57.1913 5.37218C57.8924 5.94707 58.2991 6.73228 58.4112 7.72781H56.2659C56.2098 7.30716 55.9925 6.97766 55.6139 6.73929C55.2353 6.4869 54.7656 6.3607 54.2047 6.3607C53.6299 6.3607 53.1741 6.47288 52.8376 6.69722C52.5011 6.90755 52.3328 7.18798 52.3328 7.53852C52.3328 8.29569 53.1461 8.7584 54.7726 8.92666C55.5438 9.01079 56.2309 9.15802 56.8338 9.36835C57.4367 9.56465 57.9135 9.88014 58.264 10.3148C58.6145 10.7355 58.7898 11.3314 58.7898 12.1026C58.8038 12.7335 58.6216 13.3014 58.243 13.8062C57.8784 14.311 57.3666 14.7106 56.7076 15.005C56.0626 15.2995 55.3054 15.4467 54.4361 15.4467ZM66.4584 15.4467C65.4489 15.4467 64.5585 15.2224 63.7873 14.7737C63.0161 14.311 62.4132 13.673 61.9785 12.8597C61.5439 12.0465 61.3265 11.1 61.3265 10.0204C61.3265 8.92666 61.5369 7.96618 61.9575 7.13891C62.3922 6.31163 62.9951 5.66663 63.7663 5.20392C64.5515 4.74121 65.4559 4.50985 66.4795 4.50985C67.489 4.50985 68.3584 4.74121 69.0875 5.20392C69.8166 5.65261 70.3775 6.25554 70.7701 7.01271C71.1767 7.76988 71.38 8.60417 71.38 9.51557C71.38 9.65579 71.38 9.81003 71.38 9.97829C71.38 10.1325 71.373 10.3078 71.359 10.5041H63.5139C63.584 11.4716 63.8995 12.2077 64.4604 12.7125C65.0212 13.2033 65.6802 13.4486 66.4374 13.4486C67.0964 13.4486 67.6152 13.3154 67.9938 13.049C68.3864 12.7686 68.6739 12.39 68.8561 11.9133H71.1066C70.8542 12.9088 70.3284 13.7501 69.5292 14.4372C68.73 15.1102 67.7064 15.4467 66.4584 15.4467ZM66.4584 6.44483C65.7714 6.44483 65.1614 6.65516 64.6286 7.07581C64.0958 7.48244 63.7523 8.05732 63.598 8.80047H69.1506C69.0945 8.09939 68.8211 7.53151 68.3303 7.09684C67.8396 6.66217 67.2156 6.44483 66.4584 6.44483ZM85.6236 15.1943V4.76224H87.5586L87.7479 6.31864H87.8531C88.1335 5.81386 88.5682 5.3862 89.1571 5.03566C89.746 4.68512 90.426 4.50985 91.1972 4.50985C92.4732 4.50985 93.4337 4.89544 94.0787 5.66663C94.7237 6.43782 95.0462 7.57358 95.0462 9.07389V15.1943H92.8167V9.34731C92.8167 8.47797 92.6344 7.80493 92.2699 7.3282C91.9053 6.85146 91.3304 6.61309 90.5452 6.61309C89.774 6.61309 89.129 6.87249 88.6102 7.39129C88.1054 7.9101 87.8531 8.66025 87.8531 9.64177V15.1943H85.6236ZM102.399 15.4467C101.39 15.4467 100.499 15.2224 99.7282 14.7737C98.957 14.311 98.3541 13.673 97.9194 12.8597C97.4847 12.0465 97.2674 11.1 97.2674 10.0204C97.2674 8.92666 97.4777 7.96618 97.8983 7.13891C98.333 6.31163 98.936 5.66663 99.7071 5.20392C100.492 4.74121 101.397 4.50985 102.42 4.50985C103.43 4.50985 104.299 4.74121 105.028 5.20392C105.757 5.65261 106.318 6.25554 106.711 7.01271C107.118 7.76988 107.321 8.60417 107.321 9.51557C107.321 9.65579 107.321 9.81003 107.321 9.97829C107.321 10.1325 107.314 10.3078 107.3 10.5041H99.4548C99.5249 11.4716 99.8403 12.2077 100.401 12.7125C100.962 13.2033 101.621 13.4486 102.378 13.4486C103.037 13.4486 103.556 13.3154 103.935 13.049C104.327 12.7686 104.615 12.39 104.797 11.9133H107.047C106.795 12.9088 106.269 13.7501 105.47 14.4372C104.671 15.1102 103.647 15.4467 102.399 15.4467ZM102.399 6.44483C101.712 6.44483 101.102 6.65516 100.569 7.07581C100.037 7.48244 99.6931 8.05732 99.5389 8.80047H105.091C105.035 8.09939 104.762 7.53151 104.271 7.09684C103.78 6.66217 103.156 6.44483 102.399 6.44483ZM110.383 15.1943L108.112 4.76224H110.299L111.561 12.0815L113.055 4.76224H115.452L116.946 12.0815L118.207 4.76224H120.395L118.123 15.1943H115.831L114.253 7.66472L112.676 15.1943H110.383ZM133.44 15.1943V0.0509674H135.669V6.31864C135.949 5.79984 136.398 5.37218 137.015 5.03566C137.632 4.68512 138.326 4.50985 139.097 4.50985C140.387 4.50985 141.369 4.90245 142.042 5.68767C142.715 6.45886 143.051 7.57358 143.051 9.03183V15.1943H140.822V9.34731C140.822 8.47797 140.612 7.80493 140.191 7.3282C139.77 6.85146 139.188 6.61309 138.445 6.61309C137.674 6.61309 137.015 6.87249 136.468 7.39129C135.935 7.9101 135.669 8.66025 135.669 9.64177V15.1943H133.44ZM150.32 15.4467C149.311 15.4467 148.421 15.2224 147.649 14.7737C146.878 14.311 146.275 13.673 145.841 12.8597C145.406 12.0465 145.189 11.1 145.189 10.0204C145.189 8.92666 145.399 7.96618 145.819 7.13891C146.254 6.31163 146.857 5.66663 147.628 5.20392C148.413 4.74121 149.318 4.50985 150.341 4.50985C151.351 4.50985 152.22 4.74121 152.949 5.20392C153.679 5.65261 154.239 6.25554 154.632 7.01271C155.039 7.76988 155.242 8.60417 155.242 9.51557C155.242 9.65579 155.242 9.81003 155.242 9.97829C155.242 10.1325 155.235 10.3078 155.221 10.5041H147.376C147.446 11.4716 147.761 12.2077 148.322 12.7125C148.883 13.2033 149.542 13.4486 150.299 13.4486C150.958 13.4486 151.477 13.3154 151.856 13.049C152.248 12.7686 152.536 12.39 152.718 11.9133H154.969C154.716 12.9088 154.19 13.7501 153.391 14.4372C152.592 15.1102 151.568 15.4467 150.32 15.4467ZM150.32 6.44483C149.633 6.44483 149.023 6.65516 148.491 7.07581C147.958 7.48244 147.614 8.05732 147.46 8.80047H153.013C152.957 8.09939 152.683 7.53151 152.192 7.09684C151.702 6.66217 151.078 6.44483 150.32 6.44483ZM161.228 15.4467C160.401 15.4467 159.707 15.3065 159.146 15.0261C158.585 14.7316 158.164 14.346 157.884 13.8693C157.603 13.3785 157.463 12.8457 157.463 12.2708C157.463 11.2472 157.835 10.448 158.578 9.87312C159.335 9.29824 160.401 9.01079 161.775 9.01079H164.467V8.77944C164.467 7.20901 163.738 6.4238 162.28 6.4238C161.677 6.4238 161.165 6.55701 160.744 6.82342C160.338 7.07581 160.064 7.48945 159.924 8.06433H157.695C157.807 6.97065 158.277 6.10831 159.104 5.47734C159.945 4.83235 161.004 4.50985 162.28 4.50985C163.822 4.50985 164.944 4.88843 165.645 5.6456C166.346 6.40277 166.697 7.44738 166.697 8.77944V15.1943H164.804L164.614 13.659H164.467C164.159 14.1497 163.773 14.5704 163.31 14.9209C162.848 15.2715 162.153 15.4467 161.228 15.4467ZM161.649 13.5748C162.56 13.5748 163.24 13.3014 163.689 12.7546C164.152 12.1937 164.404 11.4856 164.446 10.6303H162.006C161.207 10.6303 160.639 10.7635 160.303 11.0299C159.98 11.2823 159.819 11.6399 159.819 12.1026C159.819 12.5653 159.98 12.9298 160.303 13.1963C160.639 13.4486 161.088 13.5748 161.649 13.5748ZM173.587 15.4467C172.718 15.4467 171.939 15.2434 171.252 14.8368C170.565 14.4161 170.018 13.7992 169.612 12.9859C169.219 12.1727 169.023 11.1701 169.023 9.97829C169.023 8.78645 169.226 7.7839 169.633 6.97065C170.039 6.15739 170.586 5.54745 171.273 5.14082C171.974 4.72017 172.753 4.50985 173.608 4.50985C174.407 4.50985 175.066 4.66409 175.585 4.97256C176.104 5.26702 176.489 5.6456 176.742 6.10831V0.0509674H178.971V15.1943H177.057L176.868 13.659H176.742C176.461 14.2058 176.062 14.6405 175.543 14.963C175.038 15.2855 174.386 15.4467 173.587 15.4467ZM174.05 13.3224C174.849 13.3224 175.508 13.042 176.027 12.4811C176.56 11.9203 176.826 11.086 176.826 9.97829C176.826 8.85656 176.56 8.02227 176.027 7.47542C175.508 6.91456 174.849 6.63413 174.05 6.63413C173.25 6.63413 172.584 6.91456 172.052 7.47542C171.533 8.03629 171.273 8.87759 171.273 9.99932C171.273 11.107 171.533 11.9413 172.052 12.5022C172.584 13.049 173.25 13.3224 174.05 13.3224ZM185.904 12.1867C185.259 12.1867 184.663 12.0815 184.116 11.8712L183.59 12.5022C183.422 12.7125 183.373 12.9158 183.443 13.1121C183.527 13.2944 183.716 13.3855 184.011 13.3855H186.766C187.986 13.3855 188.967 13.6449 189.711 14.1637C190.468 14.6685 190.846 15.4467 190.846 16.4983C190.846 17.1574 190.678 17.7533 190.342 18.2861C190.019 18.833 189.493 19.2676 188.764 19.5901C188.049 19.9126 187.103 20.0739 185.925 20.0739C184.438 20.0739 183.24 19.7934 182.328 19.2326C181.431 18.6857 180.982 17.8584 180.982 16.7507C180.982 16.3581 181.073 15.9936 181.256 15.657C181.452 15.3346 181.704 15.0401 182.013 14.7737C181.634 14.4933 181.403 14.1006 181.319 13.5959C181.249 13.0771 181.403 12.5793 181.781 12.1026L182.707 10.9247C182.048 10.2237 181.718 9.36133 181.718 8.33776C181.718 7.65069 181.88 7.01972 182.202 6.44483C182.539 5.85593 183.015 5.3862 183.632 5.03566C184.263 4.68512 185.02 4.50985 185.904 4.50985C186.479 4.50985 187.011 4.59398 187.502 4.76224H191.435V6.23451L189.605 6.33967V6.52896C189.9 7.07581 190.047 7.67874 190.047 8.33776C190.047 9.02482 189.879 9.6628 189.542 10.2517C189.22 10.8406 188.75 11.3103 188.133 11.6609C187.516 12.0114 186.773 12.1867 185.904 12.1867ZM185.904 10.3989C186.521 10.3989 187.025 10.2167 187.418 9.85209C187.825 9.48753 188.028 8.98275 188.028 8.33776C188.028 7.7208 187.825 7.23005 187.418 6.86548C187.025 6.50092 186.521 6.31864 185.904 6.31864C185.273 6.31864 184.754 6.50092 184.347 6.86548C183.955 7.23005 183.758 7.7208 183.758 8.33776C183.758 8.98275 183.955 9.48753 184.347 9.85209C184.754 10.2167 185.273 10.3989 185.904 10.3989ZM183.085 16.5825C183.085 17.1433 183.352 17.557 183.885 17.8234C184.431 18.0898 185.112 18.223 185.925 18.223C186.794 18.223 187.481 18.0758 187.986 17.7813C188.491 17.4869 188.743 17.0732 188.743 16.5404C188.743 16.0917 188.561 15.7342 188.196 15.4678C187.832 15.2154 187.215 15.0892 186.345 15.0892H183.885C183.352 15.5098 183.085 16.0076 183.085 16.5825ZM198.242 15.4467C197.232 15.4467 196.342 15.2224 195.57 14.7737C194.799 14.311 194.196 13.673 193.762 12.8597C193.327 12.0465 193.11 11.1 193.11 10.0204C193.11 8.92666 193.32 7.96618 193.741 7.13891C194.175 6.31163 194.778 5.66663 195.549 5.20392C196.335 4.74121 197.239 4.50985 198.263 4.50985C199.272 4.50985 200.141 4.74121 200.871 5.20392C201.6 5.65261 202.161 6.25554 202.553 7.01271C202.96 7.76988 203.163 8.60417 203.163 9.51557C203.163 9.65579 203.163 9.81003 203.163 9.97829C203.163 10.1325 203.156 10.3078 203.142 10.5041H195.297C195.367 11.4716 195.683 12.2077 196.243 12.7125C196.804 13.2033 197.463 13.4486 198.221 13.4486C198.88 13.4486 199.398 13.3154 199.777 13.049C200.17 12.7686 200.457 12.39 200.639 11.9133H202.89C202.637 12.9088 202.112 13.7501 201.312 14.4372C200.513 15.1102 199.489 15.4467 198.242 15.4467ZM198.242 6.44483C197.555 6.44483 196.945 6.65516 196.412 7.07581C195.879 7.48244 195.535 8.05732 195.381 8.80047H200.934C200.878 8.09939 200.604 7.53151 200.113 7.09684C199.623 6.66217 198.999 6.44483 198.242 6.44483ZM209.149 15.4467C208.322 15.4467 207.628 15.3065 207.067 15.0261C206.506 14.7316 206.085 14.346 205.805 13.8693C205.525 13.3785 205.384 12.8457 205.384 12.2708C205.384 11.2472 205.756 10.448 206.499 9.87312C207.256 9.29824 208.322 9.01079 209.696 9.01079H212.388V8.77944C212.388 7.20901 211.659 6.4238 210.201 6.4238C209.598 6.4238 209.086 6.55701 208.665 6.82342C208.259 7.07581 207.985 7.48945 207.845 8.06433H205.616C205.728 6.97065 206.198 6.10831 207.025 5.47734C207.866 4.83235 208.925 4.50985 210.201 4.50985C211.743 4.50985 212.865 4.88843 213.566 5.6456C214.267 6.40277 214.618 7.44738 214.618 8.77944V15.1943H212.725L212.535 13.659H212.388C212.08 14.1497 211.694 14.5704 211.231 14.9209C210.769 15.2715 210.075 15.4467 209.149 15.4467ZM209.57 13.5748C210.481 13.5748 211.161 13.3014 211.61 12.7546C212.073 12.1937 212.325 11.4856 212.367 10.6303H209.927C209.128 10.6303 208.56 10.7635 208.224 11.0299C207.901 11.2823 207.74 11.6399 207.74 12.1026C207.74 12.5653 207.901 12.9298 208.224 13.1963C208.56 13.4486 209.009 13.5748 209.57 13.5748ZM217.386 15.1943V13.2593H219.931V7.39129C219.931 6.92858 219.706 6.69722 219.258 6.69722H217.596V4.76224H220.099C220.674 4.76224 221.144 4.9305 221.508 5.26702C221.873 5.58951 222.055 6.04522 222.055 6.63413V6.88652H222.16C222.314 6.1013 222.644 5.51239 223.149 5.11979C223.667 4.71316 224.418 4.50985 225.399 4.50985H227.019V6.86548H224.747C223.92 6.86548 223.282 7.15293 222.833 7.72781C222.384 8.3027 222.16 8.98976 222.16 9.78899V13.2593H225.399V15.1943H217.386Z" fill="black"/>
</svg>
