<svg width="1314" height="751" viewBox="0 0 1314 751" fill="none" xmlns="http://www.w3.org/2000/svg">
<path d="M1142.29 551.756H1136.79V557.252H1142.29V551.756Z" fill="#563C9B"/>
<path d="M1125.8 535.267H1120.31V540.763H1125.8V535.267Z" fill="#563C9B"/>
<path d="M1142.29 518.779H1136.79V524.275H1142.29V518.779Z" fill="#563C9B"/>
<path d="M1158.78 535.267H1153.28V540.763H1158.78V535.267Z" fill="#563C9B"/>
<path d="M1142.29 540.763H1136.79V546.26H1142.29V540.763Z" fill="#8344BD"/>
<path d="M1136.79 535.267H1131.3V540.763H1136.79V535.267Z" fill="#8344BD"/>
<path d="M1142.29 529.771H1136.79V535.267H1142.29V529.771Z" fill="#8344BD"/>
<path d="M1147.79 535.267H1142.29V540.763H1147.79V535.267Z" fill="#8344BD"/>
<path d="M1142.29 535.267H1136.79V540.763H1142.29V535.267Z" fill="white"/>
<path d="M960.305 618.015H954.809V623.512H960.305V618.015Z" fill="#14577C"/>
<path d="M938.015 640H932.519V645.496H938.015V640Z" fill="#14577C"/>
<path d="M960.305 661.985H954.809V667.481H960.305V661.985Z" fill="#14577C"/>
<path d="M982.29 640H976.794V645.496H982.29V640Z" fill="#14577C"/>
<path d="M960.305 656.794H954.809V662.29H960.305V656.794Z" fill="#136E87"/>
<path d="M976.794 640H971.298V645.496H976.794V640Z" fill="#136E87"/>
<path d="M960.305 623.512H954.809V629.008H960.305V623.512Z" fill="#136E87"/>
<path d="M943.511 640H938.015V645.496H943.511V640Z" fill="#136E87"/>
<path d="M949.007 640H943.511V645.496H949.007V640Z" fill="#109B9C"/>
<path d="M960.305 650.992H954.809V656.489H960.305V650.992Z" fill="#109B9C"/>
<path d="M971.297 640H965.801V645.496H971.297V640Z" fill="#109B9C"/>
<path d="M960.305 629.008H954.809V634.504H960.305V629.008Z" fill="#109B9C"/>
<path d="M949.007 629.008H943.511V634.504H949.007V629.008Z" fill="#0BE3BD"/>
<path d="M949.007 650.992H943.511V656.489H949.007V650.992Z" fill="#0BE3BD"/>
<path d="M971.297 650.992H965.801V656.489H971.297V650.992Z" fill="#0BE3BD"/>
<path d="M971.297 629.008H965.801V634.504H971.297V629.008Z" fill="#0BE3BD"/>
<path d="M960.305 634.504H954.809V640H960.305V634.504Z" fill="#0BE3BD"/>
<path d="M954.809 640H949.313V645.496H954.809V640Z" fill="#0BE3BD"/>
<path d="M960.305 645.496H954.809V650.992H960.305V645.496Z" fill="#0BE3BD"/>
<path d="M965.801 640H960.305V645.496H965.801V640Z" fill="#0BE3BD"/>
<path d="M960.305 640H954.809V645.496H960.305V640Z" fill="white"/>
<path d="M778.015 650.992H772.519V656.489H778.015V650.992Z" fill="#647361"/>
<path d="M761.526 634.504H756.03V640H761.526V634.504Z" fill="#647361"/>
<path d="M778.015 618.015H772.519V623.512H778.015V618.015Z" fill="#647361"/>
<path d="M794.809 634.504H789.313V640H794.809V634.504Z" fill="#647361"/>
<path d="M778.015 640H772.519V645.496H778.015V640Z" fill="#9CA35B"/>
<path d="M772.519 634.504H767.023V640H772.519V634.504Z" fill="#9CA35B"/>
<path d="M778.015 629.008H772.519V634.504H778.015V629.008Z" fill="#9CA35B"/>
<path d="M783.511 634.504H778.015V640H783.511V634.504Z" fill="#9CA35B"/>
<path d="M778.015 634.504H772.519V640H778.015V634.504Z" fill="white"/>
<path d="M463.511 568.244H458.015V573.74H463.511V568.244Z" fill="#242885"/>
<path d="M485.496 590.534H480V596.031H485.496V590.534Z" fill="#242885"/>
<path d="M507.786 568.244H502.29V573.74H507.786V568.244Z" fill="#242885"/>
<path d="M485.496 546.26H480V551.756H485.496V546.26Z" fill="#242885"/>
<path d="M469.007 568.244H463.511V573.74H469.007V568.244Z" fill="#2C2394"/>
<path d="M485.496 585.038H480V590.534H485.496V585.038Z" fill="#2C2394"/>
<path d="M502.29 568.244H496.794V573.74H502.29V568.244Z" fill="#2C2394"/>
<path d="M485.496 551.756H480V557.252H485.496V551.756Z" fill="#2C2394"/>
<path d="M485.496 557.252H480V562.748H485.496V557.252Z" fill="#3C1AB3"/>
<path d="M474.504 568.244H469.008V573.74H474.504V568.244Z" fill="#3C1AB3"/>
<path d="M485.496 579.237H480V584.733H485.496V579.237Z" fill="#3C1AB3"/>
<path d="M496.794 568.244H491.298V573.74H496.794V568.244Z" fill="#3C1AB3"/>
<path d="M485.496 573.74H480V579.237H485.496V573.74Z" fill="#540BE3"/>
<path d="M480 568.244H474.504V573.74H480V568.244Z" fill="#540BE3"/>
<path d="M485.496 562.748H480V568.244H485.496V562.748Z" fill="#540BE3"/>
<path d="M490.992 568.244H485.496V573.74H490.992V568.244Z" fill="#540BE3"/>
<path d="M485.496 568.244H480V573.74H485.496V568.244Z" fill="white"/>
<path d="M165.496 634.504H160V640H165.496V634.504Z" fill="#242885"/>
<path d="M143.511 612.519H138.015V618.015H143.511V612.519Z" fill="#242885"/>
<path d="M165.496 590.534H160V596.031H165.496V590.534Z" fill="#242885"/>
<path d="M187.786 612.519H182.29V618.015H187.786V612.519Z" fill="#242885"/>
<path d="M165.496 629.008H160V634.504H165.496V629.008Z" fill="#2C2394"/>
<path d="M149.007 612.519H143.511V618.015H149.007V612.519Z" fill="#2C2394"/>
<path d="M165.496 596.031H160V601.527H165.496V596.031Z" fill="#2C2394"/>
<path d="M181.985 612.519H176.489V618.015H181.985V612.519Z" fill="#2C2394"/>
<path d="M165.496 623.512H160V629.008H165.496V623.512Z" fill="#3C1AB3"/>
<path d="M176.488 612.519H170.992V618.015H176.488V612.519Z" fill="#3C1AB3"/>
<path d="M165.496 601.527H160V607.023H165.496V601.527Z" fill="#3C1AB3"/>
<path d="M154.504 612.519H149.008V618.015H154.504V612.519Z" fill="#3C1AB3"/>
<path d="M154.504 623.512H149.008V629.008H154.504V623.512Z" fill="#540BE3"/>
<path d="M154.504 601.527H149.008V607.023H154.504V601.527Z" fill="#540BE3"/>
<path d="M176.488 601.527H170.992V607.023H176.488V601.527Z" fill="#540BE3"/>
<path d="M176.488 623.512H170.992V629.008H176.488V623.512Z" fill="#540BE3"/>
<path d="M165.496 618.015H160V623.512H165.496V618.015Z" fill="#540BE3"/>
<path d="M160 612.519H154.504V618.015H160V612.519Z" fill="#540BE3"/>
<path d="M165.496 607.023H160V612.519H165.496V607.023Z" fill="#540BE3"/>
<path d="M170.992 612.519H165.496V618.015H170.992V612.519Z" fill="#540BE3"/>
<path d="M165.496 612.519H160V618.015H165.496V612.519Z" fill="white"/>
<path d="M325.496 551.756H320V557.252H325.496V551.756Z" fill="#563A9A"/>
<path d="M309.007 535.267H303.511V540.763H309.007V535.267Z" fill="#563A9A"/>
<path d="M325.496 518.779H320V524.275H325.496V518.779Z" fill="#563A9A"/>
<path d="M342.29 535.267H336.794V540.763H342.29V535.267Z" fill="#563A9A"/>
<path d="M325.496 540.763H320V546.26H325.496V540.763Z" fill="#8343BD"/>
<path d="M320 535.267H314.504V540.763H320V535.267Z" fill="#8343BD"/>
<path d="M325.496 529.771H320V535.267H325.496V529.771Z" fill="#8343BD"/>
<path d="M330.992 535.267H325.496V540.763H330.992V535.267Z" fill="#8343BD"/>
<path d="M325.496 535.267H320V540.763H325.496V535.267Z" fill="white"/>
<path d="M198.778 436.031H193.282V441.527H198.778V436.031Z" fill="#3A2D7C"/>
<path d="M181.985 419.237H176.489V424.733H181.985V419.237Z" fill="#3A2D7C"/>
<path d="M198.778 402.748H193.282V408.244H198.778V402.748Z" fill="#3A2D7C"/>
<path d="M215.267 419.237H209.771V424.733H215.267V419.237Z" fill="#3A2D7C"/>
<path d="M193.282 419.237H187.786V424.733H193.282V419.237Z" fill="#543998"/>
<path d="M198.778 413.74H193.282V419.237H198.778V413.74Z" fill="#543998"/>
<path d="M204.275 419.237H198.779V424.733H204.275V419.237Z" fill="#543998"/>
<path d="M198.778 425.038H193.282V430.534H198.778V425.038Z" fill="#543998"/>
<path d="M198.778 419.237H193.282V424.733H198.778V419.237Z" fill="white"/>
<path d="M320 413.74H314.504V419.237H320V413.74Z" fill="#144D72"/>
<path d="M320 436.031H314.504V441.527H320V436.031Z" fill="#144D72"/>
<path d="M342.29 436.031H336.794V441.527H342.29V436.031Z" fill="#144D72"/>
<path d="M342.29 413.74H336.794V419.237H342.29V413.74Z" fill="#144D72"/>
<path d="M325.496 419.237H320V424.733H325.496V419.237Z" fill="#118991"/>
<path d="M325.496 430.534H320V436.031H325.496V430.534Z" fill="#118991"/>
<path d="M336.794 430.534H331.298V436.031H336.794V430.534Z" fill="#118991"/>
<path d="M336.794 419.237H331.298V424.733H336.794V419.237Z" fill="#118991"/>
<path d="M330.992 425.038H325.496V430.534H330.992V425.038Z" fill="#0BE3BD"/>
<path d="M1313.28 325.496H1307.79V330.992H1313.28V325.496Z" fill="#0BE3BD"/>
<path d="M1302.29 469.008H1296.79V474.504H1302.29V469.008Z" fill="#0B6AE3"/>
<path d="M1296.79 524.275H1291.3V529.771H1296.79V524.275Z" fill="#0BE3BD"/>
<path d="M1296.79 226.26H1291.3V231.756H1296.79V226.26Z" fill="#0BE3BD"/>
<path d="M1296.79 121.527H1291.3V127.023H1296.79V121.527Z" fill="#0BE3BD"/>
<path d="M1291.3 60.7634H1285.8V66.2596H1291.3V60.7634Z" fill="#241776"/>
<path d="M1285.8 60.7634H1280.31V66.2596H1285.8V60.7634Z" fill="#20186B"/>
<path d="M1280.31 623.512H1274.81V629.008H1280.31V623.512Z" fill="#0B6AE3"/>
<path d="M1280.31 71.7557H1274.81V77.2519H1280.31V71.7557Z" fill="#540BE3"/>
<path d="M1280.31 60.7634H1274.81V66.2596H1280.31V60.7634Z" fill="#3C11AB"/>
<path d="M1280.31 49.771H1274.81V55.2672H1280.31V49.771Z" fill="#540BE3"/>
<path d="M1274.81 60.7634H1269.31V66.2596H1274.81V60.7634Z" fill="#540BE3"/>
<path d="M1269.31 425.038H1263.82V430.534H1269.31V425.038Z" fill="#0BE3BD"/>
<path d="M1269.31 88.2443H1263.82V93.7404H1269.31V88.2443Z" fill="#241776"/>
<path d="M1269.31 82.7481H1263.82V88.2443H1269.31V82.7481Z" fill="#241776"/>
<path d="M1269.31 77.2519H1263.82V82.7481H1269.31V77.2519Z" fill="#20186B"/>
<path d="M1269.31 71.7557H1263.82V77.2519H1269.31V71.7557Z" fill="#3C11AB"/>
<path d="M1269.31 66.2596H1263.82V71.7557H1269.31V66.2596Z" fill="#540BE3"/>
<path d="M1269.31 60.7634H1263.82V66.2596H1269.31V60.7634Z" fill="white"/>
<path d="M1269.31 55.2672H1263.82V60.7634H1269.31V55.2672Z" fill="#540BE3"/>
<path d="M1269.31 49.771H1263.82V55.2672H1269.31V49.771Z" fill="#3C11AB"/>
<path d="M1269.31 44.2748H1263.82V49.771H1269.31V44.2748Z" fill="#20186B"/>
<path d="M1269.31 38.7786H1263.82V44.2748H1269.31V38.7786Z" fill="#241776"/>
<path d="M1269.31 22.2901H1263.82V27.7863H1269.31V22.2901Z" fill="#0B6AE3"/>
<path d="M1263.51 425.038H1258.02V430.534H1263.51V425.038Z" fill="#0BE3BD"/>
<path d="M1263.51 60.7634H1258.02V66.2596H1263.51V60.7634Z" fill="#540BE3"/>
<path d="M1258.02 165.496H1252.52V170.992H1258.02V165.496Z" fill="#0B6AE3"/>
<path d="M1258.02 71.7557H1252.52V77.2519H1258.02V71.7557Z" fill="#540BE3"/>
<path d="M1258.02 60.7634H1252.52V66.2596H1258.02V60.7634Z" fill="#3C11AB"/>
<path d="M1258.02 49.771H1252.52V55.2672H1258.02V49.771Z" fill="#540BE3"/>
<path d="M1252.52 60.7634H1247.02V66.2596H1252.52V60.7634Z" fill="#20186B"/>
<path d="M1247.02 551.756H1241.53V557.252H1247.02V551.756Z" fill="#0BE3BD"/>
<path d="M1247.02 60.7634H1241.53V66.2596H1247.02V60.7634Z" fill="#241776"/>
<path d="M1241.53 364.275H1236.03V369.771H1241.53V364.275Z" fill="#0BE3BD"/>
<path d="M1230.53 700.763H1225.04V706.26H1230.53V700.763Z" fill="#0BE3BD"/>
<path d="M1230.53 270.534H1225.04V276.031H1230.53V270.534Z" fill="#0BE3BD"/>
<path d="M1214.05 165.496H1208.55V170.992H1214.05V165.496Z" fill="#647361"/>
<path d="M1208.55 88.2443H1203.05V93.7404H1208.55V88.2443Z" fill="#0BE3BD"/>
<path d="M1203.05 447.023H1197.56V452.519H1203.05V447.023Z" fill="#0BE3BD"/>
<path d="M1203.05 165.496H1197.56V170.992H1203.05V165.496Z" fill="#9C9A53"/>
<path d="M1197.56 181.985H1192.06V187.481H1197.56V181.985Z" fill="#647361"/>
<path d="M1197.56 170.992H1192.06V176.489H1197.56V170.992Z" fill="#9C9A53"/>
<path d="M1197.56 165.496H1192.06V170.992H1197.56V165.496Z" fill="white"/>
<path d="M1197.56 160H1192.06V165.496H1197.56V160Z" fill="#9C9A53"/>
<path d="M1197.56 149.008H1192.06V154.504H1197.56V149.008Z" fill="#647361"/>
<path d="M1192.06 447.023H1186.56V452.519H1192.06V447.023Z" fill="#0BE3BD"/>
<path d="M1192.06 165.496H1186.56V170.992H1192.06V165.496Z" fill="#9C9A53"/>
<path d="M1192.06 10.9924H1186.56V16.4886H1192.06V10.9924Z" fill="#0B6AE3"/>
<path d="M1180.76 165.496H1175.27V170.992H1180.76V165.496Z" fill="#647361"/>
<path d="M1164.27 204.275H1158.78V209.771H1164.27V204.275Z" fill="#0BE3BD"/>
<path d="M1158.78 341.985H1153.28V347.481H1158.78V341.985Z" fill="#0BE3BD"/>
<path d="M1142.29 132.519H1136.79V138.015H1142.29V132.519Z" fill="#0BE3BD"/>
<path d="M1131.3 722.748H1125.8V728.244H1131.3V722.748Z" fill="#0BE3BD"/>
<path d="M1131.3 585.038H1125.8V590.534H1131.3V585.038Z" fill="#0BE3BD"/>
<path d="M1131.3 425.038H1125.8V430.534H1131.3V425.038Z" fill="#0BE3BD"/>
<path d="M1131.3 226.26H1125.8V231.756H1131.3V226.26Z" fill="#0B6AE3"/>
<path d="M1125.8 419.237H1120.31V424.733H1125.8V419.237Z" fill="#0BE3BD"/>
<path d="M1114.81 341.985H1109.31V347.481H1114.81V341.985Z" fill="#0BE3BD"/>
<path d="M1103.82 38.7786H1098.32V44.2748H1103.82V38.7786Z" fill="#0B6AE3"/>
<path d="M1092.52 99.2366H1087.02V104.733H1092.52V99.2366Z" fill="#0B6AE3"/>
<path d="M1087.02 524.275H1081.53V529.771H1087.02V524.275Z" fill="#0B6AE3"/>
<path d="M1076.03 673.282H1070.53V678.779H1076.03V673.282Z" fill="#0BE3BD"/>
<path d="M1076.03 397.252H1070.53V402.748H1076.03V397.252Z" fill="#0BE3BD"/>
<path d="M1070.53 281.527H1065.04V287.023H1070.53V281.527Z" fill="#0BE3BD"/>
<path d="M1048.55 99.2366H1043.05V104.733H1048.55V99.2366Z" fill="#0BE3BD"/>
<path d="M1037.56 38.7786H1032.06V44.2748H1037.56V38.7786Z" fill="#0BE3BD"/>
<path d="M1032.06 568.244H1026.56V573.74H1032.06V568.244Z" fill="#0BE3BD"/>
<path d="M1032.06 441.527H1026.56V447.023H1032.06V441.527Z" fill="#0BE3BD"/>
<path d="M1015.27 298.015H1009.77V303.511H1015.27V298.015Z" fill="#0BE3BD"/>
<path d="M993.282 689.771H987.786V695.267H993.282V689.771Z" fill="#0B6AE3"/>
<path d="M987.786 215.267H982.29V220.763H987.786V215.267Z" fill="#145B7E"/>
<path d="M987.786 193.282H982.29V198.779H987.786V193.282Z" fill="#145B7E"/>
<path d="M965.801 193.282H960.305V198.779H965.801V193.282Z" fill="#145B7E"/>
<path d="M982.29 364.275H976.794V369.771H982.29V364.275Z" fill="#0BE3BD"/>
<path d="M982.29 209.771H976.794V215.267H982.29V209.771Z" fill="#118F96"/>
<path d="M982.29 198.779H976.794V204.275H982.29V198.779Z" fill="#118F96"/>
<path d="M982.29 16.4886H976.794V21.9847H982.29V16.4886Z" fill="#646455"/>
<path d="M976.794 204.275H971.298V209.771H976.794V204.275Z" fill="#0BE3BD"/>
<path d="M971.297 209.771H965.801V215.267H971.297V209.771Z" fill="#118F96"/>
<path d="M971.297 198.779H965.801V204.275H971.297V198.779Z" fill="#118F96"/>
<path d="M971.297 16.4886H965.801V21.9847H971.297V16.4886Z" fill="#9C9A53"/>
<path d="M965.801 215.267H960.305V220.763H965.801V215.267Z" fill="#145B7E"/>
<path d="M965.801 33.2824H960.305V38.7786H965.801V33.2824Z" fill="#647361"/>
<path d="M965.801 22.2901H960.305V27.7863H965.801V22.2901Z" fill="#9C9A53"/>
<path d="M965.801 16.4886H960.305V21.9847H965.801V16.4886Z" fill="white"/>
<path d="M965.801 10.9924H960.305V16.4886H965.801V10.9924Z" fill="#9C9A53"/>
<path d="M965.801 0H960.305V5.49618H965.801V0Z" fill="#646455"/>
<path d="M960.305 16.4886H954.809V21.9847H960.305V16.4886Z" fill="#9C9A53"/>
<path d="M954.809 281.527H949.313V287.023H954.809V281.527Z" fill="#0BE3BD"/>
<path d="M949.007 16.4886H943.511V21.9847H949.007V16.4886Z" fill="#646455"/>
<path d="M943.511 585.038H938.015V590.534H943.511V585.038Z" fill="#0B6AE3"/>
<path d="M932.519 38.7786H927.023V44.2748H932.519V38.7786Z" fill="#0BE3BD"/>
<path d="M927.023 419.237H921.527V424.733H927.023V419.237Z" fill="#0BE3BD"/>
<path d="M927.023 110.534H921.527V116.031H927.023V110.534Z" fill="#0BE3BD"/>
<path d="M921.526 413.74H916.03V419.237H921.526V413.74Z" fill="#0BE3BD"/>
<path d="M921.526 149.008H916.03V154.504H921.526V149.008Z" fill="#0B6AE3"/>
<path d="M910.534 490.992H905.038V496.489H910.534V490.992Z" fill="#0BE3BD"/>
<path d="M899.542 209.771H894.046V215.267H899.542V209.771Z" fill="#0B6AE3"/>
<path d="M894.046 700.763H888.55V706.26H894.046V700.763Z" fill="#0BE3BD"/>
<path d="M894.046 325.496H888.55V330.992H894.046V325.496Z" fill="#0BE3BD"/>
<path d="M883.053 623.512H877.557V629.008H883.053V623.512Z" fill="#0BE3BD"/>
<path d="M855.267 127.023H849.771V132.519H855.267V127.023Z" fill="#0BE3BD"/>
<path d="M849.771 408.244H844.275V413.74H849.771V408.244Z" fill="#0B6AE3"/>
<path d="M849.771 22.2901H844.275V27.7863H849.771V22.2901Z" fill="#0B6AE3"/>
<path d="M844.275 745.038H838.778V750.534H844.275V745.038Z" fill="#0B6AE3"/>
<path d="M838.778 231.756H833.282V237.252H838.778V231.756Z" fill="#0BE3BD"/>
<path d="M833.282 436.031H827.786V441.527H833.282V436.031Z" fill="#14587C"/>
<path d="M833.282 413.74H827.786V419.237H833.282V413.74Z" fill="#14587C"/>
<path d="M833.282 154.504H827.786V160H833.282V154.504Z" fill="#14577C"/>
<path d="M827.786 430.534H822.29V436.031H827.786V430.534Z" fill="#118D95"/>
<path d="M827.786 419.237H822.29V424.733H827.786V419.237Z" fill="#118D95"/>
<path d="M827.786 154.504H822.29V160H827.786V154.504Z" fill="#136E87"/>
<path d="M822.29 425.038H816.794V430.534H822.29V425.038Z" fill="#0BE3BD"/>
<path d="M822.29 364.275H816.794V369.771H822.29V364.275Z" fill="#0BE3BD"/>
<path d="M822.29 165.496H816.794V170.992H822.29V165.496Z" fill="#0BE3BD"/>
<path d="M822.29 154.504H816.794V160H822.29V154.504Z" fill="#109B9C"/>
<path d="M822.29 143.511H816.794V149.008H822.29V143.511Z" fill="#0BE3BD"/>
<path d="M816.794 430.534H811.298V436.031H816.794V430.534Z" fill="#118D95"/>
<path d="M816.794 419.237H811.298V424.733H816.794V419.237Z" fill="#118D95"/>
<path d="M816.794 154.504H811.298V160H816.794V154.504Z" fill="#0BE3BD"/>
<path d="M811.297 436.031H805.801V441.527H811.297V436.031Z" fill="#14587C"/>
<path d="M811.297 413.74H805.801V419.237H811.297V413.74Z" fill="#14587C"/>
<path d="M811.297 176.489H805.801V181.985H811.297V176.489Z" fill="#14577C"/>
<path d="M811.297 170.992H805.801V176.489H811.297V170.992Z" fill="#136E87"/>
<path d="M811.297 165.496H805.801V170.992H811.297V165.496Z" fill="#109B9C"/>
<path d="M811.297 160H805.801V165.496H811.297V160Z" fill="#0BE3BD"/>
<path d="M811.297 154.504H805.801V160H811.297V154.504Z" fill="white"/>
<path d="M811.297 149.008H805.801V154.504H811.297V149.008Z" fill="#0BE3BD"/>
<path d="M811.297 143.511H805.801V149.008H811.297V143.511Z" fill="#109B9C"/>
<path d="M811.297 138.015H805.801V143.511H811.297V138.015Z" fill="#136E87"/>
<path d="M811.297 132.519H805.801V138.015H811.297V132.519Z" fill="#14577C"/>
<path d="M805.801 154.504H800.305V160H805.801V154.504Z" fill="#0BE3BD"/>
<path d="M800.305 165.496H794.809V170.992H800.305V165.496Z" fill="#0BE3BD"/>
<path d="M800.305 154.504H794.809V160H800.305V154.504Z" fill="#109B9C"/>
<path d="M800.305 143.511H794.809V149.008H800.305V143.511Z" fill="#0BE3BD"/>
<path d="M794.809 154.504H789.313V160H794.809V154.504Z" fill="#136E87"/>
<path d="M789.008 535.267H783.511V540.763H789.008V535.267Z" fill="#0BE3BD"/>
<path d="M789.008 154.504H783.511V160H789.008V154.504Z" fill="#14577C"/>
<path d="M783.511 303.511H778.015V309.008H783.511V303.511Z" fill="#0B6AE3"/>
<path d="M778.015 607.023H772.519V612.519H778.015V607.023Z" fill="#0B6AE3"/>
<path d="M778.015 38.7786H772.519V44.2748H778.015V38.7786Z" fill="#0B6AE3"/>
<path d="M767.023 330.992H761.527V336.489H767.023V330.992Z" fill="#0BE3BD"/>
<path d="M761.526 375.267H756.03V380.763H761.526V375.267Z" fill="#0B6AE3"/>
<path d="M739.542 700.763H734.046V706.26H739.542V700.763Z" fill="#0BE3BD"/>
<path d="M734.046 463.511H728.55V469.008H734.046V463.511Z" fill="#0B6AE3"/>
<path d="M728.55 170.992H723.054V176.489H728.55V170.992Z" fill="#0B6AE3"/>
<path d="M723.053 391.756H717.557V397.252H723.053V391.756Z" fill="#0BE3BD"/>
<path d="M717.557 104.733H712.061V110.229H717.557V104.733Z" fill="#646455"/>
<path d="M711.756 265.038H706.26V270.534H711.756V265.038Z" fill="#0BE3BD"/>
<path d="M706.259 347.786H700.763V353.282H706.259V347.786Z" fill="#0B6AE3"/>
<path d="M706.259 104.733H700.763V110.229H706.259V104.733Z" fill="#9C9A53"/>
<path d="M700.763 121.527H695.267V127.023H700.763V121.527Z" fill="#646455"/>
<path d="M700.763 110.534H695.267V116.031H700.763V110.534Z" fill="#9C9A53"/>
<path d="M700.763 104.733H695.267V110.229H700.763V104.733Z" fill="white"/>
<path d="M700.763 99.2366H695.267V104.733H700.763V99.2366Z" fill="#9C9A53"/>
<path d="M700.763 88.2443H695.267V93.7404H700.763V88.2443Z" fill="#646455"/>
<path d="M695.267 209.771H689.771V215.267H695.267V209.771Z" fill="#0BE3BD"/>
<path d="M695.267 104.733H689.771V110.229H695.267V104.733Z" fill="#9C9A53"/>
<path d="M684.275 585.038H678.778V590.534H684.275V585.038Z" fill="#0BE3BD"/>
<path d="M684.275 104.733H678.778V110.229H684.275V104.733Z" fill="#646455"/>
<path d="M667.786 667.481H662.29V672.977H667.786V667.481Z" fill="#0B6AE3"/>
<path d="M651.298 501.985H645.802V507.481H651.298V501.985Z" fill="#0B6AE3"/>
<path d="M640 391.756H634.504V397.252H640V391.756Z" fill="#0B6AE3"/>
<path d="M618.015 397.252H612.519V402.748H618.015V397.252Z" fill="#1F1C6C"/>
<path d="M618.015 265.038H612.519V270.534H618.015V265.038Z" fill="#0B6AE3"/>
<path d="M618.015 149.008H612.519V154.504H618.015V149.008Z" fill="#0B6AE3"/>
<path d="M618.015 71.7557H612.519V77.2519H618.015V71.7557Z" fill="#0B6AE3"/>
<path d="M612.519 397.252H607.023V402.748H612.519V397.252Z" fill="#231A76"/>
<path d="M607.023 728.244H601.527V733.74H607.023V728.244Z" fill="#0B6AE3"/>
<path d="M607.023 408.244H601.527V413.74H607.023V408.244Z" fill="#3B13AB"/>
<path d="M607.023 397.252H601.527V402.748H607.023V397.252Z" fill="#2D178A"/>
<path d="M607.023 386.259H601.527V391.756H607.023V386.259Z" fill="#3B13AB"/>
<path d="M607.023 198.779H601.527V204.275H607.023V198.779Z" fill="#0BE3BD"/>
<path d="M601.526 397.252H596.03V402.748H601.526V397.252Z" fill="#3B13AB"/>
<path d="M601.526 127.023H596.03V132.519H601.526V127.023Z" fill="#144A6F"/>
<path d="M601.526 104.733H596.03V110.229H601.526V104.733Z" fill="#144A6F"/>
<path d="M596.03 568.244H590.534V573.74H596.03V568.244Z" fill="#0B6AE3"/>
<path d="M596.03 419.237H590.534V424.733H596.03V419.237Z" fill="#1F1C6C"/>
<path d="M596.03 413.74H590.534V419.237H596.03V413.74Z" fill="#231A76"/>
<path d="M596.03 408.244H590.534V413.74H596.03V408.244Z" fill="#2D178A"/>
<path d="M596.03 402.748H590.534V408.244H596.03V402.748Z" fill="#3B13AB"/>
<path d="M596.03 397.252H590.534V402.748H596.03V397.252Z" fill="#9FA2BB"/>
<path d="M596.03 391.756H590.534V397.252H596.03V391.756Z" fill="#3B13AB"/>
<path d="M596.03 386.259H590.534V391.756H596.03V386.259Z" fill="#2D178A"/>
<path d="M596.03 380.763H590.534V386.259H596.03V380.763Z" fill="#231A76"/>
<path d="M596.03 375.267H590.534V380.763H596.03V375.267Z" fill="#1F1C6C"/>
<path d="M596.03 303.511H590.534V309.008H596.03V303.511Z" fill="#646455"/>
<path d="M596.03 121.527H590.534V127.023H596.03V121.527Z" fill="#11848D"/>
<path d="M596.03 110.534H590.534V116.031H596.03V110.534Z" fill="#11848D"/>
<path d="M590.534 397.252H585.038V402.748H590.534V397.252Z" fill="#3B13AB"/>
<path d="M590.534 116.031H585.038V121.527H590.534V116.031Z" fill="#0BE3BD"/>
<path d="M585.038 408.244H579.542V413.74H585.038V408.244Z" fill="#3B13AB"/>
<path d="M585.038 397.252H579.542V402.748H585.038V397.252Z" fill="#2D178A"/>
<path d="M585.038 386.259H579.542V391.756H585.038V386.259Z" fill="#3B13AB"/>
<path d="M585.038 303.511H579.542V309.008H585.038V303.511Z" fill="#9CA35B"/>
<path d="M585.038 121.527H579.542V127.023H585.038V121.527Z" fill="#11848D"/>
<path d="M585.038 110.534H579.542V116.031H585.038V110.534Z" fill="#11848D"/>
<path d="M579.542 397.252H574.046V402.748H579.542V397.252Z" fill="#231A76"/>
<path d="M579.542 320H574.046V325.496H579.542V320Z" fill="#646455"/>
<path d="M579.542 309.008H574.046V314.504H579.542V309.008Z" fill="#9CA35B"/>
<path d="M579.542 303.511H574.046V309.008H579.542V303.511Z" fill="white"/>
<path d="M579.542 298.015H574.046V303.511H579.542V298.015Z" fill="#9CA35B"/>
<path d="M579.542 287.023H574.046V292.519H579.542V287.023Z" fill="#647361"/>
<path d="M579.542 127.023H574.046V132.519H579.542V127.023Z" fill="#144A6F"/>
<path d="M579.542 104.733H574.046V110.229H579.542V104.733Z" fill="#144A6F"/>
<path d="M574.046 397.252H568.55V402.748H574.046V397.252Z" fill="#1F1C6C"/>
<path d="M574.046 303.511H568.55V309.008H574.046V303.511Z" fill="#9CA35B"/>
<path d="M568.244 650.992H562.748V656.489H568.244V650.992Z" fill="#0BE3BD"/>
<path d="M568.244 10.9924H562.748V16.4886H568.244V10.9924Z" fill="#0B6AE3"/>
<path d="M562.748 303.511H557.252V309.008H562.748V303.511Z" fill="#647361"/>
<path d="M551.756 160H546.26V165.496H551.756V160Z" fill="#0B6AE3"/>
<path d="M551.756 82.7481H546.26V88.2443H551.756V82.7481Z" fill="#142C76"/>
<path d="M546.259 82.7481H540.763V88.2443H546.259V82.7481Z" fill="#133688"/>
<path d="M540.763 353.282H535.267V358.779H540.763V353.282Z" fill="#0BE3BD"/>
<path d="M540.763 242.748H535.267V248.244H540.763V242.748Z" fill="#0BE3BD"/>
<path d="M540.763 93.7404H535.267V99.2366H540.763V93.7404Z" fill="#0B6AE3"/>
<path d="M540.763 82.7481H535.267V88.2443H540.763V82.7481Z" fill="#104AAB"/>
<path d="M540.763 71.7557H535.267V77.2519H540.763V71.7557Z" fill="#0B6AE3"/>
<path d="M535.267 474.504H529.771V480H535.267V474.504Z" fill="#0B6AE3"/>
<path d="M535.267 419.237H529.771V424.733H535.267V419.237Z" fill="#0BE3BD"/>
<path d="M535.267 82.7481H529.771V88.2443H535.267V82.7481Z" fill="#0B6AE3"/>
<path d="M529.771 419.237H524.275V424.733H529.771V419.237Z" fill="#0BE3BD"/>
<path d="M529.771 104.733H524.275V110.229H529.771V104.733Z" fill="#142C76"/>
<path d="M529.771 99.2366H524.275V104.733H529.771V99.2366Z" fill="#133688"/>
<path d="M529.771 93.7404H524.275V99.2366H529.771V93.7404Z" fill="#104AAB"/>
<path d="M529.771 88.2443H524.275V93.7404H529.771V88.2443Z" fill="#0B6AE3"/>
<path d="M529.771 82.7481H524.275V88.2443H529.771V82.7481Z" fill="white"/>
<path d="M529.771 77.2519H524.275V82.7481H529.771V77.2519Z" fill="#0B6AE3"/>
<path d="M529.771 71.7557H524.275V77.2519H529.771V71.7557Z" fill="#104AAB"/>
<path d="M529.771 66.2596H524.275V71.7557H529.771V66.2596Z" fill="#133688"/>
<path d="M529.771 60.7634H524.275V66.2596H529.771V60.7634Z" fill="#142C76"/>
<path d="M524.275 82.7481H518.779V88.2443H524.275V82.7481Z" fill="#0B6AE3"/>
<path d="M518.778 722.748H513.282V728.244H518.778V722.748Z" fill="#0BE3BD"/>
<path d="M518.778 93.7404H513.282V99.2366H518.778V93.7404Z" fill="#0B6AE3"/>
<path d="M518.778 82.7481H513.282V88.2443H518.778V82.7481Z" fill="#104AAB"/>
<path d="M518.778 71.7557H513.282V77.2519H518.778V71.7557Z" fill="#0B6AE3"/>
<path d="M513.282 82.7481H507.786V88.2443H513.282V82.7481Z" fill="#133688"/>
<path d="M507.786 82.7481H502.29V88.2443H507.786V82.7481Z" fill="#142C76"/>
<path d="M502.29 623.512H496.794V629.008H502.29V623.512Z" fill="#0BE3BD"/>
<path d="M502.29 397.252H496.794V402.748H502.29V397.252Z" fill="#144D72"/>
<path d="M502.29 375.267H496.794V380.763H502.29V375.267Z" fill="#144D72"/>
<path d="M496.794 391.756H491.298V397.252H496.794V391.756Z" fill="#0BB8CB"/>
<path d="M496.794 380.763H491.298V386.259H496.794V380.763Z" fill="#0BB8CB"/>
<path d="M496.794 176.489H491.298V181.985H496.794V176.489Z" fill="#0BE3BD"/>
<path d="M490.992 507.786H485.496V513.282H490.992V507.786Z" fill="#0BE3BD"/>
<path d="M490.992 386.259H485.496V391.756H490.992V386.259Z" fill="#0BE3BD"/>
<path d="M485.496 391.756H480V397.252H485.496V391.756Z" fill="#0BB8CB"/>
<path d="M485.496 380.763H480V386.259H485.496V380.763Z" fill="#0BB8CB"/>
<path d="M480 397.252H474.504V402.748H480V397.252Z" fill="#144D72"/>
<path d="M480 375.267H474.504V380.763H480V375.267Z" fill="#144D72"/>
<path d="M474.504 49.771H469.008V55.2672H474.504V49.771Z" fill="#145579"/>
<path d="M474.504 27.7863H469.008V33.2824H474.504V27.7863Z" fill="#145579"/>
<path d="M469.007 110.534H463.511V116.031H469.007V110.534Z" fill="#0B6AE3"/>
<path d="M469.007 44.2748H463.511V49.771H469.007V44.2748Z" fill="#118B93"/>
<path d="M469.007 33.2824H463.511V38.7786H469.007V33.2824Z" fill="#118B93"/>
<path d="M463.511 38.7786H458.015V44.2748H463.511V38.7786Z" fill="#0BE3BD"/>
<path d="M458.015 44.2748H452.519V49.771H458.015V44.2748Z" fill="#118B93"/>
<path d="M458.015 33.2824H452.519V38.7786H458.015V33.2824Z" fill="#118B93"/>
<path d="M452.519 49.771H447.023V55.2672H452.519V49.771Z" fill="#145579"/>
<path d="M452.519 27.7863H447.023V33.2824H452.519V27.7863Z" fill="#145579"/>
<path d="M441.527 314.504H436.031V320H441.527V314.504Z" fill="#0BE3BD"/>
<path d="M441.527 220.763H436.031V226.26H441.527V220.763Z" fill="#0BE3BD"/>
<path d="M414.046 265.038H408.55V270.534H414.046V265.038Z" fill="#14577C"/>
<path d="M408.549 330.992H403.053V336.489H408.549V330.992Z" fill="#0BE3BD"/>
<path d="M408.549 265.038H403.053V270.534H408.549V265.038Z" fill="#136E87"/>
<path d="M402.748 618.015H397.252V623.512H402.748V618.015Z" fill="#0B6AE3"/>
<path d="M402.748 276.031H397.252V281.527H402.748V276.031Z" fill="#0BE3BD"/>
<path d="M402.748 265.038H397.252V270.534H402.748V265.038Z" fill="#109B9C"/>
<path d="M402.748 253.74H397.252V259.237H402.748V253.74Z" fill="#0BE3BD"/>
<path d="M397.252 728.244H391.756V733.74H397.252V728.244Z" fill="#0B6AE3"/>
<path d="M397.252 265.038H391.756V270.534H397.252V265.038Z" fill="#0BE3BD"/>
<path d="M391.756 287.023H386.26V292.519H391.756V287.023Z" fill="#14577C"/>
<path d="M391.756 281.527H386.26V287.023H391.756V281.527Z" fill="#136E87"/>
<path d="M391.756 276.031H386.26V281.527H391.756V276.031Z" fill="#109B9C"/>
<path d="M391.756 270.534H386.26V276.031H391.756V270.534Z" fill="#0BE3BD"/>
<path d="M391.756 265.038H386.26V270.534H391.756V265.038Z" fill="white"/>
<path d="M391.756 259.542H386.26V265.038H391.756V259.542Z" fill="#0BE3BD"/>
<path d="M391.756 253.74H386.26V259.237H391.756V253.74Z" fill="#109B9C"/>
<path d="M391.756 248.244H386.26V253.74H391.756V248.244Z" fill="#136E87"/>
<path d="M391.756 242.748H386.26V248.244H391.756V242.748Z" fill="#14577C"/>
<path d="M386.259 678.779H380.763V684.275H386.259V678.779Z" fill="#0BE3BD"/>
<path d="M386.259 447.023H380.763V452.519H386.259V447.023Z" fill="#0B6AE3"/>
<path d="M386.259 380.763H380.763V386.259H386.259V380.763Z" fill="#0BE3BD"/>
<path d="M386.259 265.038H380.763V270.534H386.259V265.038Z" fill="#0BE3BD"/>
<path d="M386.259 49.771H380.763V55.2672H386.259V49.771Z" fill="#563697"/>
<path d="M380.763 276.031H375.267V281.527H380.763V276.031Z" fill="#0BE3BD"/>
<path d="M380.763 265.038H375.267V270.534H380.763V265.038Z" fill="#109B9C"/>
<path d="M380.763 253.74H375.267V259.237H380.763V253.74Z" fill="#0BE3BD"/>
<path d="M375.267 265.038H369.771V270.534H375.267V265.038Z" fill="#136E87"/>
<path d="M375.267 215.267H369.771V220.763H375.267V215.267Z" fill="#0BE3BD"/>
<path d="M375.267 49.771H369.771V55.2672H375.267V49.771Z" fill="#8341BB"/>
<path d="M369.771 265.038H364.275V270.534H369.771V265.038Z" fill="#14577C"/>
<path d="M369.771 66.2596H364.275V71.7557H369.771V66.2596Z" fill="#563697"/>
<path d="M369.771 55.2672H364.275V60.7634H369.771V55.2672Z" fill="#8341BB"/>
<path d="M369.771 49.771H364.275V55.2672H369.771V49.771Z" fill="white"/>
<path d="M369.771 44.2748H364.275V49.771H369.771V44.2748Z" fill="#8341BB"/>
<path d="M369.771 33.2824H364.275V38.7786H369.771V33.2824Z" fill="#563697"/>
<path d="M364.275 49.771H358.779V55.2672H364.275V49.771Z" fill="#8341BB"/>
<path d="M353.282 585.038H347.786V590.534H353.282V585.038Z" fill="#0BE3BD"/>
<path d="M353.282 49.771H347.786V55.2672H353.282V49.771Z" fill="#563697"/>
<path d="M342.29 116.031H336.794V121.527H342.29V116.031Z" fill="#0BE3BD"/>
<path d="M325.496 325.496H320V330.992H325.496V325.496Z" fill="#0BE3BD"/>
<path d="M325.496 160H320V165.496H325.496V160Z" fill="#0BE3BD"/>
<path d="M320 215.267H314.504V220.763H320V215.267Z" fill="#0BE3BD"/>
<path d="M314.504 265.038H309.008V270.534H314.504V265.038Z" fill="#0BE3BD"/>
<path d="M309.007 474.504H303.511V480H309.007V474.504Z" fill="#0BE3BD"/>
<path d="M303.511 469.008H298.015V474.504H303.511V469.008Z" fill="#0BE3BD"/>
<path d="M298.015 656.794H292.519V662.29H298.015V656.794Z" fill="#0BE3BD"/>
<path d="M281.527 33.2824H276.031V38.7786H281.527V33.2824Z" fill="#0B6AE3"/>
<path d="M281.527 5.49619H276.031V10.9924H281.527V5.49619Z" fill="#0BE3BD"/>
<path d="M270.534 347.786H265.038V353.282H270.534V347.786Z" fill="#0BE3BD"/>
<path d="M265.038 463.511H259.542V469.008H265.038V463.511Z" fill="#0B6AE3"/>
<path d="M242.748 242.748H237.252V248.244H242.748V242.748Z" fill="#0BE3BD"/>
<path d="M237.252 474.504H231.756V480H237.252V474.504Z" fill="#0BE3BD"/>
<path d="M231.756 187.786H226.26V193.282H231.756V187.786Z" fill="#0BE3BD"/>
<path d="M231.756 104.733H226.26V110.229H231.756V104.733Z" fill="#0BE3BD"/>
<path d="M220.763 265.038H215.267V270.534H220.763V265.038Z" fill="#0BE3BD"/>
<path d="M209.771 596.031H204.275V601.527H209.771V596.031Z" fill="#0B6AE3"/>
<path d="M204.275 330.992H198.779V336.489H204.275V330.992Z" fill="#0BE3BD"/>
<path d="M198.778 5.49619H193.282V10.9924H198.778V5.49619Z" fill="#0B6AE3"/>
<path d="M193.282 700.763H187.786V706.26H193.282V700.763Z" fill="#0BE3BD"/>
<path d="M193.282 546.26H187.786V551.756H193.282V546.26Z" fill="#0BE3BD"/>
<path d="M176.488 149.008H170.992V154.504H176.488V149.008Z" fill="#0BE3BD"/>
<path d="M165.496 220.763H160V226.26H165.496V220.763Z" fill="#0BE3BD"/>
<path d="M154.504 44.2748H149.008V49.771H154.504V44.2748Z" fill="#0BE3BD"/>
<path d="M138.015 380.763H132.519V386.259H138.015V380.763Z" fill="#0B6AE3"/>
<path d="M138.015 66.2596H132.519V71.7557H138.015V66.2596Z" fill="#646455"/>
<path d="M132.519 270.534H127.023V276.031H132.519V270.534Z" fill="#0BE3BD"/>
<path d="M127.023 496.489H121.527V501.985H127.023V496.489Z" fill="#0B6AE3"/>
<path d="M127.023 425.038H121.527V430.534H127.023V425.038Z" fill="#0B6AE3"/>
<path d="M127.023 66.2596H121.527V71.7557H127.023V66.2596Z" fill="#9C9A53"/>
<path d="M121.527 82.7481H116.031V88.2443H121.527V82.7481Z" fill="#646455"/>
<path d="M121.527 71.7557H116.031V77.2519H121.527V71.7557Z" fill="#9C9A53"/>
<path d="M121.527 66.2596H116.031V71.7557H121.527V66.2596Z" fill="white"/>
<path d="M121.527 60.7634H116.031V66.2596H121.527V60.7634Z" fill="#9C9A53"/>
<path d="M121.527 49.771H116.031V55.2672H121.527V49.771Z" fill="#646455"/>
<path d="M121.527 5.49619H116.031V10.9924H121.527V5.49619Z" fill="#0BE3BD"/>
<path d="M116.03 640H110.534V645.496H116.03V640Z" fill="#0BE3BD"/>
<path d="M116.03 66.2596H110.534V71.7557H116.03V66.2596Z" fill="#9C9A53"/>
<path d="M105.038 66.2596H99.542V71.7557H105.038V66.2596Z" fill="#646455"/>
<path d="M99.5421 447.023H94.0459V452.519H99.5421V447.023Z" fill="#0BE3BD"/>
<path d="M82.7481 149.008H77.252V154.504H82.7481V149.008Z" fill="#0BE3BD"/>
<path d="M77.252 722.748H71.7559V728.244H77.252V722.748Z" fill="#0B6AE3"/>
<path d="M77.252 562.748H71.7559V568.244H77.252V562.748Z" fill="#0B6AE3"/>
<path d="M77.252 220.763H71.7559V226.26H77.252V220.763Z" fill="#242885"/>
<path d="M71.756 220.763H66.2598V226.26H71.756V220.763Z" fill="#2C2394"/>
<path d="M66.2594 231.756H60.7632V237.252H66.2594V231.756Z" fill="#540BE3"/>
<path d="M66.2594 220.763H60.7632V226.26H66.2594V220.763Z" fill="#3C1AB3"/>
<path d="M66.2594 209.771H60.7632V215.267H66.2594V209.771Z" fill="#540BE3"/>
<path d="M60.7633 220.763H55.2671V226.26H60.7633V220.763Z" fill="#540BE3"/>
<path d="M55.2672 242.748H49.771V248.244H55.2672V242.748Z" fill="#242885"/>
<path d="M55.2672 237.252H49.771V242.748H55.2672V237.252Z" fill="#2C2394"/>
<path d="M55.2672 231.756H49.771V237.252H55.2672V231.756Z" fill="#3C1AB3"/>
<path d="M55.2672 226.26H49.771V231.756H55.2672V226.26Z" fill="#540BE3"/>
<path d="M55.2672 220.763H49.771V226.26H55.2672V220.763Z" fill="white"/>
<path d="M55.2672 215.267H49.771V220.763H55.2672V215.267Z" fill="#540BE3"/>
<path d="M55.2672 209.771H49.771V215.267H55.2672V209.771Z" fill="#3C1AB3"/>
<path d="M55.2672 204.275H49.771V209.771H55.2672V204.275Z" fill="#2C2394"/>
<path d="M55.2672 198.779H49.771V204.275H55.2672V198.779Z" fill="#242885"/>
<path d="M55.2672 176.489H49.771V181.985H55.2672V176.489Z" fill="#0B6AE3"/>
<path d="M49.7711 220.763H44.2749V226.26H49.7711V220.763Z" fill="#540BE3"/>
<path d="M49.7711 38.7786H44.2749V44.2748H49.7711V38.7786Z" fill="#0BE3BD"/>
<path d="M44.275 231.756H38.7788V237.252H44.275V231.756Z" fill="#540BE3"/>
<path d="M44.275 220.763H38.7788V226.26H44.275V220.763Z" fill="#3C1AB3"/>
<path d="M44.275 209.771H38.7788V215.267H44.275V209.771Z" fill="#540BE3"/>
<path d="M38.7784 220.763H33.2822V226.26H38.7784V220.763Z" fill="#2C2394"/>
<path d="M33.2823 220.763H27.7861V226.26H33.2823V220.763Z" fill="#242885"/>
<path d="M27.7862 601.527H22.29V607.023H27.7862V601.527Z" fill="#0B6AE3"/>
<path d="M27.7862 198.779H22.29V204.275H27.7862V198.779Z" fill="#0BE3BD"/>
<path d="M27.7862 160H22.29V165.496H27.7862V160Z" fill="#145B7E"/>
<path d="M27.7862 138.015H22.29V143.511H27.7862V138.015Z" fill="#145B7E"/>
<path d="M22.2901 154.504H16.7939V160H22.2901V154.504Z" fill="#118F96"/>
<path d="M22.2901 143.511H16.7939V149.008H22.2901V143.511Z" fill="#118F96"/>
<path d="M16.4884 149.008H10.9922V154.504H16.4884V149.008Z" fill="#0BE3BD"/>
<path d="M16.4884 93.7404H10.9922V99.2366H16.4884V93.7404Z" fill="#0B6AE3"/>
<path d="M10.9923 480H5.49609V485.496H10.9923V480Z" fill="#0B6AE3"/>
<path d="M10.9923 154.504H5.49609V160H10.9923V154.504Z" fill="#118F96"/>
<path d="M10.9923 143.511H5.49609V149.008H10.9923V143.511Z" fill="#118F96"/>
<path d="M5.49618 160H0V165.496H5.49618V160Z" fill="#145B7E"/>
<path d="M5.49618 138.015H0V143.511H5.49618V138.015Z" fill="#145B7E"/>
<path d="M5.49618 38.7786H0V44.2748H5.49618V38.7786Z" fill="#0BE3BD"/>
</svg>
