<svg width="902" height="264" viewBox="0 0 902 264" fill="none" xmlns="http://www.w3.org/2000/svg">
<path d="M71.1807 0.816999V10.9088H77.9086V0.816999H71.1807ZM81.2726 0.816999V10.9088H88.0004V0.816999H81.2726ZM117.172 0.678754H90.3063V10.7706H98.7392V41H108.739V10.7706H117.172V0.678754ZM136.195 0.678754V20.8624H129.467V0.678754H119.467V41H129.467V34.2721H136.195V41H146.287V0.678754H136.195ZM175.494 30.9082H158.674V24.1803H168.766V17.5446H158.674V10.8167H175.494V0.724838H148.628V41.0461H175.494V30.9082ZM229.327 0.724838V10.7706H225.963V17.4985H222.599V24.1342H219.235V17.4985H215.871V4.0427L212.507 0.678754L209.235 3.95054V17.4985H205.871V24.1342H202.507V17.4985H199.143V10.7706H195.779V0.678754H192.416V27.5442H195.779V41H199.143V37.6361H202.507V34.2721H205.917L209.235 37.6821L209.281 37.6361L212.553 41L219.235 34.3182H222.553V37.6821H225.917V41.0461H229.281V27.5903H232.645V0.724838H229.327ZM234.986 0.678754V41H244.985V0.678754H234.986ZM274.137 34.226V30.8621H257.271V0.632673H247.271V41H267.409L274.137 34.226ZM303.298 34.226V30.8621H286.432V0.632673H276.432V41H296.57L303.298 34.226ZM347.039 0.678754H320.173V10.7706H328.606V41H338.606V10.7706H347.039V0.678754ZM359.334 10.7706H366.062V30.9082H359.334V10.7706ZM349.334 0.678754V41H376.2V0.678754H349.334ZM430.033 0.724838V10.7706H426.669V17.4985H423.305V24.1342H419.941V17.4985H416.577V4.0427L413.213 0.678754L409.941 3.95054V17.4985H406.578V24.1342H403.214V17.4985H399.85V10.7706H396.486V0.678754H393.122V27.5442H396.486V41H399.85V37.6361H403.214V34.2721H406.624L409.941 37.6821L409.988 37.6361L413.259 41L419.941 34.3182H423.259V37.6821H426.623V41.0461H429.987V27.5903H433.351V0.724838H430.033ZM435.692 0.678754V41H445.692V0.678754H435.692ZM468.115 0.678754V14.1345H464.751V10.7706H461.387V7.40664H458.023V0.678754H448.023V41H458.023V17.4985H461.387V20.8624H464.751V24.1342H468.115V40.9539H478.207V0.632673L468.115 0.678754ZM480.513 37.3135V44.0414H483.877V37.3135H480.513ZM527.629 0.678754H500.764V10.7706H509.197V41H519.197V10.7706H527.629V0.678754ZM546.652 0.678754V20.8624H539.925V0.678754H529.925V41H539.925V34.2721H546.652V41H556.744V0.678754H546.652ZM585.951 30.9082H569.132V24.1803H579.223V17.5446H569.132V10.8167H585.951V0.724838H559.086V41.0461H585.951V30.9082ZM612.827 10.7706H619.555V30.9082H612.827V10.7706ZM629.647 34.2721V7.40664L622.919 0.632673H602.781V41H622.919L629.647 34.2721ZM658.854 30.9082H642.034V24.1803H652.126V17.5446H642.034V10.8167H658.854V0.724838H631.988V41.0461H658.854V30.9082ZM661.149 0.678754V24.1803H674.513V30.9082H661.149V41H688.014V17.4985H671.195V10.7706H688.014V0.678754H661.149ZM690.31 0.678754V41H700.309V0.678754H690.31ZM712.595 20.8624V10.7706H719.323V20.8624H712.595ZM702.595 0.724838V41H712.595V30.9082H719.323V41H729.415V30.9082H726.051V27.5442H722.687V20.9085H726.051V17.5446H729.415V0.724838H702.595ZM758.622 30.9082H741.802V24.1803H751.894V17.5446H741.802V10.8167H758.622V0.724838H731.756V41.0461H758.622V30.9082ZM802.363 0.678754H775.497V10.7706H783.93V41H793.93V10.7706H802.363V0.678754ZM814.658 10.7706H821.386V30.9082H814.658V10.7706ZM804.658 0.678754V41H831.524V0.678754H804.658ZM48.68 56.6788V80.1803H62.0436V86.9082H48.68V97H75.5455V73.4985H58.7258V66.7706H75.5455V56.6788H48.68ZM94.5685 56.6788V86.9082H87.8406V56.6788H77.8409V97H104.706V56.6788H94.5685ZM133.867 90.226V86.8621H117.048V66.7245H133.867V63.3606L127.139 56.5866H107.002V96.9078H127.139L133.867 90.226ZM163.028 90.226V86.8621H146.208V66.7245H163.028V63.3606L156.3 56.5866H136.163V96.9078H156.3L163.028 90.226ZM192.189 86.9082H175.369V80.1803H185.461V73.5446H175.369V66.8167H192.189V56.7248H165.324V97.0461H192.189V86.9082ZM221.35 86.9082H204.53V80.1803H214.622V73.5446H204.53V66.8167H221.35V56.7248H194.485V97.0461H221.35V86.9082ZM233.645 66.7706H240.373V86.9082H233.645V66.7706ZM250.465 90.2721V63.4066L243.737 56.6327H223.599V97H243.737L250.465 90.2721ZM252.806 93.3135V100.041H256.17V93.3135H252.806ZM299.922 56.6788H273.057V66.7706H281.49V97H291.49V66.7706H299.922V56.6788ZM318.945 56.6788V76.8624H312.218V56.6788H302.218V97H312.218V90.2721H318.945V97H329.037V56.6788H318.945ZM358.244 86.9082H341.425V80.1803H351.516V73.5446H341.425V66.8167H358.244V56.7248H331.379V97.0461H358.244V86.9082ZM391.848 56.6788V86.9082H385.12V56.6788H375.12V97H401.986V56.6788H391.848ZM414.281 76.8624V66.7706H421.009V76.8624H414.281ZM404.281 56.7248V97H414.281V86.9082H421.009V97H431.1V86.9082H427.736V83.5442H424.373V76.9085H427.736V73.5446H431.1V56.7248H404.281ZM460.307 73.4985H446.852V80.1342H453.579V86.8621H443.488V66.7245H460.307V63.3606L453.579 56.6327H433.442V96.9539H460.307V73.4985ZM489.513 86.9082H472.694V80.1803H482.785V73.5446H472.694V66.8167H489.513V56.7248H462.648V97.0461H489.513V86.9082ZM533.255 56.6788H506.389V66.7706H514.822V97H524.822V66.7706H533.255V56.6788ZM545.55 66.7706H552.278V86.9082H545.55V66.7706ZM535.55 56.6788V97H562.416V56.6788H535.55ZM589.291 76.8624V66.7706H596.019V76.8624H589.291ZM579.291 56.7248V97H589.291V86.9082H596.019V97H606.111V86.9082H602.747V83.5442H599.383V76.9085H602.747V73.5446H606.111V56.7248H579.291ZM635.318 86.9082H618.498V80.1803H628.59V73.5446H618.498V66.8167H635.318V56.7248H608.452V97.0461H635.318V86.9082ZM654.341 76.8624H647.613V66.7706H654.341V76.8624ZM637.613 56.6788V97H647.613V90.2721H654.341V97H664.433V56.6788H637.613ZM693.64 90.226V86.8621H676.82V66.7245H693.64V63.3606L686.912 56.5866H666.774V96.9078H686.912L693.64 90.226ZM712.663 56.6788V76.8624H705.935V56.6788H695.935V97H705.935V90.2721H712.663V97H722.754V56.6788H712.663ZM756.404 56.6788V73.4985H749.676V56.6788H739.676V73.4985H743.04V76.8624H746.312V80.1342H749.676V96.9539H756.404V80.1342H759.768V76.8624H763.132V73.4985H766.496V56.6788H756.404ZM778.837 66.7706H785.565V86.9082H778.837V66.7706ZM768.837 56.6788V97H795.703V56.6788H768.837ZM814.726 56.6788V86.9082H807.998V56.6788H797.998V97H824.864V56.6788H814.726ZM837.159 76.8624V66.7706H843.887V76.8624H837.159ZM827.159 56.7248V97H837.159V86.9082H843.887V97H853.978V86.9082H850.615V83.5442H847.251V76.9085H850.615V73.5446H853.978V56.7248H827.159ZM27.844 111.679H0.978577V152H10.9782V135.18H21.0701V128.545H10.9782V121.817H27.798L27.844 111.679ZM46.867 111.679V141.908H40.1391V111.679H30.1395V152H57.0049V111.679H46.867ZM86.1658 145.226V141.862H69.3V111.633H59.3004V152H79.438L86.1658 145.226ZM115.327 145.226V141.862H98.4609V111.633H88.4613V152H108.599L115.327 145.226ZM142.202 121.771H148.93V131.862H142.202V121.771ZM132.203 111.679V152H142.202V141.908H159.022V111.679H132.203ZM171.363 121.771H178.091V141.908H171.363V121.771ZM161.364 111.679V152H188.229V111.679H161.364ZM217.39 111.679H190.524V121.771H198.957V152H208.957V121.771H217.39V111.679ZM246.551 141.908H229.731V135.18H239.823V128.545H229.731V121.817H246.551V111.725H219.685V152.046H246.551V141.908ZM268.984 111.679V125.135H265.62V121.771H262.256V118.407H258.892V111.679H248.892V152H258.892V128.498H262.256V131.862H265.62V135.134H268.984V151.954H279.076V111.633L268.984 111.679ZM308.248 111.679H281.382V121.771H289.815V152H299.815V121.771H308.248V111.679ZM310.543 111.679V152H320.543V111.679H310.543ZM339.556 131.862H332.828V121.771H339.556V131.862ZM322.829 111.679V152H332.828V145.272H339.556V152H349.648V111.679H322.829ZM378.855 145.226V141.862H361.989V111.633H351.989V152H372.127L378.855 145.226ZM381.15 145.272V152H387.878V145.272H381.15ZM390.196 145.272V152H396.923V145.272H390.196ZM399.241 145.272V152H405.969V145.272H399.241ZM449.732 111.679H422.867V121.771H431.3V152H441.299V121.771H449.732V111.679ZM468.755 111.679V131.862H462.027V111.679H452.027V152H462.027V145.272H468.755V152H478.847V111.679H468.755ZM508.054 141.908H491.234V135.18H501.326V128.545H491.234V121.817H508.054V111.725H481.188V152.046H508.054V141.908ZM510.349 111.679V135.18H523.713V141.908H510.349V152H537.215V128.498H520.395V121.771H537.215V111.679H510.349ZM566.376 141.908H549.556V135.18H559.648V128.545H549.556V121.817H566.376V111.725H539.51V152.046H566.376V141.908ZM599.979 131.862H593.251V121.771H599.979V131.862ZM583.252 111.679V152H593.251V145.272H599.979V152H610.071V111.679H583.252ZM622.412 131.862V121.771H629.14V131.862H622.412ZM612.412 111.725V152H622.412V141.908H629.14V152H639.232V141.908H635.868V138.544H632.504V131.908H635.868V128.545H639.232V111.725H612.412ZM668.439 141.908H651.619V135.18H661.711V128.545H651.619V121.817H668.439V111.725H641.573V152.046H668.439V141.908ZM712.18 111.679H685.315V121.771H693.748V152H703.747V121.771H712.18V111.679ZM731.203 111.679V131.862H724.475V111.679H714.476V152H724.475V145.272H731.203V152H741.295V111.679H731.203ZM770.502 141.908H753.682V135.18H763.774V128.545H753.682V121.817H770.502V111.725H743.636V152.046H770.502V141.908ZM814.243 145.226V141.862H810.879V138.498H807.515V135.134H804.152V131.862H800.788V128.498H804.152V125.135H807.515V121.771H810.879V118.407H814.289L807.515 111.633H804.152V114.997H800.788V118.361H797.424V121.725H794.06V114.997H790.788V111.633H787.424V151.954H794.06V141.862H797.424V145.226H800.788V148.59H804.152V152H807.515L814.243 145.226ZM843.404 141.908H826.585V135.18H836.676V128.545H826.585V121.817H843.404V111.725H816.539V152.046H843.404V141.908ZM862.427 111.679V128.498H855.699V111.679H845.7V128.498H849.064V131.862H852.335V135.134H855.699V151.954H862.427V135.134H865.791V131.862H869.155V128.498H872.519V111.679H862.427ZM874.861 111.679V135.18H888.224V141.908H874.861V152H901.726V128.498H884.906V121.771H901.726V111.679H874.861ZM56.5549 166.679H29.6895V176.771H38.1224V207H48.122V176.771H56.5549V166.679ZM75.5779 166.679V186.862H68.85V166.679H58.8504V207H68.85V200.272H75.5779V207H85.6697V166.679H75.5779ZM104.739 186.862H98.0109V176.771H104.739V186.862ZM88.0113 166.679V207H98.0109V200.272H104.739V207H114.831V166.679H88.0113ZM144.038 166.679H117.172V176.771H125.605V207H135.605V176.771H144.038V166.679ZM197.871 166.725V176.771H194.507V183.498H191.143V190.134H187.779V183.498H184.415V170.043L181.051 166.679L177.779 169.951V183.498H174.415V190.134H171.051V183.498H167.687V176.771H164.324V166.679H160.96V193.544H164.324V207H167.687V203.636H171.051V200.272H174.461L177.779 203.682L177.825 203.636L181.097 207L187.779 200.318H191.097V203.682H194.461V207.046H197.825V193.59H201.189V166.725H197.871ZM203.53 166.679V207H213.529V166.679H203.53ZM242.681 200.226V196.862H225.815V166.633H215.815V207H235.953L242.681 200.226ZM271.842 200.226V196.862H254.976V166.633H244.976V207H265.114L271.842 200.226ZM305.445 166.679V196.908H298.717V166.679H288.717V207H315.583V166.679H305.445ZM338.016 166.679V180.135H334.652V176.771H331.288V173.407H327.924V166.679H317.924V207H327.924V183.498H331.288V186.862H334.652V190.134H338.016V206.954H348.108V166.633L338.016 166.679ZM377.28 200.226V196.862H360.414V166.633H350.414V207H370.552L377.28 200.226ZM389.575 176.771H396.303V196.908H389.575V176.771ZM379.575 166.679V207H406.441V166.679H379.575ZM435.602 200.226V196.862H418.782V176.725H435.602V173.361L428.874 166.587H408.736V206.908H428.874L435.602 200.226ZM464.763 200.226V196.862H461.399V193.498H458.035V190.134H454.671V186.862H451.307V183.498H454.671V180.135H458.035V176.771H461.399V173.407H464.809L458.035 166.633H454.671V169.997H451.307V173.361H447.943V176.725H444.579V169.997H441.307V166.633H437.943V206.954H444.579V196.862H447.943V200.226H451.307V203.59H454.671V207H458.035L464.763 200.226ZM508.504 166.679H481.638V176.771H490.071V207H500.071V176.771H508.504V166.679ZM527.527 166.679V186.862H520.799V166.679H510.799V207H520.799V200.272H527.527V207H537.619V166.679H527.527ZM566.826 196.908H550.006V190.18H560.098V183.545H550.006V176.817H566.826V166.725H539.96V207.046H566.826V196.908ZM593.701 176.771H600.429V196.908H593.701V176.771ZM610.521 200.272V173.407L603.793 166.633H583.655V207H603.793L610.521 200.272ZM622.862 176.771H629.59V196.908H622.862V176.771ZM612.862 166.679V207H639.728V166.679H612.862ZM652.023 176.771H658.751V196.908H652.023V176.771ZM642.023 166.679V207H668.889V166.679H642.023ZM681.184 186.862V176.771H687.912V186.862H681.184ZM671.184 166.725V207H681.184V196.908H687.912V207H698.004V196.908H694.64V193.544H691.276V186.908H694.64V183.545H698.004V166.725H671.184ZM741.791 166.679H714.926V176.771H723.358V207H733.358V176.771H741.791V166.679ZM754.086 176.771H760.814V196.908H754.086V176.771ZM744.086 166.679V207H770.952V166.679H744.086ZM814.693 166.679H787.828V176.771H796.261V207H806.26V176.771H814.693V166.679ZM833.716 166.679V186.862H826.988V166.679H816.989V207H826.988V200.272H833.716V207H843.808V166.679H833.716ZM873.015 196.908H856.195V190.18H866.287V183.545H856.195V176.817H873.015V166.725H846.15V207.046H873.015V196.908ZM299.235 246.088H305.963V252.816H299.235V246.088ZM305.963 239.452H299.235V232.725H305.963V239.452ZM316.054 256.18V229.314L312.69 225.951H312.736L309.326 222.587H289.189V262.908H309.326L316.054 256.18ZM335.123 242.862H328.396V232.771H335.123V242.862ZM318.396 222.679V263H328.396V256.272H335.123V263H345.215V222.679H318.396ZM367.694 222.679V236.135H364.33V232.771H360.966V229.407H357.603V222.679H347.603V263H357.603V239.498H360.966V242.862H364.33V246.134H367.694V262.954H377.786V222.633L367.694 222.679ZM400.23 222.679V236.135H396.866V232.771H393.502V229.407H390.139V222.679H380.139V263H390.139V239.498H393.502V242.862H396.866V246.134H400.23V262.954H410.322V222.633L400.23 222.679ZM429.356 222.679V239.498H422.628V222.679H412.629V239.498H415.993V242.862H419.264V246.134H422.628V262.954H429.356V246.134H432.72V242.862H436.084V239.498H439.448V222.679H429.356ZM468.655 252.862V222.633H458.517V252.862H451.789V222.633H441.79V252.954L451.789 262.954H458.517L468.655 252.862ZM497.816 252.908H480.996V246.18H491.088V239.545H480.996V232.817H497.816V222.725H470.951V263.046H497.816V252.908ZM510.111 242.862V232.771H516.839V242.862H510.111ZM500.111 222.725V263H510.111V252.908H516.839V263H526.931V252.908H523.567V249.544H520.203V242.908H523.567V239.545H526.931V222.725H500.111ZM529.272 222.679V246.18H542.636V252.908H529.272V263H556.138V239.498H539.318V232.771H556.138V222.679H529.272ZM585.299 252.908H568.479V246.18H578.571V239.545H568.479V232.817H585.299V222.725H558.433V263.046H585.299V252.908ZM587.594 256.272V263H594.322V256.272H587.594ZM596.639 222.817V232.909H603.367V222.817H596.639ZM606.731 222.817V232.909H613.459V222.817H606.731Z" fill="white"/>
</svg>
