<svg id="svg" version="1.1" xmlns="http://www.w3.org/2000/svg" xmlns:xlink="http://www.w3.org/1999/xlink" width="400" height="400" viewBox="0, 0, 400,400"><g id="svgg"><path id="path0" d="M183.200 151.600 L 183.200 153.200 181.600 153.200 L 180.000 153.200 180.000 155.000 L 180.000 156.800 181.600 156.800 L 183.200 156.800 183.200 158.400 L 183.200 160.000 185.000 160.000 L 186.800 160.000 186.800 161.600 L 186.800 163.200 188.400 163.200 L 190.000 163.200 190.000 165.000 L 190.000 166.800 195.000 166.800 L 200.000 166.800 200.000 165.000 L 200.000 163.200 201.600 163.200 L 203.200 163.200 203.200 161.600 L 203.200 160.000 205.000 160.000 L 206.800 160.000 206.800 158.400 L 206.800 156.800 208.400 156.800 L 210.000 156.800 210.000 155.000 L 210.000 153.200 208.400 153.200 L 206.800 153.200 206.800 151.600 L 206.800 150.000 205.000 150.000 L 203.200 150.000 203.200 151.600 L 203.200 153.200 205.000 153.200 L 206.800 153.200 206.800 155.000 L 206.800 156.800 205.000 156.800 L 203.200 156.800 203.200 158.400 L 203.200 160.000 201.600 160.000 L 200.000 160.000 200.000 161.600 L 200.000 163.200 195.000 163.200 L 190.000 163.200 190.000 161.600 L 190.000 160.000 188.400 160.000 L 186.800 160.000 186.800 158.400 L 186.800 156.800 185.000 156.800 L 183.200 156.800 183.200 155.000 L 183.200 153.200 185.000 153.200 L 186.800 153.200 186.800 151.600 L 186.800 150.000 185.000 150.000 L 183.200 150.000 183.200 151.600 M190.000 151.600 L 190.000 153.200 195.000 153.200 L 200.000 153.200 200.000 151.600 L 200.000 150.000 195.000 150.000 L 190.000 150.000 190.000 151.600 " stroke="none" fill="#ac74cc" fill-rule="evenodd"></path><path id="path1" d="M186.800 155.000 L 186.800 156.800 188.400 156.800 L 190.000 156.800 190.000 158.400 L 190.000 160.000 195.000 160.000 L 200.000 160.000 200.000 158.400 L 200.000 156.800 201.600 156.800 L 203.200 156.800 203.200 155.000 L 203.200 153.200 201.600 153.200 L 200.000 153.200 200.000 155.000 L 200.000 156.800 195.000 156.800 L 190.000 156.800 190.000 155.000 L 190.000 153.200 188.400 153.200 L 186.800 153.200 186.800 155.000 " stroke="none" fill="#fcfcfc" fill-rule="evenodd"></path><path id="path2" d="M173.200 131.600 L 173.200 133.200 171.600 133.200 L 170.000 133.200 170.000 135.000 L 170.000 136.800 171.600 136.800 L 173.200 136.800 173.200 135.000 L 173.200 133.200 181.600 133.200 L 190.000 133.200 190.000 131.600 L 190.000 130.000 181.600 130.000 L 173.200 130.000 173.200 131.600 M196.800 131.600 L 196.800 133.200 205.000 133.200 L 213.200 133.200 213.200 135.000 L 213.200 136.800 215.000 136.800 L 216.800 136.800 216.800 135.000 L 216.800 133.200 215.000 133.200 L 213.200 133.200 213.200 131.600 L 213.200 130.000 205.000 130.000 L 196.800 130.000 196.800 131.600 M180.000 138.400 L 180.000 140.000 176.600 140.000 L 173.200 140.000 173.200 141.600 L 173.200 143.200 171.600 143.200 L 170.000 143.200 170.000 145.000 L 170.000 146.800 171.600 146.800 L 173.200 146.800 173.200 145.000 L 173.200 143.200 176.600 143.200 L 180.000 143.200 180.000 141.600 L 180.000 140.000 181.600 140.000 L 183.200 140.000 183.200 141.600 L 183.200 143.200 186.600 143.200 L 190.000 143.200 190.000 145.000 L 190.000 146.800 191.600 146.800 L 193.200 146.800 193.200 145.000 L 193.200 143.200 191.600 143.200 L 190.000 143.200 190.000 141.600 L 190.000 140.000 186.600 140.000 L 183.200 140.000 183.200 138.400 L 183.200 136.800 181.600 136.800 L 180.000 136.800 180.000 138.400 M206.800 138.400 L 206.800 140.000 203.400 140.000 L 200.000 140.000 200.000 141.600 L 200.000 143.200 198.400 143.200 L 196.800 143.200 196.800 145.000 L 196.800 146.800 198.400 146.800 L 200.000 146.800 200.000 145.000 L 200.000 143.200 203.400 143.200 L 206.800 143.200 206.800 141.600 L 206.800 140.000 208.400 140.000 L 210.000 140.000 210.000 141.600 L 210.000 143.200 213.400 143.200 L 216.800 143.200 216.800 145.000 L 216.800 146.800 218.400 146.800 L 220.000 146.800 220.000 145.000 L 220.000 143.200 218.400 143.200 L 216.800 143.200 216.800 141.600 L 216.800 140.000 213.400 140.000 L 210.000 140.000 210.000 138.400 L 210.000 136.800 208.400 136.800 L 206.800 136.800 206.800 138.400 M186.800 151.600 L 186.800 153.200 185.000 153.200 L 183.200 153.200 183.200 155.000 L 183.200 156.800 185.000 156.800 L 186.800 156.800 186.800 158.400 L 186.800 160.000 188.400 160.000 L 190.000 160.000 190.000 161.600 L 190.000 163.200 195.000 163.200 L 200.000 163.200 200.000 161.600 L 200.000 160.000 201.600 160.000 L 203.200 160.000 203.200 158.400 L 203.200 156.800 205.000 156.800 L 206.800 156.800 206.800 155.000 L 206.800 153.200 205.000 153.200 L 203.200 153.200 203.200 151.600 L 203.200 150.000 201.600 150.000 L 200.000 150.000 200.000 151.600 L 200.000 153.200 195.000 153.200 L 190.000 153.200 190.000 151.600 L 190.000 150.000 188.400 150.000 L 186.800 150.000 186.800 151.600 M190.000 155.000 L 190.000 156.800 195.000 156.800 L 200.000 156.800 200.000 155.000 L 200.000 153.200 201.600 153.200 L 203.200 153.200 203.200 155.000 L 203.200 156.800 201.600 156.800 L 200.000 156.800 200.000 158.400 L 200.000 160.000 195.000 160.000 L 190.000 160.000 190.000 158.400 L 190.000 156.800 188.400 156.800 L 186.800 156.800 186.800 155.000 L 186.800 153.200 188.400 153.200 L 190.000 153.200 190.000 155.000 " stroke="none" fill="#040404" fill-rule="evenodd"></path><path id="path3" d="" stroke="none" fill="#408480" fill-rule="evenodd"></path><path id="path4" d="" stroke="none" fill="#400484" fill-rule="evenodd"></path></g></svg>