<svg id="svg" version="1.1" xmlns="http://www.w3.org/2000/svg" xmlns:xlink="http://www.w3.org/1999/xlink" width="400" height="400" viewBox="0, 0, 400,400"><g id="svgg"><path id="path0" d="M186.800 158.400 L 186.800 160.000 185.000 160.000 L 183.200 160.000 183.200 161.600 L 183.200 163.200 185.000 163.200 L 186.800 163.200 186.800 165.000 L 186.800 166.800 195.000 166.800 L 203.200 166.800 203.200 165.000 L 203.200 163.200 205.000 163.200 L 206.800 163.200 206.800 161.600 L 206.800 160.000 205.000 160.000 L 203.200 160.000 203.200 158.400 L 203.200 156.800 195.000 156.800 L 186.800 156.800 186.800 158.400 M200.000 161.600 L 200.000 163.200 195.000 163.200 L 190.000 163.200 190.000 161.600 L 190.000 160.000 195.000 160.000 L 200.000 160.000 200.000 161.600 " stroke="none" fill="#ac74cc" fill-rule="evenodd"></path><path id="path1" d="M176.800 146.600 L 176.800 150.000 178.400 150.000 L 180.000 150.000 180.000 146.600 L 180.000 143.200 178.400 143.200 L 176.800 143.200 176.800 146.600 M200.000 146.600 L 200.000 150.000 201.600 150.000 L 203.200 150.000 203.200 146.600 L 203.200 143.200 201.600 143.200 L 200.000 143.200 200.000 146.600 " stroke="none" fill="#fcfcfc" fill-rule="evenodd"></path><path id="path2" d="M190.000 126.600 L 190.000 130.000 186.600 130.000 L 183.200 130.000 183.200 131.600 L 183.200 133.200 178.200 133.200 L 173.200 133.200 173.200 135.000 L 173.200 136.800 178.200 136.800 L 183.200 136.800 183.200 135.000 L 183.200 133.200 186.600 133.200 L 190.000 133.200 190.000 131.600 L 190.000 130.000 191.600 130.000 L 193.200 130.000 193.200 126.600 L 193.200 123.200 191.600 123.200 L 190.000 123.200 190.000 126.600 M200.000 126.600 L 200.000 130.000 201.600 130.000 L 203.200 130.000 203.200 131.600 L 203.200 133.200 206.600 133.200 L 210.000 133.200 210.000 135.000 L 210.000 136.800 215.000 136.800 L 220.000 136.800 220.000 135.000 L 220.000 133.200 215.000 133.200 L 210.000 133.200 210.000 131.600 L 210.000 130.000 206.600 130.000 L 203.200 130.000 203.200 126.600 L 203.200 123.200 201.600 123.200 L 200.000 123.200 200.000 126.600 M173.200 141.600 L 173.200 143.200 176.600 143.200 L 180.000 143.200 180.000 148.200 L 180.000 153.200 185.000 153.200 L 190.000 153.200 190.000 148.200 L 190.000 143.200 191.600 143.200 L 193.200 143.200 193.200 141.600 L 193.200 140.000 183.200 140.000 L 173.200 140.000 173.200 141.600 M200.000 141.600 L 200.000 143.200 201.600 143.200 L 203.200 143.200 203.200 148.200 L 203.200 153.200 208.200 153.200 L 213.200 153.200 213.200 148.200 L 213.200 143.200 216.600 143.200 L 220.000 143.200 220.000 141.600 L 220.000 140.000 210.000 140.000 L 200.000 140.000 200.000 141.600 M190.000 161.600 L 190.000 163.200 195.000 163.200 L 200.000 163.200 200.000 161.600 L 200.000 160.000 195.000 160.000 L 190.000 160.000 190.000 161.600 " stroke="none" fill="#040404" fill-rule="evenodd"></path><path id="path3" d="" stroke="none" fill="#408480" fill-rule="evenodd"></path><path id="path4" d="" stroke="none" fill="#400484" fill-rule="evenodd"></path></g></svg>