<svg width="46" height="11" viewBox="0 0 46 11" fill="none" xmlns="http://www.w3.org/2000/svg">
<path d="M0.747443 10.8898V0.289414H4.53328C5.6337 0.289414 6.46659 0.541803 7.03194 1.04658C7.59729 1.55136 7.87997 2.20253 7.87997 3.00008C7.87997 3.61591 7.71844 4.11564 7.39538 4.49927C7.07232 4.8829 6.69879 5.16053 6.27477 5.33216V5.43816C6.77955 5.61988 7.21366 5.9177 7.5771 6.33162C7.94054 6.73544 8.12226 7.27051 8.12226 7.93681C8.12226 8.48198 7.98597 8.98171 7.71339 9.43601C7.45091 9.88021 7.06223 10.2336 6.54735 10.496C6.03248 10.7585 5.4015 10.8898 4.65443 10.8898H0.747443ZM2.35264 4.71128H4.33642C4.95225 4.71128 5.42169 4.59013 5.74475 4.34784C6.06781 4.09545 6.22934 3.71686 6.22934 3.21208C6.22934 2.21262 5.58827 1.71289 4.30613 1.71289H2.35264V4.71128ZM2.35264 9.40572H4.44242C5.09864 9.40572 5.60342 9.26438 5.95676 8.98171C6.31011 8.69903 6.48678 8.28511 6.48678 7.73995C6.48678 7.20488 6.30001 6.79601 5.92647 6.51334C5.55294 6.22057 5.04816 6.07418 4.41214 6.07418H2.35264V9.40572ZM9.40353 10.8898L12.5685 0.289414H14.4766L17.6415 10.8898H15.9L15.1883 8.34568H11.8568L11.145 10.8898H9.40353ZM13.4771 2.56092L12.2202 7.0585H14.8249L13.568 2.56092H13.4771ZM18.8319 10.8898V0.289414H20.4068L24.8438 8.05796V0.289414H26.3733V10.8898H24.7984L20.3614 3.12122V10.8898H18.8319ZM27.912 10.8898V0.289414H29.4869L33.924 8.05796V0.289414H35.4534V10.8898H33.8785L29.4415 3.12122V10.8898H27.912ZM39.9602 10.8898V6.86164L36.4621 0.289414H38.2945L40.7628 5.16558L43.2312 0.289414H45.0636L41.5654 6.86164V10.8898H39.9602Z" fill="black"/>
</svg>
