<svg width="209" height="56" viewBox="0 0 209 56" fill="none" xmlns="http://www.w3.org/2000/svg">
<mask id="path-1-inside-1_2658_33013" fill="white">
<path fill-rule="evenodd" clip-rule="evenodd" d="M199.891 0.604736H7.67869V8.899H0.922729V48.5295H8.61885V55.9024H200.537V48.5295H208.289V8.899H199.891V0.604736Z"/>
</mask>
<path d="M7.67869 0.604736V-2.16015H4.9138V0.604736H7.67869ZM199.891 0.604736H202.656V-2.16015H199.891V0.604736ZM7.67869 8.899V11.6639H10.4436V8.899H7.67869ZM0.922729 8.899V6.13412H-1.84216V8.899H0.922729ZM0.922729 48.5295H-1.84216V51.2944H0.922729V48.5295ZM8.61885 48.5295H11.3837V45.7646H8.61885V48.5295ZM8.61885 55.9024H5.85397V58.6673H8.61885V55.9024ZM200.537 55.9024V58.6673H203.302V55.9024H200.537ZM200.537 48.5295V45.7646H197.772V48.5295H200.537ZM208.289 48.5295V51.2944H211.054V48.5295H208.289ZM208.289 8.899H211.054V6.13412H208.289V8.899ZM199.891 8.899H197.126V11.6639H199.891V8.899ZM7.67869 3.36962H199.891V-2.16015H7.67869V3.36962ZM10.4436 8.899V0.604736H4.9138V8.899H10.4436ZM0.922729 11.6639H7.67869V6.13412H0.922729V11.6639ZM3.68761 48.5295V8.899H-1.84216V48.5295H3.68761ZM0.922729 51.2944H8.61885V45.7646H0.922729V51.2944ZM5.85397 48.5295V55.9024H11.3837V48.5295H5.85397ZM200.537 53.1376H8.61885V58.6673H200.537V53.1376ZM197.772 48.5295V55.9024H203.302V48.5295H197.772ZM208.289 45.7646H200.537V51.2944H208.289V45.7646ZM205.524 8.899V48.5295H211.054V8.899H205.524ZM199.891 11.6639H208.289V6.13412H199.891V11.6639ZM197.126 0.604736V8.899H202.656V0.604736H197.126Z" fill="#A9B149" mask="url(#path-1-inside-1_2658_33013)"/>
</svg>
