<svg width="262" height="56" viewBox="0 0 262 56" fill="none" xmlns="http://www.w3.org/2000/svg">
<path fill-rule="evenodd" clip-rule="evenodd" d="M250.917 0.0125732H9.06836V8.30994H0.568481V47.9546H10.2512V55.3301H251.729V47.9546H261.482V8.30994H250.917V0.0125732Z" fill="#CACE9E"/>
<path d="M60.366 34.3734V21.4706H62.4304L65.1031 27.2953L67.7759 21.4706H69.8403V34.3734H67.9786V25.194L65.8773 29.8021H64.329L62.2277 25.2124V34.3734H60.366ZM72.3768 34.3734V32.6408H75.1786V23.2033H72.4137V21.4706H79.8973V23.2033H77.1324V32.6408H79.9342V34.3734H72.3768ZM82.6181 34.3734V21.4706H84.5351L89.9358 30.9265V21.4706H91.7975V34.3734H89.8805L84.4798 24.9175V34.3734H82.6181ZM97.2832 34.3734V23.2217H93.8179V21.4706H102.702V23.2217H99.2371V34.3734H97.2832ZM115.628 34.3734V21.4706H117.692L120.365 27.2953L123.038 21.4706H125.102V34.3734H123.24V25.194L121.139 29.8021H119.591L117.489 25.2124V34.3734H115.628ZM130.44 34.3734V29.4703L126.182 21.4706H128.413L131.417 27.4059L134.422 21.4706H136.652L132.394 29.4703V34.3734H130.44ZM149.024 34.3734V21.4706H153.632C154.972 21.4706 155.986 21.7778 156.674 22.3922C157.362 23.0067 157.706 23.7993 157.706 24.77C157.706 25.5196 157.509 26.1279 157.116 26.5949C156.723 27.0618 156.268 27.3998 155.752 27.6087V27.7377C156.367 27.9589 156.895 28.3214 157.337 28.8252C157.78 29.3167 158.001 29.968 158.001 30.7791C158.001 31.4426 157.835 32.0509 157.503 32.6039C157.184 33.1446 156.711 33.5747 156.084 33.8942C155.457 34.2137 154.689 34.3734 153.78 34.3734H149.024ZM150.978 26.8529H153.393C154.142 26.8529 154.714 26.7055 155.107 26.4105C155.5 26.1033 155.697 25.6425 155.697 25.0281C155.697 23.8116 154.917 23.2033 153.356 23.2033H150.978V26.8529ZM150.978 32.567H153.522C154.321 32.567 154.935 32.395 155.365 32.0509C155.795 31.7068 156.01 31.203 156.01 30.5394C156.01 29.8882 155.783 29.3905 155.328 29.0464C154.874 28.69 154.259 28.5119 153.485 28.5119H150.978V32.567ZM159.561 34.3734L163.413 21.4706H165.735L169.588 34.3734H167.468L166.602 31.2767H162.547L161.68 34.3734H159.561ZM164.519 24.2355L162.989 29.71H166.159L164.63 24.2355H164.519ZM171.037 34.3734V21.4706H172.954L178.355 30.9265V21.4706H180.216V34.3734H178.299L172.899 24.9175V34.3734H171.037ZM182.089 34.3734V21.4706H184.006L189.407 30.9265V21.4706H191.269V34.3734H189.352L183.951 24.9175V34.3734H182.089ZM196.754 34.3734V29.4703L192.496 21.4706H194.727L197.731 27.4059L200.736 21.4706H202.966L198.708 29.4703V34.3734H196.754Z" fill="white"/>
</svg>
