<svg width="154" height="14" viewBox="0 0 154 14" fill="none" xmlns="http://www.w3.org/2000/svg">
<path d="M5.21709 13.4938C4.13571 13.4938 3.21408 13.2173 2.4522 12.6643C1.70261 12.1113 1.12506 11.3372 0.719541 10.3418C0.326313 9.33416 0.129698 8.16676 0.129698 6.83962C0.129698 5.50018 0.326313 4.33279 0.719541 3.33743C1.12506 2.32978 1.70876 1.54947 2.47064 0.996492C3.23251 0.431226 4.148 0.148593 5.21709 0.148593C6.60567 0.148593 7.71163 0.529533 8.53495 1.29141C9.35827 2.041 9.83752 3.06094 9.97269 4.35122H7.81608C7.70548 3.67536 7.429 3.11624 6.98661 2.67385C6.55652 2.21918 5.96053 1.99185 5.19866 1.99185C4.22787 1.99185 3.47214 2.42194 2.93145 3.28213C2.39076 4.14232 2.12042 5.32815 2.12042 6.83962C2.12042 8.3388 2.39076 9.51848 2.93145 10.3787C3.47214 11.2266 4.22787 11.6505 5.19866 11.6505C5.98511 11.6505 6.58724 11.4478 7.00505 11.0422C7.42285 10.6244 7.6932 10.0776 7.81608 9.40174H9.97269C9.77608 10.6674 9.2784 11.6689 8.47965 12.4063C7.68091 13.1313 6.59339 13.4938 5.21709 13.4938ZM16.2326 13.4938C15.1881 13.4938 14.2849 13.2234 13.523 12.6827C12.7611 12.1421 12.1774 11.374 11.7719 10.3787C11.3664 9.38331 11.1636 8.19748 11.1636 6.82118C11.1636 5.44488 11.3664 4.25906 11.7719 3.2637C12.1774 2.26834 12.7611 1.50031 13.523 0.959626C14.2849 0.418937 15.1881 0.148593 16.2326 0.148593C17.2894 0.148593 18.1926 0.418937 18.9422 0.959626C19.704 1.50031 20.2877 2.26834 20.6932 3.2637C21.0988 4.25906 21.3015 5.44488 21.3015 6.82118C21.3015 8.19748 21.0988 9.38331 20.6932 10.3787C20.2877 11.374 19.704 12.1421 18.9422 12.6827C18.1926 13.2234 17.2894 13.4938 16.2326 13.4938ZM16.2326 11.6505C17.1542 11.6505 17.8976 11.2389 18.4629 10.4155C19.0282 9.57992 19.3108 8.38181 19.3108 6.82118C19.3108 5.26056 19.0282 4.06859 18.4629 3.24526C17.8976 2.40965 17.1542 1.99185 16.2326 1.99185C15.2986 1.99185 14.5491 2.40965 13.9838 3.24526C13.4308 4.06859 13.1543 5.26056 13.1543 6.82118C13.1543 8.38181 13.4308 9.57992 13.9838 10.4155C14.5491 11.2389 15.2986 11.6505 16.2326 11.6505ZM22.6952 13.2726V0.369783H24.6122L30.0129 9.82569V0.369783H31.8746V13.2726H29.9576L24.5569 3.81667V13.2726H22.6952ZM33.7475 13.2726V0.369783H35.6645L41.0653 9.82569V0.369783H42.927V13.2726H41.01L35.6092 3.81667V13.2726H33.7475ZM45.3344 13.2726V0.369783H53.5738V2.12088H47.2883V5.88112H53.0208V7.61378H47.2883V11.5215H53.5738V13.2726H45.3344ZM60.4788 13.4938C59.3974 13.4938 58.4758 13.2173 57.7139 12.6643C56.9643 12.1113 56.3868 11.3372 55.9812 10.3418C55.588 9.33416 55.3914 8.16676 55.3914 6.83962C55.3914 5.50018 55.588 4.33279 55.9812 3.33743C56.3868 2.32978 56.9705 1.54947 57.7323 0.996492C58.4942 0.431226 59.4097 0.148593 60.4788 0.148593C61.8674 0.148593 62.9733 0.529533 63.7967 1.29141C64.62 2.041 65.0992 3.06094 65.2344 4.35122H63.0778C62.9672 3.67536 62.6907 3.11624 62.2483 2.67385C61.8182 2.21918 61.2222 1.99185 60.4604 1.99185C59.4896 1.99185 58.7338 2.42194 58.1932 3.28213C57.6525 4.14232 57.3821 5.32815 57.3821 6.83962C57.3821 8.3388 57.6525 9.51848 58.1932 10.3787C58.7338 11.2266 59.4896 11.6505 60.4604 11.6505C61.2468 11.6505 61.8489 11.4478 62.2668 11.0422C62.6846 10.6244 62.9549 10.0776 63.0778 9.40174H65.2344C65.0378 10.6674 64.5401 11.6689 63.7414 12.4063C62.9426 13.1313 61.8551 13.4938 60.4788 13.4938ZM70.5173 13.2726V2.12088H67.052V0.369783H75.9365V2.12088H72.4712V13.2726H70.5173ZM89.8571 13.2726L88.0876 0.369783H89.9862L91.0553 9.75196L92.6405 0.369783H94.5574L96.1426 9.75196L97.2117 0.369783H99.1103L97.3408 13.2726H95.0736L93.599 4.14846L92.1243 13.2726H89.8571ZM99.6376 13.2726L103.49 0.369783H105.813L109.665 13.2726H107.545L106.679 10.1759H102.624L101.757 13.2726H99.6376ZM104.596 3.13467L103.066 8.60914H106.236L104.707 3.13467H104.596ZM111.667 13.2726V0.369783H113.621V11.5215H119.98V13.2726H111.667ZM122.719 13.2726V0.369783H124.673V11.5215H131.032V13.2726H122.719ZM133.753 13.2726V0.369783H141.993V2.12088H135.707V5.88112H141.44V7.61378H135.707V11.5215H141.993V13.2726H133.753ZM147.884 13.2726V2.12088H144.418V0.369783H153.303V2.12088H149.838V13.2726H147.884Z" fill="black"/>
</svg>
