<svg width="173" height="56" viewBox="0 0 173 56" fill="none" xmlns="http://www.w3.org/2000/svg">
<path d="M59.6398 33.8331V20.9303H63.8608C64.8685 20.9303 65.6979 21.1024 66.3492 21.4464C67.0128 21.7905 67.5043 22.2575 67.8238 22.8473C68.1556 23.4249 68.3215 24.0823 68.3215 24.8196C68.3215 25.6552 68.1065 26.3987 67.6764 27.0499C67.2586 27.6889 66.6134 28.1559 65.7409 28.4508L68.4505 33.8331H66.1833L63.7134 28.7273H61.5936V33.8331H59.6398ZM61.5936 26.9578H63.7502C64.635 26.9578 65.2801 26.7612 65.6857 26.3679C66.1035 25.9747 66.3124 25.4586 66.3124 24.8196C66.3124 24.1683 66.1096 23.6522 65.7041 23.2713C65.2986 22.878 64.6411 22.6814 63.7318 22.6814H61.5936V26.9578ZM70.7843 33.8331V20.9303H79.0236V22.6814H72.7381V26.4417H78.4707V28.1743H72.7381V32.082H79.0236V33.8331H70.7843ZM86.0208 34.0543C85.1115 34.0543 84.3127 33.8884 83.6246 33.5566C82.9487 33.2249 82.4142 32.7518 82.0209 32.1373C81.64 31.5229 81.4434 30.7918 81.4311 29.9439H83.4955C83.5078 30.5951 83.729 31.1543 84.1591 31.6212C84.6015 32.0759 85.2159 32.3032 86.0024 32.3032C86.7274 32.3032 87.2927 32.1373 87.6982 31.8055C88.1037 31.4615 88.3064 31.0191 88.3064 30.4784C88.3064 30.0237 88.1836 29.6489 87.9378 29.354C87.7043 29.0468 87.3357 28.7765 86.8318 28.543C86.328 28.2972 85.6767 28.0453 84.878 27.7872C83.8089 27.4432 83.0224 26.9701 82.5186 26.3679C82.0148 25.7535 81.7629 25.0039 81.7629 24.1192C81.7629 23.0992 82.1315 22.2759 82.8688 21.6492C83.6061 21.0225 84.6199 20.7091 85.9102 20.7091C87.1636 20.7091 88.1713 21.0348 88.9332 21.6861C89.695 22.3251 90.0883 23.216 90.1128 24.3588H88.03C88.03 24.0516 87.9439 23.7567 87.7719 23.474C87.5999 23.1791 87.3541 22.9395 87.0346 22.7552C86.7151 22.5585 86.3219 22.4602 85.8549 22.4602C85.2774 22.4479 84.792 22.5893 84.3987 22.8842C84.0055 23.1668 83.8089 23.5539 83.8089 24.0454C83.8089 24.6476 84.0485 25.1207 84.5278 25.4647C85.007 25.7965 85.7873 26.1406 86.8687 26.497C87.5446 26.7182 88.1406 26.9885 88.6567 27.308C89.1851 27.6152 89.5967 28.0146 89.8916 28.5061C90.1989 28.9854 90.3525 29.5998 90.3525 30.3494C90.3525 31.0375 90.1804 31.6642 89.8363 32.2295C89.4923 32.7825 88.9946 33.2249 88.3433 33.5566C87.7043 33.8884 86.9301 34.0543 86.0208 34.0543ZM92.889 33.8331V20.9303H101.128V22.6814H94.8428V26.4417H100.575V28.1743H94.8428V32.082H101.128V33.8331H92.889ZM107.02 33.8331V22.6814H103.554V20.9303H112.439V22.6814H108.973V33.8331H107.02Z" fill="black"/>
<mask id="path-2-inside-1_2666_169850" fill="white">
<path fill-rule="evenodd" clip-rule="evenodd" d="M165.418 0.575439H5.9278V8.828H0.324036V48.2592H6.70966V55.5951H165.952V48.2592H172.385V8.828H165.418V0.575439Z"/>
</mask>
<path d="M5.9278 0.575439V-2.18945H3.16291V0.575439H5.9278ZM165.418 0.575439H168.182V-2.18945H165.418V0.575439ZM5.9278 8.828V11.5929H8.69268V8.828H5.9278ZM0.324036 8.828V6.06312H-2.44085V8.828H0.324036ZM0.324036 48.2592H-2.44085V51.024H0.324036V48.2592ZM6.70966 48.2592H9.47454V45.4943H6.70966V48.2592ZM6.70966 55.5951H3.94477V58.36H6.70966V55.5951ZM165.952 55.5951V58.36H168.717V55.5951H165.952ZM165.952 48.2592V45.4943H163.187V48.2592H165.952ZM172.385 48.2592V51.024H175.15V48.2592H172.385ZM172.385 8.828H175.15V6.06312H172.385V8.828ZM165.418 8.828H162.653V11.5929H165.418V8.828ZM5.9278 3.34032H165.418V-2.18945H5.9278V3.34032ZM8.69268 8.828V0.575439H3.16291V8.828H8.69268ZM0.324036 11.5929H5.9278V6.06312H0.324036V11.5929ZM3.08892 48.2592V8.828H-2.44085V48.2592H3.08892ZM0.324036 51.024H6.70966V45.4943H0.324036V51.024ZM3.94477 48.2592V55.5951H9.47454V48.2592H3.94477ZM165.952 52.8302H6.70966V58.36H165.952V52.8302ZM163.187 48.2592V55.5951H168.717V48.2592H163.187ZM172.385 45.4943H165.952V51.024H172.385V45.4943ZM169.621 8.828V48.2592H175.15V8.828H169.621ZM165.418 11.5929H172.385V6.06312H165.418V11.5929ZM162.653 0.575439V8.828H168.182V0.575439H162.653Z" fill="#A9B149" mask="url(#path-2-inside-1_2666_169850)"/>
</svg>
