<svg width="19" height="18" viewBox="0 0 19 18" fill="none" xmlns="http://www.w3.org/2000/svg">
<path d="M10.8108 9.06098L15.9868 2.89124C16.0735 2.78871 16.0006 2.63293 15.8665 2.63293H14.293C14.2003 2.63293 14.1116 2.67434 14.0505 2.74533L9.78155 7.83452L5.51262 2.74533C5.45347 2.67434 5.36473 2.63293 5.27009 2.63293H3.6966C3.56252 2.63293 3.48956 2.78871 3.57632 2.89124L8.75227 9.06098L3.57632 15.2307C3.55688 15.2536 3.54442 15.2815 3.54039 15.3113C3.53637 15.341 3.54097 15.3712 3.55363 15.3984C3.56629 15.4256 3.5865 15.4486 3.61184 15.4647C3.63718 15.4807 3.6666 15.4892 3.6966 15.489H5.27009C5.36276 15.489 5.45149 15.4476 5.51262 15.3766L9.78155 10.2874L14.0505 15.3766C14.1096 15.4476 14.1984 15.489 14.293 15.489H15.8665C16.0006 15.489 16.0735 15.3333 15.9868 15.2307L10.8108 9.06098Z" fill="black" fill-opacity="0.85"/>
</svg>
