<svg width="30" height="10" viewBox="0 0 30 10" fill="none" xmlns="http://www.w3.org/2000/svg">
<path d="M0.601408 9.75391V0.331367H6.64529V1.66398H2.02825V4.54459H5.90495V5.79644H2.02825V9.75391H0.601408ZM7.51499 9.75391L10.3283 0.331367H12.0243L14.8376 9.75391H13.2897L12.657 7.4925H9.69563L9.06297 9.75391H7.51499ZM11.1359 2.35048L10.0187 6.34833H12.3339L11.2167 2.35048H11.1359ZM18.8706 9.91544C18.0809 9.91544 17.4079 9.71352 16.8515 9.3097C16.3041 8.90588 15.8823 8.34053 15.5862 7.61364C15.299 6.87779 15.1554 6.02527 15.1554 5.0561C15.1554 4.07795 15.299 3.22543 15.5862 2.49855C15.8823 1.7627 16.3086 1.19286 16.865 0.789034C17.4213 0.376237 18.0899 0.169838 18.8706 0.169838C19.8847 0.169838 20.6923 0.448027 21.2936 1.00441C21.8948 1.55181 22.2448 2.29664 22.3435 3.23889H20.7686C20.6878 2.74533 20.4859 2.33702 20.1629 2.01396C19.8488 1.68193 19.4135 1.51591 18.8572 1.51591C18.1482 1.51591 17.5963 1.83 17.2015 2.45817C16.8066 3.08634 16.6092 3.95231 16.6092 5.0561C16.6092 6.15091 16.8066 7.0124 17.2015 7.64057C17.5963 8.25976 18.1482 8.56936 18.8572 8.56936C19.4315 8.56936 19.8712 8.42129 20.1763 8.12515C20.4814 7.82004 20.6788 7.42071 20.7686 6.92714H22.3435C22.1999 7.85145 21.8365 8.58282 21.2532 9.12125C20.6699 9.65071 19.8757 9.91544 18.8706 9.91544ZM23.5497 9.75391V0.331367H29.5667V1.61014H24.9765V4.35614H29.1628V5.62145H24.9765V8.47513H29.5667V9.75391H23.5497Z" fill="white"/>
</svg>
