<svg width="70" height="11" viewBox="0 0 70 11" fill="none" xmlns="http://www.w3.org/2000/svg">
<path d="M0.831921 10.2264V0.803901H2.25876V4.70752H6.37776V0.803901H7.8046V10.2264H6.37776V6.01322H2.25876V10.2264H0.831921ZM9.02427 10.2264V0.803901H15.0412V2.08267H10.4511V4.82867H14.6374V6.09398H10.4511V8.94767H15.0412V10.2264H9.02427ZM15.9917 10.2264L18.805 0.803901H20.501L23.3144 10.2264H21.7664L21.1337 7.96503H18.1723L17.5397 10.2264H15.9917ZM19.6126 2.82302L18.4954 6.82087H20.8106L19.6934 2.82302H19.6126ZM24.0494 10.2264V0.803901H26.3108C27.8274 0.803901 28.9536 1.22567 29.6895 2.06921C30.4254 2.90378 30.7933 4.05243 30.7933 5.51517C30.7933 6.97791 30.4254 8.13105 29.6895 8.97459C28.9536 9.80916 27.8274 10.2264 26.3108 10.2264H24.0494ZM25.4763 8.90728H26.257C27.3518 8.90728 28.1415 8.60217 28.6261 7.99195C29.1107 7.37276 29.353 6.54716 29.353 5.51517C29.353 4.48318 29.1107 3.66207 28.6261 3.05185C28.1415 2.43265 27.3518 2.12306 26.257 2.12306H25.4763V8.90728ZM42.534 10.388C41.8341 10.388 41.2193 10.1905 40.6899 9.7957C40.1604 9.39187 39.7476 8.82652 39.4515 8.09964C39.1554 7.37276 39.0073 6.51127 39.0073 5.51517C39.0073 4.53702 39.1554 3.68451 39.4515 2.95762C39.7476 2.23074 40.1694 1.66539 40.7168 1.26157C41.2732 0.848771 41.9373 0.642372 42.709 0.642372C43.6423 0.642372 44.3916 0.898127 44.957 1.40964C45.5313 1.92114 45.8813 2.64354 46.0069 3.57682H44.4589C44.3692 3.09223 44.1717 2.70636 43.8666 2.41919C43.5705 2.13203 43.1846 1.98845 42.709 1.98845C41.9821 1.98845 41.4257 2.30253 41.0399 2.9307C40.654 3.55887 40.4611 4.42036 40.4611 5.51517C40.4611 6.65485 40.663 7.5298 41.0668 8.14002C41.4796 8.74127 42.0135 9.04189 42.6686 9.04189C43.1083 9.04189 43.4718 8.91177 43.7589 8.65153C44.0461 8.39129 44.266 8.05926 44.4185 7.65543C44.5711 7.24264 44.6653 6.8074 44.7012 6.34974H42.7225V5.16519H46.1415V10.2264H44.8223L44.7281 8.96113H44.6474C44.4679 9.37392 44.2166 9.71493 43.8936 9.98415C43.5705 10.2534 43.1173 10.388 42.534 10.388ZM47.3612 10.2264V0.803901H53.3781V2.08267H48.788V4.82867H52.9743V6.09398H48.788V8.94767H53.3781V10.2264H47.3612ZM54.3286 10.2264L57.1419 0.803901H58.838L61.6513 10.2264H60.1033L59.4706 7.96503H56.5092L55.8766 10.2264H54.3286ZM57.9495 2.82302L56.8323 6.82087H59.1475L58.0303 2.82302H57.9495ZM62.6286 10.2264V0.803901H65.7111C66.447 0.803901 67.0527 0.929535 67.5283 1.1808C68.0129 1.43207 68.3719 1.77308 68.6052 2.20382C68.8475 2.62559 68.9687 3.10569 68.9687 3.64412C68.9687 4.25435 68.8116 4.79726 68.4975 5.27288C68.1924 5.73952 67.7213 6.08052 67.0841 6.2959L69.0629 10.2264H67.4072L65.6035 6.49781H64.0555V10.2264H62.6286ZM64.0555 5.20557H65.6304C66.2765 5.20557 66.7476 5.06199 67.0438 4.77483C67.3489 4.48767 67.5014 4.11076 67.5014 3.64412C67.5014 3.16851 67.3534 2.79161 67.0572 2.51342C66.7611 2.22626 66.281 2.08267 65.6169 2.08267H64.0555V5.20557Z" fill="white"/>
</svg>
