<svg width="359" height="101" viewBox="0 0 359 101" fill="none" xmlns="http://www.w3.org/2000/svg">
<path d="M6.39959 15.4748C5.16569 15.4748 4.11407 15.1593 3.24472 14.5283C2.3894 13.8974 1.73039 13.014 1.26767 11.8783C0.818981 10.7285 0.594634 9.39642 0.594634 7.88209C0.594634 6.35373 0.818981 5.02167 1.26767 3.88592C1.73039 2.73614 2.39641 1.84577 3.26576 1.2148C4.1351 0.569801 5.17971 0.247304 6.39959 0.247304C7.98404 0.247304 9.24598 0.681974 10.1854 1.55132C11.1249 2.40664 11.6717 3.57043 11.826 5.0427H9.36517C9.23897 4.27151 8.92349 3.63353 8.41871 3.12875C7.92795 2.60995 7.2479 2.35055 6.37856 2.35055C5.27085 2.35055 4.40852 2.84131 3.79157 3.82282C3.17462 4.80434 2.86614 6.15742 2.86614 7.88209C2.86614 9.59272 3.17462 10.9388 3.79157 11.9203C4.40852 12.8878 5.27085 13.3716 6.37856 13.3716C7.27594 13.3716 7.963 13.1402 8.43974 12.6775C8.91648 12.2007 9.22495 11.5768 9.36517 10.8056H11.826C11.6016 12.2498 11.0337 13.3926 10.1223 14.2339C9.21093 15.0612 7.97002 15.4748 6.39959 15.4748ZM18.3378 15.4748C17.3423 15.4748 16.4519 15.2505 15.6667 14.8018C14.8815 14.3531 14.2645 13.7221 13.8158 12.9088C13.3671 12.0816 13.1428 11.1141 13.1428 10.0064C13.1428 8.89865 13.3671 7.93817 13.8158 7.12492C14.2645 6.29764 14.8815 5.65966 15.6667 5.21096C16.4519 4.76227 17.3493 4.53792 18.3588 4.53792C19.3684 4.53792 20.2588 4.76227 21.03 5.21096C21.8152 5.65966 22.4251 6.29764 22.8598 7.12492C23.3085 7.93817 23.5328 8.89865 23.5328 10.0064C23.5328 11.1141 23.3085 12.0816 22.8598 12.9088C22.4111 13.7221 21.7941 14.3531 21.0089 14.8018C20.2377 15.2505 19.3474 15.4748 18.3378 15.4748ZM18.3378 13.3505C18.8706 13.3505 19.3614 13.2313 19.8101 12.993C20.2588 12.7546 20.6163 12.39 20.8827 11.8993C21.1632 11.3945 21.3034 10.7635 21.3034 10.0064C21.3034 9.23517 21.1632 8.6042 20.8827 8.11344C20.6163 7.62268 20.2588 7.25812 19.8101 7.01975C19.3754 6.78139 18.8917 6.6622 18.3588 6.6622C17.826 6.6622 17.3353 6.78139 16.8866 7.01975C16.4379 7.25812 16.0733 7.62268 15.7929 8.11344C15.5265 8.6042 15.3933 9.23517 15.3933 10.0064C15.3933 11.1561 15.6807 12.0044 16.2556 12.5513C16.8445 13.0841 17.5386 13.3505 18.3378 13.3505ZM25.6489 15.2224V4.79031H27.5839L27.7732 6.34672H27.8783C28.1588 5.84194 28.5934 5.41428 29.1823 5.06374C29.7713 4.71319 30.4513 4.53792 31.2225 4.53792C32.4985 4.53792 33.4589 4.92352 34.1039 5.69471C34.7489 6.4659 35.0714 7.60165 35.0714 9.10197V15.2224H32.842V9.37539C32.842 8.50605 32.6597 7.83301 32.2951 7.35627C31.9306 6.87954 31.3557 6.64117 30.5705 6.64117C29.7993 6.64117 29.1543 6.90057 28.6355 7.41937C28.1307 7.93817 27.8783 8.68833 27.8783 9.66984V15.2224H25.6489ZM37.6292 15.2224V4.79031H39.5642L39.7535 6.34672H39.8586C40.139 5.84194 40.5737 5.41428 41.1626 5.06374C41.7515 4.71319 42.4316 4.53792 43.2028 4.53792C44.4787 4.53792 45.4392 4.92352 46.0842 5.69471C46.7292 6.4659 47.0517 7.60165 47.0517 9.10197V15.2224H44.8223V9.37539C44.8223 8.50605 44.64 7.83301 44.2754 7.35627C43.9109 6.87954 43.336 6.64117 42.5508 6.64117C41.7796 6.64117 41.1346 6.90057 40.6158 7.41937C40.111 7.93817 39.8586 8.68833 39.8586 9.66984V15.2224H37.6292ZM54.4049 15.4748C53.3953 15.4748 52.5049 15.2505 51.7337 14.8018C50.9625 14.339 50.3596 13.7011 49.9249 12.8878C49.4903 12.0746 49.2729 11.1281 49.2729 10.0484C49.2729 8.95474 49.4833 7.99426 49.9039 7.16698C50.3386 6.3397 50.9415 5.69471 51.7127 5.232C52.4979 4.76928 53.4023 4.53792 54.4259 4.53792C55.4354 4.53792 56.3048 4.76928 57.0339 5.232C57.763 5.68069 58.3239 6.28362 58.7165 7.04079C59.1231 7.79796 59.3265 8.63224 59.3265 9.54365C59.3265 9.68387 59.3265 9.8381 59.3265 10.0064C59.3265 10.1606 59.3194 10.3359 59.3054 10.5322H51.4603C51.5304 11.4997 51.8459 12.2358 52.4068 12.7406C52.9676 13.2313 53.6267 13.4767 54.3838 13.4767C55.0428 13.4767 55.5616 13.3435 55.9402 13.0771C56.3328 12.7967 56.6203 12.4181 56.8026 11.9413H59.053C58.8006 12.9369 58.2748 13.7782 57.4756 14.4652C56.6764 15.1383 55.6528 15.4748 54.4049 15.4748ZM54.4049 6.47291C53.7178 6.47291 53.1079 6.68324 52.575 7.10388C52.0422 7.51051 51.6987 8.0854 51.5444 8.82855H57.097C57.0409 8.12746 56.7675 7.55959 56.2767 7.12492C55.786 6.69025 55.162 6.47291 54.4049 6.47291ZM66.4062 15.4748C65.4387 15.4748 64.5693 15.2505 63.7982 14.8018C63.041 14.3531 62.4451 13.7221 62.0104 12.9088C61.5757 12.0816 61.3584 11.1141 61.3584 10.0064C61.3584 8.89865 61.5757 7.93817 62.0104 7.12492C62.4591 6.31166 63.062 5.68069 63.8192 5.232C64.5764 4.76928 65.4387 4.53792 66.4062 4.53792C67.7382 4.53792 68.8109 4.87444 69.6241 5.54748C70.4514 6.2065 70.9772 7.11791 71.2016 8.2817H68.867C68.7268 7.77692 68.4393 7.37731 68.0046 7.08285C67.584 6.7884 67.0442 6.64117 66.3851 6.64117C65.9084 6.64117 65.4527 6.76736 65.018 7.01975C64.5974 7.27214 64.2539 7.65073 63.9874 8.15551C63.7351 8.64626 63.6089 9.26322 63.6089 10.0064C63.6089 10.7355 63.7351 11.3524 63.9874 11.8572C64.2539 12.362 64.5974 12.7476 65.018 13.014C65.4527 13.2664 65.9084 13.3926 66.3851 13.3926C67.0582 13.3926 67.598 13.2454 68.0046 12.9509C68.4113 12.6565 68.6987 12.2498 68.867 11.731H71.2016C70.9211 12.8808 70.3743 13.7922 69.561 14.4652C68.7478 15.1383 67.6962 15.4748 66.4062 15.4748ZM79.375 15.2224C78.3514 15.2224 77.5382 14.977 76.9352 14.4863C76.3323 13.9815 76.0308 13.0911 76.0308 11.8152V6.68323H73.4018V4.79031H74.9582C75.6733 4.79031 76.0939 4.43977 76.2201 3.73869L76.5356 2.05609H78.2603V4.79031H82.3826V6.68323H78.2603V11.7731C78.2603 12.3199 78.3795 12.7055 78.6178 12.9299C78.8702 13.1402 79.2979 13.2454 79.9008 13.2454H82.3406V15.2224H79.375ZM98.8977 19.8496L101.38 14.3601H100.77L96.7103 4.79031H99.1291L102.242 12.4251L105.544 4.79031H107.879L101.253 19.8496H98.8977ZM114.18 15.4748C113.185 15.4748 112.294 15.2505 111.509 14.8018C110.724 14.3531 110.107 13.7221 109.658 12.9088C109.209 12.0816 108.985 11.1141 108.985 10.0064C108.985 8.89865 109.209 7.93817 109.658 7.12492C110.107 6.29764 110.724 5.65966 111.509 5.21096C112.294 4.76227 113.192 4.53792 114.201 4.53792C115.211 4.53792 116.101 4.76227 116.872 5.21096C117.657 5.65966 118.267 6.29764 118.702 7.12492C119.151 7.93817 119.375 8.89865 119.375 10.0064C119.375 11.1141 119.151 12.0816 118.702 12.9088C118.253 13.7221 117.636 14.3531 116.851 14.8018C116.08 15.2505 115.19 15.4748 114.18 15.4748ZM114.18 13.3505C114.713 13.3505 115.204 13.2313 115.652 12.993C116.101 12.7546 116.459 12.39 116.725 11.8993C117.005 11.3945 117.146 10.7635 117.146 10.0064C117.146 9.23517 117.005 8.6042 116.725 8.11344C116.459 7.62268 116.101 7.25812 115.652 7.01975C115.218 6.78139 114.734 6.6622 114.201 6.6622C113.668 6.6622 113.178 6.78139 112.729 7.01975C112.28 7.25812 111.916 7.62268 111.635 8.11344C111.369 8.6042 111.236 9.23517 111.236 10.0064C111.236 11.1561 111.523 12.0044 112.098 12.5513C112.687 13.0841 113.381 13.3505 114.18 13.3505ZM125.235 15.4748C123.973 15.4748 123.013 15.0892 122.353 14.318C121.708 13.5328 121.386 12.3971 121.386 10.9108V4.79031H123.615V10.6373C123.615 11.4927 123.798 12.1657 124.162 12.6565C124.541 13.1332 125.116 13.3716 125.887 13.3716C126.658 13.3716 127.303 13.1122 127.822 12.5934C128.341 12.0746 128.6 11.3244 128.6 10.3429V4.79031H130.83V15.2224H128.895L128.705 13.666H128.6C128.32 14.1708 127.885 14.5984 127.296 14.949C126.707 15.2995 126.02 15.4748 125.235 15.4748ZM133.45 15.2224V13.2874H135.995V7.41937C135.995 6.95666 135.771 6.7253 135.322 6.7253H133.661V4.79031H136.164C136.738 4.79031 137.208 4.95857 137.573 5.29509C137.937 5.61759 138.12 6.07329 138.12 6.6622V6.91459H138.225C138.379 6.12938 138.709 5.54047 139.213 5.14787C139.732 4.74124 140.482 4.53792 141.464 4.53792H143.083V6.89356H140.812C139.984 6.89356 139.347 7.181 138.898 7.75589C138.449 8.33078 138.225 9.01784 138.225 9.81707V13.2874H141.464V15.2224H133.45ZM158.231 15.2224L155.96 4.79031H158.147L159.409 12.1096L160.902 4.79031H163.3L164.793 12.1096L166.055 4.79031H168.243L165.971 15.2224H163.679L162.101 7.69279L160.524 15.2224H158.231ZM173.135 15.4748C172.308 15.4748 171.614 15.3346 171.053 15.0542C170.492 14.7597 170.071 14.3741 169.791 13.8974C169.51 13.4066 169.37 12.8738 169.37 12.2989C169.37 11.2753 169.742 10.4761 170.485 9.9012C171.242 9.32631 172.308 9.03887 173.682 9.03887H176.374V8.80751C176.374 7.23709 175.645 6.45188 174.187 6.45188C173.584 6.45188 173.072 6.58508 172.651 6.85149C172.245 7.10388 171.971 7.51752 171.831 8.09241H169.602C169.714 6.99872 170.183 6.13639 171.011 5.50542C171.852 4.86042 172.911 4.53792 174.187 4.53792C175.729 4.53792 176.851 4.91651 177.552 5.67368C178.253 6.43085 178.603 7.47546 178.603 8.80751V15.2224H176.711L176.521 13.687H176.374C176.066 14.1778 175.68 14.5984 175.217 14.949C174.755 15.2995 174.06 15.4748 173.135 15.4748ZM173.556 13.6029C174.467 13.6029 175.147 13.3295 175.596 12.7826C176.059 12.2218 176.311 11.5137 176.353 10.6584H173.913C173.114 10.6584 172.546 10.7916 172.21 11.058C171.887 11.3104 171.726 11.6679 171.726 12.1306C171.726 12.5934 171.887 12.9579 172.21 13.2243C172.546 13.4767 172.995 13.6029 173.556 13.6029ZM181.182 15.2224V13.2874H184.674V2.7081C184.674 2.24539 184.449 2.01403 184.001 2.01403H181.477V0.0790436H184.4C185.213 0.0790436 185.83 0.296379 186.251 0.73105C186.686 1.1517 186.903 1.76865 186.903 2.58191V13.2874H190.416V15.2224H181.182ZM193.163 15.2224V13.2874H196.654V2.7081C196.654 2.24539 196.43 2.01403 195.981 2.01403H193.457V0.0790436H196.381C197.194 0.0790436 197.811 0.296379 198.231 0.73105C198.666 1.1517 198.883 1.76865 198.883 2.58191V13.2874H202.396V15.2224H193.163ZM210.149 15.4748C209.139 15.4748 208.249 15.2505 207.477 14.8018C206.706 14.339 206.103 13.7011 205.669 12.8878C205.234 12.0746 205.017 11.1281 205.017 10.0484C205.017 8.95474 205.227 7.99426 205.648 7.16698C206.082 6.3397 206.685 5.69471 207.456 5.232C208.242 4.76928 209.146 4.53792 210.17 4.53792C211.179 4.53792 212.048 4.76928 212.778 5.232C213.507 5.68069 214.068 6.28362 214.46 7.04079C214.867 7.79796 215.07 8.63224 215.07 9.54365C215.07 9.68387 215.07 9.8381 215.07 10.0064C215.07 10.1606 215.063 10.3359 215.049 10.5322H207.204C207.274 11.4997 207.59 12.2358 208.15 12.7406C208.711 13.2313 209.37 13.4767 210.128 13.4767C210.787 13.4767 211.305 13.3435 211.684 13.0771C212.077 12.7967 212.364 12.4181 212.546 11.9413H214.797C214.544 12.9369 214.019 13.7782 213.219 14.4652C212.42 15.1383 211.396 15.4748 210.149 15.4748ZM210.149 6.47291C209.461 6.47291 208.852 6.68324 208.319 7.10388C207.786 7.51051 207.442 8.0854 207.288 8.82855H212.841C212.785 8.12746 212.511 7.55959 212.02 7.12492C211.53 6.69025 210.906 6.47291 210.149 6.47291ZM223.138 15.2224C222.115 15.2224 221.302 14.977 220.699 14.4863C220.096 13.9815 219.794 13.0911 219.794 11.8152V6.68323H217.165V4.79031H218.722C219.437 4.79031 219.857 4.43977 219.984 3.73869L220.299 2.05609H222.024V4.79031H226.146V6.68323H222.024V11.7731C222.024 12.3199 222.143 12.7055 222.381 12.9299C222.634 13.1402 223.061 13.2454 223.664 13.2454H226.104V15.2224H223.138ZM245.017 15.4748C244.189 15.4748 243.495 15.3346 242.935 15.0542C242.374 14.7597 241.953 14.3741 241.673 13.8974C241.392 13.4066 241.252 12.8738 241.252 12.2989C241.252 11.2753 241.624 10.4761 242.367 9.9012C243.124 9.32631 244.189 9.03887 245.564 9.03887H248.256V8.80751C248.256 7.23709 247.527 6.45188 246.068 6.45188C245.465 6.45188 244.954 6.58508 244.533 6.85149C244.126 7.10388 243.853 7.51752 243.713 8.09241H241.483C241.595 6.99872 242.065 6.13639 242.892 5.50542C243.734 4.86042 244.792 4.53792 246.068 4.53792C247.611 4.53792 248.732 4.91651 249.434 5.67368C250.135 6.43085 250.485 7.47546 250.485 8.80751V15.2224H248.592L248.403 13.687H248.256C247.947 14.1778 247.562 14.5984 247.099 14.949C246.636 15.2995 245.942 15.4748 245.017 15.4748ZM245.437 13.6029C246.349 13.6029 247.029 13.3295 247.478 12.7826C247.94 12.2218 248.193 11.5137 248.235 10.6584H245.795C244.996 10.6584 244.428 10.7916 244.091 11.058C243.769 11.3104 243.608 11.6679 243.608 12.1306C243.608 12.5934 243.769 12.9579 244.091 13.2243C244.428 13.4767 244.877 13.6029 245.437 13.6029ZM253.274 15.2224V4.79031H255.209L255.399 6.34672H255.504C255.784 5.84194 256.219 5.41428 256.808 5.06374C257.397 4.71319 258.077 4.53792 258.848 4.53792C260.124 4.53792 261.084 4.92352 261.729 5.69471C262.374 6.4659 262.697 7.60165 262.697 9.10197V15.2224H260.467V9.37539C260.467 8.50605 260.285 7.83301 259.921 7.35627C259.556 6.87954 258.981 6.64117 258.196 6.64117C257.425 6.64117 256.78 6.90057 256.261 7.41937C255.756 7.93817 255.504 8.68833 255.504 9.66984V15.2224H253.274ZM269.356 15.4748C268.487 15.4748 267.708 15.2715 267.021 14.8649C266.334 14.4442 265.787 13.8273 265.381 13.014C264.988 12.2007 264.792 11.1982 264.792 10.0064C264.792 8.81452 264.995 7.81198 265.402 6.99872C265.808 6.18547 266.355 5.57553 267.042 5.1689C267.743 4.74825 268.522 4.53792 269.377 4.53792C270.176 4.53792 270.835 4.69216 271.354 5.00064C271.873 5.29509 272.258 5.67368 272.511 6.13639V0.0790436H274.74V15.2224H272.826L272.637 13.687H272.511C272.23 14.2339 271.831 14.6686 271.312 14.9911C270.807 15.3136 270.155 15.4748 269.356 15.4748ZM269.819 13.3505C270.618 13.3505 271.277 13.0701 271.796 12.5092C272.328 11.9484 272.595 11.1141 272.595 10.0064C272.595 8.88463 272.328 8.05034 271.796 7.5035C271.277 6.94264 270.618 6.6622 269.819 6.6622C269.019 6.6622 268.353 6.94264 267.821 7.5035C267.302 8.06437 267.042 8.90566 267.042 10.0274C267.042 11.1351 267.302 11.9694 267.821 12.5303C268.353 13.0771 269.019 13.3505 269.819 13.3505ZM294.032 15.4748C293.064 15.4748 292.195 15.2505 291.424 14.8018C290.666 14.3531 290.07 13.7221 289.636 12.9088C289.201 12.0816 288.984 11.1141 288.984 10.0064C288.984 8.89865 289.201 7.93817 289.636 7.12492C290.084 6.31166 290.687 5.68069 291.445 5.232C292.202 4.76928 293.064 4.53792 294.032 4.53792C295.364 4.53792 296.436 4.87444 297.25 5.54748C298.077 6.2065 298.603 7.11791 298.827 8.2817H296.492C296.352 7.77692 296.065 7.37731 295.63 7.08285C295.209 6.7884 294.67 6.64117 294.011 6.64117C293.534 6.64117 293.078 6.76736 292.643 7.01975C292.223 7.27214 291.879 7.65073 291.613 8.15551C291.36 8.64626 291.234 9.26322 291.234 10.0064C291.234 10.7355 291.36 11.3524 291.613 11.8572C291.879 12.362 292.223 12.7476 292.643 13.014C293.078 13.2664 293.534 13.3926 294.011 13.3926C294.684 13.3926 295.223 13.2454 295.63 12.9509C296.037 12.6565 296.324 12.2498 296.492 11.731H298.827C298.547 12.8808 298 13.7922 297.186 14.4652C296.373 15.1383 295.322 15.4748 294.032 15.4748ZM301.09 15.2224V0.0790436H303.32V6.34672C303.6 5.82791 304.049 5.40026 304.666 5.06374C305.283 4.71319 305.977 4.53792 306.748 4.53792C308.038 4.53792 309.02 4.93053 309.693 5.71574C310.366 6.48693 310.702 7.60165 310.702 9.0599V15.2224H308.473V9.37539C308.473 8.50605 308.262 7.83301 307.842 7.35627C307.421 6.87954 306.839 6.64117 306.096 6.64117C305.325 6.64117 304.666 6.90057 304.119 7.41937C303.586 7.93817 303.32 8.68833 303.32 9.66984V15.2224H301.09ZM317.845 15.4748C316.849 15.4748 315.959 15.2505 315.174 14.8018C314.389 14.3531 313.772 13.7221 313.323 12.9088C312.874 12.0816 312.65 11.1141 312.65 10.0064C312.65 8.89865 312.874 7.93817 313.323 7.12492C313.772 6.29764 314.389 5.65966 315.174 5.21096C315.959 4.76227 316.856 4.53792 317.866 4.53792C318.876 4.53792 319.766 4.76227 320.537 5.21096C321.322 5.65966 321.932 6.29764 322.367 7.12492C322.816 7.93817 323.04 8.89865 323.04 10.0064C323.04 11.1141 322.816 12.0816 322.367 12.9088C321.918 13.7221 321.301 14.3531 320.516 14.8018C319.745 15.2505 318.854 15.4748 317.845 15.4748ZM317.845 13.3505C318.378 13.3505 318.869 13.2313 319.317 12.993C319.766 12.7546 320.123 12.39 320.39 11.8993C320.67 11.3945 320.81 10.7635 320.81 10.0064C320.81 9.23517 320.67 8.6042 320.39 8.11344C320.123 7.62268 319.766 7.25812 319.317 7.01975C318.883 6.78139 318.399 6.6622 317.866 6.6622C317.333 6.6622 316.842 6.78139 316.394 7.01975C315.945 7.25812 315.58 7.62268 315.3 8.11344C315.034 8.6042 314.9 9.23517 314.9 10.0064C314.9 11.1561 315.188 12.0044 315.763 12.5513C316.352 13.0841 317.046 13.3505 317.845 13.3505ZM329.825 15.4748C328.83 15.4748 327.939 15.2505 327.154 14.8018C326.369 14.3531 325.752 13.7221 325.303 12.9088C324.855 12.0816 324.63 11.1141 324.63 10.0064C324.63 8.89865 324.855 7.93817 325.303 7.12492C325.752 6.29764 326.369 5.65966 327.154 5.21096C327.939 4.76227 328.837 4.53792 329.846 4.53792C330.856 4.53792 331.746 4.76227 332.517 5.21096C333.303 5.65966 333.912 6.29764 334.347 7.12492C334.796 7.93817 335.02 8.89865 335.02 10.0064C335.02 11.1141 334.796 12.0816 334.347 12.9088C333.898 13.7221 333.282 14.3531 332.496 14.8018C331.725 15.2505 330.835 15.4748 329.825 15.4748ZM329.825 13.3505C330.358 13.3505 330.849 13.2313 331.297 12.993C331.746 12.7546 332.104 12.39 332.37 11.8993C332.651 11.3945 332.791 10.7635 332.791 10.0064C332.791 9.23517 332.651 8.6042 332.37 8.11344C332.104 7.62268 331.746 7.25812 331.297 7.01975C330.863 6.78139 330.379 6.6622 329.846 6.6622C329.313 6.6622 328.823 6.78139 328.374 7.01975C327.925 7.25812 327.561 7.62268 327.28 8.11344C327.014 8.6042 326.881 9.23517 326.881 10.0064C326.881 11.1561 327.168 12.0044 327.743 12.5513C328.332 13.0841 329.026 13.3505 329.825 13.3505ZM341.89 15.4748C340.515 15.4748 339.422 15.1523 338.609 14.5073C337.795 13.8623 337.333 13.007 337.22 11.9413H339.513C339.597 12.4321 339.842 12.8317 340.249 13.1402C340.67 13.4487 341.224 13.6029 341.911 13.6029C342.57 13.6029 343.074 13.4697 343.425 13.2033C343.79 12.9229 343.972 12.6004 343.972 12.2358C343.972 11.703 343.754 11.3384 343.32 11.1421C342.899 10.9458 342.275 10.7986 341.448 10.7004C340.733 10.6163 340.081 10.4551 339.492 10.2167C338.917 9.9643 338.461 9.62778 338.125 9.20713C337.788 8.77246 337.62 8.23263 337.62 7.58763C337.62 6.67622 337.978 5.94009 338.693 5.37922C339.408 4.81836 340.403 4.53792 341.679 4.53792C342.955 4.53792 343.944 4.82537 344.645 5.40026C345.346 5.97514 345.753 6.76035 345.865 7.75589H343.719C343.663 7.33524 343.446 7.00573 343.067 6.76736C342.689 6.51498 342.219 6.38878 341.658 6.38878C341.083 6.38878 340.628 6.50095 340.291 6.7253C339.955 6.93562 339.786 7.21606 339.786 7.5666C339.786 8.32377 340.6 8.78648 342.226 8.95474C342.997 9.03887 343.684 9.1861 344.287 9.39642C344.89 9.59272 345.367 9.90821 345.718 10.3429C346.068 10.7635 346.243 11.3595 346.243 12.1306C346.257 12.7616 346.075 13.3295 345.696 13.8343C345.332 14.339 344.82 14.7387 344.161 15.0331C343.516 15.3276 342.759 15.4748 341.89 15.4748ZM353.912 15.4748C352.902 15.4748 352.012 15.2505 351.241 14.8018C350.47 14.339 349.867 13.7011 349.432 12.8878C348.997 12.0746 348.78 11.1281 348.78 10.0484C348.78 8.95474 348.99 7.99426 349.411 7.16698C349.846 6.3397 350.449 5.69471 351.22 5.232C352.005 4.76928 352.909 4.53792 353.933 4.53792C354.943 4.53792 355.812 4.76928 356.541 5.232C357.27 5.68069 357.831 6.28362 358.224 7.04079C358.63 7.79796 358.834 8.63224 358.834 9.54365C358.834 9.68387 358.834 9.8381 358.834 10.0064C358.834 10.1606 358.827 10.3359 358.813 10.5322H350.967C351.038 11.4997 351.353 12.2358 351.914 12.7406C352.475 13.2313 353.134 13.4767 353.891 13.4767C354.55 13.4767 355.069 13.3435 355.447 13.0771C355.84 12.7967 356.127 12.4181 356.31 11.9413H358.56C358.308 12.9369 357.782 13.7782 356.983 14.4652C356.183 15.1383 355.16 15.4748 353.912 15.4748ZM353.912 6.47291C353.225 6.47291 352.615 6.68324 352.082 7.10388C351.549 7.51051 351.206 8.0854 351.052 8.82855H356.604C356.548 8.12746 356.275 7.55959 355.784 7.12492C355.293 6.69025 354.669 6.47291 353.912 6.47291ZM44.734 42.2224L42.4625 31.7903H44.6499L45.9118 39.1096L47.4052 31.7903H49.8029L51.2962 39.1096L52.5581 31.7903H54.7455L52.474 42.2224H50.1814L48.604 34.6928L47.0266 42.2224H44.734ZM55.8099 42.2224V27.079H58.0394V33.3467C58.3198 32.8279 58.7685 32.4003 59.3854 32.0637C60.0024 31.7132 60.6965 31.5379 61.4677 31.5379C62.7576 31.5379 63.7392 31.9305 64.4122 32.7157C65.0852 33.4869 65.4218 34.6017 65.4218 36.0599V42.2224H63.1923V36.3754C63.1923 35.506 62.982 34.833 62.5613 34.3563C62.1407 33.8795 61.5588 33.6412 60.8156 33.6412C60.0445 33.6412 59.3854 33.9006 58.8386 34.4194C58.3058 34.9382 58.0394 35.6883 58.0394 36.6698V42.2224H55.8099ZM72.3542 30.1918C71.8635 30.1918 71.4499 30.0376 71.1133 29.7291C70.7908 29.4066 70.6296 29.014 70.6296 28.5513C70.6296 28.0886 70.7908 27.703 71.1133 27.3945C71.4499 27.0861 71.8635 26.9318 72.3542 26.9318C72.859 26.9318 73.2727 27.0861 73.5952 27.3945C73.9317 27.703 74.0999 28.0886 74.0999 28.5513C74.0999 29.014 73.9317 29.4066 73.5952 29.7291C73.2727 30.0376 72.859 30.1918 72.3542 30.1918ZM68.1688 42.2224V40.2874H71.4499V34.4194C71.4499 33.9567 71.2255 33.7253 70.7768 33.7253H68.4632V31.7903H71.1764C72.0458 31.7903 72.6767 31.9936 73.0694 32.4003C73.476 32.7929 73.6793 33.4238 73.6793 34.2932V40.2874H76.9604V42.2224H68.1688ZM84.6921 42.4748C83.7246 42.4748 82.8553 42.2505 82.0841 41.8018C81.3269 41.3531 80.731 40.7221 80.2963 39.9088C79.8616 39.0816 79.6443 38.1141 79.6443 37.0064C79.6443 35.8987 79.8616 34.9382 80.2963 34.1249C80.745 33.3117 81.3479 32.6807 82.1051 32.232C82.8623 31.7693 83.7246 31.5379 84.6921 31.5379C86.0241 31.5379 87.0968 31.8744 87.9101 32.5475C88.7373 33.2065 89.2631 34.1179 89.4875 35.2817H87.1529C87.0127 34.7769 86.7252 34.3773 86.2906 34.0829C85.8699 33.7884 85.3301 33.6412 84.6711 33.6412C84.1943 33.6412 83.7386 33.7674 83.3039 34.0198C82.8833 34.2721 82.5398 34.6507 82.2734 35.1555C82.021 35.6463 81.8948 36.2632 81.8948 37.0064C81.8948 37.7355 82.021 38.3524 82.2734 38.8572C82.5398 39.362 82.8833 39.7476 83.3039 40.014C83.7386 40.2664 84.1943 40.3926 84.6711 40.3926C85.3441 40.3926 85.8839 40.2454 86.2906 39.9509C86.6972 39.6565 86.9846 39.2498 87.1529 38.731H89.4875C89.2071 39.8808 88.6602 40.7922 87.847 41.4652C87.0337 42.1383 85.9821 42.4748 84.6921 42.4748ZM91.7508 42.2224V27.079H93.9802V33.3467C94.2606 32.8279 94.7093 32.4003 95.3263 32.0637C95.9432 31.7132 96.6373 31.5379 97.4085 31.5379C98.6985 31.5379 99.68 31.9305 100.353 32.7157C101.026 33.4869 101.363 34.6017 101.363 36.0599V42.2224H99.1332V36.3754C99.1332 35.506 98.9228 34.833 98.5022 34.3563C98.0815 33.8795 97.4996 33.6412 96.7565 33.6412C95.9853 33.6412 95.3263 33.9006 94.7794 34.4194C94.2466 34.9382 93.9802 35.6883 93.9802 36.6698V42.2224H91.7508ZM115.354 42.2224V27.4997H120.612C122.14 27.4997 123.297 27.8502 124.082 28.5513C124.867 29.2524 125.26 30.1568 125.26 31.2645C125.26 32.1198 125.036 32.8139 124.587 33.3467C124.138 33.8795 123.62 34.2651 123.031 34.5035V34.6507C123.732 34.9031 124.335 35.3168 124.839 35.8916C125.344 36.4525 125.597 37.1957 125.597 38.1211C125.597 38.8783 125.407 39.5723 125.029 40.2033C124.664 40.8202 124.124 41.311 123.409 41.6756C122.694 42.0401 121.818 42.2224 120.78 42.2224H115.354ZM117.583 33.6412H120.338C121.194 33.6412 121.846 33.4729 122.294 33.1364C122.743 32.7859 122.968 32.26 122.968 31.559C122.968 30.1708 122.077 29.4767 120.296 29.4767H117.583V33.6412ZM117.583 40.1612H120.486C121.397 40.1612 122.098 39.9649 122.589 39.5723C123.08 39.1797 123.325 38.6048 123.325 37.8477C123.325 37.1045 123.066 36.5366 122.547 36.144C122.028 35.7374 121.327 35.5341 120.444 35.5341H117.583V40.1612ZM131.52 42.4748C130.692 42.4748 129.998 42.3346 129.437 42.0542C128.876 41.7597 128.456 41.3741 128.175 40.8974C127.895 40.4066 127.755 39.8738 127.755 39.2989C127.755 38.2753 128.126 37.4761 128.869 36.9012C129.627 36.3263 130.692 36.0389 132.066 36.0389H134.759V35.8075C134.759 34.2371 134.029 33.4519 132.571 33.4519C131.968 33.4519 131.456 33.5851 131.036 33.8515C130.629 34.1039 130.356 34.5175 130.216 35.0924H127.986C128.098 33.9987 128.568 33.1364 129.395 32.5054C130.237 31.8604 131.295 31.5379 132.571 31.5379C134.114 31.5379 135.235 31.9165 135.936 32.6737C136.637 33.4308 136.988 34.4755 136.988 35.8075V42.2224H135.095L134.906 40.687H134.759C134.45 41.1778 134.064 41.5984 133.602 41.949C133.139 42.2995 132.445 42.4748 131.52 42.4748ZM131.94 40.6029C132.852 40.6029 133.532 40.3295 133.98 39.7826C134.443 39.2218 134.695 38.5137 134.737 37.6584H132.298C131.498 37.6584 130.931 37.7916 130.594 38.058C130.272 38.3104 130.11 38.6679 130.11 39.1306C130.11 39.5934 130.272 39.9579 130.594 40.2243C130.931 40.4767 131.379 40.6029 131.94 40.6029ZM139.777 42.2224V31.7903H141.712L141.901 33.3467H142.007C142.287 32.8419 142.722 32.4143 143.311 32.0637C143.899 31.7132 144.579 31.5379 145.351 31.5379C146.627 31.5379 147.587 31.9235 148.232 32.6947C148.877 33.4659 149.2 34.6017 149.2 36.102V42.2224H146.97V36.3754C146.97 35.506 146.788 34.833 146.423 34.3563C146.059 33.8795 145.484 33.6412 144.699 33.6412C143.927 33.6412 143.282 33.9006 142.764 34.4194C142.259 34.9382 142.007 35.6883 142.007 36.6698V42.2224H139.777ZM151.757 42.2224V31.7903H153.692L153.882 33.3467H153.987C154.267 32.8419 154.702 32.4143 155.291 32.0637C155.88 31.7132 156.56 31.5379 157.331 31.5379C158.607 31.5379 159.567 31.9235 160.212 32.6947C160.857 33.4659 161.18 34.6017 161.18 36.102V42.2224H158.95V36.3754C158.95 35.506 158.768 34.833 158.404 34.3563C158.039 33.8795 157.464 33.6412 156.679 33.6412C155.908 33.6412 155.263 33.9006 154.744 34.4194C154.239 34.9382 153.987 35.6883 153.987 36.6698V42.2224H151.757ZM165.105 46.8496L167.587 41.3601H166.977L162.917 31.7903H165.336L168.449 39.4251L171.751 31.7903H174.086L167.46 46.8496H165.105ZM189.065 46.8496L191.547 41.3601H190.937L186.878 31.7903H189.297L192.409 39.4251L195.712 31.7903H198.046L191.421 46.8496H189.065ZM204.348 42.4748C203.352 42.4748 202.462 42.2505 201.677 41.8018C200.891 41.3531 200.274 40.7221 199.826 39.9088C199.377 39.0816 199.153 38.1141 199.153 37.0064C199.153 35.8987 199.377 34.9382 199.826 34.1249C200.274 33.2976 200.891 32.6597 201.677 32.211C202.462 31.7623 203.359 31.5379 204.369 31.5379C205.378 31.5379 206.269 31.7623 207.04 32.211C207.825 32.6597 208.435 33.2976 208.87 34.1249C209.318 34.9382 209.543 35.8987 209.543 37.0064C209.543 38.1141 209.318 39.0816 208.87 39.9088C208.421 40.7221 207.804 41.3531 207.019 41.8018C206.248 42.2505 205.357 42.4748 204.348 42.4748ZM204.348 40.3505C204.881 40.3505 205.371 40.2313 205.82 39.993C206.269 39.7546 206.626 39.39 206.893 38.8993C207.173 38.3945 207.313 37.7635 207.313 37.0064C207.313 36.2352 207.173 35.6042 206.893 35.1134C206.626 34.6227 206.269 34.2581 205.82 34.0198C205.385 33.7814 204.902 33.6622 204.369 33.6622C203.836 33.6622 203.345 33.7814 202.896 34.0198C202.448 34.2581 202.083 34.6227 201.803 35.1134C201.536 35.6042 201.403 36.2352 201.403 37.0064C201.403 38.1561 201.691 39.0044 202.265 39.5513C202.854 40.0841 203.548 40.3505 204.348 40.3505ZM215.403 42.4748C214.141 42.4748 213.18 42.0892 212.521 41.318C211.876 40.5328 211.554 39.3971 211.554 37.9108V31.7903H213.783V37.6373C213.783 38.4927 213.965 39.1657 214.33 39.6565C214.708 40.1332 215.283 40.3716 216.055 40.3716C216.826 40.3716 217.471 40.1122 217.99 39.5934C218.508 39.0746 218.768 38.3244 218.768 37.3429V31.7903H220.997V42.2224H219.062L218.873 40.666H218.768C218.487 41.1708 218.053 41.5984 217.464 41.949C216.875 42.2995 216.188 42.4748 215.403 42.4748ZM236.419 42.2224L234.147 31.7903H236.334L237.596 39.1096L239.09 31.7903H241.487L242.981 39.1096L244.243 31.7903H246.43L244.159 42.2224H241.866L240.289 34.6928L238.711 42.2224H236.419ZM251.322 42.4748C250.495 42.4748 249.801 42.3346 249.24 42.0542C248.679 41.7597 248.259 41.3741 247.978 40.8974C247.698 40.4066 247.558 39.8738 247.558 39.2989C247.558 38.2753 247.929 37.4761 248.672 36.9012C249.429 36.3263 250.495 36.0389 251.869 36.0389H254.561V35.8075C254.561 34.2371 253.832 33.4519 252.374 33.4519C251.771 33.4519 251.259 33.5851 250.839 33.8515C250.432 34.1039 250.159 34.5175 250.018 35.0924H247.789C247.901 33.9987 248.371 33.1364 249.198 32.5054C250.039 31.8604 251.098 31.5379 252.374 31.5379C253.916 31.5379 255.038 31.9165 255.739 32.6737C256.44 33.4308 256.791 34.4755 256.791 35.8075V42.2224H254.898L254.709 40.687H254.561C254.253 41.1778 253.867 41.5984 253.405 41.949C252.942 42.2995 252.248 42.4748 251.322 42.4748ZM251.743 40.6029C252.654 40.6029 253.334 40.3295 253.783 39.7826C254.246 39.2218 254.498 38.5137 254.54 37.6584H252.101C251.301 37.6584 250.733 37.7916 250.397 38.058C250.074 38.3104 249.913 38.6679 249.913 39.1306C249.913 39.5934 250.074 39.9579 250.397 40.2243C250.733 40.4767 251.182 40.6029 251.743 40.6029ZM259.58 42.2224V31.7903H261.515L261.704 33.3467H261.809C262.09 32.8419 262.524 32.4143 263.113 32.0637C263.702 31.7132 264.382 31.5379 265.154 31.5379C266.429 31.5379 267.39 31.9235 268.035 32.6947C268.68 33.4659 269.002 34.6017 269.002 36.102V42.2224H266.773V36.3754C266.773 35.506 266.591 34.833 266.226 34.3563C265.862 33.8795 265.287 33.6412 264.502 33.6412C263.73 33.6412 263.085 33.9006 262.567 34.4194C262.062 34.9382 261.809 35.6883 261.809 36.6698V42.2224H259.58ZM277.365 42.2224C276.342 42.2224 275.528 41.977 274.925 41.4863C274.322 40.9815 274.021 40.0911 274.021 38.8152V33.6832H271.392V31.7903H272.948C273.663 31.7903 274.084 31.4398 274.21 30.7387L274.526 29.0561H276.25V31.7903H280.373V33.6832H276.25V38.7731C276.25 39.3199 276.37 39.7055 276.608 39.9299C276.86 40.1402 277.288 40.2454 277.891 40.2454H280.331V42.2224H277.365ZM301.326 42.2224C300.302 42.2224 299.489 41.977 298.886 41.4863C298.283 40.9815 297.982 40.0911 297.982 38.8152V33.6832H295.353V31.7903H296.909C297.624 31.7903 298.045 31.4398 298.171 30.7387L298.486 29.0561H300.211V31.7903H304.333V33.6832H300.211V38.7731C300.211 39.3199 300.33 39.7055 300.569 39.9299C300.821 40.1402 301.249 40.2454 301.852 40.2454H304.291V42.2224H301.326ZM312.17 42.4748C311.175 42.4748 310.284 42.2505 309.499 41.8018C308.714 41.3531 308.097 40.7221 307.648 39.9088C307.2 39.0816 306.975 38.1141 306.975 37.0064C306.975 35.8987 307.2 34.9382 307.648 34.1249C308.097 33.2976 308.714 32.6597 309.499 32.211C310.284 31.7623 311.182 31.5379 312.191 31.5379C313.201 31.5379 314.091 31.7623 314.862 32.211C315.648 32.6597 316.258 33.2976 316.692 34.1249C317.141 34.9382 317.365 35.8987 317.365 37.0064C317.365 38.1141 317.141 39.0816 316.692 39.9088C316.244 40.7221 315.627 41.3531 314.841 41.8018C314.07 42.2505 313.18 42.4748 312.17 42.4748ZM312.17 40.3505C312.703 40.3505 313.194 40.2313 313.643 39.993C314.091 39.7546 314.449 39.39 314.715 38.8993C314.996 38.3945 315.136 37.7635 315.136 37.0064C315.136 36.2352 314.996 35.6042 314.715 35.1134C314.449 34.6227 314.091 34.2581 313.643 34.0198C313.208 33.7814 312.724 33.6622 312.191 33.6622C311.658 33.6622 311.168 33.7814 310.719 34.0198C310.27 34.2581 309.906 34.6227 309.625 35.1134C309.359 35.6042 309.226 36.2352 309.226 37.0064C309.226 38.1561 309.513 39.0044 310.088 39.5513C310.677 40.0841 311.371 40.3505 312.17 40.3505ZM23.697 69.4748C22.8697 69.4748 22.1756 69.3346 21.6148 69.0542C21.0539 68.7597 20.6333 68.3741 20.3528 67.8974C20.0724 67.4066 19.9322 66.8738 19.9322 66.2989C19.9322 65.2753 20.3037 64.4761 21.0469 63.9012C21.8041 63.3263 22.8697 63.0389 24.2438 63.0389H26.936V62.8075C26.936 61.2371 26.2069 60.4519 24.7486 60.4519C24.1457 60.4519 23.6339 60.5851 23.2132 60.8515C22.8066 61.1039 22.5332 61.5175 22.393 62.0924H20.1635C20.2757 60.9987 20.7454 60.1364 21.5727 59.5054C22.414 58.8604 23.4726 58.5379 24.7486 58.5379C26.291 58.5379 27.4127 58.9165 28.1138 59.6737C28.8149 60.4308 29.1654 61.4755 29.1654 62.8075V69.2224H27.2725L27.0832 67.687H26.936C26.6275 68.1778 26.2419 68.5984 25.7792 68.949C25.3165 69.2995 24.6224 69.4748 23.697 69.4748ZM24.1176 67.6029C25.029 67.6029 25.7091 67.3295 26.1578 66.7826C26.6205 66.2218 26.8729 65.5137 26.915 64.6584H24.4752C23.676 64.6584 23.1081 64.7916 22.7716 65.058C22.4491 65.3104 22.2878 65.6679 22.2878 66.1306C22.2878 66.5934 22.4491 66.9579 22.7716 67.2243C23.1081 67.4767 23.5568 67.6029 24.1176 67.6029ZM36.771 69.4748C35.8035 69.4748 34.9341 69.2505 34.1629 68.8018C33.4058 68.3531 32.8098 67.7221 32.3752 66.9088C31.9405 66.0816 31.7232 65.1141 31.7232 64.0064C31.7232 62.8987 31.9405 61.9382 32.3752 61.1249C32.8239 60.3117 33.4268 59.6807 34.184 59.232C34.9411 58.7693 35.8035 58.5379 36.771 58.5379C38.103 58.5379 39.1757 58.8744 39.9889 59.5475C40.8162 60.2065 41.342 61.1179 41.5664 62.2817H39.2318C39.0915 61.7769 38.8041 61.3773 38.3694 61.0829C37.9488 60.7884 37.4089 60.6412 36.7499 60.6412C36.2732 60.6412 35.8175 60.7674 35.3828 61.0198C34.9622 61.2721 34.6186 61.6507 34.3522 62.1555C34.0998 62.6463 33.9736 63.2632 33.9736 64.0064C33.9736 64.7355 34.0998 65.3524 34.3522 65.8572C34.6186 66.362 34.9622 66.7476 35.3828 67.014C35.8175 67.2664 36.2732 67.3926 36.7499 67.3926C37.423 67.3926 37.9628 67.2454 38.3694 66.9509C38.7761 66.6565 39.0635 66.2498 39.2318 65.731H41.5664C41.2859 66.8808 40.7391 67.7922 39.9258 68.4652C39.1126 69.1383 38.061 69.4748 36.771 69.4748ZM48.7512 69.4748C47.7837 69.4748 46.9144 69.2505 46.1432 68.8018C45.386 68.3531 44.7901 67.7221 44.3555 66.9088C43.9208 66.0816 43.7035 65.1141 43.7035 64.0064C43.7035 62.8987 43.9208 61.9382 44.3555 61.1249C44.8042 60.3117 45.4071 59.6807 46.1642 59.232C46.9214 58.7693 47.7837 58.5379 48.7512 58.5379C50.0833 58.5379 51.156 58.8744 51.9692 59.5475C52.7965 60.2065 53.3223 61.1179 53.5466 62.2817H51.212C51.0718 61.7769 50.7844 61.3773 50.3497 61.0829C49.9291 60.7884 49.3892 60.6412 48.7302 60.6412C48.2535 60.6412 47.7978 60.7674 47.3631 61.0198C46.9425 61.2721 46.5989 61.6507 46.3325 62.1555C46.0801 62.6463 45.9539 63.2632 45.9539 64.0064C45.9539 64.7355 46.0801 65.3524 46.3325 65.8572C46.5989 66.362 46.9425 66.7476 47.3631 67.014C47.7978 67.2664 48.2535 67.3926 48.7302 67.3926C49.4032 67.3926 49.9431 67.2454 50.3497 66.9509C50.7563 66.6565 51.0438 66.2498 51.212 65.731H53.5466C53.2662 66.8808 52.7194 67.7922 51.9061 68.4652C51.0929 69.1383 50.0412 69.4748 48.7512 69.4748ZM60.7105 69.4748C59.7009 69.4748 58.8106 69.2505 58.0394 68.8018C57.2682 68.339 56.6653 67.7011 56.2306 66.8878C55.7959 66.0746 55.5786 65.1281 55.5786 64.0484C55.5786 62.9547 55.7889 61.9943 56.2095 61.167C56.6442 60.3397 57.2471 59.6947 58.0183 59.232C58.8036 58.7693 59.7079 58.5379 60.7315 58.5379C61.7411 58.5379 62.6104 58.7693 63.3396 59.232C64.0687 59.6807 64.6295 60.2836 65.0221 61.0408C65.4288 61.798 65.6321 62.6322 65.6321 63.5436C65.6321 63.6839 65.6321 63.8381 65.6321 64.0064C65.6321 64.1606 65.6251 64.3359 65.6111 64.5322H57.766C57.8361 65.4997 58.1515 66.2358 58.7124 66.7406C59.2733 67.2313 59.9323 67.4767 60.6895 67.4767C61.3485 67.4767 61.8673 67.3435 62.2459 67.0771C62.6385 66.7967 62.9259 66.4181 63.1082 65.9413H65.3587C65.1063 66.9369 64.5805 67.7782 63.7812 68.4652C62.982 69.1383 61.9584 69.4748 60.7105 69.4748ZM60.7105 60.4729C60.0234 60.4729 59.4135 60.6832 58.8807 61.1039C58.3478 61.5105 58.0043 62.0854 57.8501 62.8285H63.4026C63.3466 62.1275 63.0731 61.5596 62.5824 61.1249C62.0916 60.6902 61.4677 60.4729 60.7105 60.4729ZM72.6487 69.4748C71.2746 69.4748 70.1809 69.1523 69.3676 68.5073C68.5544 67.8623 68.0917 67.007 67.9795 65.9413H70.272C70.3562 66.4321 70.6016 66.8317 71.0082 67.1402C71.4288 67.4487 71.9827 67.6029 72.6697 67.6029C73.3288 67.6029 73.8335 67.4697 74.1841 67.2033C74.5486 66.9229 74.7309 66.6004 74.7309 66.2358C74.7309 65.703 74.5136 65.3384 74.0789 65.1421C73.6583 64.9458 73.0343 64.7986 72.207 64.7004C71.4919 64.6163 70.8399 64.4551 70.251 64.2167C69.6761 63.9643 69.2204 63.6278 68.8839 63.2071C68.5474 62.7725 68.3791 62.2326 68.3791 61.5876C68.3791 60.6762 68.7367 59.9401 69.4518 59.3792C70.1669 58.8184 71.1624 58.5379 72.4384 58.5379C73.7144 58.5379 74.7029 58.8254 75.404 59.4003C76.105 59.9751 76.5117 60.7604 76.6238 61.7559H74.4785C74.4224 61.3352 74.2051 61.0057 73.8265 60.7674C73.4479 60.515 72.9782 60.3888 72.4174 60.3888C71.8425 60.3888 71.3868 60.501 71.0502 60.7253C70.7137 60.9356 70.5455 61.2161 70.5455 61.5666C70.5455 62.3238 71.3587 62.7865 72.9852 62.9547C73.7564 63.0389 74.4435 63.1861 75.0464 63.3964C75.6493 63.5927 76.1261 63.9082 76.4766 64.3429C76.8272 64.7635 77.0024 65.3595 77.0024 66.1306C77.0165 66.7616 76.8342 67.3295 76.4556 67.8343C76.091 68.339 75.5792 68.7387 74.9202 69.0331C74.2752 69.3276 73.5181 69.4748 72.6487 69.4748ZM84.629 69.4748C83.2549 69.4748 82.1612 69.1523 81.3479 68.5073C80.5347 67.8623 80.072 67.007 79.9598 65.9413H82.2523C82.3365 66.4321 82.5818 66.8317 82.9885 67.1402C83.4091 67.4487 83.963 67.6029 84.65 67.6029C85.309 67.6029 85.8138 67.4697 86.1644 67.2033C86.5289 66.9229 86.7112 66.6004 86.7112 66.2358C86.7112 65.703 86.4939 65.3384 86.0592 65.1421C85.6386 64.9458 85.0146 64.7986 84.1873 64.7004C83.4722 64.6163 82.8202 64.4551 82.2313 64.2167C81.6564 63.9643 81.2007 63.6278 80.8642 63.2071C80.5277 62.7725 80.3594 62.2326 80.3594 61.5876C80.3594 60.6762 80.717 59.9401 81.4321 59.3792C82.1472 58.8184 83.1427 58.5379 84.4187 58.5379C85.6946 58.5379 86.6832 58.8254 87.3842 59.4003C88.0853 59.9751 88.492 60.7604 88.6041 61.7559H86.4588C86.4027 61.3352 86.1854 61.0057 85.8068 60.7674C85.4282 60.515 84.9585 60.3888 84.3976 60.3888C83.8228 60.3888 83.367 60.501 83.0305 60.7253C82.694 60.9356 82.5258 61.2161 82.5258 61.5666C82.5258 62.3238 83.339 62.7865 84.9655 62.9547C85.7367 63.0389 86.4238 63.1861 87.0267 63.3964C87.6296 63.5927 88.1064 63.9082 88.4569 64.3429C88.8074 64.7635 88.9827 65.3595 88.9827 66.1306C88.9967 66.7616 88.8145 67.3295 88.4359 67.8343C88.0713 68.339 87.5595 68.7387 86.9005 69.0331C86.2555 69.3276 85.4983 69.4748 84.629 69.4748ZM96.5252 69.4748C95.5296 69.4748 94.6392 69.2505 93.854 68.8018C93.0688 68.3531 92.4519 67.7221 92.0032 66.9088C91.5545 66.0816 91.3301 65.1141 91.3301 64.0064C91.3301 62.8987 91.5545 61.9382 92.0032 61.1249C92.4519 60.2976 93.0688 59.6597 93.854 59.211C94.6392 58.7623 95.5366 58.5379 96.5462 58.5379C97.5557 58.5379 98.4461 58.7623 99.2173 59.211C100.003 59.6597 100.612 60.2976 101.047 61.1249C101.496 61.9382 101.72 62.8987 101.72 64.0064C101.72 65.1141 101.496 66.0816 101.047 66.9088C100.598 67.7221 99.9815 68.3531 99.1963 68.8018C98.4251 69.2505 97.5347 69.4748 96.5252 69.4748ZM96.5252 67.3505C97.058 67.3505 97.5487 67.2313 97.9974 66.993C98.4461 66.7546 98.8037 66.39 99.0701 65.8993C99.3505 65.3945 99.4907 64.7635 99.4907 64.0064C99.4907 63.2352 99.3505 62.6042 99.0701 62.1134C98.8037 61.6227 98.4461 61.2581 97.9974 61.0198C97.5628 60.7814 97.079 60.6622 96.5462 60.6622C96.0134 60.6622 95.5226 60.7814 95.0739 61.0198C94.6252 61.2581 94.2607 61.6227 93.9802 62.1134C93.7138 62.6042 93.5806 63.2352 93.5806 64.0064C93.5806 65.1561 93.8681 66.0044 94.4429 66.5513C95.0318 67.0841 95.7259 67.3505 96.5252 67.3505ZM103.815 69.2224V67.2874H106.36V61.4194C106.36 60.9567 106.136 60.7253 105.687 60.7253H104.026V58.7903H106.528C107.103 58.7903 107.573 58.9586 107.938 59.2951C108.302 59.6176 108.484 60.0733 108.484 60.6622V60.9146H108.59C108.744 60.1294 109.073 59.5405 109.578 59.1479C110.097 58.7412 110.847 58.5379 111.829 58.5379H113.448V60.8936H111.177C110.349 60.8936 109.711 61.181 109.263 61.7559C108.814 62.3308 108.59 63.0178 108.59 63.8171V67.2874H111.829V69.2224H103.815ZM120.275 57.1918C119.785 57.1918 119.371 57.0376 119.034 56.7291C118.712 56.4066 118.551 56.014 118.551 55.5513C118.551 55.0886 118.712 54.703 119.034 54.3945C119.371 54.0861 119.785 53.9318 120.275 53.9318C120.78 53.9318 121.194 54.0861 121.516 54.3945C121.853 54.703 122.021 55.0886 122.021 55.5513C122.021 56.014 121.853 56.4066 121.516 56.7291C121.194 57.0376 120.78 57.1918 120.275 57.1918ZM116.09 69.2224V67.2874H119.371V61.4194C119.371 60.9567 119.147 60.7253 118.698 60.7253H116.384V58.7903H119.098C119.967 58.7903 120.598 58.9936 120.99 59.4003C121.397 59.7929 121.6 60.4238 121.6 61.2932V67.2874H124.881V69.2224H116.09ZM128.133 69.2224V67.2243L133.917 60.8305H128.217V58.7903H136.694V60.7884L130.847 67.1823H136.799V69.2224H128.133ZM144.572 69.4748C143.563 69.4748 142.673 69.2505 141.901 68.8018C141.13 68.339 140.527 67.7011 140.093 66.8878C139.658 66.0746 139.441 65.1281 139.441 64.0484C139.441 62.9547 139.651 61.9943 140.072 61.167C140.506 60.3397 141.109 59.6947 141.88 59.232C142.666 58.7693 143.57 58.5379 144.594 58.5379C145.603 58.5379 146.472 58.7693 147.202 59.232C147.931 59.6807 148.492 60.2836 148.884 61.0408C149.291 61.798 149.494 62.6322 149.494 63.5436C149.494 63.6839 149.494 63.8381 149.494 64.0064C149.494 64.1606 149.487 64.3359 149.473 64.5322H141.628C141.698 65.4997 142.014 66.2358 142.574 66.7406C143.135 67.2313 143.794 67.4767 144.551 67.4767C145.21 67.4767 145.729 67.3435 146.108 67.0771C146.5 66.7967 146.788 66.4181 146.97 65.9413H149.221C148.968 66.9369 148.442 67.7782 147.643 68.4652C146.844 69.1383 145.82 69.4748 144.572 69.4748ZM144.572 60.4729C143.885 60.4729 143.275 60.6832 142.743 61.1039C142.21 61.5105 141.866 62.0854 141.712 62.8285H147.265C147.209 62.1275 146.935 61.5596 146.444 61.1249C145.954 60.6902 145.33 60.4729 144.572 60.4729ZM167.46 69.4748C166.633 69.4748 165.939 69.3346 165.378 69.0542C164.817 68.7597 164.397 68.3741 164.116 67.8974C163.836 67.4066 163.696 66.8738 163.696 66.2989C163.696 65.2753 164.067 64.4761 164.81 63.9012C165.567 63.3263 166.633 63.0389 168.007 63.0389H170.699V62.8075C170.699 61.2371 169.97 60.4519 168.512 60.4519C167.909 60.4519 167.397 60.5851 166.977 60.8515C166.57 61.1039 166.297 61.5175 166.156 62.0924H163.927C164.039 60.9987 164.509 60.1364 165.336 59.5054C166.177 58.8604 167.236 58.5379 168.512 58.5379C170.054 58.5379 171.176 58.9165 171.877 59.6737C172.578 60.4308 172.929 61.4755 172.929 62.8075V69.2224H171.036L170.847 67.687H170.699C170.391 68.1778 170.005 68.5984 169.543 68.949C169.08 69.2995 168.386 69.4748 167.46 69.4748ZM167.881 67.6029C168.792 67.6029 169.473 67.3295 169.921 66.7826C170.384 66.2218 170.636 65.5137 170.678 64.6584H168.239C167.439 64.6584 166.871 64.7916 166.535 65.058C166.212 65.3104 166.051 65.6679 166.051 66.1306C166.051 66.5934 166.212 66.9579 166.535 67.2243C166.871 67.4767 167.32 67.6029 167.881 67.6029ZM175.718 69.2224V58.7903H177.653L177.842 60.3467H177.947C178.228 59.8419 178.662 59.4143 179.251 59.0637C179.84 58.7132 180.52 58.5379 181.292 58.5379C182.568 58.5379 183.528 58.9235 184.173 59.6947C184.818 60.4659 185.14 61.6017 185.14 63.102V69.2224H182.911V63.3754C182.911 62.506 182.729 61.833 182.364 61.3563C182 60.8795 181.425 60.6412 180.64 60.6412C179.868 60.6412 179.223 60.9006 178.705 61.4194C178.2 61.9382 177.947 62.6883 177.947 63.6698V69.2224H175.718ZM191.8 69.4748C190.93 69.4748 190.152 69.2715 189.465 68.8649C188.778 68.4442 188.231 67.8273 187.824 67.014C187.432 66.2007 187.235 65.1982 187.235 64.0064C187.235 62.8145 187.439 61.812 187.845 60.9987C188.252 60.1855 188.799 59.5755 189.486 59.1689C190.187 58.7482 190.965 58.5379 191.821 58.5379C192.62 58.5379 193.279 58.6922 193.798 59.0006C194.316 59.2951 194.702 59.6737 194.954 60.1364V54.079H197.184V69.2224H195.27L195.081 67.687H194.954C194.674 68.2339 194.274 68.6686 193.756 68.9911C193.251 69.3136 192.599 69.4748 191.8 69.4748ZM192.262 67.3505C193.061 67.3505 193.721 67.0701 194.239 66.5092C194.772 65.9484 195.039 65.1141 195.039 64.0064C195.039 62.8846 194.772 62.0503 194.239 61.5035C193.721 60.9426 193.061 60.6622 192.262 60.6622C191.463 60.6622 190.797 60.9426 190.264 61.5035C189.745 62.0644 189.486 62.9057 189.486 64.0274C189.486 65.1351 189.745 65.9694 190.264 66.5303C190.797 67.0771 191.463 67.3505 192.262 67.3505ZM210.544 69.2224V58.7903H212.395L212.584 60.0102H212.689C212.872 59.5755 213.152 59.225 213.531 58.9586C213.909 58.6781 214.358 58.5379 214.877 58.5379C215.382 58.5379 215.823 58.6641 216.202 58.9165C216.58 59.1689 216.861 59.5335 217.043 60.0102H217.127C217.31 59.5895 217.597 59.239 217.99 58.9586C218.382 58.6781 218.866 58.5379 219.441 58.5379C220.212 58.5379 220.794 58.7903 221.186 59.2951C221.593 59.7999 221.796 60.508 221.796 61.4194V69.2224H219.651V61.8611C219.651 61.4404 219.56 61.1109 219.378 60.8725C219.209 60.6201 218.936 60.4939 218.557 60.4939C218.179 60.4939 217.863 60.6412 217.611 60.9356C217.373 61.2301 217.253 61.6437 217.253 62.1765V69.2224H215.087V61.8611C215.087 61.4404 215.003 61.1109 214.835 60.8725C214.666 60.6201 214.393 60.4939 214.014 60.4939C213.636 60.4939 213.32 60.6412 213.068 60.9356C212.816 61.2301 212.689 61.6437 212.689 62.1765V69.2224H210.544ZM227.362 69.4748C226.535 69.4748 225.84 69.3346 225.28 69.0542C224.719 68.7597 224.298 68.3741 224.018 67.8974C223.737 67.4066 223.597 66.8738 223.597 66.2989C223.597 65.2753 223.969 64.4761 224.712 63.9012C225.469 63.3263 226.535 63.0389 227.909 63.0389H230.601V62.8075C230.601 61.2371 229.872 60.4519 228.413 60.4519C227.811 60.4519 227.299 60.5851 226.878 60.8515C226.471 61.1039 226.198 61.5175 226.058 62.0924H223.828C223.941 60.9987 224.41 60.1364 225.238 59.5054C226.079 58.8604 227.137 58.5379 228.413 58.5379C229.956 58.5379 231.078 58.9165 231.779 59.6737C232.48 60.4308 232.83 61.4755 232.83 62.8075V69.2224H230.937L230.748 67.687H230.601C230.292 68.1778 229.907 68.5984 229.444 68.949C228.981 69.2995 228.287 69.4748 227.362 69.4748ZM227.782 67.6029C228.694 67.6029 229.374 67.3295 229.823 66.7826C230.285 66.2218 230.538 65.5137 230.58 64.6584H228.14C227.341 64.6584 226.773 64.7916 226.436 65.058C226.114 65.3104 225.953 65.6679 225.953 66.1306C225.953 66.5934 226.114 66.9579 226.436 67.2243C226.773 67.4767 227.222 67.6029 227.782 67.6029ZM236.04 69.2224V54.079H238.269V63.1651L242.266 58.7903H245.063L240.709 63.4175V63.5857L245.631 69.2224H242.918L238.269 63.8591V69.2224H236.04ZM252.395 69.4748C251.385 69.4748 250.495 69.2505 249.724 68.8018C248.953 68.339 248.35 67.7011 247.915 66.8878C247.48 66.0746 247.263 65.1281 247.263 64.0484C247.263 62.9547 247.473 61.9943 247.894 61.167C248.329 60.3397 248.932 59.6947 249.703 59.232C250.488 58.7693 251.392 58.5379 252.416 58.5379C253.426 58.5379 254.295 58.7693 255.024 59.232C255.753 59.6807 256.314 60.2836 256.707 61.0408C257.113 61.798 257.317 62.6322 257.317 63.5436C257.317 63.6839 257.317 63.8381 257.317 64.0064C257.317 64.1606 257.31 64.3359 257.296 64.5322H249.45C249.521 65.4997 249.836 66.2358 250.397 66.7406C250.958 67.2313 251.617 67.4767 252.374 67.4767C253.033 67.4767 253.552 67.3435 253.93 67.0771C254.323 66.7967 254.61 66.4181 254.793 65.9413H257.043C256.791 66.9369 256.265 67.7782 255.466 68.4652C254.667 69.1383 253.643 69.4748 252.395 69.4748ZM252.395 60.4729C251.708 60.4729 251.098 60.6832 250.565 61.1039C250.032 61.5105 249.689 62.0854 249.535 62.8285H255.087C255.031 62.1275 254.758 61.5596 254.267 61.1249C253.776 60.6902 253.152 60.4729 252.395 60.4729ZM276.019 57.1918C275.528 57.1918 275.115 57.0376 274.778 56.7291C274.456 56.4066 274.294 56.014 274.294 55.5513C274.294 55.0886 274.456 54.703 274.778 54.3945C275.115 54.0861 275.528 53.9318 276.019 53.9318C276.524 53.9318 276.938 54.0861 277.26 54.3945C277.597 54.703 277.765 55.0886 277.765 55.5513C277.765 56.014 277.597 56.4066 277.26 56.7291C276.938 57.0376 276.524 57.1918 276.019 57.1918ZM271.834 69.2224V67.2874H275.115V61.4194C275.115 60.9567 274.89 60.7253 274.442 60.7253H272.128V58.7903H274.841C275.711 58.7903 276.342 58.9936 276.734 59.4003C277.141 59.7929 277.344 60.4238 277.344 61.2932V67.2874H280.625V69.2224H271.834ZM283.54 69.2224V58.7903H285.475L285.665 60.3467H285.77C286.05 59.8419 286.485 59.4143 287.074 59.0637C287.663 58.7132 288.343 58.5379 289.114 58.5379C290.39 58.5379 291.351 58.9235 291.996 59.6947C292.641 60.4659 292.963 61.6017 292.963 63.102V69.2224H290.734V63.3754C290.734 62.506 290.551 61.833 290.187 61.3563C289.822 60.8795 289.247 60.6412 288.462 60.6412C287.691 60.6412 287.046 60.9006 286.527 61.4194C286.022 61.9382 285.77 62.6883 285.77 63.6698V69.2224H283.54ZM301.326 69.2224C300.302 69.2224 299.489 68.977 298.886 68.4863C298.283 67.9815 297.982 67.0911 297.982 65.8152V60.6832H295.353V58.7903H296.909C297.624 58.7903 298.045 58.4398 298.171 57.7387L298.486 56.0561H300.211V58.7903H304.333V60.6832H300.211V65.7731C300.211 66.3199 300.33 66.7055 300.569 66.9299C300.821 67.1402 301.249 67.2454 301.852 67.2454H304.291V69.2224H301.326ZM312.17 69.4748C311.175 69.4748 310.284 69.2505 309.499 68.8018C308.714 68.3531 308.097 67.7221 307.648 66.9088C307.2 66.0816 306.975 65.1141 306.975 64.0064C306.975 62.8987 307.2 61.9382 307.648 61.1249C308.097 60.2976 308.714 59.6597 309.499 59.211C310.284 58.7623 311.182 58.5379 312.191 58.5379C313.201 58.5379 314.091 58.7623 314.862 59.211C315.648 59.6597 316.258 60.2976 316.692 61.1249C317.141 61.9382 317.365 62.8987 317.365 64.0064C317.365 65.1141 317.141 66.0816 316.692 66.9088C316.244 67.7221 315.627 68.3531 314.841 68.8018C314.07 69.2505 313.18 69.4748 312.17 69.4748ZM312.17 67.3505C312.703 67.3505 313.194 67.2313 313.643 66.993C314.091 66.7546 314.449 66.39 314.715 65.8993C314.996 65.3945 315.136 64.7635 315.136 64.0064C315.136 63.2352 314.996 62.6042 314.715 62.1134C314.449 61.6227 314.091 61.2581 313.643 61.0198C313.208 60.7814 312.724 60.6622 312.191 60.6622C311.658 60.6622 311.168 60.7814 310.719 61.0198C310.27 61.2581 309.906 61.6227 309.625 62.1134C309.359 62.6042 309.226 63.2352 309.226 64.0064C309.226 65.1561 309.513 66.0044 310.088 66.5513C310.677 67.0841 311.371 67.3505 312.17 67.3505ZM335.184 69.4748C334.357 69.4748 333.663 69.3346 333.102 69.0542C332.541 68.7597 332.121 68.3741 331.84 67.8974C331.56 67.4066 331.42 66.8738 331.42 66.2989C331.42 65.2753 331.791 64.4761 332.534 63.9012C333.291 63.3263 334.357 63.0389 335.731 63.0389H338.423V62.8075C338.423 61.2371 337.694 60.4519 336.236 60.4519C335.633 60.4519 335.121 60.5851 334.701 60.8515C334.294 61.1039 334.021 61.5175 333.88 62.0924H331.651C331.763 60.9987 332.233 60.1364 333.06 59.5054C333.901 58.8604 334.96 58.5379 336.236 58.5379C337.778 58.5379 338.9 58.9165 339.601 59.6737C340.302 60.4308 340.653 61.4755 340.653 62.8075V69.2224H338.76L338.571 67.687H338.423C338.115 68.1778 337.729 68.5984 337.267 68.949C336.804 69.2995 336.11 69.4748 335.184 69.4748ZM335.605 67.6029C336.516 67.6029 337.196 67.3295 337.645 66.7826C338.108 66.2218 338.36 65.5137 338.402 64.6584H335.963C335.163 64.6584 334.595 64.7916 334.259 65.058C333.936 65.3104 333.775 65.6679 333.775 66.1306C333.775 66.5934 333.936 66.9579 334.259 67.2243C334.595 67.4767 335.044 67.6029 335.605 67.6029ZM48.7512 96.4748C47.7837 96.4748 46.9144 96.2505 46.1432 95.8018C45.386 95.3531 44.7901 94.7221 44.3554 93.9088C43.9208 93.0816 43.7034 92.1141 43.7034 91.0064C43.7034 89.8987 43.9208 88.9382 44.3554 88.1249C44.8041 87.3117 45.4071 86.6807 46.1642 86.232C46.9214 85.7693 47.7837 85.5379 48.7512 85.5379C50.0833 85.5379 51.1559 85.8744 51.9692 86.5475C52.7965 87.2065 53.3223 88.1179 53.5466 89.2817H51.212C51.0718 88.7769 50.7844 88.3773 50.3497 88.0829C49.929 87.7884 49.3892 87.6412 48.7302 87.6412C48.2535 87.6412 47.7978 87.7674 47.3631 88.0198C46.9424 88.2721 46.5989 88.6507 46.3325 89.1555C46.0801 89.6463 45.9539 90.2632 45.9539 91.0064C45.9539 91.7355 46.0801 92.3524 46.3325 92.8572C46.5989 93.362 46.9424 93.7476 47.3631 94.014C47.7978 94.2664 48.2535 94.3926 48.7302 94.3926C49.4032 94.3926 49.9431 94.2454 50.3497 93.9509C50.7563 93.6565 51.0438 93.2498 51.212 92.731H53.5466C53.2662 93.8808 52.7194 94.7922 51.9061 95.4652C51.0928 96.1383 50.0412 96.4748 48.7512 96.4748ZM60.5843 96.4748C59.5888 96.4748 58.6984 96.2505 57.9132 95.8018C57.128 95.3531 56.511 94.7221 56.0623 93.9088C55.6136 93.0816 55.3893 92.1141 55.3893 91.0064C55.3893 89.8987 55.6136 88.9382 56.0623 88.1249C56.511 87.2976 57.128 86.6597 57.9132 86.211C58.6984 85.7623 59.5958 85.5379 60.6053 85.5379C61.6149 85.5379 62.5053 85.7623 63.2764 86.211C64.0617 86.6597 64.6716 87.2976 65.1063 88.1249C65.555 88.9382 65.7793 89.8987 65.7793 91.0064C65.7793 92.1141 65.555 93.0816 65.1063 93.9088C64.6576 94.7221 64.0406 95.3531 63.2554 95.8018C62.4842 96.2505 61.5938 96.4748 60.5843 96.4748ZM60.5843 94.3505C61.1171 94.3505 61.6079 94.2313 62.0566 93.993C62.5053 93.7546 62.8628 93.39 63.1292 92.8993C63.4096 92.3945 63.5499 91.7635 63.5499 91.0064C63.5499 90.2352 63.4096 89.6042 63.1292 89.1134C62.8628 88.6227 62.5053 88.2581 62.0566 88.0198C61.6219 87.7814 61.1381 87.6622 60.6053 87.6622C60.0725 87.6622 59.5817 87.7814 59.133 88.0198C58.6844 88.2581 58.3198 88.6227 58.0394 89.1134C57.773 89.6042 57.6397 90.2352 57.6397 91.0064C57.6397 92.1561 57.9272 93.0044 58.5021 93.5513C59.091 94.0841 59.7851 94.3505 60.5843 94.3505ZM66.7806 96.2224V85.7903H68.6315L68.8208 87.0102H68.926C69.1082 86.5755 69.3887 86.225 69.7673 85.9586C70.1458 85.6781 70.5945 85.5379 71.1133 85.5379C71.6181 85.5379 72.0598 85.6641 72.4384 85.9165C72.817 86.1689 73.0974 86.5335 73.2797 87.0102H73.3638C73.5461 86.5895 73.8335 86.239 74.2261 85.9586C74.6187 85.6781 75.1025 85.5379 75.6774 85.5379C76.4486 85.5379 77.0305 85.7903 77.4231 86.2951C77.8297 86.7999 78.033 87.508 78.033 88.4194V96.2224H75.8877V88.8611C75.8877 88.4404 75.7966 88.1109 75.6143 87.8725C75.446 87.6201 75.1726 87.4939 74.794 87.4939C74.4154 87.4939 74.0999 87.6412 73.8476 87.9356C73.6092 88.2301 73.49 88.6437 73.49 89.1765V96.2224H71.3237V88.8611C71.3237 88.4404 71.2395 88.1109 71.0713 87.8725C70.903 87.6201 70.6296 87.4939 70.251 87.4939C69.8724 87.4939 69.5569 87.6412 69.3045 87.9356C69.0522 88.2301 68.926 88.6437 68.926 89.1765V96.2224H66.7806ZM79.6864 100.85V85.7903H81.6213L81.7896 87.3888H81.9158C82.1962 86.87 82.6169 86.4353 83.1778 86.0848C83.7526 85.7202 84.4327 85.5379 85.2179 85.5379C86.0312 85.5379 86.7743 85.7482 87.4473 86.1689C88.1204 86.5755 88.6532 87.1855 89.0458 87.9987C89.4524 88.798 89.6557 89.8005 89.6557 91.0064C89.6557 92.1982 89.4454 93.2007 89.0248 94.014C88.6181 94.8273 88.0643 95.4442 87.3632 95.8649C86.6621 96.2715 85.8769 96.4748 85.0076 96.4748C84.2364 96.4748 83.5914 96.3206 83.0726 96.0121C82.5538 95.7036 82.1682 95.3531 81.9158 94.9605V100.85H79.6864ZM84.629 94.3505C85.4142 94.3505 86.0662 94.0701 86.585 93.5092C87.1178 92.9484 87.3842 92.1071 87.3842 90.9853C87.3842 89.8636 87.1178 89.0293 86.585 88.4825C86.0662 87.9356 85.4142 87.6622 84.629 87.6622C83.8298 87.6622 83.1637 87.9426 82.6309 88.5035C82.1121 89.0503 81.8527 89.8846 81.8527 91.0064C81.8527 92.1141 82.1121 92.9484 82.6309 93.5092C83.1637 94.0701 83.8298 94.3505 84.629 94.3505ZM91.6456 96.2224V94.2874H95.137V83.7081C95.137 83.2454 94.9126 83.014 94.464 83.014H91.9401V81.079H94.8636C95.6768 81.079 96.2938 81.2964 96.7144 81.7311C97.1491 82.1517 97.3664 82.7687 97.3664 83.5819V94.2874H100.879V96.2224H91.6456ZM108.632 96.4748C107.622 96.4748 106.732 96.2505 105.96 95.8018C105.189 95.339 104.586 94.7011 104.152 93.8878C103.717 93.0746 103.5 92.1281 103.5 91.0484C103.5 89.9547 103.71 88.9943 104.131 88.167C104.565 87.3397 105.168 86.6947 105.939 86.232C106.725 85.7693 107.629 85.5379 108.653 85.5379C109.662 85.5379 110.532 85.7693 111.261 86.232C111.99 86.6807 112.551 87.2836 112.943 88.0408C113.35 88.798 113.553 89.6322 113.553 90.5436C113.553 90.6839 113.553 90.8381 113.553 91.0064C113.553 91.1606 113.546 91.3359 113.532 91.5322H105.687C105.757 92.4997 106.073 93.2358 106.634 93.7406C107.194 94.2313 107.853 94.4767 108.611 94.4767C109.27 94.4767 109.788 94.3435 110.167 94.0771C110.56 93.7967 110.847 93.4181 111.029 92.9413H113.28C113.027 93.9369 112.502 94.7782 111.702 95.4652C110.903 96.1383 109.88 96.4748 108.632 96.4748ZM108.632 87.4729C107.945 87.4729 107.335 87.6832 106.802 88.1039C106.269 88.5105 105.925 89.0854 105.771 89.8285H111.324C111.268 89.1275 110.994 88.5596 110.504 88.1249C110.013 87.6902 109.389 87.4729 108.632 87.4729ZM121.621 96.2224C120.598 96.2224 119.785 95.977 119.182 95.4863C118.579 94.9815 118.277 94.0911 118.277 92.8152V87.6832H115.648V85.7903H117.205C117.92 85.7903 118.34 85.4398 118.467 84.7387L118.782 83.0561H120.507V85.7903H124.629V87.6832H120.507V92.7731C120.507 93.3199 120.626 93.7055 120.864 93.9299C121.117 94.1402 121.544 94.2454 122.147 94.2454H124.587V96.2224H121.621ZM132.592 96.4748C131.583 96.4748 130.692 96.2505 129.921 95.8018C129.15 95.339 128.547 94.7011 128.112 93.8878C127.678 93.0746 127.46 92.1281 127.46 91.0484C127.46 89.9547 127.671 88.9943 128.091 88.167C128.526 87.3397 129.129 86.6947 129.9 86.232C130.685 85.7693 131.59 85.5379 132.613 85.5379C133.623 85.5379 134.492 85.7693 135.221 86.232C135.95 86.6807 136.511 87.2836 136.904 88.0408C137.31 88.798 137.514 89.6322 137.514 90.5436C137.514 90.6839 137.514 90.8381 137.514 91.0064C137.514 91.1606 137.507 91.3359 137.493 91.5322H129.648C129.718 92.4997 130.033 93.2358 130.594 93.7406C131.155 94.2313 131.814 94.4767 132.571 94.4767C133.23 94.4767 133.749 94.3435 134.128 94.0771C134.52 93.7967 134.808 93.4181 134.99 92.9413H137.24C136.988 93.9369 136.462 94.7782 135.663 95.4652C134.864 96.1383 133.84 96.4748 132.592 96.4748ZM132.592 87.4729C131.905 87.4729 131.295 87.6832 130.762 88.1039C130.23 88.5105 129.886 89.0854 129.732 89.8285H135.284C135.228 89.1275 134.955 88.5596 134.464 88.1249C133.973 87.6902 133.349 87.4729 132.592 87.4729ZM139.567 96.2224V94.2874H143.058V83.7081C143.058 83.2454 142.834 83.014 142.385 83.014H139.861V81.079H142.785C143.598 81.079 144.215 81.2964 144.636 81.7311C145.07 82.1517 145.288 82.7687 145.288 83.5819V94.2874H148.8V96.2224H139.567ZM153.124 100.85L155.606 95.3601H154.996L150.937 85.7903H153.356L156.469 93.4251L159.771 85.7903H162.105L155.48 100.85H153.124ZM179.462 96.4748C178.2 96.4748 177.239 96.0892 176.58 95.318C175.935 94.5328 175.613 93.3971 175.613 91.9108V85.7903H177.842V91.6373C177.842 92.4927 178.024 93.1657 178.389 93.6565C178.768 94.1332 179.343 94.3716 180.114 94.3716C180.885 94.3716 181.53 94.1122 182.049 93.5934C182.567 93.0746 182.827 92.3244 182.827 91.3429V85.7903H185.056V96.2224H183.121L182.932 94.666H182.827C182.546 95.1708 182.112 95.5984 181.523 95.949C180.934 96.2995 180.247 96.4748 179.462 96.4748ZM187.698 96.2224V85.7903H189.633L189.822 87.3467H189.928C190.208 86.8419 190.643 86.4143 191.232 86.0637C191.821 85.7132 192.501 85.5379 193.272 85.5379C194.548 85.5379 195.508 85.9235 196.153 86.6947C196.798 87.4659 197.121 88.6017 197.121 90.102V96.2224H194.891V90.3754C194.891 89.506 194.709 88.833 194.344 88.3563C193.98 87.8795 193.405 87.6412 192.62 87.6412C191.849 87.6412 191.204 87.9006 190.685 88.4194C190.18 88.9382 189.928 89.6883 189.928 90.6698V96.2224H187.698ZM204.137 84.1918C203.647 84.1918 203.233 84.0376 202.896 83.7291C202.574 83.4066 202.413 83.014 202.413 82.5513C202.413 82.0886 202.574 81.703 202.896 81.3945C203.233 81.0861 203.647 80.9318 204.137 80.9318C204.642 80.9318 205.056 81.0861 205.378 81.3945C205.715 81.703 205.883 82.0886 205.883 82.5513C205.883 83.014 205.715 83.4066 205.378 83.7291C205.056 84.0376 204.642 84.1918 204.137 84.1918ZM199.952 96.2224V94.2874H203.233V88.4194C203.233 87.9567 203.009 87.7253 202.56 87.7253H200.246V85.7903H202.96C203.829 85.7903 204.46 85.9936 204.852 86.4003C205.259 86.7929 205.462 87.4238 205.462 88.2932V94.2874H208.743V96.2224H199.952ZM219.104 100.85V94.8763C218.838 95.311 218.459 95.6896 217.969 96.0121C217.478 96.3206 216.826 96.4748 216.012 96.4748C215.157 96.4748 214.372 96.2715 213.657 95.8649C212.956 95.4442 212.395 94.8273 211.974 94.014C211.568 93.2007 211.364 92.1982 211.364 91.0064C211.364 89.8005 211.568 88.798 211.974 87.9987C212.395 87.1855 212.949 86.5755 213.636 86.1689C214.323 85.7482 215.066 85.5379 215.865 85.5379C216.693 85.5379 217.366 85.6992 217.884 86.0217C218.403 86.3301 218.81 86.7508 219.104 87.2836H219.23L219.42 85.7903H221.334V100.85H219.104ZM216.412 94.3505C217.211 94.3505 217.87 94.0701 218.389 93.5092C218.922 92.9484 219.188 92.1141 219.188 91.0064C219.188 89.8846 218.922 89.0503 218.389 88.5035C217.87 87.9426 217.211 87.6622 216.412 87.6622C215.613 87.6622 214.947 87.9356 214.414 88.4825C213.895 89.0293 213.636 89.8636 213.636 90.9853C213.636 92.1071 213.895 92.9484 214.414 93.5092C214.947 94.0701 215.613 94.3505 216.412 94.3505ZM227.383 96.4748C226.121 96.4748 225.16 96.0892 224.501 95.318C223.856 94.5328 223.534 93.3971 223.534 91.9108V85.7903H225.763V91.6373C225.763 92.4927 225.946 93.1657 226.31 93.6565C226.689 94.1332 227.264 94.3716 228.035 94.3716C228.806 94.3716 229.451 94.1122 229.97 93.5934C230.489 93.0746 230.748 92.3244 230.748 91.3429V85.7903H232.977V96.2224H231.042L230.853 94.666H230.748C230.468 95.1708 230.033 95.5984 229.444 95.949C228.855 96.2995 228.168 96.4748 227.383 96.4748ZM240.415 96.4748C239.405 96.4748 238.515 96.2505 237.744 95.8018C236.972 95.339 236.369 94.7011 235.935 93.8878C235.5 93.0746 235.283 92.1281 235.283 91.0484C235.283 89.9547 235.493 88.9943 235.914 88.167C236.348 87.3397 236.951 86.6947 237.723 86.232C238.508 85.7693 239.412 85.5379 240.436 85.5379C241.445 85.5379 242.315 85.7693 243.044 86.232C243.773 86.6807 244.334 87.2836 244.726 88.0408C245.133 88.798 245.336 89.6322 245.336 90.5436C245.336 90.6839 245.336 90.8381 245.336 91.0064C245.336 91.1606 245.329 91.3359 245.315 91.5322H237.47C237.54 92.4997 237.856 93.2358 238.417 93.7406C238.978 94.2313 239.637 94.4767 240.394 94.4767C241.053 94.4767 241.572 94.3435 241.95 94.0771C242.343 93.7967 242.63 93.4181 242.812 92.9413H245.063C244.811 93.9369 244.285 94.7782 243.485 95.4652C242.686 96.1383 241.663 96.4748 240.415 96.4748ZM240.415 87.4729C239.728 87.4729 239.118 87.6832 238.585 88.1039C238.052 88.5105 237.709 89.0854 237.554 89.8285H243.107C243.051 89.1275 242.777 88.5596 242.287 88.1249C241.796 87.6902 241.172 87.4729 240.415 87.4729ZM264.817 96.4748C264.046 96.4748 263.394 96.3206 262.861 96.0121C262.342 95.6896 261.943 95.2479 261.662 94.687H261.536L261.347 96.2224H259.433V81.079H261.662V87.1364C261.915 86.7157 262.314 86.3442 262.861 86.0217C263.408 85.6992 264.06 85.5379 264.817 85.5379C265.686 85.5379 266.465 85.7482 267.152 86.1689C267.839 86.5755 268.379 87.1855 268.771 87.9987C269.178 88.812 269.381 89.8145 269.381 91.0064C269.381 92.1982 269.178 93.2007 268.771 94.014C268.379 94.8273 267.839 95.4442 267.152 95.8649C266.465 96.2715 265.686 96.4748 264.817 96.4748ZM264.354 94.3505C265.154 94.3505 265.813 94.0771 266.331 93.5303C266.864 92.9694 267.131 92.1351 267.131 91.0274C267.131 89.9057 266.864 89.0644 266.331 88.5035C265.813 87.9426 265.154 87.6622 264.354 87.6622C263.555 87.6622 262.889 87.9426 262.356 88.5035C261.837 89.0503 261.578 89.8846 261.578 91.0064C261.578 92.1141 261.837 92.9484 262.356 93.5092C262.889 94.0701 263.555 94.3505 264.354 94.3505ZM275.283 96.4748C274.456 96.4748 273.762 96.3346 273.201 96.0542C272.64 95.7597 272.219 95.3741 271.939 94.8974C271.658 94.4066 271.518 93.8738 271.518 93.2989C271.518 92.2753 271.89 91.4761 272.633 90.9012C273.39 90.3263 274.456 90.0389 275.83 90.0389H278.522V89.8075C278.522 88.2371 277.793 87.4519 276.335 87.4519C275.732 87.4519 275.22 87.5851 274.799 87.8515C274.393 88.1039 274.119 88.5175 273.979 89.0924H271.75C271.862 87.9987 272.331 87.1364 273.159 86.5054C274 85.8604 275.059 85.5379 276.335 85.5379C277.877 85.5379 278.999 85.9165 279.7 86.6737C280.401 87.4308 280.751 88.4755 280.751 89.8075V96.2224H278.858L278.669 94.687H278.522C278.213 95.1778 277.828 95.5984 277.365 95.949C276.902 96.2995 276.208 96.4748 275.283 96.4748ZM275.704 94.6029C276.615 94.6029 277.295 94.3295 277.744 93.7826C278.206 93.2218 278.459 92.5137 278.501 91.6584H276.061C275.262 91.6584 274.694 91.7916 274.358 92.058C274.035 92.3104 273.874 92.6679 273.874 93.1306C273.874 93.5934 274.035 93.9579 274.358 94.2243C274.694 94.4767 275.143 94.6029 275.704 94.6029ZM283.54 96.2224V85.7903H285.475L285.665 87.3467H285.77C286.05 86.8419 286.485 86.4143 287.074 86.0637C287.663 85.7132 288.343 85.5379 289.114 85.5379C290.39 85.5379 291.351 85.9235 291.996 86.6947C292.641 87.4659 292.963 88.6017 292.963 90.102V96.2224H290.734V90.3754C290.734 89.506 290.551 88.833 290.187 88.3563C289.822 87.8795 289.247 87.6412 288.462 87.6412C287.691 87.6412 287.046 87.9006 286.527 88.4194C286.022 88.9382 285.77 89.6883 285.77 90.6698V96.2224H283.54ZM295.521 96.2224V85.7903H297.456L297.645 87.3467H297.75C298.031 86.8419 298.465 86.4143 299.054 86.0637C299.643 85.7132 300.323 85.5379 301.094 85.5379C302.37 85.5379 303.331 85.9235 303.976 86.6947C304.621 87.4659 304.943 88.6017 304.943 90.102V96.2224H302.714V90.3754C302.714 89.506 302.532 88.833 302.167 88.3563C301.802 87.8795 301.228 87.6412 300.442 87.6412C299.671 87.6412 299.026 87.9006 298.507 88.4194C298.003 88.9382 297.75 89.6883 297.75 90.6698V96.2224H295.521ZM308.868 100.85L311.35 95.3601H310.74L306.681 85.7903H309.1L312.212 93.4251L315.514 85.7903H317.849L311.224 100.85H308.868Z" fill="black"/>
</svg>
