<svg width="61" height="11" viewBox="0 0 61 11" fill="none" xmlns="http://www.w3.org/2000/svg">
<path d="M0.173316 10.2163V0.793769H1.57324L5.51724 7.69914V0.793769H6.87678V10.2163H5.47686L1.53285 3.31093V10.2163H0.173316ZM8.23106 10.2163V0.793769H14.248V2.07254H9.6579V4.81854H13.8442V6.08385H9.6579V8.93754H14.248V10.2163H8.23106ZM18.8867 10.3778C18.097 10.3778 17.424 10.1759 16.8676 9.7721C16.3202 9.36828 15.8984 8.80293 15.6023 8.07605C15.3151 7.34019 15.1716 6.48768 15.1716 5.5185C15.1716 4.54035 15.3151 3.68783 15.6023 2.96095C15.8984 2.2251 16.3247 1.65526 16.8811 1.25144C17.4375 0.838639 18.106 0.63224 18.8867 0.63224C19.9008 0.63224 20.7084 0.91043 21.3097 1.46681C21.9109 2.01421 22.2609 2.75904 22.3596 3.7013H20.7847C20.7039 3.20773 20.502 2.79942 20.179 2.47637C19.8649 2.14433 19.4296 1.97832 18.8733 1.97832C18.1643 1.97832 17.6124 2.2924 17.2176 2.92057C16.8227 3.54874 16.6253 4.41472 16.6253 5.5185C16.6253 6.61331 16.8227 7.4748 17.2176 8.10297C17.6124 8.72216 18.1643 9.03176 18.8733 9.03176C19.4476 9.03176 19.8873 8.88369 20.1924 8.58756C20.4975 8.28244 20.695 7.88311 20.7847 7.38955H22.3596C22.216 8.31385 21.8526 9.04522 21.2693 9.58365C20.686 10.1131 19.8918 10.3778 18.8867 10.3778ZM23.512 10.2163V0.793769H24.9388V5.10122L28.2771 0.793769H30.0404L26.3522 5.46466V5.54542L30.1212 10.2163H28.3175L24.9388 5.98963V10.2163H23.512ZM31.2467 10.2163V0.793769H32.6735V8.93754H37.3175V10.2163H31.2467ZM38.2006 10.2163L41.0139 0.793769H42.71L45.5233 10.2163H43.9753L43.3426 7.9549H40.3813L39.7486 10.2163H38.2006ZM41.8216 2.81289L40.7043 6.81073H43.0196L41.9023 2.81289H41.8216ZM49.5562 10.3778C48.7666 10.3778 48.0935 10.1759 47.5371 9.7721C46.9897 9.36828 46.568 8.80293 46.2718 8.07605C45.9847 7.34019 45.8411 6.48768 45.8411 5.5185C45.8411 4.54035 45.9847 3.68783 46.2718 2.96095C46.568 2.2251 46.9942 1.65526 47.5506 1.25144C48.107 0.838639 48.7755 0.63224 49.5562 0.63224C50.5703 0.63224 51.3779 0.91043 51.9792 1.46681C52.5804 2.01421 52.9304 2.75904 53.0291 3.7013H51.4542C51.3735 3.20773 51.1715 2.79942 50.8485 2.47637C50.5344 2.14433 50.0992 1.97832 49.5428 1.97832C48.8339 1.97832 48.282 2.2924 47.8871 2.92057C47.4923 3.54874 47.2948 4.41472 47.2948 5.5185C47.2948 6.61331 47.4923 7.4748 47.8871 8.10297C48.282 8.72216 48.8339 9.03176 49.5428 9.03176C50.1171 9.03176 50.5568 8.88369 50.8619 8.58756C51.1671 8.28244 51.3645 7.88311 51.4542 7.38955H53.0291C52.8855 8.31385 52.5221 9.04522 51.9388 9.58365C51.3555 10.1131 50.5613 10.3778 49.5562 10.3778ZM54.2353 10.2163V0.793769H60.2523V2.07254H55.6622V4.81854H59.8485V6.08385H55.6622V8.93754H60.2523V10.2163H54.2353Z" fill="white"/>
</svg>
