<svg width="54" height="11" viewBox="0 0 54 11" fill="none" xmlns="http://www.w3.org/2000/svg">
<path d="M4.04812 10.3692C3.28534 10.3692 2.62576 10.1717 2.06939 9.7769C1.51301 9.38205 1.08675 8.82118 0.790612 8.0943C0.494475 7.36742 0.346407 6.50144 0.346407 5.49637C0.346407 4.4913 0.494475 3.62532 0.790612 2.89844C1.08675 2.17156 1.51301 1.6107 2.06939 1.21585C2.62576 0.820998 3.28534 0.623573 4.04812 0.623573C4.81987 0.623573 5.47945 0.820998 6.02685 1.21585C6.58323 1.6107 7.00949 2.17156 7.30563 2.89844C7.60176 3.62532 7.74983 4.4913 7.74983 5.49637C7.74983 6.50144 7.60176 7.36742 7.30563 8.0943C7.00949 8.82118 6.58323 9.38205 6.02685 9.7769C5.47945 10.1717 4.81987 10.3692 4.04812 10.3692ZM4.04812 9.02309C4.72116 9.02309 5.26408 8.72247 5.67687 8.12122C6.08967 7.511 6.29607 6.63605 6.29607 5.49637C6.29607 4.35669 6.08967 3.48623 5.67687 2.88498C5.26408 2.27476 4.72116 1.96965 4.04812 1.96965C3.36611 1.96965 2.8187 2.27476 2.4059 2.88498C2.00208 3.48623 1.80017 4.35669 1.80017 5.49637C1.80017 6.63605 2.00208 7.511 2.4059 8.12122C2.8187 8.72247 3.36611 9.02309 4.04812 9.02309ZM8.43107 10.2076V0.785102H11.7963C12.7744 0.785102 13.5148 1.00945 14.0173 1.45814C14.5198 1.90683 14.7711 2.48565 14.7711 3.19458C14.7711 3.74199 14.6275 4.18619 14.3403 4.5272C14.0532 4.8682 13.7212 5.11498 13.3443 5.26754V5.36176C13.7929 5.52329 14.1788 5.78802 14.5019 6.15595C14.8249 6.5149 14.9865 6.99052 14.9865 7.58279C14.9865 8.06738 14.8653 8.51158 14.623 8.91541C14.3897 9.31026 14.0442 9.62434 13.5865 9.85766C13.1289 10.091 12.568 10.2076 11.9039 10.2076H8.43107ZM9.85791 4.71565H11.6213C12.1687 4.71565 12.586 4.60796 12.8731 4.39259C13.1603 4.16824 13.3039 3.83172 13.3039 3.38303C13.3039 2.49462 12.734 2.05042 11.5944 2.05042H9.85791V4.71565ZM9.85791 8.88849H11.7155C12.2988 8.88849 12.7475 8.76285 13.0616 8.51158C13.3757 8.26032 13.5327 7.89239 13.5327 7.4078C13.5327 6.93219 13.3667 6.56875 13.0347 6.31748C12.7026 6.05724 12.2539 5.92712 11.6886 5.92712H9.85791V8.88849ZM19.504 10.3692C18.5349 10.3692 17.79 10.1 17.2695 9.56152C16.7491 9.01412 16.4888 8.2648 16.4888 7.31358H17.9291C17.9381 7.80714 18.0637 8.22442 18.306 8.56543C18.5483 8.90643 18.9432 9.07694 19.4906 9.07694C20.02 9.07694 20.3969 8.91092 20.6213 8.57889C20.8546 8.24686 20.9713 7.83406 20.9713 7.3405V0.785102H22.3981V7.3405C22.3981 8.30967 22.1423 9.05899 21.6308 9.58845C21.1193 10.1089 20.4104 10.3692 19.504 10.3692ZM24.0889 10.2076V0.785102H30.1059V2.06388H25.5157V4.80987H29.702V6.07519H25.5157V8.92887H30.1059V10.2076H24.0889ZM34.7446 10.3692C33.9549 10.3692 33.2818 10.1673 32.7254 9.76344C32.178 9.35961 31.7563 8.79426 31.4601 8.06738C31.173 7.33152 31.0294 6.47901 31.0294 5.50983C31.0294 4.53168 31.173 3.67917 31.4601 2.95229C31.7563 2.21643 32.1825 1.64659 32.7389 1.24277C33.2953 0.829972 33.9638 0.623573 34.7446 0.623573C35.7586 0.623573 36.5663 0.901763 37.1675 1.45814C37.7687 2.00555 38.1187 2.75037 38.2174 3.69263H36.6425C36.5618 3.19907 36.3599 2.79076 36.0368 2.4677C35.7227 2.13567 35.2875 1.96965 34.7311 1.96965C34.0222 1.96965 33.4703 2.28373 33.0754 2.9119C32.6806 3.54007 32.4832 4.40605 32.4832 5.50983C32.4832 6.60464 32.6806 7.46613 33.0754 8.0943C33.4703 8.7135 34.0222 9.02309 34.7311 9.02309C35.3054 9.02309 35.7451 8.87503 36.0503 8.57889C36.3554 8.27378 36.5528 7.87444 36.6425 7.38088H38.2174C38.0739 8.30519 37.7104 9.03655 37.1271 9.57499C36.5438 10.1044 35.7496 10.3692 34.7446 10.3692ZM41.6716 10.2076V2.06388H39.141V0.785102H45.6291V2.06388H43.0984V10.2076H41.6716ZM50.1466 10.3692C49.4826 10.3692 48.8993 10.248 48.3967 10.0057C47.9032 9.76344 47.5128 9.41794 47.2256 8.96925C46.9474 8.52056 46.8039 7.98661 46.7949 7.36742H48.3025C48.3115 7.84303 48.473 8.25134 48.7871 8.59235C49.1101 8.92438 49.5588 9.0904 50.1332 9.0904C50.6626 9.0904 51.0754 8.96925 51.3716 8.72696C51.6677 8.47569 51.8158 8.15263 51.8158 7.75778C51.8158 7.42575 51.726 7.15205 51.5465 6.93667C51.376 6.71233 51.1068 6.5149 50.7389 6.3444C50.371 6.16492 49.8954 5.98096 49.3121 5.79251C48.5313 5.54124 47.957 5.19575 47.5891 4.75603C47.2212 4.30734 47.0372 3.75993 47.0372 3.11382C47.0372 2.36899 47.3064 1.76774 47.8448 1.31007C48.3833 0.852407 49.1236 0.623573 50.0659 0.623573C50.9812 0.623573 51.717 0.86138 52.2734 1.33699C52.8298 1.80363 53.117 2.45424 53.1349 3.28881H51.6138C51.6138 3.06446 51.551 2.84909 51.4254 2.64269C51.2998 2.42732 51.1203 2.25233 50.887 2.11772C50.6536 1.97414 50.3665 1.90235 50.0255 1.90235C49.6037 1.89337 49.2492 1.99657 48.9621 2.21194C48.6749 2.41834 48.5313 2.70102 48.5313 3.05997C48.5313 3.49969 48.7063 3.84518 49.0563 4.09645C49.4063 4.33875 49.9761 4.59001 50.7658 4.85025C51.2594 5.01178 51.6946 5.20921 52.0715 5.44253C52.4574 5.66688 52.758 5.95853 52.9734 6.31748C53.1977 6.66746 53.3099 7.11615 53.3099 7.66356C53.3099 8.16609 53.1843 8.62376 52.933 9.03655C52.6817 9.44038 52.3183 9.76344 51.8427 10.0057C51.376 10.248 50.8107 10.3692 50.1466 10.3692Z" fill="white"/>
</svg>
