<svg width="46" height="10" viewBox="0 0 46 10" fill="none" xmlns="http://www.w3.org/2000/svg">
<path d="M4.09536 9.79373C3.33258 9.79373 2.67301 9.59631 2.11663 9.20146C1.56025 8.80661 1.13399 8.24574 0.837854 7.51886C0.541717 6.79198 0.393648 5.926 0.393648 4.92093C0.393648 3.91586 0.541717 3.04989 0.837854 2.323C1.13399 1.59612 1.56025 1.03526 2.11663 0.640407C2.67301 0.245558 3.33258 0.048134 4.09536 0.048134C4.86711 0.048134 5.52669 0.245558 6.07409 0.640407C6.63047 1.03526 7.05673 1.59612 7.35287 2.323C7.649 3.04989 7.79707 3.91586 7.79707 4.92093C7.79707 5.926 7.649 6.79198 7.35287 7.51886C7.05673 8.24574 6.63047 8.80661 6.07409 9.20146C5.52669 9.59631 4.86711 9.79373 4.09536 9.79373ZM4.09536 8.44765C4.7684 8.44765 5.31132 8.14703 5.72411 7.54578C6.13691 6.93556 6.34331 6.06061 6.34331 4.92093C6.34331 3.78125 6.13691 2.91079 5.72411 2.30954C5.31132 1.69932 4.7684 1.39421 4.09536 1.39421C3.41335 1.39421 2.86594 1.69932 2.45315 2.30954C2.04932 2.91079 1.84741 3.78125 1.84741 4.92093C1.84741 6.06061 2.04932 6.93556 2.45315 7.54578C2.86594 8.14703 3.41335 8.44765 4.09536 8.44765ZM11.7358 9.79373C11.0987 9.79373 10.5288 9.66361 10.0263 9.40337C9.53274 9.14313 9.14238 8.74828 8.85521 8.21882C8.56805 7.68039 8.42447 7.00287 8.42447 6.18624V0.209663H9.85131V6.26701C9.85131 6.98492 10.0218 7.5413 10.3628 7.93615C10.7038 8.32202 11.1705 8.51496 11.7627 8.51496C12.355 8.51496 12.8217 8.32202 13.1627 7.93615C13.5037 7.5413 13.6742 6.98492 13.6742 6.26701V0.209663H15.101V6.18624C15.101 7.00287 14.9529 7.68039 14.6568 8.21882C14.3607 8.74828 13.9568 9.14313 13.4453 9.40337C12.9428 9.66361 12.373 9.79373 11.7358 9.79373ZM18.7167 9.6322V1.48844H16.1861V0.209663H22.6742V1.48844H20.1435V9.6322H18.7167ZM24.19 9.6322V0.209663H30.2339V1.54228H25.6168V4.42288H29.4935V5.67474H25.6168V9.6322H24.19ZM32.0054 9.6322V8.36689H34.0515V1.47498H32.0323V0.209663H37.4974V1.47498H35.4783V8.36689H37.5243V9.6322H32.0054ZM41.7188 9.6322V1.48844H39.1882V0.209663H45.6763V1.48844H43.1457V9.6322H41.7188Z" fill="white"/>
</svg>
