<svg width="119" height="16" viewBox="0 0 119 16" fill="none" xmlns="http://www.w3.org/2000/svg">
<path d="M6.20776 15.7255C5.17016 15.7255 4.25875 15.5362 3.47354 15.1577C2.70235 14.7791 2.09241 14.2392 1.64371 13.5382C1.20904 12.8371 0.984698 12.0028 0.970676 11.0353H3.32631C3.34033 11.7784 3.59272 12.4164 4.08348 12.9492C4.58826 13.4681 5.28934 13.7275 6.18673 13.7275C7.014 13.7275 7.659 13.5382 8.12171 13.1596C8.58443 12.767 8.81578 12.2622 8.81578 11.6452C8.81578 11.1264 8.67557 10.6988 8.39513 10.3623C8.12872 10.0117 7.70807 9.70324 7.13319 9.43683C6.5583 9.1564 5.81515 8.86895 4.90375 8.5745C3.68386 8.18189 2.78648 7.64206 2.21159 6.955C1.6367 6.25392 1.34926 5.3986 1.34926 4.38904C1.34926 3.22524 1.76991 2.28579 2.61121 1.57069C3.45251 0.855588 4.60929 0.498036 6.08156 0.498036C7.51177 0.498036 8.66154 0.869609 9.53089 1.61276C10.4002 2.34188 10.8489 3.35845 10.877 4.66246H8.5003C8.5003 4.31192 8.40214 3.9754 8.20584 3.6529C8.00954 3.31638 7.72911 3.04296 7.36454 2.83264C6.99998 2.60829 6.55129 2.49612 6.01847 2.49612C5.35945 2.4821 4.80559 2.64335 4.3569 2.97987C3.90821 3.30236 3.68386 3.74404 3.68386 4.30491C3.68386 4.99197 3.95728 5.5318 4.50413 5.92441C5.05097 6.30299 5.94135 6.6956 7.17525 7.10223C7.94644 7.35462 8.62649 7.66309 9.2154 8.02766C9.81833 8.3782 10.2881 8.8339 10.6246 9.39476C10.9751 9.94161 11.1504 10.6427 11.1504 11.498C11.1504 12.2832 10.9541 12.9983 10.5615 13.6433C10.1689 14.2743 9.60099 14.7791 8.85785 15.1577C8.12872 15.5362 7.24536 15.7255 6.20776 15.7255ZM19.1766 15.4731C18.153 15.4731 17.3397 15.2278 16.7368 14.737C16.1339 14.2322 15.8324 13.3419 15.8324 12.0659V6.93397H13.2033V5.04105H14.7598C15.4749 5.04105 15.8955 4.69051 16.0217 3.98942L16.3372 2.30683H18.0618V5.04105H22.1842V6.93397H18.0618V12.0238C18.0618 12.5707 18.181 12.9563 18.4194 13.1806C18.6718 13.3909 19.0994 13.4961 19.7024 13.4961H22.1421V15.4731H19.1766ZM29.0746 15.7255C28.2474 15.7255 27.5533 15.5853 26.9924 15.3049C26.4316 15.0104 26.0109 14.6248 25.7305 14.1481C25.45 13.6573 25.3098 13.1245 25.3098 12.5496C25.3098 11.5261 25.6814 10.7268 26.4245 10.1519C27.1817 9.57705 28.2474 9.2896 29.6215 9.2896H32.3136V9.05825C32.3136 7.48782 31.5845 6.70261 30.1263 6.70261C29.5233 6.70261 29.0115 6.83582 28.5909 7.10223C28.1843 7.35462 27.9108 7.76825 27.7706 8.34314H25.5412C25.6534 7.24945 26.1231 6.38712 26.9504 5.75615C27.7917 5.11115 28.8503 4.78866 30.1263 4.78866C31.6686 4.78866 32.7904 5.16724 33.4915 5.92441C34.1925 6.68158 34.5431 7.72619 34.5431 9.05825V15.4731H32.6502L32.4609 13.9378H32.3136C32.0052 14.4285 31.6196 14.8492 31.1569 15.1997C30.6941 15.5503 30.0001 15.7255 29.0746 15.7255ZM29.4953 13.8536C30.4067 13.8536 31.0867 13.5802 31.5354 13.0334C31.9981 12.4725 32.2505 11.7644 32.2926 10.9091H29.8528C29.0536 10.9091 28.4857 11.0423 28.1492 11.3087C27.8267 11.5611 27.6655 11.9187 27.6655 12.3814C27.6655 12.8441 27.8267 13.2087 28.1492 13.4751C28.4857 13.7275 28.9344 13.8536 29.4953 13.8536ZM37.3111 15.4731V13.5382H39.8561V7.6701C39.8561 7.20739 39.6317 6.97603 39.183 6.97603H37.5215V5.04105H40.0243C40.5992 5.04105 41.0689 5.20931 41.4335 5.54582C41.7981 5.86832 41.9804 6.32403 41.9804 6.91294V7.16532H42.0855C42.2398 6.38011 42.5693 5.7912 43.074 5.3986C43.5928 4.99197 44.343 4.78866 45.3245 4.78866H46.944V7.14429H44.6725C43.8452 7.14429 43.2072 7.43174 42.7586 8.00662C42.3099 8.58151 42.0855 9.26857 42.0855 10.0678V13.5382H45.3245V15.4731H37.3111ZM55.1174 15.4731C54.0938 15.4731 53.2806 15.2278 52.6777 14.737C52.0747 14.2322 51.7733 13.3419 51.7733 12.0659V6.93397H49.1442V5.04105H50.7006C51.4157 5.04105 51.8364 4.69051 51.9625 3.98942L52.278 2.30683H54.0027V5.04105H58.1251V6.93397H54.0027V12.0238C54.0027 12.5707 54.1219 12.9563 54.3602 13.1806C54.6126 13.3909 55.0403 13.4961 55.6432 13.4961H58.083V15.4731H55.1174ZM73.1679 15.4731V0.329776H75.3973V6.59745C75.6777 6.07865 76.1264 5.65099 76.7434 5.31447C77.3603 4.96393 78.0544 4.78866 78.8256 4.78866C80.1156 4.78866 81.0971 5.18126 81.7701 5.96647C82.4432 6.73766 82.7797 7.85238 82.7797 9.31063V15.4731H80.5503V9.62612C80.5503 8.75678 80.3399 8.08374 79.9193 7.60701C79.4986 7.13027 78.9167 6.8919 78.1736 6.8919C77.4024 6.8919 76.7434 7.1513 76.1965 7.6701C75.6637 8.1889 75.3973 8.93906 75.3973 9.92058V15.4731H73.1679ZM90.0487 15.7255C89.0392 15.7255 88.1488 15.5012 87.3776 15.0525C86.6064 14.5898 86.0035 13.9518 85.5688 13.1385C85.1341 12.3253 84.9168 11.3788 84.9168 10.2992C84.9168 9.20547 85.1271 8.24499 85.5478 7.41771C85.9824 6.59044 86.5854 5.94544 87.3566 5.48273C88.1418 5.02001 89.0462 4.78866 90.0697 4.78866C91.0793 4.78866 91.9486 5.02001 92.6778 5.48273C93.4069 5.93142 93.9678 6.53435 94.3604 7.29152C94.767 8.04869 94.9703 8.88297 94.9703 9.79438C94.9703 9.9346 94.9703 10.0888 94.9703 10.2571C94.9703 10.4113 94.9633 10.5866 94.9493 10.7829H87.1042C87.1743 11.7504 87.4898 12.4865 88.0506 12.9913C88.6115 13.4821 89.2705 13.7275 90.0277 13.7275C90.6867 13.7275 91.2055 13.5942 91.5841 13.3278C91.9767 13.0474 92.2641 12.6688 92.4464 12.1921H94.6969C94.4445 13.1876 93.9187 14.0289 93.1194 14.716C92.3202 15.389 91.2966 15.7255 90.0487 15.7255ZM90.0487 6.72364C89.3616 6.72364 88.7517 6.93397 88.2189 7.35462C87.6861 7.76124 87.3425 8.33613 87.1883 9.07928H92.7409C92.6848 8.3782 92.4114 7.81032 91.9206 7.37565C91.4298 6.94098 90.8059 6.72364 90.0487 6.72364ZM97.2126 15.4731V13.5382H99.7575V7.6701C99.7575 7.20739 99.5331 6.97603 99.0845 6.97603H97.4229V5.04105H99.9257C100.501 5.04105 100.97 5.20931 101.335 5.54582C101.699 5.86832 101.882 6.32403 101.882 6.91294V7.16532H101.987C102.141 6.38011 102.471 5.7912 102.975 5.3986C103.494 4.99197 104.244 4.78866 105.226 4.78866H106.845V7.14429H104.574C103.747 7.14429 103.109 7.43174 102.66 8.00662C102.211 8.58151 101.987 9.26857 101.987 10.0678V13.5382H105.226V15.4731H97.2126ZM114.009 15.7255C113 15.7255 112.109 15.5012 111.338 15.0525C110.567 14.5898 109.964 13.9518 109.529 13.1385C109.095 12.3253 108.877 11.3788 108.877 10.2992C108.877 9.20547 109.088 8.24499 109.508 7.41771C109.943 6.59044 110.546 5.94544 111.317 5.48273C112.102 5.02001 113.007 4.78866 114.03 4.78866C115.04 4.78866 115.909 5.02001 116.638 5.48273C117.367 5.93142 117.928 6.53435 118.321 7.29152C118.728 8.04869 118.931 8.88297 118.931 9.79438C118.931 9.9346 118.931 10.0888 118.931 10.2571C118.931 10.4113 118.924 10.5866 118.91 10.7829H111.065C111.135 11.7504 111.45 12.4865 112.011 12.9913C112.572 13.4821 113.231 13.7275 113.988 13.7275C114.647 13.7275 115.166 13.5942 115.545 13.3278C115.937 13.0474 116.225 12.6688 116.407 12.1921H118.657C118.405 13.1876 117.879 14.0289 117.08 14.716C116.281 15.389 115.257 15.7255 114.009 15.7255ZM114.009 6.72364C113.322 6.72364 112.712 6.93397 112.179 7.35462C111.647 7.76124 111.303 8.33613 111.149 9.07928H116.701C116.645 8.3782 116.372 7.81032 115.881 7.37565C115.39 6.94098 114.766 6.72364 114.009 6.72364Z" fill="black"/>
</svg>
