<svg width="25" height="50" viewBox="0 0 25 50" fill="none" xmlns="http://www.w3.org/2000/svg">
<g clip-path="url(#clip0_352_2491)">
<path d="M5.99366 45.074V43.9655C5.62736 43.9478 5.25996 43.9638 4.88485 43.9555V42.8922H3.81674V41.7732H4.87825V40.7252C4.903 40.7004 4.91895 40.6839 4.9437 40.6597H7.05793V39.5875H8.10404L8.16949 39.522V37.3578H8.681V36.285H7.62113V35.1737H5.44366C5.42551 35.5315 5.44531 35.8997 5.43321 36.2751H3.25903V37.3919H2.18817V36.2834H1.12611V34.1043C0.767501 34.0834 0.414947 34.1043 0.0601926 34.0922C0.0403923 34.0586 0.017842 34.0289 0.00464188 33.9953C-0.00305821 33.9755 0.00299186 33.9496 0.00299186 33.9259V29.679H1.11566V28.5677H2.17827C2.19587 28.2083 2.17827 27.8554 2.18872 27.4955H3.25408V26.7519C3.25408 26.6665 3.24913 26.5807 3.25628 26.4965C3.25958 26.4557 3.28653 26.4167 3.30413 26.3737H4.36894V24.1864C4.7248 24.1864 5.0812 24.1864 5.44091 24.1831C5.44476 26.0138 5.44476 27.8411 5.44476 29.6762H6.55302V31.8646H7.62333V32.9836H8.68595V34.0234L8.7481 34.0856H10.3162V29.1819C10.3453 29.155 10.3673 29.1346 10.3987 29.1054H11.4354V28.0514H12.498V29.117C12.8231 29.117 13.1322 29.1175 13.4408 29.1164C13.5035 29.1164 13.5651 29.1115 13.6173 29.2089V34.0399H16.3041C16.3041 33.692 16.3041 33.3519 16.3041 33.0117C16.3041 33.0051 16.3085 32.9979 16.3129 32.9924C16.3173 32.9864 16.3239 32.9825 16.3409 32.9688H17.375V31.8569H18.4453V29.6685H19.5618V24.1858C19.9088 24.1858 20.2482 24.1858 20.5875 24.1858C20.5941 24.1858 20.6013 24.182 20.6073 24.1776C20.6134 24.1732 20.6178 24.1666 20.6139 24.171V22.5632H19.6052V23.6002L19.5233 23.6822H18.4854V24.1792C14.1299 24.1792 9.78321 24.1792 5.43981 24.1825C5.43596 23.8319 5.43596 23.478 5.43596 23.1164C5.0812 23.1164 4.7424 23.1164 4.40305 23.1164C4.39645 23.1164 4.38875 23.1202 4.38324 23.1241C4.37719 23.1285 4.3728 23.1351 4.36729 23.1406V24.1858H3.27608C3.24033 23.9778 3.22603 17.3728 3.26013 16.5103H4.36674V19.8134C5.0933 19.8134 5.80391 19.8134 6.51452 19.8134C6.52112 19.8134 6.52827 19.8172 6.53432 19.8216C6.54037 19.826 6.54477 19.8326 6.55852 19.848V20.8768C7.76084 20.9147 18.2654 20.8982 18.4937 20.857V19.8128C18.7489 19.8128 18.9958 19.8051 19.2422 19.815C19.4859 19.8244 19.7207 19.7435 19.966 19.7627C20.18 19.7792 20.3956 19.766 20.6106 19.766V16.5037H19.5464V12.1296H18.5008L18.4359 12.0647V8.83044H17.3662V6.64201H16.2958V5.53127C15.9482 5.53127 15.6094 5.53127 15.2701 5.53127C15.2635 5.53127 15.2558 5.53513 15.2503 5.53898C15.2442 5.54338 15.2398 5.54999 15.2261 5.5654V6.59632H9.79861V5.53072C9.46586 5.53072 9.14905 5.52907 8.8328 5.53237C8.78495 5.53237 8.73765 5.55769 8.6865 5.572C8.6865 5.91546 8.6865 6.23965 8.6865 6.56385C8.6865 6.57045 8.6832 6.57816 8.67935 6.58421C8.6755 6.59082 8.6689 6.59577 8.6645 6.60072H7.61838V5.48449C7.96929 5.48339 8.32129 5.48449 8.68045 5.48394V3.37476L8.7624 3.29275H9.80026V2.23651H10.8629V1.11807H11.937V0.280892C11.937 0.218696 11.9304 0.155949 11.9398 0.0954033C11.9447 0.0623786 11.975 0.0326563 11.9942 0.000732422H13.0447V1.10761H14.1156V2.1556L14.1811 2.2211H15.2338C15.2343 2.58106 15.2338 2.93333 15.2338 3.2933H16.2975V5.48229H17.3436L17.4091 5.54779V6.59577H18.4799V8.78476H19.5502V12.0823H20.6315C20.6475 12.096 20.6546 12.1004 20.659 12.1065C20.6634 12.112 20.6673 12.1192 20.6673 12.1258C20.6673 13.5822 20.6673 15.0385 20.6673 16.5026H21.7239V24.1798H20.6777V26.3688H21.7327V27.4878H22.8415V28.5589C22.9619 28.5589 23.0752 28.5589 23.188 28.5589C23.2963 28.5589 23.4047 28.5589 23.513 28.5589H23.8386C23.9244 28.6046 23.9184 28.6667 23.9184 28.7295C23.9173 29.0388 23.9184 29.3482 23.9184 29.6663H24.959C24.9991 29.8716 25.0129 33.2434 24.9788 34.0867H23.925V35.7175H22.8541V36.7655C22.8211 36.7985 22.8052 36.815 22.7843 36.8354H21.742V35.7285H19.5568V34.6624H17.4184V36.2085L17.353 36.274H16.3123V37.3467H16.7853C16.8101 37.3715 16.8266 37.388 16.859 37.4205V39.5836H15.7442C15.7442 38.856 15.7442 38.1437 15.7442 37.4321C15.7442 37.4255 15.7403 37.4183 15.7359 37.4122C15.7315 37.4062 15.7249 37.4018 15.7288 37.4056H13.6069V40.7015H12.5371V41.76H11.4206V40.6944H10.3046V37.4084H9.2354V39.5803C8.8768 39.5919 8.52479 39.5726 8.16619 39.5919V40.7015H7.10413V41.7732H4.9338V42.8448H7.04143C7.06563 42.869 7.08213 42.8855 7.09863 42.9021C7.12613 43.5053 7.11623 44.883 7.08268 45.0734H5.99201L5.99366 45.074Z" fill="white"/>
<path d="M20.112 42.8882H21.156C21.1928 43.0913 21.2049 45.2935 21.1736 46.1824H20.1467C20.1313 46.1962 20.1247 46.2 20.1203 46.2061C20.1164 46.2116 20.112 46.2193 20.112 46.2259C20.112 46.5655 20.112 46.9056 20.112 47.253H19.0445C19.0423 47.6124 19.0445 47.9646 19.0434 48.3081L18.9779 48.3736H17.9324V49.4447H16.8626V50.0012H15.7543V48.9449C15.3957 48.9235 15.0443 48.9449 14.678 48.9317V47.8188H15.7928C15.7928 48.1743 15.7928 48.5139 15.7928 48.8541C15.7928 48.8607 15.7967 48.8679 15.8011 48.8739C15.8055 48.88 15.8121 48.8844 15.8082 48.8805H16.8626V47.259H17.9236V46.7455H16.867V45.5918H17.9082C17.9318 45.6138 17.9544 45.6353 17.9841 45.6628V46.14H20.112V42.8882Z" fill="white"/>
<path d="M9.24455 47.8186V48.9117C9.05479 48.9442 7.12647 48.9546 6.55721 48.926V47.8296H4.96275C4.93195 47.8004 4.90995 47.7795 4.88354 47.7547V45.0742H5.99346V46.7067H7.62203V47.8186H9.24455Z" fill="white"/>
<path d="M14.6777 47.8185H13.6129C13.6052 48.1691 13.6129 48.5208 13.6085 48.883C13.5689 48.9006 13.531 48.9259 13.4903 48.9325C13.4375 48.9413 13.3825 48.9347 13.3286 48.9347H10.3794C10.3624 48.9149 10.3426 48.8913 10.3118 48.8549V47.818H9.24475V46.7017C9.61491 46.7017 9.96911 46.7017 10.3239 46.7017C10.3305 46.7017 10.3382 46.7056 10.3437 46.7094C10.3497 46.7138 10.3541 46.7204 10.3673 46.7347V47.8108C11.1412 47.8405 13.3605 47.829 13.5717 47.7932V46.7012C13.9341 46.7012 14.2883 46.7012 14.6431 46.7012C14.6497 46.7012 14.6574 46.705 14.6629 46.7089C14.6689 46.7133 14.6733 46.7199 14.6783 46.7254V47.8174L14.6777 47.8185Z" fill="white"/>
<path d="M4.36804 16.5111V12.0918H5.43616V16.5111H4.36804Z" fill="white"/>
<path d="M5.43628 12.0918V8.78882H6.55114V12.0918H5.43628Z" fill="white"/>
<path d="M16.8608 39.584H17.9279C17.9301 39.9357 17.9279 40.288 17.9295 40.6479H18.9679C18.9976 40.6782 19.0196 40.6997 19.0499 40.7299V41.7697H20.1119V42.887H18.9916V41.7658H17.9257V40.698H16.8608V39.584Z" fill="white"/>
<path d="M6.55029 8.78902V6.60278H7.61841V8.78902H6.55029Z" fill="white"/>
<path d="M16.3038 15.3941V16.5021C15.954 16.5219 15.6025 16.5021 15.2439 16.5136V17.571C14.8858 17.5919 14.5338 17.571 14.1928 17.5831C14.1197 17.6238 14.1197 17.6833 14.1202 17.7477C14.1224 18.057 14.1213 18.3663 14.1213 18.6861H10.8779V17.5825C10.5199 17.5765 10.1684 17.5825 9.80212 17.5792V16.5103H10.9159C10.9192 16.8769 10.9137 17.2292 10.9192 17.5737H14.1191V16.5401L14.1978 16.4559H15.19C15.19 16.108 15.19 15.7684 15.19 15.4288C15.19 15.4222 15.1938 15.415 15.1982 15.409C15.2026 15.4029 15.2092 15.3985 15.2147 15.3936H16.3043L16.3038 15.3941Z" fill="white"/>
<path d="M15.2357 9.90552H16.295C16.3159 10.2561 16.295 10.6084 16.3066 10.9563C16.3929 11.0245 16.4886 11.024 16.5871 11.0229C16.8571 11.0201 17.1277 11.0218 17.4082 11.0218V15.3948H16.3038V11.024C15.9381 11.0174 15.5861 11.0284 15.2357 11.0174V9.90552Z" fill="white"/>
<path d="M9.80155 16.5107H8.68944C8.68339 16.1442 8.68944 15.7765 8.68614 15.4017H7.63013V11.0215H8.68724C8.68724 11.2692 8.69659 11.5174 8.68449 11.7645C8.67239 12.0089 8.74169 12.244 8.73839 12.4889C8.72574 13.3795 8.73344 14.27 8.73344 15.1606V15.3907C9.09974 15.4033 9.45175 15.3824 9.80155 15.4028V16.5107Z" fill="white"/>
<path d="M10.8698 8.7885V7.74272C11.0716 7.70639 13.2513 7.69428 14.112 7.7251V8.75437C14.1258 8.76924 14.1296 8.77584 14.1357 8.78024C14.1412 8.7841 14.1489 8.78795 14.1555 8.78795C14.5102 8.78795 14.865 8.78795 15.2352 8.78795V9.90419H14.123C14.1131 9.53761 14.1313 9.1848 14.112 8.83419H13.2848C13.0142 8.83419 12.7431 8.82097 12.4736 8.83804C12.2057 8.85455 11.9467 8.783 11.681 8.78685C11.4104 8.7907 11.1398 8.78795 10.8698 8.78795V8.7885Z" fill="white"/>
<path d="M8.68726 11.0218V9.90552H9.80212V11.0218H8.68726Z" fill="white"/>
<path d="M9.80139 9.90506V8.78882H10.8695V9.90506H9.80139Z" fill="white"/>
<path d="M11.4351 45.0724H10.3186V44.009H9.25049V41.7809H10.867V42.8317H13.051V41.7793H14.6548C14.6884 41.9631 14.6988 43.3232 14.6697 43.9964H13.6159V45.068H12.5412C12.5412 45.1352 12.5445 45.1946 12.5412 45.2535C12.5225 45.5474 12.5016 45.8413 12.4812 46.1391H11.4351V45.0724Z" fill="white"/>
</g>
<defs>
<clipPath id="clip0_352_2491">
<rect width="25" height="50" fill="white"/>
</clipPath>
</defs>
</svg>
