<svg id="svg" version="1.1" xmlns="http://www.w3.org/2000/svg" xmlns:xlink="http://www.w3.org/1999/xlink" width="400" height="400" viewBox="0, 0, 400,400"><g id="svgg"><path id="path0" d="M240.000 235.000 L 240.000 236.800 238.400 236.800 L 236.800 236.800 236.800 238.400 L 236.800 240.000 241.800 240.000 L 246.800 240.000 246.800 238.400 L 246.800 236.800 251.800 236.800 L 256.800 236.800 256.800 235.000 L 256.800 233.200 248.400 233.200 L 240.000 233.200 240.000 235.000 M176.800 238.400 L 176.800 240.000 205.000 240.000 L 233.200 240.000 233.200 238.400 L 233.200 236.800 205.000 236.800 L 176.800 236.800 176.800 238.400 M293.200 238.400 L 293.200 240.000 305.000 240.000 L 316.800 240.000 316.800 238.400 L 316.800 236.800 305.000 236.800 L 293.200 236.800 293.200 238.400 M176.800 248.200 L 176.800 253.200 180.000 253.200 L 183.200 253.200 183.200 251.600 L 183.200 250.000 185.000 250.000 L 186.800 250.000 186.800 248.400 L 186.800 246.800 216.800 246.800 L 246.800 246.800 246.800 245.000 L 246.800 243.200 211.800 243.200 L 176.800 243.200 176.800 248.200 M220.000 255.000 L 220.000 256.800 221.600 256.800 L 223.200 256.800 223.200 261.800 L 223.200 266.800 225.000 266.800 L 226.800 266.800 226.800 268.400 L 226.800 270.000 228.400 270.000 L 230.000 270.000 230.000 273.400 L 230.000 276.800 231.600 276.800 L 233.200 276.800 233.200 278.400 L 233.200 280.000 235.000 280.000 L 236.800 280.000 236.800 281.600 L 236.800 283.200 238.400 283.200 L 240.000 283.200 240.000 285.000 L 240.000 286.800 241.600 286.800 L 243.200 286.800 243.200 288.400 L 243.200 290.000 245.000 290.000 L 246.800 290.000 246.800 291.600 L 246.800 293.200 248.400 293.200 L 250.000 293.200 250.000 290.000 L 250.000 286.800 248.400 286.800 L 246.800 286.800 246.800 285.000 L 246.800 283.200 245.000 283.200 L 243.200 283.200 243.200 281.600 L 243.200 280.000 241.600 280.000 L 240.000 280.000 240.000 278.400 L 240.000 276.800 238.400 276.800 L 236.800 276.800 236.800 275.000 L 236.800 273.200 235.000 273.200 L 233.200 273.200 233.200 270.000 L 233.200 266.800 231.600 266.800 L 230.000 266.800 230.000 263.400 L 230.000 260.000 228.400 260.000 L 226.800 260.000 226.800 256.600 L 226.800 253.200 223.400 253.200 L 220.000 253.200 220.000 255.000 " stroke="none" fill="#848484" fill-rule="evenodd"></path><path id="path1" d="M220.000 205.000 L 220.000 210.000 221.600 210.000 L 223.200 210.000 223.200 211.600 L 223.200 213.200 225.000 213.200 L 226.800 213.200 226.800 215.000 L 226.800 216.800 228.400 216.800 L 230.000 216.800 230.000 218.400 L 230.000 220.000 231.600 220.000 L 233.200 220.000 233.200 221.600 L 233.200 223.200 235.000 223.200 L 236.800 223.200 236.800 225.000 L 236.800 226.800 238.400 226.800 L 240.000 226.800 240.000 228.400 L 240.000 230.000 245.000 230.000 L 250.000 230.000 250.000 228.400 L 250.000 226.800 248.400 226.800 L 246.800 226.800 246.800 225.000 L 246.800 223.200 245.000 223.200 L 243.200 223.200 243.200 221.600 L 243.200 220.000 241.600 220.000 L 240.000 220.000 240.000 218.400 L 240.000 216.800 238.400 216.800 L 236.800 216.800 236.800 215.000 L 236.800 213.200 235.000 213.200 L 233.200 213.200 233.200 211.600 L 233.200 210.000 231.600 210.000 L 230.000 210.000 230.000 208.400 L 230.000 206.800 228.400 206.800 L 226.800 206.800 226.800 205.000 L 226.800 203.200 225.000 203.200 L 223.200 203.200 223.200 201.600 L 223.200 200.000 221.600 200.000 L 220.000 200.000 220.000 205.000 M256.800 245.000 L 256.800 246.800 255.000 246.800 L 253.200 246.800 253.200 250.000 L 253.200 253.200 261.600 253.200 L 270.000 253.200 270.000 250.000 L 270.000 246.800 268.400 246.800 L 266.800 246.800 266.800 245.000 L 266.800 243.200 261.800 243.200 L 256.800 243.200 256.800 245.000 " stroke="none" fill="#f9b904" fill-rule="evenodd"></path><path id="path2" d="M233.200 238.400 L 233.200 240.000 203.200 240.000 L 173.200 240.000 173.200 243.400 L 173.200 246.800 175.000 246.800 L 176.800 246.800 176.800 245.000 L 176.800 243.200 210.000 243.200 L 243.200 243.200 243.200 241.600 L 243.200 240.000 240.000 240.000 L 236.800 240.000 236.800 238.400 L 236.800 236.800 235.000 236.800 L 233.200 236.800 233.200 238.400 M346.800 238.400 L 346.800 240.000 348.400 240.000 L 350.000 240.000 350.000 238.400 L 350.000 236.800 348.400 236.800 L 346.800 236.800 346.800 238.400 M293.200 241.600 L 293.200 243.200 306.600 243.200 L 320.000 243.200 320.000 241.600 L 320.000 240.000 306.600 240.000 L 293.200 240.000 293.200 241.600 M186.800 248.400 L 186.800 250.000 185.000 250.000 L 183.200 250.000 183.200 253.400 L 183.200 256.800 185.000 256.800 L 186.800 256.800 186.800 255.000 L 186.800 253.200 188.400 253.200 L 190.000 253.200 190.000 251.600 L 190.000 250.000 210.000 250.000 L 230.000 250.000 230.000 248.400 L 230.000 246.800 208.400 246.800 L 186.800 246.800 186.800 248.400 M240.000 248.400 L 240.000 250.000 245.000 250.000 L 250.000 250.000 250.000 248.400 L 250.000 246.800 245.000 246.800 L 240.000 246.800 240.000 248.400 M213.200 256.600 L 213.200 260.000 215.000 260.000 L 216.800 260.000 216.800 263.400 L 216.800 266.800 218.400 266.800 L 220.000 266.800 220.000 270.000 L 220.000 273.200 221.600 273.200 L 223.200 273.200 223.200 276.600 L 223.200 280.000 225.000 280.000 L 226.800 280.000 226.800 281.600 L 226.800 283.200 228.400 283.200 L 230.000 283.200 230.000 285.000 L 230.000 286.800 231.600 286.800 L 233.200 286.800 233.200 288.400 L 233.200 290.000 235.000 290.000 L 236.800 290.000 236.800 291.600 L 236.800 293.200 238.400 293.200 L 240.000 293.200 240.000 295.000 L 240.000 296.800 243.400 296.800 L 246.800 296.800 246.800 293.400 L 246.800 290.000 245.000 290.000 L 243.200 290.000 243.200 288.400 L 243.200 286.800 241.600 286.800 L 240.000 286.800 240.000 285.000 L 240.000 283.200 238.400 283.200 L 236.800 283.200 236.800 281.600 L 236.800 280.000 235.000 280.000 L 233.200 280.000 233.200 278.400 L 233.200 276.800 231.600 276.800 L 230.000 276.800 230.000 273.400 L 230.000 270.000 228.400 270.000 L 226.800 270.000 226.800 268.400 L 226.800 266.800 225.000 266.800 L 223.200 266.800 223.200 261.800 L 223.200 256.800 221.600 256.800 L 220.000 256.800 220.000 255.000 L 220.000 253.200 216.600 253.200 L 213.200 253.200 213.200 256.600 " stroke="none" fill="#545454" fill-rule="evenodd"></path><path id="path3" d="M260.000 235.000 L 260.000 236.800 258.400 236.800 L 256.800 236.800 256.800 238.400 L 256.800 240.000 273.400 240.000 L 290.000 240.000 290.000 236.600 L 290.000 233.200 275.000 233.200 L 260.000 233.200 260.000 235.000 M170.000 276.600 L 170.000 280.000 171.600 280.000 L 173.200 280.000 173.200 281.600 L 173.200 283.200 175.000 283.200 L 176.800 283.200 176.800 280.000 L 176.800 276.800 175.000 276.800 L 173.200 276.800 173.200 275.000 L 173.200 273.200 171.600 273.200 L 170.000 273.200 170.000 276.600 " stroke="none" fill="#694204" fill-rule="evenodd"></path><path id="path4" d="M220.000 198.200 L 220.000 200.000 221.600 200.000 L 223.200 200.000 223.200 201.600 L 223.200 203.200 225.000 203.200 L 226.800 203.200 226.800 205.000 L 226.800 206.800 228.400 206.800 L 230.000 206.800 230.000 208.400 L 230.000 210.000 231.600 210.000 L 233.200 210.000 233.200 211.600 L 233.200 213.200 235.000 213.200 L 236.800 213.200 236.800 215.000 L 236.800 216.800 238.400 216.800 L 240.000 216.800 240.000 218.400 L 240.000 220.000 241.600 220.000 L 243.200 220.000 243.200 221.600 L 243.200 223.200 245.000 223.200 L 246.800 223.200 246.800 225.000 L 246.800 226.800 248.400 226.800 L 250.000 226.800 250.000 228.400 L 250.000 230.000 245.000 230.000 L 240.000 230.000 240.000 228.400 L 240.000 226.800 238.400 226.800 L 236.800 226.800 236.800 225.000 L 236.800 223.200 235.000 223.200 L 233.200 223.200 233.200 221.600 L 233.200 220.000 231.600 220.000 L 230.000 220.000 230.000 218.400 L 230.000 216.800 228.400 216.800 L 226.800 216.800 226.800 215.000 L 226.800 213.200 225.000 213.200 L 223.200 213.200 223.200 215.000 L 223.200 216.800 225.000 216.800 L 226.800 216.800 226.800 218.400 L 226.800 220.000 228.400 220.000 L 230.000 220.000 230.000 221.600 L 230.000 223.200 231.600 223.200 L 233.200 223.200 233.200 225.000 L 233.200 226.800 235.000 226.800 L 236.800 226.800 236.800 228.400 L 236.800 230.000 238.400 230.000 L 240.000 230.000 240.000 231.600 L 240.000 233.200 206.600 233.200 L 173.200 233.200 173.200 235.000 L 173.200 236.800 171.600 236.800 L 170.000 236.800 170.000 240.000 L 170.000 243.200 171.600 243.200 L 173.200 243.200 173.200 241.600 L 173.200 240.000 175.000 240.000 L 176.800 240.000 176.800 238.400 L 176.800 236.800 208.400 236.800 L 240.000 236.800 240.000 235.000 L 240.000 233.200 248.400 233.200 L 256.800 233.200 256.800 235.000 L 256.800 236.800 251.800 236.800 L 246.800 236.800 246.800 238.400 L 246.800 240.000 245.000 240.000 L 243.200 240.000 243.200 241.600 L 243.200 243.200 245.000 243.200 L 246.800 243.200 246.800 245.000 L 246.800 246.800 248.400 246.800 L 250.000 246.800 250.000 248.400 L 250.000 250.000 245.000 250.000 L 240.000 250.000 240.000 248.400 L 240.000 246.800 235.000 246.800 L 230.000 246.800 230.000 248.400 L 230.000 250.000 210.000 250.000 L 190.000 250.000 190.000 251.600 L 190.000 253.200 188.400 253.200 L 186.800 253.200 186.800 256.600 L 186.800 260.000 188.400 260.000 L 190.000 260.000 190.000 258.400 L 190.000 256.800 191.600 256.800 L 193.200 256.800 193.200 255.000 L 193.200 253.200 200.000 253.200 L 206.800 253.200 206.800 258.200 L 206.800 263.200 208.400 263.200 L 210.000 263.200 210.000 261.600 L 210.000 260.000 211.600 260.000 L 213.200 260.000 213.200 263.400 L 213.200 266.800 215.000 266.800 L 216.800 266.800 216.800 270.000 L 216.800 273.200 218.400 273.200 L 220.000 273.200 220.000 276.600 L 220.000 280.000 221.600 280.000 L 223.200 280.000 223.200 281.600 L 223.200 283.200 225.000 283.200 L 226.800 283.200 226.800 285.000 L 226.800 286.800 228.400 286.800 L 230.000 286.800 230.000 288.400 L 230.000 290.000 231.600 290.000 L 233.200 290.000 233.200 291.600 L 233.200 293.200 235.000 293.200 L 236.800 293.200 236.800 295.000 L 236.800 296.800 238.400 296.800 L 240.000 296.800 240.000 298.400 L 240.000 300.000 243.400 300.000 L 246.800 300.000 246.800 298.400 L 246.800 296.800 248.400 296.800 L 250.000 296.800 250.000 295.000 L 250.000 293.200 251.600 293.200 L 253.200 293.200 253.200 290.000 L 253.200 286.800 251.600 286.800 L 250.000 286.800 250.000 285.000 L 250.000 283.200 248.400 283.200 L 246.800 283.200 246.800 281.600 L 246.800 280.000 245.000 280.000 L 243.200 280.000 243.200 278.400 L 243.200 276.800 241.600 276.800 L 240.000 276.800 240.000 275.000 L 240.000 273.200 238.400 273.200 L 236.800 273.200 236.800 270.000 L 236.800 266.800 235.000 266.800 L 233.200 266.800 233.200 263.400 L 233.200 260.000 231.600 260.000 L 230.000 260.000 230.000 255.000 L 230.000 250.000 235.000 250.000 L 240.000 250.000 240.000 251.600 L 240.000 253.200 246.600 253.200 L 253.200 253.200 253.200 255.000 L 253.200 256.800 261.600 256.800 L 270.000 256.800 270.000 255.000 L 270.000 253.200 273.400 253.200 L 276.800 253.200 276.800 251.600 L 276.800 250.000 285.000 250.000 L 293.200 250.000 293.200 248.400 L 293.200 246.800 325.000 246.800 L 356.800 246.800 356.800 243.400 L 356.800 240.000 355.000 240.000 L 353.200 240.000 353.200 235.000 L 353.200 230.000 351.600 230.000 L 350.000 230.000 350.000 231.600 L 350.000 233.200 348.400 233.200 L 346.800 233.200 346.800 235.000 L 346.800 236.800 345.000 236.800 L 343.200 236.800 343.200 238.400 L 343.200 240.000 331.600 240.000 L 320.000 240.000 320.000 238.400 L 320.000 236.800 318.400 236.800 L 316.800 236.800 316.800 235.000 L 316.800 233.200 303.400 233.200 L 290.000 233.200 290.000 231.600 L 290.000 230.000 275.000 230.000 L 260.000 230.000 260.000 231.600 L 260.000 233.200 258.400 233.200 L 256.800 233.200 256.800 231.600 L 256.800 230.000 255.000 230.000 L 253.200 230.000 253.200 228.400 L 253.200 226.800 251.600 226.800 L 250.000 226.800 250.000 225.000 L 250.000 223.200 248.400 223.200 L 246.800 223.200 246.800 221.600 L 246.800 220.000 245.000 220.000 L 243.200 220.000 243.200 218.400 L 243.200 216.800 241.600 216.800 L 240.000 216.800 240.000 215.000 L 240.000 213.200 238.400 213.200 L 236.800 213.200 236.800 211.600 L 236.800 210.000 235.000 210.000 L 233.200 210.000 233.200 208.400 L 233.200 206.800 231.600 206.800 L 230.000 206.800 230.000 205.000 L 230.000 203.200 228.400 203.200 L 226.800 203.200 226.800 201.600 L 226.800 200.000 225.000 200.000 L 223.200 200.000 223.200 198.200 L 223.200 196.400 221.600 196.400 L 220.000 196.400 220.000 198.200 M290.000 236.600 L 290.000 240.000 273.400 240.000 L 256.800 240.000 256.800 238.400 L 256.800 236.800 258.400 236.800 L 260.000 236.800 260.000 235.000 L 260.000 233.200 275.000 233.200 L 290.000 233.200 290.000 236.600 M316.800 238.400 L 316.800 240.000 318.400 240.000 L 320.000 240.000 320.000 241.600 L 320.000 243.200 306.600 243.200 L 293.200 243.200 293.200 240.000 L 293.200 236.800 305.000 236.800 L 316.800 236.800 316.800 238.400 M350.000 238.400 L 350.000 240.000 348.400 240.000 L 346.800 240.000 346.800 238.400 L 346.800 236.800 348.400 236.800 L 350.000 236.800 350.000 238.400 M266.800 245.000 L 266.800 246.800 268.400 246.800 L 270.000 246.800 270.000 250.000 L 270.000 253.200 261.600 253.200 L 253.200 253.200 253.200 250.000 L 253.200 246.800 255.000 246.800 L 256.800 246.800 256.800 245.000 L 256.800 243.200 261.800 243.200 L 266.800 243.200 266.800 245.000 M226.800 256.600 L 226.800 260.000 228.400 260.000 L 230.000 260.000 230.000 263.400 L 230.000 266.800 231.600 266.800 L 233.200 266.800 233.200 270.000 L 233.200 273.200 235.000 273.200 L 236.800 273.200 236.800 275.000 L 236.800 276.800 238.400 276.800 L 240.000 276.800 240.000 278.400 L 240.000 280.000 241.600 280.000 L 243.200 280.000 243.200 281.600 L 243.200 283.200 245.000 283.200 L 246.800 283.200 246.800 285.000 L 246.800 286.800 248.400 286.800 L 250.000 286.800 250.000 290.000 L 250.000 293.200 248.400 293.200 L 246.800 293.200 246.800 295.000 L 246.800 296.800 243.400 296.800 L 240.000 296.800 240.000 295.000 L 240.000 293.200 238.400 293.200 L 236.800 293.200 236.800 291.600 L 236.800 290.000 235.000 290.000 L 233.200 290.000 233.200 288.400 L 233.200 286.800 231.600 286.800 L 230.000 286.800 230.000 285.000 L 230.000 283.200 228.400 283.200 L 226.800 283.200 226.800 281.600 L 226.800 280.000 225.000 280.000 L 223.200 280.000 223.200 276.600 L 223.200 273.200 221.600 273.200 L 220.000 273.200 220.000 270.000 L 220.000 266.800 218.400 266.800 L 216.800 266.800 216.800 263.400 L 216.800 260.000 215.000 260.000 L 213.200 260.000 213.200 256.600 L 213.200 253.200 220.000 253.200 L 226.800 253.200 226.800 256.600 M173.200 263.400 L 173.200 266.800 171.600 266.800 L 170.000 266.800 170.000 270.000 L 170.000 273.200 168.200 273.200 L 166.400 273.200 166.400 276.600 L 166.400 280.000 168.200 280.000 L 170.000 280.000 170.000 281.600 L 170.000 283.200 171.600 283.200 L 173.200 283.200 173.200 285.000 L 173.200 286.800 175.000 286.800 L 176.800 286.800 176.800 285.000 L 176.800 283.200 178.400 283.200 L 180.000 283.200 180.000 280.000 L 180.000 276.800 181.600 276.800 L 183.200 276.800 183.200 273.400 L 183.200 270.000 185.000 270.000 L 186.800 270.000 186.800 268.400 L 186.800 266.800 185.000 266.800 L 183.200 266.800 183.200 268.400 L 183.200 270.000 181.600 270.000 L 180.000 270.000 180.000 271.600 L 180.000 273.200 178.400 273.200 L 176.800 273.200 176.800 271.600 L 176.800 270.000 175.000 270.000 L 173.200 270.000 173.200 268.400 L 173.200 266.800 175.000 266.800 L 176.800 266.800 176.800 263.400 L 176.800 260.000 175.000 260.000 L 173.200 260.000 173.200 263.400 M173.200 275.000 L 173.200 276.800 175.000 276.800 L 176.800 276.800 176.800 280.000 L 176.800 283.200 175.000 283.200 L 173.200 283.200 173.200 281.600 L 173.200 280.000 171.600 280.000 L 170.000 280.000 170.000 276.600 L 170.000 273.200 171.600 273.200 L 173.200 273.200 173.200 275.000 " stroke="none" fill="#442c04" fill-rule="evenodd"></path></g></svg>