<svg id="svg" version="1.1" xmlns="http://www.w3.org/2000/svg" xmlns:xlink="http://www.w3.org/1999/xlink" width="400" height="400" viewBox="0, 0, 400,400"><g id="svgg"><path id="path0" d="M166.800 285.000 L 166.800 286.800 161.800 286.800 L 156.800 286.800 156.800 288.400 L 156.800 290.000 160.000 290.000 L 163.200 290.000 163.200 291.600 L 163.200 293.200 175.000 293.200 L 186.800 293.200 186.800 291.600 L 186.800 290.000 188.400 290.000 L 190.000 290.000 190.000 288.400 L 190.000 286.800 186.600 286.800 L 183.200 286.800 183.200 285.000 L 183.200 283.200 175.000 283.200 L 166.800 283.200 166.800 285.000 M190.000 298.400 L 190.000 300.000 185.000 300.000 L 180.000 300.000 180.000 301.600 L 180.000 303.200 175.000 303.200 L 170.000 303.200 170.000 305.000 L 170.000 306.800 168.400 306.800 L 166.800 306.800 166.800 308.400 L 166.800 310.000 165.000 310.000 L 163.200 310.000 163.200 313.400 L 163.200 316.800 161.600 316.800 L 160.000 316.800 160.000 318.400 L 160.000 320.000 161.600 320.000 L 163.200 320.000 163.200 321.600 L 163.200 323.200 173.200 323.200 L 183.200 323.200 183.200 321.600 L 183.200 320.000 186.600 320.000 L 190.000 320.000 190.000 318.400 L 190.000 316.800 191.600 316.800 L 193.200 316.800 193.200 308.400 L 193.200 300.000 195.000 300.000 L 196.800 300.000 196.800 298.400 L 196.800 296.800 193.400 296.800 L 190.000 296.800 190.000 298.400 " stroke="none" fill="#3792e2" fill-rule="evenodd"></path><path id="path1" d="M240.000 196.600 L 240.000 200.000 238.400 200.000 L 236.800 200.000 236.800 203.400 L 236.800 206.800 235.000 206.800 L 233.200 206.800 233.200 208.400 L 233.200 210.000 231.600 210.000 L 230.000 210.000 230.000 213.400 L 230.000 216.800 231.600 216.800 L 233.200 216.800 233.200 218.400 L 233.200 220.000 235.000 220.000 L 236.800 220.000 236.800 221.600 L 236.800 223.200 235.000 223.200 L 233.200 223.200 233.200 225.000 L 233.200 226.800 231.600 226.800 L 230.000 226.800 230.000 228.400 L 230.000 230.000 228.400 230.000 L 226.800 230.000 226.800 233.400 L 226.800 236.800 228.400 236.800 L 230.000 236.800 230.000 235.000 L 230.000 233.200 231.600 233.200 L 233.200 233.200 233.200 231.600 L 233.200 230.000 235.000 230.000 L 236.800 230.000 236.800 228.400 L 236.800 226.800 240.000 226.800 L 243.200 226.800 243.200 228.400 L 243.200 230.000 246.600 230.000 L 250.000 230.000 250.000 228.400 L 250.000 226.800 251.600 226.800 L 253.200 226.800 253.200 225.000 L 253.200 223.200 256.600 223.200 L 260.000 223.200 260.000 221.600 L 260.000 220.000 261.600 220.000 L 263.200 220.000 263.200 216.600 L 263.200 213.200 260.000 213.200 L 256.800 213.200 256.800 215.000 L 256.800 216.800 255.000 216.800 L 253.200 216.800 253.200 215.000 L 253.200 213.200 251.600 213.200 L 250.000 213.200 250.000 210.000 L 250.000 206.800 251.600 206.800 L 253.200 206.800 253.200 205.000 L 253.200 203.200 251.600 203.200 L 250.000 203.200 250.000 205.000 L 250.000 206.800 248.400 206.800 L 246.800 206.800 246.800 205.000 L 246.800 203.200 245.000 203.200 L 243.200 203.200 243.200 198.200 L 243.200 193.200 241.600 193.200 L 240.000 193.200 240.000 196.600 M236.800 211.600 L 236.800 213.200 238.400 213.200 L 240.000 213.200 240.000 215.000 L 240.000 216.800 241.600 216.800 L 243.200 216.800 243.200 218.400 L 243.200 220.000 245.000 220.000 L 246.800 220.000 246.800 221.600 L 246.800 223.200 248.400 223.200 L 250.000 223.200 250.000 225.000 L 250.000 226.800 248.400 226.800 L 246.800 226.800 246.800 225.000 L 246.800 223.200 245.000 223.200 L 243.200 223.200 243.200 221.600 L 243.200 220.000 241.600 220.000 L 240.000 220.000 240.000 218.400 L 240.000 216.800 238.400 216.800 L 236.800 216.800 236.800 215.000 L 236.800 213.200 235.000 213.200 L 233.200 213.200 233.200 211.600 L 233.200 210.000 235.000 210.000 L 236.800 210.000 236.800 211.600 " stroke="none" fill="#b99182" fill-rule="evenodd"></path><path id="path2" d="M243.200 190.000 L 243.200 193.200 246.600 193.200 L 250.000 193.200 250.000 195.000 L 250.000 196.800 248.400 196.800 L 246.800 196.800 246.800 200.000 L 246.800 203.200 248.400 203.200 L 250.000 203.200 250.000 201.600 L 250.000 200.000 253.400 200.000 L 256.800 200.000 256.800 201.600 L 256.800 203.200 258.400 203.200 L 260.000 203.200 260.000 205.000 L 260.000 206.800 256.600 206.800 L 253.200 206.800 253.200 210.000 L 253.200 213.200 255.000 213.200 L 256.800 213.200 256.800 211.600 L 256.800 210.000 260.000 210.000 L 263.200 210.000 263.200 211.600 L 263.200 213.200 266.600 213.200 L 270.000 213.200 270.000 210.000 L 270.000 206.800 268.400 206.800 L 266.800 206.800 266.800 203.400 L 266.800 200.000 265.000 200.000 L 263.200 200.000 263.200 198.400 L 263.200 196.800 261.600 196.800 L 260.000 196.800 260.000 195.000 L 260.000 193.200 258.400 193.200 L 256.800 193.200 256.800 191.600 L 256.800 190.000 253.400 190.000 L 250.000 190.000 250.000 188.400 L 250.000 186.800 246.600 186.800 L 243.200 186.800 243.200 190.000 M156.800 306.600 L 156.800 320.000 158.400 320.000 L 160.000 320.000 160.000 318.400 L 160.000 316.800 161.600 316.800 L 163.200 316.800 163.200 313.400 L 163.200 310.000 165.000 310.000 L 166.800 310.000 166.800 308.400 L 166.800 306.800 168.400 306.800 L 170.000 306.800 170.000 305.000 L 170.000 303.200 175.000 303.200 L 180.000 303.200 180.000 301.600 L 180.000 300.000 185.000 300.000 L 190.000 300.000 190.000 298.400 L 190.000 296.800 193.400 296.800 L 196.800 296.800 196.800 295.000 L 196.800 293.200 191.800 293.200 L 186.800 293.200 186.800 295.000 L 186.800 296.800 175.000 296.800 L 163.200 296.800 163.200 295.000 L 163.200 293.200 160.000 293.200 L 156.800 293.200 156.800 306.600 M193.200 308.400 L 193.200 316.800 191.600 316.800 L 190.000 316.800 190.000 318.400 L 190.000 320.000 186.600 320.000 L 183.200 320.000 183.200 321.600 L 183.200 323.200 176.600 323.200 L 170.000 323.200 170.000 325.000 L 170.000 326.800 176.600 326.800 L 183.200 326.800 183.200 325.000 L 183.200 323.200 186.600 323.200 L 190.000 323.200 190.000 321.600 L 190.000 320.000 193.400 320.000 L 196.800 320.000 196.800 310.000 L 196.800 300.000 195.000 300.000 L 193.200 300.000 193.200 308.400 " stroke="none" fill="#1c6cb4" fill-rule="evenodd"></path><path id="path3" d="M243.200 185.000 L 243.200 186.800 241.600 186.800 L 240.000 186.800 240.000 190.000 L 240.000 193.200 238.400 193.200 L 236.800 193.200 236.800 196.600 L 236.800 200.000 235.000 200.000 L 233.200 200.000 233.200 203.400 L 233.200 206.800 230.000 206.800 L 226.800 206.800 226.800 211.800 L 226.800 216.800 228.400 216.800 L 230.000 216.800 230.000 218.400 L 230.000 220.000 231.600 220.000 L 233.200 220.000 233.200 221.600 L 233.200 223.200 231.600 223.200 L 230.000 223.200 230.000 225.000 L 230.000 226.800 228.400 226.800 L 226.800 226.800 226.800 228.400 L 226.800 230.000 228.400 230.000 L 230.000 230.000 230.000 228.400 L 230.000 226.800 231.600 226.800 L 233.200 226.800 233.200 225.000 L 233.200 223.200 235.000 223.200 L 236.800 223.200 236.800 221.600 L 236.800 220.000 235.000 220.000 L 233.200 220.000 233.200 218.400 L 233.200 216.800 231.600 216.800 L 230.000 216.800 230.000 213.400 L 230.000 210.000 231.600 210.000 L 233.200 210.000 233.200 211.600 L 233.200 213.200 235.000 213.200 L 236.800 213.200 236.800 215.000 L 236.800 216.800 238.400 216.800 L 240.000 216.800 240.000 218.400 L 240.000 220.000 241.600 220.000 L 243.200 220.000 243.200 221.600 L 243.200 223.200 245.000 223.200 L 246.800 223.200 246.800 225.000 L 246.800 226.800 248.400 226.800 L 250.000 226.800 250.000 228.400 L 250.000 230.000 246.600 230.000 L 243.200 230.000 243.200 228.400 L 243.200 226.800 240.000 226.800 L 236.800 226.800 236.800 228.400 L 236.800 230.000 235.000 230.000 L 233.200 230.000 233.200 231.600 L 233.200 233.200 231.600 233.200 L 230.000 233.200 230.000 235.000 L 230.000 236.800 231.600 236.800 L 233.200 236.800 233.200 235.000 L 233.200 233.200 235.000 233.200 L 236.800 233.200 236.800 231.600 L 236.800 230.000 240.000 230.000 L 243.200 230.000 243.200 231.600 L 243.200 233.200 246.600 233.200 L 250.000 233.200 250.000 231.600 L 250.000 230.000 251.600 230.000 L 253.200 230.000 253.200 228.400 L 253.200 226.800 256.600 226.800 L 260.000 226.800 260.000 225.000 L 260.000 223.200 261.600 223.200 L 263.200 223.200 263.200 221.600 L 263.200 220.000 265.000 220.000 L 266.800 220.000 266.800 218.400 L 266.800 216.800 268.400 216.800 L 270.000 216.800 270.000 215.000 L 270.000 213.200 271.800 213.200 L 273.600 213.200 273.600 210.000 L 273.600 206.800 271.800 206.800 L 270.000 206.800 270.000 203.400 L 270.000 200.000 268.400 200.000 L 266.800 200.000 266.800 198.400 L 266.800 196.800 265.000 196.800 L 263.200 196.800 263.200 195.000 L 263.200 193.200 261.600 193.200 L 260.000 193.200 260.000 191.600 L 260.000 190.000 258.400 190.000 L 256.800 190.000 256.800 188.400 L 256.800 186.800 253.400 186.800 L 250.000 186.800 250.000 185.000 L 250.000 183.200 246.600 183.200 L 243.200 183.200 243.200 185.000 M250.000 188.400 L 250.000 190.000 253.400 190.000 L 256.800 190.000 256.800 191.600 L 256.800 193.200 258.400 193.200 L 260.000 193.200 260.000 195.000 L 260.000 196.800 261.600 196.800 L 263.200 196.800 263.200 198.400 L 263.200 200.000 265.000 200.000 L 266.800 200.000 266.800 203.400 L 266.800 206.800 268.400 206.800 L 270.000 206.800 270.000 210.000 L 270.000 213.200 266.600 213.200 L 263.200 213.200 263.200 216.600 L 263.200 220.000 261.600 220.000 L 260.000 220.000 260.000 221.600 L 260.000 223.200 256.600 223.200 L 253.200 223.200 253.200 225.000 L 253.200 226.800 251.600 226.800 L 250.000 226.800 250.000 225.000 L 250.000 223.200 248.400 223.200 L 246.800 223.200 246.800 221.600 L 246.800 220.000 245.000 220.000 L 243.200 220.000 243.200 218.400 L 243.200 216.800 241.600 216.800 L 240.000 216.800 240.000 215.000 L 240.000 213.200 238.400 213.200 L 236.800 213.200 236.800 211.600 L 236.800 210.000 235.000 210.000 L 233.200 210.000 233.200 208.400 L 233.200 206.800 235.000 206.800 L 236.800 206.800 236.800 203.400 L 236.800 200.000 238.400 200.000 L 240.000 200.000 240.000 196.600 L 240.000 193.200 241.600 193.200 L 243.200 193.200 243.200 190.000 L 243.200 186.800 246.600 186.800 L 250.000 186.800 250.000 188.400 M243.200 198.200 L 243.200 203.200 245.000 203.200 L 246.800 203.200 246.800 205.000 L 246.800 206.800 248.400 206.800 L 250.000 206.800 250.000 210.000 L 250.000 213.200 251.600 213.200 L 253.200 213.200 253.200 215.000 L 253.200 216.800 255.000 216.800 L 256.800 216.800 256.800 215.000 L 256.800 213.200 260.000 213.200 L 263.200 213.200 263.200 211.600 L 263.200 210.000 260.000 210.000 L 256.800 210.000 256.800 211.600 L 256.800 213.200 255.000 213.200 L 253.200 213.200 253.200 210.000 L 253.200 206.800 256.600 206.800 L 260.000 206.800 260.000 205.000 L 260.000 203.200 258.400 203.200 L 256.800 203.200 256.800 201.600 L 256.800 200.000 253.400 200.000 L 250.000 200.000 250.000 201.600 L 250.000 203.200 248.400 203.200 L 246.800 203.200 246.800 200.000 L 246.800 196.800 248.400 196.800 L 250.000 196.800 250.000 195.000 L 250.000 193.200 246.600 193.200 L 243.200 193.200 243.200 198.200 M253.200 205.000 L 253.200 206.800 251.600 206.800 L 250.000 206.800 250.000 205.000 L 250.000 203.200 251.600 203.200 L 253.200 203.200 253.200 205.000 M163.200 261.600 L 163.200 263.200 161.600 263.200 L 160.000 263.200 160.000 266.600 L 160.000 270.000 158.400 270.000 L 156.800 270.000 156.800 275.000 L 156.800 280.000 155.000 280.000 L 153.200 280.000 153.200 300.000 L 153.200 320.000 155.000 320.000 L 156.800 320.000 156.800 321.600 L 156.800 323.200 160.000 323.200 L 163.200 323.200 163.200 325.000 L 163.200 326.800 166.600 326.800 L 170.000 326.800 170.000 328.400 L 170.000 330.000 176.600 330.000 L 183.200 330.000 183.200 328.400 L 183.200 326.800 176.600 326.800 L 170.000 326.800 170.000 325.000 L 170.000 323.200 166.600 323.200 L 163.200 323.200 163.200 321.600 L 163.200 320.000 160.000 320.000 L 156.800 320.000 156.800 306.600 L 156.800 293.200 160.000 293.200 L 163.200 293.200 163.200 295.000 L 163.200 296.800 175.000 296.800 L 186.800 296.800 186.800 295.000 L 186.800 293.200 190.000 293.200 L 193.200 293.200 193.200 291.600 L 193.200 290.000 195.000 290.000 L 196.800 290.000 196.800 280.000 L 196.800 270.000 195.000 270.000 L 193.200 270.000 193.200 266.600 L 193.200 263.200 190.000 263.200 L 186.800 263.200 186.800 265.000 L 186.800 266.800 188.400 266.800 L 190.000 266.800 190.000 270.000 L 190.000 273.200 191.600 273.200 L 193.200 273.200 193.200 278.200 L 193.200 283.200 188.200 283.200 L 183.200 283.200 183.200 281.600 L 183.200 280.000 175.000 280.000 L 166.800 280.000 166.800 281.600 L 166.800 283.200 163.400 283.200 L 160.000 283.200 160.000 278.200 L 160.000 273.200 161.600 273.200 L 163.200 273.200 163.200 270.000 L 163.200 266.800 165.000 266.800 L 166.800 266.800 166.800 265.000 L 166.800 263.200 170.000 263.200 L 173.200 263.200 173.200 261.600 L 173.200 260.000 168.200 260.000 L 163.200 260.000 163.200 261.600 M183.200 285.000 L 183.200 286.800 186.600 286.800 L 190.000 286.800 190.000 288.400 L 190.000 290.000 188.400 290.000 L 186.800 290.000 186.800 291.600 L 186.800 293.200 175.000 293.200 L 163.200 293.200 163.200 291.600 L 163.200 290.000 160.000 290.000 L 156.800 290.000 156.800 288.400 L 156.800 286.800 161.800 286.800 L 166.800 286.800 166.800 285.000 L 166.800 283.200 175.000 283.200 L 183.200 283.200 183.200 285.000 M196.800 308.400 L 196.800 316.800 198.400 316.800 L 200.000 316.800 200.000 308.400 L 200.000 300.000 198.400 300.000 L 196.800 300.000 196.800 308.400 M190.000 321.600 L 190.000 323.200 193.400 323.200 L 196.800 323.200 196.800 321.600 L 196.800 320.000 193.400 320.000 L 190.000 320.000 190.000 321.600 " stroke="none" fill="#040404" fill-rule="evenodd"></path><path id="path4" d="" stroke="none" fill="#4438dc" fill-rule="evenodd"></path></g></svg>