<svg id="svg" version="1.1" xmlns="http://www.w3.org/2000/svg" xmlns:xlink="http://www.w3.org/1999/xlink" width="400" height="400" viewBox="0, 0, 400,400"><g id="svgg"><path id="path0" d="M293.200 220.000 L 293.200 223.200 295.000 223.200 L 296.800 223.200 296.800 220.000 L 296.800 216.800 295.000 216.800 L 293.200 216.800 293.200 220.000 M183.200 221.600 L 183.200 223.200 181.600 223.200 L 180.000 223.200 180.000 225.000 L 180.000 226.800 178.400 226.800 L 176.800 226.800 176.800 235.000 L 176.800 243.200 181.800 243.200 L 186.800 243.200 186.800 241.600 L 186.800 240.000 188.400 240.000 L 190.000 240.000 190.000 241.600 L 190.000 243.200 198.400 243.200 L 206.800 243.200 206.800 241.600 L 206.800 240.000 198.400 240.000 L 190.000 240.000 190.000 238.400 L 190.000 236.800 188.400 236.800 L 186.800 236.800 186.800 235.000 L 186.800 233.200 185.000 233.200 L 183.200 233.200 183.200 231.600 L 183.200 230.000 203.200 230.000 L 223.200 230.000 223.200 231.600 L 223.200 233.200 221.600 233.200 L 220.000 233.200 220.000 235.000 L 220.000 236.800 216.600 236.800 L 213.200 236.800 213.200 238.400 L 213.200 240.000 216.600 240.000 L 220.000 240.000 220.000 241.600 L 220.000 243.200 223.400 243.200 L 226.800 243.200 226.800 233.200 L 226.800 223.200 225.000 223.200 L 223.200 223.200 223.200 225.000 L 223.200 226.800 208.200 226.800 L 193.200 226.800 193.200 225.000 L 193.200 223.200 191.600 223.200 L 190.000 223.200 190.000 221.600 L 190.000 220.000 186.600 220.000 L 183.200 220.000 183.200 221.600 M240.000 230.000 L 240.000 233.200 241.600 233.200 L 243.200 233.200 243.200 231.600 L 243.200 230.000 245.000 230.000 L 246.800 230.000 246.800 231.600 L 246.800 233.200 248.400 233.200 L 250.000 233.200 250.000 231.600 L 250.000 230.000 251.600 230.000 L 253.200 230.000 253.200 231.600 L 253.200 233.200 255.000 233.200 L 256.800 233.200 256.800 231.600 L 256.800 230.000 258.400 230.000 L 260.000 230.000 260.000 231.600 L 260.000 233.200 261.600 233.200 L 263.200 233.200 263.200 231.600 L 263.200 230.000 265.000 230.000 L 266.800 230.000 266.800 231.600 L 266.800 233.200 268.400 233.200 L 270.000 233.200 270.000 231.600 L 270.000 230.000 271.600 230.000 L 273.200 230.000 273.200 231.600 L 273.200 233.200 275.000 233.200 L 276.800 233.200 276.800 230.000 L 276.800 226.800 258.400 226.800 L 240.000 226.800 240.000 230.000 M230.000 231.600 L 230.000 233.200 233.400 233.200 L 236.800 233.200 236.800 231.600 L 236.800 230.000 233.400 230.000 L 230.000 230.000 230.000 231.600 M123.200 235.000 L 123.200 236.800 138.200 236.800 L 153.200 236.800 153.200 238.400 L 153.200 240.000 138.200 240.000 L 123.200 240.000 123.200 241.600 L 123.200 243.200 138.200 243.200 L 153.200 243.200 153.200 241.600 L 153.200 240.000 155.000 240.000 L 156.800 240.000 156.800 236.600 L 156.800 233.200 140.000 233.200 L 123.200 233.200 123.200 235.000 M170.000 236.600 L 170.000 240.000 171.600 240.000 L 173.200 240.000 173.200 236.600 L 173.200 233.200 171.600 233.200 L 170.000 233.200 170.000 236.600 M213.200 266.600 L 213.200 273.200 215.000 273.200 L 216.800 273.200 216.800 275.000 L 216.800 276.800 220.000 276.800 L 223.200 276.800 223.200 273.400 L 223.200 270.000 221.600 270.000 L 220.000 270.000 220.000 265.000 L 220.000 260.000 216.600 260.000 L 213.200 260.000 213.200 266.600 M170.000 271.600 L 170.000 273.200 171.600 273.200 L 173.200 273.200 173.200 271.600 L 173.200 270.000 171.600 270.000 L 170.000 270.000 170.000 271.600 " stroke="none" fill="#848484" fill-rule="evenodd"></path><path id="path1" d="M186.800 235.000 L 186.800 236.800 188.400 236.800 L 190.000 236.800 190.000 238.400 L 190.000 240.000 201.600 240.000 L 213.200 240.000 213.200 238.400 L 213.200 236.800 216.600 236.800 L 220.000 236.800 220.000 235.000 L 220.000 233.200 203.400 233.200 L 186.800 233.200 186.800 235.000 M230.000 235.000 L 230.000 236.800 233.400 236.800 L 236.800 236.800 236.800 235.000 L 236.800 233.200 233.400 233.200 L 230.000 233.200 230.000 235.000 M240.000 236.600 L 240.000 240.000 246.600 240.000 L 253.200 240.000 253.200 238.400 L 253.200 236.800 255.000 236.800 L 256.800 236.800 256.800 235.000 L 256.800 233.200 255.000 233.200 L 253.200 233.200 253.200 235.000 L 253.200 236.800 251.600 236.800 L 250.000 236.800 250.000 235.000 L 250.000 233.200 248.400 233.200 L 246.800 233.200 246.800 235.000 L 246.800 236.800 245.000 236.800 L 243.200 236.800 243.200 235.000 L 243.200 233.200 241.600 233.200 L 240.000 233.200 240.000 236.600 M266.800 235.000 L 266.800 236.800 268.400 236.800 L 270.000 236.800 270.000 238.400 L 270.000 240.000 273.400 240.000 L 276.800 240.000 276.800 236.600 L 276.800 233.200 275.000 233.200 L 273.200 233.200 273.200 235.000 L 273.200 236.800 271.600 236.800 L 270.000 236.800 270.000 235.000 L 270.000 233.200 268.400 233.200 L 266.800 233.200 266.800 235.000 M280.000 238.400 L 280.000 240.000 283.400 240.000 L 286.800 240.000 286.800 241.600 L 286.800 243.200 290.000 243.200 L 293.200 243.200 293.200 241.600 L 293.200 240.000 296.600 240.000 L 300.000 240.000 300.000 238.400 L 300.000 236.800 290.000 236.800 L 280.000 236.800 280.000 238.400 M123.200 246.600 L 123.200 250.000 125.000 250.000 L 126.800 250.000 126.800 251.600 L 126.800 253.200 128.400 253.200 L 130.000 253.200 130.000 251.600 L 130.000 250.000 135.000 250.000 L 140.000 250.000 140.000 248.400 L 140.000 246.800 145.000 246.800 L 150.000 246.800 150.000 245.000 L 150.000 243.200 136.600 243.200 L 123.200 243.200 123.200 246.600 M180.000 246.600 L 180.000 250.000 183.400 250.000 L 186.800 250.000 186.800 251.600 L 186.800 253.200 185.000 253.200 L 183.200 253.200 183.200 255.000 L 183.200 256.800 185.000 256.800 L 186.800 256.800 186.800 255.000 L 186.800 253.200 190.000 253.200 L 193.200 253.200 193.200 251.600 L 193.200 250.000 200.000 250.000 L 206.800 250.000 206.800 251.600 L 206.800 253.200 215.000 253.200 L 223.200 253.200 223.200 248.200 L 223.200 243.200 215.000 243.200 L 206.800 243.200 206.800 245.000 L 206.800 246.800 205.000 246.800 L 203.200 246.800 203.200 245.000 L 203.200 243.200 196.600 243.200 L 190.000 243.200 190.000 245.000 L 190.000 246.800 186.600 246.800 L 183.200 246.800 183.200 245.000 L 183.200 243.200 181.600 243.200 L 180.000 243.200 180.000 246.600 M216.800 278.400 L 216.800 280.000 220.000 280.000 L 223.200 280.000 223.200 278.400 L 223.200 276.800 220.000 276.800 L 216.800 276.800 216.800 278.400 " stroke="none" fill="#6e6b6b" fill-rule="evenodd"></path><path id="path2" d="M220.000 205.000 L 220.000 210.000 221.600 210.000 L 223.200 210.000 223.200 211.600 L 223.200 213.200 225.000 213.200 L 226.800 213.200 226.800 215.000 L 226.800 216.800 228.400 216.800 L 230.000 216.800 230.000 218.400 L 230.000 220.000 231.600 220.000 L 233.200 220.000 233.200 221.600 L 233.200 223.200 238.200 223.200 L 243.200 223.200 243.200 221.600 L 243.200 220.000 241.600 220.000 L 240.000 220.000 240.000 218.400 L 240.000 216.800 238.400 216.800 L 236.800 216.800 236.800 215.000 L 236.800 213.200 235.000 213.200 L 233.200 213.200 233.200 211.600 L 233.200 210.000 231.600 210.000 L 230.000 210.000 230.000 208.400 L 230.000 206.800 228.400 206.800 L 226.800 206.800 226.800 205.000 L 226.800 203.200 225.000 203.200 L 223.200 203.200 223.200 201.600 L 223.200 200.000 221.600 200.000 L 220.000 200.000 220.000 205.000 M256.800 238.400 L 256.800 240.000 255.000 240.000 L 253.200 240.000 253.200 243.400 L 253.200 246.800 261.600 246.800 L 270.000 246.800 270.000 243.400 L 270.000 240.000 268.400 240.000 L 266.800 240.000 266.800 238.400 L 266.800 236.800 261.800 236.800 L 256.800 236.800 256.800 238.400 " stroke="none" fill="#f9b804" fill-rule="evenodd"></path><path id="path3" d="M173.200 238.400 L 173.200 246.800 176.600 246.800 L 180.000 246.800 180.000 245.000 L 180.000 243.200 178.400 243.200 L 176.800 243.200 176.800 236.600 L 176.800 230.000 175.000 230.000 L 173.200 230.000 173.200 238.400 M183.200 231.600 L 183.200 233.200 203.200 233.200 L 223.200 233.200 223.200 231.600 L 223.200 230.000 203.200 230.000 L 183.200 230.000 183.200 231.600 M123.200 238.400 L 123.200 240.000 138.200 240.000 L 153.200 240.000 153.200 241.600 L 153.200 243.200 151.600 243.200 L 150.000 243.200 150.000 245.000 L 150.000 246.800 145.000 246.800 L 140.000 246.800 140.000 248.400 L 140.000 250.000 135.000 250.000 L 130.000 250.000 130.000 251.600 L 130.000 253.200 128.400 253.200 L 126.800 253.200 126.800 251.600 L 126.800 250.000 125.000 250.000 L 123.200 250.000 123.200 255.000 L 123.200 260.000 125.000 260.000 L 126.800 260.000 126.800 258.400 L 126.800 256.800 128.400 256.800 L 130.000 256.800 130.000 255.000 L 130.000 253.200 135.000 253.200 L 140.000 253.200 140.000 251.600 L 140.000 250.000 145.000 250.000 L 150.000 250.000 150.000 248.400 L 150.000 246.800 151.600 246.800 L 153.200 246.800 153.200 245.000 L 153.200 243.200 155.000 243.200 L 156.800 243.200 156.800 241.600 L 156.800 240.000 155.000 240.000 L 153.200 240.000 153.200 238.400 L 153.200 236.800 138.200 236.800 L 123.200 236.800 123.200 238.400 M230.000 238.400 L 230.000 240.000 233.400 240.000 L 236.800 240.000 236.800 238.400 L 236.800 236.800 233.400 236.800 L 230.000 236.800 230.000 238.400 M186.800 241.600 L 186.800 243.200 185.000 243.200 L 183.200 243.200 183.200 245.000 L 183.200 246.800 186.600 246.800 L 190.000 246.800 190.000 243.400 L 190.000 240.000 188.400 240.000 L 186.800 240.000 186.800 241.600 M206.800 241.600 L 206.800 243.200 205.000 243.200 L 203.200 243.200 203.200 245.000 L 203.200 246.800 205.000 246.800 L 206.800 246.800 206.800 245.000 L 206.800 243.200 213.400 243.200 L 220.000 243.200 220.000 241.600 L 220.000 240.000 213.400 240.000 L 206.800 240.000 206.800 241.600 M240.000 241.600 L 240.000 243.200 245.000 243.200 L 250.000 243.200 250.000 241.600 L 250.000 240.000 245.000 240.000 L 240.000 240.000 240.000 241.600 M273.200 241.600 L 273.200 243.200 275.000 243.200 L 276.800 243.200 276.800 241.600 L 276.800 240.000 275.000 240.000 L 273.200 240.000 273.200 241.600 M180.000 251.600 L 180.000 253.200 183.400 253.200 L 186.800 253.200 186.800 255.000 L 186.800 256.800 188.400 256.800 L 190.000 256.800 190.000 255.000 L 190.000 253.200 188.400 253.200 L 186.800 253.200 186.800 251.600 L 186.800 250.000 183.400 250.000 L 180.000 250.000 180.000 251.600 M206.800 255.000 L 206.800 256.800 215.000 256.800 L 223.200 256.800 223.200 255.000 L 223.200 253.200 215.000 253.200 L 206.800 253.200 206.800 255.000 M210.000 266.600 L 210.000 273.200 211.600 273.200 L 213.200 273.200 213.200 278.200 L 213.200 283.200 215.000 283.200 L 216.800 283.200 216.800 285.000 L 216.800 286.800 218.400 286.800 L 220.000 286.800 220.000 285.000 L 220.000 283.200 223.400 283.200 L 226.800 283.200 226.800 281.600 L 226.800 280.000 221.800 280.000 L 216.800 280.000 216.800 276.600 L 216.800 273.200 215.000 273.200 L 213.200 273.200 213.200 266.600 L 213.200 260.000 211.600 260.000 L 210.000 260.000 210.000 266.600 M170.000 266.600 L 170.000 270.000 168.400 270.000 L 166.800 270.000 166.800 273.400 L 166.800 276.800 171.800 276.800 L 176.800 276.800 176.800 275.000 L 176.800 273.200 173.400 273.200 L 170.000 273.200 170.000 271.600 L 170.000 270.000 171.600 270.000 L 173.200 270.000 173.200 266.600 L 173.200 263.200 171.600 263.200 L 170.000 263.200 170.000 266.600 " stroke="none" fill="#545454" fill-rule="evenodd"></path><path id="path4" d="M220.000 198.200 L 220.000 200.000 221.600 200.000 L 223.200 200.000 223.200 201.600 L 223.200 203.200 225.000 203.200 L 226.800 203.200 226.800 205.000 L 226.800 206.800 228.400 206.800 L 230.000 206.800 230.000 208.400 L 230.000 210.000 231.600 210.000 L 233.200 210.000 233.200 211.600 L 233.200 213.200 235.000 213.200 L 236.800 213.200 236.800 215.000 L 236.800 216.800 238.400 216.800 L 240.000 216.800 240.000 218.400 L 240.000 220.000 241.600 220.000 L 243.200 220.000 243.200 221.600 L 243.200 223.200 238.200 223.200 L 233.200 223.200 233.200 221.600 L 233.200 220.000 231.600 220.000 L 230.000 220.000 230.000 218.400 L 230.000 216.800 228.400 216.800 L 226.800 216.800 226.800 215.000 L 226.800 213.200 225.000 213.200 L 223.200 213.200 223.200 215.000 L 223.200 216.800 203.200 216.800 L 183.200 216.800 183.200 218.400 L 183.200 220.000 181.600 220.000 L 180.000 220.000 180.000 221.600 L 180.000 223.200 178.400 223.200 L 176.800 223.200 176.800 225.000 L 176.800 226.800 175.000 226.800 L 173.200 226.800 173.200 228.400 L 173.200 230.000 171.600 230.000 L 170.000 230.000 170.000 231.600 L 170.000 233.200 171.600 233.200 L 173.200 233.200 173.200 231.600 L 173.200 230.000 175.000 230.000 L 176.800 230.000 176.800 228.400 L 176.800 226.800 178.400 226.800 L 180.000 226.800 180.000 225.000 L 180.000 223.200 181.600 223.200 L 183.200 223.200 183.200 221.600 L 183.200 220.000 186.600 220.000 L 190.000 220.000 190.000 221.600 L 190.000 223.200 191.600 223.200 L 193.200 223.200 193.200 225.000 L 193.200 226.800 208.200 226.800 L 223.200 226.800 223.200 225.000 L 223.200 223.200 225.000 223.200 L 226.800 223.200 226.800 233.200 L 226.800 243.200 225.000 243.200 L 223.200 243.200 223.200 250.000 L 223.200 256.800 215.000 256.800 L 206.800 256.800 206.800 253.400 L 206.800 250.000 200.000 250.000 L 193.200 250.000 193.200 251.600 L 193.200 253.200 191.600 253.200 L 190.000 253.200 190.000 255.000 L 190.000 256.800 188.400 256.800 L 186.800 256.800 186.800 258.400 L 186.800 260.000 188.400 260.000 L 190.000 260.000 190.000 258.400 L 190.000 256.800 191.600 256.800 L 193.200 256.800 193.200 255.000 L 193.200 253.200 198.200 253.200 L 203.200 253.200 203.200 256.600 L 203.200 260.000 205.000 260.000 L 206.800 260.000 206.800 266.600 L 206.800 273.200 208.400 273.200 L 210.000 273.200 210.000 278.200 L 210.000 283.200 211.600 283.200 L 213.200 283.200 213.200 286.600 L 213.200 290.000 216.600 290.000 L 220.000 290.000 220.000 288.400 L 220.000 286.800 225.000 286.800 L 230.000 286.800 230.000 283.400 L 230.000 280.000 228.400 280.000 L 226.800 280.000 226.800 275.000 L 226.800 270.000 225.000 270.000 L 223.200 270.000 223.200 265.000 L 223.200 260.000 225.000 260.000 L 226.800 260.000 226.800 251.600 L 226.800 243.200 231.800 243.200 L 236.800 243.200 236.800 245.000 L 236.800 246.800 245.000 246.800 L 253.200 246.800 253.200 248.400 L 253.200 250.000 261.600 250.000 L 270.000 250.000 270.000 248.400 L 270.000 246.800 275.000 246.800 L 280.000 246.800 280.000 245.000 L 280.000 243.200 283.400 243.200 L 286.800 243.200 286.800 245.000 L 286.800 246.800 290.000 246.800 L 293.200 246.800 293.200 245.000 L 293.200 243.200 296.600 243.200 L 300.000 243.200 300.000 241.600 L 300.000 240.000 330.000 240.000 L 360.000 240.000 360.000 236.600 L 360.000 233.200 330.000 233.200 L 300.000 233.200 300.000 223.200 L 300.000 213.200 296.600 213.200 L 293.200 213.200 293.200 215.000 L 293.200 216.800 291.600 216.800 L 290.000 216.800 290.000 218.400 L 290.000 220.000 288.400 220.000 L 286.800 220.000 286.800 223.400 L 286.800 226.800 283.400 226.800 L 280.000 226.800 280.000 225.000 L 280.000 223.200 263.400 223.200 L 246.800 223.200 246.800 221.600 L 246.800 220.000 245.000 220.000 L 243.200 220.000 243.200 218.400 L 243.200 216.800 241.600 216.800 L 240.000 216.800 240.000 215.000 L 240.000 213.200 238.400 213.200 L 236.800 213.200 236.800 211.600 L 236.800 210.000 235.000 210.000 L 233.200 210.000 233.200 208.400 L 233.200 206.800 231.600 206.800 L 230.000 206.800 230.000 205.000 L 230.000 203.200 228.400 203.200 L 226.800 203.200 226.800 201.600 L 226.800 200.000 225.000 200.000 L 223.200 200.000 223.200 198.200 L 223.200 196.400 221.600 196.400 L 220.000 196.400 220.000 198.200 M296.800 220.000 L 296.800 223.200 295.000 223.200 L 293.200 223.200 293.200 225.000 L 293.200 226.800 291.600 226.800 L 290.000 226.800 290.000 225.000 L 290.000 223.200 291.600 223.200 L 293.200 223.200 293.200 220.000 L 293.200 216.800 295.000 216.800 L 296.800 216.800 296.800 220.000 M223.200 221.600 L 223.200 223.200 208.200 223.200 L 193.200 223.200 193.200 221.600 L 193.200 220.000 208.200 220.000 L 223.200 220.000 223.200 221.600 M233.200 225.000 L 233.200 226.800 231.600 226.800 L 230.000 226.800 230.000 225.000 L 230.000 223.200 231.600 223.200 L 233.200 223.200 233.200 225.000 M276.800 235.000 L 276.800 243.200 275.000 243.200 L 273.200 243.200 273.200 241.600 L 273.200 240.000 271.600 240.000 L 270.000 240.000 270.000 243.400 L 270.000 246.800 261.600 246.800 L 253.200 246.800 253.200 243.400 L 253.200 240.000 251.600 240.000 L 250.000 240.000 250.000 241.600 L 250.000 243.200 245.000 243.200 L 240.000 243.200 240.000 235.000 L 240.000 226.800 258.400 226.800 L 276.800 226.800 276.800 235.000 M120.000 248.400 L 120.000 266.800 123.400 266.800 L 126.800 266.800 126.800 263.400 L 126.800 260.000 128.400 260.000 L 130.000 260.000 130.000 258.400 L 130.000 256.800 135.000 256.800 L 140.000 256.800 140.000 255.000 L 140.000 253.200 145.000 253.200 L 150.000 253.200 150.000 251.600 L 150.000 250.000 151.600 250.000 L 153.200 250.000 153.200 248.400 L 153.200 246.800 155.000 246.800 L 156.800 246.800 156.800 245.000 L 156.800 243.200 158.400 243.200 L 160.000 243.200 160.000 241.600 L 160.000 240.000 158.400 240.000 L 156.800 240.000 156.800 241.600 L 156.800 243.200 155.000 243.200 L 153.200 243.200 153.200 245.000 L 153.200 246.800 151.600 246.800 L 150.000 246.800 150.000 248.400 L 150.000 250.000 145.000 250.000 L 140.000 250.000 140.000 251.600 L 140.000 253.200 135.000 253.200 L 130.000 253.200 130.000 255.000 L 130.000 256.800 128.400 256.800 L 126.800 256.800 126.800 258.400 L 126.800 260.000 125.000 260.000 L 123.200 260.000 123.200 246.600 L 123.200 233.200 140.000 233.200 L 156.800 233.200 156.800 231.600 L 156.800 230.000 138.400 230.000 L 120.000 230.000 120.000 248.400 M236.800 235.000 L 236.800 240.000 233.400 240.000 L 230.000 240.000 230.000 235.000 L 230.000 230.000 233.400 230.000 L 236.800 230.000 236.800 235.000 M243.200 233.400 L 243.200 236.800 245.000 236.800 L 246.800 236.800 246.800 233.400 L 246.800 230.000 245.000 230.000 L 243.200 230.000 243.200 233.400 M250.000 233.400 L 250.000 236.800 251.600 236.800 L 253.200 236.800 253.200 238.400 L 253.200 240.000 255.000 240.000 L 256.800 240.000 256.800 238.400 L 256.800 236.800 261.800 236.800 L 266.800 236.800 266.800 238.400 L 266.800 240.000 268.400 240.000 L 270.000 240.000 270.000 238.400 L 270.000 236.800 271.600 236.800 L 273.200 236.800 273.200 233.400 L 273.200 230.000 271.600 230.000 L 270.000 230.000 270.000 233.400 L 270.000 236.800 268.400 236.800 L 266.800 236.800 266.800 233.400 L 266.800 230.000 265.000 230.000 L 263.200 230.000 263.200 231.600 L 263.200 233.200 261.600 233.200 L 260.000 233.200 260.000 231.600 L 260.000 230.000 258.400 230.000 L 256.800 230.000 256.800 233.400 L 256.800 236.800 255.000 236.800 L 253.200 236.800 253.200 233.400 L 253.200 230.000 251.600 230.000 L 250.000 230.000 250.000 233.400 M296.800 231.600 L 296.800 233.200 290.000 233.200 L 283.200 233.200 283.200 231.600 L 283.200 230.000 290.000 230.000 L 296.800 230.000 296.800 231.600 M300.000 238.400 L 300.000 240.000 296.600 240.000 L 293.200 240.000 293.200 241.600 L 293.200 243.200 290.000 243.200 L 286.800 243.200 286.800 241.600 L 286.800 240.000 283.400 240.000 L 280.000 240.000 280.000 238.400 L 280.000 236.800 290.000 236.800 L 300.000 236.800 300.000 238.400 M176.800 250.000 L 176.800 253.200 178.400 253.200 L 180.000 253.200 180.000 250.000 L 180.000 246.800 178.400 246.800 L 176.800 246.800 176.800 250.000 M170.000 261.600 L 170.000 263.200 168.400 263.200 L 166.800 263.200 166.800 266.600 L 166.800 270.000 165.000 270.000 L 163.200 270.000 163.200 273.400 L 163.200 276.800 165.000 276.800 L 166.800 276.800 166.800 278.400 L 166.800 280.000 171.800 280.000 L 176.800 280.000 176.800 278.400 L 176.800 276.800 178.400 276.800 L 180.000 276.800 180.000 275.000 L 180.000 273.200 181.600 273.200 L 183.200 273.200 183.200 271.600 L 183.200 270.000 181.600 270.000 L 180.000 270.000 180.000 271.600 L 180.000 273.200 178.400 273.200 L 176.800 273.200 176.800 275.000 L 176.800 276.800 171.800 276.800 L 166.800 276.800 166.800 273.400 L 166.800 270.000 168.400 270.000 L 170.000 270.000 170.000 266.600 L 170.000 263.200 171.600 263.200 L 173.200 263.200 173.200 261.600 L 173.200 260.000 171.600 260.000 L 170.000 260.000 170.000 261.600 M220.000 265.000 L 220.000 270.000 221.600 270.000 L 223.200 270.000 223.200 275.000 L 223.200 280.000 225.000 280.000 L 226.800 280.000 226.800 281.600 L 226.800 283.200 223.400 283.200 L 220.000 283.200 220.000 285.000 L 220.000 286.800 218.400 286.800 L 216.800 286.800 216.800 285.000 L 216.800 283.200 215.000 283.200 L 213.200 283.200 213.200 278.200 L 213.200 273.200 211.600 273.200 L 210.000 273.200 210.000 266.600 L 210.000 260.000 215.000 260.000 L 220.000 260.000 220.000 265.000 " stroke="none" fill="#040404" fill-rule="evenodd"></path></g></svg>