<svg id="svg" version="1.1" xmlns="http://www.w3.org/2000/svg" xmlns:xlink="http://www.w3.org/1999/xlink" width="400" height="400" viewBox="0, 0, 400,400"><g id="svgg"><path id="path0" d="M266.800 168.200 L 266.800 170.000 265.000 170.000 L 263.200 170.000 263.200 171.600 L 263.200 173.200 261.600 173.200 L 260.000 173.200 260.000 175.000 L 260.000 176.800 258.400 176.800 L 256.800 176.800 256.800 180.000 L 256.800 183.200 255.000 183.200 L 253.200 183.200 253.200 185.000 L 253.200 186.800 251.600 186.800 L 250.000 186.800 250.000 188.400 L 250.000 190.000 248.400 190.000 L 246.800 190.000 246.800 191.600 L 246.800 193.200 245.000 193.200 L 243.200 193.200 243.200 191.600 L 243.200 190.000 230.000 190.000 L 216.800 190.000 216.800 191.600 L 216.800 193.200 230.000 193.200 L 243.200 193.200 243.200 195.000 L 243.200 196.800 241.600 196.800 L 240.000 196.800 240.000 198.400 L 240.000 200.000 238.400 200.000 L 236.800 200.000 236.800 201.600 L 236.800 203.200 235.000 203.200 L 233.200 203.200 233.200 205.000 L 233.200 206.800 231.600 206.800 L 230.000 206.800 230.000 208.400 L 230.000 210.000 228.400 210.000 L 226.800 210.000 226.800 211.600 L 226.800 213.200 225.000 213.200 L 223.200 213.200 223.200 215.000 L 223.200 216.800 221.600 216.800 L 220.000 216.800 220.000 218.400 L 220.000 220.000 218.400 220.000 L 216.800 220.000 216.800 221.600 L 216.800 223.200 215.000 223.200 L 213.200 223.200 213.200 225.000 L 213.200 226.800 211.600 226.800 L 210.000 226.800 210.000 228.400 L 210.000 230.000 208.400 230.000 L 206.800 230.000 206.800 231.600 L 206.800 233.200 205.000 233.200 L 203.200 233.200 203.200 235.000 L 203.200 236.800 201.600 236.800 L 200.000 236.800 200.000 238.400 L 200.000 240.000 198.400 240.000 L 196.800 240.000 196.800 241.600 L 196.800 243.200 195.000 243.200 L 193.200 243.200 193.200 241.600 L 193.200 240.000 191.600 240.000 L 190.000 240.000 190.000 238.400 L 190.000 236.800 183.400 236.800 L 176.800 236.800 176.800 238.400 L 176.800 240.000 175.000 240.000 L 173.200 240.000 173.200 241.600 L 173.200 243.200 175.000 243.200 L 176.800 243.200 176.800 241.600 L 176.800 240.000 183.400 240.000 L 190.000 240.000 190.000 241.600 L 190.000 243.200 191.600 243.200 L 193.200 243.200 193.200 248.200 L 193.200 253.200 195.000 253.200 L 196.800 253.200 196.800 255.000 L 196.800 256.800 198.400 256.800 L 200.000 256.800 200.000 258.400 L 200.000 260.000 201.600 260.000 L 203.200 260.000 203.200 266.600 L 203.200 273.200 201.600 273.200 L 200.000 273.200 200.000 275.000 L 200.000 276.800 196.600 276.800 L 193.200 276.800 193.200 273.400 L 193.200 270.000 195.000 270.000 L 196.800 270.000 196.800 265.000 L 196.800 260.000 193.400 260.000 L 190.000 260.000 190.000 261.600 L 190.000 263.200 191.600 263.200 L 193.200 263.200 193.200 266.600 L 193.200 270.000 191.600 270.000 L 190.000 270.000 190.000 273.400 L 190.000 276.800 191.600 276.800 L 193.200 276.800 193.200 278.400 L 193.200 280.000 196.600 280.000 L 200.000 280.000 200.000 278.400 L 200.000 276.800 201.600 276.800 L 203.200 276.800 203.200 275.000 L 203.200 273.200 205.000 273.200 L 206.800 273.200 206.800 266.600 L 206.800 260.000 205.000 260.000 L 203.200 260.000 203.200 258.400 L 203.200 256.800 205.000 256.800 L 206.800 256.800 206.800 255.000 L 206.800 253.200 208.400 253.200 L 210.000 253.200 210.000 251.600 L 210.000 250.000 211.600 250.000 L 213.200 250.000 213.200 248.400 L 213.200 246.800 215.000 246.800 L 216.800 246.800 216.800 245.000 L 216.800 243.200 218.400 243.200 L 220.000 243.200 220.000 241.600 L 220.000 240.000 221.600 240.000 L 223.200 240.000 223.200 238.400 L 223.200 236.800 225.000 236.800 L 226.800 236.800 226.800 240.000 L 226.800 243.200 228.400 243.200 L 230.000 243.200 230.000 245.000 L 230.000 246.800 233.400 246.800 L 236.800 246.800 236.800 248.400 L 236.800 250.000 238.400 250.000 L 240.000 250.000 240.000 255.000 L 240.000 260.000 241.600 260.000 L 243.200 260.000 243.200 261.600 L 243.200 263.200 246.600 263.200 L 250.000 263.200 250.000 260.000 L 250.000 256.800 255.000 256.800 L 260.000 256.800 260.000 255.000 L 260.000 253.200 261.600 253.200 L 263.200 253.200 263.200 246.600 L 263.200 240.000 265.000 240.000 L 266.800 240.000 266.800 236.600 L 266.800 233.200 263.400 233.200 L 260.000 233.200 260.000 231.600 L 260.000 230.000 256.600 230.000 L 253.200 230.000 253.200 231.600 L 253.200 233.200 251.600 233.200 L 250.000 233.200 250.000 235.000 L 250.000 236.800 246.600 236.800 L 243.200 236.800 243.200 235.000 L 243.200 233.200 240.000 233.200 L 236.800 233.200 236.800 231.600 L 236.800 230.000 238.400 230.000 L 240.000 230.000 240.000 225.000 L 240.000 220.000 241.600 220.000 L 243.200 220.000 243.200 218.400 L 243.200 216.800 245.000 216.800 L 246.800 216.800 246.800 215.000 L 246.800 213.200 248.400 213.200 L 250.000 213.200 250.000 211.600 L 250.000 210.000 251.600 210.000 L 253.200 210.000 253.200 208.400 L 253.200 206.800 255.000 206.800 L 256.800 206.800 256.800 205.000 L 256.800 203.200 260.000 203.200 L 263.200 203.200 263.200 205.000 L 263.200 206.800 265.000 206.800 L 266.800 206.800 266.800 208.400 L 266.800 210.000 268.400 210.000 L 270.000 210.000 270.000 213.400 L 270.000 216.800 271.600 216.800 L 273.200 216.800 273.200 218.400 L 273.200 220.000 275.000 220.000 L 276.800 220.000 276.800 228.400 L 276.800 236.800 278.400 236.800 L 280.000 236.800 280.000 248.400 L 280.000 260.000 278.400 260.000 L 276.800 260.000 276.800 263.400 L 276.800 266.800 275.000 266.800 L 273.200 266.800 273.200 270.000 L 273.200 273.200 271.600 273.200 L 270.000 273.200 270.000 276.600 L 270.000 280.000 268.400 280.000 L 266.800 280.000 266.800 281.600 L 266.800 283.200 265.000 283.200 L 263.200 283.200 263.200 285.000 L 263.200 286.800 261.600 286.800 L 260.000 286.800 260.000 288.400 L 260.000 290.000 263.400 290.000 L 266.800 290.000 266.800 286.600 L 266.800 283.200 268.400 283.200 L 270.000 283.200 270.000 281.600 L 270.000 280.000 271.600 280.000 L 273.200 280.000 273.200 276.600 L 273.200 273.200 275.000 273.200 L 276.800 273.200 276.800 271.600 L 276.800 270.000 278.400 270.000 L 280.000 270.000 280.000 265.000 L 280.000 260.000 281.800 260.000 L 283.600 260.000 283.600 246.600 L 283.600 233.200 281.800 233.200 L 280.000 233.200 280.000 226.600 L 280.000 220.000 278.400 220.000 L 276.800 220.000 276.800 218.400 L 276.800 216.800 275.000 216.800 L 273.200 216.800 273.200 213.400 L 273.200 210.000 271.600 210.000 L 270.000 210.000 270.000 206.600 L 270.000 203.200 266.600 203.200 L 263.200 203.200 263.200 200.000 L 263.200 196.800 265.000 196.800 L 266.800 196.800 266.800 195.000 L 266.800 193.200 268.400 193.200 L 270.000 193.200 270.000 190.000 L 270.000 186.800 271.600 186.800 L 273.200 186.800 273.200 185.000 L 273.200 183.200 275.000 183.200 L 276.800 183.200 276.800 181.600 L 276.800 180.000 278.400 180.000 L 280.000 180.000 280.000 173.200 L 280.000 166.400 273.400 166.400 L 266.800 166.400 266.800 168.200 M276.800 175.000 L 276.800 180.000 275.000 180.000 L 273.200 180.000 273.200 181.600 L 273.200 183.200 271.600 183.200 L 270.000 183.200 270.000 185.000 L 270.000 186.800 268.400 186.800 L 266.800 186.800 266.800 190.000 L 266.800 193.200 265.000 193.200 L 263.200 193.200 263.200 195.000 L 263.200 196.800 261.600 196.800 L 260.000 196.800 260.000 198.400 L 260.000 200.000 258.400 200.000 L 256.800 200.000 256.800 201.600 L 256.800 203.200 255.000 203.200 L 253.200 203.200 253.200 205.000 L 253.200 206.800 251.600 206.800 L 250.000 206.800 250.000 208.400 L 250.000 210.000 248.400 210.000 L 246.800 210.000 246.800 211.600 L 246.800 213.200 245.000 213.200 L 243.200 213.200 243.200 215.000 L 243.200 216.800 241.600 216.800 L 240.000 216.800 240.000 218.400 L 240.000 220.000 238.400 220.000 L 236.800 220.000 236.800 221.600 L 236.800 223.200 235.000 223.200 L 233.200 223.200 233.200 225.000 L 233.200 226.800 235.000 226.800 L 236.800 226.800 236.800 228.400 L 236.800 230.000 235.000 230.000 L 233.200 230.000 233.200 228.400 L 233.200 226.800 231.600 226.800 L 230.000 226.800 230.000 228.400 L 230.000 230.000 228.400 230.000 L 226.800 230.000 226.800 231.600 L 226.800 233.200 228.400 233.200 L 230.000 233.200 230.000 235.000 L 230.000 236.800 228.400 236.800 L 226.800 236.800 226.800 235.000 L 226.800 233.200 225.000 233.200 L 223.200 233.200 223.200 235.000 L 223.200 236.800 221.600 236.800 L 220.000 236.800 220.000 238.400 L 220.000 240.000 218.400 240.000 L 216.800 240.000 216.800 241.600 L 216.800 243.200 215.000 243.200 L 213.200 243.200 213.200 245.000 L 213.200 246.800 211.600 246.800 L 210.000 246.800 210.000 248.400 L 210.000 250.000 208.400 250.000 L 206.800 250.000 206.800 251.600 L 206.800 253.200 205.000 253.200 L 203.200 253.200 203.200 255.000 L 203.200 256.800 201.600 256.800 L 200.000 256.800 200.000 255.000 L 200.000 253.200 198.400 253.200 L 196.800 253.200 196.800 248.200 L 196.800 243.200 198.400 243.200 L 200.000 243.200 200.000 241.600 L 200.000 240.000 201.600 240.000 L 203.200 240.000 203.200 238.400 L 203.200 236.800 205.000 236.800 L 206.800 236.800 206.800 235.000 L 206.800 233.200 208.400 233.200 L 210.000 233.200 210.000 231.600 L 210.000 230.000 211.600 230.000 L 213.200 230.000 213.200 228.400 L 213.200 226.800 215.000 226.800 L 216.800 226.800 216.800 225.000 L 216.800 223.200 218.400 223.200 L 220.000 223.200 220.000 221.600 L 220.000 220.000 221.600 220.000 L 223.200 220.000 223.200 218.400 L 223.200 216.800 225.000 216.800 L 226.800 216.800 226.800 215.000 L 226.800 213.200 228.400 213.200 L 230.000 213.200 230.000 211.600 L 230.000 210.000 231.600 210.000 L 233.200 210.000 233.200 208.400 L 233.200 206.800 235.000 206.800 L 236.800 206.800 236.800 205.000 L 236.800 203.200 238.400 203.200 L 240.000 203.200 240.000 201.600 L 240.000 200.000 241.600 200.000 L 243.200 200.000 243.200 198.400 L 243.200 196.800 245.000 196.800 L 246.800 196.800 246.800 195.000 L 246.800 193.200 248.400 193.200 L 250.000 193.200 250.000 191.600 L 250.000 190.000 251.600 190.000 L 253.200 190.000 253.200 188.400 L 253.200 186.800 255.000 186.800 L 256.800 186.800 256.800 185.000 L 256.800 183.200 258.400 183.200 L 260.000 183.200 260.000 180.000 L 260.000 176.800 261.600 176.800 L 263.200 176.800 263.200 175.000 L 263.200 173.200 265.000 173.200 L 266.800 173.200 266.800 171.600 L 266.800 170.000 271.800 170.000 L 276.800 170.000 276.800 175.000 M236.800 235.000 L 236.800 236.800 240.000 236.800 L 243.200 236.800 243.200 238.400 L 243.200 240.000 245.000 240.000 L 246.800 240.000 246.800 241.600 L 246.800 243.200 248.400 243.200 L 250.000 243.200 250.000 241.600 L 250.000 240.000 251.600 240.000 L 253.200 240.000 253.200 236.600 L 253.200 233.200 256.600 233.200 L 260.000 233.200 260.000 235.000 L 260.000 236.800 261.600 236.800 L 263.200 236.800 263.200 238.400 L 263.200 240.000 260.000 240.000 L 256.800 240.000 256.800 241.600 L 256.800 243.200 258.400 243.200 L 260.000 243.200 260.000 248.200 L 260.000 253.200 256.600 253.200 L 253.200 253.200 253.200 251.600 L 253.200 250.000 255.000 250.000 L 256.800 250.000 256.800 246.600 L 256.800 243.200 255.000 243.200 L 253.200 243.200 253.200 245.000 L 253.200 246.800 251.600 246.800 L 250.000 246.800 250.000 250.000 L 250.000 253.200 248.400 253.200 L 246.800 253.200 246.800 255.000 L 246.800 256.800 245.000 256.800 L 243.200 256.800 243.200 253.400 L 243.200 250.000 245.000 250.000 L 246.800 250.000 246.800 246.600 L 246.800 243.200 245.000 243.200 L 243.200 243.200 243.200 245.000 L 243.200 246.800 240.000 246.800 L 236.800 246.800 236.800 245.000 L 236.800 243.200 235.000 243.200 L 233.200 243.200 233.200 238.200 L 233.200 233.200 235.000 233.200 L 236.800 233.200 236.800 235.000 M176.800 248.400 L 176.800 250.000 178.400 250.000 L 180.000 250.000 180.000 253.400 L 180.000 256.800 181.600 256.800 L 183.200 256.800 183.200 255.000 L 183.200 253.200 185.000 253.200 L 186.800 253.200 186.800 250.000 L 186.800 246.800 181.800 246.800 L 176.800 246.800 176.800 248.400 M166.800 268.400 L 166.800 270.000 165.000 270.000 L 163.200 270.000 163.200 271.600 L 163.200 273.200 161.600 273.200 L 160.000 273.200 160.000 276.600 L 160.000 280.000 161.600 280.000 L 163.200 280.000 163.200 281.600 L 163.200 283.200 166.600 283.200 L 170.000 283.200 170.000 281.600 L 170.000 280.000 171.600 280.000 L 173.200 280.000 173.200 278.400 L 173.200 276.800 175.000 276.800 L 176.800 276.800 176.800 275.000 L 176.800 273.200 175.000 273.200 L 173.200 273.200 173.200 271.600 L 173.200 270.000 171.600 270.000 L 170.000 270.000 170.000 268.400 L 170.000 266.800 168.400 266.800 L 166.800 266.800 166.800 268.400 M170.000 276.600 L 170.000 280.000 166.600 280.000 L 163.200 280.000 163.200 276.600 L 163.200 273.200 166.600 273.200 L 170.000 273.200 170.000 276.600 " stroke="none" fill="#040404" fill-rule="evenodd"></path><path id="path1" d="M266.800 171.600 L 266.800 173.200 265.000 173.200 L 263.200 173.200 263.200 175.000 L 263.200 176.800 261.600 176.800 L 260.000 176.800 260.000 180.000 L 260.000 183.200 258.400 183.200 L 256.800 183.200 256.800 185.000 L 256.800 186.800 255.000 186.800 L 253.200 186.800 253.200 188.400 L 253.200 190.000 251.600 190.000 L 250.000 190.000 250.000 191.600 L 250.000 193.200 248.400 193.200 L 246.800 193.200 246.800 195.000 L 246.800 196.800 245.000 196.800 L 243.200 196.800 243.200 198.400 L 243.200 200.000 241.600 200.000 L 240.000 200.000 240.000 198.400 L 240.000 196.800 230.000 196.800 L 220.000 196.800 220.000 203.400 L 220.000 210.000 221.600 210.000 L 223.200 210.000 223.200 205.000 L 223.200 200.000 231.600 200.000 L 240.000 200.000 240.000 201.600 L 240.000 203.200 238.400 203.200 L 236.800 203.200 236.800 205.000 L 236.800 206.800 235.000 206.800 L 233.200 206.800 233.200 208.400 L 233.200 210.000 231.600 210.000 L 230.000 210.000 230.000 211.600 L 230.000 213.200 228.400 213.200 L 226.800 213.200 226.800 215.000 L 226.800 216.800 225.000 216.800 L 223.200 216.800 223.200 218.400 L 223.200 220.000 221.600 220.000 L 220.000 220.000 220.000 221.600 L 220.000 223.200 218.400 223.200 L 216.800 223.200 216.800 225.000 L 216.800 226.800 215.000 226.800 L 213.200 226.800 213.200 228.400 L 213.200 230.000 211.600 230.000 L 210.000 230.000 210.000 231.600 L 210.000 233.200 208.400 233.200 L 206.800 233.200 206.800 235.000 L 206.800 236.800 205.000 236.800 L 203.200 236.800 203.200 238.400 L 203.200 240.000 201.600 240.000 L 200.000 240.000 200.000 241.600 L 200.000 243.200 198.400 243.200 L 196.800 243.200 196.800 246.600 L 196.800 250.000 198.400 250.000 L 200.000 250.000 200.000 248.400 L 200.000 246.800 201.600 246.800 L 203.200 246.800 203.200 245.000 L 203.200 243.200 205.000 243.200 L 206.800 243.200 206.800 241.600 L 206.800 240.000 208.400 240.000 L 210.000 240.000 210.000 238.400 L 210.000 236.800 211.600 236.800 L 213.200 236.800 213.200 235.000 L 213.200 233.200 215.000 233.200 L 216.800 233.200 216.800 231.600 L 216.800 230.000 218.400 230.000 L 220.000 230.000 220.000 228.400 L 220.000 226.800 221.600 226.800 L 223.200 226.800 223.200 225.000 L 223.200 223.200 225.000 223.200 L 226.800 223.200 226.800 221.600 L 226.800 220.000 228.400 220.000 L 230.000 220.000 230.000 218.400 L 230.000 216.800 231.600 216.800 L 233.200 216.800 233.200 215.000 L 233.200 213.200 235.000 213.200 L 236.800 213.200 236.800 211.600 L 236.800 210.000 238.400 210.000 L 240.000 210.000 240.000 208.400 L 240.000 206.800 241.600 206.800 L 243.200 206.800 243.200 205.000 L 243.200 203.200 245.000 203.200 L 246.800 203.200 246.800 201.600 L 246.800 200.000 248.400 200.000 L 250.000 200.000 250.000 198.400 L 250.000 196.800 251.600 196.800 L 253.200 196.800 253.200 195.000 L 253.200 193.200 255.000 193.200 L 256.800 193.200 256.800 191.600 L 256.800 190.000 258.400 190.000 L 260.000 190.000 260.000 188.400 L 260.000 186.800 261.600 186.800 L 263.200 186.800 263.200 185.000 L 263.200 183.200 265.000 183.200 L 266.800 183.200 266.800 180.000 L 266.800 176.800 268.400 176.800 L 270.000 176.800 270.000 175.000 L 270.000 173.200 271.600 173.200 L 273.200 173.200 273.200 171.600 L 273.200 170.000 270.000 170.000 L 266.800 170.000 266.800 171.600 M253.200 208.400 L 253.200 210.000 255.000 210.000 L 256.800 210.000 256.800 211.600 L 256.800 213.200 258.400 213.200 L 260.000 213.200 260.000 215.000 L 260.000 216.800 261.600 216.800 L 263.200 216.800 263.200 218.400 L 263.200 220.000 265.000 220.000 L 266.800 220.000 266.800 223.400 L 266.800 226.800 268.400 226.800 L 270.000 226.800 270.000 233.400 L 270.000 240.000 271.600 240.000 L 273.200 240.000 273.200 248.400 L 273.200 256.800 271.600 256.800 L 270.000 256.800 270.000 260.000 L 270.000 263.200 268.400 263.200 L 266.800 263.200 266.800 266.600 L 266.800 270.000 265.000 270.000 L 263.200 270.000 263.200 271.600 L 263.200 273.200 258.200 273.200 L 253.200 273.200 253.200 270.000 L 253.200 266.800 251.600 266.800 L 250.000 266.800 250.000 265.000 L 250.000 263.200 246.600 263.200 L 243.200 263.200 243.200 261.600 L 243.200 260.000 241.600 260.000 L 240.000 260.000 240.000 255.000 L 240.000 250.000 238.400 250.000 L 236.800 250.000 236.800 248.400 L 236.800 246.800 235.000 246.800 L 233.200 246.800 233.200 250.000 L 233.200 253.200 235.000 253.200 L 236.800 253.200 236.800 256.600 L 236.800 260.000 238.400 260.000 L 240.000 260.000 240.000 263.400 L 240.000 266.800 241.600 266.800 L 243.200 266.800 243.200 270.000 L 243.200 273.200 245.000 273.200 L 246.800 273.200 246.800 275.000 L 246.800 276.800 248.400 276.800 L 250.000 276.800 250.000 278.400 L 250.000 280.000 251.600 280.000 L 253.200 280.000 253.200 281.600 L 253.200 283.200 255.000 283.200 L 256.800 283.200 256.800 285.000 L 256.800 286.800 260.000 286.800 L 263.200 286.800 263.200 285.000 L 263.200 283.200 265.000 283.200 L 266.800 283.200 266.800 281.600 L 266.800 280.000 265.000 280.000 L 263.200 280.000 263.200 278.400 L 263.200 276.800 265.000 276.800 L 266.800 276.800 266.800 273.400 L 266.800 270.000 268.400 270.000 L 270.000 270.000 270.000 266.600 L 270.000 263.200 271.600 263.200 L 273.200 263.200 273.200 260.000 L 273.200 256.800 275.000 256.800 L 276.800 256.800 276.800 248.400 L 276.800 240.000 275.000 240.000 L 273.200 240.000 273.200 233.400 L 273.200 226.800 271.600 226.800 L 270.000 226.800 270.000 223.400 L 270.000 220.000 268.400 220.000 L 266.800 220.000 266.800 218.400 L 266.800 216.800 265.000 216.800 L 263.200 216.800 263.200 215.000 L 263.200 213.200 261.600 213.200 L 260.000 213.200 260.000 211.600 L 260.000 210.000 258.400 210.000 L 256.800 210.000 256.800 208.400 L 256.800 206.800 255.000 206.800 L 253.200 206.800 253.200 208.400 M173.200 245.000 L 173.200 246.800 180.000 246.800 L 186.800 246.800 186.800 245.000 L 186.800 243.200 180.000 243.200 L 173.200 243.200 173.200 245.000 M186.800 251.600 L 186.800 253.200 185.000 253.200 L 183.200 253.200 183.200 255.000 L 183.200 256.800 186.600 256.800 L 190.000 256.800 190.000 258.400 L 190.000 260.000 191.600 260.000 L 193.200 260.000 193.200 258.400 L 193.200 256.800 191.600 256.800 L 190.000 256.800 190.000 253.400 L 190.000 250.000 188.400 250.000 L 186.800 250.000 186.800 251.600 M196.800 266.600 L 196.800 270.000 195.000 270.000 L 193.200 270.000 193.200 271.600 L 193.200 273.200 196.600 273.200 L 200.000 273.200 200.000 268.200 L 200.000 263.200 198.400 263.200 L 196.800 263.200 196.800 266.600 M163.200 276.600 L 163.200 280.000 166.600 280.000 L 170.000 280.000 170.000 276.600 L 170.000 273.200 166.600 273.200 L 163.200 273.200 163.200 276.600 " stroke="none" fill="#545454" fill-rule="evenodd"></path><path id="path2" d="M223.200 201.600 L 223.200 203.200 230.000 203.200 L 236.800 203.200 236.800 201.600 L 236.800 200.000 230.000 200.000 L 223.200 200.000 223.200 201.600 M223.200 210.000 L 223.200 213.200 225.000 213.200 L 226.800 213.200 226.800 211.600 L 226.800 210.000 228.400 210.000 L 230.000 210.000 230.000 208.400 L 230.000 206.800 226.600 206.800 L 223.200 206.800 223.200 210.000 M253.200 211.600 L 253.200 213.200 255.000 213.200 L 256.800 213.200 256.800 215.000 L 256.800 216.800 258.400 216.800 L 260.000 216.800 260.000 218.400 L 260.000 220.000 261.600 220.000 L 263.200 220.000 263.200 221.600 L 263.200 223.200 265.000 223.200 L 266.800 223.200 266.800 221.600 L 266.800 220.000 265.000 220.000 L 263.200 220.000 263.200 218.400 L 263.200 216.800 261.600 216.800 L 260.000 216.800 260.000 215.000 L 260.000 213.200 258.400 213.200 L 256.800 213.200 256.800 211.600 L 256.800 210.000 255.000 210.000 L 253.200 210.000 253.200 211.600 M240.000 225.000 L 240.000 230.000 238.400 230.000 L 236.800 230.000 236.800 231.600 L 236.800 233.200 240.000 233.200 L 243.200 233.200 243.200 235.000 L 243.200 236.800 246.600 236.800 L 250.000 236.800 250.000 233.400 L 250.000 230.000 248.400 230.000 L 246.800 230.000 246.800 226.600 L 246.800 223.200 245.000 223.200 L 243.200 223.200 243.200 221.600 L 243.200 220.000 241.600 220.000 L 240.000 220.000 240.000 225.000 M266.800 233.400 L 266.800 240.000 268.400 240.000 L 270.000 240.000 270.000 248.400 L 270.000 256.800 271.600 256.800 L 273.200 256.800 273.200 248.400 L 273.200 240.000 271.600 240.000 L 270.000 240.000 270.000 233.400 L 270.000 226.800 268.400 226.800 L 266.800 226.800 266.800 233.400 M176.800 241.600 L 176.800 243.200 181.800 243.200 L 186.800 243.200 186.800 246.600 L 186.800 250.000 188.400 250.000 L 190.000 250.000 190.000 253.400 L 190.000 256.800 191.600 256.800 L 193.200 256.800 193.200 258.400 L 193.200 260.000 195.000 260.000 L 196.800 260.000 196.800 261.600 L 196.800 263.200 198.400 263.200 L 200.000 263.200 200.000 268.200 L 200.000 273.200 196.600 273.200 L 193.200 273.200 193.200 275.000 L 193.200 276.800 196.600 276.800 L 200.000 276.800 200.000 275.000 L 200.000 273.200 201.600 273.200 L 203.200 273.200 203.200 266.600 L 203.200 260.000 201.600 260.000 L 200.000 260.000 200.000 258.400 L 200.000 256.800 198.400 256.800 L 196.800 256.800 196.800 255.000 L 196.800 253.200 195.000 253.200 L 193.200 253.200 193.200 248.200 L 193.200 243.200 191.600 243.200 L 190.000 243.200 190.000 241.600 L 190.000 240.000 183.400 240.000 L 176.800 240.000 176.800 241.600 M250.000 261.800 L 250.000 266.800 251.600 266.800 L 253.200 266.800 253.200 270.000 L 253.200 273.200 258.200 273.200 L 263.200 273.200 263.200 270.000 L 263.200 266.800 261.600 266.800 L 260.000 266.800 260.000 263.400 L 260.000 260.000 258.400 260.000 L 256.800 260.000 256.800 258.400 L 256.800 256.800 253.400 256.800 L 250.000 256.800 250.000 261.800 M266.800 275.000 L 266.800 276.800 265.000 276.800 L 263.200 276.800 263.200 278.400 L 263.200 280.000 266.600 280.000 L 270.000 280.000 270.000 276.600 L 270.000 273.200 268.400 273.200 L 266.800 273.200 266.800 275.000 " stroke="none" fill="#74746a" fill-rule="evenodd"></path><path id="path3" d="M273.200 171.600 L 273.200 173.200 271.600 173.200 L 270.000 173.200 270.000 175.000 L 270.000 176.800 268.400 176.800 L 266.800 176.800 266.800 180.000 L 266.800 183.200 265.000 183.200 L 263.200 183.200 263.200 185.000 L 263.200 186.800 261.600 186.800 L 260.000 186.800 260.000 188.400 L 260.000 190.000 258.400 190.000 L 256.800 190.000 256.800 191.600 L 256.800 193.200 255.000 193.200 L 253.200 193.200 253.200 195.000 L 253.200 196.800 251.600 196.800 L 250.000 196.800 250.000 198.400 L 250.000 200.000 248.400 200.000 L 246.800 200.000 246.800 201.600 L 246.800 203.200 245.000 203.200 L 243.200 203.200 243.200 205.000 L 243.200 206.800 241.600 206.800 L 240.000 206.800 240.000 208.400 L 240.000 210.000 238.400 210.000 L 236.800 210.000 236.800 211.600 L 236.800 213.200 235.000 213.200 L 233.200 213.200 233.200 215.000 L 233.200 216.800 231.600 216.800 L 230.000 216.800 230.000 218.400 L 230.000 220.000 228.400 220.000 L 226.800 220.000 226.800 221.600 L 226.800 223.200 225.000 223.200 L 223.200 223.200 223.200 225.000 L 223.200 226.800 221.600 226.800 L 220.000 226.800 220.000 228.400 L 220.000 230.000 218.400 230.000 L 216.800 230.000 216.800 231.600 L 216.800 233.200 215.000 233.200 L 213.200 233.200 213.200 235.000 L 213.200 236.800 211.600 236.800 L 210.000 236.800 210.000 238.400 L 210.000 240.000 208.400 240.000 L 206.800 240.000 206.800 241.600 L 206.800 243.200 205.000 243.200 L 203.200 243.200 203.200 245.000 L 203.200 246.800 201.600 246.800 L 200.000 246.800 200.000 248.400 L 200.000 250.000 198.400 250.000 L 196.800 250.000 196.800 251.600 L 196.800 253.200 198.400 253.200 L 200.000 253.200 200.000 255.000 L 200.000 256.800 201.600 256.800 L 203.200 256.800 203.200 255.000 L 203.200 253.200 205.000 253.200 L 206.800 253.200 206.800 251.600 L 206.800 250.000 208.400 250.000 L 210.000 250.000 210.000 248.400 L 210.000 246.800 211.600 246.800 L 213.200 246.800 213.200 245.000 L 213.200 243.200 215.000 243.200 L 216.800 243.200 216.800 241.600 L 216.800 240.000 218.400 240.000 L 220.000 240.000 220.000 238.400 L 220.000 236.800 221.600 236.800 L 223.200 236.800 223.200 235.000 L 223.200 233.200 225.000 233.200 L 226.800 233.200 226.800 231.600 L 226.800 230.000 228.400 230.000 L 230.000 230.000 230.000 228.400 L 230.000 226.800 231.600 226.800 L 233.200 226.800 233.200 225.000 L 233.200 223.200 235.000 223.200 L 236.800 223.200 236.800 221.600 L 236.800 220.000 238.400 220.000 L 240.000 220.000 240.000 218.400 L 240.000 216.800 241.600 216.800 L 243.200 216.800 243.200 220.000 L 243.200 223.200 245.000 223.200 L 246.800 223.200 246.800 226.600 L 246.800 230.000 248.400 230.000 L 250.000 230.000 250.000 231.600 L 250.000 233.200 251.600 233.200 L 253.200 233.200 253.200 231.600 L 253.200 230.000 256.600 230.000 L 260.000 230.000 260.000 231.600 L 260.000 233.200 263.400 233.200 L 266.800 233.200 266.800 228.200 L 266.800 223.200 265.000 223.200 L 263.200 223.200 263.200 221.600 L 263.200 220.000 261.600 220.000 L 260.000 220.000 260.000 218.400 L 260.000 216.800 258.400 216.800 L 256.800 216.800 256.800 215.000 L 256.800 213.200 255.000 213.200 L 253.200 213.200 253.200 211.600 L 253.200 210.000 251.600 210.000 L 250.000 210.000 250.000 208.400 L 250.000 206.800 251.600 206.800 L 253.200 206.800 253.200 205.000 L 253.200 203.200 255.000 203.200 L 256.800 203.200 256.800 206.600 L 256.800 210.000 258.400 210.000 L 260.000 210.000 260.000 211.600 L 260.000 213.200 261.600 213.200 L 263.200 213.200 263.200 215.000 L 263.200 216.800 265.000 216.800 L 266.800 216.800 266.800 218.400 L 266.800 220.000 268.400 220.000 L 270.000 220.000 270.000 223.400 L 270.000 226.800 271.600 226.800 L 273.200 226.800 273.200 233.400 L 273.200 240.000 275.000 240.000 L 276.800 240.000 276.800 248.400 L 276.800 256.800 275.000 256.800 L 273.200 256.800 273.200 260.000 L 273.200 263.200 271.600 263.200 L 270.000 263.200 270.000 251.600 L 270.000 240.000 266.600 240.000 L 263.200 240.000 263.200 246.600 L 263.200 253.200 261.600 253.200 L 260.000 253.200 260.000 255.000 L 260.000 256.800 258.400 256.800 L 256.800 256.800 256.800 258.400 L 256.800 260.000 258.400 260.000 L 260.000 260.000 260.000 263.400 L 260.000 266.800 261.600 266.800 L 263.200 266.800 263.200 268.400 L 263.200 270.000 265.000 270.000 L 266.800 270.000 266.800 271.600 L 266.800 273.200 270.000 273.200 L 273.200 273.200 273.200 270.000 L 273.200 266.800 275.000 266.800 L 276.800 266.800 276.800 263.400 L 276.800 260.000 278.400 260.000 L 280.000 260.000 280.000 248.400 L 280.000 236.800 278.400 236.800 L 276.800 236.800 276.800 228.400 L 276.800 220.000 275.000 220.000 L 273.200 220.000 273.200 218.400 L 273.200 216.800 271.600 216.800 L 270.000 216.800 270.000 213.400 L 270.000 210.000 268.400 210.000 L 266.800 210.000 266.800 208.400 L 266.800 206.800 265.000 206.800 L 263.200 206.800 263.200 205.000 L 263.200 203.200 260.000 203.200 L 256.800 203.200 256.800 201.600 L 256.800 200.000 258.400 200.000 L 260.000 200.000 260.000 198.400 L 260.000 196.800 261.600 196.800 L 263.200 196.800 263.200 195.000 L 263.200 193.200 265.000 193.200 L 266.800 193.200 266.800 190.000 L 266.800 186.800 268.400 186.800 L 270.000 186.800 270.000 185.000 L 270.000 183.200 271.600 183.200 L 273.200 183.200 273.200 181.600 L 273.200 180.000 275.000 180.000 L 276.800 180.000 276.800 175.000 L 276.800 170.000 275.000 170.000 L 273.200 170.000 273.200 171.600 M220.000 195.000 L 220.000 196.800 231.600 196.800 L 243.200 196.800 243.200 195.000 L 243.200 193.200 231.600 193.200 L 220.000 193.200 220.000 195.000 M223.200 205.000 L 223.200 206.800 228.200 206.800 L 233.200 206.800 233.200 205.000 L 233.200 203.200 228.200 203.200 L 223.200 203.200 223.200 205.000 M250.000 211.600 L 250.000 213.200 248.400 213.200 L 246.800 213.200 246.800 215.000 L 246.800 216.800 245.000 216.800 L 243.200 216.800 243.200 215.000 L 243.200 213.200 245.000 213.200 L 246.800 213.200 246.800 211.600 L 246.800 210.000 248.400 210.000 L 250.000 210.000 250.000 211.600 M270.000 266.600 L 270.000 270.000 268.400 270.000 L 266.800 270.000 266.800 266.600 L 266.800 263.200 268.400 263.200 L 270.000 263.200 270.000 266.600 " stroke="none" fill="#8b8b8b" fill-rule="evenodd"></path><path id="path4" d="M233.200 228.400 L 233.200 230.000 235.000 230.000 L 236.800 230.000 236.800 228.400 L 236.800 226.800 235.000 226.800 L 233.200 226.800 233.200 228.400 M226.800 235.000 L 226.800 236.800 228.400 236.800 L 230.000 236.800 230.000 235.000 L 230.000 233.200 228.400 233.200 L 226.800 233.200 226.800 235.000 M233.200 238.200 L 233.200 243.200 235.000 243.200 L 236.800 243.200 236.800 245.000 L 236.800 246.800 240.000 246.800 L 243.200 246.800 243.200 245.000 L 243.200 243.200 245.000 243.200 L 246.800 243.200 246.800 246.600 L 246.800 250.000 245.000 250.000 L 243.200 250.000 243.200 253.400 L 243.200 256.800 245.000 256.800 L 246.800 256.800 246.800 255.000 L 246.800 253.200 248.400 253.200 L 250.000 253.200 250.000 250.000 L 250.000 246.800 251.600 246.800 L 253.200 246.800 253.200 245.000 L 253.200 243.200 255.000 243.200 L 256.800 243.200 256.800 246.600 L 256.800 250.000 255.000 250.000 L 253.200 250.000 253.200 251.600 L 253.200 253.200 256.600 253.200 L 260.000 253.200 260.000 248.200 L 260.000 243.200 258.400 243.200 L 256.800 243.200 256.800 241.600 L 256.800 240.000 260.000 240.000 L 263.200 240.000 263.200 238.400 L 263.200 236.800 261.600 236.800 L 260.000 236.800 260.000 235.000 L 260.000 233.200 256.600 233.200 L 253.200 233.200 253.200 236.600 L 253.200 240.000 251.600 240.000 L 250.000 240.000 250.000 241.600 L 250.000 243.200 248.400 243.200 L 246.800 243.200 246.800 241.600 L 246.800 240.000 245.000 240.000 L 243.200 240.000 243.200 238.400 L 243.200 236.800 240.000 236.800 L 236.800 236.800 236.800 235.000 L 236.800 233.200 235.000 233.200 L 233.200 233.200 233.200 238.200 " stroke="none" fill="#c53b0f" fill-rule="evenodd"></path></g></svg>