<svg id="svg" version="1.1" xmlns="http://www.w3.org/2000/svg" xmlns:xlink="http://www.w3.org/1999/xlink" width="400" height="400" viewBox="0, 0, 400,400"><g id="svgg"><path id="path0" d="M156.800 171.600 L 156.800 173.200 158.400 173.200 L 160.000 173.200 160.000 171.600 L 160.000 170.000 158.400 170.000 L 156.800 170.000 156.800 171.600 M213.200 171.600 L 213.200 173.200 211.600 173.200 C 209.841 173.200,209.049 175.950,210.633 176.557 C 212.529 177.285,213.200 176.878,213.200 175.000 L 213.200 173.200 214.800 173.200 L 216.400 173.200 216.400 171.600 L 216.400 170.000 214.800 170.000 L 213.200 170.000 213.200 171.600 M166.800 175.000 C 166.800 176.333,166.867 176.400,168.200 176.400 C 169.533 176.400,169.600 176.333,169.600 175.000 C 169.600 173.667,169.533 173.600,168.200 173.600 C 166.867 173.600,166.800 173.667,166.800 175.000 M176.800 178.400 C 176.800 179.962,176.833 180.000,178.200 180.000 C 179.567 180.000,179.600 179.962,179.600 178.400 C 179.600 176.838,179.567 176.800,178.200 176.800 C 176.833 176.800,176.800 176.838,176.800 178.400 M183.600 178.200 C 183.600 179.533,183.667 179.600,185.000 179.600 C 186.333 179.600,186.400 179.533,186.400 178.200 C 186.400 176.867,186.333 176.800,185.000 176.800 C 183.667 176.800,183.600 176.867,183.600 178.200 M190.000 178.200 C 190.000 179.567,190.038 179.600,191.600 179.600 C 193.162 179.600,193.200 179.567,193.200 178.200 C 193.200 176.833,193.162 176.800,191.600 176.800 C 190.038 176.800,190.000 176.833,190.000 178.200 M196.800 178.400 C 196.800 179.962,196.833 180.000,198.200 180.000 C 199.567 180.000,199.600 179.962,199.600 178.400 C 199.600 176.838,199.567 176.800,198.200 176.800 C 196.833 176.800,196.800 176.838,196.800 178.400 M203.600 178.400 C 203.600 179.962,203.633 180.000,205.000 180.000 C 206.367 180.000,206.400 179.962,206.400 178.400 C 206.400 176.838,206.367 176.800,205.000 176.800 C 203.633 176.800,203.600 176.838,203.600 178.400 " stroke="none" fill="#fcfcfc" fill-rule="evenodd"></path><path id="path1" d="M216.509 171.600 C 216.509 172.590,216.587 172.995,216.682 172.500 C 216.778 172.005,216.778 171.195,216.682 170.700 C 216.587 170.205,216.509 170.610,216.509 171.600 M168.100 173.491 C 169.506 173.639,169.600 173.733,169.600 175.000 C 169.600 176.267,169.506 176.361,168.100 176.509 L 166.600 176.666 168.300 176.733 L 170.000 176.800 170.000 175.000 L 170.000 173.200 168.300 173.267 L 166.600 173.334 168.100 173.491 M179.709 178.400 C 179.709 179.390,179.787 179.795,179.882 179.300 C 179.978 178.805,179.978 177.995,179.882 177.500 C 179.787 177.005,179.709 177.410,179.709 178.400 M183.267 178.300 L 183.200 180.000 185.000 180.000 L 186.800 180.000 186.733 178.300 L 186.666 176.600 186.509 178.100 C 186.361 179.506,186.267 179.600,185.000 179.600 C 183.733 179.600,183.639 179.506,183.491 178.100 L 183.334 176.600 183.267 178.300 M199.709 178.400 C 199.709 179.390,199.787 179.795,199.882 179.300 C 199.978 178.805,199.978 177.995,199.882 177.500 C 199.787 177.005,199.709 177.410,199.709 178.400 M203.309 178.400 C 203.309 179.390,203.387 179.795,203.482 179.300 C 203.578 178.805,203.578 177.995,203.482 177.500 C 203.387 177.005,203.309 177.410,203.309 178.400 M206.509 178.400 C 206.509 179.390,206.587 179.795,206.682 179.300 C 206.778 178.805,206.778 177.995,206.682 177.500 C 206.587 177.005,206.509 177.410,206.509 178.400 M190.700 179.882 C 191.195 179.978,192.005 179.978,192.500 179.882 C 192.995 179.787,192.590 179.709,191.600 179.709 C 190.610 179.709,190.205 179.787,190.700 179.882 " stroke="none" fill="#dcdcdc" fill-rule="evenodd"></path><path id="path2" d="M212.800 171.200 L 212.800 172.800 211.200 172.800 L 209.600 172.800 209.672 174.900 L 209.744 177.000 209.894 175.100 L 210.044 173.200 211.622 173.200 L 213.200 173.200 213.200 174.967 C 213.200 176.006,212.994 176.816,212.700 176.935 C 212.401 177.056,212.482 177.150,212.900 177.168 C 213.466 177.194,213.600 176.861,213.600 175.423 L 213.600 173.646 215.300 173.493 L 217.000 173.340 215.100 173.270 L 213.200 173.200 213.200 171.622 L 213.200 170.044 215.100 169.894 L 217.000 169.744 214.900 169.672 L 212.800 169.600 212.800 171.200 " stroke="none" fill="#3c3c3c" fill-rule="evenodd"></path><path id="path3" d="M153.200 171.800 L 153.200 176.800 158.200 176.800 L 163.200 176.800 163.200 178.400 L 163.200 180.000 168.200 180.000 L 173.200 180.000 173.200 181.600 L 173.200 183.200 191.800 183.200 L 210.400 183.200 210.400 181.600 C 210.400 180.038,210.433 180.000,211.800 180.000 C 213.125 180.000,213.200 179.927,213.200 178.643 C 213.200 177.169,212.713 176.800,210.767 176.800 C 209.651 176.800,209.600 176.722,209.600 175.004 L 209.600 173.208 191.705 173.104 C 174.158 173.002,173.808 172.984,173.690 172.200 C 173.268 169.408,173.658 169.600,168.392 169.600 L 163.600 169.600 163.600 168.200 L 163.600 166.800 158.400 166.800 L 153.200 166.800 153.200 171.800 M213.200 168.200 C 213.200 169.593,213.210 169.600,215.000 169.600 L 216.800 169.600 216.800 171.600 L 216.800 173.600 215.200 173.600 L 213.600 173.600 213.600 175.200 L 213.600 176.800 216.800 176.800 L 220.000 176.800 220.000 171.800 L 220.000 166.800 216.600 166.800 L 213.200 166.800 213.200 168.200 M160.000 171.600 L 160.000 173.200 158.400 173.200 L 156.800 173.200 156.800 171.600 L 156.800 170.000 158.400 170.000 L 160.000 170.000 160.000 171.600 M210.000 171.400 C 210.000 172.733,210.067 172.800,211.400 172.800 C 212.733 172.800,212.800 172.733,212.800 171.400 C 212.800 170.067,212.733 170.000,211.400 170.000 C 210.067 170.000,210.000 170.067,210.000 171.400 M170.000 175.000 L 170.000 176.800 168.400 176.800 L 166.800 176.800 166.800 175.000 L 166.800 173.200 168.400 173.200 L 170.000 173.200 170.000 175.000 M180.000 178.400 L 180.000 180.000 178.400 180.000 L 176.800 180.000 176.800 178.400 L 176.800 176.800 178.400 176.800 L 180.000 176.800 180.000 178.400 M186.800 178.400 L 186.800 180.000 185.000 180.000 L 183.200 180.000 183.200 178.400 L 183.200 176.800 185.000 176.800 L 186.800 176.800 186.800 178.400 M193.200 178.400 L 193.200 180.000 191.600 180.000 L 190.000 180.000 190.000 178.400 L 190.000 176.800 191.600 176.800 L 193.200 176.800 193.200 178.400 M200.000 178.400 L 200.000 180.000 198.400 180.000 L 196.800 180.000 196.800 178.400 L 196.800 176.800 198.400 176.800 L 200.000 176.800 200.000 178.400 M206.800 178.400 L 206.800 180.000 205.000 180.000 L 203.200 180.000 203.200 178.400 L 203.200 176.800 205.000 176.800 L 206.800 176.800 206.800 178.400 " stroke="none" fill="#040404" fill-rule="evenodd"></path><path id="path4" d="" stroke="none" fill="#401c84" fill-rule="evenodd"></path></g></svg>