<svg id="svg" version="1.1" xmlns="http://www.w3.org/2000/svg" xmlns:xlink="http://www.w3.org/1999/xlink" width="400" height="400" viewBox="0, 0, 400,400"><g id="svgg"><path id="path0" d="M156.800 190.000 L 156.800 196.800 163.400 196.800 L 170.000 196.800 170.000 190.000 L 170.000 183.200 163.400 183.200 L 156.800 183.200 156.800 190.000 M216.800 193.400 L 216.800 200.000 223.400 200.000 L 230.000 200.000 230.000 193.400 L 230.000 186.800 223.400 186.800 L 216.800 186.800 216.800 193.400 M176.800 203.400 L 176.800 210.000 183.400 210.000 L 190.000 210.000 190.000 203.400 L 190.000 196.800 183.400 196.800 L 176.800 196.800 176.800 203.400 M196.800 203.400 L 196.800 210.000 203.400 210.000 L 210.000 210.000 210.000 203.400 L 210.000 196.800 203.400 196.800 L 196.800 196.800 196.800 203.400 " stroke="none" fill="#9c84ec" fill-rule="evenodd"></path><path id="path1" d="M226.800 181.600 L 226.800 183.200 228.400 183.200 L 230.000 183.200 230.000 188.200 L 230.000 193.200 231.800 193.200 L 233.600 193.200 233.600 186.600 L 233.600 180.000 230.200 180.000 L 226.800 180.000 226.800 181.600 M140.000 188.200 L 140.000 193.200 148.400 193.200 L 156.800 193.200 156.800 191.600 L 156.800 190.000 150.000 190.000 L 143.200 190.000 143.200 188.400 L 143.200 186.800 145.000 186.800 L 146.800 186.800 146.800 185.000 L 146.800 183.200 143.400 183.200 L 140.000 183.200 140.000 188.200 M160.000 201.800 L 160.000 206.800 168.400 206.800 L 176.800 206.800 176.800 205.000 L 176.800 203.200 170.000 203.200 L 163.200 203.200 163.200 200.000 L 163.200 196.800 161.600 196.800 L 160.000 196.800 160.000 201.800 M213.200 198.400 L 213.200 200.000 211.600 200.000 L 210.000 200.000 210.000 201.600 L 210.000 203.200 211.600 203.200 L 213.200 203.200 213.200 201.600 L 213.200 200.000 215.000 200.000 L 216.800 200.000 216.800 198.400 L 216.800 196.800 215.000 196.800 L 213.200 196.800 213.200 198.400 M190.000 205.000 L 190.000 206.800 193.400 206.800 L 196.800 206.800 196.800 205.000 L 196.800 203.200 193.400 203.200 L 190.000 203.200 190.000 205.000 " stroke="none" fill="#bcbcbc" fill-rule="evenodd"></path><path id="path2" d="M146.800 183.200 L 146.800 190.000 150.000 190.000 L 153.200 190.000 153.200 183.200 L 153.200 176.400 150.000 176.400 L 146.800 176.400 146.800 183.200 M220.000 181.600 L 220.000 186.800 223.400 186.800 L 226.800 186.800 226.800 181.600 L 226.800 176.400 223.400 176.400 L 220.000 176.400 220.000 181.600 " stroke="none" fill="#7c6cc4" fill-rule="evenodd"></path><path id="path3" d="M153.200 188.400 L 153.200 190.000 155.000 190.000 L 156.800 190.000 156.800 188.400 L 156.800 186.800 155.000 186.800 L 153.200 186.800 153.200 188.400 M213.200 193.400 L 213.200 196.800 215.000 196.800 L 216.800 196.800 216.800 193.400 L 216.800 190.000 215.000 190.000 L 213.200 190.000 213.200 193.400 M153.200 196.600 L 153.200 200.000 156.600 200.000 L 160.000 200.000 160.000 198.400 L 160.000 196.800 158.400 196.800 L 156.800 196.800 156.800 195.000 L 156.800 193.200 155.000 193.200 L 153.200 193.200 153.200 196.600 M163.200 198.400 L 163.200 200.000 165.000 200.000 L 166.800 200.000 166.800 198.400 L 166.800 196.800 165.000 196.800 L 163.200 196.800 163.200 198.400 M173.200 201.600 L 173.200 203.200 175.000 203.200 L 176.800 203.200 176.800 201.600 L 176.800 200.000 175.000 200.000 L 173.200 200.000 173.200 201.600 M193.200 201.600 L 193.200 203.200 195.000 203.200 L 196.800 203.200 196.800 201.600 L 196.800 200.000 195.000 200.000 L 193.200 200.000 193.200 201.600 M213.200 201.600 L 213.200 203.200 220.000 203.200 L 226.800 203.200 226.800 201.600 L 226.800 200.000 220.000 200.000 L 213.200 200.000 213.200 201.600 M173.200 210.200 L 173.200 213.600 180.000 213.600 L 186.800 213.600 186.800 211.800 L 186.800 210.000 181.800 210.000 L 176.800 210.000 176.800 208.400 L 176.800 206.800 175.000 206.800 L 173.200 206.800 173.200 210.200 M193.200 210.200 L 193.200 213.600 200.000 213.600 L 206.800 213.600 206.800 211.800 L 206.800 210.000 201.800 210.000 L 196.800 210.000 196.800 208.400 L 196.800 206.800 195.000 206.800 L 193.200 206.800 193.200 210.200 " stroke="none" fill="#644cb4" fill-rule="evenodd"></path><path id="path4" d="" stroke="none" fill="#8c88f0" fill-rule="evenodd"></path></g></svg>