<svg width="1394" height="752" viewBox="0 0 1394 752" fill="none" xmlns="http://www.w3.org/2000/svg">
<path d="M449.258 61.2394H443.145V67.3521H449.258V61.2394Z" fill="#D2ED65"/>
<path d="M492.048 440.225H485.936V446.338H492.048V440.225Z" fill="#D2ED65"/>
<path d="M443.145 336.31H437.032V342.423H443.145V336.31Z" fill="#71DDF0"/>
<path d="M351.452 49.0141H345.339V55.1267H351.452V49.0141Z" fill="#71DDF0"/>
<path d="M424.806 379.099H418.693V385.211H424.806V379.099Z" fill="#D2ED65"/>
<path d="M388.129 42.9014H382.016V49.0141H388.129V42.9014Z" fill="#00AEC9"/>
<path d="M345.338 623.606H339.226V629.718H345.338V623.606Z" fill="#00AEC9"/>
<path d="M192.516 79.5775H186.403V85.6901H192.516V79.5775Z" fill="#00AEC9"/>
<path d="M259.758 49.0141H253.645V55.1267H259.758V49.0141Z" fill="#D2ED65"/>
<path d="M467.597 434.113H461.484V440.225H467.597V434.113Z" fill="#D2ED65"/>
<path d="M223.081 660.282H216.968V666.394H223.081V660.282Z" fill="#00AEC9"/>
<path d="M161.952 110.141H155.839V116.254H161.952V110.141Z" fill="#D2ED65"/>
<path d="M174.177 140.704H168.064V146.817H174.177V140.704Z" fill="#00AEC9"/>
<path d="M339.226 348.535H333.113V354.648H339.226V348.535Z" fill="#D2ED65"/>
<path d="M400.355 317.972H394.242V324.085H400.355V317.972Z" fill="#00AEC9"/>
<path d="M363.677 238.507H357.564V244.62H363.677V238.507Z" fill="#00AEC9"/>
<path d="M308.661 428H302.548V434.113H308.661V428Z" fill="#00AEC9"/>
<path d="M192.516 293.521H186.403V299.634H192.516V293.521Z" fill="#71DDF0"/>
<path d="M119.161 641.944H113.048V648.056H119.161V641.944Z" fill="#00AEC9"/>
<path d="M430.92 97.9155H424.807V104.028H430.92V97.9155Z" fill="#00AEC9"/>
<path d="M149.726 12.338H143.613V18.4507H149.726V12.338Z" fill="#D2ED65"/>
<path d="M339.226 207.944H333.113V214.056H339.226V207.944Z" fill="#71DDF0"/>
<path d="M479.822 97.9155H473.709V104.028H479.822V97.9155Z" fill="#71DDF0"/>
<path d="M424.806 672.507H418.693V678.62H424.806V672.507Z" fill="#71DDF0"/>
<path d="M76.3712 403.549H70.2583V409.662H76.3712V403.549Z" fill="#00AEC9"/>
<path d="M45.8063 238.507H39.6934V244.62H45.8063V238.507Z" fill="#D2ED65"/>
<path d="M492.048 366.873H485.936V372.986H492.048V366.873Z" fill="#00AEC9"/>
<path d="M3.01622 415.775H-3.09668V421.887H3.01622V415.775Z" fill="#D2ED65"/>
<path d="M296.436 623.606H290.323V629.718H296.436V623.606Z" fill="#00AEC9"/>
<path d="M382.016 116.254H375.903V122.366H382.016V116.254Z" fill="#71DDF0"/>
<path d="M461.484 593.042H455.371V599.155H461.484V593.042Z" fill="#D2ED65"/>
<path d="M100.822 715.296H94.7095V721.408H100.822V715.296Z" fill="#D2ED65"/>
<path d="M320.887 464.676H314.774V470.789H320.887V464.676Z" fill="#D2ED65"/>
<path d="M210.855 12.338H204.742V18.4507H210.855V12.338Z" fill="#71DDF0"/>
<path d="M400.355 403.549H394.242V409.662H400.355V403.549Z" fill="#71DDF0"/>
<path d="M424.806 256.845H418.693V262.958H424.806V256.845Z" fill="#71DDF0"/>
<path d="M265.871 715.296H259.758V721.408H265.871V715.296Z" fill="#D2ED65"/>
<path d="M51.9195 0.112671H45.8066V6.22535H51.9195V0.112671Z" fill="#71DDF0"/>
<path d="M437.032 464.676H430.919V470.789H437.032V464.676Z" fill="#D2ED65"/>
<path d="M302.548 42.9014H296.436V49.0141H302.548V42.9014Z" fill="#71DDF0"/>
<path d="M302.548 104.028H296.436V110.141H302.548V104.028Z" fill="#D2ED65"/>
<path d="M498.161 696.958H492.048V703.07H498.161V696.958Z" fill="#D2ED65"/>
<path d="M382.016 635.831H375.903V641.944H382.016V635.831Z" fill="#D2ED65"/>
<path d="M82.484 195.718H76.3711V201.831H82.484V195.718Z" fill="#00AEC9"/>
<path d="M58.0323 42.9014H51.9194V49.0141H58.0323V42.9014Z" fill="#71DDF0"/>
<path d="M265.871 18.4507H259.758V24.5634H265.871V18.4507Z" fill="#D2ED65"/>
<path d="M106.936 226.282H100.823V232.394H106.936V226.282Z" fill="#00AEC9"/>
<path d="M88.5968 171.268H82.4839V177.38H88.5968V171.268Z" fill="#00AEC9"/>
<path d="M21.3546 470.789H15.2417V476.901H21.3546V470.789Z" fill="#00AEC9"/>
<path d="M198.629 171.268H192.516V177.38H198.629V171.268Z" fill="#D2ED65"/>
<path d="M143.613 177.38H137.5V183.493H143.613V177.38Z" fill="#00AEC9"/>
<path d="M259.758 580.817H253.645V586.93H259.758V580.817Z" fill="#D2ED65"/>
<path d="M94.7096 61.2394H88.5967V67.3521H94.7096V61.2394Z" fill="#71DDF0"/>
<path d="M45.8063 684.732H39.6934V690.845H45.8063V684.732Z" fill="#D2ED65"/>
<path d="M198.629 727.521H192.516V733.634H198.629V727.521Z" fill="#D2ED65"/>
<path d="M479.822 660.282H473.709V666.394H479.822V660.282Z" fill="#D2ED65"/>
<path d="M357.565 403.549H351.452V409.662H357.565V403.549Z" fill="#D2ED65"/>
<path d="M271.984 354.648H265.871V360.761H271.984V354.648Z" fill="#D2ED65"/>
<path d="M15.2418 207.944H9.12891V214.056H15.2418V207.944Z" fill="#71DDF0"/>
<path d="M229.193 336.31H223.081V342.423H229.193V336.31Z" fill="#00AEC9"/>
<path d="M39.6935 745.859H33.5806V751.972H39.6935V745.859Z" fill="#D2ED65"/>
<path d="M70.2579 281.296H64.145V287.408H70.2579V281.296Z" fill="#00AEC9"/>
<path d="M143.613 61.2394H137.5V67.3521H143.613V61.2394Z" fill="#71DDF0"/>
<path d="M388.129 727.521H382.016V733.634H388.129V727.521Z" fill="#D2ED65"/>
<path d="M235.306 134.592H229.193V140.704H235.306V134.592Z" fill="#D2ED65"/>
<path d="M461.484 0.112671H455.371V6.22535H461.484V0.112671Z" fill="#D2ED65"/>
<path d="M498.161 513.577H492.048V519.69H498.161V513.577Z" fill="#D2ED65"/>
<path d="M418.693 550.254H412.581V556.366H418.693V550.254Z" fill="#D2ED65"/>
<path d="M113.048 287.408H106.936V293.521H113.048V287.408Z" fill="#00AEC9"/>
<path d="M479.822 159.042H473.709V165.155H479.822V159.042Z" fill="#71DDF0"/>
<path d="M345.338 12.338H339.226V18.4507H345.338V12.338Z" fill="#71DDF0"/>
<path d="M155.838 648.056H149.726V654.169H155.838V648.056Z" fill="#00AEC9"/>
<path d="M100.822 476.901H94.7095V483.014H100.822V476.901Z" fill="#00AEC9"/>
<path d="M504.274 55.1268H498.161V61.2394H504.274V55.1268Z" fill="#00AEC9"/>
<path d="M27.4679 146.817H21.355V152.93H27.4679V146.817Z" fill="#D2ED65"/>
<path d="M418.693 159.042H412.581V165.155H418.693V159.042Z" fill="#D2ED65"/>
<path d="M320.887 275.183H314.774V281.296H320.887V275.183Z" fill="#D2ED65"/>
<path d="M241.419 434.113H235.307V440.225H241.419V434.113Z" fill="#71DDF0"/>
<path d="M345.338 311.859H339.226V317.972H345.338V311.859Z" fill="#00AEC9"/>
<path d="M180.29 452.451H174.177V458.563H180.29V452.451Z" fill="#00AEC9"/>
<path d="M9.12902 703.07H3.01611V709.183H9.12902V703.07Z" fill="#71DDF0"/>
<path d="M168.065 531.915H161.952V538.028H168.065V531.915Z" fill="#00AEC9"/>
<path d="M247.532 501.352H241.419V507.465H247.532V501.352Z" fill="#71DDF0"/>
<path d="M88.5968 580.817H82.4839V586.93H88.5968V580.817Z" fill="#71DDF0"/>
<path d="M82.484 360.761H76.3711V366.873H82.484V360.761Z" fill="#71DDF0"/>
<path d="M9.12902 531.915H3.01611V538.028H9.12902V531.915Z" fill="#D2ED65"/>
<path d="M302.548 207.944H296.436V214.056H302.548V207.944Z" fill="#00AEC9"/>
<path d="M430.92 703.07H424.807V709.183H430.92V703.07Z" fill="#00AEC9"/>
<path d="M412.581 116.254H406.468V122.366H412.581V116.254Z" fill="#D2ED65"/>
<path d="M492.048 232.394H485.936V238.507H492.048V232.394Z" fill="#71DDF0"/>
<path d="M229.193 256.845H223.081V262.958H229.193V256.845Z" fill="#71DDF0"/>
<path d="M119.161 428H113.048V434.113H119.161V428Z" fill="#71DDF0"/>
<path d="M51.9195 330.197H45.8066V336.31H51.9195V330.197Z" fill="#00AEC9"/>
<path d="M345.338 152.93H339.226V159.042H345.338V152.93Z" fill="#71DDF0"/>
<path d="M357.565 538.028H351.452V544.141H357.565V538.028Z" fill="#71DDF0"/>
<path d="M125.274 330.197H119.161V336.31H125.274V330.197Z" fill="#D2ED65"/>
<path d="M467.597 293.521H461.484V299.634H467.597V293.521Z" fill="#00AEC9"/>
<path d="M27.4679 617.493H21.355V623.606H27.4679V617.493Z" fill="#D2ED65"/>
<path d="M437.032 721.408H430.919V727.521H437.032V721.408Z" fill="#00AEC9"/>
<path d="M473.71 739.747H467.597V745.859H473.71V739.747Z" fill="#D2ED65"/>
<path d="M278.097 703.07H271.984V709.183H278.097V703.07Z" fill="#D2ED65"/>
<path d="M320.887 544.141H314.774V550.254H320.887V544.141Z" fill="#D2ED65"/>
<path d="M455.371 690.845H449.258V696.958H455.371V690.845Z" fill="#00AEC9"/>
<path d="M357.565 574.704H351.452V580.817H357.565V574.704Z" fill="#D2ED65"/>
<path d="M449.258 648.056H443.145V654.169H449.258V648.056Z" fill="#71DDF0"/>
<path d="M412.581 599.155H406.468V605.268H412.581V599.155Z" fill="#00AEC9"/>
<path d="M449.258 586.93H443.145V593.042H449.258V586.93Z" fill="#00AEC9"/>
<path d="M351.452 684.732H345.339V690.845H351.452V684.732Z" fill="#00AEC9"/>
<path d="M229.193 61.2394H223.081V67.3521H229.193V61.2394Z" fill="#00AEC9"/>
<path d="M192.516 122.366H186.403V128.479H192.516V122.366Z" fill="#D2ED65"/>
<path d="M290.322 55.1268H284.209V61.2394H290.322V55.1268Z" fill="#00AEC9"/>
<path d="M253.645 140.704H247.532V146.817H253.645V140.704Z" fill="#D2ED65"/>
<path d="M155.838 85.6901H149.726V91.8028H155.838V85.6901Z" fill="#D2ED65"/>
<path d="M161.952 24.5634H155.839V30.6761H161.952V24.5634Z" fill="#00AEC9"/>
<path d="M15.2418 91.8028H9.12891V97.9155H15.2418V91.8028Z" fill="#00AEC9"/>
<path d="M155.838 152.93H149.726V159.042H155.838V152.93Z" fill="#71DDF0"/>
<path d="M94.7096 97.9155H88.5967V104.028H94.7096V97.9155Z" fill="#71DDF0"/>
<path d="M3.01622 36.7887H-3.09668V42.9014H3.01622V36.7887Z" fill="#71DDF0"/>
<path d="M88.5968 201.831H82.4839V207.944H88.5968V201.831Z" fill="#00AEC9"/>
<path d="M113.048 165.155H106.936V171.268H113.048V165.155Z" fill="#00AEC9"/>
<path d="M168.065 189.606H161.952V195.718H168.065V189.606Z" fill="#D2ED65"/>
<path d="M106.936 24.5634H100.823V30.6761H106.936V24.5634Z" fill="#71DDF0"/>
<path d="M27.4679 171.268H21.355V177.38H27.4679V171.268Z" fill="#00AEC9"/>
<path d="M119.161 226.282H113.048V232.394H119.161V226.282Z" fill="#71DDF0"/>
<path d="M88.5968 324.084H82.4839V330.197H88.5968V324.084Z" fill="#00AEC9"/>
<path d="M76.3712 165.155H70.2583V171.268H76.3712V165.155Z" fill="#D2ED65"/>
<path d="M9.12902 24.5634H3.01611V30.6761H9.12902V24.5634Z" fill="#71DDF0"/>
<path d="M94.7096 73.4648H88.5967V79.5775H94.7096V73.4648Z" fill="#00AEC9"/>
<path d="M33.5807 73.4648H27.4678V79.5775H33.5807V73.4648Z" fill="#D2ED65"/>
<path d="M88.5968 269.07H82.4839V275.183H88.5968V269.07Z" fill="#D2ED65"/>
<path d="M3.01622 342.423H-3.09668V348.535H3.01622V342.423Z" fill="#71DDF0"/>
<path d="M27.4679 360.761H21.355V366.873H27.4679V360.761Z" fill="#71DDF0"/>
<path d="M3.01622 226.282H-3.09668V232.394H3.01622V226.282Z" fill="#71DDF0"/>
<path d="M15.2418 146.817H9.12891V152.93H15.2418V146.817Z" fill="#00AEC9"/>
<path d="M119.161 140.704H113.048V146.817H119.161V140.704Z" fill="#71DDF0"/>
<path d="M45.8063 397.437H39.6934V403.549H45.8063V397.437Z" fill="#00AEC9"/>
<path d="M27.4679 281.296H21.355V287.408H27.4679V281.296Z" fill="#00AEC9"/>
<path d="M388.129 354.648H382.016V360.761H388.129V354.648Z" fill="#7D7BFF"/>
<path d="M382.016 354.648H375.903V360.761H382.016V354.648Z" fill="#7D7BFF"/>
<path d="M375.903 366.873H369.79V372.986H375.903V366.873Z" fill="#7D7BFF"/>
<path d="M375.903 360.761H369.79V366.873H375.903V360.761Z" fill="#7D7BFF"/>
<path d="M375.903 348.535H369.79V354.648H375.903V348.535Z" fill="#7D7BFF"/>
<path d="M375.903 342.423H369.79V348.535H375.903V342.423Z" fill="#7D7BFF"/>
<path d="M369.79 354.648H363.677V360.761H369.79V354.648Z" fill="#7D7BFF"/>
<path d="M363.677 354.648H357.564V360.761H363.677V354.648Z" fill="#7D7BFF"/>
<path d="M137.5 507.465H131.387V513.577H137.5V507.465Z" fill="#26DEFF"/>
<path d="M131.387 519.69H125.274V525.803H131.387V519.69Z" fill="#26DEFF"/>
<path d="M131.387 513.577H125.274V519.69H131.387V513.577Z" fill="#26DEFF"/>
<path d="M131.387 501.352H125.274V507.465H131.387V501.352Z" fill="#26DEFF"/>
<path d="M131.387 495.239H125.274V501.352H131.387V495.239Z" fill="#26DEFF"/>
<path d="M125.274 507.465H119.161V513.577H125.274V507.465Z" fill="#26DEFF"/>
<path d="M333.113 122.366H327V128.479H333.113V122.366Z" fill="#00C4E8"/>
<path d="M327 134.592H320.887V140.704H327V134.592Z" fill="#00C4E8"/>
<path d="M327 128.479H320.887V134.592H327V128.479Z" fill="#00C4E8"/>
<path d="M327 116.254H320.887V122.366H327V116.254Z" fill="#00C4E8"/>
<path d="M327 110.141H320.887V116.254H327V110.141Z" fill="#00C4E8"/>
<path d="M320.887 122.366H314.774V128.479H320.887V122.366Z" fill="#00C4E8"/>
<path d="M168.064 226.282H161.951V232.394H168.064V226.282Z" fill="#6976FF"/>
<path d="M161.951 232.394H155.838V238.507H161.951V232.394Z" fill="#6976FF"/>
<path d="M161.951 220.169H155.838V226.282H161.951V220.169Z" fill="#6976FF"/>
<path d="M155.838 226.282H149.726V232.394H155.838V226.282Z" fill="#6976FF"/>
<path d="M394.242 470.789H388.129V476.901H394.242V470.789Z" fill="#F1FF4D"/>
<path d="M388.129 476.901H382.016V483.014H388.129V476.901Z" fill="#F1FF4D"/>
<path d="M388.129 470.789H382.016V476.901H388.129V470.789Z" fill="white"/>
<path d="M388.129 464.676H382.016V470.789H388.129V464.676Z" fill="#F1FF4D"/>
<path d="M382.016 470.789H375.903V476.901H382.016V470.789Z" fill="#F1FF4D"/>
<path d="M400.355 67.3521H394.242V73.4648H400.355V67.3521Z" fill="#F1FF4D"/>
<path d="M394.242 73.4648H388.129V79.5775H394.242V73.4648Z" fill="#F1FF4D"/>
<path d="M394.242 67.3521H388.129V73.4648H394.242V67.3521Z" fill="white"/>
<path d="M394.242 61.2394H388.129V67.3521H394.242V61.2394Z" fill="#F1FF4D"/>
<path d="M388.129 67.3521H382.016V73.4648H388.129V67.3521Z" fill="#F1FF4D"/>
<path d="M9.12902 672.507H3.01611V678.62H9.12902V672.507Z" fill="#F1FF4D"/>
<path d="M3.01622 678.62H-3.09668V684.732H3.01622V678.62Z" fill="#F1FF4D"/>
<path d="M3.01622 672.507H-3.09668V678.62H3.01622V672.507Z" fill="white"/>
<path d="M3.01622 666.394H-3.09668V672.507H3.01622V666.394Z" fill="#F1FF4D"/>
<path d="M192.516 36.7887H186.403V42.9014H192.516V36.7887Z" fill="#F1FF4D"/>
<path d="M186.403 42.9014H180.29V49.0141H186.403V42.9014Z" fill="#F1FF4D"/>
<path d="M186.403 36.7887H180.29V42.9014H186.403V36.7887Z" fill="white"/>
<path d="M186.403 30.6761H180.29V36.7887H186.403V30.6761Z" fill="#F1FF4D"/>
<path d="M180.29 36.7887H174.177V42.9014H180.29V36.7887Z" fill="#F1FF4D"/>
<path d="M437.032 195.718H430.919V201.831H437.032V195.718Z" fill="#008DF0"/>
<path d="M455.371 201.831H449.258V207.944H455.371V201.831Z" fill="#008DF0"/>
<path d="M449.258 207.944H443.146V214.056H449.258V207.944Z" fill="#008DF0"/>
<path d="M449.258 201.831H443.146V207.944H449.258V201.831Z" fill="#52B7FF"/>
<path d="M449.258 195.718H443.146V201.831H449.258V195.718Z" fill="#008DF0"/>
<path d="M443.145 214.056H437.032V220.169H443.145V214.056Z" fill="#008DF0"/>
<path d="M443.145 207.944H437.032V214.056H443.145V207.944Z" fill="#52B7FF"/>
<path d="M443.145 201.831H437.032V207.944H443.145V201.831Z" fill="white"/>
<path d="M443.145 195.718H437.032V201.831H443.145V195.718Z" fill="#52B7FF"/>
<path d="M443.145 189.606H437.032V195.718H443.145V189.606Z" fill="#008DF0"/>
<path d="M437.032 207.944H430.919V214.056H437.032V207.944Z" fill="#008DF0"/>
<path d="M437.032 201.831H430.919V207.944H437.032V201.831Z" fill="#52B7FF"/>
<path d="M430.92 201.831H424.807V207.944H430.92V201.831Z" fill="#008DF0"/>
<path d="M27.4674 311.859H21.3545V317.972H27.4674V311.859Z" fill="#008DF0"/>
<path d="M45.8063 317.972H39.6934V324.084H45.8063V317.972Z" fill="#008DF0"/>
<path d="M39.6935 324.084H33.5806V330.197H39.6935V324.084Z" fill="#008DF0"/>
<path d="M39.6935 317.972H33.5806V324.084H39.6935V317.972Z" fill="#52B7FF"/>
<path d="M39.6935 311.859H33.5806V317.972H39.6935V311.859Z" fill="#008DF0"/>
<path d="M33.5802 330.197H27.4673V336.31H33.5802V330.197Z" fill="#008DF0"/>
<path d="M33.5802 324.084H27.4673V330.197H33.5802V324.084Z" fill="#52B7FF"/>
<path d="M33.5802 317.972H27.4673V324.084H33.5802V317.972Z" fill="white"/>
<path d="M33.5802 311.859H27.4673V317.972H33.5802V311.859Z" fill="#52B7FF"/>
<path d="M33.5802 305.746H27.4673V311.859H33.5802V305.746Z" fill="#008DF0"/>
<path d="M27.4674 324.084H21.3545V330.197H27.4674V324.084Z" fill="#008DF0"/>
<path d="M27.4674 317.972H21.3545V324.084H27.4674V317.972Z" fill="#52B7FF"/>
<path d="M21.3546 317.972H15.2417V324.084H21.3546V317.972Z" fill="#008DF0"/>
<path d="M461.484 562.479H455.371V568.592H461.484V562.479Z" fill="#00BBE0"/>
<path d="M455.371 562.479H449.258V568.592H455.371V562.479Z" fill="#00BBE0"/>
<path d="M467.597 556.366H461.484V562.479H467.597V556.366Z" fill="#00BBE0"/>
<path d="M449.258 556.366H443.145V562.479H449.258V556.366Z" fill="#00BBE0"/>
<path d="M473.71 550.254H467.597V556.366H473.71V550.254Z" fill="#00BBE0"/>
<path d="M461.484 550.254H455.371V556.366H461.484V550.254Z" fill="#D4F8FF"/>
<path d="M455.371 550.254H449.258V556.366H455.371V550.254Z" fill="#D4F8FF"/>
<path d="M443.145 550.254H437.032V556.366H443.145V550.254Z" fill="#00BBE0"/>
<path d="M473.71 544.141H467.597V550.254H473.71V544.141Z" fill="#00BBE0"/>
<path d="M461.484 544.141H455.371V550.254H461.484V544.141Z" fill="#D4F8FF"/>
<path d="M455.371 544.141H449.258V550.254H455.371V544.141Z" fill="#D4F8FF"/>
<path d="M443.145 544.141H437.032V550.254H443.145V544.141Z" fill="#00BBE0"/>
<path d="M467.597 538.028H461.484V544.141H467.597V538.028Z" fill="#00BBE0"/>
<path d="M449.258 538.028H443.145V544.141H449.258V538.028Z" fill="#00BBE0"/>
<path d="M461.484 531.915H455.371V538.028H461.484V531.915Z" fill="#00BBE0"/>
<path d="M455.371 531.915H449.258V538.028H455.371V531.915Z" fill="#00BBE0"/>
<path d="M58.0323 122.366H51.9194V128.479H58.0323V122.366Z" fill="#00BBE0"/>
<path d="M51.9191 122.366H45.8062V128.479H51.9191V122.366Z" fill="#00BBE0"/>
<path d="M64.1451 116.254H58.0322V122.366H64.1451V116.254Z" fill="#00BBE0"/>
<path d="M45.8063 116.254H39.6934V122.366H45.8063V116.254Z" fill="#00BBE0"/>
<path d="M70.2579 110.141H64.145V116.254H70.2579V110.141Z" fill="#00BBE0"/>
<path d="M58.0323 110.141H51.9194V116.254H58.0323V110.141Z" fill="#D4F8FF"/>
<path d="M51.9191 110.141H45.8062V116.254H51.9191V110.141Z" fill="#D4F8FF"/>
<path d="M39.6935 110.141H33.5806V116.254H39.6935V110.141Z" fill="#00BBE0"/>
<path d="M70.2579 104.028H64.145V110.141H70.2579V104.028Z" fill="#00BBE0"/>
<path d="M58.0323 104.028H51.9194V110.141H58.0323V104.028Z" fill="#D4F8FF"/>
<path d="M51.9191 104.028H45.8062V110.141H51.9191V104.028Z" fill="#D4F8FF"/>
<path d="M39.6935 104.028H33.5806V110.141H39.6935V104.028Z" fill="#00BBE0"/>
<path d="M64.1451 97.9155H58.0322V104.028H64.1451V97.9155Z" fill="#00BBE0"/>
<path d="M45.8063 97.9155H39.6934V104.028H45.8063V97.9155Z" fill="#00BBE0"/>
<path d="M58.0323 91.8028H51.9194V97.9155H58.0323V91.8028Z" fill="#00BBE0"/>
<path d="M51.9191 91.8028H45.8062V97.9155H51.9191V91.8028Z" fill="#00BBE0"/>
<path d="M1017.76 61.2394H1011.65V67.3521H1017.76V61.2394Z" fill="#D2ED65"/>
<path d="M1060.55 440.225H1054.44V446.338H1060.55V440.225Z" fill="#D2ED65"/>
<path d="M1011.65 336.31H1005.53V342.423H1011.65V336.31Z" fill="#71DDF0"/>
<path d="M919.952 49.0141H913.839V55.1267H919.952V49.0141Z" fill="#71DDF0"/>
<path d="M993.306 379.099H987.193V385.211H993.306V379.099Z" fill="#D2ED65"/>
<path d="M956.629 42.9014H950.516V49.0141H956.629V42.9014Z" fill="#00AEC9"/>
<path d="M913.839 623.606H907.726V629.718H913.839V623.606Z" fill="#00AEC9"/>
<path d="M761.016 79.5775H754.903V85.6901H761.016V79.5775Z" fill="#00AEC9"/>
<path d="M828.258 49.0141H822.145V55.1267H828.258V49.0141Z" fill="#D2ED65"/>
<path d="M1036.1 434.113H1029.98V440.225H1036.1V434.113Z" fill="#D2ED65"/>
<path d="M791.581 660.282H785.468V666.394H791.581V660.282Z" fill="#00AEC9"/>
<path d="M730.452 110.141H724.339V116.254H730.452V110.141Z" fill="#D2ED65"/>
<path d="M742.677 140.704H736.564V146.817H742.677V140.704Z" fill="#00AEC9"/>
<path d="M907.726 348.535H901.613V354.648H907.726V348.535Z" fill="#D2ED65"/>
<path d="M968.855 317.972H962.742V324.085H968.855V317.972Z" fill="#00AEC9"/>
<path d="M932.177 238.507H926.064V244.62H932.177V238.507Z" fill="#00AEC9"/>
<path d="M877.161 428H871.048V434.113H877.161V428Z" fill="#00AEC9"/>
<path d="M761.016 293.521H754.903V299.634H761.016V293.521Z" fill="#71DDF0"/>
<path d="M687.661 641.944H681.548V648.056H687.661V641.944Z" fill="#00AEC9"/>
<path d="M999.42 97.9155H993.307V104.028H999.42V97.9155Z" fill="#00AEC9"/>
<path d="M718.226 0.112671H712.113V6.22535H718.226V0.112671Z" fill="#D2ED65"/>
<path d="M907.726 207.944H901.613V214.056H907.726V207.944Z" fill="#71DDF0"/>
<path d="M1048.32 97.9155H1042.21V104.028H1048.32V97.9155Z" fill="#71DDF0"/>
<path d="M993.306 672.507H987.193V678.62H993.306V672.507Z" fill="#71DDF0"/>
<path d="M644.871 403.549H638.758V409.662H644.871V403.549Z" fill="#00AEC9"/>
<path d="M614.306 238.507H608.193V244.62H614.306V238.507Z" fill="#D2ED65"/>
<path d="M1060.55 366.873H1054.44V372.986H1060.55V366.873Z" fill="#00AEC9"/>
<path d="M571.516 415.775H565.403V421.887H571.516V415.775Z" fill="#D2ED65"/>
<path d="M522.613 104.028H516.5V110.141H522.613V104.028Z" fill="#00AEC9"/>
<path d="M864.936 623.606H858.823V629.718H864.936V623.606Z" fill="#00AEC9"/>
<path d="M950.516 116.254H944.403V122.366H950.516V116.254Z" fill="#71DDF0"/>
<path d="M1029.98 593.042H1023.87V599.155H1029.98V593.042Z" fill="#D2ED65"/>
<path d="M669.322 715.296H663.209V721.408H669.322V715.296Z" fill="#D2ED65"/>
<path d="M889.387 464.676H883.274V470.789H889.387V464.676Z" fill="#D2ED65"/>
<path d="M547.065 61.2394H540.952V67.3521H547.065V61.2394Z" fill="#D2ED65"/>
<path d="M779.355 12.338H773.242V18.4507H779.355V12.338Z" fill="#71DDF0"/>
<path d="M968.855 403.549H962.742V409.662H968.855V403.549Z" fill="#71DDF0"/>
<path d="M993.306 256.845H987.193V262.958H993.306V256.845Z" fill="#71DDF0"/>
<path d="M834.371 715.296H828.258V721.408H834.371V715.296Z" fill="#D2ED65"/>
<path d="M614.306 18.4507H608.193V24.5634H614.306V18.4507Z" fill="#71DDF0"/>
<path d="M1005.53 464.676H999.419V470.789H1005.53V464.676Z" fill="#D2ED65"/>
<path d="M871.048 42.9014H864.936V49.0141H871.048V42.9014Z" fill="#71DDF0"/>
<path d="M871.048 104.028H864.936V110.141H871.048V104.028Z" fill="#D2ED65"/>
<path d="M1066.66 696.958H1060.55V703.07H1066.66V696.958Z" fill="#D2ED65"/>
<path d="M950.516 635.831H944.403V641.944H950.516V635.831Z" fill="#D2ED65"/>
<path d="M650.984 195.718H644.871V201.831H650.984V195.718Z" fill="#00AEC9"/>
<path d="M632.645 122.366H626.532V128.479H632.645V122.366Z" fill="#71DDF0"/>
<path d="M834.371 18.4507H828.258V24.5634H834.371V18.4507Z" fill="#D2ED65"/>
<path d="M675.435 226.282H669.322V232.394H675.435V226.282Z" fill="#00AEC9"/>
<path d="M547.065 281.296H540.952V287.408H547.065V281.296Z" fill="#D2ED65"/>
<path d="M657.097 171.268H650.984V177.38H657.097V171.268Z" fill="#00AEC9"/>
<path d="M589.855 470.789H583.742V476.901H589.855V470.789Z" fill="#00AEC9"/>
<path d="M767.129 171.268H761.016V177.38H767.129V171.268Z" fill="#D2ED65"/>
<path d="M712.113 177.38H706V183.493H712.113V177.38Z" fill="#00AEC9"/>
<path d="M828.258 580.817H822.145V586.93H828.258V580.817Z" fill="#D2ED65"/>
<path d="M663.21 61.2394H657.097V67.3521H663.21V61.2394Z" fill="#71DDF0"/>
<path d="M614.306 684.732H608.193V690.845H614.306V684.732Z" fill="#D2ED65"/>
<path d="M767.129 727.521H761.016V733.634H767.129V727.521Z" fill="#D2ED65"/>
<path d="M1048.32 660.282H1042.21V666.394H1048.32V660.282Z" fill="#D2ED65"/>
<path d="M926.065 403.549H919.952V409.662H926.065V403.549Z" fill="#D2ED65"/>
<path d="M840.484 354.648H834.371V360.761H840.484V354.648Z" fill="#D2ED65"/>
<path d="M583.742 207.944H577.629V214.056H583.742V207.944Z" fill="#71DDF0"/>
<path d="M797.693 336.31H791.581V342.423H797.693V336.31Z" fill="#00AEC9"/>
<path d="M608.193 745.859H602.081V751.972H608.193V745.859Z" fill="#D2ED65"/>
<path d="M638.758 281.296H632.645V287.408H638.758V281.296Z" fill="#00AEC9"/>
<path d="M712.113 61.2394H706V67.3521H712.113V61.2394Z" fill="#71DDF0"/>
<path d="M956.629 727.521H950.516V733.634H956.629V727.521Z" fill="#D2ED65"/>
<path d="M803.806 134.592H797.693V140.704H803.806V134.592Z" fill="#D2ED65"/>
<path d="M528.726 440.225H522.613V446.338H528.726V440.225Z" fill="#71DDF0"/>
<path d="M1023.87 18.4507H1017.76V24.5634H1023.87V18.4507Z" fill="#D2ED65"/>
<path d="M1066.66 513.577H1060.55V519.69H1066.66V513.577Z" fill="#D2ED65"/>
<path d="M987.193 550.254H981.081V556.366H987.193V550.254Z" fill="#D2ED65"/>
<path d="M681.548 287.408H675.436V293.521H681.548V287.408Z" fill="#00AEC9"/>
<path d="M418.693 12.338H412.581V18.4507H418.693V12.338Z" fill="#D2ED65"/>
<path d="M1048.32 159.042H1042.21V165.155H1048.32V159.042Z" fill="#71DDF0"/>
<path d="M534.838 385.211H528.726V391.324H534.838V385.211Z" fill="#71DDF0"/>
<path d="M913.839 12.338H907.726V18.4507H913.839V12.338Z" fill="#71DDF0"/>
<path d="M724.339 648.056H718.226V654.169H724.339V648.056Z" fill="#00AEC9"/>
<path d="M669.322 476.901H663.209V483.014H669.322V476.901Z" fill="#00AEC9"/>
<path d="M1072.77 55.1268H1066.66V61.2394H1072.77V55.1268Z" fill="#00AEC9"/>
<path d="M595.968 146.817H589.855V152.93H595.968V146.817Z" fill="#D2ED65"/>
<path d="M987.193 159.042H981.081V165.155H987.193V159.042Z" fill="#D2ED65"/>
<path d="M889.387 275.183H883.274V281.296H889.387V275.183Z" fill="#D2ED65"/>
<path d="M540.952 599.155H534.839V605.268H540.952V599.155Z" fill="#D2ED65"/>
<path d="M522.613 550.254H516.5V556.366H522.613V550.254Z" fill="#71DDF0"/>
<path d="M547.065 214.056H540.952V220.169H547.065V214.056Z" fill="#00AEC9"/>
<path d="M809.92 434.113H803.807V440.225H809.92V434.113Z" fill="#71DDF0"/>
<path d="M913.839 311.859H907.726V317.972H913.839V311.859Z" fill="#00AEC9"/>
<path d="M748.79 452.451H742.677V458.563H748.79V452.451Z" fill="#00AEC9"/>
<path d="M577.629 703.07H571.516V709.183H577.629V703.07Z" fill="#71DDF0"/>
<path d="M540.952 654.169H534.839V660.282H540.952V654.169Z" fill="#D2ED65"/>
<path d="M736.565 531.915H730.452V538.028H736.565V531.915Z" fill="#00AEC9"/>
<path d="M816.032 501.352H809.919V507.465H816.032V501.352Z" fill="#71DDF0"/>
<path d="M657.097 580.817H650.984V586.93H657.097V580.817Z" fill="#71DDF0"/>
<path d="M650.984 360.761H644.871V366.873H650.984V360.761Z" fill="#71DDF0"/>
<path d="M577.629 531.915H571.516V538.028H577.629V531.915Z" fill="#D2ED65"/>
<path d="M871.048 207.944H864.936V214.056H871.048V207.944Z" fill="#00AEC9"/>
<path d="M999.42 703.07H993.307V709.183H999.42V703.07Z" fill="#00AEC9"/>
<path d="M981.081 116.254H974.968V122.366H981.081V116.254Z" fill="#D2ED65"/>
<path d="M1060.55 232.394H1054.44V238.507H1060.55V232.394Z" fill="#71DDF0"/>
<path d="M797.693 256.845H791.581V262.958H797.693V256.845Z" fill="#71DDF0"/>
<path d="M687.661 428H681.548V434.113H687.661V428Z" fill="#71DDF0"/>
<path d="M620.419 330.197H614.307V336.31H620.419V330.197Z" fill="#00AEC9"/>
<path d="M522.613 238.507H516.5V244.62H522.613V238.507Z" fill="#00AEC9"/>
<path d="M913.839 152.93H907.726V159.042H913.839V152.93Z" fill="#71DDF0"/>
<path d="M926.065 538.028H919.952V544.141H926.065V538.028Z" fill="#71DDF0"/>
<path d="M693.774 330.197H687.661V336.31H693.774V330.197Z" fill="#D2ED65"/>
<path d="M1036.1 293.521H1029.98V299.634H1036.1V293.521Z" fill="#00AEC9"/>
<path d="M595.968 617.493H589.855V623.606H595.968V617.493Z" fill="#D2ED65"/>
<path d="M1005.53 721.408H999.419V727.521H1005.53V721.408Z" fill="#00AEC9"/>
<path d="M1042.21 739.747H1036.1V745.859H1042.21V739.747Z" fill="#D2ED65"/>
<path d="M846.597 703.07H840.484V709.183H846.597V703.07Z" fill="#D2ED65"/>
<path d="M889.387 544.141H883.274V550.254H889.387V544.141Z" fill="#D2ED65"/>
<path d="M1023.87 690.845H1017.76V696.958H1023.87V690.845Z" fill="#00AEC9"/>
<path d="M926.065 574.704H919.952V580.817H926.065V574.704Z" fill="#D2ED65"/>
<path d="M1017.76 648.056H1011.65V654.169H1017.76V648.056Z" fill="#71DDF0"/>
<path d="M981.081 599.155H974.968V605.268H981.081V599.155Z" fill="#00AEC9"/>
<path d="M1017.76 586.93H1011.65V593.042H1017.76V586.93Z" fill="#00AEC9"/>
<path d="M919.952 684.732H913.839V690.845H919.952V684.732Z" fill="#00AEC9"/>
<path d="M797.693 61.2394H791.581V67.3521H797.693V61.2394Z" fill="#00AEC9"/>
<path d="M761.016 122.366H754.903V128.479H761.016V122.366Z" fill="#D2ED65"/>
<path d="M858.823 55.1268H852.71V61.2394H858.823V55.1268Z" fill="#00AEC9"/>
<path d="M822.145 140.704H816.032V146.817H822.145V140.704Z" fill="#D2ED65"/>
<path d="M724.339 85.6901H718.226V91.8028H724.339V85.6901Z" fill="#D2ED65"/>
<path d="M730.452 24.5634H724.339V30.6761H730.452V24.5634Z" fill="#00AEC9"/>
<path d="M583.742 91.8028H577.629V97.9155H583.742V91.8028Z" fill="#00AEC9"/>
<path d="M534.838 24.5634H528.726V30.6761H534.838V24.5634Z" fill="#00AEC9"/>
<path d="M724.339 152.93H718.226V159.042H724.339V152.93Z" fill="#71DDF0"/>
<path d="M663.21 97.9155H657.097V104.028H663.21V97.9155Z" fill="#71DDF0"/>
<path d="M479.822 30.6761H473.709V36.7887H479.822V30.6761Z" fill="#71DDF0"/>
<path d="M657.097 201.831H650.984V207.944H657.097V201.831Z" fill="#00AEC9"/>
<path d="M681.548 165.155H675.436V171.268H681.548V165.155Z" fill="#00AEC9"/>
<path d="M736.565 189.606H730.452V195.718H736.565V189.606Z" fill="#D2ED65"/>
<path d="M675.435 24.5634H669.322V30.6761H675.435V24.5634Z" fill="#71DDF0"/>
<path d="M595.968 171.268H589.855V177.38H595.968V171.268Z" fill="#00AEC9"/>
<path d="M687.661 226.282H681.548V232.394H687.661V226.282Z" fill="#71DDF0"/>
<path d="M657.097 324.084H650.984V330.197H657.097V324.084Z" fill="#00AEC9"/>
<path d="M644.871 165.155H638.758V171.268H644.871V165.155Z" fill="#D2ED65"/>
<path d="M577.629 24.5634H571.516V30.6761H577.629V24.5634Z" fill="#71DDF0"/>
<path d="M663.21 73.4648H657.097V79.5775H663.21V73.4648Z" fill="#00AEC9"/>
<path d="M602.081 116.254H595.968V122.366H602.081V116.254Z" fill="#D2ED65"/>
<path d="M657.097 269.07H650.984V275.183H657.097V269.07Z" fill="#D2ED65"/>
<path d="M522.613 305.746H516.5V311.859H522.613V305.746Z" fill="#D2ED65"/>
<path d="M571.516 342.423H565.403V348.535H571.516V342.423Z" fill="#71DDF0"/>
<path d="M595.968 360.761H589.855V366.873H595.968V360.761Z" fill="#71DDF0"/>
<path d="M571.516 226.282H565.403V232.394H571.516V226.282Z" fill="#71DDF0"/>
<path d="M583.742 146.817H577.629V152.93H583.742V146.817Z" fill="#00AEC9"/>
<path d="M687.661 140.704H681.548V146.817H687.661V140.704Z" fill="#71DDF0"/>
<path d="M614.306 397.437H608.193V403.549H614.306V397.437Z" fill="#00AEC9"/>
<path d="M540.952 440.225H534.839V446.338H540.952V440.225Z" fill="#71DDF0"/>
<path d="M565.403 110.141H559.291V116.254H565.403V110.141Z" fill="#71DDF0"/>
<path d="M528.726 165.155H522.613V171.268H528.726V165.155Z" fill="#00AEC9"/>
<path d="M595.968 281.296H589.855V287.408H595.968V281.296Z" fill="#00AEC9"/>
<path d="M956.629 354.648H950.516V360.761H956.629V354.648Z" fill="#7D7BFF"/>
<path d="M950.516 354.648H944.403V360.761H950.516V354.648Z" fill="#7D7BFF"/>
<path d="M944.403 366.873H938.29V372.986H944.403V366.873Z" fill="#7D7BFF"/>
<path d="M944.403 360.761H938.29V366.873H944.403V360.761Z" fill="#7D7BFF"/>
<path d="M944.403 348.535H938.29V354.648H944.403V348.535Z" fill="#7D7BFF"/>
<path d="M944.403 342.423H938.29V348.535H944.403V342.423Z" fill="#7D7BFF"/>
<path d="M938.29 354.648H932.177V360.761H938.29V354.648Z" fill="#7D7BFF"/>
<path d="M932.177 354.648H926.064V360.761H932.177V354.648Z" fill="#7D7BFF"/>
<path d="M761.016 501.352H754.903V507.465H761.016V501.352Z" fill="#26DEFF"/>
<path d="M754.903 513.577H748.79V519.69H754.903V513.577Z" fill="#26DEFF"/>
<path d="M754.903 507.465H748.79V513.577H754.903V507.465Z" fill="#26DEFF"/>
<path d="M754.903 495.239H748.79V501.352H754.903V495.239Z" fill="#26DEFF"/>
<path d="M754.903 489.127H748.79V495.239H754.903V489.127Z" fill="#26DEFF"/>
<path d="M748.79 501.352H742.677V507.465H748.79V501.352Z" fill="#26DEFF"/>
<path d="M901.613 122.366H895.5V128.479H901.613V122.366Z" fill="#00C4E8"/>
<path d="M895.5 134.592H889.387V140.704H895.5V134.592Z" fill="#00C4E8"/>
<path d="M895.5 128.479H889.387V134.592H895.5V128.479Z" fill="#00C4E8"/>
<path d="M895.5 116.254H889.387V122.366H895.5V116.254Z" fill="#00C4E8"/>
<path d="M895.5 110.141H889.387V116.254H895.5V110.141Z" fill="#00C4E8"/>
<path d="M889.387 122.366H883.274V128.479H889.387V122.366Z" fill="#00C4E8"/>
<path d="M559.291 189.606H553.178V195.718H559.291V189.606Z" fill="#7D7BFF"/>
<path d="M553.177 195.718H547.064V201.831H553.177V195.718Z" fill="#7D7BFF"/>
<path d="M553.177 183.493H547.064V189.606H553.177V183.493Z" fill="#7D7BFF"/>
<path d="M547.065 189.606H540.952V195.718H547.065V189.606Z" fill="#7D7BFF"/>
<path d="M736.564 226.282H730.451V232.394H736.564V226.282Z" fill="#6976FF"/>
<path d="M730.451 232.394H724.338V238.507H730.451V232.394Z" fill="#6976FF"/>
<path d="M730.451 220.169H724.338V226.282H730.451V220.169Z" fill="#6976FF"/>
<path d="M724.339 226.282H718.226V232.394H724.339V226.282Z" fill="#6976FF"/>
<path d="M962.742 470.789H956.629V476.901H962.742V470.789Z" fill="#F1FF4D"/>
<path d="M956.629 476.901H950.516V483.014H956.629V476.901Z" fill="#F1FF4D"/>
<path d="M956.629 470.789H950.516V476.901H956.629V470.789Z" fill="white"/>
<path d="M956.629 464.676H950.516V470.789H956.629V464.676Z" fill="#F1FF4D"/>
<path d="M950.516 470.789H944.403V476.901H950.516V470.789Z" fill="#F1FF4D"/>
<path d="M968.855 67.3521H962.742V73.4648H968.855V67.3521Z" fill="#F1FF4D"/>
<path d="M962.742 73.4648H956.629V79.5775H962.742V73.4648Z" fill="#F1FF4D"/>
<path d="M962.742 67.3521H956.629V73.4648H962.742V67.3521Z" fill="white"/>
<path d="M962.742 61.2394H956.629V67.3521H962.742V61.2394Z" fill="#F1FF4D"/>
<path d="M956.629 67.3521H950.516V73.4648H956.629V67.3521Z" fill="#F1FF4D"/>
<path d="M577.629 672.507H571.516V678.62H577.629V672.507Z" fill="#F1FF4D"/>
<path d="M571.516 678.62H565.403V684.732H571.516V678.62Z" fill="#F1FF4D"/>
<path d="M571.516 672.507H565.403V678.62H571.516V672.507Z" fill="white"/>
<path d="M571.516 666.394H565.403V672.507H571.516V666.394Z" fill="#F1FF4D"/>
<path d="M565.403 672.507H559.291V678.62H565.403V672.507Z" fill="#F1FF4D"/>
<path d="M761.016 36.7887H754.903V42.9014H761.016V36.7887Z" fill="#F1FF4D"/>
<path d="M754.903 42.9014H748.79V49.0141H754.903V42.9014Z" fill="#F1FF4D"/>
<path d="M754.903 36.7887H748.79V42.9014H754.903V36.7887Z" fill="white"/>
<path d="M754.903 30.6761H748.79V36.7887H754.903V30.6761Z" fill="#F1FF4D"/>
<path d="M748.79 36.7887H742.677V42.9014H748.79V36.7887Z" fill="#F1FF4D"/>
<path d="M1005.53 195.718H999.419V201.831H1005.53V195.718Z" fill="#008DF0"/>
<path d="M1023.87 201.831H1017.76V207.944H1023.87V201.831Z" fill="#008DF0"/>
<path d="M1017.76 207.944H1011.65V214.056H1017.76V207.944Z" fill="#008DF0"/>
<path d="M1017.76 201.831H1011.65V207.944H1017.76V201.831Z" fill="#52B7FF"/>
<path d="M1017.76 195.718H1011.65V201.831H1017.76V195.718Z" fill="#008DF0"/>
<path d="M1011.65 214.056H1005.53V220.169H1011.65V214.056Z" fill="#008DF0"/>
<path d="M1011.65 207.944H1005.53V214.056H1011.65V207.944Z" fill="#52B7FF"/>
<path d="M1011.65 201.831H1005.53V207.944H1011.65V201.831Z" fill="white"/>
<path d="M1011.65 195.718H1005.53V201.831H1011.65V195.718Z" fill="#52B7FF"/>
<path d="M1011.65 189.606H1005.53V195.718H1011.65V189.606Z" fill="#008DF0"/>
<path d="M1005.53 207.944H999.419V214.056H1005.53V207.944Z" fill="#008DF0"/>
<path d="M1005.53 201.831H999.419V207.944H1005.53V201.831Z" fill="#52B7FF"/>
<path d="M999.42 201.831H993.307V207.944H999.42V201.831Z" fill="#008DF0"/>
<path d="M595.968 311.859H589.855V317.972H595.968V311.859Z" fill="#008DF0"/>
<path d="M614.307 317.972H608.194V324.084H614.307V317.972Z" fill="#008DF0"/>
<path d="M608.194 324.084H602.081V330.197H608.194V324.084Z" fill="#008DF0"/>
<path d="M608.194 317.972H602.081V324.084H608.194V317.972Z" fill="#52B7FF"/>
<path d="M608.194 311.859H602.081V317.972H608.194V311.859Z" fill="#008DF0"/>
<path d="M602.081 330.197H595.968V336.31H602.081V330.197Z" fill="#008DF0"/>
<path d="M602.081 324.084H595.968V330.197H602.081V324.084Z" fill="#52B7FF"/>
<path d="M602.081 317.972H595.968V324.084H602.081V317.972Z" fill="white"/>
<path d="M602.081 311.859H595.968V317.972H602.081V311.859Z" fill="#52B7FF"/>
<path d="M602.081 305.746H595.968V311.859H602.081V305.746Z" fill="#008DF0"/>
<path d="M595.968 324.084H589.855V330.197H595.968V324.084Z" fill="#008DF0"/>
<path d="M595.968 317.972H589.855V324.084H595.968V317.972Z" fill="#52B7FF"/>
<path d="M589.855 317.972H583.742V324.084H589.855V317.972Z" fill="#008DF0"/>
<path d="M712.113 605.268H706V611.38H712.113V605.268Z" fill="#A486FF"/>
<path d="M706 611.38H699.887V617.493H706V611.38Z" fill="#A486FF"/>
<path d="M706 605.268H699.887V611.38H706V605.268Z" fill="#D6CEFF"/>
<path d="M706 599.155H699.887V605.268H706V599.155Z" fill="#A486FF"/>
<path d="M699.887 617.493H693.774V623.606H699.887V617.493Z" fill="#A486FF"/>
<path d="M699.887 611.38H693.774V617.493H699.887V611.38Z" fill="#D6CEFF"/>
<path d="M699.887 605.268H693.774V611.38H699.887V605.268Z" fill="white"/>
<path d="M699.887 599.155H693.774V605.268H699.887V599.155Z" fill="#D6CEFF"/>
<path d="M699.887 593.042H693.774V599.155H699.887V593.042Z" fill="#A486FF"/>
<path d="M693.774 611.38H687.661V617.493H693.774V611.38Z" fill="#A486FF"/>
<path d="M693.774 605.268H687.661V611.38H693.774V605.268Z" fill="#D6CEFF"/>
<path d="M693.774 599.155H687.661V605.268H693.774V599.155Z" fill="#A486FF"/>
<path d="M687.661 605.268H681.548V611.38H687.661V605.268Z" fill="#A486FF"/>
<path d="M1029.98 562.479H1023.87V568.592H1029.98V562.479Z" fill="#00BBE0"/>
<path d="M1023.87 562.479H1017.76V568.592H1023.87V562.479Z" fill="#00BBE0"/>
<path d="M1036.1 556.366H1029.98V562.479H1036.1V556.366Z" fill="#00BBE0"/>
<path d="M1017.76 556.366H1011.65V562.479H1017.76V556.366Z" fill="#00BBE0"/>
<path d="M1042.21 550.254H1036.1V556.366H1042.21V550.254Z" fill="#00BBE0"/>
<path d="M1029.98 550.254H1023.87V556.366H1029.98V550.254Z" fill="#D4F8FF"/>
<path d="M1023.87 550.254H1017.76V556.366H1023.87V550.254Z" fill="#D4F8FF"/>
<path d="M1011.65 550.254H1005.53V556.366H1011.65V550.254Z" fill="#00BBE0"/>
<path d="M1042.21 544.141H1036.1V550.254H1042.21V544.141Z" fill="#00BBE0"/>
<path d="M1029.98 544.141H1023.87V550.254H1029.98V544.141Z" fill="#D4F8FF"/>
<path d="M1023.87 544.141H1017.76V550.254H1023.87V544.141Z" fill="#D4F8FF"/>
<path d="M1011.65 544.141H1005.53V550.254H1011.65V544.141Z" fill="#00BBE0"/>
<path d="M1036.1 538.028H1029.98V544.141H1036.1V538.028Z" fill="#00BBE0"/>
<path d="M1017.76 538.028H1011.65V544.141H1017.76V538.028Z" fill="#00BBE0"/>
<path d="M1029.98 531.915H1023.87V538.028H1029.98V531.915Z" fill="#00BBE0"/>
<path d="M1023.87 531.915H1017.76V538.028H1023.87V531.915Z" fill="#00BBE0"/>
<path d="M632.645 79.5775H626.532V85.6901H632.645V79.5775Z" fill="#00BBE0"/>
<path d="M626.532 79.5775H620.419V85.6901H626.532V79.5775Z" fill="#00BBE0"/>
<path d="M638.758 73.4648H632.645V79.5775H638.758V73.4648Z" fill="#00BBE0"/>
<path d="M620.419 73.4648H614.307V79.5775H620.419V73.4648Z" fill="#00BBE0"/>
<path d="M644.871 67.3521H638.758V73.4648H644.871V67.3521Z" fill="#00BBE0"/>
<path d="M632.645 67.3521H626.532V73.4648H632.645V67.3521Z" fill="#D4F8FF"/>
<path d="M626.532 67.3521H620.419V73.4648H626.532V67.3521Z" fill="#D4F8FF"/>
<path d="M614.306 67.3521H608.193V73.4648H614.306V67.3521Z" fill="#00BBE0"/>
<path d="M644.871 61.2394H638.758V67.3521H644.871V61.2394Z" fill="#00BBE0"/>
<path d="M632.645 61.2394H626.532V67.3521H632.645V61.2394Z" fill="#D4F8FF"/>
<path d="M626.532 61.2394H620.419V67.3521H626.532V61.2394Z" fill="#D4F8FF"/>
<path d="M614.306 61.2394H608.193V67.3521H614.306V61.2394Z" fill="#00BBE0"/>
<path d="M638.758 55.1267H632.645V61.2394H638.758V55.1267Z" fill="#00BBE0"/>
<path d="M620.419 55.1267H614.307V61.2394H620.419V55.1267Z" fill="#00BBE0"/>
<path d="M632.645 49.0141H626.532V55.1268H632.645V49.0141Z" fill="#00BBE0"/>
<path d="M626.532 49.0141H620.419V55.1268H626.532V49.0141Z" fill="#00BBE0"/>
<path d="M1305.06 79.5775H1298.95V85.6901H1305.06V79.5775Z" fill="#00AEC9"/>
<path d="M1372.31 49.0141H1366.19V55.1267H1372.31V49.0141Z" fill="#D2ED65"/>
<path d="M1335.63 660.282H1329.52V666.394H1335.63V660.282Z" fill="#00AEC9"/>
<path d="M1274.5 110.141H1268.39V116.254H1274.5V110.141Z" fill="#D2ED65"/>
<path d="M1286.73 140.704H1280.61V146.817H1286.73V140.704Z" fill="#00AEC9"/>
<path d="M1305.06 293.521H1298.95V299.634H1305.06V293.521Z" fill="#71DDF0"/>
<path d="M1231.71 641.944H1225.6V648.056H1231.71V641.944Z" fill="#00AEC9"/>
<path d="M1262.27 12.338H1256.16V18.4507H1262.27V12.338Z" fill="#D2ED65"/>
<path d="M1188.92 403.549H1182.81V409.662H1188.92V403.549Z" fill="#00AEC9"/>
<path d="M1158.35 238.507H1152.24V244.62H1158.35V238.507Z" fill="#D2ED65"/>
<path d="M1115.56 415.775H1109.45V421.887H1115.56V415.775Z" fill="#D2ED65"/>
<path d="M1066.66 104.028H1060.55V110.141H1066.66V104.028Z" fill="#00AEC9"/>
<path d="M1213.37 715.296H1207.26V721.408H1213.37V715.296Z" fill="#D2ED65"/>
<path d="M1091.11 61.2394H1085V67.3521H1091.11V61.2394Z" fill="#D2ED65"/>
<path d="M1323.4 12.338H1317.29V18.4507H1323.4V12.338Z" fill="#71DDF0"/>
<path d="M1378.42 715.296H1372.31V721.408H1378.42V715.296Z" fill="#D2ED65"/>
<path d="M1158.35 18.4507H1152.24V24.5634H1158.35V18.4507Z" fill="#71DDF0"/>
<path d="M1195.03 195.718H1188.92V201.831H1195.03V195.718Z" fill="#00AEC9"/>
<path d="M1182.81 55.1268H1176.69V61.2394H1182.81V55.1268Z" fill="#71DDF0"/>
<path d="M1378.42 18.4507H1372.31V24.5634H1378.42V18.4507Z" fill="#D2ED65"/>
<path d="M1219.48 226.282H1213.37V232.394H1219.48V226.282Z" fill="#00AEC9"/>
<path d="M1091.11 281.296H1085V287.408H1091.11V281.296Z" fill="#D2ED65"/>
<path d="M1201.15 171.268H1195.03V177.38H1201.15V171.268Z" fill="#00AEC9"/>
<path d="M1133.9 470.789H1127.79V476.901H1133.9V470.789Z" fill="#00AEC9"/>
<path d="M1311.18 171.268H1305.06V177.38H1311.18V171.268Z" fill="#D2ED65"/>
<path d="M1256.16 177.38H1250.05V183.493H1256.16V177.38Z" fill="#00AEC9"/>
<path d="M1372.31 580.817H1366.19V586.93H1372.31V580.817Z" fill="#D2ED65"/>
<path d="M1207.26 61.2394H1201.15V67.3521H1207.26V61.2394Z" fill="#71DDF0"/>
<path d="M1158.35 684.732H1152.24V690.845H1158.35V684.732Z" fill="#D2ED65"/>
<path d="M1311.18 727.521H1305.06V733.634H1311.18V727.521Z" fill="#D2ED65"/>
<path d="M1384.53 354.648H1378.42V360.761H1384.53V354.648Z" fill="#D2ED65"/>
<path d="M1127.79 207.944H1121.68V214.056H1127.79V207.944Z" fill="#71DDF0"/>
<path d="M1341.74 336.31H1335.63V342.423H1341.74V336.31Z" fill="#00AEC9"/>
<path d="M1152.24 745.859H1146.13V751.972H1152.24V745.859Z" fill="#D2ED65"/>
<path d="M1182.81 281.296H1176.69V287.408H1182.81V281.296Z" fill="#00AEC9"/>
<path d="M1256.16 61.2394H1250.05V67.3521H1256.16V61.2394Z" fill="#71DDF0"/>
<path d="M1347.86 134.592H1341.74V140.704H1347.86V134.592Z" fill="#D2ED65"/>
<path d="M1072.77 440.225H1066.66V446.338H1072.77V440.225Z" fill="#71DDF0"/>
<path d="M1225.6 287.408H1219.48V293.521H1225.6V287.408Z" fill="#00AEC9"/>
<path d="M1109.45 140.704H1103.34V146.817H1109.45V140.704Z" fill="#D2ED65"/>
<path d="M1078.89 385.211H1072.77V391.324H1078.89V385.211Z" fill="#71DDF0"/>
<path d="M1268.39 648.056H1262.27V654.169H1268.39V648.056Z" fill="#00AEC9"/>
<path d="M1213.37 476.901H1207.26V483.014H1213.37V476.901Z" fill="#00AEC9"/>
<path d="M1140.02 146.817H1133.9V152.93H1140.02V146.817Z" fill="#D2ED65"/>
<path d="M1085 599.155H1078.89V605.268H1085V599.155Z" fill="#D2ED65"/>
<path d="M1066.66 550.254H1060.55V556.366H1066.66V550.254Z" fill="#71DDF0"/>
<path d="M1091.11 214.056H1085V220.169H1091.11V214.056Z" fill="#00AEC9"/>
<path d="M1353.97 434.113H1347.85V440.225H1353.97V434.113Z" fill="#71DDF0"/>
<path d="M1292.84 452.451H1286.73V458.563H1292.84V452.451Z" fill="#00AEC9"/>
<path d="M1121.68 703.07H1115.56V709.183H1121.68V703.07Z" fill="#71DDF0"/>
<path d="M1085 654.169H1078.89V660.282H1085V654.169Z" fill="#D2ED65"/>
<path d="M1280.61 531.915H1274.5V538.028H1280.61V531.915Z" fill="#00AEC9"/>
<path d="M1360.08 501.352H1353.97V507.465H1360.08V501.352Z" fill="#71DDF0"/>
<path d="M1201.15 580.817H1195.03V586.93H1201.15V580.817Z" fill="#71DDF0"/>
<path d="M1195.03 360.761H1188.92V366.873H1195.03V360.761Z" fill="#71DDF0"/>
<path d="M1121.68 531.915H1115.56V538.028H1121.68V531.915Z" fill="#D2ED65"/>
<path d="M1341.74 256.845H1335.63V262.958H1341.74V256.845Z" fill="#71DDF0"/>
<path d="M1231.71 428H1225.6V434.113H1231.71V428Z" fill="#71DDF0"/>
<path d="M1164.47 330.197H1158.35V336.31H1164.47V330.197Z" fill="#00AEC9"/>
<path d="M1066.66 238.507H1060.55V244.62H1066.66V238.507Z" fill="#00AEC9"/>
<path d="M1237.82 330.197H1231.71V336.31H1237.82V330.197Z" fill="#D2ED65"/>
<path d="M1140.02 617.493H1133.9V623.606H1140.02V617.493Z" fill="#D2ED65"/>
<path d="M1390.65 703.07H1384.53V709.183H1390.65V703.07Z" fill="#D2ED65"/>
<path d="M1341.74 61.2394H1335.63V67.3521H1341.74V61.2394Z" fill="#00AEC9"/>
<path d="M1305.06 122.366H1298.95V128.479H1305.06V122.366Z" fill="#D2ED65"/>
<path d="M1366.19 140.704H1360.08V146.817H1366.19V140.704Z" fill="#D2ED65"/>
<path d="M1268.39 85.6901H1262.27V91.8028H1268.39V85.6901Z" fill="#D2ED65"/>
<path d="M1274.5 24.5634H1268.39V30.6761H1274.5V24.5634Z" fill="#00AEC9"/>
<path d="M1127.79 91.8028H1121.68V97.9155H1127.79V91.8028Z" fill="#00AEC9"/>
<path d="M1085 0.112671H1078.89V6.22535H1085V0.112671Z" fill="#00AEC9"/>
<path d="M1268.39 152.93H1262.27V159.042H1268.39V152.93Z" fill="#71DDF0"/>
<path d="M1207.26 97.9155H1201.15V104.028H1207.26V97.9155Z" fill="#71DDF0"/>
<path d="M1115.56 36.7887H1109.45V42.9014H1115.56V36.7887Z" fill="#71DDF0"/>
<path d="M1201.15 201.831H1195.03V207.944H1201.15V201.831Z" fill="#00AEC9"/>
<path d="M1225.6 165.155H1219.48V171.268H1225.6V165.155Z" fill="#00AEC9"/>
<path d="M1280.61 189.606H1274.5V195.718H1280.61V189.606Z" fill="#D2ED65"/>
<path d="M1219.48 24.5634H1213.37V30.6761H1219.48V24.5634Z" fill="#71DDF0"/>
<path d="M1140.02 171.268H1133.9V177.38H1140.02V171.268Z" fill="#00AEC9"/>
<path d="M1231.71 226.282H1225.6V232.394H1231.71V226.282Z" fill="#71DDF0"/>
<path d="M1201.15 324.084H1195.03V330.197H1201.15V324.084Z" fill="#00AEC9"/>
<path d="M1188.92 165.155H1182.81V171.268H1188.92V165.155Z" fill="#D2ED65"/>
<path d="M1121.68 24.5634H1115.56V30.6761H1121.68V24.5634Z" fill="#71DDF0"/>
<path d="M1207.26 73.4648H1201.15V79.5775H1207.26V73.4648Z" fill="#00AEC9"/>
<path d="M1146.13 73.4648H1140.02V79.5775H1146.13V73.4648Z" fill="#D2ED65"/>
<path d="M1201.15 269.07H1195.03V275.183H1201.15V269.07Z" fill="#D2ED65"/>
<path d="M1066.66 305.746H1060.55V311.859H1066.66V305.746Z" fill="#D2ED65"/>
<path d="M1115.56 342.423H1109.45V348.535H1115.56V342.423Z" fill="#71DDF0"/>
<path d="M1140.02 360.761H1133.9V366.873H1140.02V360.761Z" fill="#71DDF0"/>
<path d="M1115.56 226.282H1109.45V232.394H1115.56V226.282Z" fill="#71DDF0"/>
<path d="M1127.79 146.817H1121.68V152.93H1127.79V146.817Z" fill="#00AEC9"/>
<path d="M1231.71 140.704H1225.6V146.817H1231.71V140.704Z" fill="#71DDF0"/>
<path d="M1158.35 397.437H1152.24V403.549H1158.35V397.437Z" fill="#00AEC9"/>
<path d="M1085 440.225H1078.89V446.338H1085V440.225Z" fill="#71DDF0"/>
<path d="M1109.45 110.141H1103.34V116.254H1109.45V110.141Z" fill="#71DDF0"/>
<path d="M1072.77 165.155H1066.66V171.268H1072.77V165.155Z" fill="#00AEC9"/>
<path d="M1140.02 281.296H1133.9V287.408H1140.02V281.296Z" fill="#00AEC9"/>
<path d="M1268.39 495.239H1262.27V501.352H1268.39V495.239Z" fill="#26DEFF"/>
<path d="M1262.27 507.465H1256.16V513.577H1262.27V507.465Z" fill="#26DEFF"/>
<path d="M1262.27 501.352H1256.16V507.465H1262.27V501.352Z" fill="#26DEFF"/>
<path d="M1262.27 489.127H1256.16V495.239H1262.27V489.127Z" fill="#26DEFF"/>
<path d="M1262.27 483.014H1256.16V489.127H1262.27V483.014Z" fill="#26DEFF"/>
<path d="M1256.16 495.239H1250.05V501.352H1256.16V495.239Z" fill="#26DEFF"/>
<path d="M1103.34 189.606H1097.23V195.718H1103.34V189.606Z" fill="#7D7BFF"/>
<path d="M1097.23 195.718H1091.11V201.831H1097.23V195.718Z" fill="#7D7BFF"/>
<path d="M1097.23 183.493H1091.11V189.606H1097.23V183.493Z" fill="#7D7BFF"/>
<path d="M1091.11 189.606H1085V195.718H1091.11V189.606Z" fill="#7D7BFF"/>
<path d="M1292.84 250.732H1286.73V256.845H1292.84V250.732Z" fill="#6976FF"/>
<path d="M1286.73 256.845H1280.61V262.958H1286.73V256.845Z" fill="#6976FF"/>
<path d="M1286.73 244.62H1280.61V250.732H1286.73V244.62Z" fill="#6976FF"/>
<path d="M1280.61 250.732H1274.5V256.845H1280.61V250.732Z" fill="#6976FF"/>
<path d="M1121.68 672.507H1115.56V678.62H1121.68V672.507Z" fill="#F1FF4D"/>
<path d="M1115.56 678.62H1109.45V684.732H1115.56V678.62Z" fill="#F1FF4D"/>
<path d="M1115.56 672.507H1109.45V678.62H1115.56V672.507Z" fill="white"/>
<path d="M1115.56 666.394H1109.45V672.507H1115.56V666.394Z" fill="#F1FF4D"/>
<path d="M1109.45 672.507H1103.34V678.62H1109.45V672.507Z" fill="#F1FF4D"/>
<path d="M1305.06 36.7887H1298.95V42.9014H1305.06V36.7887Z" fill="#F1FF4D"/>
<path d="M1298.95 42.9014H1292.84V49.0141H1298.95V42.9014Z" fill="#F1FF4D"/>
<path d="M1298.95 36.7887H1292.84V42.9014H1298.95V36.7887Z" fill="white"/>
<path d="M1298.95 30.6761H1292.84V36.7887H1298.95V30.6761Z" fill="#F1FF4D"/>
<path d="M1292.84 36.7887H1286.73V42.9014H1292.84V36.7887Z" fill="#F1FF4D"/>
<path d="M1140.02 311.859H1133.9V317.972H1140.02V311.859Z" fill="#008DF0"/>
<path d="M1158.35 317.972H1152.24V324.084H1158.35V317.972Z" fill="#008DF0"/>
<path d="M1152.24 324.084H1146.13V330.197H1152.24V324.084Z" fill="#008DF0"/>
<path d="M1152.24 317.972H1146.13V324.084H1152.24V317.972Z" fill="#52B7FF"/>
<path d="M1152.24 311.859H1146.13V317.972H1152.24V311.859Z" fill="#008DF0"/>
<path d="M1146.13 330.197H1140.02V336.31H1146.13V330.197Z" fill="#008DF0"/>
<path d="M1146.13 324.084H1140.02V330.197H1146.13V324.084Z" fill="#52B7FF"/>
<path d="M1146.13 317.972H1140.02V324.084H1146.13V317.972Z" fill="white"/>
<path d="M1146.13 311.859H1140.02V317.972H1146.13V311.859Z" fill="#52B7FF"/>
<path d="M1146.13 305.746H1140.02V311.859H1146.13V305.746Z" fill="#008DF0"/>
<path d="M1140.02 324.084H1133.9V330.197H1140.02V324.084Z" fill="#008DF0"/>
<path d="M1140.02 317.972H1133.9V324.084H1140.02V317.972Z" fill="#52B7FF"/>
<path d="M1133.9 317.972H1127.79V324.084H1133.9V317.972Z" fill="#008DF0"/>
<path d="M1256.16 605.268H1250.05V611.38H1256.16V605.268Z" fill="#C477F7"/>
<path d="M1250.05 611.38H1243.94V617.493H1250.05V611.38Z" fill="#C477F7"/>
<path d="M1250.05 605.268H1243.94V611.38H1250.05V605.268Z" fill="#DEBFFF"/>
<path d="M1250.05 599.155H1243.94V605.268H1250.05V599.155Z" fill="#C477F7"/>
<path d="M1243.94 617.493H1237.82V623.606H1243.94V617.493Z" fill="#C477F7"/>
<path d="M1243.94 611.38H1237.82V617.493H1243.94V611.38Z" fill="#DEBFFF"/>
<path d="M1243.94 605.268H1237.82V611.38H1243.94V605.268Z" fill="white"/>
<path d="M1243.94 599.155H1237.82V605.268H1243.94V599.155Z" fill="#DEBFFF"/>
<path d="M1243.94 593.042H1237.82V599.155H1243.94V593.042Z" fill="#C477F7"/>
<path d="M1237.82 611.38H1231.71V617.493H1237.82V611.38Z" fill="#C477F7"/>
<path d="M1237.82 605.268H1231.71V611.38H1237.82V605.268Z" fill="#DEBFFF"/>
<path d="M1237.82 599.155H1231.71V605.268H1237.82V599.155Z" fill="#C477F7"/>
<path d="M1231.71 605.268H1225.6V611.38H1231.71V605.268Z" fill="#C477F7"/>
<path d="M1176.69 122.366H1170.58V128.479H1176.69V122.366Z" fill="#00BBE0"/>
<path d="M1170.58 122.366H1164.47V128.479H1170.58V122.366Z" fill="#00BBE0"/>
<path d="M1182.81 116.254H1176.69V122.366H1182.81V116.254Z" fill="#00BBE0"/>
<path d="M1164.47 116.254H1158.35V122.366H1164.47V116.254Z" fill="#00BBE0"/>
<path d="M1188.92 110.141H1182.81V116.254H1188.92V110.141Z" fill="#00BBE0"/>
<path d="M1176.69 110.141H1170.58V116.254H1176.69V110.141Z" fill="#D4F8FF"/>
<path d="M1170.58 110.141H1164.47V116.254H1170.58V110.141Z" fill="#D4F8FF"/>
<path d="M1158.35 110.141H1152.24V116.254H1158.35V110.141Z" fill="#00BBE0"/>
<path d="M1188.92 104.028H1182.81V110.141H1188.92V104.028Z" fill="#00BBE0"/>
<path d="M1176.69 104.028H1170.58V110.141H1176.69V104.028Z" fill="#D4F8FF"/>
<path d="M1170.58 104.028H1164.47V110.141H1170.58V104.028Z" fill="#D4F8FF"/>
<path d="M1158.35 104.028H1152.24V110.141H1158.35V104.028Z" fill="#00BBE0"/>
<path d="M1182.81 97.9155H1176.69V104.028H1182.81V97.9155Z" fill="#00BBE0"/>
<path d="M1164.47 97.9155H1158.35V104.028H1164.47V97.9155Z" fill="#00BBE0"/>
<path d="M1176.69 91.8028H1170.58V97.9155H1176.69V91.8028Z" fill="#00BBE0"/>
<path d="M1170.58 91.8028H1164.47V97.9155H1170.58V91.8028Z" fill="#00BBE0"/>
</svg>
