<svg width="1080" height="1080" viewBox="0 0 1080 1080" fill="none" xmlns="http://www.w3.org/2000/svg">
<circle cx="540.097" cy="539.771" r="539.413" fill="url(#paint0_radial_772_22294)"/>
<rect x="849.001" y="223.18" width="7.16151" height="7.16151" fill="white"/>
<rect x="849.001" y="216.018" width="7.16151" height="7.16151" fill="#64C4E2"/>
<rect x="856.163" y="223.18" width="7.16151" height="7.16151" fill="#64C4E2"/>
<rect x="849.001" y="230.341" width="7.16151" height="7.16151" fill="#64C4E2"/>
<rect x="841.84" y="223.18" width="7.16151" height="7.16151" fill="#64C4E2"/>
<rect x="849.001" y="208.857" width="7.16151" height="7.16151" fill="#64C4E2"/>
<rect x="849.001" y="237.503" width="7.16151" height="7.16151" fill="#64C4E2"/>
<rect x="841.84" y="230.341" width="7.16151" height="7.16151" fill="#58D7FF"/>
<rect x="841.84" y="216.018" width="7.16151" height="7.16151" fill="#58D7FF"/>
<rect x="856.163" y="216.018" width="7.16151" height="7.16151" fill="#58D7FF"/>
<rect x="856.163" y="230.341" width="7.16151" height="7.16151" fill="#58D7FF"/>
<rect x="834.679" y="223.18" width="7.16151" height="7.16151" fill="#58D7FF"/>
<rect x="834.679" y="216.018" width="7.16151" height="7.16151" fill="#2C95B7"/>
<rect x="841.84" y="208.857" width="7.16151" height="7.16151" fill="#2C95B7"/>
<rect x="856.163" y="208.857" width="7.16151" height="7.16151" fill="#2C95B7"/>
<rect x="863.325" y="216.018" width="7.16151" height="7.16151" fill="#2C95B7"/>
<rect x="863.325" y="230.341" width="7.16151" height="7.16151" fill="#2C95B7"/>
<rect x="856.163" y="237.503" width="7.16151" height="7.16151" fill="#2C95B7"/>
<rect x="841.84" y="237.503" width="7.16151" height="7.16151" fill="#2C95B7"/>
<rect x="834.679" y="230.341" width="7.16151" height="7.16151" fill="#2C95B7"/>
<rect x="849.001" y="201.695" width="7.16151" height="7.16151" fill="#64C4E2"/>
<rect x="849.001" y="244.664" width="7.16151" height="7.16151" fill="#64C4E2"/>
<rect x="827.517" y="223.18" width="7.16151" height="7.16151" fill="#58D7FF"/>
<rect x="870.486" y="223.18" width="7.16151" height="7.16151" fill="#58D7FF"/>
<rect x="863.325" y="223.18" width="7.16151" height="7.16151" fill="#58D7FF"/>
<rect x="885.333" y="648.619" width="11.6253" height="11.6253" fill="white"/>
<rect x="885.333" y="636.994" width="11.6253" height="11.6253" fill="#64C4E2"/>
<rect x="896.958" y="648.619" width="11.6253" height="11.6253" fill="#64C4E2"/>
<rect x="885.333" y="660.245" width="11.6253" height="11.6253" fill="#64C4E2"/>
<rect x="873.708" y="648.619" width="11.6253" height="11.6253" fill="#64C4E2"/>
<rect x="885.333" y="625.369" width="11.6253" height="11.6253" fill="#64C4E2"/>
<rect x="885.333" y="671.87" width="11.6253" height="11.6253" fill="#64C4E2"/>
<rect x="873.708" y="660.245" width="11.6253" height="11.6253" fill="#58D7FF"/>
<rect x="873.708" y="636.994" width="11.6253" height="11.6253" fill="#58D7FF"/>
<rect x="896.958" y="636.994" width="11.6253" height="11.6253" fill="#58D7FF"/>
<rect x="896.958" y="660.245" width="11.6253" height="11.6253" fill="#58D7FF"/>
<rect x="862.083" y="648.619" width="11.6253" height="11.6253" fill="#58D7FF"/>
<rect x="862.083" y="636.994" width="11.6253" height="11.6253" fill="#2C95B7"/>
<rect x="873.708" y="625.369" width="11.6253" height="11.6253" fill="#2C95B7"/>
<rect x="896.958" y="625.369" width="11.6253" height="11.6253" fill="#2C95B7"/>
<rect x="908.584" y="636.994" width="11.6253" height="11.6253" fill="#2C95B7"/>
<rect x="908.584" y="660.245" width="11.6253" height="11.6253" fill="#2C95B7"/>
<rect x="896.958" y="671.87" width="11.6253" height="11.6253" fill="#2C95B7"/>
<rect x="873.708" y="671.87" width="11.6253" height="11.6253" fill="#2C95B7"/>
<rect x="862.083" y="660.245" width="11.6253" height="11.6253" fill="#2C95B7"/>
<rect x="885.333" y="613.744" width="11.6253" height="11.6253" fill="#64C4E2"/>
<rect x="885.333" y="683.495" width="11.6253" height="11.6253" fill="#64C4E2"/>
<rect x="850.458" y="648.619" width="11.6253" height="11.6253" fill="#58D7FF"/>
<rect x="920.209" y="648.619" width="11.6253" height="11.6253" fill="#58D7FF"/>
<rect x="908.584" y="648.619" width="11.6253" height="11.6253" fill="#58D7FF"/>
<rect x="225.592" y="363.838" width="8.53604" height="8.53604" fill="white"/>
<rect x="225.592" y="355.302" width="8.53604" height="8.53604" fill="#64C4E2"/>
<rect x="234.127" y="363.838" width="8.53604" height="8.53604" fill="#64C4E2"/>
<rect x="225.592" y="372.374" width="8.53604" height="8.53604" fill="#64C4E2"/>
<rect x="217.056" y="363.838" width="8.53604" height="8.53604" fill="#64C4E2"/>
<rect x="225.592" y="346.766" width="8.53604" height="8.53604" fill="#64C4E2"/>
<rect x="225.592" y="380.91" width="8.53604" height="8.53604" fill="#64C4E2"/>
<rect x="217.056" y="372.374" width="8.53604" height="8.53604" fill="#58D7FF"/>
<rect x="217.056" y="355.302" width="8.53604" height="8.53604" fill="#58D7FF"/>
<rect x="234.127" y="355.302" width="8.53604" height="8.53604" fill="#58D7FF"/>
<rect x="234.127" y="372.374" width="8.53604" height="8.53604" fill="#58D7FF"/>
<rect x="208.52" y="363.838" width="8.53604" height="8.53604" fill="#58D7FF"/>
<rect x="208.52" y="355.302" width="8.53604" height="8.53604" fill="#2C95B7"/>
<rect x="217.056" y="346.766" width="8.53604" height="8.53604" fill="#2C95B7"/>
<rect x="234.127" y="346.766" width="8.53604" height="8.53604" fill="#2C95B7"/>
<rect x="242.664" y="355.302" width="8.53604" height="8.53604" fill="#2C95B7"/>
<rect x="242.664" y="372.374" width="8.53604" height="8.53604" fill="#2C95B7"/>
<rect x="234.127" y="380.91" width="8.53604" height="8.53604" fill="#2C95B7"/>
<rect x="217.056" y="380.91" width="8.53604" height="8.53604" fill="#2C95B7"/>
<rect x="208.52" y="372.374" width="8.53604" height="8.53604" fill="#2C95B7"/>
<rect x="225.592" y="338.23" width="8.53604" height="8.53604" fill="#64C4E2"/>
<rect x="225.592" y="389.446" width="8.53604" height="8.53604" fill="#64C4E2"/>
<rect x="199.983" y="363.838" width="8.53604" height="8.53604" fill="#58D7FF"/>
<rect x="251.2" y="363.838" width="8.53604" height="8.53604" fill="#58D7FF"/>
<rect x="242.664" y="363.838" width="8.53604" height="8.53604" fill="#58D7FF"/>
<rect x="120.812" y="624.313" width="7.75018" height="7.75018" fill="white"/>
<rect x="120.812" y="617.338" width="7.75018" height="6.97516" fill="#64C4E2"/>
<rect x="128.562" y="624.313" width="6.97516" height="7.75018" fill="#64C4E2"/>
<rect x="120.812" y="632.063" width="7.75018" height="6.97516" fill="#64C4E2"/>
<rect x="113.837" y="624.313" width="6.97516" height="7.75018" fill="#64C4E2"/>
<rect x="120.812" y="610.363" width="7.75018" height="6.97516" fill="#64C4E2"/>
<rect x="120.812" y="639.038" width="7.75018" height="6.97516" fill="#64C4E2"/>
<rect x="113.837" y="632.063" width="6.97516" height="6.97516" fill="#58D7FF"/>
<rect x="113.837" y="617.338" width="6.97516" height="6.97516" fill="#58D7FF"/>
<rect x="128.562" y="617.338" width="6.97516" height="6.97516" fill="#58D7FF"/>
<rect x="128.562" y="632.063" width="6.97516" height="6.97516" fill="#58D7FF"/>
<rect x="106.862" y="624.313" width="6.97516" height="7.75018" fill="#58D7FF"/>
<rect x="106.862" y="617.338" width="6.97516" height="6.97516" fill="#2C95B7"/>
<rect x="113.837" y="610.363" width="6.97516" height="6.97516" fill="#2C95B7"/>
<rect x="128.562" y="610.363" width="6.97516" height="6.97516" fill="#2C95B7"/>
<rect x="135.538" y="617.338" width="6.97516" height="6.97516" fill="#2C95B7"/>
<rect x="135.538" y="632.063" width="6.97516" height="6.97516" fill="#2C95B7"/>
<rect x="128.562" y="639.038" width="6.97516" height="6.97516" fill="#2C95B7"/>
<rect x="113.837" y="639.038" width="6.97516" height="6.97516" fill="#2C95B7"/>
<rect x="106.862" y="632.063" width="6.97516" height="6.97516" fill="#2C95B7"/>
<rect x="120.812" y="603.388" width="7.75018" height="6.97516" fill="#64C4E2"/>
<rect x="120.812" y="646.014" width="7.75018" height="6.97516" fill="#64C4E2"/>
<rect x="99.8867" y="624.313" width="6.97516" height="7.75018" fill="#58D7FF"/>
<rect x="142.513" y="624.313" width="6.97516" height="7.75018" fill="#58D7FF"/>
<rect x="135.538" y="624.313" width="6.97516" height="7.75018" fill="#58D7FF"/>
<rect x="767.861" y="466.752" width="7.75018" height="7.75018" fill="white"/>
<rect x="767.861" y="459.777" width="7.75018" height="6.97516" fill="#64C4E2"/>
<rect x="775.612" y="466.752" width="6.97516" height="7.75018" fill="#64C4E2"/>
<rect x="767.861" y="474.503" width="7.75018" height="6.97516" fill="#64C4E2"/>
<rect x="760.886" y="466.752" width="6.97516" height="7.75018" fill="#64C4E2"/>
<rect x="767.861" y="452.802" width="7.75018" height="6.97516" fill="#64C4E2"/>
<rect x="767.861" y="481.478" width="7.75018" height="6.97516" fill="#64C4E2"/>
<rect x="760.886" y="474.503" width="6.97516" height="6.97516" fill="#58D7FF"/>
<rect x="760.886" y="459.777" width="6.97516" height="6.97516" fill="#58D7FF"/>
<rect x="775.612" y="459.777" width="6.97516" height="6.97516" fill="#58D7FF"/>
<rect x="775.612" y="474.503" width="6.97516" height="6.97516" fill="#58D7FF"/>
<rect x="753.911" y="466.752" width="6.97516" height="7.75018" fill="#58D7FF"/>
<rect x="753.911" y="459.777" width="6.97516" height="6.97516" fill="#2C95B7"/>
<rect x="760.886" y="452.802" width="6.97516" height="6.97516" fill="#2C95B7"/>
<rect x="775.612" y="452.802" width="6.97516" height="6.97516" fill="#2C95B7"/>
<rect x="782.587" y="459.777" width="6.97516" height="6.97516" fill="#2C95B7"/>
<rect x="782.587" y="474.503" width="6.97516" height="6.97516" fill="#2C95B7"/>
<rect x="775.612" y="481.478" width="6.97516" height="6.97516" fill="#2C95B7"/>
<rect x="760.886" y="481.478" width="6.97516" height="6.97516" fill="#2C95B7"/>
<rect x="753.911" y="474.503" width="6.97516" height="6.97516" fill="#2C95B7"/>
<rect x="767.861" y="445.827" width="7.75018" height="6.97516" fill="#64C4E2"/>
<rect x="767.861" y="488.453" width="7.75018" height="6.97516" fill="#64C4E2"/>
<rect x="746.936" y="466.752" width="6.97516" height="7.75018" fill="#58D7FF"/>
<rect x="789.562" y="466.752" width="6.97516" height="7.75018" fill="#58D7FF"/>
<rect x="782.587" y="466.752" width="6.97516" height="7.75018" fill="#58D7FF"/>
<rect x="239.518" y="183.762" width="17.8254" height="17.8254" fill="white"/>
<rect x="692.322" y="267.721" width="17.8254" height="17.8254" fill="white"/>
<rect x="934.581" y="359.257" width="17.8254" height="17.8254" fill="white"/>
<rect x="802.365" y="773.102" width="17.8254" height="17.8254" fill="white"/>
<rect x="209.765" y="830.161" width="17.8254" height="17.8254" fill="white"/>
<rect x="271.715" y="620.672" width="17.8254" height="17.8254" fill="white"/>
<rect x="102.986" y="388.708" width="17.8254" height="17.8254" fill="white"/>
<defs>
<radialGradient id="paint0_radial_772_22294" cx="0" cy="0" r="1" gradientUnits="userSpaceOnUse" gradientTransform="translate(540.097 539.771) rotate(90) scale(539.413)">
<stop offset="0.03125" stop-color="#A7A7A7"/>
<stop offset="1"/>
</radialGradient>
</defs>
</svg>
