<svg width="1080" height="1080" viewBox="0 0 1080 1080" fill="none" xmlns="http://www.w3.org/2000/svg">
<circle cx="540.097" cy="540.169" r="539.413" fill="url(#paint0_radial_772_22443)"/>
<rect x="819.622" y="725.954" width="7.75018" height="7.75018" fill="white"/>
<rect x="819.622" y="718.979" width="7.75018" height="6.97516" fill="#58D7FF"/>
<rect x="827.373" y="725.954" width="6.97516" height="7.75018" fill="#58D7FF"/>
<rect x="819.622" y="733.705" width="7.75018" height="6.97516" fill="#58D7FF"/>
<rect x="812.647" y="725.954" width="6.97516" height="7.75018" fill="#58D7FF"/>
<rect x="819.622" y="712.004" width="7.75018" height="6.97516" fill="#58D7FF"/>
<rect x="819.622" y="740.68" width="7.75018" height="6.97516" fill="#58D7FF"/>
<rect x="812.647" y="733.705" width="6.97516" height="6.97516" fill="#53C4E8"/>
<rect x="812.647" y="718.979" width="6.97516" height="6.97516" fill="#53C4E8"/>
<rect x="827.373" y="718.979" width="6.97516" height="6.97516" fill="#53C4E8"/>
<rect x="827.373" y="733.705" width="6.97516" height="6.97516" fill="#53C4E8"/>
<rect x="805.672" y="725.954" width="6.97516" height="7.75018" fill="#53C4E8"/>
<rect x="805.672" y="718.979" width="6.97516" height="6.97516" fill="#2C95B7"/>
<rect x="812.647" y="712.004" width="6.97516" height="6.97516" fill="#2C95B7"/>
<rect x="827.373" y="712.004" width="6.97516" height="6.97516" fill="#2C95B7"/>
<rect x="834.348" y="718.979" width="6.97516" height="6.97516" fill="#2C95B7"/>
<rect x="834.348" y="733.705" width="6.97516" height="6.97516" fill="#2C95B7"/>
<rect x="827.373" y="740.68" width="6.97516" height="6.97516" fill="#2C95B7"/>
<rect x="812.647" y="740.68" width="6.97516" height="6.97516" fill="#2C95B7"/>
<rect x="805.672" y="733.705" width="6.97516" height="6.97516" fill="#2C95B7"/>
<rect x="819.622" y="705.029" width="7.75018" height="6.97516" fill="#58D7FF"/>
<rect x="819.622" y="747.655" width="7.75018" height="6.97516" fill="#58D7FF"/>
<rect x="798.697" y="725.954" width="6.97516" height="7.75018" fill="#53C4E8"/>
<rect x="841.323" y="725.954" width="6.97516" height="7.75018" fill="#53C4E8"/>
<rect x="834.348" y="725.954" width="6.97516" height="7.75018" fill="#53C4E8"/>
<rect x="655.574" y="196.934" width="17.8254" height="17.8254" fill="white"/>
<rect x="887.954" y="313.766" width="17.8254" height="17.8254" fill="white"/>
<rect x="744.702" y="445.715" width="17.8254" height="17.8254" fill="white"/>
<rect x="916.756" y="530.967" width="17.8254" height="17.8254" fill="white"/>
<rect x="305.266" y="202.36" width="17.8254" height="17.8254" fill="white"/>
<rect x="128.562" y="348.838" width="17.8254" height="17.8254" fill="white"/>
<rect x="294.416" y="754.948" width="17.8254" height="17.8254" fill="white"/>
<rect x="124.687" y="681.321" width="17.8254" height="17.8254" fill="white"/>
<rect x="239.11" y="522.032" width="17.8254" height="17.8254" fill="white"/>
<defs>
<radialGradient id="paint0_radial_772_22443" cx="0" cy="0" r="1" gradientUnits="userSpaceOnUse" gradientTransform="translate(540.097 540.169) rotate(90) scale(539.413)">
<stop stop-color="#B0B0B0"/>
<stop offset="1"/>
</radialGradient>
</defs>
</svg>
