<svg width="1080" height="1080" viewBox="0 0 1080 1080" fill="none" xmlns="http://www.w3.org/2000/svg">
<circle cx="540.097" cy="539.889" r="539.413" fill="url(#paint0_radial_772_22490)"/>
<rect x="785.117" y="771.052" width="8.78713" height="8.78713" fill="white"/>
<rect x="785.117" y="762.265" width="8.78713" height="8.78713" fill="#58D7FF"/>
<rect x="793.904" y="771.052" width="8.78713" height="8.78713" fill="#58D7FF"/>
<rect x="785.117" y="779.839" width="8.78713" height="8.78713" fill="#58D7FF"/>
<rect x="776.33" y="771.052" width="8.78713" height="8.78713" fill="#58D7FF"/>
<rect x="785.117" y="753.478" width="8.78713" height="8.78713" fill="#58D7FF"/>
<rect x="785.117" y="788.627" width="8.78713" height="8.78713" fill="#58D7FF"/>
<rect x="776.33" y="779.839" width="8.78713" height="8.78713" fill="#53C4E8"/>
<rect x="776.33" y="762.265" width="8.78713" height="8.78713" fill="#53C4E8"/>
<rect x="793.904" y="762.265" width="8.78713" height="8.78713" fill="#53C4E8"/>
<rect x="793.904" y="779.839" width="8.78713" height="8.78713" fill="#53C4E8"/>
<rect x="767.543" y="771.052" width="8.78713" height="8.78713" fill="#53C4E8"/>
<rect x="767.543" y="762.265" width="8.78713" height="8.78713" fill="#2C95B7"/>
<rect x="776.33" y="753.478" width="8.78713" height="8.78713" fill="#2C95B7"/>
<rect x="793.904" y="753.478" width="8.78713" height="8.78713" fill="#2C95B7"/>
<rect x="802.691" y="762.265" width="8.78713" height="8.78713" fill="#2C95B7"/>
<rect x="802.691" y="779.839" width="8.78713" height="8.78713" fill="#2C95B7"/>
<rect x="793.904" y="788.627" width="8.78713" height="8.78713" fill="#2C95B7"/>
<rect x="776.33" y="788.627" width="8.78713" height="8.78713" fill="#2C95B7"/>
<rect x="767.543" y="779.839" width="8.78713" height="8.78713" fill="#2C95B7"/>
<rect x="785.117" y="744.691" width="8.78713" height="8.78713" fill="#58D7FF"/>
<rect x="785.117" y="797.414" width="8.78713" height="8.78713" fill="#58D7FF"/>
<rect x="758.756" y="771.052" width="8.78713" height="8.78713" fill="#53C4E8"/>
<rect x="811.479" y="771.052" width="8.78713" height="8.78713" fill="#53C4E8"/>
<rect x="802.691" y="771.052" width="8.78713" height="8.78713" fill="#53C4E8"/>
<rect x="125.708" y="311.35" width="8.66173" height="8.66173" fill="white"/>
<rect x="125.708" y="302.688" width="8.66173" height="8.66173" fill="#58D7FF"/>
<rect x="134.37" y="311.35" width="8.66173" height="8.66173" fill="#58D7FF"/>
<rect x="125.708" y="320.011" width="8.66173" height="8.66173" fill="#58D7FF"/>
<rect x="117.046" y="311.35" width="8.66173" height="8.66173" fill="#58D7FF"/>
<rect x="125.708" y="294.026" width="8.66173" height="8.66173" fill="#58D7FF"/>
<rect x="125.708" y="328.673" width="8.66173" height="8.66173" fill="#58D7FF"/>
<rect x="117.046" y="320.011" width="8.66173" height="8.66173" fill="#53C4E8"/>
<rect x="117.046" y="302.688" width="8.66173" height="8.66173" fill="#53C4E8"/>
<rect x="134.37" y="302.688" width="8.66173" height="8.66173" fill="#53C4E8"/>
<rect x="134.37" y="320.011" width="8.66173" height="8.66173" fill="#53C4E8"/>
<rect x="108.384" y="311.35" width="8.66173" height="8.66173" fill="#53C4E8"/>
<rect x="108.384" y="302.688" width="8.66173" height="8.66173" fill="#2C95B7"/>
<rect x="117.046" y="294.026" width="8.66173" height="8.66173" fill="#2C95B7"/>
<rect x="134.37" y="294.026" width="8.66173" height="8.66173" fill="#2C95B7"/>
<rect x="143.031" y="302.688" width="8.66173" height="8.66173" fill="#2C95B7"/>
<rect x="143.031" y="320.011" width="8.66173" height="8.66173" fill="#2C95B7"/>
<rect x="134.37" y="328.673" width="8.66173" height="8.66173" fill="#2C95B7"/>
<rect x="117.046" y="328.673" width="8.66173" height="8.66173" fill="#2C95B7"/>
<rect x="108.384" y="320.011" width="8.66173" height="8.66173" fill="#2C95B7"/>
<rect x="125.708" y="285.365" width="8.66173" height="8.66173" fill="#58D7FF"/>
<rect x="125.708" y="337.335" width="8.66173" height="8.66173" fill="#58D7FF"/>
<rect x="99.7227" y="311.35" width="8.66173" height="8.66173" fill="#53C4E8"/>
<rect x="151.693" y="311.35" width="8.66173" height="8.66173" fill="#53C4E8"/>
<rect x="143.031" y="311.35" width="8.66173" height="8.66173" fill="#53C4E8"/>
<rect x="343.586" y="242.71" width="7.75018" height="7.75018" fill="white"/>
<rect x="343.586" y="235.735" width="7.75018" height="6.97516" fill="#58D7FF"/>
<rect x="351.336" y="242.71" width="6.97516" height="7.75018" fill="#58D7FF"/>
<rect x="343.586" y="250.46" width="7.75018" height="6.97516" fill="#58D7FF"/>
<rect x="336.611" y="242.71" width="6.97516" height="7.75018" fill="#58D7FF"/>
<rect x="343.586" y="228.76" width="7.75018" height="6.97516" fill="#58D7FF"/>
<rect x="343.586" y="257.436" width="7.75018" height="6.97516" fill="#58D7FF"/>
<rect x="336.611" y="250.46" width="6.97516" height="6.97516" fill="#53C4E8"/>
<rect x="336.611" y="235.735" width="6.97516" height="6.97516" fill="#53C4E8"/>
<rect x="351.336" y="235.735" width="6.97516" height="6.97516" fill="#53C4E8"/>
<rect x="351.336" y="250.46" width="6.97516" height="6.97516" fill="#53C4E8"/>
<rect x="329.636" y="242.71" width="6.97516" height="7.75018" fill="#53C4E8"/>
<rect x="329.636" y="235.735" width="6.97516" height="6.97516" fill="#2C95B7"/>
<rect x="336.611" y="228.76" width="6.97516" height="6.97516" fill="#2C95B7"/>
<rect x="351.336" y="228.76" width="6.97516" height="6.97516" fill="#2C95B7"/>
<rect x="358.312" y="235.735" width="6.97516" height="6.97516" fill="#2C95B7"/>
<rect x="358.312" y="250.46" width="6.97516" height="6.97516" fill="#2C95B7"/>
<rect x="351.336" y="257.436" width="6.97516" height="6.97516" fill="#2C95B7"/>
<rect x="336.611" y="257.436" width="6.97516" height="6.97516" fill="#2C95B7"/>
<rect x="329.636" y="250.46" width="6.97516" height="6.97516" fill="#2C95B7"/>
<rect x="343.586" y="221.785" width="7.75018" height="6.97516" fill="#58D7FF"/>
<rect x="343.586" y="264.411" width="7.75018" height="6.97516" fill="#58D7FF"/>
<rect x="322.661" y="242.71" width="6.97516" height="7.75018" fill="#53C4E8"/>
<rect x="365.287" y="242.71" width="6.97516" height="7.75018" fill="#53C4E8"/>
<rect x="358.312" y="242.71" width="6.97516" height="7.75018" fill="#53C4E8"/>
<rect x="972.037" y="520.514" width="7.75018" height="7.75018" fill="white"/>
<rect x="972.037" y="513.539" width="7.75018" height="6.97516" fill="#58D7FF"/>
<rect x="979.788" y="520.514" width="6.97516" height="7.75018" fill="#58D7FF"/>
<rect x="972.037" y="528.264" width="7.75018" height="6.97516" fill="#58D7FF"/>
<rect x="965.062" y="520.514" width="6.97516" height="7.75018" fill="#58D7FF"/>
<rect x="972.037" y="506.563" width="7.75018" height="6.97516" fill="#58D7FF"/>
<rect x="972.037" y="535.239" width="7.75018" height="6.97516" fill="#58D7FF"/>
<rect x="965.062" y="528.264" width="6.97516" height="6.97516" fill="#53C4E8"/>
<rect x="965.062" y="513.539" width="6.97516" height="6.97516" fill="#53C4E8"/>
<rect x="979.788" y="513.539" width="6.97516" height="6.97516" fill="#53C4E8"/>
<rect x="979.788" y="528.264" width="6.97516" height="6.97516" fill="#53C4E8"/>
<rect x="958.087" y="520.514" width="6.97516" height="7.75018" fill="#53C4E8"/>
<rect x="958.087" y="513.539" width="6.97516" height="6.97516" fill="#2C95B7"/>
<rect x="965.062" y="506.563" width="6.97516" height="6.97516" fill="#2C95B7"/>
<rect x="979.788" y="506.563" width="6.97516" height="6.97516" fill="#2C95B7"/>
<rect x="986.763" y="513.539" width="6.97516" height="6.97516" fill="#2C95B7"/>
<rect x="986.763" y="528.264" width="6.97516" height="6.97516" fill="#2C95B7"/>
<rect x="979.788" y="535.239" width="6.97516" height="6.97516" fill="#2C95B7"/>
<rect x="965.062" y="535.239" width="6.97516" height="6.97516" fill="#2C95B7"/>
<rect x="958.087" y="528.264" width="6.97516" height="6.97516" fill="#2C95B7"/>
<rect x="972.037" y="499.588" width="7.75018" height="6.97516" fill="#58D7FF"/>
<rect x="972.037" y="542.214" width="7.75018" height="6.97516" fill="#58D7FF"/>
<rect x="951.112" y="520.514" width="6.97516" height="7.75018" fill="#53C4E8"/>
<rect x="993.738" y="520.514" width="6.97516" height="7.75018" fill="#53C4E8"/>
<rect x="986.763" y="520.514" width="6.97516" height="7.75018" fill="#53C4E8"/>
<rect x="204.606" y="566.724" width="7.75018" height="7.75018" fill="white"/>
<rect x="204.606" y="559.749" width="7.75018" height="6.97516" fill="#58D7FF"/>
<rect x="212.357" y="566.724" width="6.97516" height="7.75018" fill="#58D7FF"/>
<rect x="204.606" y="574.475" width="7.75018" height="6.97516" fill="#58D7FF"/>
<rect x="197.631" y="566.724" width="6.97516" height="7.75018" fill="#58D7FF"/>
<rect x="204.606" y="552.774" width="7.75018" height="6.97516" fill="#58D7FF"/>
<rect x="204.606" y="581.45" width="7.75018" height="6.97516" fill="#58D7FF"/>
<rect x="197.631" y="574.475" width="6.97516" height="6.97516" fill="#53C4E8"/>
<rect x="197.631" y="559.749" width="6.97516" height="6.97516" fill="#53C4E8"/>
<rect x="212.357" y="559.749" width="6.97516" height="6.97516" fill="#53C4E8"/>
<rect x="212.357" y="574.475" width="6.97516" height="6.97516" fill="#53C4E8"/>
<rect x="190.656" y="566.724" width="6.97516" height="7.75018" fill="#53C4E8"/>
<rect x="190.656" y="559.749" width="6.97516" height="6.97516" fill="#2C95B7"/>
<rect x="197.631" y="552.774" width="6.97516" height="6.97516" fill="#2C95B7"/>
<rect x="212.357" y="552.774" width="6.97516" height="6.97516" fill="#2C95B7"/>
<rect x="219.332" y="559.749" width="6.97516" height="6.97516" fill="#2C95B7"/>
<rect x="219.332" y="574.475" width="6.97516" height="6.97516" fill="#2C95B7"/>
<rect x="212.357" y="581.45" width="6.97516" height="6.97516" fill="#2C95B7"/>
<rect x="197.631" y="581.45" width="6.97516" height="6.97516" fill="#2C95B7"/>
<rect x="190.656" y="574.475" width="6.97516" height="6.97516" fill="#2C95B7"/>
<rect x="204.606" y="545.799" width="7.75018" height="6.97516" fill="#58D7FF"/>
<rect x="204.606" y="588.425" width="7.75018" height="6.97516" fill="#58D7FF"/>
<rect x="183.681" y="566.724" width="6.97516" height="7.75018" fill="#53C4E8"/>
<rect x="226.307" y="566.724" width="6.97516" height="7.75018" fill="#53C4E8"/>
<rect x="219.332" y="566.724" width="6.97516" height="7.75018" fill="#53C4E8"/>
<rect x="809.231" y="346.135" width="31.7965" height="9.08473" fill="#FF7495"/>
<rect width="31.7965" height="9.08473" transform="matrix(1 0 0 -1 809.231 443.147)" fill="#FF7495"/>
<rect x="793.333" y="353.922" width="63.9175" height="10.3825" fill="#FF7495"/>
<rect width="63.9175" height="10.3825" transform="matrix(1 0 0 -1 793.333 435.036)" fill="#FF7495"/>
<rect x="785.222" y="361.06" width="80.4647" height="17.5205" fill="#FF7495"/>
<rect width="80.4647" height="17.5205" transform="matrix(1 0 0 -1 785.222 428.222)" fill="#FF7495"/>
<rect x="776.786" y="378.256" width="97.0119" height="32.4454" fill="#FF7495"/>
<rect x="776.786" y="393.829" width="8.43582" height="8.43582" fill="#FF7495"/>
<rect x="785.222" y="393.829" width="8.43582" height="8.43582" fill="#FF7495"/>
<rect x="776.786" y="402.265" width="8.43582" height="8.43582" fill="#FF7495"/>
<rect x="785.222" y="402.265" width="8.43582" height="8.43582" fill="#F1A449"/>
<rect x="785.222" y="409.728" width="8.43582" height="8.43582" fill="#F1A449"/>
<rect x="801.769" y="397.074" width="8.43582" height="8.43582" fill="#F1A449"/>
<rect x="801.769" y="402.265" width="8.43582" height="8.43582" fill="#F1A449"/>
<rect x="801.769" y="393.829" width="8.43582" height="8.43582" fill="#F1A449"/>
<rect x="810.205" y="390.585" width="16.8716" height="14.9249" fill="#FFAE4F"/>
<rect x="827.076" y="397.074" width="16.8716" height="14.9249" fill="#FFAE4F"/>
<rect x="843.624" y="388.313" width="16.8716" height="14.9249" fill="#FFAE4F"/>
<rect x="856.926" y="378.256" width="16.8716" height="14.9249" fill="#FFAE4F"/>
<rect x="793.333" y="402.265" width="8.43582" height="15.8983" fill="#F1A449"/>
<rect x="793.333" y="393.829" width="8.43582" height="15.8983" fill="#F1A449"/>
<rect x="785.222" y="415.892" width="19.1428" height="12.0048" fill="#FF7495"/>
<rect x="793.657" y="415.892" width="23.6852" height="19.1428" fill="#FF7495"/>
<rect x="833.565" y="426.599" width="23.6852" height="8.43582" fill="#FF7495"/>
<rect x="809.231" y="426.599" width="31.7965" height="16.5472" fill="#FF7495"/>
<rect x="776.786" y="385.393" width="8.43582" height="8.43582" fill="#FF7495"/>
<rect x="810.205" y="397.074" width="8.43582" height="8.43582" fill="#F1A449"/>
<rect x="777.744" y="406.947" width="6.83346" height="12.5715" fill="#53C4E8"/>
<rect x="764.077" y="427.255" width="6.83346" height="12.5715" fill="#53C4E8"/>
<rect x="770.91" y="413.233" width="6.83346" height="32.8792" fill="#53C4E8"/>
<rect x="777.744" y="433.541" width="20.5004" height="12.5715" fill="#53C4E8"/>
<rect x="798.244" y="433.541" width="14.1926" height="6.28573" fill="#53C4E8"/>
<rect x="805.603" y="427.255" width="22.0773" height="6.28573" fill="#53C4E8"/>
<rect x="820.847" y="419.519" width="14.1926" height="7.73629" fill="#53C4E8"/>
<rect x="828.206" y="411.783" width="14.1926" height="7.73629" fill="#53C4E8"/>
<rect x="835.565" y="406.947" width="14.1926" height="7.73629" fill="#53C4E8"/>
<rect x="856.591" y="392.442" width="14.1926" height="7.73629" fill="#53C4E8"/>
<rect x="863.95" y="386.64" width="14.1926" height="7.73629" fill="#53C4E8"/>
<rect x="871.309" y="378.903" width="14.1926" height="7.73629" fill="#53C4E8"/>
<rect x="842.398" y="399.211" width="21.5517" height="7.73629" fill="#53C4E8"/>
<rect x="878.668" y="361.013" width="14.1926" height="19.3407" fill="#53C4E8"/>
<rect x="856.591" y="353.76" width="28.9108" height="12.5715" fill="#53C4E8"/>
<rect x="177.475" y="721.866" width="29.4662" height="8.41892" fill="#51FF82"/>
<rect width="29.4662" height="8.41892" transform="matrix(1 0 0 -1 177.475 811.769)" fill="#51FF82"/>
<rect x="162.742" y="729.083" width="59.2331" height="9.62162" fill="#51FF82"/>
<rect width="59.2331" height="9.62162" transform="matrix(1 0 0 -1 162.742 804.251)" fill="#51FF82"/>
<rect x="155.225" y="735.698" width="74.5676" height="16.2365" fill="#51FF82"/>
<rect width="74.5676" height="16.2365" transform="matrix(1 0 0 -1 155.225 797.938)" fill="#51FF82"/>
<rect x="147.407" y="751.634" width="89.9021" height="30.0676" fill="#51FF82"/>
<rect x="147.407" y="766.066" width="7.81757" height="7.81757" fill="#3ACF64"/>
<rect x="155.225" y="766.066" width="7.81757" height="7.81757" fill="#3ACF64"/>
<rect x="147.407" y="773.884" width="7.81757" height="7.81757" fill="#3ACF64"/>
<rect x="155.225" y="773.884" width="7.81757" height="7.81757" fill="#2C95B7"/>
<rect x="155.225" y="780.799" width="7.81757" height="7.81757" fill="#2C95B7"/>
<rect x="170.56" y="769.073" width="7.81757" height="7.81757" fill="#2C95B7"/>
<rect x="170.56" y="773.884" width="7.81757" height="7.81757" fill="#2C95B7"/>
<rect x="170.56" y="766.066" width="7.81757" height="7.81757" fill="#2C95B7"/>
<rect x="178.377" y="763.059" width="15.6351" height="13.8311" fill="#58D7FF"/>
<rect x="194.012" y="769.073" width="15.6351" height="13.8311" fill="#58D7FF"/>
<rect x="209.347" y="760.954" width="15.6351" height="13.8311" fill="#58D7FF"/>
<rect x="221.674" y="751.634" width="15.6351" height="13.8311" fill="#58D7FF"/>
<rect x="162.742" y="773.884" width="7.81757" height="14.7331" fill="#2C95B7"/>
<rect x="162.742" y="766.066" width="7.81757" height="14.7331" fill="#2C95B7"/>
<rect x="155.225" y="786.512" width="17.7399" height="11.125" fill="#3ACF64"/>
<rect x="163.042" y="786.512" width="21.9493" height="17.7399" fill="#3ACF64"/>
<rect x="200.025" y="796.434" width="21.9493" height="7.81757" fill="#3ACF64"/>
<rect x="177.475" y="796.434" width="29.4662" height="15.3345" fill="#3ACF64"/>
<rect x="147.407" y="758.248" width="7.81757" height="7.81757" fill="#3ACF64"/>
<rect x="178.377" y="769.073" width="7.81757" height="7.81757" fill="#2C95B7"/>
<rect x="961.962" y="667.767" width="17.8254" height="17.8254" fill="white"/>
<rect x="777.911" y="549.059" width="17.8254" height="17.8254" fill="white"/>
<rect x="820.298" y="221.377" width="17.8254" height="17.8254" fill="white"/>
<rect x="237.479" y="389.701" width="17.8254" height="17.8254" fill="white"/>
<rect x="74.4531" y="649.728" width="17.8254" height="17.8254" fill="white"/>
<defs>
<radialGradient id="paint0_radial_772_22490" cx="0" cy="0" r="1" gradientUnits="userSpaceOnUse" gradientTransform="translate(540.097 539.889) rotate(90) scale(539.413)">
<stop stop-color="#AEAEAE"/>
<stop offset="1"/>
</radialGradient>
</defs>
</svg>
