<svg width="1080" height="1080" viewBox="0 0 1080 1080" fill="none" xmlns="http://www.w3.org/2000/svg">
<circle cx="540.097" cy="539.941" r="539.413" fill="url(#paint0_radial_772_23069)"/>
<rect x="821.798" y="771.104" width="8.78713" height="8.78713" fill="white"/>
<rect x="821.798" y="762.316" width="8.78713" height="8.78713" fill="#58D7FF"/>
<rect x="830.585" y="771.104" width="8.78713" height="8.78713" fill="#58D7FF"/>
<rect x="821.798" y="779.891" width="8.78713" height="8.78713" fill="#58D7FF"/>
<rect x="813.011" y="771.104" width="8.78713" height="8.78713" fill="#58D7FF"/>
<rect x="821.798" y="753.529" width="8.78713" height="8.78713" fill="#58D7FF"/>
<rect x="821.798" y="788.678" width="8.78713" height="8.78713" fill="#58D7FF"/>
<rect x="813.011" y="779.891" width="8.78713" height="8.78713" fill="#53C4E8"/>
<rect x="813.011" y="762.316" width="8.78713" height="8.78713" fill="#53C4E8"/>
<rect x="830.585" y="762.316" width="8.78713" height="8.78713" fill="#53C4E8"/>
<rect x="830.585" y="779.891" width="8.78713" height="8.78713" fill="#53C4E8"/>
<rect x="804.224" y="771.104" width="8.78713" height="8.78713" fill="#53C4E8"/>
<rect x="804.224" y="762.316" width="8.78713" height="8.78713" fill="#2C95B7"/>
<rect x="813.011" y="753.529" width="8.78713" height="8.78713" fill="#2C95B7"/>
<rect x="830.585" y="753.529" width="8.78713" height="8.78713" fill="#2C95B7"/>
<rect x="839.372" y="762.316" width="8.78713" height="8.78713" fill="#2C95B7"/>
<rect x="839.372" y="779.891" width="8.78713" height="8.78713" fill="#2C95B7"/>
<rect x="830.585" y="788.678" width="8.78713" height="8.78713" fill="#2C95B7"/>
<rect x="813.011" y="788.678" width="8.78713" height="8.78713" fill="#2C95B7"/>
<rect x="804.224" y="779.891" width="8.78713" height="8.78713" fill="#2C95B7"/>
<rect x="821.798" y="744.742" width="8.78713" height="8.78713" fill="#58D7FF"/>
<rect x="821.798" y="797.465" width="8.78713" height="8.78713" fill="#58D7FF"/>
<rect x="795.437" y="771.104" width="8.78713" height="8.78713" fill="#53C4E8"/>
<rect x="848.159" y="771.104" width="8.78713" height="8.78713" fill="#53C4E8"/>
<rect x="839.372" y="771.104" width="8.78713" height="8.78713" fill="#53C4E8"/>
<rect x="190.198" y="539.638" width="8.66173" height="8.66173" fill="white"/>
<rect x="190.198" y="530.976" width="8.66173" height="8.66173" fill="#58D7FF"/>
<rect x="198.86" y="539.638" width="8.66173" height="8.66173" fill="#58D7FF"/>
<rect x="190.198" y="548.3" width="8.66173" height="8.66173" fill="#58D7FF"/>
<rect x="181.537" y="539.638" width="8.66173" height="8.66173" fill="#58D7FF"/>
<rect x="190.198" y="522.314" width="8.66173" height="8.66173" fill="#58D7FF"/>
<rect x="190.198" y="556.961" width="8.66173" height="8.66173" fill="#58D7FF"/>
<rect x="181.537" y="548.3" width="8.66173" height="8.66173" fill="#53C4E8"/>
<rect x="181.537" y="530.976" width="8.66173" height="8.66173" fill="#53C4E8"/>
<rect x="198.86" y="530.976" width="8.66173" height="8.66173" fill="#53C4E8"/>
<rect x="198.86" y="548.3" width="8.66173" height="8.66173" fill="#53C4E8"/>
<rect x="172.875" y="539.638" width="8.66173" height="8.66173" fill="#53C4E8"/>
<rect x="172.875" y="530.976" width="8.66173" height="8.66173" fill="#2C95B7"/>
<rect x="181.537" y="522.314" width="8.66173" height="8.66173" fill="#2C95B7"/>
<rect x="198.86" y="522.314" width="8.66173" height="8.66173" fill="#2C95B7"/>
<rect x="207.521" y="530.976" width="8.66173" height="8.66173" fill="#2C95B7"/>
<rect x="207.521" y="548.3" width="8.66173" height="8.66173" fill="#2C95B7"/>
<rect x="198.86" y="556.961" width="8.66173" height="8.66173" fill="#2C95B7"/>
<rect x="181.537" y="556.961" width="8.66173" height="8.66173" fill="#2C95B7"/>
<rect x="172.875" y="548.3" width="8.66173" height="8.66173" fill="#2C95B7"/>
<rect x="190.198" y="513.653" width="8.66173" height="8.66173" fill="#58D7FF"/>
<rect x="190.198" y="565.623" width="8.66173" height="8.66173" fill="#58D7FF"/>
<rect x="164.213" y="539.638" width="8.66173" height="8.66173" fill="#53C4E8"/>
<rect x="216.183" y="539.638" width="8.66173" height="8.66173" fill="#53C4E8"/>
<rect x="207.521" y="539.638" width="8.66173" height="8.66173" fill="#53C4E8"/>
<rect x="427.719" y="180.332" width="7.75018" height="7.75018" fill="white"/>
<rect x="427.719" y="173.357" width="7.75018" height="6.97516" fill="#58D7FF"/>
<rect x="435.47" y="180.332" width="6.97516" height="7.75018" fill="#58D7FF"/>
<rect x="427.719" y="188.082" width="7.75018" height="6.97516" fill="#58D7FF"/>
<rect x="420.744" y="180.332" width="6.97516" height="7.75018" fill="#58D7FF"/>
<rect x="427.719" y="166.381" width="7.75018" height="6.97516" fill="#58D7FF"/>
<rect x="427.719" y="195.057" width="7.75018" height="6.97516" fill="#58D7FF"/>
<rect x="420.744" y="188.082" width="6.97516" height="6.97516" fill="#53C4E8"/>
<rect x="420.744" y="173.357" width="6.97516" height="6.97516" fill="#53C4E8"/>
<rect x="435.47" y="173.357" width="6.97516" height="6.97516" fill="#53C4E8"/>
<rect x="435.47" y="188.082" width="6.97516" height="6.97516" fill="#53C4E8"/>
<rect x="413.769" y="180.332" width="6.97516" height="7.75018" fill="#53C4E8"/>
<rect x="413.769" y="173.357" width="6.97516" height="6.97516" fill="#2C95B7"/>
<rect x="420.744" y="166.381" width="6.97516" height="6.97516" fill="#2C95B7"/>
<rect x="435.47" y="166.381" width="6.97516" height="6.97516" fill="#2C95B7"/>
<rect x="442.445" y="173.357" width="6.97516" height="6.97516" fill="#2C95B7"/>
<rect x="442.445" y="188.082" width="6.97516" height="6.97516" fill="#2C95B7"/>
<rect x="435.47" y="195.057" width="6.97516" height="6.97516" fill="#2C95B7"/>
<rect x="420.744" y="195.057" width="6.97516" height="6.97516" fill="#2C95B7"/>
<rect x="413.769" y="188.082" width="6.97516" height="6.97516" fill="#2C95B7"/>
<rect x="427.719" y="159.406" width="7.75018" height="6.97516" fill="#58D7FF"/>
<rect x="427.719" y="202.032" width="7.75018" height="6.97516" fill="#58D7FF"/>
<rect x="406.794" y="180.332" width="6.97516" height="7.75018" fill="#53C4E8"/>
<rect x="449.42" y="180.332" width="6.97516" height="7.75018" fill="#53C4E8"/>
<rect x="442.445" y="180.332" width="6.97516" height="7.75018" fill="#53C4E8"/>
<rect x="113.061" y="370.987" width="7.75018" height="7.75018" fill="white"/>
<rect x="113.061" y="364.011" width="7.75018" height="6.97516" fill="#58D7FF"/>
<rect x="120.812" y="370.987" width="6.97516" height="7.75018" fill="#58D7FF"/>
<rect x="113.061" y="378.737" width="7.75018" height="6.97516" fill="#58D7FF"/>
<rect x="106.086" y="370.987" width="6.97516" height="7.75018" fill="#58D7FF"/>
<rect x="113.061" y="357.036" width="7.75018" height="6.97516" fill="#58D7FF"/>
<rect x="113.061" y="385.712" width="7.75018" height="6.97516" fill="#58D7FF"/>
<rect x="106.086" y="378.737" width="6.97516" height="6.97516" fill="#53C4E8"/>
<rect x="106.086" y="364.011" width="6.97516" height="6.97516" fill="#53C4E8"/>
<rect x="120.812" y="364.011" width="6.97516" height="6.97516" fill="#53C4E8"/>
<rect x="120.812" y="378.737" width="6.97516" height="6.97516" fill="#53C4E8"/>
<rect x="99.1108" y="370.987" width="6.97516" height="7.75018" fill="#53C4E8"/>
<rect x="99.1108" y="364.011" width="6.97516" height="6.97516" fill="#2C95B7"/>
<rect x="106.086" y="357.036" width="6.97516" height="6.97516" fill="#2C95B7"/>
<rect x="120.812" y="357.036" width="6.97516" height="6.97516" fill="#2C95B7"/>
<rect x="127.787" y="364.011" width="6.97516" height="6.97516" fill="#2C95B7"/>
<rect x="127.787" y="378.737" width="6.97516" height="6.97516" fill="#2C95B7"/>
<rect x="120.812" y="385.712" width="6.97516" height="6.97516" fill="#2C95B7"/>
<rect x="106.086" y="385.712" width="6.97516" height="6.97516" fill="#2C95B7"/>
<rect x="99.1108" y="378.737" width="6.97516" height="6.97516" fill="#2C95B7"/>
<rect x="113.061" y="350.061" width="7.75018" height="6.97516" fill="#58D7FF"/>
<rect x="113.061" y="392.687" width="7.75018" height="6.97516" fill="#58D7FF"/>
<rect x="92.1357" y="370.987" width="6.97516" height="7.75018" fill="#53C4E8"/>
<rect x="134.762" y="370.987" width="6.97516" height="7.75018" fill="#53C4E8"/>
<rect x="127.787" y="370.987" width="6.97516" height="7.75018" fill="#53C4E8"/>
<rect x="972.037" y="520.565" width="7.75018" height="7.75018" fill="white"/>
<rect x="972.037" y="513.59" width="7.75018" height="6.97516" fill="#58D7FF"/>
<rect x="979.787" y="520.565" width="6.97516" height="7.75018" fill="#58D7FF"/>
<rect x="972.037" y="528.315" width="7.75018" height="6.97516" fill="#58D7FF"/>
<rect x="965.062" y="520.565" width="6.97516" height="7.75018" fill="#58D7FF"/>
<rect x="972.037" y="506.615" width="7.75018" height="6.97516" fill="#58D7FF"/>
<rect x="972.037" y="535.29" width="7.75018" height="6.97516" fill="#58D7FF"/>
<rect x="965.062" y="528.315" width="6.97516" height="6.97516" fill="#53C4E8"/>
<rect x="965.062" y="513.59" width="6.97516" height="6.97516" fill="#53C4E8"/>
<rect x="979.787" y="513.59" width="6.97516" height="6.97516" fill="#53C4E8"/>
<rect x="979.787" y="528.315" width="6.97516" height="6.97516" fill="#53C4E8"/>
<rect x="958.086" y="520.565" width="6.97516" height="7.75018" fill="#53C4E8"/>
<rect x="958.086" y="513.59" width="6.97516" height="6.97516" fill="#2C95B7"/>
<rect x="965.062" y="506.615" width="6.97516" height="6.97516" fill="#2C95B7"/>
<rect x="979.787" y="506.615" width="6.97516" height="6.97516" fill="#2C95B7"/>
<rect x="986.762" y="513.59" width="6.97516" height="6.97516" fill="#2C95B7"/>
<rect x="986.762" y="528.315" width="6.97516" height="6.97516" fill="#2C95B7"/>
<rect x="979.787" y="535.29" width="6.97516" height="6.97516" fill="#2C95B7"/>
<rect x="965.062" y="535.29" width="6.97516" height="6.97516" fill="#2C95B7"/>
<rect x="958.086" y="528.315" width="6.97516" height="6.97516" fill="#2C95B7"/>
<rect x="972.037" y="499.639" width="7.75018" height="6.97516" fill="#58D7FF"/>
<rect x="972.037" y="542.265" width="7.75018" height="6.97516" fill="#58D7FF"/>
<rect x="951.111" y="520.565" width="6.97516" height="7.75018" fill="#53C4E8"/>
<rect x="993.737" y="520.565" width="6.97516" height="7.75018" fill="#53C4E8"/>
<rect x="986.762" y="520.565" width="6.97516" height="7.75018" fill="#53C4E8"/>
<rect x="809.231" y="346.186" width="31.7965" height="9.08473" fill="#FF7495"/>
<rect width="31.7965" height="9.08473" transform="matrix(1 0 0 -1 809.231 443.197)" fill="#FF7495"/>
<rect x="793.333" y="353.973" width="63.9175" height="10.3825" fill="#FF7495"/>
<rect width="63.9175" height="10.3825" transform="matrix(1 0 0 -1 793.333 435.086)" fill="#FF7495"/>
<rect x="785.222" y="361.11" width="80.4647" height="17.5205" fill="#FF7495"/>
<rect width="80.4647" height="17.5205" transform="matrix(1 0 0 -1 785.222 428.272)" fill="#FF7495"/>
<rect x="776.786" y="378.307" width="97.0119" height="32.4454" fill="#FF7495"/>
<rect x="776.786" y="393.88" width="8.43582" height="8.43582" fill="#FF7495"/>
<rect x="785.222" y="393.88" width="8.43582" height="8.43582" fill="#FF7495"/>
<rect x="776.786" y="402.316" width="8.43582" height="8.43582" fill="#FF7495"/>
<rect x="785.222" y="402.316" width="8.43582" height="8.43582" fill="#F1A449"/>
<rect x="785.222" y="409.779" width="8.43582" height="8.43582" fill="#F1A449"/>
<rect x="801.769" y="397.125" width="8.43582" height="8.43582" fill="#F1A449"/>
<rect x="801.769" y="402.316" width="8.43582" height="8.43582" fill="#F1A449"/>
<rect x="801.769" y="393.88" width="8.43582" height="8.43582" fill="#F1A449"/>
<rect x="810.205" y="390.636" width="16.8716" height="14.9249" fill="#FFAE4F"/>
<rect x="827.076" y="397.125" width="16.8716" height="14.9249" fill="#FFAE4F"/>
<rect x="843.624" y="388.364" width="16.8716" height="14.9249" fill="#FFAE4F"/>
<rect x="856.926" y="378.306" width="16.8716" height="14.9249" fill="#FFAE4F"/>
<rect x="793.333" y="402.316" width="8.43582" height="15.8983" fill="#F1A449"/>
<rect x="793.333" y="393.88" width="8.43582" height="15.8983" fill="#F1A449"/>
<rect x="785.222" y="415.943" width="19.1428" height="12.0048" fill="#FF7495"/>
<rect x="793.657" y="415.943" width="23.6852" height="19.1428" fill="#FF7495"/>
<rect x="833.565" y="426.65" width="23.6852" height="8.43582" fill="#FF7495"/>
<rect x="809.231" y="426.65" width="31.7965" height="16.5472" fill="#FF7495"/>
<rect x="776.786" y="385.444" width="8.43582" height="8.43582" fill="#FF7495"/>
<rect x="810.205" y="397.125" width="8.43582" height="8.43582" fill="#F1A449"/>
<rect x="777.744" y="406.998" width="6.83346" height="12.5715" fill="#53C4E8"/>
<rect x="764.077" y="427.306" width="6.83346" height="12.5715" fill="#53C4E8"/>
<rect x="770.91" y="413.284" width="6.83346" height="32.8792" fill="#53C4E8"/>
<rect x="777.744" y="433.592" width="20.5004" height="12.5715" fill="#53C4E8"/>
<rect x="798.244" y="433.592" width="14.1926" height="6.28573" fill="#53C4E8"/>
<rect x="805.603" y="427.306" width="22.0773" height="6.28573" fill="#53C4E8"/>
<rect x="820.847" y="419.57" width="14.1926" height="7.73629" fill="#53C4E8"/>
<rect x="828.206" y="411.834" width="14.1926" height="7.73629" fill="#53C4E8"/>
<rect x="835.565" y="406.998" width="14.1926" height="7.73629" fill="#53C4E8"/>
<rect x="856.591" y="392.493" width="14.1926" height="7.73629" fill="#53C4E8"/>
<rect x="863.95" y="386.691" width="14.1926" height="7.73629" fill="#53C4E8"/>
<rect x="871.309" y="378.954" width="14.1926" height="7.73629" fill="#53C4E8"/>
<rect x="842.398" y="399.262" width="21.5517" height="7.73629" fill="#53C4E8"/>
<rect x="878.668" y="361.064" width="14.1926" height="19.3407" fill="#53C4E8"/>
<rect x="856.591" y="353.812" width="28.9108" height="12.5715" fill="#53C4E8"/>
<rect x="214.972" y="720.289" width="29.4662" height="8.41892" fill="#51FF82"/>
<rect width="29.4662" height="8.41892" transform="matrix(1 0 0 -1 214.972 810.191)" fill="#51FF82"/>
<rect x="200.239" y="727.505" width="59.2331" height="9.62162" fill="#51FF82"/>
<rect width="59.2331" height="9.62162" transform="matrix(1 0 0 -1 200.239 802.674)" fill="#51FF82"/>
<rect x="192.722" y="734.12" width="74.5676" height="16.2365" fill="#51FF82"/>
<rect width="74.5676" height="16.2365" transform="matrix(1 0 0 -1 192.722 796.36)" fill="#51FF82"/>
<rect x="184.904" y="750.056" width="89.9021" height="30.0676" fill="#51FF82"/>
<rect x="184.904" y="764.487" width="7.81757" height="7.81757" fill="#3ACF64"/>
<rect x="192.722" y="764.487" width="7.81757" height="7.81757" fill="#3ACF64"/>
<rect x="184.904" y="772.305" width="7.81757" height="7.81757" fill="#3ACF64"/>
<rect x="192.722" y="772.305" width="7.81757" height="7.81757" fill="#2C95B7"/>
<rect x="192.722" y="779.221" width="7.81757" height="7.81757" fill="#2C95B7"/>
<rect x="208.057" y="767.494" width="7.81757" height="7.81757" fill="#2C95B7"/>
<rect x="208.057" y="772.305" width="7.81757" height="7.81757" fill="#2C95B7"/>
<rect x="208.057" y="764.487" width="7.81757" height="7.81757" fill="#2C95B7"/>
<rect x="215.874" y="761.481" width="15.6351" height="13.8311" fill="#58D7FF"/>
<rect x="231.509" y="767.494" width="15.6351" height="13.8311" fill="#58D7FF"/>
<rect x="246.844" y="759.376" width="15.6351" height="13.8311" fill="#58D7FF"/>
<rect x="259.171" y="750.055" width="15.6351" height="13.8311" fill="#58D7FF"/>
<rect x="200.239" y="772.305" width="7.81757" height="14.7331" fill="#2C95B7"/>
<rect x="200.239" y="764.487" width="7.81757" height="14.7331" fill="#2C95B7"/>
<rect x="192.722" y="784.933" width="17.7399" height="11.125" fill="#3ACF64"/>
<rect x="200.54" y="784.933" width="21.9493" height="17.7399" fill="#3ACF64"/>
<rect x="237.522" y="794.856" width="21.9493" height="7.81757" fill="#3ACF64"/>
<rect x="214.972" y="794.856" width="29.4662" height="15.3345" fill="#3ACF64"/>
<rect x="184.904" y="756.67" width="7.81757" height="7.81757" fill="#3ACF64"/>
<rect x="215.874" y="767.494" width="7.81757" height="7.81757" fill="#2C95B7"/>
<rect x="961.962" y="667.819" width="17.8254" height="17.8254" fill="white"/>
<rect x="777.911" y="549.111" width="17.8254" height="17.8254" fill="white"/>
<rect x="872.874" y="254.441" width="17.8254" height="17.8254" fill="white"/>
<rect x="271.166" y="401.212" width="17.8254" height="17.8254" fill="white"/>
<rect x="70.4355" y="594.967" width="17.8254" height="17.8254" fill="white"/>
<rect width="31.7965" height="9.08473" transform="matrix(-1 0 0 1 243.672 217.76)" fill="#F1A449"/>
<rect x="243.672" y="314.772" width="31.7965" height="9.08473" transform="rotate(180 243.672 314.772)" fill="#F1A449"/>
<rect width="63.9175" height="10.3825" transform="matrix(-1 0 0 1 259.57 225.547)" fill="#F1A449"/>
<rect x="259.57" y="306.66" width="63.9175" height="10.3825" transform="rotate(180 259.57 306.66)" fill="#F1A449"/>
<rect width="80.4647" height="17.5205" transform="matrix(-1 0 0 1 267.682 232.685)" fill="#F1A449"/>
<rect x="267.682" y="299.847" width="80.4647" height="17.5205" transform="rotate(180 267.682 299.847)" fill="#F1A449"/>
<rect width="97.0119" height="32.4454" transform="matrix(-1 0 0 1 276.118 249.881)" fill="#F1A449"/>
<rect width="8.43582" height="8.43582" transform="matrix(-1 0 0 1 276.118 265.454)" fill="#DC923B"/>
<rect width="8.43582" height="8.43582" transform="matrix(-1 0 0 1 267.682 265.454)" fill="#DC923B"/>
<rect width="8.43582" height="8.43582" transform="matrix(-1 0 0 1 276.118 273.89)" fill="#DC923B"/>
<rect width="8.43582" height="8.43582" transform="matrix(-1 0 0 1 267.682 273.89)" fill="#CACD29"/>
<rect width="8.43582" height="8.43582" transform="matrix(-1 0 0 1 267.682 281.353)" fill="#CACD29"/>
<rect width="8.43582" height="8.43582" transform="matrix(-1 0 0 1 251.134 268.699)" fill="#CACD29"/>
<rect width="8.43582" height="8.43582" transform="matrix(-1 0 0 1 251.134 273.89)" fill="#CACD29"/>
<rect width="8.43582" height="8.43582" transform="matrix(-1 0 0 1 251.134 265.454)" fill="#CACD29"/>
<rect width="16.8716" height="14.9249" transform="matrix(-1 0 0 1 242.699 262.21)" fill="#CACD29"/>
<rect width="16.8716" height="14.9249" transform="matrix(-1 0 0 1 225.827 268.699)" fill="#CACD29"/>
<rect width="16.8716" height="14.9249" transform="matrix(-1 0 0 1 209.28 259.938)" fill="#CACD29"/>
<rect width="16.8716" height="14.9249" transform="matrix(-1 0 0 1 195.977 249.881)" fill="#CACD29"/>
<rect width="8.43582" height="15.8983" transform="matrix(-1 0 0 1 259.57 273.89)" fill="#CACD29"/>
<rect width="8.43582" height="15.8983" transform="matrix(-1 0 0 1 259.57 265.454)" fill="#CACD29"/>
<rect width="19.1428" height="12.0048" transform="matrix(-1 0 0 1 267.682 287.517)" fill="#DC923B"/>
<rect width="23.6852" height="19.1428" transform="matrix(-1 0 0 1 259.246 287.517)" fill="#DC923B"/>
<rect width="23.6852" height="8.43582" transform="matrix(-1 0 0 1 219.338 298.224)" fill="#DC923B"/>
<rect width="31.7965" height="16.5472" transform="matrix(-1 0 0 1 243.672 298.224)" fill="#DC923B"/>
<rect width="8.43582" height="8.43582" transform="matrix(-1 0 0 1 276.118 257.018)" fill="#DC923B"/>
<rect width="8.43582" height="8.43582" transform="matrix(-1 0 0 1 242.699 268.699)" fill="#CACD29"/>
<rect width="6.83346" height="12.5715" transform="matrix(-1 0 0 1 275.159 278.573)" fill="#FF0303"/>
<rect width="6.83346" height="12.5715" transform="matrix(-1 0 0 1 288.826 298.881)" fill="#FF0303"/>
<rect width="6.83346" height="32.8792" transform="matrix(-1 0 0 1 281.993 284.858)" fill="#FF0303"/>
<rect width="20.5004" height="12.5715" transform="matrix(-1 0 0 1 275.159 305.166)" fill="#FF0303"/>
<rect width="14.1926" height="6.28573" transform="matrix(-1 0 0 1 254.659 305.166)" fill="#FF0303"/>
<rect width="22.0773" height="6.28573" transform="matrix(-1 0 0 1 247.3 298.881)" fill="#FF0303"/>
<rect width="14.1926" height="7.73629" transform="matrix(-1 0 0 1 232.056 291.144)" fill="#FF0303"/>
<rect width="14.1926" height="7.73629" transform="matrix(-1 0 0 1 224.697 283.408)" fill="#FF0303"/>
<rect width="14.1926" height="7.73629" transform="matrix(-1 0 0 1 217.338 278.573)" fill="#FF0303"/>
<rect width="14.1926" height="7.73629" transform="matrix(-1 0 0 1 196.312 264.067)" fill="#FF0303"/>
<rect width="14.1926" height="7.73629" transform="matrix(-1 0 0 1 188.953 258.265)" fill="#FF0303"/>
<rect width="14.1926" height="7.73629" transform="matrix(-1 0 0 1 181.594 250.529)" fill="#FF0303"/>
<rect width="21.5517" height="7.73629" transform="matrix(-1 0 0 1 210.504 270.836)" fill="#FF0303"/>
<rect width="14.1926" height="19.3407" transform="matrix(-1 0 0 1 174.234 232.638)" fill="#FF0303"/>
<rect width="28.9108" height="12.5715" transform="matrix(-1 0 0 1 196.312 225.386)" fill="#FF0303"/>
<defs>
<radialGradient id="paint0_radial_772_23069" cx="0" cy="0" r="1" gradientUnits="userSpaceOnUse" gradientTransform="translate(540.097 539.941) rotate(90) scale(539.413)">
<stop stop-color="#AEAEAE"/>
<stop offset="1"/>
</radialGradient>
</defs>
</svg>
