<svg id="svg" version="1.1" xmlns="http://www.w3.org/2000/svg" xmlns:xlink="http://www.w3.org/1999/xlink" width="400" height="400" viewBox="0, 0, 400,400"><g id="svgg"><path id="path0" d="M186.800 55.000 L 186.800 56.800 185.000 56.800 L 183.200 56.800 183.200 61.800 L 183.200 66.800 185.000 66.800 L 186.800 66.800 186.800 68.400 L 186.800 70.000 188.400 70.000 L 190.000 70.000 190.000 85.000 L 190.000 100.000 191.600 100.000 L 193.200 100.000 193.200 85.000 L 193.200 70.000 195.000 70.000 L 196.800 70.000 196.800 61.600 L 196.800 53.200 191.800 53.200 L 186.800 53.200 186.800 55.000 M160.000 146.800 L 160.000 156.800 158.400 156.800 L 156.800 156.800 156.800 161.600 L 156.800 166.400 160.000 166.400 L 163.200 166.400 163.200 168.200 L 163.200 170.000 168.200 170.000 L 173.200 170.000 173.200 171.600 L 173.200 173.200 191.600 173.200 L 210.000 173.200 210.000 175.000 L 210.000 176.800 211.600 176.800 L 213.200 176.800 213.200 178.400 L 213.200 180.000 215.000 180.000 L 216.800 180.000 216.800 178.400 L 216.800 176.800 215.000 176.800 L 213.200 176.800 213.200 175.000 L 213.200 173.200 215.000 173.200 L 216.800 173.200 216.800 171.600 L 216.800 170.000 215.000 170.000 L 213.200 170.000 213.200 168.200 L 213.200 166.400 215.000 166.400 L 216.800 166.400 216.800 164.800 L 216.800 163.200 211.800 163.200 L 206.800 163.200 206.800 165.000 L 206.800 166.800 195.000 166.800 L 183.200 166.800 183.200 165.000 L 183.200 163.200 181.600 163.200 L 180.000 163.200 180.000 161.600 L 180.000 160.000 181.600 160.000 L 183.200 160.000 183.200 158.200 L 183.200 156.400 193.200 156.400 L 203.200 156.400 203.200 158.200 L 203.200 160.000 210.000 160.000 L 216.800 160.000 216.800 151.600 L 216.800 143.200 215.000 143.200 L 213.200 143.200 213.200 148.400 L 213.200 153.600 208.200 153.600 L 203.200 153.600 203.200 148.400 L 203.200 143.200 200.000 143.200 L 196.800 143.200 196.800 141.600 L 196.800 140.000 206.800 140.000 L 216.800 140.000 216.800 138.400 L 216.800 136.800 188.400 136.800 L 160.000 136.800 160.000 146.800 M193.200 141.600 L 193.200 143.200 191.600 143.200 L 190.000 143.200 190.000 148.400 L 190.000 153.600 185.000 153.600 L 180.000 153.600 180.000 148.400 L 180.000 143.200 176.600 143.200 L 173.200 143.200 173.200 141.600 L 173.200 140.000 183.200 140.000 L 193.200 140.000 193.200 141.600 M156.800 171.600 L 156.800 173.200 158.400 173.200 L 160.000 173.200 160.000 171.600 L 160.000 170.000 158.400 170.000 L 156.800 170.000 156.800 171.600 M213.200 171.600 L 213.200 173.200 211.600 173.200 L 210.000 173.200 210.000 171.600 L 210.000 170.000 211.600 170.000 L 213.200 170.000 213.200 171.600 M166.800 175.000 L 166.800 176.800 168.400 176.800 L 170.000 176.800 170.000 175.000 L 170.000 173.200 168.400 173.200 L 166.800 173.200 166.800 175.000 M160.000 178.400 L 160.000 180.000 158.400 180.000 L 156.800 180.000 156.800 195.000 L 156.800 210.000 161.800 210.000 L 166.800 210.000 166.800 208.400 L 166.800 206.800 168.400 206.800 L 170.000 206.800 170.000 201.800 L 170.000 196.800 188.400 196.800 L 206.800 196.800 206.800 195.000 L 206.800 193.200 208.400 193.200 L 210.000 193.200 210.000 188.200 L 210.000 183.200 191.600 183.200 L 173.200 183.200 173.200 181.600 L 173.200 180.000 168.200 180.000 L 163.200 180.000 163.200 178.400 L 163.200 176.800 161.600 176.800 L 160.000 176.800 160.000 178.400 M176.800 178.400 L 176.800 180.000 178.400 180.000 L 180.000 180.000 180.000 178.400 L 180.000 176.800 178.400 176.800 L 176.800 176.800 176.800 178.400 M183.200 178.400 L 183.200 180.000 185.000 180.000 L 186.800 180.000 186.800 178.400 L 186.800 176.800 185.000 176.800 L 183.200 176.800 183.200 178.400 M190.000 178.400 L 190.000 180.000 191.600 180.000 L 193.200 180.000 193.200 178.400 L 193.200 176.800 191.600 176.800 L 190.000 176.800 190.000 178.400 M196.800 178.400 L 196.800 180.000 198.400 180.000 L 200.000 180.000 200.000 178.400 L 200.000 176.800 198.400 176.800 L 196.800 176.800 196.800 178.400 M203.200 178.400 L 203.200 180.000 205.000 180.000 L 206.800 180.000 206.800 178.400 L 206.800 176.800 205.000 176.800 L 203.200 176.800 203.200 178.400 M163.200 181.600 L 163.200 183.200 168.200 183.200 L 173.200 183.200 173.200 185.000 L 173.200 186.800 168.200 186.800 L 163.200 186.800 163.200 185.000 L 163.200 183.200 161.600 183.200 L 160.000 183.200 160.000 181.600 L 160.000 180.000 161.600 180.000 L 163.200 180.000 163.200 181.600 M160.000 216.600 L 160.000 220.000 158.400 220.000 L 156.800 220.000 156.800 225.000 L 156.800 230.000 158.400 230.000 L 160.000 230.000 160.000 235.000 L 160.000 240.000 161.600 240.000 L 163.200 240.000 163.200 243.400 L 163.200 246.800 165.000 246.800 L 166.800 246.800 166.800 250.000 L 166.800 253.200 168.400 253.200 L 170.000 253.200 170.000 255.000 L 170.000 256.800 171.600 256.800 L 173.200 256.800 173.200 258.400 L 173.200 260.000 175.000 260.000 L 176.800 260.000 176.800 265.000 L 176.800 270.000 180.000 270.000 L 183.200 270.000 183.200 268.400 L 183.200 266.800 185.000 266.800 L 186.800 266.800 186.800 263.400 L 186.800 260.000 185.000 260.000 L 183.200 260.000 183.200 258.400 L 183.200 256.800 180.000 256.800 L 176.800 256.800 176.800 255.000 L 176.800 253.200 175.000 253.200 L 173.200 253.200 173.200 250.000 L 173.200 246.800 171.600 246.800 L 170.000 246.800 170.000 245.000 L 170.000 243.200 168.400 243.200 L 166.800 243.200 166.800 236.600 L 166.800 230.000 165.000 230.000 L 163.200 230.000 163.200 226.600 L 163.200 223.200 165.000 223.200 L 166.800 223.200 166.800 218.200 L 166.800 213.200 163.400 213.200 L 160.000 213.200 160.000 216.600 M233.200 275.000 L 233.200 276.800 231.600 276.800 L 230.000 276.800 230.000 278.400 L 230.000 280.000 228.400 280.000 L 226.800 280.000 226.800 285.000 L 226.800 290.000 223.400 290.000 L 220.000 290.000 220.000 293.400 L 220.000 296.800 218.400 296.800 L 216.800 296.800 216.800 301.800 L 216.800 306.800 215.000 306.800 L 213.200 306.800 213.200 308.400 L 213.200 310.000 216.600 310.000 L 220.000 310.000 220.000 311.600 L 220.000 313.200 225.000 313.200 L 230.000 313.200 230.000 315.000 L 230.000 316.800 233.400 316.800 L 236.800 316.800 236.800 318.400 L 236.800 320.000 243.400 320.000 L 250.000 320.000 250.000 321.600 L 250.000 323.200 256.600 323.200 L 263.200 323.200 263.200 321.600 L 263.200 320.000 268.200 320.000 L 273.200 320.000 273.200 318.400 L 273.200 316.800 275.000 316.800 L 276.800 316.800 276.800 311.800 L 276.800 306.800 275.000 306.800 L 273.200 306.800 273.200 305.000 L 273.200 303.200 271.600 303.200 L 270.000 303.200 270.000 301.600 L 270.000 300.000 268.400 300.000 L 266.800 300.000 266.800 298.400 L 266.800 296.800 265.000 296.800 L 263.200 296.800 263.200 295.000 L 263.200 293.200 261.600 293.200 L 260.000 293.200 260.000 291.600 L 260.000 290.000 258.400 290.000 L 256.800 290.000 256.800 288.400 L 256.800 286.800 255.000 286.800 L 253.200 286.800 253.200 285.000 L 253.200 283.200 251.600 283.200 L 250.000 283.200 250.000 281.600 L 250.000 280.000 248.400 280.000 L 246.800 280.000 246.800 278.400 L 246.800 276.800 245.000 276.800 L 243.200 276.800 243.200 275.000 L 243.200 273.200 238.200 273.200 L 233.200 273.200 233.200 275.000 M233.200 291.600 L 233.200 293.200 230.000 293.200 L 226.800 293.200 226.800 291.600 L 226.800 290.000 230.000 290.000 L 233.200 290.000 233.200 291.600 " stroke="none" fill="#f1c03a" fill-rule="evenodd"></path><path id="path1" d="M213.200 190.000 L 213.200 196.800 215.000 196.800 L 216.800 196.800 216.800 190.000 L 216.800 183.200 215.000 183.200 L 213.200 183.200 213.200 190.000 M213.200 201.600 L 213.200 203.200 211.600 203.200 L 210.000 203.200 210.000 205.000 L 210.000 206.800 208.400 206.800 L 206.800 206.800 206.800 208.400 L 206.800 210.000 205.000 210.000 L 203.200 210.000 203.200 211.600 L 203.200 213.200 201.600 213.200 L 200.000 213.200 200.000 215.000 L 200.000 216.800 203.400 216.800 L 206.800 216.800 206.800 215.000 L 206.800 213.200 208.400 213.200 L 210.000 213.200 210.000 210.000 L 210.000 206.800 211.600 206.800 L 213.200 206.800 213.200 205.000 L 213.200 203.200 215.000 203.200 L 216.800 203.200 216.800 201.600 L 216.800 200.000 215.000 200.000 L 213.200 200.000 213.200 201.600 M193.200 221.600 L 193.200 223.200 191.600 223.200 L 190.000 223.200 190.000 230.000 L 190.000 236.800 188.400 236.800 L 186.800 236.800 186.800 231.800 L 186.800 226.800 185.000 226.800 L 183.200 226.800 183.200 228.400 L 183.200 230.000 180.000 230.000 L 176.800 230.000 176.800 231.600 L 176.800 233.200 178.400 233.200 L 180.000 233.200 180.000 236.600 L 180.000 240.000 183.400 240.000 L 186.800 240.000 186.800 241.600 L 186.800 243.200 188.400 243.200 L 190.000 243.200 190.000 245.000 L 190.000 246.800 198.400 246.800 L 206.800 246.800 206.800 245.000 L 206.800 243.200 208.400 243.200 L 210.000 243.200 210.000 241.600 L 210.000 240.000 211.600 240.000 L 213.200 240.000 213.200 238.400 L 213.200 236.800 211.600 236.800 L 210.000 236.800 210.000 228.400 L 210.000 220.000 201.600 220.000 L 193.200 220.000 193.200 221.600 M206.800 228.200 L 206.800 233.200 200.000 233.200 L 193.200 233.200 193.200 231.600 L 193.200 230.000 198.200 230.000 L 203.200 230.000 203.200 226.600 L 203.200 223.200 205.000 223.200 L 206.800 223.200 206.800 228.200 M210.000 238.400 L 210.000 240.000 200.000 240.000 L 190.000 240.000 190.000 238.400 L 190.000 236.800 200.000 236.800 L 210.000 236.800 210.000 238.400 M210.000 251.600 L 210.000 253.200 201.600 253.200 L 193.200 253.200 193.200 255.000 L 193.200 256.800 191.600 256.800 L 190.000 256.800 190.000 261.800 L 190.000 266.800 191.600 266.800 L 193.200 266.800 193.200 265.000 L 193.200 263.200 195.000 263.200 L 196.800 263.200 196.800 261.600 L 196.800 260.000 198.400 260.000 L 200.000 260.000 200.000 265.000 L 200.000 270.000 198.400 270.000 L 196.800 270.000 196.800 273.400 L 196.800 276.800 195.000 276.800 L 193.200 276.800 193.200 278.400 L 193.200 280.000 188.200 280.000 L 183.200 280.000 183.200 296.600 L 183.200 313.200 181.600 313.200 L 180.000 313.200 180.000 320.000 L 180.000 326.800 178.400 326.800 L 176.800 326.800 176.800 328.400 L 176.800 330.000 175.000 330.000 L 173.200 330.000 173.200 331.600 L 173.200 333.200 180.000 333.200 L 186.800 333.200 186.800 335.000 L 186.800 336.800 188.400 336.800 L 190.000 336.800 190.000 333.400 L 190.000 330.000 193.400 330.000 L 196.800 330.000 196.800 328.400 L 196.800 326.800 198.400 326.800 L 200.000 326.800 200.000 323.400 L 200.000 320.000 201.600 320.000 L 203.200 320.000 203.200 315.000 L 203.200 310.000 205.000 310.000 L 206.800 310.000 206.800 303.400 L 206.800 296.800 208.400 296.800 L 210.000 296.800 210.000 291.800 L 210.000 286.800 211.600 286.800 L 213.200 286.800 213.200 285.000 L 213.200 283.200 215.000 283.200 L 216.800 283.200 216.800 281.600 L 216.800 280.000 218.400 280.000 L 220.000 280.000 220.000 278.400 L 220.000 276.800 223.400 276.800 L 226.800 276.800 226.800 275.000 L 226.800 273.200 228.400 273.200 L 230.000 273.200 230.000 271.600 L 230.000 270.000 231.600 270.000 L 233.200 270.000 233.200 268.400 L 233.200 266.800 231.600 266.800 L 230.000 266.800 230.000 263.400 L 230.000 260.000 228.400 260.000 L 226.800 260.000 226.800 258.400 L 226.800 256.800 223.400 256.800 L 220.000 256.800 220.000 255.000 L 220.000 253.200 216.600 253.200 L 213.200 253.200 213.200 251.600 L 213.200 250.000 211.600 250.000 L 210.000 250.000 210.000 251.600 M186.800 271.600 L 186.800 273.200 188.400 273.200 L 190.000 273.200 190.000 271.600 L 190.000 270.000 188.400 270.000 L 186.800 270.000 186.800 271.600 M213.200 291.600 L 213.200 293.200 215.000 293.200 L 216.800 293.200 216.800 291.600 L 216.800 290.000 215.000 290.000 L 213.200 290.000 213.200 291.600 M226.800 326.600 L 226.800 333.200 228.400 333.200 L 230.000 333.200 230.000 335.000 L 230.000 336.800 233.400 336.800 L 236.800 336.800 236.800 333.400 L 236.800 330.000 238.400 330.000 L 240.000 330.000 240.000 326.600 L 240.000 323.200 236.600 323.200 L 233.200 323.200 233.200 321.600 L 233.200 320.000 230.000 320.000 L 226.800 320.000 226.800 326.600 M203.200 331.600 L 203.200 333.200 205.000 333.200 L 206.800 333.200 206.800 331.600 L 206.800 330.000 205.000 330.000 L 203.200 330.000 203.200 331.600 " stroke="none" fill="#2e45b4" fill-rule="evenodd"></path><path id="path2" d="M176.800 118.400 L 176.800 120.000 178.400 120.000 L 180.000 120.000 180.000 121.600 L 180.000 123.200 183.400 123.200 L 186.800 123.200 186.800 120.000 L 186.800 116.800 181.800 116.800 L 176.800 116.800 176.800 118.400 M173.200 205.000 L 173.200 210.000 175.000 210.000 L 176.800 210.000 176.800 213.400 L 176.800 216.800 178.400 216.800 L 180.000 216.800 180.000 220.000 L 180.000 223.200 181.600 223.200 L 183.200 223.200 183.200 221.600 L 183.200 220.000 186.600 220.000 L 190.000 220.000 190.000 218.400 L 190.000 216.800 191.600 216.800 L 193.200 216.800 193.200 215.000 L 193.200 213.200 195.000 213.200 L 196.800 213.200 196.800 211.600 L 196.800 210.000 198.400 210.000 L 200.000 210.000 200.000 208.400 L 200.000 206.800 201.600 206.800 L 203.200 206.800 203.200 205.000 L 203.200 203.200 205.000 203.200 L 206.800 203.200 206.800 201.600 L 206.800 200.000 190.000 200.000 L 173.200 200.000 173.200 205.000 M213.200 205.000 L 213.200 206.800 211.600 206.800 L 210.000 206.800 210.000 210.000 L 210.000 213.200 208.400 213.200 L 206.800 213.200 206.800 215.000 L 206.800 216.800 210.000 216.800 L 213.200 216.800 213.200 228.400 L 213.200 240.000 211.600 240.000 L 210.000 240.000 210.000 241.600 L 210.000 243.200 208.400 243.200 L 206.800 243.200 206.800 245.000 L 206.800 246.800 203.400 246.800 L 200.000 246.800 200.000 248.400 L 200.000 250.000 205.000 250.000 L 210.000 250.000 210.000 248.400 L 210.000 246.800 215.000 246.800 L 220.000 246.800 220.000 245.000 L 220.000 243.200 221.600 243.200 L 223.200 243.200 223.200 238.200 L 223.200 233.200 221.600 233.200 L 220.000 233.200 220.000 221.600 L 220.000 210.000 218.400 210.000 L 216.800 210.000 216.800 206.600 L 216.800 203.200 215.000 203.200 L 213.200 203.200 213.200 205.000 M203.200 226.600 L 203.200 230.000 198.200 230.000 L 193.200 230.000 193.200 231.600 L 193.200 233.200 200.000 233.200 L 206.800 233.200 206.800 228.200 L 206.800 223.200 205.000 223.200 L 203.200 223.200 203.200 226.600 M193.200 265.000 L 193.200 266.800 191.600 266.800 L 190.000 266.800 190.000 270.000 L 190.000 273.200 188.400 273.200 L 186.800 273.200 186.800 275.000 L 186.800 276.800 188.400 276.800 L 190.000 276.800 190.000 275.000 L 190.000 273.200 191.600 273.200 L 193.200 273.200 193.200 270.000 L 193.200 266.800 195.000 266.800 L 196.800 266.800 196.800 265.000 L 196.800 263.200 195.000 263.200 L 193.200 263.200 193.200 265.000 M220.000 278.400 L 220.000 280.000 218.400 280.000 L 216.800 280.000 216.800 281.600 L 216.800 283.200 215.000 283.200 L 213.200 283.200 213.200 285.000 L 213.200 286.800 211.600 286.800 L 210.000 286.800 210.000 291.800 L 210.000 296.800 208.400 296.800 L 206.800 296.800 206.800 303.400 L 206.800 310.000 205.000 310.000 L 203.200 310.000 203.200 315.000 L 203.200 320.000 201.600 320.000 L 200.000 320.000 200.000 323.400 L 200.000 326.800 198.400 326.800 L 196.800 326.800 196.800 328.400 L 196.800 330.000 193.400 330.000 L 190.000 330.000 190.000 333.400 L 190.000 336.800 198.400 336.800 L 206.800 336.800 206.800 335.000 L 206.800 333.200 205.000 333.200 L 203.200 333.200 203.200 331.600 L 203.200 330.000 205.000 330.000 L 206.800 330.000 206.800 321.600 L 206.800 313.200 208.400 313.200 L 210.000 313.200 210.000 306.600 L 210.000 300.000 211.600 300.000 L 213.200 300.000 213.200 295.000 L 213.200 290.000 215.000 290.000 L 216.800 290.000 216.800 288.400 L 216.800 286.800 218.400 286.800 L 220.000 286.800 220.000 285.000 L 220.000 283.200 221.600 283.200 L 223.200 283.200 223.200 280.000 L 223.200 276.800 221.600 276.800 L 220.000 276.800 220.000 278.400 " stroke="none" fill="#647cd4" fill-rule="evenodd"></path><path id="path3" d="M176.800 98.400 L 176.800 100.000 180.000 100.000 L 183.200 100.000 183.200 106.600 L 183.200 113.200 198.200 113.200 L 213.200 113.200 213.200 111.600 L 213.200 110.000 211.600 110.000 L 210.000 110.000 210.000 105.000 L 210.000 100.000 206.600 100.000 L 203.200 100.000 203.200 103.400 L 203.200 106.800 200.000 106.800 L 196.800 106.800 196.800 105.000 L 196.800 103.200 191.800 103.200 L 186.800 103.200 186.800 100.000 L 186.800 96.800 181.800 96.800 L 176.800 96.800 176.800 98.400 M186.800 120.000 L 186.800 123.200 198.400 123.200 L 210.000 123.200 210.000 120.000 L 210.000 116.800 198.400 116.800 L 186.800 116.800 186.800 120.000 M176.800 128.400 L 176.800 130.000 180.000 130.000 L 183.200 130.000 183.200 131.600 L 183.200 133.200 206.600 133.200 L 230.000 133.200 230.000 131.600 L 230.000 130.000 221.600 130.000 L 213.200 130.000 213.200 128.400 L 213.200 126.800 195.000 126.800 L 176.800 126.800 176.800 128.400 M146.514 135.000 C 146.517 136.100,146.595 136.503,146.687 135.895 C 146.779 135.286,146.777 134.386,146.682 133.895 C 146.587 133.403,146.511 133.900,146.514 135.000 M233.153 154.100 C 233.127 154.595,233.142 156.125,233.186 157.500 L 233.265 160.000 231.632 160.000 L 230.000 160.000 230.000 158.400 L 230.000 156.800 228.400 156.800 L 226.800 156.800 226.800 158.400 L 226.800 160.000 225.000 160.000 L 223.200 160.000 223.200 158.400 L 223.200 156.800 221.600 156.800 L 220.000 156.800 220.000 158.400 L 220.000 160.000 211.600 160.000 L 203.200 160.000 203.200 158.200 L 203.200 156.400 193.200 156.400 L 183.200 156.400 183.200 158.200 L 183.200 160.000 181.600 160.000 L 180.000 160.000 180.000 161.600 L 180.000 163.200 181.600 163.200 L 183.200 163.200 183.200 165.000 L 183.200 166.800 195.000 166.800 L 206.800 166.800 206.800 165.000 L 206.800 163.200 213.400 163.200 L 220.000 163.200 220.000 165.000 L 220.000 166.800 221.600 166.800 L 223.200 166.800 223.200 165.000 L 223.200 163.200 225.000 163.200 L 226.800 163.200 226.800 165.000 L 226.800 166.800 228.400 166.800 L 230.000 166.800 230.000 165.000 L 230.000 163.200 231.600 163.200 L 233.200 163.200 233.200 165.424 C 233.200 167.003,233.334 167.564,233.662 167.362 C 233.978 167.166,234.013 167.253,233.772 167.638 C 233.226 168.511,233.124 170.000,233.610 170.000 C 233.850 170.000,233.949 169.840,233.828 169.645 C 233.707 169.450,233.875 169.070,234.200 168.800 C 234.525 168.530,234.700 168.162,234.589 167.982 C 234.478 167.802,234.554 167.552,234.758 167.426 C 235.272 167.108,235.071 168.191,234.486 168.896 C 234.011 169.469,234.205 170.000,234.890 170.000 C 235.087 170.000,235.149 169.840,235.028 169.645 C 234.907 169.450,235.075 169.070,235.400 168.800 C 235.725 168.530,235.900 168.162,235.789 167.982 C 235.678 167.802,235.754 167.552,235.958 167.426 C 236.482 167.102,236.266 168.198,235.663 168.924 C 235.301 169.360,235.285 169.606,235.607 169.804 C 236.536 170.379,236.680 169.899,236.750 166.000 L 236.800 163.200 238.400 163.200 L 240.000 163.200 240.000 160.000 L 240.000 156.800 238.400 156.800 L 236.800 156.800 236.800 155.000 L 236.800 153.200 235.000 153.200 C 233.414 153.200,233.194 153.307,233.153 154.100 M196.400 161.600 L 196.400 163.200 193.200 163.200 L 190.000 163.200 190.000 161.600 L 190.000 160.000 193.200 160.000 L 196.400 160.000 196.400 161.600 M223.299 288.300 C 223.409 289.757,223.461 289.804,225.106 289.923 C 226.794 290.046,226.800 290.052,226.800 291.640 L 226.800 293.234 229.900 293.117 L 233.000 293.000 233.000 291.600 L 233.000 290.200 229.900 290.083 L 226.800 289.966 226.800 288.383 L 226.800 286.800 224.993 286.800 L 223.186 286.800 223.299 288.300 " stroke="none" fill="#a45c1c" fill-rule="evenodd"></path><path id="path4" d="M196.800 101.800 L 196.800 106.800 200.000 106.800 L 203.200 106.800 203.200 101.800 L 203.200 96.800 200.000 96.800 L 196.800 96.800 196.800 101.800 M170.000 105.000 L 170.000 110.000 171.600 110.000 L 173.200 110.000 173.200 111.600 L 173.200 113.200 178.200 113.200 L 183.200 113.200 183.200 106.600 L 183.200 100.000 176.600 100.000 L 170.000 100.000 170.000 105.000 M146.800 111.600 L 146.800 113.200 145.000 113.200 L 143.200 113.200 143.200 121.600 L 143.200 130.000 145.000 130.000 L 146.800 130.000 146.800 131.600 L 146.800 133.200 165.000 133.200 L 183.200 133.200 183.200 131.600 L 183.200 130.000 180.000 130.000 L 176.800 130.000 176.800 126.600 L 176.800 123.200 175.000 123.200 L 173.200 123.200 173.200 120.000 L 173.200 116.800 171.600 116.800 L 170.000 116.800 170.000 115.000 L 170.000 113.200 166.600 113.200 L 163.200 113.200 163.200 111.600 L 163.200 110.000 155.000 110.000 L 146.800 110.000 146.800 111.600 M216.800 123.400 L 216.800 130.000 225.000 130.000 L 233.200 130.000 233.200 126.600 L 233.200 123.200 231.600 123.200 L 230.000 123.200 230.000 121.600 L 230.000 120.000 228.400 120.000 L 226.800 120.000 226.800 118.400 L 226.800 116.800 221.800 116.800 L 216.800 116.800 216.800 123.400 " stroke="none" fill="#5c2c0c" fill-rule="evenodd"></path><path id="path5" d="M170.000 226.600 L 170.000 240.000 171.600 240.000 L 173.200 240.000 173.200 243.400 L 173.200 246.800 176.600 246.800 L 180.000 246.800 180.000 250.000 L 180.000 253.200 185.000 253.200 L 190.000 253.200 190.000 251.600 L 190.000 250.000 195.000 250.000 L 200.000 250.000 200.000 248.400 L 200.000 246.800 195.000 246.800 L 190.000 246.800 190.000 245.000 L 190.000 243.200 188.400 243.200 L 186.800 243.200 186.800 241.600 L 186.800 240.000 183.400 240.000 L 180.000 240.000 180.000 236.600 L 180.000 233.200 178.400 233.200 L 176.800 233.200 176.800 226.600 L 176.800 220.000 175.000 220.000 L 173.200 220.000 173.200 216.600 L 173.200 213.200 171.600 213.200 L 170.000 213.200 170.000 226.600 M213.200 251.600 L 213.200 253.200 216.600 253.200 L 220.000 253.200 220.000 255.000 L 220.000 256.800 223.400 256.800 L 226.800 256.800 226.800 258.400 L 226.800 260.000 228.400 260.000 L 230.000 260.000 230.000 263.400 L 230.000 266.800 231.600 266.800 L 233.200 266.800 233.200 268.400 L 233.200 270.000 235.000 270.000 L 236.800 270.000 236.800 271.600 L 236.800 273.200 238.400 273.200 L 240.000 273.200 240.000 270.000 L 240.000 266.800 238.400 266.800 L 236.800 266.800 236.800 265.000 L 236.800 263.200 235.000 263.200 L 233.200 263.200 233.200 260.000 L 233.200 256.800 231.600 256.800 L 230.000 256.800 230.000 253.400 L 230.000 250.000 221.600 250.000 L 213.200 250.000 213.200 251.600 M166.800 258.400 L 166.800 260.000 168.400 260.000 L 170.000 260.000 170.000 263.400 L 170.000 266.800 171.600 266.800 L 173.200 266.800 173.200 263.400 L 173.200 260.000 171.600 260.000 L 170.000 260.000 170.000 258.400 L 170.000 256.800 168.400 256.800 L 166.800 256.800 166.800 258.400 M183.200 275.000 L 183.200 276.800 181.600 276.800 L 180.000 276.800 180.000 293.400 L 180.000 310.000 178.400 310.000 L 176.800 310.000 176.800 318.400 L 176.800 326.800 178.400 326.800 L 180.000 326.800 180.000 320.000 L 180.000 313.200 181.600 313.200 L 183.200 313.200 183.200 296.600 L 183.200 280.000 185.000 280.000 L 186.800 280.000 186.800 276.600 L 186.800 273.200 185.000 273.200 L 183.200 273.200 183.200 275.000 M213.200 315.000 L 213.200 316.800 211.600 316.800 L 210.000 316.800 210.000 326.800 L 210.000 336.800 216.600 336.800 L 223.200 336.800 223.200 338.400 L 223.200 340.000 228.200 340.000 L 233.200 340.000 233.200 341.800 L 233.200 343.600 235.000 343.600 L 236.800 343.600 236.800 340.200 L 236.800 336.800 233.400 336.800 L 230.000 336.800 230.000 335.000 L 230.000 333.200 228.400 333.200 L 226.800 333.200 226.800 325.000 L 226.800 316.800 221.800 316.800 L 216.800 316.800 216.800 315.000 L 216.800 313.200 215.000 313.200 L 213.200 313.200 213.200 315.000 " stroke="none" fill="#2c3c6c" fill-rule="evenodd"></path><path id="path6" d="M186.800 51.600 L 186.800 53.200 185.000 53.200 L 183.200 53.200 183.200 55.000 L 183.200 56.800 181.600 56.800 L 180.000 56.800 180.000 61.800 L 180.000 66.800 181.600 66.800 L 183.200 66.800 183.200 68.400 L 183.200 70.000 185.000 70.000 L 186.800 70.000 186.800 81.600 L 186.800 93.200 181.800 93.200 L 176.800 93.200 176.800 95.000 L 176.800 96.800 171.800 96.800 L 166.800 96.800 166.800 101.800 L 166.800 106.800 156.800 106.800 L 146.800 106.800 146.800 108.400 L 146.800 110.000 145.000 110.000 L 143.200 110.000 143.200 111.600 L 143.200 113.200 141.600 113.200 L 140.000 113.200 140.000 121.600 L 140.000 130.000 141.600 130.000 L 143.200 130.000 143.200 131.600 L 143.200 133.200 145.000 133.200 L 146.800 133.200 146.800 135.000 L 146.800 136.800 151.800 136.800 L 156.800 136.800 156.800 146.800 L 156.800 156.800 155.000 156.800 L 153.200 156.800 153.200 185.000 L 153.200 213.200 155.000 213.200 L 156.800 213.200 156.800 216.600 L 156.800 220.000 155.000 220.000 L 153.200 220.000 153.200 225.000 L 153.200 230.000 155.000 230.000 L 156.800 230.000 156.800 235.000 L 156.800 240.000 158.400 240.000 L 160.000 240.000 160.000 245.000 L 160.000 250.000 161.600 250.000 L 163.200 250.000 163.200 255.000 L 163.200 260.000 165.000 260.000 L 166.800 260.000 166.800 263.400 L 166.800 266.800 168.400 266.800 L 170.000 266.800 170.000 268.400 L 170.000 270.000 171.600 270.000 L 173.200 270.000 173.200 271.600 L 173.200 273.200 175.000 273.200 L 176.800 273.200 176.800 290.000 L 176.800 306.800 175.000 306.800 L 173.200 306.800 173.200 316.800 L 173.200 326.800 171.600 326.800 L 170.000 326.800 170.000 331.800 L 170.000 336.800 175.000 336.800 L 180.000 336.800 180.000 338.400 L 180.000 340.000 178.200 340.000 L 176.400 340.000 176.400 343.400 L 176.400 346.800 178.200 346.800 L 180.000 346.800 180.000 348.400 L 180.000 350.000 193.400 350.000 L 206.800 350.000 206.800 348.400 L 206.800 346.800 205.000 346.800 L 203.200 346.800 203.200 345.000 L 203.200 343.200 201.600 343.200 L 200.000 343.200 200.000 341.600 L 200.000 340.000 205.000 340.000 L 210.000 340.000 210.000 343.400 L 210.000 346.800 211.600 346.800 L 213.200 346.800 213.200 348.400 L 213.200 350.000 228.400 350.000 L 243.600 350.000 243.600 348.400 L 243.600 346.800 241.800 346.800 L 240.000 346.800 240.000 340.000 L 240.000 333.200 241.800 333.200 L 243.600 333.200 243.600 328.200 L 243.600 323.200 246.800 323.200 L 250.000 323.200 250.000 325.000 L 250.000 326.800 256.600 326.800 L 263.200 326.800 263.200 325.000 L 263.200 323.200 268.200 323.200 L 273.200 323.200 273.200 321.600 L 273.200 320.000 275.000 320.000 L 276.800 320.000 276.800 318.400 L 276.800 316.800 278.400 316.800 L 280.000 316.800 280.000 311.800 L 280.000 306.800 278.400 306.800 L 276.800 306.800 276.800 305.000 L 276.800 303.200 275.000 303.200 L 273.200 303.200 273.200 301.600 L 273.200 300.000 271.600 300.000 L 270.000 300.000 270.000 298.400 L 270.000 296.800 268.400 296.800 L 266.800 296.800 266.800 295.000 L 266.800 293.200 265.000 293.200 L 263.200 293.200 263.200 291.600 L 263.200 290.000 261.600 290.000 L 260.000 290.000 260.000 288.400 L 260.000 286.800 258.400 286.800 L 256.800 286.800 256.800 285.000 L 256.800 283.200 255.000 283.200 L 253.200 283.200 253.200 281.600 L 253.200 280.000 251.600 280.000 L 250.000 280.000 250.000 278.400 L 250.000 276.800 248.400 276.800 L 246.800 276.800 246.800 275.000 L 246.800 273.200 245.200 273.200 L 243.600 273.200 243.600 268.200 L 243.600 263.200 241.800 263.200 L 240.000 263.200 240.000 261.600 L 240.000 260.000 238.400 260.000 L 236.800 260.000 236.800 256.600 L 236.800 253.200 235.000 253.200 L 233.200 253.200 233.200 250.000 L 233.200 246.800 231.600 246.800 L 230.000 246.800 230.000 241.800 L 230.000 236.800 228.400 236.800 L 226.800 236.800 226.800 231.800 L 226.800 226.800 225.000 226.800 L 223.200 226.800 223.200 216.800 L 223.200 206.800 221.600 206.800 L 220.000 206.800 220.000 185.000 L 220.000 163.200 218.400 163.200 L 216.800 163.200 216.800 164.800 L 216.800 166.400 215.000 166.400 L 213.200 166.400 213.200 168.200 L 213.200 170.000 211.600 170.000 L 210.000 170.000 210.000 171.600 L 210.000 173.200 191.600 173.200 L 173.200 173.200 173.200 171.600 L 173.200 170.000 168.200 170.000 L 163.200 170.000 163.200 168.200 L 163.200 166.400 160.000 166.400 L 156.800 166.400 156.800 161.600 L 156.800 156.800 158.400 156.800 L 160.000 156.800 160.000 146.800 L 160.000 136.800 188.400 136.800 L 216.800 136.800 216.800 138.400 L 216.800 140.000 206.800 140.000 L 196.800 140.000 196.800 141.600 L 196.800 143.200 200.000 143.200 L 203.200 143.200 203.200 148.400 L 203.200 153.600 208.200 153.600 L 213.200 153.600 213.200 148.400 L 213.200 143.200 215.000 143.200 L 216.800 143.200 216.800 151.600 L 216.800 160.000 218.400 160.000 L 220.000 160.000 220.000 148.400 L 220.000 136.800 226.600 136.800 L 233.200 136.800 233.200 135.000 L 233.200 133.200 235.000 133.200 L 236.800 133.200 236.800 126.600 L 236.800 120.000 235.000 120.000 L 233.200 120.000 233.200 118.400 L 233.200 116.800 231.600 116.800 L 230.000 116.800 230.000 115.000 L 230.000 113.200 223.400 113.200 L 216.800 113.200 216.800 110.000 L 216.800 106.800 215.000 106.800 L 213.200 106.800 213.200 101.800 L 213.200 96.800 210.000 96.800 L 206.800 96.800 206.800 95.000 L 206.800 93.200 201.800 93.200 L 196.800 93.200 196.800 81.600 L 196.800 70.000 198.400 70.000 L 200.000 70.000 200.000 61.600 L 200.000 53.200 198.400 53.200 L 196.800 53.200 196.800 51.600 L 196.800 50.000 191.800 50.000 L 186.800 50.000 186.800 51.600 M196.800 61.600 L 196.800 70.000 195.000 70.000 L 193.200 70.000 193.200 85.000 L 193.200 100.000 191.600 100.000 L 190.000 100.000 190.000 85.000 L 190.000 70.000 188.400 70.000 L 186.800 70.000 186.800 68.400 L 186.800 66.800 185.000 66.800 L 183.200 66.800 183.200 61.800 L 183.200 56.800 185.000 56.800 L 186.800 56.800 186.800 55.000 L 186.800 53.200 191.800 53.200 L 196.800 53.200 196.800 61.600 M186.800 100.000 L 186.800 103.200 191.800 103.200 L 196.800 103.200 196.800 100.000 L 196.800 96.800 200.000 96.800 L 203.200 96.800 203.200 98.400 L 203.200 100.000 206.600 100.000 L 210.000 100.000 210.000 105.000 L 210.000 110.000 211.600 110.000 L 213.200 110.000 213.200 111.600 L 213.200 113.200 193.200 113.200 L 173.200 113.200 173.200 111.600 L 173.200 110.000 171.600 110.000 L 170.000 110.000 170.000 105.000 L 170.000 100.000 173.400 100.000 L 176.800 100.000 176.800 98.400 L 176.800 96.800 181.800 96.800 L 186.800 96.800 186.800 100.000 M163.200 111.600 L 163.200 113.200 166.600 113.200 L 170.000 113.200 170.000 115.000 L 170.000 116.800 171.600 116.800 L 173.200 116.800 173.200 120.000 L 173.200 123.200 175.000 123.200 L 176.800 123.200 176.800 125.000 L 176.800 126.800 195.000 126.800 L 213.200 126.800 213.200 128.400 L 213.200 130.000 215.000 130.000 L 216.800 130.000 216.800 123.400 L 216.800 116.800 221.800 116.800 L 226.800 116.800 226.800 118.400 L 226.800 120.000 228.400 120.000 L 230.000 120.000 230.000 121.600 L 230.000 123.200 231.600 123.200 L 233.200 123.200 233.200 126.600 L 233.200 130.000 231.600 130.000 L 230.000 130.000 230.000 131.600 L 230.000 133.200 188.400 133.200 L 146.800 133.200 146.800 131.600 L 146.800 130.000 145.000 130.000 L 143.200 130.000 143.200 121.600 L 143.200 113.200 145.000 113.200 L 146.800 113.200 146.800 111.600 L 146.800 110.000 155.000 110.000 L 163.200 110.000 163.200 111.600 M210.000 120.000 L 210.000 123.200 195.000 123.200 L 180.000 123.200 180.000 121.600 L 180.000 120.000 178.400 120.000 L 176.800 120.000 176.800 118.400 L 176.800 116.800 193.400 116.800 L 210.000 116.800 210.000 120.000 M173.200 141.600 L 173.200 143.200 176.600 143.200 L 180.000 143.200 180.000 148.400 L 180.000 153.600 185.000 153.600 L 190.000 153.600 190.000 148.400 L 190.000 143.200 191.600 143.200 L 193.200 143.200 193.200 141.600 L 193.200 140.000 183.200 140.000 L 173.200 140.000 173.200 141.600 M190.000 161.600 L 190.000 163.200 193.200 163.200 L 196.400 163.200 196.400 161.600 L 196.400 160.000 193.200 160.000 L 190.000 160.000 190.000 161.600 M160.000 171.600 L 160.000 173.200 158.400 173.200 L 156.800 173.200 156.800 171.600 L 156.800 170.000 158.400 170.000 L 160.000 170.000 160.000 171.600 M216.800 171.600 L 216.800 173.200 215.000 173.200 L 213.200 173.200 213.200 175.000 L 213.200 176.800 215.000 176.800 L 216.800 176.800 216.800 178.400 L 216.800 180.000 215.000 180.000 L 213.200 180.000 213.200 178.400 L 213.200 176.800 211.600 176.800 L 210.000 176.800 210.000 175.000 L 210.000 173.200 211.600 173.200 L 213.200 173.200 213.200 171.600 L 213.200 170.000 215.000 170.000 L 216.800 170.000 216.800 171.600 M170.000 175.000 L 170.000 176.800 168.400 176.800 L 166.800 176.800 166.800 175.000 L 166.800 173.200 168.400 173.200 L 170.000 173.200 170.000 175.000 M163.200 178.400 L 163.200 180.000 168.200 180.000 L 173.200 180.000 173.200 181.600 L 173.200 183.200 191.600 183.200 L 210.000 183.200 210.000 188.200 L 210.000 193.200 208.400 193.200 L 206.800 193.200 206.800 195.000 L 206.800 196.800 188.400 196.800 L 170.000 196.800 170.000 201.800 L 170.000 206.800 168.400 206.800 L 166.800 206.800 166.800 208.400 L 166.800 210.000 161.800 210.000 L 156.800 210.000 156.800 195.000 L 156.800 180.000 158.400 180.000 L 160.000 180.000 160.000 178.400 L 160.000 176.800 161.600 176.800 L 163.200 176.800 163.200 178.400 M180.000 178.400 L 180.000 180.000 178.400 180.000 L 176.800 180.000 176.800 178.400 L 176.800 176.800 178.400 176.800 L 180.000 176.800 180.000 178.400 M186.800 178.400 L 186.800 180.000 185.000 180.000 L 183.200 180.000 183.200 178.400 L 183.200 176.800 185.000 176.800 L 186.800 176.800 186.800 178.400 M193.200 178.400 L 193.200 180.000 191.600 180.000 L 190.000 180.000 190.000 178.400 L 190.000 176.800 191.600 176.800 L 193.200 176.800 193.200 178.400 M200.000 178.400 L 200.000 180.000 198.400 180.000 L 196.800 180.000 196.800 178.400 L 196.800 176.800 198.400 176.800 L 200.000 176.800 200.000 178.400 M206.800 178.400 L 206.800 180.000 205.000 180.000 L 203.200 180.000 203.200 178.400 L 203.200 176.800 205.000 176.800 L 206.800 176.800 206.800 178.400 M160.000 181.600 L 160.000 183.200 161.600 183.200 L 163.200 183.200 163.200 185.000 L 163.200 186.800 168.200 186.800 L 173.200 186.800 173.200 185.000 L 173.200 183.200 168.200 183.200 L 163.200 183.200 163.200 181.600 L 163.200 180.000 161.600 180.000 L 160.000 180.000 160.000 181.600 M216.800 190.000 L 216.800 196.800 215.000 196.800 L 213.200 196.800 213.200 190.000 L 213.200 183.200 215.000 183.200 L 216.800 183.200 216.800 190.000 M206.800 201.600 L 206.800 203.200 205.000 203.200 L 203.200 203.200 203.200 205.000 L 203.200 206.800 201.600 206.800 L 200.000 206.800 200.000 208.400 L 200.000 210.000 198.400 210.000 L 196.800 210.000 196.800 211.600 L 196.800 213.200 195.000 213.200 L 193.200 213.200 193.200 215.000 L 193.200 216.800 191.600 216.800 L 190.000 216.800 190.000 218.400 L 190.000 220.000 186.600 220.000 L 183.200 220.000 183.200 221.600 L 183.200 223.200 181.600 223.200 L 180.000 223.200 180.000 220.000 L 180.000 216.800 178.400 216.800 L 176.800 216.800 176.800 213.400 L 176.800 210.000 175.000 210.000 L 173.200 210.000 173.200 205.000 L 173.200 200.000 190.000 200.000 L 206.800 200.000 206.800 201.600 M216.800 205.000 L 216.800 210.000 218.400 210.000 L 220.000 210.000 220.000 221.600 L 220.000 233.200 221.600 233.200 L 223.200 233.200 223.200 238.200 L 223.200 243.200 221.600 243.200 L 220.000 243.200 220.000 245.000 L 220.000 246.800 215.000 246.800 L 210.000 246.800 210.000 248.400 L 210.000 250.000 220.000 250.000 L 230.000 250.000 230.000 253.400 L 230.000 256.800 231.600 256.800 L 233.200 256.800 233.200 260.000 L 233.200 263.200 235.000 263.200 L 236.800 263.200 236.800 265.000 L 236.800 266.800 238.400 266.800 L 240.000 266.800 240.000 270.000 L 240.000 273.200 241.600 273.200 L 243.200 273.200 243.200 275.000 L 243.200 276.800 245.000 276.800 L 246.800 276.800 246.800 278.400 L 246.800 280.000 248.400 280.000 L 250.000 280.000 250.000 281.600 L 250.000 283.200 251.600 283.200 L 253.200 283.200 253.200 285.000 L 253.200 286.800 255.000 286.800 L 256.800 286.800 256.800 288.400 L 256.800 290.000 258.400 290.000 L 260.000 290.000 260.000 291.600 L 260.000 293.200 261.600 293.200 L 263.200 293.200 263.200 295.000 L 263.200 296.800 265.000 296.800 L 266.800 296.800 266.800 298.400 L 266.800 300.000 268.400 300.000 L 270.000 300.000 270.000 301.600 L 270.000 303.200 271.600 303.200 L 273.200 303.200 273.200 305.000 L 273.200 306.800 275.000 306.800 L 276.800 306.800 276.800 311.800 L 276.800 316.800 275.000 316.800 L 273.200 316.800 273.200 318.400 L 273.200 320.000 268.200 320.000 L 263.200 320.000 263.200 321.600 L 263.200 323.200 256.600 323.200 L 250.000 323.200 250.000 321.600 L 250.000 320.000 243.400 320.000 L 236.800 320.000 236.800 318.400 L 236.800 316.800 233.400 316.800 L 230.000 316.800 230.000 315.000 L 230.000 313.200 225.000 313.200 L 220.000 313.200 220.000 311.600 L 220.000 310.000 216.600 310.000 L 213.200 310.000 213.200 308.400 L 213.200 306.800 215.000 306.800 L 216.800 306.800 216.800 301.800 L 216.800 296.800 218.400 296.800 L 220.000 296.800 220.000 293.400 L 220.000 290.000 221.600 290.000 L 223.200 290.000 223.200 288.400 L 223.200 286.800 225.000 286.800 L 226.800 286.800 226.800 283.400 L 226.800 280.000 228.400 280.000 L 230.000 280.000 230.000 278.400 L 230.000 276.800 231.600 276.800 L 233.200 276.800 233.200 275.000 L 233.200 273.200 235.000 273.200 L 236.800 273.200 236.800 271.600 L 236.800 270.000 233.400 270.000 L 230.000 270.000 230.000 271.600 L 230.000 273.200 228.400 273.200 L 226.800 273.200 226.800 275.000 L 226.800 276.800 225.000 276.800 L 223.200 276.800 223.200 280.000 L 223.200 283.200 221.600 283.200 L 220.000 283.200 220.000 285.000 L 220.000 286.800 218.400 286.800 L 216.800 286.800 216.800 290.000 L 216.800 293.200 215.000 293.200 L 213.200 293.200 213.200 296.600 L 213.200 300.000 211.600 300.000 L 210.000 300.000 210.000 306.600 L 210.000 313.200 208.400 313.200 L 206.800 313.200 206.800 325.000 L 206.800 336.800 196.800 336.800 L 186.800 336.800 186.800 335.000 L 186.800 333.200 180.000 333.200 L 173.200 333.200 173.200 331.600 L 173.200 330.000 175.000 330.000 L 176.800 330.000 176.800 320.000 L 176.800 310.000 178.400 310.000 L 180.000 310.000 180.000 293.400 L 180.000 276.800 181.600 276.800 L 183.200 276.800 183.200 275.000 L 183.200 273.200 185.000 273.200 L 186.800 273.200 186.800 271.600 L 186.800 270.000 188.400 270.000 L 190.000 270.000 190.000 263.400 L 190.000 256.800 191.600 256.800 L 193.200 256.800 193.200 255.000 L 193.200 253.200 201.600 253.200 L 210.000 253.200 210.000 251.600 L 210.000 250.000 200.000 250.000 L 190.000 250.000 190.000 251.600 L 190.000 253.200 185.000 253.200 L 180.000 253.200 180.000 250.000 L 180.000 246.800 176.600 246.800 L 173.200 246.800 173.200 250.000 L 173.200 253.200 175.000 253.200 L 176.800 253.200 176.800 255.000 L 176.800 256.800 180.000 256.800 L 183.200 256.800 183.200 258.400 L 183.200 260.000 185.000 260.000 L 186.800 260.000 186.800 263.400 L 186.800 266.800 185.000 266.800 L 183.200 266.800 183.200 268.400 L 183.200 270.000 180.000 270.000 L 176.800 270.000 176.800 265.000 L 176.800 260.000 175.000 260.000 L 173.200 260.000 173.200 263.400 L 173.200 266.800 171.600 266.800 L 170.000 266.800 170.000 263.400 L 170.000 260.000 168.400 260.000 L 166.800 260.000 166.800 258.400 L 166.800 256.800 168.400 256.800 L 170.000 256.800 170.000 255.000 L 170.000 253.200 168.400 253.200 L 166.800 253.200 166.800 250.000 L 166.800 246.800 165.000 246.800 L 163.200 246.800 163.200 243.400 L 163.200 240.000 161.600 240.000 L 160.000 240.000 160.000 235.000 L 160.000 230.000 158.400 230.000 L 156.800 230.000 156.800 225.000 L 156.800 220.000 158.400 220.000 L 160.000 220.000 160.000 216.600 L 160.000 213.200 163.400 213.200 L 166.800 213.200 166.800 218.200 L 166.800 223.200 165.000 223.200 L 163.200 223.200 163.200 226.600 L 163.200 230.000 165.000 230.000 L 166.800 230.000 166.800 236.600 L 166.800 243.200 168.400 243.200 L 170.000 243.200 170.000 245.000 L 170.000 246.800 171.600 246.800 L 173.200 246.800 173.200 243.400 L 173.200 240.000 171.600 240.000 L 170.000 240.000 170.000 226.600 L 170.000 213.200 171.600 213.200 L 173.200 213.200 173.200 216.600 L 173.200 220.000 175.000 220.000 L 176.800 220.000 176.800 225.000 L 176.800 230.000 180.000 230.000 L 183.200 230.000 183.200 228.400 L 183.200 226.800 185.000 226.800 L 186.800 226.800 186.800 231.800 L 186.800 236.800 188.400 236.800 L 190.000 236.800 190.000 230.000 L 190.000 223.200 191.600 223.200 L 193.200 223.200 193.200 221.600 L 193.200 220.000 201.600 220.000 L 210.000 220.000 210.000 228.400 L 210.000 236.800 211.600 236.800 L 213.200 236.800 213.200 226.800 L 213.200 216.800 206.600 216.800 L 200.000 216.800 200.000 215.000 L 200.000 213.200 201.600 213.200 L 203.200 213.200 203.200 211.600 L 203.200 210.000 205.000 210.000 L 206.800 210.000 206.800 208.400 L 206.800 206.800 208.400 206.800 L 210.000 206.800 210.000 205.000 L 210.000 203.200 211.600 203.200 L 213.200 203.200 213.200 201.600 L 213.200 200.000 215.000 200.000 L 216.800 200.000 216.800 205.000 M190.000 238.400 L 190.000 240.000 200.000 240.000 L 210.000 240.000 210.000 238.400 L 210.000 236.800 200.000 236.800 L 190.000 236.800 190.000 238.400 M170.000 258.400 L 170.000 260.000 171.600 260.000 L 173.200 260.000 173.200 258.400 L 173.200 256.800 171.600 256.800 L 170.000 256.800 170.000 258.400 M196.800 263.400 L 196.800 266.800 195.000 266.800 L 193.200 266.800 193.200 270.000 L 193.200 273.200 191.600 273.200 L 190.000 273.200 190.000 275.000 L 190.000 276.800 188.400 276.800 L 186.800 276.800 186.800 278.400 L 186.800 280.000 190.000 280.000 L 193.200 280.000 193.200 278.400 L 193.200 276.800 195.000 276.800 L 196.800 276.800 196.800 273.400 L 196.800 270.000 198.400 270.000 L 200.000 270.000 200.000 265.000 L 200.000 260.000 198.400 260.000 L 196.800 260.000 196.800 263.400 M216.800 315.000 L 216.800 316.800 221.800 316.800 L 226.800 316.800 226.800 318.400 L 226.800 320.000 230.000 320.000 L 233.200 320.000 233.200 321.600 L 233.200 323.200 236.600 323.200 L 240.000 323.200 240.000 326.600 L 240.000 330.000 238.400 330.000 L 236.800 330.000 236.800 336.800 L 236.800 343.600 235.000 343.600 L 233.200 343.600 233.200 341.800 L 233.200 340.000 228.200 340.000 L 223.200 340.000 223.200 338.400 L 223.200 336.800 216.600 336.800 L 210.000 336.800 210.000 326.800 L 210.000 316.800 211.600 316.800 L 213.200 316.800 213.200 315.000 L 213.200 313.200 215.000 313.200 L 216.800 313.200 216.800 315.000 " stroke="none" fill="#040404" fill-rule="evenodd"></path><path id="path7" d="" stroke="none" fill="#284020" fill-rule="evenodd"></path><path id="path8" d="" stroke="none" fill="#2c0420" fill-rule="evenodd"></path></g></svg>