<svg id="svg" version="1.1" xmlns="http://www.w3.org/2000/svg" xmlns:xlink="http://www.w3.org/1999/xlink" width="400" height="400" viewBox="0, 0, 400,400"><g id="svgg"><path id="path0" d="M186.800 55.000 L 186.800 56.800 185.000 56.800 L 183.200 56.800 183.200 61.800 L 183.200 66.800 185.000 66.800 L 186.800 66.800 186.800 68.400 L 186.800 70.000 188.400 70.000 L 190.000 70.000 190.000 83.400 L 190.000 96.800 188.400 96.800 L 186.800 96.800 186.800 98.400 L 186.800 100.000 185.000 100.000 L 183.200 100.000 183.200 101.600 L 183.200 103.200 181.600 103.200 L 180.000 103.200 180.000 105.000 L 180.000 106.800 178.400 106.800 L 176.800 106.800 176.800 108.400 L 176.800 110.000 175.000 110.000 L 173.200 110.000 173.200 111.600 L 173.200 113.200 171.600 113.200 L 170.000 113.200 170.000 116.600 L 170.000 120.000 168.400 120.000 L 166.800 120.000 166.800 123.400 L 166.800 126.800 165.000 126.800 L 163.200 126.800 163.200 131.800 L 163.200 136.800 161.600 136.800 L 160.000 136.800 160.000 146.800 L 160.000 156.800 158.400 156.800 L 156.800 156.800 156.800 161.800 L 156.800 166.800 160.000 166.800 L 163.200 166.800 163.200 168.400 L 163.200 170.000 168.200 170.000 L 173.200 170.000 173.200 171.600 L 173.200 173.200 191.600 173.200 L 210.000 173.200 210.000 171.600 L 210.000 170.000 211.600 170.000 L 213.200 170.000 213.200 168.400 L 213.200 166.800 215.000 166.800 L 216.800 166.800 216.800 155.000 L 216.800 143.200 215.000 143.200 L 213.200 143.200 213.200 148.400 L 213.200 153.600 208.200 153.600 L 203.200 153.600 203.200 151.800 L 203.200 150.000 201.600 150.000 L 200.000 150.000 200.000 148.400 L 200.000 146.800 198.400 146.800 L 196.800 146.800 196.800 143.400 L 196.800 140.000 206.800 140.000 L 216.800 140.000 216.800 138.400 L 216.800 136.800 215.000 136.800 L 213.200 136.800 213.200 131.800 L 213.200 126.800 211.600 126.800 L 210.000 126.800 210.000 121.800 L 210.000 116.800 208.400 116.800 L 206.800 116.800 206.800 113.400 L 206.800 110.000 205.000 110.000 L 203.200 110.000 203.200 106.600 L 203.200 103.200 201.600 103.200 L 200.000 103.200 200.000 101.600 L 200.000 100.000 198.400 100.000 L 196.800 100.000 196.800 98.400 L 196.800 96.800 195.000 96.800 L 193.200 96.800 193.200 83.400 L 193.200 70.000 195.000 70.000 L 196.800 70.000 196.800 61.600 L 196.800 53.200 191.800 53.200 L 186.800 53.200 186.800 55.000 M186.800 108.400 L 186.800 110.000 185.000 110.000 L 183.200 110.000 183.200 113.400 L 183.200 116.800 181.600 116.800 L 180.000 116.800 180.000 120.000 L 180.000 123.200 178.400 123.200 L 176.800 123.200 176.800 126.600 L 176.800 130.000 175.000 130.000 L 173.200 130.000 173.200 126.600 L 173.200 123.200 175.000 123.200 L 176.800 123.200 176.800 120.000 L 176.800 116.800 178.400 116.800 L 180.000 116.800 180.000 113.400 L 180.000 110.000 181.600 110.000 L 183.200 110.000 183.200 108.400 L 183.200 106.800 185.000 106.800 L 186.800 106.800 186.800 108.400 M203.200 128.400 L 203.200 130.000 205.000 130.000 L 206.800 130.000 206.800 133.400 L 206.800 136.800 205.000 136.800 L 203.200 136.800 203.200 133.400 L 203.200 130.000 201.600 130.000 L 200.000 130.000 200.000 128.400 L 200.000 126.800 201.600 126.800 L 203.200 126.800 203.200 128.400 M193.200 141.600 L 193.200 143.200 191.600 143.200 L 190.000 143.200 190.000 148.400 L 190.000 153.600 185.000 153.600 L 180.000 153.600 180.000 151.800 L 180.000 150.000 178.400 150.000 L 176.800 150.000 176.800 148.400 L 176.800 146.800 175.000 146.800 L 173.200 146.800 173.200 143.400 L 173.200 140.000 183.200 140.000 L 193.200 140.000 193.200 141.600 M203.200 158.200 L 203.200 160.000 205.000 160.000 L 206.800 160.000 206.800 163.400 L 206.800 166.800 195.000 166.800 L 183.200 166.800 183.200 165.000 L 183.200 163.200 181.600 163.200 L 180.000 163.200 180.000 161.600 L 180.000 160.000 181.600 160.000 L 183.200 160.000 183.200 158.200 L 183.200 156.400 193.200 156.400 L 203.200 156.400 203.200 158.200 " stroke="none" fill="#f9c204" fill-rule="evenodd"></path><path id="path1" d="M186.800 48.200 L 186.800 50.000 185.000 50.000 L 183.200 50.000 183.200 51.600 L 183.200 53.200 181.600 53.200 L 180.000 53.200 180.000 55.000 L 180.000 56.800 178.400 56.800 L 176.800 56.800 176.800 61.800 L 176.800 66.800 178.400 66.800 L 180.000 66.800 180.000 68.400 L 180.000 70.000 181.600 70.000 L 183.200 70.000 183.200 80.000 L 183.200 90.000 180.000 90.000 L 176.800 90.000 176.800 91.600 L 176.800 93.200 173.400 93.200 L 170.000 93.200 170.000 95.000 L 170.000 96.800 166.600 96.800 L 163.200 96.800 163.200 98.400 L 163.200 100.000 161.600 100.000 L 160.000 100.000 160.000 101.600 L 160.000 103.200 158.400 103.200 L 156.800 103.200 156.800 105.000 L 156.800 106.800 155.000 106.800 L 153.200 106.800 153.200 108.400 L 153.200 110.000 151.600 110.000 L 150.000 110.000 150.000 113.400 L 150.000 116.800 148.400 116.800 L 146.800 116.800 146.800 120.000 L 146.800 123.200 145.000 123.200 L 143.200 123.200 143.200 136.600 L 143.200 150.000 145.000 150.000 L 146.800 150.000 146.800 153.400 L 146.800 156.800 148.400 156.800 L 150.000 156.800 150.000 158.400 L 150.000 160.000 148.400 160.000 L 146.800 160.000 146.800 161.600 L 146.800 163.200 145.000 163.200 L 143.200 163.200 143.200 166.600 L 143.200 170.000 141.600 170.000 L 140.000 170.000 140.000 173.400 L 140.000 176.800 138.400 176.800 L 136.800 176.800 136.800 181.800 L 136.800 186.800 135.000 186.800 L 133.200 186.800 133.200 191.800 L 133.200 196.800 131.600 196.800 L 130.000 196.800 130.000 203.400 L 130.000 210.000 131.600 210.000 L 133.200 210.000 133.200 215.000 L 133.200 220.000 135.000 220.000 L 136.800 220.000 136.800 225.000 L 136.800 230.000 138.400 230.000 L 140.000 230.000 140.000 233.400 L 140.000 236.800 141.600 236.800 L 143.200 236.800 143.200 240.000 L 143.200 243.200 145.000 243.200 L 146.800 243.200 146.800 246.600 L 146.800 250.000 148.400 250.000 L 150.000 250.000 150.000 251.600 L 150.000 253.200 151.600 253.200 L 153.200 253.200 153.200 255.000 L 153.200 256.800 158.200 256.800 L 163.200 256.800 163.200 258.400 L 163.200 260.000 165.000 260.000 L 166.800 260.000 166.800 265.000 L 166.800 270.000 168.400 270.000 L 170.000 270.000 170.000 271.600 L 170.000 273.200 173.400 273.200 L 176.800 273.200 176.800 276.600 L 176.800 280.000 178.400 280.000 L 180.000 280.000 180.000 283.400 L 180.000 286.800 181.600 286.800 L 183.200 286.800 183.200 288.400 L 183.200 290.000 185.000 290.000 L 186.800 290.000 186.800 303.400 L 186.800 316.800 185.000 316.800 L 183.200 316.800 183.200 323.400 L 183.200 330.000 181.600 330.000 L 180.000 330.000 180.000 335.000 L 180.000 340.000 178.200 340.000 L 176.400 340.000 176.400 343.400 L 176.400 346.800 178.200 346.800 L 180.000 346.800 180.000 348.400 L 180.000 350.000 193.400 350.000 L 206.800 350.000 206.800 348.400 L 206.800 346.800 205.000 346.800 L 203.200 346.800 203.200 345.000 L 203.200 343.200 201.600 343.200 L 200.000 343.200 200.000 341.600 L 200.000 340.000 198.400 340.000 L 196.800 340.000 196.800 338.400 L 196.800 336.800 195.000 336.800 L 193.200 336.800 193.200 333.400 L 193.200 330.000 195.000 330.000 L 196.800 330.000 196.800 325.000 L 196.800 320.000 198.400 320.000 L 200.000 320.000 200.000 316.600 L 200.000 313.200 201.600 313.200 L 203.200 313.200 203.200 311.600 L 203.200 310.000 206.600 310.000 L 210.000 310.000 210.000 311.600 L 210.000 313.200 213.400 313.200 L 216.800 313.200 216.800 321.600 L 216.800 330.000 215.000 330.000 L 213.200 330.000 213.200 335.000 L 213.200 340.000 211.600 340.000 L 210.000 340.000 210.000 343.400 L 210.000 346.800 211.600 346.800 L 213.200 346.800 213.200 348.400 L 213.200 350.000 228.400 350.000 L 243.600 350.000 243.600 348.400 L 243.600 346.800 241.800 346.800 L 240.000 346.800 240.000 345.000 L 240.000 343.200 236.600 343.200 L 233.200 343.200 233.200 341.600 L 233.200 340.000 231.600 340.000 L 230.000 340.000 230.000 338.400 L 230.000 336.800 228.400 336.800 L 226.800 336.800 226.800 331.800 L 226.800 326.800 228.400 326.800 L 230.000 326.800 230.000 323.400 L 230.000 320.000 231.600 320.000 L 233.200 320.000 233.200 321.600 L 233.200 323.200 241.600 323.200 L 250.000 323.200 250.000 325.000 L 250.000 326.800 256.600 326.800 L 263.200 326.800 263.200 325.000 L 263.200 323.200 268.200 323.200 L 273.200 323.200 273.200 321.600 L 273.200 320.000 275.000 320.000 L 276.800 320.000 276.800 318.400 L 276.800 316.800 278.400 316.800 L 280.000 316.800 280.000 311.800 L 280.000 306.800 278.400 306.800 L 276.800 306.800 276.800 305.000 L 276.800 303.200 275.000 303.200 L 273.200 303.200 273.200 301.600 L 273.200 300.000 271.600 300.000 L 270.000 300.000 270.000 298.400 L 270.000 296.800 268.400 296.800 L 266.800 296.800 266.800 295.000 L 266.800 293.200 265.000 293.200 L 263.200 293.200 263.200 291.600 L 263.200 290.000 261.600 290.000 L 260.000 290.000 260.000 288.400 L 260.000 286.800 258.400 286.800 L 256.800 286.800 256.800 285.000 L 256.800 283.200 255.000 283.200 L 253.200 283.200 253.200 281.600 L 253.200 280.000 251.600 280.000 L 250.000 280.000 250.000 278.400 L 250.000 276.800 248.400 276.800 L 246.800 276.800 246.800 275.000 L 246.800 273.200 245.000 273.200 L 243.200 273.200 243.200 270.000 L 243.200 266.800 241.600 266.800 L 240.000 266.800 240.000 263.400 L 240.000 260.000 238.400 260.000 L 236.800 260.000 236.800 256.600 L 236.800 253.200 235.000 253.200 L 233.200 253.200 233.200 250.000 L 233.200 246.800 231.600 246.800 L 230.000 246.800 230.000 240.000 L 230.000 233.200 228.400 233.200 L 226.800 233.200 226.800 223.200 L 226.800 213.200 228.400 213.200 L 230.000 213.200 230.000 203.200 L 230.000 193.200 228.400 193.200 L 226.800 193.200 226.800 188.200 L 226.800 183.200 225.000 183.200 L 223.200 183.200 223.200 180.000 L 223.200 176.800 221.600 176.800 L 220.000 176.800 220.000 171.800 L 220.000 166.800 221.600 166.800 L 223.200 166.800 223.200 165.000 L 223.200 163.200 225.000 163.200 L 226.800 163.200 226.800 160.000 L 226.800 156.800 228.400 156.800 L 230.000 156.800 230.000 153.400 L 230.000 150.000 231.800 150.000 L 233.600 150.000 233.600 136.600 L 233.600 123.200 231.800 123.200 L 230.000 123.200 230.000 120.000 L 230.000 116.800 228.400 116.800 L 226.800 116.800 226.800 113.400 L 226.800 110.000 225.000 110.000 L 223.200 110.000 223.200 108.400 L 223.200 106.800 221.600 106.800 L 220.000 106.800 220.000 105.000 L 220.000 103.200 218.400 103.200 L 216.800 103.200 216.800 101.600 L 216.800 100.000 215.000 100.000 L 213.200 100.000 213.200 98.400 L 213.200 96.800 210.000 96.800 L 206.800 96.800 206.800 95.000 L 206.800 93.200 203.400 93.200 L 200.000 93.200 200.000 81.600 L 200.000 70.000 201.600 70.000 L 203.200 70.000 203.200 61.600 L 203.200 53.200 201.600 53.200 L 200.000 53.200 200.000 51.600 L 200.000 50.000 198.400 50.000 L 196.800 50.000 196.800 48.200 L 196.800 46.400 191.800 46.400 L 186.800 46.400 186.800 48.200 M196.800 61.600 L 196.800 70.000 195.000 70.000 L 193.200 70.000 193.200 83.400 L 193.200 96.800 195.000 96.800 L 196.800 96.800 196.800 95.000 L 196.800 93.200 198.400 93.200 L 200.000 93.200 200.000 95.000 L 200.000 96.800 203.400 96.800 L 206.800 96.800 206.800 98.400 L 206.800 100.000 210.000 100.000 L 213.200 100.000 213.200 101.600 L 213.200 103.200 215.000 103.200 L 216.800 103.200 216.800 105.000 L 216.800 106.800 218.400 106.800 L 220.000 106.800 220.000 108.400 L 220.000 110.000 221.600 110.000 L 223.200 110.000 223.200 113.400 L 223.200 116.800 225.000 116.800 L 226.800 116.800 226.800 120.000 L 226.800 123.200 228.400 123.200 L 230.000 123.200 230.000 136.600 L 230.000 150.000 228.400 150.000 L 226.800 150.000 226.800 153.400 L 226.800 156.800 225.000 156.800 L 223.200 156.800 223.200 160.000 L 223.200 163.200 221.600 163.200 L 220.000 163.200 220.000 150.000 L 220.000 136.800 218.400 136.800 L 216.800 136.800 216.800 138.400 L 216.800 140.000 206.800 140.000 L 196.800 140.000 196.800 141.600 L 196.800 143.200 200.000 143.200 L 203.200 143.200 203.200 148.400 L 203.200 153.600 208.200 153.600 L 213.200 153.600 213.200 148.400 L 213.200 143.200 215.000 143.200 L 216.800 143.200 216.800 155.000 L 216.800 166.800 215.000 166.800 L 213.200 166.800 213.200 168.400 L 213.200 170.000 211.600 170.000 L 210.000 170.000 210.000 171.600 L 210.000 173.200 211.600 173.200 L 213.200 173.200 213.200 175.000 L 213.200 176.800 216.600 176.800 L 220.000 176.800 220.000 180.000 L 220.000 183.200 221.600 183.200 L 223.200 183.200 223.200 188.200 L 223.200 193.200 225.000 193.200 L 226.800 193.200 226.800 203.200 L 226.800 213.200 225.000 213.200 L 223.200 213.200 223.200 223.200 L 223.200 233.200 225.000 233.200 L 226.800 233.200 226.800 240.000 L 226.800 246.800 228.400 246.800 L 230.000 246.800 230.000 250.000 L 230.000 253.200 231.600 253.200 L 233.200 253.200 233.200 256.600 L 233.200 260.000 235.000 260.000 L 236.800 260.000 236.800 263.400 L 236.800 266.800 238.400 266.800 L 240.000 266.800 240.000 270.000 L 240.000 273.200 241.600 273.200 L 243.200 273.200 243.200 275.000 L 243.200 276.800 245.000 276.800 L 246.800 276.800 246.800 278.400 L 246.800 280.000 248.400 280.000 L 250.000 280.000 250.000 281.600 L 250.000 283.200 251.600 283.200 L 253.200 283.200 253.200 285.000 L 253.200 286.800 255.000 286.800 L 256.800 286.800 256.800 288.400 L 256.800 290.000 258.400 290.000 L 260.000 290.000 260.000 291.600 L 260.000 293.200 261.600 293.200 L 263.200 293.200 263.200 295.000 L 263.200 296.800 265.000 296.800 L 266.800 296.800 266.800 298.400 L 266.800 300.000 268.400 300.000 L 270.000 300.000 270.000 301.600 L 270.000 303.200 271.600 303.200 L 273.200 303.200 273.200 305.000 L 273.200 306.800 275.000 306.800 L 276.800 306.800 276.800 311.800 L 276.800 316.800 275.000 316.800 L 273.200 316.800 273.200 318.400 L 273.200 320.000 268.200 320.000 L 263.200 320.000 263.200 321.600 L 263.200 323.200 256.600 323.200 L 250.000 323.200 250.000 321.600 L 250.000 320.000 241.600 320.000 L 233.200 320.000 233.200 318.400 L 233.200 316.800 228.200 316.800 L 223.200 316.800 223.200 318.400 L 223.200 320.000 225.000 320.000 L 226.800 320.000 226.800 323.400 L 226.800 326.800 225.000 326.800 L 223.200 326.800 223.200 331.800 L 223.200 336.800 225.000 336.800 L 226.800 336.800 226.800 338.400 L 226.800 340.000 228.400 340.000 L 230.000 340.000 230.000 341.600 L 230.000 343.200 231.600 343.200 L 233.200 343.200 233.200 345.000 L 233.200 346.800 223.200 346.800 L 213.200 346.800 213.200 343.400 L 213.200 340.000 215.000 340.000 L 216.800 340.000 216.800 335.000 L 216.800 330.000 218.400 330.000 L 220.000 330.000 220.000 323.400 L 220.000 316.800 221.600 316.800 L 223.200 316.800 223.200 315.000 L 223.200 313.200 220.000 313.200 L 216.800 313.200 216.800 311.600 L 216.800 310.000 213.400 310.000 L 210.000 310.000 210.000 308.400 L 210.000 306.800 208.400 306.800 L 206.800 306.800 206.800 305.000 L 206.800 303.200 205.000 303.200 L 203.200 303.200 203.200 306.600 L 203.200 310.000 201.600 310.000 L 200.000 310.000 200.000 311.600 L 200.000 313.200 198.400 313.200 L 196.800 313.200 196.800 316.600 L 196.800 320.000 195.000 320.000 L 193.200 320.000 193.200 325.000 L 193.200 330.000 191.600 330.000 L 190.000 330.000 190.000 333.400 L 190.000 336.800 191.600 336.800 L 193.200 336.800 193.200 338.400 L 193.200 340.000 195.000 340.000 L 196.800 340.000 196.800 341.600 L 196.800 343.200 198.400 343.200 L 200.000 343.200 200.000 345.000 L 200.000 346.800 190.000 346.800 L 180.000 346.800 180.000 343.400 L 180.000 340.000 181.600 340.000 L 183.200 340.000 183.200 335.000 L 183.200 330.000 185.000 330.000 L 186.800 330.000 186.800 323.400 L 186.800 316.800 188.400 316.800 L 190.000 316.800 190.000 301.800 L 190.000 286.800 191.600 286.800 L 193.200 286.800 193.200 285.000 L 193.200 283.200 190.000 283.200 L 186.800 283.200 186.800 285.000 L 186.800 286.800 185.000 286.800 L 183.200 286.800 183.200 283.400 L 183.200 280.000 181.600 280.000 L 180.000 280.000 180.000 276.600 L 180.000 273.200 183.400 273.200 L 186.800 273.200 186.800 270.000 L 186.800 266.800 185.000 266.800 L 183.200 266.800 183.200 268.400 L 183.200 270.000 176.600 270.000 L 170.000 270.000 170.000 265.000 L 170.000 260.000 168.400 260.000 L 166.800 260.000 166.800 258.400 L 166.800 256.800 165.000 256.800 L 163.200 256.800 163.200 255.000 L 163.200 253.200 161.600 253.200 L 160.000 253.200 160.000 250.000 L 160.000 246.800 158.400 246.800 L 156.800 246.800 156.800 250.000 L 156.800 253.200 155.000 253.200 L 153.200 253.200 153.200 251.600 L 153.200 250.000 151.600 250.000 L 150.000 250.000 150.000 246.600 L 150.000 243.200 148.400 243.200 L 146.800 243.200 146.800 240.000 L 146.800 236.800 145.000 236.800 L 143.200 236.800 143.200 233.400 L 143.200 230.000 141.600 230.000 L 140.000 230.000 140.000 225.000 L 140.000 220.000 138.400 220.000 L 136.800 220.000 136.800 215.000 L 136.800 210.000 135.000 210.000 L 133.200 210.000 133.200 203.400 L 133.200 196.800 135.000 196.800 L 136.800 196.800 136.800 191.800 L 136.800 186.800 138.400 186.800 L 140.000 186.800 140.000 181.800 L 140.000 176.800 141.600 176.800 L 143.200 176.800 143.200 173.400 L 143.200 170.000 145.000 170.000 L 146.800 170.000 146.800 166.600 L 146.800 163.200 150.000 163.200 L 153.200 163.200 153.200 170.000 L 153.200 176.800 158.200 176.800 L 163.200 176.800 163.200 175.000 L 163.200 173.200 168.200 173.200 L 173.200 173.200 173.200 171.600 L 173.200 170.000 168.200 170.000 L 163.200 170.000 163.200 168.400 L 163.200 166.800 160.000 166.800 L 156.800 166.800 156.800 161.800 L 156.800 156.800 153.400 156.800 L 150.000 156.800 150.000 153.400 L 150.000 150.000 148.400 150.000 L 146.800 150.000 146.800 136.600 L 146.800 123.200 148.400 123.200 L 150.000 123.200 150.000 120.000 L 150.000 116.800 151.600 116.800 L 153.200 116.800 153.200 113.400 L 153.200 110.000 155.000 110.000 L 156.800 110.000 156.800 108.400 L 156.800 106.800 158.400 106.800 L 160.000 106.800 160.000 105.000 L 160.000 103.200 161.600 103.200 L 163.200 103.200 163.200 101.600 L 163.200 100.000 166.600 100.000 L 170.000 100.000 170.000 98.400 L 170.000 96.800 173.400 96.800 L 176.800 96.800 176.800 95.000 L 176.800 93.200 181.800 93.200 L 186.800 93.200 186.800 95.000 L 186.800 96.800 188.400 96.800 L 190.000 96.800 190.000 83.400 L 190.000 70.000 188.400 70.000 L 186.800 70.000 186.800 68.400 L 186.800 66.800 185.000 66.800 L 183.200 66.800 183.200 61.800 L 183.200 56.800 185.000 56.800 L 186.800 56.800 186.800 55.000 L 186.800 53.200 191.800 53.200 L 196.800 53.200 196.800 61.600 M183.200 98.400 L 183.200 100.000 181.600 100.000 L 180.000 100.000 180.000 101.600 L 180.000 103.200 178.400 103.200 L 176.800 103.200 176.800 105.000 L 176.800 106.800 175.000 106.800 L 173.200 106.800 173.200 108.400 L 173.200 110.000 171.600 110.000 L 170.000 110.000 170.000 111.600 L 170.000 113.200 168.400 113.200 L 166.800 113.200 166.800 116.600 L 166.800 120.000 165.000 120.000 L 163.200 120.000 163.200 123.400 L 163.200 126.800 161.600 126.800 L 160.000 126.800 160.000 131.800 L 160.000 136.800 158.400 136.800 L 156.800 136.800 156.800 146.800 L 156.800 156.800 158.400 156.800 L 160.000 156.800 160.000 146.800 L 160.000 136.800 161.600 136.800 L 163.200 136.800 163.200 131.800 L 163.200 126.800 165.000 126.800 L 166.800 126.800 166.800 123.400 L 166.800 120.000 168.400 120.000 L 170.000 120.000 170.000 116.600 L 170.000 113.200 171.600 113.200 L 173.200 113.200 173.200 111.600 L 173.200 110.000 175.000 110.000 L 176.800 110.000 176.800 108.400 L 176.800 106.800 178.400 106.800 L 180.000 106.800 180.000 105.000 L 180.000 103.200 181.600 103.200 L 183.200 103.200 183.200 101.600 L 183.200 100.000 185.000 100.000 L 186.800 100.000 186.800 98.400 L 186.800 96.800 185.000 96.800 L 183.200 96.800 183.200 98.400 M196.800 98.400 L 196.800 100.000 198.400 100.000 L 200.000 100.000 200.000 101.600 L 200.000 103.200 201.600 103.200 L 203.200 103.200 203.200 106.600 L 203.200 110.000 205.000 110.000 L 206.800 110.000 206.800 113.400 L 206.800 116.800 208.400 116.800 L 210.000 116.800 210.000 121.800 L 210.000 126.800 211.600 126.800 L 213.200 126.800 213.200 131.800 L 213.200 136.800 215.000 136.800 L 216.800 136.800 216.800 131.800 L 216.800 126.800 215.000 126.800 L 213.200 126.800 213.200 121.800 L 213.200 116.800 211.600 116.800 L 210.000 116.800 210.000 113.400 L 210.000 110.000 208.400 110.000 L 206.800 110.000 206.800 106.600 L 206.800 103.200 205.000 103.200 L 203.200 103.200 203.200 101.600 L 203.200 100.000 201.600 100.000 L 200.000 100.000 200.000 98.400 L 200.000 96.800 198.400 96.800 L 196.800 96.800 196.800 98.400 M173.200 141.600 L 173.200 143.200 176.600 143.200 L 180.000 143.200 180.000 148.400 L 180.000 153.600 185.000 153.600 L 190.000 153.600 190.000 148.400 L 190.000 143.200 191.600 143.200 L 193.200 143.200 193.200 141.600 L 193.200 140.000 183.200 140.000 L 173.200 140.000 173.200 141.600 M190.000 161.600 L 190.000 163.200 195.000 163.200 L 200.000 163.200 200.000 161.600 L 200.000 160.000 195.000 160.000 L 190.000 160.000 190.000 161.600 M160.000 171.600 L 160.000 173.200 158.400 173.200 L 156.800 173.200 156.800 171.600 L 156.800 170.000 158.400 170.000 L 160.000 170.000 160.000 171.600 M173.200 175.000 L 173.200 176.800 168.200 176.800 L 163.200 176.800 163.200 178.400 L 163.200 180.000 168.200 180.000 L 173.200 180.000 173.200 181.600 L 173.200 183.200 191.600 183.200 L 210.000 183.200 210.000 181.600 L 210.000 180.000 211.600 180.000 L 213.200 180.000 213.200 178.400 L 213.200 176.800 211.600 176.800 L 210.000 176.800 210.000 175.000 L 210.000 173.200 191.600 173.200 L 173.200 173.200 173.200 175.000 M150.000 181.800 L 150.000 186.800 148.400 186.800 L 146.800 186.800 146.800 195.000 L 146.800 203.200 148.400 203.200 L 150.000 203.200 150.000 211.600 L 150.000 220.000 148.400 220.000 L 146.800 220.000 146.800 225.000 L 146.800 230.000 148.400 230.000 L 150.000 230.000 150.000 235.000 L 150.000 240.000 151.600 240.000 L 153.200 240.000 153.200 243.400 L 153.200 246.800 155.000 246.800 L 156.800 246.800 156.800 243.400 L 156.800 240.000 155.000 240.000 L 153.200 240.000 153.200 235.000 L 153.200 230.000 151.600 230.000 L 150.000 230.000 150.000 225.000 L 150.000 220.000 151.600 220.000 L 153.200 220.000 153.200 211.600 L 153.200 203.200 155.000 203.200 L 156.800 203.200 156.800 200.000 L 156.800 196.800 158.400 196.800 L 160.000 196.800 160.000 195.000 L 160.000 193.200 158.400 193.200 L 156.800 193.200 156.800 195.000 L 156.800 196.800 155.000 196.800 L 153.200 196.800 153.200 200.000 L 153.200 203.200 151.600 203.200 L 150.000 203.200 150.000 195.000 L 150.000 186.800 151.600 186.800 L 153.200 186.800 153.200 181.800 L 153.200 176.800 151.600 176.800 L 150.000 176.800 150.000 181.800 M210.000 178.400 L 210.000 180.000 191.600 180.000 L 173.200 180.000 173.200 178.400 L 173.200 176.800 191.600 176.800 L 210.000 176.800 210.000 178.400 M173.200 201.800 L 173.200 206.800 171.600 206.800 L 170.000 206.800 170.000 215.000 L 170.000 223.200 168.400 223.200 L 166.800 223.200 166.800 226.600 L 166.800 230.000 168.400 230.000 L 170.000 230.000 170.000 235.000 L 170.000 240.000 171.600 240.000 L 173.200 240.000 173.200 243.400 L 173.200 246.800 175.000 246.800 L 176.800 246.800 176.800 250.000 L 176.800 253.200 178.400 253.200 L 180.000 253.200 180.000 255.000 L 180.000 256.800 183.400 256.800 L 186.800 256.800 186.800 261.800 L 186.800 266.800 188.400 266.800 L 190.000 266.800 190.000 261.800 L 190.000 256.800 188.400 256.800 L 186.800 256.800 186.800 255.000 L 186.800 253.200 183.400 253.200 L 180.000 253.200 180.000 250.000 L 180.000 246.800 178.400 246.800 L 176.800 246.800 176.800 243.400 L 176.800 240.000 175.000 240.000 L 173.200 240.000 173.200 235.000 L 173.200 230.000 171.600 230.000 L 170.000 230.000 170.000 226.600 L 170.000 223.200 171.600 223.200 L 173.200 223.200 173.200 215.000 L 173.200 206.800 175.000 206.800 L 176.800 206.800 176.800 201.800 L 176.800 196.800 175.000 196.800 L 173.200 196.800 173.200 201.800 M193.200 288.400 L 193.200 290.000 196.600 290.000 L 200.000 290.000 200.000 291.600 L 200.000 293.200 201.600 293.200 L 203.200 293.200 203.200 295.000 L 203.200 296.800 205.000 296.800 L 206.800 296.800 206.800 300.000 L 206.800 303.200 208.400 303.200 L 210.000 303.200 210.000 300.000 L 210.000 296.800 208.400 296.800 L 206.800 296.800 206.800 295.000 L 206.800 293.200 205.000 293.200 L 203.200 293.200 203.200 290.000 L 203.200 286.800 198.200 286.800 L 193.200 286.800 193.200 288.400 " stroke="none" fill="#040404" fill-rule="evenodd"></path><path id="path2" d="M176.800 95.000 L 176.800 96.800 173.400 96.800 L 170.000 96.800 170.000 98.400 L 170.000 100.000 166.600 100.000 L 163.200 100.000 163.200 101.600 L 163.200 103.200 161.600 103.200 L 160.000 103.200 160.000 105.000 L 160.000 106.800 158.400 106.800 L 156.800 106.800 156.800 108.400 L 156.800 110.000 155.000 110.000 L 153.200 110.000 153.200 113.400 L 153.200 116.800 151.600 116.800 L 150.000 116.800 150.000 120.000 L 150.000 123.200 148.400 123.200 L 146.800 123.200 146.800 136.600 L 146.800 150.000 148.400 150.000 L 150.000 150.000 150.000 153.400 L 150.000 156.800 153.400 156.800 L 156.800 156.800 156.800 146.800 L 156.800 136.800 158.400 136.800 L 160.000 136.800 160.000 131.800 L 160.000 126.800 161.600 126.800 L 163.200 126.800 163.200 123.400 L 163.200 120.000 165.000 120.000 L 166.800 120.000 166.800 116.600 L 166.800 113.200 168.400 113.200 L 170.000 113.200 170.000 111.600 L 170.000 110.000 171.600 110.000 L 173.200 110.000 173.200 108.400 L 173.200 106.800 175.000 106.800 L 176.800 106.800 176.800 105.000 L 176.800 103.200 178.400 103.200 L 180.000 103.200 180.000 101.600 L 180.000 100.000 181.600 100.000 L 183.200 100.000 183.200 98.400 L 183.200 96.800 185.000 96.800 L 186.800 96.800 186.800 95.000 L 186.800 93.200 181.800 93.200 L 176.800 93.200 176.800 95.000 M196.800 95.000 L 196.800 96.800 198.400 96.800 L 200.000 96.800 200.000 98.400 L 200.000 100.000 201.600 100.000 L 203.200 100.000 203.200 101.600 L 203.200 103.200 205.000 103.200 L 206.800 103.200 206.800 106.600 L 206.800 110.000 208.400 110.000 L 210.000 110.000 210.000 113.400 L 210.000 116.800 211.600 116.800 L 213.200 116.800 213.200 121.800 L 213.200 126.800 215.000 126.800 L 216.800 126.800 216.800 131.800 L 216.800 136.800 218.400 136.800 L 220.000 136.800 220.000 150.000 L 220.000 163.200 221.600 163.200 L 223.200 163.200 223.200 160.000 L 223.200 156.800 225.000 156.800 L 226.800 156.800 226.800 153.400 L 226.800 150.000 228.400 150.000 L 230.000 150.000 230.000 136.600 L 230.000 123.200 228.400 123.200 L 226.800 123.200 226.800 120.000 L 226.800 116.800 225.000 116.800 L 223.200 116.800 223.200 113.400 L 223.200 110.000 221.600 110.000 L 220.000 110.000 220.000 108.400 L 220.000 106.800 218.400 106.800 L 216.800 106.800 216.800 105.000 L 216.800 103.200 215.000 103.200 L 213.200 103.200 213.200 101.600 L 213.200 100.000 210.000 100.000 L 206.800 100.000 206.800 98.400 L 206.800 96.800 203.400 96.800 L 200.000 96.800 200.000 95.000 L 200.000 93.200 198.400 93.200 L 196.800 93.200 196.800 95.000 M173.200 145.000 L 173.200 146.800 175.000 146.800 L 176.800 146.800 176.800 148.400 L 176.800 150.000 178.400 150.000 L 180.000 150.000 180.000 146.600 L 180.000 143.200 176.600 143.200 L 173.200 143.200 173.200 145.000 M196.800 145.000 L 196.800 146.800 198.400 146.800 L 200.000 146.800 200.000 148.400 L 200.000 150.000 201.600 150.000 L 203.200 150.000 203.200 146.600 L 203.200 143.200 200.000 143.200 L 196.800 143.200 196.800 145.000 M156.800 171.600 L 156.800 173.200 158.400 173.200 L 160.000 173.200 160.000 171.600 L 160.000 170.000 158.400 170.000 L 156.800 170.000 156.800 171.600 M163.200 175.000 L 163.200 176.800 166.600 176.800 L 170.000 176.800 170.000 175.000 L 170.000 173.200 166.600 173.200 L 163.200 173.200 163.200 175.000 M210.000 175.000 L 210.000 176.800 191.600 176.800 L 173.200 176.800 173.200 178.400 L 173.200 180.000 168.200 180.000 L 163.200 180.000 163.200 181.600 L 163.200 183.200 165.000 183.200 L 166.800 183.200 166.800 185.000 L 166.800 186.800 163.400 186.800 L 160.000 186.800 160.000 188.400 L 160.000 190.000 158.400 190.000 L 156.800 190.000 156.800 191.600 L 156.800 193.200 158.400 193.200 L 160.000 193.200 160.000 195.000 L 160.000 196.800 158.400 196.800 L 156.800 196.800 156.800 200.000 L 156.800 203.200 155.000 203.200 L 153.200 203.200 153.200 213.200 L 153.200 223.200 151.600 223.200 L 150.000 223.200 150.000 226.600 L 150.000 230.000 151.600 230.000 L 153.200 230.000 153.200 233.400 L 153.200 236.800 156.600 236.800 L 160.000 236.800 160.000 238.400 L 160.000 240.000 158.400 240.000 L 156.800 240.000 156.800 243.400 L 156.800 246.800 158.400 246.800 L 160.000 246.800 160.000 248.400 L 160.000 250.000 163.400 250.000 L 166.800 250.000 166.800 251.600 L 166.800 253.200 170.000 253.200 L 173.200 253.200 173.200 255.000 L 173.200 256.800 171.600 256.800 L 170.000 256.800 170.000 258.400 L 170.000 260.000 171.600 260.000 L 173.200 260.000 173.200 261.600 L 173.200 263.200 171.600 263.200 L 170.000 263.200 170.000 266.600 L 170.000 270.000 176.600 270.000 L 183.200 270.000 183.200 268.400 L 183.200 266.800 185.000 266.800 L 186.800 266.800 186.800 261.800 L 186.800 256.800 181.800 256.800 L 176.800 256.800 176.800 255.000 L 176.800 253.200 175.000 253.200 L 173.200 253.200 173.200 251.600 L 173.200 250.000 175.000 250.000 L 176.800 250.000 176.800 248.400 L 176.800 246.800 175.000 246.800 L 173.200 246.800 173.200 243.400 L 173.200 240.000 171.600 240.000 L 170.000 240.000 170.000 235.000 L 170.000 230.000 168.400 230.000 L 166.800 230.000 166.800 226.600 L 166.800 223.200 165.000 223.200 L 163.200 223.200 163.200 221.600 L 163.200 220.000 166.600 220.000 L 170.000 220.000 170.000 213.400 L 170.000 206.800 171.600 206.800 L 173.200 206.800 173.200 211.800 L 173.200 216.800 175.000 216.800 L 176.800 216.800 176.800 218.400 L 176.800 220.000 175.000 220.000 L 173.200 220.000 173.200 228.400 L 173.200 236.800 175.000 236.800 L 176.800 236.800 176.800 240.000 L 176.800 243.200 178.400 243.200 L 180.000 243.200 180.000 246.600 L 180.000 250.000 183.400 250.000 L 186.800 250.000 186.800 251.600 L 186.800 253.200 191.800 253.200 L 196.800 253.200 196.800 255.000 L 196.800 256.800 193.400 256.800 L 190.000 256.800 190.000 260.000 L 190.000 263.200 191.600 263.200 L 193.200 263.200 193.200 265.000 L 193.200 266.800 195.000 266.800 L 196.800 266.800 196.800 270.000 L 196.800 273.200 198.400 273.200 L 200.000 273.200 200.000 275.000 L 200.000 276.800 201.600 276.800 L 203.200 276.800 203.200 278.400 L 203.200 280.000 205.000 280.000 L 206.800 280.000 206.800 281.600 L 206.800 283.200 208.400 283.200 L 210.000 283.200 210.000 285.000 L 210.000 286.800 211.600 286.800 L 213.200 286.800 213.200 288.400 L 213.200 290.000 218.200 290.000 L 223.200 290.000 223.200 291.600 L 223.200 293.200 221.600 293.200 L 220.000 293.200 220.000 295.000 L 220.000 296.800 221.600 296.800 L 223.200 296.800 223.200 298.400 L 223.200 300.000 225.000 300.000 L 226.800 300.000 226.800 301.600 L 226.800 303.200 228.400 303.200 L 230.000 303.200 230.000 305.000 L 230.000 306.800 231.600 306.800 L 233.200 306.800 233.200 308.400 L 233.200 310.000 235.000 310.000 L 236.800 310.000 236.800 311.600 L 236.800 313.200 241.800 313.200 L 246.800 313.200 246.800 315.000 L 246.800 316.800 251.800 316.800 L 256.800 316.800 256.800 318.400 L 256.800 320.000 258.400 320.000 L 260.000 320.000 260.000 318.400 L 260.000 316.800 263.400 316.800 L 266.800 316.800 266.800 315.000 L 266.800 313.200 270.000 313.200 L 273.200 313.200 273.200 311.600 L 273.200 310.000 275.000 310.000 L 276.800 310.000 276.800 308.400 L 276.800 306.800 275.000 306.800 L 273.200 306.800 273.200 305.000 L 273.200 303.200 271.600 303.200 L 270.000 303.200 270.000 301.600 L 270.000 300.000 268.400 300.000 L 266.800 300.000 266.800 298.400 L 266.800 296.800 263.400 296.800 L 260.000 296.800 260.000 293.400 L 260.000 290.000 258.400 290.000 L 256.800 290.000 256.800 288.400 L 256.800 286.800 255.000 286.800 L 253.200 286.800 253.200 285.000 L 253.200 283.200 251.600 283.200 L 250.000 283.200 250.000 281.600 L 250.000 280.000 248.400 280.000 L 246.800 280.000 246.800 278.400 L 246.800 276.800 245.000 276.800 L 243.200 276.800 243.200 275.000 L 243.200 273.200 241.600 273.200 L 240.000 273.200 240.000 270.000 L 240.000 266.800 238.400 266.800 L 236.800 266.800 236.800 265.000 L 236.800 263.200 233.400 263.200 L 230.000 263.200 230.000 261.600 L 230.000 260.000 231.600 260.000 L 233.200 260.000 233.200 256.600 L 233.200 253.200 231.600 253.200 L 230.000 253.200 230.000 250.000 L 230.000 246.800 228.400 246.800 L 226.800 246.800 226.800 240.000 L 226.800 233.200 225.000 233.200 L 223.200 233.200 223.200 228.200 L 223.200 223.200 221.600 223.200 L 220.000 223.200 220.000 221.600 L 220.000 220.000 221.600 220.000 L 223.200 220.000 223.200 216.600 L 223.200 213.200 225.000 213.200 L 226.800 213.200 226.800 208.200 L 226.800 203.200 225.000 203.200 L 223.200 203.200 223.200 205.000 L 223.200 206.800 221.600 206.800 L 220.000 206.800 220.000 208.400 L 220.000 210.000 218.400 210.000 L 216.800 210.000 216.800 211.600 L 216.800 213.200 215.000 213.200 L 213.200 213.200 213.200 211.600 L 213.200 210.000 211.600 210.000 L 210.000 210.000 210.000 208.400 L 210.000 206.800 208.400 206.800 L 206.800 206.800 206.800 205.000 L 206.800 203.200 205.000 203.200 L 203.200 203.200 203.200 201.600 L 203.200 200.000 205.000 200.000 L 206.800 200.000 206.800 198.400 L 206.800 196.800 208.400 196.800 L 210.000 196.800 210.000 195.000 L 210.000 193.200 211.600 193.200 L 213.200 193.200 213.200 191.600 L 213.200 190.000 215.000 190.000 L 216.800 190.000 216.800 191.600 L 216.800 193.200 218.400 193.200 L 220.000 193.200 220.000 195.000 L 220.000 196.800 221.600 196.800 L 223.200 196.800 223.200 198.400 L 223.200 200.000 225.000 200.000 L 226.800 200.000 226.800 196.600 L 226.800 193.200 225.000 193.200 L 223.200 193.200 223.200 188.200 L 223.200 183.200 221.600 183.200 L 220.000 183.200 220.000 180.000 L 220.000 176.800 216.600 176.800 L 213.200 176.800 213.200 175.000 L 213.200 173.200 211.600 173.200 L 210.000 173.200 210.000 175.000 M213.200 178.400 L 213.200 180.000 211.600 180.000 L 210.000 180.000 210.000 181.600 L 210.000 183.200 191.600 183.200 L 173.200 183.200 173.200 181.600 L 173.200 180.000 191.600 180.000 L 210.000 180.000 210.000 178.400 L 210.000 176.800 211.600 176.800 L 213.200 176.800 213.200 178.400 M170.000 188.400 L 170.000 190.000 171.600 190.000 L 173.200 190.000 173.200 193.400 L 173.200 196.800 175.000 196.800 L 176.800 196.800 176.800 201.800 L 176.800 206.800 175.000 206.800 L 173.200 206.800 173.200 201.800 L 173.200 196.800 171.600 196.800 L 170.000 196.800 170.000 193.400 L 170.000 190.000 168.400 190.000 L 166.800 190.000 166.800 188.400 L 166.800 186.800 168.400 186.800 L 170.000 186.800 170.000 188.400 M186.800 198.400 L 186.800 200.000 188.400 200.000 L 190.000 200.000 190.000 201.600 L 190.000 203.200 193.400 203.200 L 196.800 203.200 196.800 205.000 L 196.800 206.800 195.000 206.800 L 193.200 206.800 193.200 208.400 L 193.200 210.000 191.600 210.000 L 190.000 210.000 190.000 206.600 L 190.000 203.200 188.400 203.200 L 186.800 203.200 186.800 201.600 L 186.800 200.000 185.000 200.000 L 183.200 200.000 183.200 198.400 L 183.200 196.800 185.000 196.800 L 186.800 196.800 186.800 198.400 M186.800 221.600 L 186.800 223.200 191.800 223.200 L 196.800 223.200 196.800 225.000 L 196.800 226.800 205.000 226.800 L 213.200 226.800 213.200 225.000 L 213.200 223.200 216.600 223.200 L 220.000 223.200 220.000 225.000 L 220.000 226.800 216.600 226.800 L 213.200 226.800 213.200 228.400 L 213.200 230.000 205.000 230.000 L 196.800 230.000 196.800 228.400 L 196.800 226.800 191.800 226.800 L 186.800 226.800 186.800 225.000 L 186.800 223.200 181.800 223.200 L 176.800 223.200 176.800 221.600 L 176.800 220.000 181.800 220.000 L 186.800 220.000 186.800 221.600 M163.200 225.000 L 163.200 226.800 158.200 226.800 L 153.200 226.800 153.200 225.000 L 153.200 223.200 158.200 223.200 L 163.200 223.200 163.200 225.000 M170.000 241.600 L 170.000 243.200 165.000 243.200 L 160.000 243.200 160.000 241.600 L 160.000 240.000 165.000 240.000 L 170.000 240.000 170.000 241.600 M176.800 258.400 L 176.800 260.000 175.000 260.000 L 173.200 260.000 173.200 258.400 L 173.200 256.800 175.000 256.800 L 176.800 256.800 176.800 258.400 M206.800 258.400 L 206.800 260.000 213.400 260.000 L 220.000 260.000 220.000 261.600 L 220.000 263.200 225.000 263.200 L 230.000 263.200 230.000 265.000 L 230.000 266.800 225.000 266.800 L 220.000 266.800 220.000 265.000 L 220.000 263.200 213.400 263.200 L 206.800 263.200 206.800 261.600 L 206.800 260.000 201.800 260.000 L 196.800 260.000 196.800 258.400 L 196.800 256.800 201.800 256.800 L 206.800 256.800 206.800 258.400 M233.200 295.000 L 233.200 296.800 238.200 296.800 L 243.200 296.800 243.200 298.400 L 243.200 300.000 248.200 300.000 L 253.200 300.000 253.200 298.400 L 253.200 296.800 256.600 296.800 L 260.000 296.800 260.000 298.400 L 260.000 300.000 256.600 300.000 L 253.200 300.000 253.200 301.600 L 253.200 303.200 248.200 303.200 L 243.200 303.200 243.200 301.600 L 243.200 300.000 238.200 300.000 L 233.200 300.000 233.200 298.400 L 233.200 296.800 228.200 296.800 L 223.200 296.800 223.200 295.000 L 223.200 293.200 228.200 293.200 L 233.200 293.200 233.200 295.000 M203.200 298.400 L 203.200 300.000 201.600 300.000 L 200.000 300.000 200.000 301.600 L 200.000 303.200 198.400 303.200 L 196.800 303.200 196.800 306.600 L 196.800 310.000 195.000 310.000 L 193.200 310.000 193.200 313.400 L 193.200 316.800 191.600 316.800 L 190.000 316.800 190.000 323.400 L 190.000 330.000 188.400 330.000 L 186.800 330.000 186.800 335.000 L 186.800 340.000 185.000 340.000 L 183.200 340.000 183.200 341.600 L 183.200 343.200 185.000 343.200 L 186.800 343.200 186.800 345.000 L 186.800 346.800 193.400 346.800 L 200.000 346.800 200.000 345.000 L 200.000 343.200 198.400 343.200 L 196.800 343.200 196.800 341.600 L 196.800 340.000 195.000 340.000 L 193.200 340.000 193.200 338.400 L 193.200 336.800 191.600 336.800 L 190.000 336.800 190.000 333.400 L 190.000 330.000 191.600 330.000 L 193.200 330.000 193.200 325.000 L 193.200 320.000 195.000 320.000 L 196.800 320.000 196.800 316.600 L 196.800 313.200 198.400 313.200 L 200.000 313.200 200.000 311.600 L 200.000 310.000 201.600 310.000 L 203.200 310.000 203.200 306.600 L 203.200 303.200 205.000 303.200 L 206.800 303.200 206.800 300.000 L 206.800 296.800 205.000 296.800 L 203.200 296.800 203.200 298.400 M223.200 323.400 L 223.200 326.800 225.000 326.800 L 226.800 326.800 226.800 323.400 L 226.800 320.000 225.000 320.000 L 223.200 320.000 223.200 323.400 M220.000 333.400 L 220.000 336.800 218.400 336.800 L 216.800 336.800 216.800 338.400 L 216.800 340.000 218.400 340.000 L 220.000 340.000 220.000 341.600 L 220.000 343.200 221.600 343.200 L 223.200 343.200 223.200 345.000 L 223.200 346.800 228.200 346.800 L 233.200 346.800 233.200 345.000 L 233.200 343.200 231.600 343.200 L 230.000 343.200 230.000 341.600 L 230.000 340.000 228.400 340.000 L 226.800 340.000 226.800 338.400 L 226.800 336.800 225.000 336.800 L 223.200 336.800 223.200 333.400 L 223.200 330.000 221.600 330.000 L 220.000 330.000 220.000 333.400 " stroke="none" fill="#e3fbfb" fill-rule="evenodd"></path><path id="path3" d="M183.200 158.200 L 183.200 160.000 181.600 160.000 L 180.000 160.000 180.000 161.600 L 180.000 163.200 181.600 163.200 L 183.200 163.200 183.200 165.000 L 183.200 166.800 195.000 166.800 L 206.800 166.800 206.800 163.400 L 206.800 160.000 205.000 160.000 L 203.200 160.000 203.200 158.200 L 203.200 156.400 193.200 156.400 L 183.200 156.400 183.200 158.200 M200.000 161.600 L 200.000 163.200 195.000 163.200 L 190.000 163.200 190.000 161.600 L 190.000 160.000 195.000 160.000 L 200.000 160.000 200.000 161.600 M146.800 166.600 L 146.800 170.000 145.000 170.000 L 143.200 170.000 143.200 173.400 L 143.200 176.800 141.600 176.800 L 140.000 176.800 140.000 181.800 L 140.000 186.800 138.400 186.800 L 136.800 186.800 136.800 191.800 L 136.800 196.800 135.000 196.800 L 133.200 196.800 133.200 203.400 L 133.200 210.000 135.000 210.000 L 136.800 210.000 136.800 215.000 L 136.800 220.000 138.400 220.000 L 140.000 220.000 140.000 225.000 L 140.000 230.000 141.600 230.000 L 143.200 230.000 143.200 233.400 L 143.200 236.800 145.000 236.800 L 146.800 236.800 146.800 240.000 L 146.800 243.200 148.400 243.200 L 150.000 243.200 150.000 246.600 L 150.000 250.000 151.600 250.000 L 153.200 250.000 153.200 251.600 L 153.200 253.200 155.000 253.200 L 156.800 253.200 156.800 250.000 L 156.800 246.800 155.000 246.800 L 153.200 246.800 153.200 243.400 L 153.200 240.000 156.600 240.000 L 160.000 240.000 160.000 241.600 L 160.000 243.200 165.000 243.200 L 170.000 243.200 170.000 241.600 L 170.000 240.000 165.000 240.000 L 160.000 240.000 160.000 238.400 L 160.000 236.800 156.600 236.800 L 153.200 236.800 153.200 238.400 L 153.200 240.000 151.600 240.000 L 150.000 240.000 150.000 235.000 L 150.000 230.000 148.400 230.000 L 146.800 230.000 146.800 225.000 L 146.800 220.000 148.400 220.000 L 150.000 220.000 150.000 221.600 L 150.000 223.200 151.600 223.200 L 153.200 223.200 153.200 225.000 L 153.200 226.800 158.200 226.800 L 163.200 226.800 163.200 225.000 L 163.200 223.200 166.600 223.200 L 170.000 223.200 170.000 226.600 L 170.000 230.000 171.600 230.000 L 173.200 230.000 173.200 226.600 L 173.200 223.200 171.600 223.200 L 170.000 223.200 170.000 221.600 L 170.000 220.000 166.600 220.000 L 163.200 220.000 163.200 221.600 L 163.200 223.200 158.200 223.200 L 153.200 223.200 153.200 221.600 L 153.200 220.000 151.600 220.000 L 150.000 220.000 150.000 211.600 L 150.000 203.200 151.600 203.200 L 153.200 203.200 153.200 200.000 L 153.200 196.800 155.000 196.800 L 156.800 196.800 156.800 193.400 L 156.800 190.000 158.400 190.000 L 160.000 190.000 160.000 188.400 L 160.000 186.800 163.400 186.800 L 166.800 186.800 166.800 188.400 L 166.800 190.000 168.400 190.000 L 170.000 190.000 170.000 193.400 L 170.000 196.800 171.600 196.800 L 173.200 196.800 173.200 193.400 L 173.200 190.000 171.600 190.000 L 170.000 190.000 170.000 188.400 L 170.000 186.800 168.400 186.800 L 166.800 186.800 166.800 185.000 L 166.800 183.200 165.000 183.200 L 163.200 183.200 163.200 180.000 L 163.200 176.800 158.200 176.800 L 153.200 176.800 153.200 170.000 L 153.200 163.200 150.000 163.200 L 146.800 163.200 146.800 166.600 M170.000 175.000 L 170.000 176.800 171.600 176.800 L 173.200 176.800 173.200 175.000 L 173.200 173.200 171.600 173.200 L 170.000 173.200 170.000 175.000 M153.200 181.800 L 153.200 186.800 151.600 186.800 L 150.000 186.800 150.000 195.000 L 150.000 203.200 148.400 203.200 L 146.800 203.200 146.800 195.000 L 146.800 186.800 148.400 186.800 L 150.000 186.800 150.000 181.800 L 150.000 176.800 151.600 176.800 L 153.200 176.800 153.200 181.800 M213.200 191.600 L 213.200 193.200 211.600 193.200 L 210.000 193.200 210.000 195.000 L 210.000 196.800 208.400 196.800 L 206.800 196.800 206.800 198.400 L 206.800 200.000 205.000 200.000 L 203.200 200.000 203.200 201.600 L 203.200 203.200 205.000 203.200 L 206.800 203.200 206.800 205.000 L 206.800 206.800 208.400 206.800 L 210.000 206.800 210.000 208.400 L 210.000 210.000 211.600 210.000 L 213.200 210.000 213.200 211.600 L 213.200 213.200 215.000 213.200 L 216.800 213.200 216.800 211.600 L 216.800 210.000 218.400 210.000 L 220.000 210.000 220.000 208.400 L 220.000 206.800 221.600 206.800 L 223.200 206.800 223.200 205.000 L 223.200 203.200 225.000 203.200 L 226.800 203.200 226.800 201.600 L 226.800 200.000 225.000 200.000 L 223.200 200.000 223.200 198.400 L 223.200 196.800 221.600 196.800 L 220.000 196.800 220.000 195.000 L 220.000 193.200 218.400 193.200 L 216.800 193.200 216.800 191.600 L 216.800 190.000 215.000 190.000 L 213.200 190.000 213.200 191.600 M183.200 198.400 L 183.200 200.000 185.000 200.000 L 186.800 200.000 186.800 201.600 L 186.800 203.200 188.400 203.200 L 190.000 203.200 190.000 206.600 L 190.000 210.000 191.600 210.000 L 193.200 210.000 193.200 208.400 L 193.200 206.800 195.000 206.800 L 196.800 206.800 196.800 205.000 L 196.800 203.200 193.400 203.200 L 190.000 203.200 190.000 201.600 L 190.000 200.000 188.400 200.000 L 186.800 200.000 186.800 198.400 L 186.800 196.800 185.000 196.800 L 183.200 196.800 183.200 198.400 M173.200 218.400 L 173.200 220.000 175.000 220.000 L 176.800 220.000 176.800 221.600 L 176.800 223.200 181.800 223.200 L 186.800 223.200 186.800 225.000 L 186.800 226.800 191.800 226.800 L 196.800 226.800 196.800 228.400 L 196.800 230.000 205.000 230.000 L 213.200 230.000 213.200 228.400 L 213.200 226.800 216.600 226.800 L 220.000 226.800 220.000 225.000 L 220.000 223.200 221.600 223.200 L 223.200 223.200 223.200 221.600 L 223.200 220.000 221.600 220.000 L 220.000 220.000 220.000 221.600 L 220.000 223.200 216.600 223.200 L 213.200 223.200 213.200 225.000 L 213.200 226.800 205.000 226.800 L 196.800 226.800 196.800 225.000 L 196.800 223.200 191.800 223.200 L 186.800 223.200 186.800 221.600 L 186.800 220.000 181.800 220.000 L 176.800 220.000 176.800 218.400 L 176.800 216.800 175.000 216.800 L 173.200 216.800 173.200 218.400 M173.200 238.400 L 173.200 240.000 175.000 240.000 L 176.800 240.000 176.800 238.400 L 176.800 236.800 175.000 236.800 L 173.200 236.800 173.200 238.400 M176.800 245.000 L 176.800 246.800 178.400 246.800 L 180.000 246.800 180.000 245.000 L 180.000 243.200 178.400 243.200 L 176.800 243.200 176.800 245.000 M160.000 251.600 L 160.000 253.200 161.600 253.200 L 163.200 253.200 163.200 255.000 L 163.200 256.800 165.000 256.800 L 166.800 256.800 166.800 258.400 L 166.800 260.000 168.400 260.000 L 170.000 260.000 170.000 261.600 L 170.000 263.200 171.600 263.200 L 173.200 263.200 173.200 261.600 L 173.200 260.000 175.000 260.000 L 176.800 260.000 176.800 258.400 L 176.800 256.800 178.400 256.800 L 180.000 256.800 180.000 255.000 L 180.000 253.200 183.400 253.200 L 186.800 253.200 186.800 255.000 L 186.800 256.800 191.800 256.800 L 196.800 256.800 196.800 258.400 L 196.800 260.000 201.800 260.000 L 206.800 260.000 206.800 261.600 L 206.800 263.200 213.400 263.200 L 220.000 263.200 220.000 265.000 L 220.000 266.800 225.000 266.800 L 230.000 266.800 230.000 265.000 L 230.000 263.200 233.400 263.200 L 236.800 263.200 236.800 261.600 L 236.800 260.000 233.400 260.000 L 230.000 260.000 230.000 261.600 L 230.000 263.200 225.000 263.200 L 220.000 263.200 220.000 261.600 L 220.000 260.000 213.400 260.000 L 206.800 260.000 206.800 258.400 L 206.800 256.800 201.800 256.800 L 196.800 256.800 196.800 255.000 L 196.800 253.200 191.800 253.200 L 186.800 253.200 186.800 251.600 L 186.800 250.000 183.400 250.000 L 180.000 250.000 180.000 251.600 L 180.000 253.200 178.400 253.200 L 176.800 253.200 176.800 251.600 L 176.800 250.000 175.000 250.000 L 173.200 250.000 173.200 251.600 L 173.200 253.200 170.000 253.200 L 166.800 253.200 166.800 251.600 L 166.800 250.000 163.400 250.000 L 160.000 250.000 160.000 251.600 M176.800 255.000 L 176.800 256.800 175.000 256.800 L 173.200 256.800 173.200 258.400 L 173.200 260.000 171.600 260.000 L 170.000 260.000 170.000 258.400 L 170.000 256.800 171.600 256.800 L 173.200 256.800 173.200 255.000 L 173.200 253.200 175.000 253.200 L 176.800 253.200 176.800 255.000 M190.000 265.000 L 190.000 266.800 188.400 266.800 L 186.800 266.800 186.800 270.000 L 186.800 273.200 183.400 273.200 L 180.000 273.200 180.000 276.600 L 180.000 280.000 181.600 280.000 L 183.200 280.000 183.200 283.400 L 183.200 286.800 185.000 286.800 L 186.800 286.800 186.800 285.000 L 186.800 283.200 190.000 283.200 L 193.200 283.200 193.200 285.000 L 193.200 286.800 191.600 286.800 L 190.000 286.800 190.000 301.800 L 190.000 316.800 188.400 316.800 L 186.800 316.800 186.800 323.400 L 186.800 330.000 185.000 330.000 L 183.200 330.000 183.200 335.000 L 183.200 340.000 181.600 340.000 L 180.000 340.000 180.000 343.400 L 180.000 346.800 183.400 346.800 L 186.800 346.800 186.800 345.000 L 186.800 343.200 185.000 343.200 L 183.200 343.200 183.200 341.600 L 183.200 340.000 185.000 340.000 L 186.800 340.000 186.800 335.000 L 186.800 330.000 188.400 330.000 L 190.000 330.000 190.000 323.400 L 190.000 316.800 191.600 316.800 L 193.200 316.800 193.200 313.400 L 193.200 310.000 195.000 310.000 L 196.800 310.000 196.800 306.600 L 196.800 303.200 198.400 303.200 L 200.000 303.200 200.000 301.600 L 200.000 300.000 201.600 300.000 L 203.200 300.000 203.200 296.600 L 203.200 293.200 205.000 293.200 L 206.800 293.200 206.800 295.000 L 206.800 296.800 208.400 296.800 L 210.000 296.800 210.000 300.000 L 210.000 303.200 208.400 303.200 L 206.800 303.200 206.800 305.000 L 206.800 306.800 208.400 306.800 L 210.000 306.800 210.000 308.400 L 210.000 310.000 213.400 310.000 L 216.800 310.000 216.800 311.600 L 216.800 313.200 220.000 313.200 L 223.200 313.200 223.200 315.000 L 223.200 316.800 221.600 316.800 L 220.000 316.800 220.000 323.400 L 220.000 330.000 218.400 330.000 L 216.800 330.000 216.800 333.400 L 216.800 336.800 218.400 336.800 L 220.000 336.800 220.000 333.400 L 220.000 330.000 221.600 330.000 L 223.200 330.000 223.200 323.400 L 223.200 316.800 228.200 316.800 L 233.200 316.800 233.200 318.400 L 233.200 320.000 241.600 320.000 L 250.000 320.000 250.000 321.600 L 250.000 323.200 256.600 323.200 L 263.200 323.200 263.200 321.600 L 263.200 320.000 268.200 320.000 L 273.200 320.000 273.200 318.400 L 273.200 316.800 275.000 316.800 L 276.800 316.800 276.800 313.400 L 276.800 310.000 275.000 310.000 L 273.200 310.000 273.200 311.600 L 273.200 313.200 270.000 313.200 L 266.800 313.200 266.800 315.000 L 266.800 316.800 263.400 316.800 L 260.000 316.800 260.000 318.400 L 260.000 320.000 258.400 320.000 L 256.800 320.000 256.800 318.400 L 256.800 316.800 251.800 316.800 L 246.800 316.800 246.800 315.000 L 246.800 313.200 241.800 313.200 L 236.800 313.200 236.800 311.600 L 236.800 310.000 235.000 310.000 L 233.200 310.000 233.200 308.400 L 233.200 306.800 231.600 306.800 L 230.000 306.800 230.000 305.000 L 230.000 303.200 228.400 303.200 L 226.800 303.200 226.800 301.600 L 226.800 300.000 225.000 300.000 L 223.200 300.000 223.200 298.400 L 223.200 296.800 228.200 296.800 L 233.200 296.800 233.200 298.400 L 233.200 300.000 238.200 300.000 L 243.200 300.000 243.200 301.600 L 243.200 303.200 248.200 303.200 L 253.200 303.200 253.200 301.600 L 253.200 300.000 256.600 300.000 L 260.000 300.000 260.000 298.400 L 260.000 296.800 261.600 296.800 L 263.200 296.800 263.200 295.000 L 263.200 293.200 261.600 293.200 L 260.000 293.200 260.000 295.000 L 260.000 296.800 256.600 296.800 L 253.200 296.800 253.200 298.400 L 253.200 300.000 248.200 300.000 L 243.200 300.000 243.200 298.400 L 243.200 296.800 238.200 296.800 L 233.200 296.800 233.200 295.000 L 233.200 293.200 228.200 293.200 L 223.200 293.200 223.200 291.600 L 223.200 290.000 218.200 290.000 L 213.200 290.000 213.200 288.400 L 213.200 286.800 211.600 286.800 L 210.000 286.800 210.000 285.000 L 210.000 283.200 208.400 283.200 L 206.800 283.200 206.800 281.600 L 206.800 280.000 205.000 280.000 L 203.200 280.000 203.200 278.400 L 203.200 276.800 201.600 276.800 L 200.000 276.800 200.000 275.000 L 200.000 273.200 198.400 273.200 L 196.800 273.200 196.800 270.000 L 196.800 266.800 195.000 266.800 L 193.200 266.800 193.200 265.000 L 193.200 263.200 191.600 263.200 L 190.000 263.200 190.000 265.000 M203.200 290.000 L 203.200 293.200 201.600 293.200 L 200.000 293.200 200.000 291.600 L 200.000 290.000 196.600 290.000 L 193.200 290.000 193.200 288.400 L 193.200 286.800 198.200 286.800 L 203.200 286.800 203.200 290.000 M223.200 295.000 L 223.200 296.800 221.600 296.800 L 220.000 296.800 220.000 295.000 L 220.000 293.200 221.600 293.200 L 223.200 293.200 223.200 295.000 M213.200 343.400 L 213.200 346.800 218.200 346.800 L 223.200 346.800 223.200 345.000 L 223.200 343.200 221.600 343.200 L 220.000 343.200 220.000 341.600 L 220.000 340.000 216.600 340.000 L 213.200 340.000 213.200 343.400 " stroke="none" fill="#9cbcb4" fill-rule="evenodd"></path><path id="path4" d="M183.200 108.400 L 183.200 110.000 181.600 110.000 L 180.000 110.000 180.000 113.400 L 180.000 116.800 178.400 116.800 L 176.800 116.800 176.800 120.000 L 176.800 123.200 175.000 123.200 L 173.200 123.200 173.200 126.600 L 173.200 130.000 175.000 130.000 L 176.800 130.000 176.800 126.600 L 176.800 123.200 178.400 123.200 L 180.000 123.200 180.000 120.000 L 180.000 116.800 181.600 116.800 L 183.200 116.800 183.200 113.400 L 183.200 110.000 185.000 110.000 L 186.800 110.000 186.800 108.400 L 186.800 106.800 185.000 106.800 L 183.200 106.800 183.200 108.400 M200.000 128.400 L 200.000 130.000 201.600 130.000 L 203.200 130.000 203.200 133.400 L 203.200 136.800 205.000 136.800 L 206.800 136.800 206.800 133.400 L 206.800 130.000 205.000 130.000 L 203.200 130.000 203.200 128.400 L 203.200 126.800 201.600 126.800 L 200.000 126.800 200.000 128.400 " stroke="none" fill="#94541c" fill-rule="evenodd"></path></g></svg>