<svg id="svg" version="1.1" xmlns="http://www.w3.org/2000/svg" xmlns:xlink="http://www.w3.org/1999/xlink" width="400" height="400" viewBox="0, 0, 400,400"><g id="svgg"><path id="path0" d="M186.800 95.000 L 186.800 96.800 181.800 96.800 L 176.800 96.800 176.800 98.400 L 176.800 100.000 175.000 100.000 L 173.200 100.000 173.200 101.600 L 173.200 103.200 171.600 103.200 L 170.000 103.200 170.000 106.600 L 170.000 110.000 171.600 110.000 L 173.200 110.000 173.200 111.600 L 173.200 113.200 169.700 113.254 C 167.775 113.284,165.525 113.318,164.700 113.330 C 163.202 113.352,163.200 113.354,163.200 115.076 L 163.200 116.800 170.000 116.800 L 176.800 116.800 176.800 113.400 L 176.800 110.000 178.400 110.000 L 180.000 110.000 180.000 113.400 L 180.000 116.800 181.600 116.800 L 183.200 116.800 183.200 115.000 L 183.200 113.200 185.000 113.200 L 186.800 113.200 186.800 115.000 L 186.800 116.800 190.000 116.800 C 192.270 116.800,193.213 116.945,193.243 117.300 C 193.267 117.575,193.291 118.295,193.297 118.900 L 193.308 120.000 196.635 120.000 C 199.830 120.000,199.961 119.964,199.925 119.100 C 199.822 116.659,199.412 116.800,206.600 116.800 L 213.200 116.800 213.200 118.400 L 213.200 120.000 215.018 120.000 C 216.240 120.000,216.814 119.836,216.770 119.500 C 216.481 117.272,216.766 116.800,218.400 116.800 L 220.000 116.800 220.000 115.000 L 220.000 113.200 221.600 113.200 L 223.200 113.200 223.200 111.600 L 223.200 110.000 220.000 110.000 L 216.800 110.000 216.800 113.400 L 216.800 116.800 215.000 116.800 L 213.200 116.800 213.200 113.400 L 213.200 110.000 210.000 110.000 L 206.800 110.000 206.800 108.400 L 206.800 106.800 208.400 106.800 L 210.000 106.800 210.000 105.000 L 210.000 103.200 208.400 103.200 L 206.800 103.200 206.800 101.600 L 206.800 100.000 205.000 100.000 L 203.200 100.000 203.200 98.400 L 203.200 96.800 200.000 96.800 L 196.800 96.800 196.800 95.000 L 196.800 93.200 191.800 93.200 L 186.800 93.200 186.800 95.000 M146.800 108.400 L 146.800 110.000 148.400 110.000 L 150.000 110.000 150.000 113.400 L 150.000 116.800 153.400 116.800 L 156.800 116.800 156.800 115.000 L 156.800 113.200 155.000 113.200 L 153.200 113.200 153.200 111.600 L 153.200 110.000 151.600 110.000 L 150.000 110.000 150.000 108.400 L 150.000 106.800 148.400 106.800 L 146.800 106.800 146.800 108.400 M176.800 108.400 L 176.800 110.000 175.000 110.000 L 173.200 110.000 173.200 108.400 L 173.200 106.800 175.000 106.800 L 176.800 106.800 176.800 108.400 M193.200 111.600 L 193.200 113.200 196.600 113.200 L 200.000 113.200 200.000 111.600 L 200.000 110.000 203.400 110.000 L 206.800 110.000 206.800 111.600 L 206.800 113.200 203.400 113.200 L 200.000 113.200 200.000 115.000 L 200.000 116.800 196.600 116.800 L 193.200 116.800 193.200 115.000 L 193.200 113.200 190.000 113.200 L 186.800 113.200 186.800 111.600 L 186.800 110.000 190.000 110.000 L 193.200 110.000 193.200 111.600 M166.800 121.600 L 166.800 123.200 165.000 123.200 L 163.200 123.200 163.200 125.000 L 163.200 126.800 161.600 126.800 L 160.000 126.800 160.000 131.800 L 160.000 136.800 158.400 136.800 L 156.800 136.800 156.800 141.800 L 156.800 146.800 155.000 146.800 L 153.200 146.800 153.200 153.400 L 153.200 160.000 151.600 160.000 L 150.000 160.000 150.000 166.600 L 150.000 173.200 151.600 173.200 L 153.200 173.200 153.200 178.200 L 153.200 183.200 155.000 183.200 L 156.800 183.200 156.800 180.000 L 156.800 176.800 158.400 176.800 L 160.000 176.800 160.000 171.800 L 160.000 166.800 161.600 166.800 L 163.200 166.800 163.200 158.400 L 163.200 150.000 166.600 150.000 L 170.000 150.000 170.000 148.400 L 170.000 146.800 166.600 146.800 L 163.200 146.800 163.200 145.000 L 163.200 143.200 166.600 143.200 L 170.000 143.200 170.000 140.000 L 170.000 136.800 171.600 136.800 L 173.200 136.800 173.200 131.800 L 173.200 126.800 175.000 126.800 L 176.800 126.800 176.800 125.000 L 176.800 123.200 173.400 123.200 L 170.000 123.200 170.000 121.600 L 170.000 120.000 168.400 120.000 L 166.800 120.000 166.800 121.600 M206.800 121.600 L 206.800 123.200 203.400 123.200 L 200.000 123.200 200.000 125.000 L 200.000 126.800 196.600 126.800 L 193.200 126.800 193.200 125.000 L 193.200 123.200 188.200 123.200 L 183.200 123.200 183.200 125.000 L 183.200 126.800 186.600 126.800 L 190.000 126.800 190.000 128.400 L 190.000 130.000 195.000 130.000 L 200.000 130.000 200.000 128.400 L 200.000 126.800 203.400 126.800 L 206.800 126.800 206.800 125.000 L 206.800 123.200 208.400 123.200 L 210.000 123.200 210.000 121.600 L 210.000 120.000 208.400 120.000 L 206.800 120.000 206.800 121.600 M203.200 133.400 L 203.200 136.800 205.000 136.800 L 206.800 136.800 206.800 133.400 L 206.800 130.000 205.000 130.000 L 203.200 130.000 203.200 133.400 M223.200 156.600 L 223.200 163.200 225.000 163.200 L 226.800 163.200 226.800 156.600 L 226.800 150.000 225.000 150.000 L 223.200 150.000 223.200 156.600 M170.000 155.000 L 170.000 156.800 171.600 156.800 L 173.200 156.800 173.200 158.400 L 173.200 160.000 175.000 160.000 L 176.800 160.000 176.800 161.600 L 176.800 163.200 178.400 163.200 L 180.000 163.200 180.000 168.200 L 180.000 173.200 181.600 173.200 L 183.200 173.200 183.200 178.200 L 183.200 183.200 185.000 183.200 L 186.800 183.200 186.800 188.200 L 186.800 193.200 188.400 193.200 L 190.000 193.200 190.000 195.000 L 190.000 196.800 191.600 196.800 L 193.200 196.800 193.200 198.400 L 193.200 200.000 198.200 200.000 L 203.200 200.000 203.200 198.400 L 203.200 196.800 205.000 196.800 L 206.800 196.800 206.800 190.000 L 206.800 183.200 208.400 183.200 L 210.000 183.200 210.000 176.600 L 210.000 170.000 211.600 170.000 L 213.200 170.000 213.200 165.000 L 213.200 160.000 210.000 160.000 L 206.800 160.000 206.800 158.400 L 206.800 156.800 205.000 156.800 L 203.200 156.800 203.200 158.400 L 203.200 160.000 205.000 160.000 L 206.800 160.000 206.800 163.400 L 206.800 166.800 205.000 166.800 L 203.200 166.800 203.200 168.400 L 203.200 170.000 201.600 170.000 L 200.000 170.000 200.000 171.600 L 200.000 173.200 196.600 173.200 L 193.200 173.200 193.200 171.600 L 193.200 170.000 191.600 170.000 L 190.000 170.000 190.000 168.400 L 190.000 166.800 188.400 166.800 L 186.800 166.800 186.800 165.000 L 186.800 163.200 185.000 163.200 L 183.200 163.200 183.200 161.600 L 183.200 160.000 185.000 160.000 L 186.800 160.000 186.800 158.400 L 186.800 156.800 185.000 156.800 L 183.200 156.800 183.200 158.400 L 183.200 160.000 180.000 160.000 L 176.800 160.000 176.800 158.400 L 176.800 156.800 175.000 156.800 L 173.200 156.800 173.200 155.000 L 173.200 153.200 171.600 153.200 L 170.000 153.200 170.000 155.000 M220.000 170.000 L 220.000 173.200 221.600 173.200 L 223.200 173.200 223.200 170.000 L 223.200 166.800 221.600 166.800 L 220.000 166.800 220.000 170.000 M166.800 171.600 L 166.800 173.200 168.400 173.200 L 170.000 173.200 170.000 171.600 L 170.000 170.000 168.400 170.000 L 166.800 170.000 166.800 171.600 M163.200 181.600 L 163.200 183.200 165.000 183.200 L 166.800 183.200 166.800 185.000 L 166.800 186.800 168.400 186.800 L 170.000 186.800 170.000 188.400 L 170.000 190.000 171.600 190.000 L 173.200 190.000 173.200 188.400 L 173.200 186.800 175.000 186.800 L 176.800 186.800 176.800 185.000 L 176.800 183.200 175.000 183.200 L 173.200 183.200 173.200 181.600 L 173.200 180.000 168.200 180.000 L 163.200 180.000 163.200 181.600 M173.200 195.000 L 173.200 196.800 175.000 196.800 L 176.800 196.800 176.800 198.400 L 176.800 200.000 178.400 200.000 L 180.000 200.000 180.000 201.600 L 180.000 203.200 181.600 203.200 L 183.200 203.200 183.200 201.600 L 183.200 200.000 181.600 200.000 L 180.000 200.000 180.000 198.400 L 180.000 196.800 178.400 196.800 L 176.800 196.800 176.800 195.000 L 176.800 193.200 175.000 193.200 L 173.200 193.200 173.200 195.000 M233.200 201.800 L 233.200 206.800 235.000 206.800 L 236.800 206.800 236.800 210.000 L 236.800 213.200 240.000 213.200 L 243.200 213.200 243.200 215.000 L 243.200 216.800 248.200 216.800 L 253.200 216.800 253.200 215.000 L 253.200 213.200 256.600 213.200 L 260.000 213.200 260.000 210.000 L 260.000 206.800 261.600 206.800 L 263.200 206.800 263.200 201.800 L 263.200 196.800 248.200 196.800 L 233.200 196.800 233.200 201.800 M183.200 208.400 L 183.200 210.000 185.000 210.000 L 186.800 210.000 186.800 211.600 L 186.800 213.200 188.400 213.200 L 190.000 213.200 190.000 215.000 L 190.000 216.800 188.400 216.800 L 186.800 216.800 186.800 218.400 L 186.800 220.000 188.400 220.000 L 190.000 220.000 190.000 221.600 L 190.000 223.200 191.600 223.200 L 193.200 223.200 193.200 225.000 L 193.200 226.800 195.000 226.800 L 196.800 226.800 196.800 228.400 L 196.800 230.000 198.400 230.000 L 200.000 230.000 200.000 231.600 L 200.000 233.200 203.400 233.200 L 206.800 233.200 206.800 235.000 L 206.800 236.800 210.000 236.800 L 213.200 236.800 213.200 238.400 L 213.200 240.000 216.600 240.000 L 220.000 240.000 220.000 241.600 L 220.000 243.200 225.000 243.200 L 230.000 243.200 230.000 241.600 L 230.000 240.000 225.000 240.000 L 220.000 240.000 220.000 238.400 L 220.000 236.800 216.600 236.800 L 213.200 236.800 213.200 235.000 L 213.200 233.200 210.000 233.200 L 206.800 233.200 206.800 231.600 L 206.800 230.000 203.400 230.000 L 200.000 230.000 200.000 228.400 L 200.000 226.800 198.400 226.800 L 196.800 226.800 196.800 225.000 L 196.800 223.200 195.000 223.200 L 193.200 223.200 193.200 221.600 L 193.200 220.000 191.600 220.000 L 190.000 220.000 190.000 218.400 L 190.000 216.800 193.400 216.800 L 196.800 216.800 196.800 218.400 L 196.800 220.000 198.400 220.000 L 200.000 220.000 200.000 221.600 L 200.000 223.200 203.400 223.200 L 206.800 223.200 206.800 225.000 L 206.800 226.800 211.800 226.800 L 216.800 226.800 216.800 228.400 L 216.800 230.000 220.000 230.000 L 223.200 230.000 223.200 228.400 L 223.200 226.800 220.000 226.800 L 216.800 226.800 216.800 225.000 L 216.800 223.200 211.800 223.200 L 206.800 223.200 206.800 221.600 L 206.800 220.000 203.400 220.000 L 200.000 220.000 200.000 218.400 L 200.000 216.800 198.400 216.800 L 196.800 216.800 196.800 215.000 L 196.800 213.200 195.000 213.200 L 193.200 213.200 193.200 211.600 L 193.200 210.000 196.600 210.000 L 200.000 210.000 200.000 208.400 L 200.000 206.800 196.600 206.800 L 193.200 206.800 193.200 208.400 L 193.200 210.000 191.600 210.000 L 190.000 210.000 190.000 208.400 L 190.000 206.800 186.600 206.800 L 183.200 206.800 183.200 208.400 " stroke="none" fill="#843919" fill-rule="evenodd"></path><path id="path1" d="M186.800 55.000 L 186.800 56.800 185.000 56.800 L 183.200 56.800 183.200 61.800 L 183.200 66.800 185.000 66.800 L 186.800 66.800 186.800 68.400 L 186.800 70.000 188.400 70.000 L 190.000 70.000 190.000 76.600 L 190.000 83.200 191.600 83.200 L 193.200 83.200 193.200 76.600 L 193.200 70.000 195.000 70.000 L 196.800 70.000 196.800 61.600 L 196.800 53.200 191.800 53.200 L 186.800 53.200 186.800 55.000 M206.800 125.000 L 206.800 126.800 205.000 126.800 L 203.200 126.800 203.200 128.400 L 203.200 130.000 196.600 130.000 L 190.000 130.000 190.000 128.400 L 190.000 126.800 185.000 126.800 L 180.000 126.800 180.000 128.400 L 180.000 130.000 178.400 130.000 L 176.800 130.000 176.800 133.400 L 176.800 136.800 175.000 136.800 L 173.200 136.800 173.200 138.400 L 173.200 140.000 183.200 140.000 L 193.200 140.000 193.200 141.600 L 193.200 143.200 191.600 143.200 L 190.000 143.200 190.000 148.200 L 190.000 153.200 196.600 153.200 L 203.200 153.200 203.200 151.600 L 203.200 150.000 201.600 150.000 L 200.000 150.000 200.000 148.400 L 200.000 146.800 198.400 146.800 L 196.800 146.800 196.800 143.400 L 196.800 140.000 206.800 140.000 L 216.800 140.000 216.800 138.400 L 216.800 136.800 215.000 136.800 L 213.200 136.800 213.200 131.800 L 213.200 126.800 211.600 126.800 L 210.000 126.800 210.000 125.000 L 210.000 123.200 208.400 123.200 L 206.800 123.200 206.800 125.000 M206.800 133.400 L 206.800 136.800 205.000 136.800 L 203.200 136.800 203.200 133.400 L 203.200 130.000 205.000 130.000 L 206.800 130.000 206.800 133.400 M170.000 145.000 L 170.000 146.800 171.600 146.800 L 173.200 146.800 173.200 150.000 L 173.200 153.200 175.000 153.200 L 176.800 153.200 176.800 155.000 L 176.800 156.800 180.000 156.800 L 183.200 156.800 183.200 155.200 L 183.200 153.600 181.600 153.600 L 180.000 153.600 180.000 151.800 L 180.000 150.000 178.400 150.000 L 176.800 150.000 176.800 148.400 L 176.800 146.800 175.000 146.800 L 173.200 146.800 173.200 145.000 L 173.200 143.200 171.600 143.200 L 170.000 143.200 170.000 145.000 M213.200 148.200 L 213.200 153.200 215.000 153.200 L 216.800 153.200 216.800 148.200 L 216.800 143.200 215.000 143.200 L 213.200 143.200 213.200 148.200 M206.800 155.200 L 206.800 156.800 210.000 156.800 L 213.200 156.800 213.200 155.200 L 213.200 153.600 210.000 153.600 L 206.800 153.600 206.800 155.200 M170.000 170.000 L 170.000 173.200 168.400 173.200 L 166.800 173.200 166.800 175.000 L 166.800 176.800 170.000 176.800 L 173.200 176.800 173.200 171.800 L 173.200 166.800 171.600 166.800 L 170.000 166.800 170.000 170.000 M173.200 188.400 L 173.200 190.000 175.000 190.000 L 176.800 190.000 176.800 188.400 L 176.800 186.800 175.000 186.800 L 173.200 186.800 173.200 188.400 M176.800 201.600 L 176.800 203.200 178.400 203.200 L 180.000 203.200 180.000 205.000 L 180.000 206.800 181.600 206.800 L 183.200 206.800 183.200 205.000 L 183.200 203.200 181.600 203.200 L 180.000 203.200 180.000 201.600 L 180.000 200.000 178.400 200.000 L 176.800 200.000 176.800 201.600 M183.200 211.600 L 183.200 213.200 185.000 213.200 L 186.800 213.200 186.800 211.600 L 186.800 210.000 185.000 210.000 L 183.200 210.000 183.200 211.600 M196.800 211.600 L 196.800 213.200 198.400 213.200 L 200.000 213.200 200.000 215.000 L 200.000 216.800 203.400 216.800 L 206.800 216.800 206.800 218.400 L 206.800 220.000 208.400 220.000 L 210.000 220.000 210.000 218.400 L 210.000 216.800 208.400 216.800 L 206.800 216.800 206.800 215.000 L 206.800 213.200 205.000 213.200 L 203.200 213.200 203.200 211.600 L 203.200 210.000 200.000 210.000 L 196.800 210.000 196.800 211.600 M193.200 218.400 L 193.200 220.000 195.000 220.000 L 196.800 220.000 196.800 221.600 L 196.800 223.200 198.400 223.200 L 200.000 223.200 200.000 225.000 L 200.000 226.800 203.400 226.800 L 206.800 226.800 206.800 228.400 L 206.800 230.000 210.000 230.000 L 213.200 230.000 213.200 231.600 L 213.200 233.200 216.600 233.200 L 220.000 233.200 220.000 235.000 L 220.000 236.800 223.400 236.800 L 226.800 236.800 226.800 235.000 L 226.800 233.200 225.000 233.200 L 223.200 233.200 223.200 231.600 L 223.200 230.000 220.000 230.000 L 216.800 230.000 216.800 228.400 L 216.800 226.800 211.800 226.800 L 206.800 226.800 206.800 225.000 L 206.800 223.200 203.400 223.200 L 200.000 223.200 200.000 221.600 L 200.000 220.000 198.400 220.000 L 196.800 220.000 196.800 218.400 L 196.800 216.800 195.000 216.800 L 193.200 216.800 193.200 218.400 M190.000 225.000 L 190.000 226.800 191.600 226.800 L 193.200 226.800 193.200 228.400 L 193.200 230.000 195.000 230.000 L 196.800 230.000 196.800 231.600 L 196.800 233.200 198.400 233.200 L 200.000 233.200 200.000 235.000 L 200.000 236.800 201.600 236.800 L 203.200 236.800 203.200 238.400 L 203.200 240.000 205.000 240.000 L 206.800 240.000 206.800 241.600 L 206.800 243.200 208.400 243.200 L 210.000 243.200 210.000 245.000 L 210.000 246.800 213.400 246.800 L 216.800 246.800 216.800 248.400 L 216.800 250.000 220.000 250.000 L 223.200 250.000 223.200 251.600 L 223.200 253.200 228.200 253.200 L 233.200 253.200 233.200 255.000 L 233.200 256.800 236.600 256.800 L 240.000 256.800 240.000 255.000 L 240.000 253.200 238.400 253.200 L 236.800 253.200 236.800 251.600 L 236.800 250.000 235.000 250.000 L 233.200 250.000 233.200 248.400 L 233.200 246.800 231.600 246.800 L 230.000 246.800 230.000 245.000 L 230.000 243.200 225.000 243.200 L 220.000 243.200 220.000 241.600 L 220.000 240.000 216.600 240.000 L 213.200 240.000 213.200 238.400 L 213.200 236.800 210.000 236.800 L 206.800 236.800 206.800 235.000 L 206.800 233.200 203.400 233.200 L 200.000 233.200 200.000 231.600 L 200.000 230.000 198.400 230.000 L 196.800 230.000 196.800 228.400 L 196.800 226.800 195.000 226.800 L 193.200 226.800 193.200 225.000 L 193.200 223.200 191.600 223.200 L 190.000 223.200 190.000 225.000 M223.200 225.000 L 223.200 226.800 225.000 226.800 L 226.800 226.800 226.800 228.400 L 226.800 230.000 230.000 230.000 L 233.200 230.000 233.200 231.600 L 233.200 233.200 236.600 233.200 L 240.000 233.200 240.000 235.000 L 240.000 236.800 241.600 236.800 L 243.200 236.800 243.200 235.000 L 243.200 233.200 245.000 233.200 L 246.800 233.200 246.800 231.600 L 246.800 230.000 243.400 230.000 L 240.000 230.000 240.000 228.400 L 240.000 226.800 235.000 226.800 L 230.000 226.800 230.000 225.000 L 230.000 223.200 226.600 223.200 L 223.200 223.200 223.200 225.000 M253.200 225.000 L 253.200 226.800 251.600 226.800 L 250.000 226.800 250.000 230.000 L 250.000 233.200 255.000 233.200 L 260.000 233.200 260.000 228.200 L 260.000 223.200 256.600 223.200 L 253.200 223.200 253.200 225.000 M176.800 263.400 L 176.800 270.000 180.000 270.000 L 183.200 270.000 183.200 268.400 L 183.200 266.800 185.000 266.800 L 186.800 266.800 186.800 263.400 L 186.800 260.000 185.000 260.000 L 183.200 260.000 183.200 258.400 L 183.200 256.800 180.000 256.800 L 176.800 256.800 176.800 263.400 " stroke="none" fill="#b98718" fill-rule="evenodd"></path><path id="path2" d="M163.200 195.000 L 163.200 203.200 161.600 203.200 L 160.000 203.200 160.000 211.600 L 160.000 220.000 158.400 220.000 L 156.800 220.000 156.800 225.000 L 156.800 230.000 158.400 230.000 L 160.000 230.000 160.000 235.000 L 160.000 240.000 161.600 240.000 L 163.200 240.000 163.200 243.400 L 163.200 246.800 165.000 246.800 L 166.800 246.800 166.800 250.000 L 166.800 253.200 168.400 253.200 L 170.000 253.200 170.000 255.000 L 170.000 256.800 173.400 256.800 L 176.800 256.800 176.800 255.000 L 176.800 253.200 178.400 253.200 L 180.000 253.200 180.000 251.600 L 180.000 250.000 178.400 250.000 L 176.800 250.000 176.800 248.400 L 176.800 246.800 175.000 246.800 L 173.200 246.800 173.200 243.400 L 173.200 240.000 171.600 240.000 L 170.000 240.000 170.000 235.000 L 170.000 230.000 168.400 230.000 L 166.800 230.000 166.800 226.600 L 166.800 223.200 168.400 223.200 L 170.000 223.200 170.000 215.000 L 170.000 206.800 171.600 206.800 L 173.200 206.800 173.200 200.000 L 173.200 193.200 171.600 193.200 L 170.000 193.200 170.000 191.600 L 170.000 190.000 168.400 190.000 L 166.800 190.000 166.800 188.400 L 166.800 186.800 165.000 186.800 L 163.200 186.800 163.200 195.000 M213.200 201.600 L 213.200 203.200 211.600 203.200 L 210.000 203.200 210.000 206.600 L 210.000 210.000 208.400 210.000 L 206.800 210.000 206.800 211.600 L 206.800 213.200 208.400 213.200 L 210.000 213.200 210.000 215.000 L 210.000 216.800 211.600 216.800 L 213.200 216.800 213.200 218.400 L 213.200 220.000 215.000 220.000 L 216.800 220.000 216.800 221.600 L 216.800 223.200 218.400 223.200 L 220.000 223.200 220.000 216.600 L 220.000 210.000 218.400 210.000 L 216.800 210.000 216.800 205.000 L 216.800 200.000 215.000 200.000 L 213.200 200.000 213.200 201.600 M176.800 218.400 L 176.800 220.000 175.000 220.000 L 173.200 220.000 173.200 225.000 L 173.200 230.000 176.600 230.000 L 180.000 230.000 180.000 235.000 L 180.000 240.000 181.600 240.000 L 183.200 240.000 183.200 243.400 L 183.200 246.800 185.000 246.800 L 186.800 246.800 186.800 248.400 L 186.800 250.000 188.400 250.000 L 190.000 250.000 190.000 251.600 L 190.000 253.200 191.600 253.200 L 193.200 253.200 193.200 263.200 L 193.200 273.200 191.600 273.200 L 190.000 273.200 190.000 275.000 L 190.000 276.800 188.400 276.800 L 186.800 276.800 186.800 278.400 L 186.800 280.000 185.000 280.000 L 183.200 280.000 183.200 285.000 L 183.200 290.000 181.600 290.000 L 180.000 290.000 180.000 296.600 L 180.000 303.200 178.400 303.200 L 176.800 303.200 176.800 311.600 L 176.800 320.000 175.000 320.000 L 173.200 320.000 173.200 326.600 L 173.200 333.200 175.000 333.200 L 176.800 333.200 176.800 336.600 L 176.800 340.000 181.800 340.000 L 186.800 340.000 186.800 338.400 L 186.800 336.800 188.400 336.800 L 190.000 336.800 190.000 335.000 L 190.000 333.200 191.600 333.200 L 193.200 333.200 193.200 331.600 L 193.200 330.000 196.600 330.000 L 200.000 330.000 200.000 331.600 L 200.000 333.200 201.600 333.200 L 203.200 333.200 203.200 335.000 L 203.200 336.800 205.000 336.800 L 206.800 336.800 206.800 338.400 L 206.800 340.000 208.400 340.000 L 210.000 340.000 210.000 341.600 L 210.000 343.200 211.600 343.200 L 213.200 343.200 213.200 345.000 L 213.200 346.800 216.600 346.800 L 220.000 346.800 220.000 345.000 L 220.000 343.200 218.400 343.200 L 216.800 343.200 216.800 340.000 L 216.800 336.800 215.000 336.800 L 213.200 336.800 213.200 328.400 L 213.200 320.000 215.000 320.000 L 216.800 320.000 216.800 316.600 L 216.800 313.200 218.400 313.200 L 220.000 313.200 220.000 310.000 L 220.000 306.800 221.600 306.800 L 223.200 306.800 223.200 303.400 L 223.200 300.000 225.000 300.000 L 226.800 300.000 226.800 296.600 L 226.800 293.200 228.400 293.200 L 230.000 293.200 230.000 295.000 L 230.000 296.800 231.600 296.800 L 233.200 296.800 233.200 303.400 L 233.200 310.000 231.600 310.000 L 230.000 310.000 230.000 315.000 L 230.000 320.000 228.400 320.000 L 226.800 320.000 226.800 321.600 L 226.800 323.200 228.400 323.200 L 230.000 323.200 230.000 326.600 L 230.000 330.000 231.600 330.000 L 233.200 330.000 233.200 331.600 L 233.200 333.200 235.000 333.200 L 236.800 333.200 236.800 336.600 L 236.800 340.000 238.400 340.000 L 240.000 340.000 240.000 341.600 L 240.000 343.200 241.600 343.200 L 243.200 343.200 243.200 345.000 L 243.200 346.800 245.000 346.800 L 246.800 346.800 246.800 341.800 L 246.800 336.800 248.400 336.800 L 250.000 336.800 250.000 333.400 L 250.000 330.000 253.400 330.000 L 256.800 330.000 256.800 328.400 L 256.800 326.800 258.400 326.800 L 260.000 326.800 260.000 323.400 L 260.000 320.000 256.600 320.000 L 253.200 320.000 253.200 316.600 L 253.200 313.200 255.000 313.200 L 256.800 313.200 256.800 315.000 L 256.800 316.800 260.000 316.800 L 263.200 316.800 263.200 318.400 L 263.200 320.000 268.200 320.000 L 273.200 320.000 273.200 318.400 L 273.200 316.800 275.000 316.800 L 276.800 316.800 276.800 311.800 L 276.800 306.800 275.000 306.800 L 273.200 306.800 273.200 303.400 L 273.200 300.000 271.600 300.000 L 270.000 300.000 270.000 296.600 L 270.000 293.200 268.400 293.200 L 266.800 293.200 266.800 290.000 L 266.800 286.800 265.000 286.800 L 263.200 286.800 263.200 283.400 L 263.200 280.000 261.600 280.000 L 260.000 280.000 260.000 278.400 L 260.000 276.800 258.400 276.800 L 256.800 276.800 256.800 275.000 L 256.800 273.200 255.000 273.200 L 253.200 273.200 253.200 270.000 L 253.200 266.800 251.600 266.800 L 250.000 266.800 250.000 265.000 L 250.000 263.200 245.000 263.200 L 240.000 263.200 240.000 265.000 L 240.000 266.800 236.600 266.800 L 233.200 266.800 233.200 265.000 L 233.200 263.200 228.200 263.200 L 223.200 263.200 223.200 261.600 L 223.200 260.000 220.000 260.000 L 216.800 260.000 216.800 258.400 L 216.800 256.800 213.400 256.800 L 210.000 256.800 210.000 255.000 L 210.000 253.200 208.400 253.200 L 206.800 253.200 206.800 251.600 L 206.800 250.000 205.000 250.000 L 203.200 250.000 203.200 248.400 L 203.200 246.800 201.600 246.800 L 200.000 246.800 200.000 245.000 L 200.000 243.200 198.400 243.200 L 196.800 243.200 196.800 241.600 L 196.800 240.000 195.000 240.000 L 193.200 240.000 193.200 238.400 L 193.200 236.800 191.600 236.800 L 190.000 236.800 190.000 235.000 L 190.000 233.200 188.400 233.200 L 186.800 233.200 186.800 231.600 L 186.800 230.000 185.000 230.000 L 183.200 230.000 183.200 226.600 L 183.200 223.200 181.600 223.200 L 180.000 223.200 180.000 220.000 L 180.000 216.800 178.400 216.800 L 176.800 216.800 176.800 218.400 M220.000 288.400 L 220.000 290.000 221.600 290.000 L 223.200 290.000 223.200 291.600 L 223.200 293.200 221.600 293.200 L 220.000 293.200 220.000 291.600 L 220.000 290.000 216.600 290.000 L 213.200 290.000 213.200 288.400 L 213.200 286.800 216.600 286.800 L 220.000 286.800 220.000 288.400 M250.000 308.400 L 250.000 310.000 251.600 310.000 L 253.200 310.000 253.200 311.600 L 253.200 313.200 251.600 313.200 L 250.000 313.200 250.000 311.600 L 250.000 310.000 248.400 310.000 L 246.800 310.000 246.800 308.400 L 246.800 306.800 248.400 306.800 L 250.000 306.800 250.000 308.400 " stroke="none" fill="#fcecd4" fill-rule="evenodd"></path><path id="path3" d="M160.000 186.600 L 160.000 190.000 158.400 190.000 L 156.800 190.000 156.800 205.000 L 156.800 220.000 155.000 220.000 L 153.200 220.000 153.200 225.000 L 153.200 230.000 155.000 230.000 L 156.800 230.000 156.800 235.000 L 156.800 240.000 158.400 240.000 L 160.000 240.000 160.000 243.400 L 160.000 246.800 161.600 246.800 L 163.200 246.800 163.200 250.000 L 163.200 253.200 165.000 253.200 L 166.800 253.200 166.800 255.000 L 166.800 256.800 168.400 256.800 L 170.000 256.800 170.000 258.400 L 170.000 260.000 171.600 260.000 L 173.200 260.000 173.200 258.400 L 173.200 256.800 171.600 256.800 L 170.000 256.800 170.000 255.000 L 170.000 253.200 168.400 253.200 L 166.800 253.200 166.800 250.000 L 166.800 246.800 165.000 246.800 L 163.200 246.800 163.200 243.400 L 163.200 240.000 161.600 240.000 L 160.000 240.000 160.000 235.000 L 160.000 230.000 158.400 230.000 L 156.800 230.000 156.800 225.000 L 156.800 220.000 158.400 220.000 L 160.000 220.000 160.000 211.600 L 160.000 203.200 161.600 203.200 L 163.200 203.200 163.200 193.200 L 163.200 183.200 161.600 183.200 L 160.000 183.200 160.000 186.600 M173.200 213.400 L 173.200 220.000 175.000 220.000 L 176.800 220.000 176.800 218.400 L 176.800 216.800 178.400 216.800 L 180.000 216.800 180.000 220.000 L 180.000 223.200 181.600 223.200 L 183.200 223.200 183.200 226.600 L 183.200 230.000 185.000 230.000 L 186.800 230.000 186.800 231.600 L 186.800 233.200 188.400 233.200 L 190.000 233.200 190.000 235.000 L 190.000 236.800 191.600 236.800 L 193.200 236.800 193.200 238.400 L 193.200 240.000 195.000 240.000 L 196.800 240.000 196.800 241.600 L 196.800 243.200 198.400 243.200 L 200.000 243.200 200.000 245.000 L 200.000 246.800 201.600 246.800 L 203.200 246.800 203.200 248.400 L 203.200 250.000 205.000 250.000 L 206.800 250.000 206.800 251.600 L 206.800 253.200 208.400 253.200 L 210.000 253.200 210.000 255.000 L 210.000 256.800 213.400 256.800 L 216.800 256.800 216.800 258.400 L 216.800 260.000 220.000 260.000 L 223.200 260.000 223.200 261.600 L 223.200 263.200 228.200 263.200 L 233.200 263.200 233.200 265.000 L 233.200 266.800 236.600 266.800 L 240.000 266.800 240.000 265.000 L 240.000 263.200 241.600 263.200 L 243.200 263.200 243.200 261.600 L 243.200 260.000 238.200 260.000 L 233.200 260.000 233.200 258.400 L 233.200 256.800 228.200 256.800 L 223.200 256.800 223.200 255.000 L 223.200 253.200 220.000 253.200 L 216.800 253.200 216.800 251.600 L 216.800 250.000 213.400 250.000 L 210.000 250.000 210.000 248.400 L 210.000 246.800 208.400 246.800 L 206.800 246.800 206.800 245.000 L 206.800 243.200 205.000 243.200 L 203.200 243.200 203.200 241.600 L 203.200 240.000 201.600 240.000 L 200.000 240.000 200.000 238.400 L 200.000 236.800 198.400 236.800 L 196.800 236.800 196.800 235.000 L 196.800 233.200 195.000 233.200 L 193.200 233.200 193.200 231.600 L 193.200 230.000 191.600 230.000 L 190.000 230.000 190.000 228.400 L 190.000 226.800 188.400 226.800 L 186.800 226.800 186.800 223.400 L 186.800 220.000 185.000 220.000 L 183.200 220.000 183.200 216.600 L 183.200 213.200 181.600 213.200 L 180.000 213.200 180.000 210.000 L 180.000 206.800 176.600 206.800 L 173.200 206.800 173.200 213.400 M203.200 208.400 L 203.200 210.000 206.600 210.000 L 210.000 210.000 210.000 208.400 L 210.000 206.800 206.600 206.800 L 203.200 206.800 203.200 208.400 M170.000 226.600 L 170.000 230.000 171.600 230.000 L 173.200 230.000 173.200 235.000 L 173.200 240.000 175.000 240.000 L 176.800 240.000 176.800 243.400 L 176.800 246.800 178.400 246.800 L 180.000 246.800 180.000 248.400 L 180.000 250.000 181.600 250.000 L 183.200 250.000 183.200 253.400 L 183.200 256.800 185.000 256.800 L 186.800 256.800 186.800 258.400 L 186.800 260.000 188.400 260.000 L 190.000 260.000 190.000 263.400 L 190.000 266.800 188.400 266.800 L 186.800 266.800 186.800 268.400 L 186.800 270.000 185.000 270.000 L 183.200 270.000 183.200 271.600 L 183.200 273.200 180.000 273.200 L 176.800 273.200 176.800 280.000 L 176.800 286.800 175.000 286.800 L 173.200 286.800 173.200 293.400 L 173.200 300.000 171.600 300.000 L 170.000 300.000 170.000 308.400 L 170.000 316.800 168.400 316.800 L 166.800 316.800 166.800 325.000 L 166.800 333.200 168.400 333.200 L 170.000 333.200 170.000 338.200 L 170.000 343.200 171.600 343.200 L 173.200 343.200 173.200 345.000 L 173.200 346.800 181.600 346.800 L 190.000 346.800 190.000 345.000 L 190.000 343.200 191.600 343.200 L 193.200 343.200 193.200 341.600 L 193.200 340.000 195.000 340.000 L 196.800 340.000 196.800 338.400 L 196.800 336.800 200.000 336.800 L 203.200 336.800 203.200 335.000 L 203.200 333.200 201.600 333.200 L 200.000 333.200 200.000 331.600 L 200.000 330.000 196.600 330.000 L 193.200 330.000 193.200 331.600 L 193.200 333.200 191.600 333.200 L 190.000 333.200 190.000 335.000 L 190.000 336.800 188.400 336.800 L 186.800 336.800 186.800 338.400 L 186.800 340.000 181.800 340.000 L 176.800 340.000 176.800 336.600 L 176.800 333.200 175.000 333.200 L 173.200 333.200 173.200 326.600 L 173.200 320.000 175.000 320.000 L 176.800 320.000 176.800 311.600 L 176.800 303.200 178.400 303.200 L 180.000 303.200 180.000 296.600 L 180.000 290.000 181.600 290.000 L 183.200 290.000 183.200 285.000 L 183.200 280.000 185.000 280.000 L 186.800 280.000 186.800 278.400 L 186.800 276.800 188.400 276.800 L 190.000 276.800 190.000 275.000 L 190.000 273.200 191.600 273.200 L 193.200 273.200 193.200 263.200 L 193.200 253.200 191.600 253.200 L 190.000 253.200 190.000 251.600 L 190.000 250.000 188.400 250.000 L 186.800 250.000 186.800 248.400 L 186.800 246.800 185.000 246.800 L 183.200 246.800 183.200 243.400 L 183.200 240.000 181.600 240.000 L 180.000 240.000 180.000 235.000 L 180.000 230.000 176.600 230.000 L 173.200 230.000 173.200 226.600 L 173.200 223.200 171.600 223.200 L 170.000 223.200 170.000 226.600 M213.200 288.400 L 213.200 290.000 216.600 290.000 L 220.000 290.000 220.000 291.600 L 220.000 293.200 221.600 293.200 L 223.200 293.200 223.200 291.600 L 223.200 290.000 221.600 290.000 L 220.000 290.000 220.000 288.400 L 220.000 286.800 216.600 286.800 L 213.200 286.800 213.200 288.400 M226.800 296.600 L 226.800 300.000 225.000 300.000 L 223.200 300.000 223.200 303.400 L 223.200 306.800 221.600 306.800 L 220.000 306.800 220.000 310.000 L 220.000 313.200 218.400 313.200 L 216.800 313.200 216.800 316.600 L 216.800 320.000 215.000 320.000 L 213.200 320.000 213.200 326.600 L 213.200 333.200 215.000 333.200 L 216.800 333.200 216.800 335.000 L 216.800 336.800 218.400 336.800 L 220.000 336.800 220.000 340.000 L 220.000 343.200 221.600 343.200 L 223.200 343.200 223.200 341.600 L 223.200 340.000 226.600 340.000 L 230.000 340.000 230.000 338.400 L 230.000 336.800 231.600 336.800 L 233.200 336.800 233.200 338.400 L 233.200 340.000 235.000 340.000 L 236.800 340.000 236.800 336.600 L 236.800 333.200 235.000 333.200 L 233.200 333.200 233.200 331.600 L 233.200 330.000 231.600 330.000 L 230.000 330.000 230.000 326.600 L 230.000 323.200 228.400 323.200 L 226.800 323.200 226.800 321.600 L 226.800 320.000 228.400 320.000 L 230.000 320.000 230.000 315.000 L 230.000 310.000 231.600 310.000 L 233.200 310.000 233.200 303.400 L 233.200 296.800 231.600 296.800 L 230.000 296.800 230.000 295.000 L 230.000 293.200 228.400 293.200 L 226.800 293.200 226.800 296.600 M246.800 308.400 L 246.800 310.000 248.400 310.000 L 250.000 310.000 250.000 311.600 L 250.000 313.200 251.600 313.200 L 253.200 313.200 253.200 316.600 L 253.200 320.000 256.600 320.000 L 260.000 320.000 260.000 321.600 L 260.000 323.200 263.400 323.200 L 266.800 323.200 266.800 321.600 L 266.800 320.000 265.000 320.000 L 263.200 320.000 263.200 318.400 L 263.200 316.800 260.000 316.800 L 256.800 316.800 256.800 315.000 L 256.800 313.200 255.000 313.200 L 253.200 313.200 253.200 311.600 L 253.200 310.000 251.600 310.000 L 250.000 310.000 250.000 308.400 L 250.000 306.800 248.400 306.800 L 246.800 306.800 246.800 308.400 " stroke="none" fill="#948c7c" fill-rule="evenodd"></path><path id="path4" d="M186.800 88.400 L 186.800 90.000 181.800 90.000 L 176.800 90.000 176.800 91.600 L 176.800 93.200 173.400 93.200 L 170.000 93.200 170.000 95.000 L 170.000 96.800 168.400 96.800 L 166.800 96.800 166.800 98.400 L 166.800 100.000 165.000 100.000 L 163.200 100.000 163.200 101.600 L 163.200 103.200 161.600 103.200 L 160.000 103.200 160.000 106.600 L 160.000 110.000 158.400 110.000 L 156.800 110.000 156.800 111.600 L 156.800 113.200 158.400 113.200 L 160.000 113.200 160.000 115.000 L 160.000 116.800 156.600 116.800 L 153.200 116.800 153.200 118.400 L 153.200 120.000 156.600 120.000 L 160.000 120.000 160.000 121.600 L 160.000 123.200 158.400 123.200 L 156.800 123.200 156.800 125.000 L 156.800 126.800 155.000 126.800 L 153.200 126.800 153.200 131.800 L 153.200 136.800 151.600 136.800 L 150.000 136.800 150.000 141.800 L 150.000 146.800 148.400 146.800 L 146.800 146.800 146.800 153.400 L 146.800 160.000 145.000 160.000 L 143.200 160.000 143.200 166.600 L 143.200 173.200 145.000 173.200 L 146.800 173.200 146.800 178.200 L 146.800 183.200 148.400 183.200 L 150.000 183.200 150.000 186.600 L 150.000 190.000 153.400 190.000 L 156.800 190.000 156.800 186.600 L 156.800 183.200 158.400 183.200 L 160.000 183.200 160.000 180.000 L 160.000 176.800 161.600 176.800 L 163.200 176.800 163.200 171.800 L 163.200 166.800 165.000 166.800 L 166.800 166.800 166.800 161.800 L 166.800 156.800 168.400 156.800 L 170.000 156.800 170.000 158.400 L 170.000 160.000 171.600 160.000 L 173.200 160.000 173.200 163.400 L 173.200 166.800 175.000 166.800 L 176.800 166.800 176.800 175.000 L 176.800 183.200 178.400 183.200 L 180.000 183.200 180.000 188.200 L 180.000 193.200 178.400 193.200 L 176.800 193.200 176.800 191.600 L 176.800 190.000 173.400 190.000 L 170.000 190.000 170.000 188.400 L 170.000 186.800 168.400 186.800 L 166.800 186.800 166.800 185.000 L 166.800 183.200 165.000 183.200 L 163.200 183.200 163.200 185.000 L 163.200 186.800 165.000 186.800 L 166.800 186.800 166.800 188.400 L 166.800 190.000 168.400 190.000 L 170.000 190.000 170.000 191.600 L 170.000 193.200 173.400 193.200 L 176.800 193.200 176.800 195.000 L 176.800 196.800 178.400 196.800 L 180.000 196.800 180.000 195.000 L 180.000 193.200 181.600 193.200 L 183.200 193.200 183.200 196.600 L 183.200 200.000 185.000 200.000 L 186.800 200.000 186.800 201.600 L 186.800 203.200 198.400 203.200 L 210.000 203.200 210.000 200.000 L 210.000 196.800 211.600 196.800 L 213.200 196.800 213.200 183.400 L 213.200 170.000 211.600 170.000 L 210.000 170.000 210.000 176.600 L 210.000 183.200 208.400 183.200 L 206.800 183.200 206.800 190.000 L 206.800 196.800 205.000 196.800 L 203.200 196.800 203.200 198.400 L 203.200 200.000 198.200 200.000 L 193.200 200.000 193.200 198.400 L 193.200 196.800 191.600 196.800 L 190.000 196.800 190.000 195.000 L 190.000 193.200 188.400 193.200 L 186.800 193.200 186.800 188.200 L 186.800 183.200 185.000 183.200 L 183.200 183.200 183.200 178.200 L 183.200 173.200 181.600 173.200 L 180.000 173.200 180.000 168.200 L 180.000 163.200 178.400 163.200 L 176.800 163.200 176.800 161.600 L 176.800 160.000 175.000 160.000 L 173.200 160.000 173.200 158.400 L 173.200 156.800 171.600 156.800 L 170.000 156.800 170.000 153.400 L 170.000 150.000 168.400 150.000 L 166.800 150.000 166.800 153.400 L 166.800 156.800 165.000 156.800 L 163.200 156.800 163.200 161.800 L 163.200 166.800 161.600 166.800 L 160.000 166.800 160.000 171.800 L 160.000 176.800 158.400 176.800 L 156.800 176.800 156.800 180.000 L 156.800 183.200 155.000 183.200 L 153.200 183.200 153.200 178.200 L 153.200 173.200 151.600 173.200 L 150.000 173.200 150.000 166.600 L 150.000 160.000 151.600 160.000 L 153.200 160.000 153.200 153.400 L 153.200 146.800 155.000 146.800 L 156.800 146.800 156.800 141.800 L 156.800 136.800 158.400 136.800 L 160.000 136.800 160.000 131.800 L 160.000 126.800 161.600 126.800 L 163.200 126.800 163.200 123.400 L 163.200 120.000 165.000 120.000 L 166.800 120.000 166.800 118.400 L 166.800 116.800 165.000 116.800 L 163.200 116.800 163.200 115.000 L 163.200 113.200 161.600 113.200 L 160.000 113.200 160.000 111.600 C 160.000 109.001,163.089 109.095,163.277 111.700 C 163.400 113.396,163.404 113.400,165.000 113.400 C 166.596 113.400,166.600 113.396,166.723 111.700 C 166.845 110.008,166.854 110.000,168.423 110.000 L 170.000 110.000 170.000 106.600 L 170.000 103.200 171.600 103.200 L 173.200 103.200 173.200 101.600 L 173.200 100.000 175.000 100.000 L 176.800 100.000 176.800 98.400 L 176.800 96.800 181.800 96.800 L 186.800 96.800 186.800 95.000 L 186.800 93.200 191.800 93.200 L 196.800 93.200 196.800 95.000 L 196.800 96.800 200.000 96.800 L 203.200 96.800 203.200 98.400 L 203.200 100.000 205.000 100.000 L 206.800 100.000 206.800 101.600 L 206.800 103.200 208.400 103.200 L 210.000 103.200 210.000 105.000 L 210.000 106.800 211.600 106.800 L 213.200 106.800 213.200 108.400 L 213.200 110.000 215.000 110.000 L 216.800 110.000 216.800 108.400 L 216.800 106.800 215.000 106.800 L 213.200 106.800 213.200 103.400 L 213.200 100.000 211.600 100.000 L 210.000 100.000 210.000 98.400 L 210.000 96.800 208.400 96.800 L 206.800 96.800 206.800 95.000 L 206.800 93.200 205.000 93.200 L 203.200 93.200 203.200 91.600 L 203.200 90.000 200.000 90.000 L 196.800 90.000 196.800 88.400 L 196.800 86.800 191.800 86.800 L 186.800 86.800 186.800 88.400 M166.800 108.400 L 166.800 110.000 165.000 110.000 L 163.200 110.000 163.200 108.400 L 163.200 106.800 165.000 106.800 L 166.800 106.800 166.800 108.400 M146.800 116.600 L 146.800 120.000 148.400 120.000 L 150.000 120.000 150.000 116.600 L 150.000 113.200 148.400 113.200 L 146.800 113.200 146.800 116.600 M220.000 115.000 L 220.000 116.800 218.445 116.800 C 217.043 116.800,216.874 116.911,216.724 117.936 C 216.469 119.677,216.736 120.000,218.433 120.000 C 219.994 120.000,220.000 119.994,220.000 118.400 L 220.000 116.800 223.400 116.800 L 226.800 116.800 226.800 115.000 L 226.800 113.200 223.400 113.200 L 220.000 113.200 220.000 115.000 M163.200 118.400 L 163.200 120.000 161.600 120.000 L 160.000 120.000 160.000 118.400 L 160.000 116.800 161.600 116.800 L 163.200 116.800 163.200 118.400 M170.000 118.400 L 170.000 120.000 175.000 120.000 L 180.000 120.000 180.000 121.600 L 180.000 123.200 181.600 123.200 C 183.198 123.200,183.200 123.198,183.200 121.612 L 183.200 120.024 188.281 119.912 L 193.361 119.800 193.321 118.700 C 193.298 118.095,193.262 117.420,193.240 117.200 C 193.216 116.957,191.240 116.800,188.200 116.800 L 183.200 116.800 183.200 118.400 L 183.200 120.000 181.600 120.000 L 180.000 120.000 180.000 118.400 L 180.000 116.800 175.000 116.800 L 170.000 116.800 170.000 118.400 M199.950 117.400 C 199.923 117.730,199.900 118.270,199.900 118.600 C 199.900 118.930,199.923 119.380,199.950 119.600 C 199.979 119.831,201.433 120.000,203.400 120.000 L 206.800 120.000 206.800 118.400 L 206.800 116.800 203.400 116.800 C 200.667 116.800,199.990 116.918,199.950 117.400 M210.000 118.400 L 210.000 120.000 211.600 120.000 L 213.200 120.000 213.200 121.600 L 213.200 123.200 215.000 123.200 L 216.800 123.200 216.800 128.200 L 216.800 133.200 218.400 133.200 L 220.000 133.200 220.000 128.200 L 220.000 123.200 218.400 123.200 L 216.800 123.200 216.800 121.600 L 216.800 120.000 215.000 120.000 L 213.200 120.000 213.200 118.400 L 213.200 116.800 211.600 116.800 L 210.000 116.800 210.000 118.400 M193.200 121.600 L 193.200 123.200 196.600 123.200 L 200.000 123.200 200.000 121.600 L 200.000 120.000 196.600 120.000 L 193.200 120.000 193.200 121.600 M200.068 128.400 L 200.006 130.000 201.603 130.000 C 203.200 130.000,203.200 130.000,203.200 128.400 C 203.200 126.811,203.189 126.800,201.666 126.800 C 200.153 126.800,200.130 126.822,200.068 128.400 M220.000 153.400 L 220.000 156.800 216.600 156.800 L 213.200 156.800 213.200 161.800 L 213.200 166.800 215.000 166.800 L 216.800 166.800 216.800 173.400 L 216.800 180.000 218.400 180.000 L 220.000 180.000 220.000 173.400 L 220.000 166.800 221.600 166.800 L 223.200 166.800 223.200 158.400 L 223.200 150.000 221.600 150.000 L 220.000 150.000 220.000 153.400 M193.200 171.600 L 193.200 173.200 196.600 173.200 L 200.000 173.200 200.000 171.600 L 200.000 170.000 196.600 170.000 L 193.200 170.000 193.200 171.600 M170.156 178.308 C 170.189 179.668,170.301 179.821,171.296 179.861 C 172.658 179.917,172.669 179.725,171.384 178.383 L 170.367 177.322 171.364 177.375 C 171.913 177.404,172.505 177.586,172.681 177.778 C 172.861 177.976,172.756 177.987,172.438 177.802 C 172.035 177.569,171.968 177.624,172.200 178.000 C 172.433 178.376,172.366 178.431,171.962 178.193 C 171.653 178.011,171.758 178.298,172.196 178.831 C 172.633 179.364,173.012 179.848,173.036 179.907 C 173.061 179.966,173.063 179.291,173.042 178.407 C 173.004 176.835,172.972 176.800,171.562 176.800 C 170.154 176.800,170.120 176.836,170.156 178.308 M171.373 178.770 C 172.035 179.501,172.035 179.534,171.368 179.436 C 170.982 179.380,170.622 179.033,170.569 178.667 C 170.444 177.820,170.522 177.830,171.373 178.770 M176.800 205.000 L 176.800 206.800 178.400 206.800 L 180.000 206.800 180.000 210.000 L 180.000 213.200 181.600 213.200 L 183.200 213.200 183.200 216.600 L 183.200 220.000 185.000 220.000 L 186.800 220.000 186.800 223.400 L 186.800 226.800 188.400 226.800 L 190.000 226.800 190.000 228.400 L 190.000 230.000 191.600 230.000 L 193.200 230.000 193.200 231.600 L 193.200 233.200 195.000 233.200 L 196.800 233.200 196.800 235.000 L 196.800 236.800 198.400 236.800 L 200.000 236.800 200.000 238.400 L 200.000 240.000 201.600 240.000 L 203.200 240.000 203.200 241.600 L 203.200 243.200 205.000 243.200 L 206.800 243.200 206.800 245.000 L 206.800 246.800 208.400 246.800 L 210.000 246.800 210.000 248.400 L 210.000 250.000 213.400 250.000 L 216.800 250.000 216.800 251.600 L 216.800 253.200 220.000 253.200 L 223.200 253.200 223.200 255.000 L 223.200 256.800 228.200 256.800 L 233.200 256.800 233.200 258.400 L 233.200 260.000 238.200 260.000 L 243.200 260.000 243.200 261.600 L 243.200 263.200 245.000 263.200 L 246.800 263.200 246.800 261.600 L 246.800 260.000 245.000 260.000 L 243.200 260.000 243.200 258.400 L 243.200 256.800 238.200 256.800 L 233.200 256.800 233.200 255.000 L 233.200 253.200 228.200 253.200 L 223.200 253.200 223.200 251.600 L 223.200 250.000 220.000 250.000 L 216.800 250.000 216.800 248.400 L 216.800 246.800 213.400 246.800 L 210.000 246.800 210.000 245.000 L 210.000 243.200 208.400 243.200 L 206.800 243.200 206.800 241.600 L 206.800 240.000 205.000 240.000 L 203.200 240.000 203.200 238.400 L 203.200 236.800 201.600 236.800 L 200.000 236.800 200.000 235.000 L 200.000 233.200 198.400 233.200 L 196.800 233.200 196.800 231.600 L 196.800 230.000 195.000 230.000 L 193.200 230.000 193.200 228.400 L 193.200 226.800 191.600 226.800 L 190.000 226.800 190.000 223.400 L 190.000 220.000 191.600 220.000 L 193.200 220.000 193.200 221.600 L 193.200 223.200 195.000 223.200 L 196.800 223.200 196.800 225.000 L 196.800 226.800 198.400 226.800 L 200.000 226.800 200.000 228.400 L 200.000 230.000 203.400 230.000 L 206.800 230.000 206.800 231.600 L 206.800 233.200 210.000 233.200 L 213.200 233.200 213.200 235.000 L 213.200 236.800 216.600 236.800 L 220.000 236.800 220.000 238.400 L 220.000 240.000 223.400 240.000 L 226.800 240.000 226.800 238.400 L 226.800 236.800 223.400 236.800 L 220.000 236.800 220.000 235.000 L 220.000 233.200 216.600 233.200 L 213.200 233.200 213.200 231.600 L 213.200 230.000 210.000 230.000 L 206.800 230.000 206.800 228.400 L 206.800 226.800 203.400 226.800 L 200.000 226.800 200.000 225.000 L 200.000 223.200 198.400 223.200 L 196.800 223.200 196.800 221.600 L 196.800 220.000 195.000 220.000 L 193.200 220.000 193.200 218.400 L 193.200 216.800 191.600 216.800 L 190.000 216.800 190.000 215.000 L 190.000 213.200 186.600 213.200 L 183.200 213.200 183.200 210.000 L 183.200 206.800 181.600 206.800 L 180.000 206.800 180.000 205.000 L 180.000 203.200 178.400 203.200 L 176.800 203.200 176.800 205.000 M190.000 208.400 L 190.000 210.000 191.600 210.000 L 193.200 210.000 193.200 211.600 L 193.200 213.200 195.000 213.200 L 196.800 213.200 196.800 215.000 L 196.800 216.800 198.400 216.800 L 200.000 216.800 200.000 218.400 L 200.000 220.000 203.400 220.000 L 206.800 220.000 206.800 221.600 L 206.800 223.200 211.800 223.200 L 216.800 223.200 216.800 225.000 L 216.800 226.800 218.400 226.800 L 220.000 226.800 220.000 225.000 L 220.000 223.200 218.400 223.200 L 216.800 223.200 216.800 221.600 L 216.800 220.000 215.000 220.000 L 213.200 220.000 213.200 218.400 L 213.200 216.800 211.600 216.800 L 210.000 216.800 210.000 215.000 L 210.000 213.200 208.400 213.200 L 206.800 213.200 206.800 211.600 L 206.800 210.000 205.000 210.000 L 203.200 210.000 203.200 208.400 L 203.200 206.800 201.600 206.800 L 200.000 206.800 200.000 208.400 L 200.000 210.000 201.600 210.000 L 203.200 210.000 203.200 211.600 L 203.200 213.200 205.000 213.200 L 206.800 213.200 206.800 215.000 L 206.800 216.800 203.400 216.800 L 200.000 216.800 200.000 215.000 L 200.000 213.200 198.400 213.200 L 196.800 213.200 196.800 211.600 L 196.800 210.000 195.000 210.000 L 193.200 210.000 193.200 208.400 L 193.200 206.800 191.600 206.800 L 190.000 206.800 190.000 208.400 M190.000 218.400 L 190.000 220.000 188.400 220.000 L 186.800 220.000 186.800 218.400 L 186.800 216.800 188.400 216.800 L 190.000 216.800 190.000 218.400 M210.000 218.400 L 210.000 220.000 208.400 220.000 L 206.800 220.000 206.800 218.400 L 206.800 216.800 208.400 216.800 L 210.000 216.800 210.000 218.400 " stroke="none" fill="#44140c" fill-rule="evenodd"></path><path id="path5" d="M186.800 51.600 L 186.800 53.200 185.000 53.200 L 183.200 53.200 183.200 55.000 L 183.200 56.800 181.600 56.800 L 180.000 56.800 180.000 61.800 L 180.000 66.800 181.600 66.800 L 183.200 66.800 183.200 68.400 L 183.200 70.000 185.000 70.000 L 186.800 70.000 186.800 78.400 L 186.800 86.800 181.800 86.800 L 176.800 86.800 176.800 88.400 L 176.800 90.000 173.400 90.000 L 170.000 90.000 170.000 91.600 L 170.000 93.200 168.400 93.200 L 166.800 93.200 166.800 95.000 L 166.800 96.800 165.000 96.800 L 163.200 96.800 163.200 98.400 L 163.200 100.000 161.600 100.000 L 160.000 100.000 160.000 101.600 L 160.000 103.200 158.400 103.200 L 156.800 103.200 156.800 106.600 L 156.800 110.000 155.000 110.000 L 153.200 110.000 153.200 108.400 L 153.200 106.800 151.600 106.800 L 150.000 106.800 150.000 105.000 L 150.000 103.200 148.400 103.200 L 146.800 103.200 146.800 105.000 L 146.800 106.800 145.000 106.800 L 143.200 106.800 143.200 108.400 L 143.200 110.000 145.000 110.000 L 146.800 110.000 146.800 111.600 L 146.800 113.200 145.000 113.200 L 143.200 113.200 143.200 116.600 L 143.200 120.000 145.000 120.000 L 146.800 120.000 146.800 121.600 L 146.800 123.200 148.400 123.200 L 150.000 123.200 150.000 121.600 L 150.000 120.000 151.600 120.000 L 153.200 120.000 153.200 123.400 L 153.200 126.800 151.600 126.800 L 150.000 126.800 150.000 131.800 L 150.000 136.800 148.400 136.800 L 146.800 136.800 146.800 141.800 L 146.800 146.800 145.000 146.800 L 143.200 146.800 143.200 153.400 L 143.200 160.000 141.600 160.000 L 140.000 160.000 140.000 166.600 L 140.000 173.200 141.600 173.200 L 143.200 173.200 143.200 178.200 L 143.200 183.200 145.000 183.200 L 146.800 183.200 146.800 186.600 L 146.800 190.000 148.400 190.000 L 150.000 190.000 150.000 191.600 L 150.000 193.200 151.600 193.200 L 153.200 193.200 153.200 206.600 L 153.200 220.000 151.600 220.000 L 150.000 220.000 150.000 225.000 L 150.000 230.000 151.600 230.000 L 153.200 230.000 153.200 235.000 L 153.200 240.000 155.000 240.000 L 156.800 240.000 156.800 243.400 L 156.800 246.800 158.400 246.800 L 160.000 246.800 160.000 250.000 L 160.000 253.200 161.600 253.200 L 163.200 253.200 163.200 256.600 L 163.200 260.000 165.000 260.000 L 166.800 260.000 166.800 263.400 L 166.800 266.800 168.400 266.800 L 170.000 266.800 170.000 270.000 L 170.000 273.200 171.600 273.200 L 173.200 273.200 173.200 280.000 L 173.200 286.800 171.600 286.800 L 170.000 286.800 170.000 293.400 L 170.000 300.000 168.400 300.000 L 166.800 300.000 166.800 308.400 L 166.800 316.800 165.000 316.800 L 163.200 316.800 163.200 325.000 L 163.200 333.200 165.000 333.200 L 166.800 333.200 166.800 338.200 L 166.800 343.200 168.400 343.200 L 170.000 343.200 170.000 345.000 L 170.000 346.800 171.600 346.800 L 173.200 346.800 173.200 348.400 L 173.200 350.000 181.600 350.000 L 190.000 350.000 190.000 348.400 L 190.000 346.800 191.600 346.800 L 193.200 346.800 193.200 345.000 L 193.200 343.200 195.000 343.200 L 196.800 343.200 196.800 341.600 L 196.800 340.000 201.800 340.000 L 206.800 340.000 206.800 341.600 L 206.800 343.200 208.400 343.200 L 210.000 343.200 210.000 345.000 L 210.000 346.800 211.600 346.800 L 213.200 346.800 213.200 348.400 L 213.200 350.000 216.600 350.000 L 220.000 350.000 220.000 348.400 L 220.000 346.800 221.600 346.800 L 223.200 346.800 223.200 345.000 L 223.200 343.200 226.600 343.200 L 230.000 343.200 230.000 341.600 L 230.000 340.000 231.600 340.000 L 233.200 340.000 233.200 341.600 L 233.200 343.200 236.600 343.200 L 240.000 343.200 240.000 345.000 L 240.000 346.800 241.600 346.800 L 243.200 346.800 243.200 348.400 L 243.200 350.000 246.600 350.000 L 250.000 350.000 250.000 343.400 L 250.000 336.800 251.600 336.800 L 253.200 336.800 253.200 335.000 L 253.200 333.200 255.000 333.200 L 256.800 333.200 256.800 331.600 L 256.800 330.000 258.400 330.000 L 260.000 330.000 260.000 328.400 L 260.000 326.800 263.400 326.800 L 266.800 326.800 266.800 325.000 L 266.800 323.200 270.000 323.200 L 273.200 323.200 273.200 321.600 L 273.200 320.000 275.000 320.000 L 276.800 320.000 276.800 318.400 L 276.800 316.800 278.400 316.800 L 280.000 316.800 280.000 311.800 L 280.000 306.800 278.400 306.800 L 276.800 306.800 276.800 303.400 L 276.800 300.000 275.000 300.000 L 273.200 300.000 273.200 296.600 L 273.200 293.200 271.600 293.200 L 270.000 293.200 270.000 290.000 L 270.000 286.800 268.400 286.800 L 266.800 286.800 266.800 283.400 L 266.800 280.000 265.000 280.000 L 263.200 280.000 263.200 278.400 L 263.200 276.800 261.600 276.800 L 260.000 276.800 260.000 275.000 L 260.000 273.200 258.400 273.200 L 256.800 273.200 256.800 270.000 L 256.800 266.800 255.000 266.800 L 253.200 266.800 253.200 265.000 L 253.200 263.200 251.600 263.200 L 250.000 263.200 250.000 261.600 L 250.000 260.000 248.400 260.000 L 246.800 260.000 246.800 258.400 L 246.800 256.800 245.000 256.800 L 243.200 256.800 243.200 255.000 L 243.200 253.200 241.600 253.200 L 240.000 253.200 240.000 251.600 L 240.000 250.000 238.400 250.000 L 236.800 250.000 236.800 248.400 L 236.800 246.800 235.000 246.800 L 233.200 246.800 233.200 243.400 L 233.200 240.000 231.600 240.000 L 230.000 240.000 230.000 236.600 L 230.000 233.200 231.600 233.200 L 233.200 233.200 233.200 235.000 L 233.200 236.800 236.600 236.800 L 240.000 236.800 240.000 238.400 L 240.000 240.000 238.400 240.000 L 236.800 240.000 236.800 241.800 L 236.800 243.600 248.400 243.600 L 260.000 243.600 260.000 241.800 L 260.000 240.000 258.400 240.000 L 256.800 240.000 256.800 238.400 L 256.800 236.800 258.400 236.800 L 260.000 236.800 260.000 235.000 L 260.000 233.200 261.600 233.200 L 263.200 233.200 263.200 228.200 L 263.200 223.200 261.600 223.200 L 260.000 223.200 260.000 221.600 L 260.000 220.000 256.600 220.000 L 253.200 220.000 253.200 218.400 L 253.200 216.800 256.600 216.800 L 260.000 216.800 260.000 215.000 L 260.000 213.200 261.600 213.200 L 263.200 213.200 263.200 210.000 L 263.200 206.800 265.000 206.800 L 266.800 206.800 266.800 196.600 L 266.800 186.400 248.400 186.400 L 230.000 186.400 230.000 196.600 L 230.000 206.800 231.600 206.800 L 233.200 206.800 233.200 210.000 L 233.200 213.200 235.000 213.200 L 236.800 213.200 236.800 215.000 L 236.800 216.800 240.000 216.800 L 243.200 216.800 243.200 218.400 L 243.200 220.000 245.000 220.000 L 246.800 220.000 246.800 223.400 L 246.800 226.800 243.400 226.800 L 240.000 226.800 240.000 225.000 L 240.000 223.200 235.000 223.200 L 230.000 223.200 230.000 221.600 L 230.000 220.000 226.600 220.000 L 223.200 220.000 223.200 215.000 L 223.200 210.000 221.600 210.000 L 220.000 210.000 220.000 195.000 L 220.000 180.000 221.600 180.000 L 223.200 180.000 223.200 176.600 L 223.200 173.200 225.000 173.200 L 226.800 173.200 226.800 168.200 L 226.800 163.200 228.400 163.200 L 230.000 163.200 230.000 156.600 L 230.000 150.000 228.400 150.000 L 226.800 150.000 226.800 145.000 L 226.800 140.000 225.000 140.000 L 223.200 140.000 223.200 131.600 L 223.200 123.200 221.600 123.200 L 220.000 123.200 220.000 121.600 L 220.000 120.000 223.400 120.000 L 226.800 120.000 226.800 118.400 L 226.800 116.800 223.400 116.800 L 220.000 116.800 220.000 118.400 L 220.000 120.000 218.400 120.000 L 216.800 120.000 216.800 121.600 L 216.800 123.200 215.000 123.200 L 213.200 123.200 213.200 121.600 L 213.200 120.000 211.600 120.000 L 210.000 120.000 210.000 118.400 L 210.000 116.800 208.400 116.800 L 206.800 116.800 206.800 118.400 L 206.800 120.000 208.400 120.000 L 210.000 120.000 210.000 123.400 L 210.000 126.800 211.600 126.800 L 213.200 126.800 213.200 131.800 L 213.200 136.800 215.000 136.800 L 216.800 136.800 216.800 138.400 L 216.800 140.000 206.800 140.000 L 196.800 140.000 196.800 141.600 L 196.800 143.200 200.000 143.200 L 203.200 143.200 203.200 148.200 L 203.200 153.200 196.600 153.200 L 190.000 153.200 190.000 148.200 L 190.000 143.200 191.600 143.200 L 193.200 143.200 193.200 141.600 L 193.200 140.000 183.200 140.000 L 173.200 140.000 173.200 138.400 L 173.200 136.800 175.000 136.800 L 176.800 136.800 176.800 133.400 L 176.800 130.000 178.400 130.000 L 180.000 130.000 180.000 128.400 L 180.000 126.800 181.600 126.800 L 183.200 126.800 183.200 125.000 L 183.200 123.200 188.200 123.200 L 193.200 123.200 193.200 125.000 L 193.200 126.800 196.600 126.800 L 200.000 126.800 200.000 125.000 L 200.000 123.200 196.600 123.200 L 193.200 123.200 193.200 121.600 L 193.200 120.000 188.200 120.000 L 183.200 120.000 183.200 121.600 L 183.200 123.200 181.600 123.200 L 180.000 123.200 180.000 121.600 L 180.000 120.000 175.000 120.000 L 170.000 120.000 170.000 121.600 L 170.000 123.200 173.400 123.200 L 176.800 123.200 176.800 125.000 L 176.800 126.800 175.000 126.800 L 173.200 126.800 173.200 131.800 L 173.200 136.800 171.600 136.800 L 170.000 136.800 170.000 140.000 L 170.000 143.200 166.600 143.200 L 163.200 143.200 163.200 145.000 L 163.200 146.800 166.600 146.800 L 170.000 146.800 170.000 150.000 L 170.000 153.200 171.600 153.200 L 173.200 153.200 173.200 155.000 L 173.200 156.800 175.000 156.800 L 176.800 156.800 176.800 158.400 L 176.800 160.000 180.000 160.000 L 183.200 160.000 183.200 161.600 L 183.200 163.200 185.000 163.200 L 186.800 163.200 186.800 165.000 L 186.800 166.800 188.400 166.800 L 190.000 166.800 190.000 168.400 L 190.000 170.000 196.600 170.000 L 203.200 170.000 203.200 168.400 L 203.200 166.800 205.000 166.800 L 206.800 166.800 206.800 163.400 L 206.800 160.000 210.000 160.000 L 213.200 160.000 213.200 158.400 L 213.200 156.800 216.600 156.800 L 220.000 156.800 220.000 153.400 L 220.000 150.000 223.400 150.000 L 226.800 150.000 226.800 156.600 L 226.800 163.200 225.000 163.200 L 223.200 163.200 223.200 168.200 L 223.200 173.200 221.600 173.200 L 220.000 173.200 220.000 176.600 L 220.000 180.000 218.400 180.000 L 216.800 180.000 216.800 173.400 L 216.800 166.800 215.000 166.800 L 213.200 166.800 213.200 181.800 L 213.200 196.800 211.600 196.800 L 210.000 196.800 210.000 200.000 L 210.000 203.200 198.400 203.200 L 186.800 203.200 186.800 201.600 L 186.800 200.000 185.000 200.000 L 183.200 200.000 183.200 196.600 L 183.200 193.200 181.600 193.200 L 180.000 193.200 180.000 188.200 L 180.000 183.200 178.400 183.200 L 176.800 183.200 176.800 175.000 L 176.800 166.800 175.000 166.800 L 173.200 166.800 173.200 163.400 L 173.200 160.000 171.600 160.000 L 170.000 160.000 170.000 158.400 L 170.000 156.800 168.400 156.800 L 166.800 156.800 166.800 153.400 L 166.800 150.000 165.000 150.000 L 163.200 150.000 163.200 153.400 L 163.200 156.800 165.000 156.800 L 166.800 156.800 166.800 161.800 L 166.800 166.800 165.000 166.800 L 163.200 166.800 163.200 171.800 L 163.200 176.800 161.600 176.800 L 160.000 176.800 160.000 180.000 L 160.000 183.200 158.400 183.200 L 156.800 183.200 156.800 186.600 L 156.800 190.000 153.400 190.000 L 150.000 190.000 150.000 186.600 L 150.000 183.200 148.400 183.200 L 146.800 183.200 146.800 178.200 L 146.800 173.200 145.000 173.200 L 143.200 173.200 143.200 166.600 L 143.200 160.000 145.000 160.000 L 146.800 160.000 146.800 153.400 L 146.800 146.800 148.400 146.800 L 150.000 146.800 150.000 141.800 L 150.000 136.800 151.600 136.800 L 153.200 136.800 153.200 131.800 L 153.200 126.800 155.000 126.800 L 156.800 126.800 156.800 125.000 L 156.800 123.200 158.400 123.200 L 160.000 123.200 160.000 121.600 L 160.000 120.000 156.600 120.000 L 153.200 120.000 153.200 118.400 L 153.200 116.800 151.600 116.800 L 150.000 116.800 150.000 118.400 L 150.000 120.000 148.400 120.000 L 146.800 120.000 146.800 116.600 L 146.800 113.200 148.400 113.200 L 150.000 113.200 150.000 111.600 L 150.000 110.000 151.600 110.000 L 153.200 110.000 153.200 111.600 L 153.200 113.200 155.000 113.200 L 156.800 113.200 156.800 115.000 L 156.800 116.800 158.400 116.800 L 160.000 116.800 160.000 118.400 L 160.000 120.000 161.600 120.000 L 163.200 120.000 163.200 121.600 L 163.200 123.200 165.000 123.200 L 166.800 123.200 166.800 121.600 L 166.800 120.000 168.400 120.000 L 170.000 120.000 170.000 118.400 L 170.000 116.800 168.400 116.800 L 166.800 116.800 166.800 118.400 L 166.800 120.000 165.000 120.000 L 163.200 120.000 163.200 118.400 L 163.200 116.800 161.600 116.800 L 160.000 116.800 160.000 115.000 L 160.000 113.200 161.600 113.200 L 163.200 113.200 163.200 111.600 L 163.200 110.000 165.000 110.000 L 166.800 110.000 166.800 111.600 L 166.800 113.200 170.000 113.200 L 173.200 113.200 173.200 111.600 L 173.200 110.000 175.000 110.000 L 176.800 110.000 176.800 113.400 L 176.800 116.800 178.400 116.800 L 180.000 116.800 180.000 118.400 L 180.000 120.000 181.600 120.000 L 183.200 120.000 183.200 118.400 L 183.200 116.800 185.000 116.800 L 186.800 116.800 186.800 115.000 L 186.800 113.200 190.000 113.200 L 193.200 113.200 193.200 115.000 L 193.200 116.800 196.600 116.800 L 200.000 116.800 200.000 115.000 L 200.000 113.200 203.400 113.200 L 206.800 113.200 206.800 111.600 L 206.800 110.000 210.000 110.000 L 213.200 110.000 213.200 113.400 L 213.200 116.800 215.000 116.800 L 216.800 116.800 216.800 113.400 L 216.800 110.000 220.000 110.000 L 223.200 110.000 223.200 111.600 L 223.200 113.200 225.000 113.200 L 226.800 113.200 226.800 115.000 L 226.800 116.800 228.400 116.800 L 230.000 116.800 230.000 115.000 L 230.000 113.200 228.400 113.200 L 226.800 113.200 226.800 111.600 L 226.800 110.000 225.000 110.000 L 223.200 110.000 223.200 108.400 L 223.200 106.800 220.000 106.800 L 216.800 106.800 216.800 103.400 L 216.800 100.000 215.000 100.000 L 213.200 100.000 213.200 98.400 L 213.200 96.800 211.600 96.800 L 210.000 96.800 210.000 95.000 L 210.000 93.200 208.400 93.200 L 206.800 93.200 206.800 91.600 L 206.800 90.000 205.000 90.000 L 203.200 90.000 203.200 88.400 L 203.200 86.800 200.000 86.800 L 196.800 86.800 196.800 78.400 L 196.800 70.000 198.400 70.000 L 200.000 70.000 200.000 61.600 L 200.000 53.200 198.400 53.200 L 196.800 53.200 196.800 51.600 L 196.800 50.000 191.800 50.000 L 186.800 50.000 186.800 51.600 M196.800 61.600 L 196.800 70.000 195.000 70.000 L 193.200 70.000 193.200 76.600 L 193.200 83.200 191.600 83.200 L 190.000 83.200 190.000 76.600 L 190.000 70.000 188.400 70.000 L 186.800 70.000 186.800 68.400 L 186.800 66.800 185.000 66.800 L 183.200 66.800 183.200 61.800 L 183.200 56.800 185.000 56.800 L 186.800 56.800 186.800 55.000 L 186.800 53.200 191.800 53.200 L 196.800 53.200 196.800 61.600 M196.800 88.400 L 196.800 90.000 200.000 90.000 L 203.200 90.000 203.200 91.600 L 203.200 93.200 205.000 93.200 L 206.800 93.200 206.800 95.000 L 206.800 96.800 208.400 96.800 L 210.000 96.800 210.000 98.400 L 210.000 100.000 211.600 100.000 L 213.200 100.000 213.200 103.400 L 213.200 106.800 215.000 106.800 L 216.800 106.800 216.800 108.400 L 216.800 110.000 215.000 110.000 L 213.200 110.000 213.200 108.400 L 213.200 106.800 210.000 106.800 L 206.800 106.800 206.800 108.400 L 206.800 110.000 203.400 110.000 L 200.000 110.000 200.000 111.600 L 200.000 113.200 196.600 113.200 L 193.200 113.200 193.200 111.600 L 193.200 110.000 190.000 110.000 L 186.800 110.000 186.800 111.600 L 186.800 113.200 185.000 113.200 L 183.200 113.200 183.200 115.000 L 183.200 116.800 181.600 116.800 L 180.000 116.800 180.000 113.400 L 180.000 110.000 178.400 110.000 L 176.800 110.000 176.800 108.400 L 176.800 106.800 175.000 106.800 L 173.200 106.800 173.200 108.400 L 173.200 110.000 170.000 110.000 L 166.800 110.000 166.800 108.400 L 166.800 106.800 165.000 106.800 L 163.200 106.800 163.200 108.400 L 163.200 110.000 161.600 110.000 L 160.000 110.000 160.000 111.600 L 160.000 113.200 158.400 113.200 L 156.800 113.200 156.800 111.600 L 156.800 110.000 158.400 110.000 L 160.000 110.000 160.000 106.600 L 160.000 103.200 161.600 103.200 L 163.200 103.200 163.200 101.600 L 163.200 100.000 165.000 100.000 L 166.800 100.000 166.800 98.400 L 166.800 96.800 168.400 96.800 L 170.000 96.800 170.000 95.000 L 170.000 93.200 173.400 93.200 L 176.800 93.200 176.800 91.600 L 176.800 90.000 181.800 90.000 L 186.800 90.000 186.800 88.400 L 186.800 86.800 191.800 86.800 L 196.800 86.800 196.800 88.400 M150.000 108.400 L 150.000 110.000 148.400 110.000 L 146.800 110.000 146.800 108.400 L 146.800 106.800 148.400 106.800 L 150.000 106.800 150.000 108.400 M200.000 121.600 L 200.000 123.200 203.400 123.200 L 206.800 123.200 206.800 121.600 L 206.800 120.000 203.400 120.000 L 200.000 120.000 200.000 121.600 M220.000 128.200 L 220.000 133.200 218.400 133.200 L 216.800 133.200 216.800 128.200 L 216.800 123.200 218.400 123.200 L 220.000 123.200 220.000 128.200 M180.000 148.400 L 180.000 153.600 181.600 153.600 L 183.200 153.600 183.200 155.200 L 183.200 156.800 185.000 156.800 L 186.800 156.800 186.800 158.400 L 186.800 160.000 188.400 160.000 L 190.000 160.000 190.000 158.400 L 190.000 156.800 195.000 156.800 L 200.000 156.800 200.000 158.400 L 200.000 160.000 201.600 160.000 L 203.200 160.000 203.200 158.400 L 203.200 156.800 205.000 156.800 L 206.800 156.800 206.800 155.200 L 206.800 153.600 210.000 153.600 L 213.200 153.600 213.200 155.200 L 213.200 156.800 210.000 156.800 L 206.800 156.800 206.800 158.400 L 206.800 160.000 205.000 160.000 L 203.200 160.000 203.200 163.400 L 203.200 166.800 196.600 166.800 L 190.000 166.800 190.000 165.000 L 190.000 163.200 188.400 163.200 L 186.800 163.200 186.800 161.600 L 186.800 160.000 185.000 160.000 L 183.200 160.000 183.200 158.400 L 183.200 156.800 180.000 156.800 L 176.800 156.800 176.800 155.000 L 176.800 153.200 175.000 153.200 L 173.200 153.200 173.200 150.000 L 173.200 146.800 171.600 146.800 L 170.000 146.800 170.000 145.000 L 170.000 143.200 175.000 143.200 L 180.000 143.200 180.000 148.400 M216.800 148.200 L 216.800 153.200 215.000 153.200 L 213.200 153.200 213.200 148.200 L 213.200 143.200 215.000 143.200 L 216.800 143.200 216.800 148.200 M190.000 161.600 L 190.000 163.200 195.000 163.200 L 200.000 163.200 200.000 161.600 L 200.000 160.000 195.000 160.000 L 190.000 160.000 190.000 161.600 M173.193 172.900 C 173.154 176.255,173.139 179.945,173.161 181.100 L 173.200 183.200 175.000 183.200 L 176.800 183.200 176.800 188.200 L 176.800 193.200 178.400 193.200 L 180.000 193.200 180.000 196.600 L 180.000 200.000 181.600 200.000 L 183.200 200.000 183.200 203.400 L 183.200 206.800 196.600 206.800 L 210.000 206.800 210.000 205.000 L 210.000 203.200 211.600 203.200 L 213.200 203.200 213.200 201.600 L 213.200 200.000 215.000 200.000 L 216.800 200.000 216.800 205.000 L 216.800 210.000 218.400 210.000 L 220.000 210.000 220.000 218.400 L 220.000 226.800 221.600 226.800 L 223.200 226.800 223.200 225.000 L 223.200 223.200 226.600 223.200 L 230.000 223.200 230.000 225.000 L 230.000 226.800 235.000 226.800 L 240.000 226.800 240.000 228.400 L 240.000 230.000 243.400 230.000 L 246.800 230.000 246.800 231.600 L 246.800 233.200 245.000 233.200 L 243.200 233.200 243.200 235.000 L 243.200 236.800 241.600 236.800 L 240.000 236.800 240.000 235.000 L 240.000 233.200 236.600 233.200 L 233.200 233.200 233.200 231.600 L 233.200 230.000 230.000 230.000 L 226.800 230.000 226.800 228.400 L 226.800 226.800 225.000 226.800 L 223.200 226.800 223.200 230.000 L 223.200 233.200 225.000 233.200 L 226.800 233.200 226.800 236.600 L 226.800 240.000 228.400 240.000 L 230.000 240.000 230.000 243.400 L 230.000 246.800 231.600 246.800 L 233.200 246.800 233.200 248.400 L 233.200 250.000 235.000 250.000 L 236.800 250.000 236.800 251.600 L 236.800 253.200 238.400 253.200 L 240.000 253.200 240.000 255.000 L 240.000 256.800 241.600 256.800 L 243.200 256.800 243.200 258.400 L 243.200 260.000 245.000 260.000 L 246.800 260.000 246.800 261.600 L 246.800 263.200 248.400 263.200 L 250.000 263.200 250.000 265.000 L 250.000 266.800 251.600 266.800 L 253.200 266.800 253.200 270.000 L 253.200 273.200 255.000 273.200 L 256.800 273.200 256.800 275.000 L 256.800 276.800 258.400 276.800 L 260.000 276.800 260.000 278.400 L 260.000 280.000 261.600 280.000 L 263.200 280.000 263.200 283.400 L 263.200 286.800 265.000 286.800 L 266.800 286.800 266.800 290.000 L 266.800 293.200 268.400 293.200 L 270.000 293.200 270.000 296.600 L 270.000 300.000 271.600 300.000 L 273.200 300.000 273.200 303.400 L 273.200 306.800 275.000 306.800 L 276.800 306.800 276.800 311.800 L 276.800 316.800 275.000 316.800 L 273.200 316.800 273.200 318.400 L 273.200 320.000 270.000 320.000 L 266.800 320.000 266.800 321.600 L 266.800 323.200 263.400 323.200 L 260.000 323.200 260.000 325.000 L 260.000 326.800 258.400 326.800 L 256.800 326.800 256.800 328.400 L 256.800 330.000 253.400 330.000 L 250.000 330.000 250.000 333.400 L 250.000 336.800 248.400 336.800 L 246.800 336.800 246.800 341.800 L 246.800 346.800 245.000 346.800 L 243.200 346.800 243.200 345.000 L 243.200 343.200 241.600 343.200 L 240.000 343.200 240.000 341.600 L 240.000 340.000 236.600 340.000 L 233.200 340.000 233.200 338.400 L 233.200 336.800 231.600 336.800 L 230.000 336.800 230.000 338.400 L 230.000 340.000 226.600 340.000 L 223.200 340.000 223.200 341.600 L 223.200 343.200 221.600 343.200 L 220.000 343.200 220.000 345.000 L 220.000 346.800 216.600 346.800 L 213.200 346.800 213.200 345.000 L 213.200 343.200 211.600 343.200 L 210.000 343.200 210.000 341.600 L 210.000 340.000 208.400 340.000 L 206.800 340.000 206.800 338.400 L 206.800 336.800 201.800 336.800 L 196.800 336.800 196.800 338.400 L 196.800 340.000 195.000 340.000 L 193.200 340.000 193.200 341.600 L 193.200 343.200 191.600 343.200 L 190.000 343.200 190.000 345.000 L 190.000 346.800 181.600 346.800 L 173.200 346.800 173.200 345.000 L 173.200 343.200 171.600 343.200 L 170.000 343.200 170.000 338.200 L 170.000 333.200 168.400 333.200 L 166.800 333.200 166.800 325.000 L 166.800 316.800 168.400 316.800 L 170.000 316.800 170.000 308.400 L 170.000 300.000 171.600 300.000 L 173.200 300.000 173.200 293.400 L 173.200 286.800 175.000 286.800 L 176.800 286.800 176.800 280.000 L 176.800 273.200 180.000 273.200 L 183.200 273.200 183.200 271.600 L 183.200 270.000 180.000 270.000 L 176.800 270.000 176.800 263.400 L 176.800 256.800 175.000 256.800 L 173.200 256.800 173.200 258.400 L 173.200 260.000 171.600 260.000 L 170.000 260.000 170.000 258.400 L 170.000 256.800 168.400 256.800 L 166.800 256.800 166.800 255.000 L 166.800 253.200 165.000 253.200 L 163.200 253.200 163.200 250.000 L 163.200 246.800 161.600 246.800 L 160.000 246.800 160.000 243.400 L 160.000 240.000 158.400 240.000 L 156.800 240.000 156.800 235.000 L 156.800 230.000 155.000 230.000 L 153.200 230.000 153.200 225.000 L 153.200 220.000 155.000 220.000 L 156.800 220.000 156.800 205.000 L 156.800 190.000 158.400 190.000 L 160.000 190.000 160.000 186.600 L 160.000 183.200 161.600 183.200 L 163.200 183.200 163.200 181.600 L 163.200 180.000 166.600 179.950 C 170.937 179.886,171.296 179.854,171.900 179.470 C 172.201 179.279,172.400 179.348,172.400 179.643 C 172.400 179.913,172.519 180.014,172.664 179.869 C 172.810 179.724,172.585 179.213,172.164 178.734 C 171.744 178.255,171.653 178.011,171.962 178.193 C 172.366 178.431,172.433 178.376,172.200 178.000 C 171.972 177.631,172.031 177.572,172.400 177.800 C 172.725 178.001,172.826 177.966,172.668 177.710 C 172.528 177.483,171.870 177.343,171.206 177.399 C 170.543 177.456,170.000 177.344,170.000 177.151 C 170.000 176.958,169.280 176.800,168.400 176.800 L 166.800 176.800 166.800 173.400 L 166.800 170.000 168.400 170.000 L 170.000 170.000 170.000 168.400 L 170.000 166.800 171.633 166.800 L 173.265 166.800 173.193 172.900 M171.376 178.039 C 171.272 178.207,171.373 178.460,171.600 178.600 C 172.202 178.972,171.714 179.546,170.898 179.426 C 169.819 179.268,169.879 177.733,170.965 177.733 C 171.295 177.733,171.480 177.871,171.376 178.039 M263.200 198.400 L 263.200 206.800 261.600 206.800 L 260.000 206.800 260.000 210.000 L 260.000 213.200 256.600 213.200 L 253.200 213.200 253.200 215.000 L 253.200 216.800 248.200 216.800 L 243.200 216.800 243.200 215.000 L 243.200 213.200 240.000 213.200 L 236.800 213.200 236.800 210.000 L 236.800 206.800 235.000 206.800 L 233.200 206.800 233.200 198.400 L 233.200 190.000 248.200 190.000 L 263.200 190.000 263.200 198.400 M173.200 201.800 L 173.200 206.800 171.600 206.800 L 170.000 206.800 170.000 215.000 L 170.000 223.200 168.400 223.200 L 166.800 223.200 166.800 226.600 L 166.800 230.000 168.400 230.000 L 170.000 230.000 170.000 235.000 L 170.000 240.000 171.600 240.000 L 173.200 240.000 173.200 243.400 L 173.200 246.800 175.000 246.800 L 176.800 246.800 176.800 248.400 L 176.800 250.000 178.400 250.000 L 180.000 250.000 180.000 251.600 L 180.000 253.200 178.400 253.200 L 176.800 253.200 176.800 255.000 L 176.800 256.800 180.000 256.800 L 183.200 256.800 183.200 258.400 L 183.200 260.000 185.000 260.000 L 186.800 260.000 186.800 263.400 L 186.800 266.800 185.000 266.800 L 183.200 266.800 183.200 268.400 L 183.200 270.000 185.000 270.000 L 186.800 270.000 186.800 268.400 L 186.800 266.800 188.400 266.800 L 190.000 266.800 190.000 263.400 L 190.000 260.000 188.400 260.000 L 186.800 260.000 186.800 258.400 L 186.800 256.800 185.000 256.800 L 183.200 256.800 183.200 253.400 L 183.200 250.000 181.600 250.000 L 180.000 250.000 180.000 248.400 L 180.000 246.800 178.400 246.800 L 176.800 246.800 176.800 243.400 L 176.800 240.000 175.000 240.000 L 173.200 240.000 173.200 235.000 L 173.200 230.000 171.600 230.000 L 170.000 230.000 170.000 226.600 L 170.000 223.200 171.600 223.200 L 173.200 223.200 173.200 215.000 L 173.200 206.800 175.000 206.800 L 176.800 206.800 176.800 201.800 L 176.800 196.800 175.000 196.800 L 173.200 196.800 173.200 201.800 M253.200 221.600 L 253.200 223.200 251.600 223.200 L 250.000 223.200 250.000 221.600 L 250.000 220.000 251.600 220.000 L 253.200 220.000 253.200 221.600 M260.000 228.200 L 260.000 233.200 255.000 233.200 L 250.000 233.200 250.000 230.000 L 250.000 226.800 251.600 226.800 L 253.200 226.800 253.200 225.000 L 253.200 223.200 256.600 223.200 L 260.000 223.200 260.000 228.200 M213.200 335.000 L 213.200 336.800 215.000 336.800 L 216.800 336.800 216.800 340.000 L 216.800 343.200 218.400 343.200 L 220.000 343.200 220.000 340.000 L 220.000 336.800 218.400 336.800 L 216.800 336.800 216.800 335.000 L 216.800 333.200 215.000 333.200 L 213.200 333.200 213.200 335.000 " stroke="none" fill="#040404" fill-rule="evenodd"></path><path id="path6" d="M190.000 158.400 L 190.000 160.000 188.400 160.000 L 186.800 160.000 186.800 161.600 L 186.800 163.200 188.400 163.200 L 190.000 163.200 190.000 165.000 L 190.000 166.800 196.600 166.800 L 203.200 166.800 203.200 163.400 L 203.200 160.000 201.600 160.000 L 200.000 160.000 200.000 158.400 L 200.000 156.800 195.000 156.800 L 190.000 156.800 190.000 158.400 M200.000 161.600 L 200.000 163.200 195.000 163.200 L 190.000 163.200 190.000 161.600 L 190.000 160.000 195.000 160.000 L 200.000 160.000 200.000 161.600 " stroke="none" fill="#ac74cc" fill-rule="evenodd"></path><path id="path7" d="M173.200 145.000 L 173.200 146.800 175.000 146.800 L 176.800 146.800 176.800 148.400 L 176.800 150.000 178.400 150.000 L 180.000 150.000 180.000 146.600 L 180.000 143.200 176.600 143.200 L 173.200 143.200 173.200 145.000 M196.800 145.000 L 196.800 146.800 198.400 146.800 L 200.000 146.800 200.000 148.400 L 200.000 150.000 201.600 150.000 L 203.200 150.000 203.200 146.600 L 203.200 143.200 200.000 143.200 L 196.800 143.200 196.800 145.000 " stroke="none" fill="#fcf4f4" fill-rule="evenodd"></path><path id="path8" d="" stroke="none" fill="#d0c8d8" fill-rule="evenodd"></path></g></svg>