<svg id="svg" version="1.1" xmlns="http://www.w3.org/2000/svg" xmlns:xlink="http://www.w3.org/1999/xlink" width="400" height="400" viewBox="0, 0, 400,400"><g id="svgg"><path id="path0" d="M163.200 186.600 L 163.200 193.200 165.000 193.200 L 166.800 193.200 166.800 195.000 L 166.800 196.800 168.400 196.800 L 170.000 196.800 170.000 198.400 L 170.000 200.000 171.600 200.000 L 173.200 200.000 173.200 203.400 L 173.200 206.800 171.600 206.800 L 170.000 206.800 170.000 215.000 L 170.000 223.200 168.400 223.200 L 166.800 223.200 166.800 226.600 L 166.800 230.000 168.400 230.000 L 170.000 230.000 170.000 235.000 L 170.000 240.000 171.600 240.000 L 173.200 240.000 173.200 243.400 L 173.200 246.800 175.000 246.800 L 176.800 246.800 176.800 250.000 L 176.800 253.200 180.000 253.200 L 183.200 253.200 183.200 255.000 L 183.200 256.800 186.600 256.800 L 190.000 256.800 190.000 261.800 L 190.000 266.800 188.400 266.800 L 186.800 266.800 186.800 268.400 L 186.800 270.000 185.000 270.000 L 183.200 270.000 183.200 271.600 L 183.200 273.200 181.600 273.200 L 180.000 273.200 180.000 275.000 L 180.000 276.800 178.400 276.800 L 176.800 276.800 176.800 273.400 L 176.800 270.000 175.000 270.000 L 173.200 270.000 173.200 265.000 L 173.200 260.000 171.600 260.000 L 170.000 260.000 170.000 258.400 L 170.000 256.800 168.400 256.800 L 166.800 256.800 166.800 261.800 L 166.800 266.800 168.400 266.800 L 170.000 266.800 170.000 280.000 L 170.000 293.200 171.600 293.200 L 173.200 293.200 173.200 300.000 L 173.200 306.800 175.000 306.800 L 176.800 306.800 176.800 308.400 L 176.800 310.000 178.400 310.000 L 180.000 310.000 180.000 308.400 L 180.000 306.800 185.000 306.800 L 190.000 306.800 190.000 305.000 L 190.000 303.200 191.600 303.200 L 193.200 303.200 193.200 301.600 L 193.200 300.000 195.000 300.000 L 196.800 300.000 196.800 298.400 L 196.800 296.800 198.400 296.800 L 200.000 296.800 200.000 293.400 L 200.000 290.000 201.600 290.000 L 203.200 290.000 203.200 288.400 L 203.200 286.800 205.000 286.800 L 206.800 286.800 206.800 285.000 L 206.800 283.200 208.400 283.200 L 210.000 283.200 210.000 285.000 L 210.000 286.800 215.000 286.800 L 220.000 286.800 220.000 288.400 L 220.000 290.000 221.600 290.000 L 223.200 290.000 223.200 291.600 L 223.200 293.200 228.200 293.200 L 233.200 293.200 233.200 295.000 L 233.200 296.800 235.000 296.800 L 236.800 296.800 236.800 295.000 L 236.800 293.200 238.400 293.200 L 240.000 293.200 240.000 290.000 L 240.000 286.800 241.600 286.800 L 243.200 286.800 243.200 283.400 L 243.200 280.000 253.200 280.000 L 263.200 280.000 263.200 278.400 L 263.200 276.800 261.600 276.800 L 260.000 276.800 260.000 275.000 L 260.000 273.200 258.400 273.200 L 256.800 273.200 256.800 270.000 L 256.800 266.800 253.400 266.800 L 250.000 266.800 250.000 263.400 L 250.000 260.000 248.400 260.000 L 246.800 260.000 246.800 258.400 L 246.800 256.800 245.000 256.800 L 243.200 256.800 243.200 255.000 L 243.200 253.200 241.600 253.200 L 240.000 253.200 240.000 250.000 L 240.000 246.800 238.400 246.800 L 236.800 246.800 236.800 245.000 L 236.800 243.200 235.000 243.200 L 233.200 243.200 233.200 240.000 L 233.200 236.800 231.600 236.800 L 230.000 236.800 230.000 235.000 L 230.000 233.200 228.400 233.200 L 226.800 233.200 226.800 230.000 L 226.800 226.800 225.000 226.800 L 223.200 226.800 223.200 223.400 L 223.200 220.000 221.600 220.000 L 220.000 220.000 220.000 203.400 L 220.000 186.800 218.400 186.800 L 216.800 186.800 216.800 185.000 L 216.800 183.200 215.000 183.200 L 213.200 183.200 213.200 185.000 L 213.200 186.800 211.600 186.800 L 210.000 186.800 210.000 188.400 L 210.000 190.000 206.600 190.000 L 203.200 190.000 203.200 191.600 L 203.200 193.200 201.600 193.200 L 200.000 193.200 200.000 195.000 L 200.000 196.800 196.600 196.800 L 193.200 196.800 193.200 195.000 L 193.200 193.200 190.000 193.200 L 186.800 193.200 186.800 191.600 L 186.800 190.000 181.800 190.000 L 176.800 190.000 176.800 188.400 L 176.800 186.800 175.000 186.800 L 173.200 186.800 173.200 185.000 L 173.200 183.200 170.000 183.200 L 166.800 183.200 166.800 181.600 L 166.800 180.000 165.000 180.000 L 163.200 180.000 163.200 186.600 " stroke="none" fill="#7bda2c" fill-rule="evenodd"></path><path id="path1" d="M233.200 118.200 L 233.200 123.200 231.600 123.200 L 230.000 123.200 230.000 130.000 L 230.000 136.800 228.400 136.800 L 226.800 136.800 226.800 140.000 L 226.800 143.200 225.000 143.200 L 223.200 143.200 223.200 150.000 L 223.200 156.800 221.600 156.800 L 220.000 156.800 220.000 170.000 L 220.000 183.200 221.600 183.200 L 223.200 183.200 223.200 198.200 L 223.200 213.200 226.600 213.200 L 230.000 213.200 230.000 211.600 L 230.000 210.000 231.600 210.000 L 233.200 210.000 233.200 208.400 L 233.200 206.800 235.000 206.800 L 236.800 206.800 236.800 205.000 L 236.800 203.200 238.400 203.200 L 240.000 203.200 240.000 200.000 L 240.000 196.800 241.600 196.800 L 243.200 196.800 243.200 193.400 L 243.200 190.000 245.000 190.000 L 246.800 190.000 246.800 165.000 L 246.800 140.000 245.000 140.000 L 243.200 140.000 243.200 136.600 L 243.200 133.200 241.600 133.200 L 240.000 133.200 240.000 128.200 L 240.000 123.200 238.400 123.200 L 236.800 123.200 236.800 118.200 L 236.800 113.200 235.000 113.200 L 233.200 113.200 233.200 118.200 M126.800 150.000 L 126.800 183.200 128.400 183.200 L 130.000 183.200 130.000 191.600 L 130.000 200.000 131.600 200.000 L 133.200 200.000 133.200 203.400 L 133.200 206.800 135.000 206.800 L 136.800 206.800 136.800 208.400 L 136.800 210.000 138.400 210.000 L 140.000 210.000 140.000 211.600 L 140.000 213.200 141.600 213.200 L 143.200 213.200 143.200 215.000 L 143.200 216.800 145.000 216.800 L 146.800 216.800 146.800 218.400 L 146.800 220.000 151.800 220.000 L 156.800 220.000 156.800 211.600 L 156.800 203.200 155.000 203.200 L 153.200 203.200 153.200 185.000 L 153.200 166.800 151.600 166.800 L 150.000 166.800 150.000 163.400 L 150.000 160.000 148.400 160.000 L 146.800 160.000 146.800 156.600 L 146.800 153.200 145.000 153.200 L 143.200 153.200 143.200 150.000 L 143.200 146.800 141.600 146.800 L 140.000 146.800 140.000 143.400 L 140.000 140.000 138.400 140.000 L 136.800 140.000 136.800 136.600 L 136.800 133.200 135.000 133.200 L 133.200 133.200 133.200 128.200 L 133.200 123.200 131.600 123.200 L 130.000 123.200 130.000 120.000 L 130.000 116.800 128.400 116.800 L 126.800 116.800 126.800 150.000 " stroke="none" fill="#40bbd7" fill-rule="evenodd"></path><path id="path2" d="M191.500 53.493 L 193.200 53.646 193.200 61.823 L 193.200 70.000 195.000 70.000 L 196.800 70.000 196.800 61.600 L 196.800 53.200 193.300 53.270 C 191.375 53.308,190.565 53.409,191.500 53.493 M190.163 76.800 C 190.163 80.430,190.223 81.915,190.298 80.100 C 190.372 78.285,190.372 75.315,190.298 73.500 C 190.223 71.685,190.163 73.170,190.163 76.800 M192.963 76.800 C 192.963 80.430,193.023 81.915,193.098 80.100 C 193.172 78.285,193.172 75.315,193.098 73.500 C 193.023 71.685,192.963 73.170,192.963 76.800 M160.000 85.000 L 160.000 86.800 158.400 86.800 L 156.800 86.800 156.800 88.400 L 156.800 90.000 155.000 90.000 L 153.200 90.000 153.200 100.000 L 153.200 110.000 155.000 110.000 L 156.800 110.000 156.800 111.600 L 156.800 113.200 160.000 113.200 L 163.200 113.200 163.200 115.000 L 163.200 116.800 160.000 116.800 L 156.800 116.800 156.800 123.400 L 156.800 130.000 160.000 130.000 L 163.200 130.000 163.200 126.600 L 163.200 123.200 165.000 123.200 L 166.800 123.200 166.800 118.200 L 166.800 113.200 170.000 113.200 L 173.200 113.200 173.200 111.600 L 173.200 110.000 175.000 110.000 L 176.800 110.000 176.800 108.400 L 176.800 106.800 183.400 106.800 L 190.000 106.800 190.000 108.400 L 190.000 110.000 191.600 110.000 L 193.200 110.000 193.200 111.600 L 193.200 113.200 196.600 113.200 L 200.000 113.200 200.000 115.000 L 200.000 116.800 201.600 116.800 L 203.200 116.800 203.200 118.400 L 203.200 120.000 201.600 120.000 L 200.000 120.000 200.000 123.400 L 200.000 126.800 201.600 126.800 L 203.200 126.800 203.200 128.400 L 203.200 130.000 205.000 130.000 L 206.800 130.000 206.800 135.000 L 206.800 140.000 211.800 140.000 L 216.800 140.000 216.800 138.400 L 216.800 136.800 218.400 136.800 L 220.000 136.800 220.000 128.400 L 220.000 120.000 218.400 120.000 L 216.800 120.000 216.800 116.600 L 216.800 113.200 215.000 113.200 L 213.200 113.200 213.200 110.000 L 213.200 106.800 211.600 106.800 L 210.000 106.800 210.000 105.000 L 210.000 103.200 208.400 103.200 L 206.800 103.200 206.800 100.000 L 206.800 96.800 203.400 96.800 L 200.000 96.800 200.000 95.000 L 200.000 93.200 190.000 93.200 L 180.000 93.200 180.000 90.000 L 180.000 86.800 178.400 86.800 L 176.800 86.800 176.800 85.000 L 176.800 83.200 168.400 83.200 L 160.000 83.200 160.000 85.000 M190.109 88.400 C 190.109 89.390,190.187 89.795,190.282 89.300 C 190.378 88.805,190.378 87.995,190.282 87.500 C 190.187 87.005,190.109 87.410,190.109 88.400 M206.800 123.400 L 206.800 126.800 211.800 126.800 L 216.800 126.800 216.800 131.800 L 216.800 136.800 215.000 136.800 L 213.200 136.800 213.200 133.400 L 213.200 130.000 210.000 130.000 L 206.800 130.000 206.800 128.400 L 206.800 126.800 205.000 126.800 L 203.200 126.800 203.200 123.400 L 203.200 120.000 205.000 120.000 L 206.800 120.000 206.800 123.400 M173.200 145.000 L 173.200 146.800 175.000 146.800 L 176.800 146.800 176.800 148.400 L 176.800 150.000 178.400 150.000 L 180.000 150.000 180.000 146.600 L 180.000 143.200 176.600 143.200 L 173.200 143.200 173.200 145.000 M196.800 145.000 L 196.800 146.800 198.400 146.800 L 200.000 146.800 200.000 148.400 L 200.000 150.000 201.600 150.000 L 203.200 150.000 203.200 146.600 L 203.200 143.200 200.000 143.200 L 196.800 143.200 196.800 145.000 M213.200 148.400 L 213.200 153.600 210.000 153.600 L 206.800 153.600 206.800 161.800 L 206.800 170.000 210.000 170.000 L 213.200 170.000 213.200 171.600 L 213.200 173.200 211.600 173.200 L 210.000 173.200 210.000 175.000 L 210.000 176.800 211.600 176.800 L 213.200 176.800 213.200 178.400 L 213.200 180.000 215.000 180.000 L 216.800 180.000 216.800 178.400 L 216.800 176.800 215.000 176.800 L 213.200 176.800 213.200 175.000 L 213.200 173.200 215.000 173.200 L 216.800 173.200 216.800 171.600 L 216.800 170.000 215.000 170.000 L 213.200 170.000 213.200 168.200 L 213.200 166.400 215.000 166.400 L 216.800 166.400 216.800 154.800 L 216.800 143.200 215.000 143.200 L 213.200 143.200 213.200 148.400 M156.800 171.600 L 156.800 173.200 158.400 173.200 L 160.000 173.200 160.000 171.600 L 160.000 170.000 158.400 170.000 L 156.800 170.000 156.800 171.600 M166.800 175.000 L 166.800 176.800 168.400 176.800 L 170.000 176.800 170.000 175.000 L 170.000 173.200 168.400 173.200 L 166.800 173.200 166.800 175.000 M176.800 178.400 L 176.800 180.000 178.400 180.000 L 180.000 180.000 180.000 178.400 L 180.000 176.800 178.400 176.800 L 176.800 176.800 176.800 178.400 M183.200 178.400 L 183.200 180.000 185.000 180.000 L 186.800 180.000 186.800 178.400 L 186.800 176.800 185.000 176.800 L 183.200 176.800 183.200 178.400 M190.000 178.400 L 190.000 180.000 191.600 180.000 L 193.200 180.000 193.200 178.400 L 193.200 176.800 191.600 176.800 L 190.000 176.800 190.000 178.400 M196.800 178.400 L 196.800 180.000 198.400 180.000 L 200.000 180.000 200.000 178.400 L 200.000 176.800 198.400 176.800 L 196.800 176.800 196.800 178.400 M203.200 178.400 L 203.200 180.000 205.000 180.000 L 206.800 180.000 206.800 178.400 L 206.800 176.800 205.000 176.800 L 203.200 176.800 203.200 178.400 M169.600 203.175 L 169.600 206.349 168.300 206.511 C 167.020 206.669,167.023 206.673,168.500 206.736 L 170.000 206.800 170.000 203.400 C 170.000 201.530,169.910 200.000,169.800 200.000 C 169.690 200.000,169.600 201.429,169.600 203.175 M166.400 214.976 L 166.400 222.752 164.900 222.909 L 163.400 223.066 165.100 223.133 L 166.800 223.200 166.800 215.200 C 166.800 210.800,166.710 207.200,166.600 207.200 C 166.490 207.200,166.400 210.699,166.400 214.976 M162.976 227.000 L 163.000 230.200 164.684 230.322 L 166.368 230.444 166.503 233.722 L 166.637 237.000 166.719 233.500 L 166.800 230.000 165.016 230.000 L 163.232 230.000 163.092 226.900 L 162.952 223.800 162.976 227.000 M168.077 240.290 C 169.451 240.435,169.565 240.549,169.710 241.923 L 169.866 243.400 169.933 241.700 L 170.000 240.000 168.300 240.067 L 166.600 240.134 168.077 240.290 M171.277 247.090 C 172.651 247.235,172.765 247.349,172.910 248.723 L 173.066 250.200 173.133 248.500 L 173.200 246.800 171.500 246.867 L 169.800 246.934 171.277 247.090 M174.678 253.492 C 176.335 253.642,176.358 253.665,176.478 255.322 L 176.600 257.000 179.676 257.116 L 182.752 257.233 182.912 258.516 C 183.067 259.760,183.074 259.753,183.136 258.300 L 183.200 256.800 180.000 256.800 L 176.800 256.800 176.800 255.000 L 176.800 253.200 174.900 253.270 L 173.000 253.340 174.678 253.492 M184.900 260.291 L 186.400 260.448 186.400 263.401 L 186.400 266.354 184.700 266.507 L 183.000 266.660 184.900 266.730 L 186.800 266.800 186.800 263.400 L 186.800 260.000 185.100 260.067 L 183.400 260.134 184.900 260.291 M246.800 285.000 L 246.800 286.800 248.400 286.800 L 250.000 286.800 250.000 288.400 L 250.000 290.000 251.600 290.000 L 253.200 290.000 253.200 291.600 L 253.200 293.200 255.000 293.200 L 256.800 293.200 256.800 295.000 L 256.800 296.800 258.400 296.800 L 260.000 296.800 260.000 298.400 L 260.000 300.000 261.600 300.000 L 263.200 300.000 263.200 301.600 L 263.200 303.200 265.000 303.200 L 266.800 303.200 266.800 305.000 L 266.800 306.800 268.400 306.800 L 270.000 306.800 270.000 308.400 L 270.000 310.000 271.600 310.000 L 273.200 310.000 273.200 311.600 L 273.200 313.200 275.000 313.200 L 276.800 313.200 276.800 310.000 L 276.800 306.800 275.000 306.800 L 273.200 306.800 273.200 305.000 L 273.200 303.200 271.600 303.200 L 270.000 303.200 270.000 301.600 L 270.000 300.000 268.400 300.000 L 266.800 300.000 266.800 298.400 L 266.800 296.800 265.000 296.800 L 263.200 296.800 263.200 295.000 L 263.200 293.200 261.600 293.200 L 260.000 293.200 260.000 291.600 L 260.000 290.000 258.400 290.000 L 256.800 290.000 256.800 288.400 L 256.800 286.800 255.000 286.800 L 253.200 286.800 253.200 285.000 L 253.200 283.200 250.000 283.200 L 246.800 283.200 246.800 285.000 " stroke="none" fill="#f3d233" fill-rule="evenodd"></path><path id="path3" d="M186.800 55.000 L 186.800 56.800 185.000 56.800 L 183.200 56.800 183.200 61.800 L 183.200 66.800 185.000 66.800 L 186.800 66.800 186.800 68.377 C 186.800 69.946,186.808 69.955,188.500 70.077 L 190.200 70.200 190.258 78.400 C 190.348 91.227,190.206 90.000,191.600 90.000 C 192.260 90.000,192.806 89.865,192.814 89.700 C 192.821 89.535,192.915 81.371,193.021 71.558 L 193.215 53.716 190.749 53.458 C 186.648 53.029,186.800 52.970,186.800 55.000 M173.200 111.600 L 173.200 113.200 171.600 113.200 L 170.000 113.200 170.000 116.600 L 170.000 120.000 168.400 120.000 L 166.800 120.000 166.800 123.400 L 166.800 126.800 165.000 126.800 L 163.200 126.800 163.200 131.800 L 163.200 136.800 161.600 136.800 L 160.000 136.800 160.000 146.800 L 160.000 156.800 158.400 156.800 L 156.800 156.800 156.800 161.600 L 156.800 166.400 160.000 166.400 L 163.200 166.400 163.200 168.200 L 163.200 170.000 168.200 170.000 L 173.200 170.000 173.200 171.600 L 173.200 173.200 191.600 173.200 L 210.000 173.200 210.000 171.600 L 210.000 170.000 208.400 170.000 L 206.800 170.000 206.800 168.400 L 206.800 166.800 195.000 166.800 L 183.200 166.800 183.200 165.000 L 183.200 163.200 181.600 163.200 L 180.000 163.200 180.000 161.600 L 180.000 160.000 181.600 160.000 L 183.200 160.000 183.200 158.200 L 183.200 156.400 193.200 156.400 L 203.200 156.400 203.200 158.200 L 203.200 160.000 205.000 160.000 L 206.800 160.000 206.800 156.800 L 206.800 153.600 205.000 153.600 L 203.200 153.600 203.200 151.800 L 203.200 150.000 201.600 150.000 L 200.000 150.000 200.000 148.400 L 200.000 146.800 198.400 146.800 L 196.800 146.800 196.800 143.400 L 196.800 140.000 201.800 140.000 L 206.800 140.000 206.800 138.400 L 206.800 136.800 205.000 136.800 L 203.200 136.800 203.200 133.400 L 203.200 130.000 201.600 130.000 L 200.000 130.000 200.000 123.400 L 200.000 116.800 196.600 116.800 L 193.200 116.800 193.200 115.000 L 193.200 113.200 191.600 113.200 L 190.000 113.200 190.000 111.600 L 190.000 110.000 186.600 110.000 L 183.200 110.000 183.200 113.400 L 183.200 116.800 181.600 116.800 L 180.000 116.800 180.000 113.400 L 180.000 110.000 176.600 110.000 L 173.200 110.000 173.200 111.600 M180.000 120.000 L 180.000 123.200 178.400 123.200 L 176.800 123.200 176.800 126.600 L 176.800 130.000 175.000 130.000 L 173.200 130.000 173.200 126.600 L 173.200 123.200 175.000 123.200 L 176.800 123.200 176.800 120.000 L 176.800 116.800 178.400 116.800 L 180.000 116.800 180.000 120.000 M193.200 141.600 L 193.200 143.200 191.600 143.200 L 190.000 143.200 190.000 148.400 L 190.000 153.600 185.000 153.600 L 180.000 153.600 180.000 151.800 L 180.000 150.000 178.400 150.000 L 176.800 150.000 176.800 148.400 L 176.800 146.800 175.000 146.800 L 173.200 146.800 173.200 143.400 L 173.200 140.000 183.200 140.000 L 193.200 140.000 193.200 141.600 M156.800 190.000 L 156.800 203.200 158.400 203.200 L 160.000 203.200 160.000 211.600 L 160.000 220.000 158.400 220.000 L 156.800 220.000 156.800 225.000 L 156.800 230.000 158.400 230.000 L 160.000 230.000 160.000 235.000 L 160.000 240.000 161.600 240.000 L 163.200 240.000 163.200 243.400 L 163.200 246.800 165.000 246.800 L 166.800 246.800 166.800 250.000 L 166.800 253.200 168.400 253.200 L 170.000 253.200 170.000 255.000 L 170.000 256.800 171.600 256.800 L 173.200 256.800 173.200 258.400 L 173.200 260.000 175.000 260.000 L 176.800 260.000 176.800 265.000 L 176.800 270.000 180.000 270.000 L 183.200 270.000 183.200 268.200 L 183.200 266.400 184.800 266.400 L 186.400 266.400 186.400 263.400 L 186.400 260.400 185.080 260.400 C 183.471 260.400,182.800 259.793,182.800 258.337 C 182.800 257.238,182.789 257.233,179.700 257.117 L 176.600 257.000 176.477 255.300 C 176.355 253.619,176.337 253.600,174.829 253.600 L 173.303 253.600 173.024 250.400 L 172.745 247.200 171.373 247.200 C 170.091 247.200,170.000 247.113,169.997 245.900 C 169.985 241.693,169.563 240.400,168.202 240.400 L 166.916 240.400 166.661 237.700 C 166.520 236.215,166.404 233.975,166.403 232.723 L 166.400 230.446 164.700 230.323 L 163.000 230.200 162.882 227.062 C 162.748 223.459,163.082 222.800,165.049 222.800 L 166.400 222.800 166.400 215.080 C 166.400 206.761,166.487 206.400,168.480 206.400 L 169.600 206.400 169.600 203.200 L 169.600 200.000 168.200 200.000 C 166.833 200.000,166.800 199.962,166.800 198.400 L 166.800 196.800 165.000 196.800 L 163.200 196.800 163.200 195.000 L 163.200 193.200 161.600 193.200 L 160.000 193.200 160.000 185.000 L 160.000 176.800 158.400 176.800 L 156.800 176.800 156.800 190.000 M180.000 185.200 L 180.000 186.800 185.000 186.800 L 190.000 186.800 190.000 188.400 L 190.000 190.000 196.600 190.000 L 203.200 190.000 203.200 188.400 L 203.200 186.800 205.000 186.800 L 206.800 186.800 206.800 185.200 L 206.800 183.600 193.400 183.600 L 180.000 183.600 180.000 185.200 M163.200 200.000 L 163.200 203.200 161.600 203.200 L 160.000 203.200 160.000 200.000 L 160.000 196.800 161.600 196.800 L 163.200 196.800 163.200 200.000 M243.200 291.800 L 243.200 296.800 241.600 296.800 L 240.000 296.800 240.000 298.400 L 240.000 300.000 235.000 300.000 L 230.000 300.000 230.000 298.400 L 230.000 296.800 226.600 296.800 L 223.200 296.800 223.200 295.000 L 223.200 293.200 221.600 293.200 L 220.000 293.200 220.000 291.600 L 220.000 290.000 213.400 290.000 L 206.800 290.000 206.800 293.400 L 206.800 296.800 208.400 296.800 L 210.000 296.800 210.000 300.000 L 210.000 303.200 208.400 303.200 L 206.800 303.200 206.800 305.000 L 206.800 306.800 208.400 306.800 L 210.000 306.800 210.000 308.400 L 210.000 310.000 213.400 310.000 L 216.800 310.000 216.800 311.600 L 216.800 313.200 220.000 313.200 L 223.200 313.200 223.200 315.000 L 223.200 316.800 228.200 316.800 L 233.200 316.800 233.200 318.400 L 233.200 320.000 241.600 320.000 L 250.000 320.000 250.000 321.600 L 250.000 323.200 256.600 323.200 L 263.200 323.200 263.200 321.600 L 263.200 320.000 268.200 320.000 L 273.200 320.000 273.200 318.400 L 273.200 316.800 275.000 316.800 L 276.800 316.800 276.800 315.000 L 276.800 313.200 275.000 313.200 L 273.200 313.200 273.200 311.600 L 273.200 310.000 271.600 310.000 L 270.000 310.000 270.000 308.400 L 270.000 306.800 268.400 306.800 L 266.800 306.800 266.800 305.000 L 266.800 303.200 265.000 303.200 L 263.200 303.200 263.200 301.600 L 263.200 300.000 261.600 300.000 L 260.000 300.000 260.000 298.400 L 260.000 296.800 258.400 296.800 L 256.800 296.800 256.800 295.000 L 256.800 293.200 255.000 293.200 L 253.200 293.200 253.200 291.600 L 253.200 290.000 251.600 290.000 L 250.000 290.000 250.000 288.400 L 250.000 286.800 246.600 286.800 L 243.200 286.800 243.200 291.800 " stroke="none" fill="#f4a404" fill-rule="evenodd"></path><path id="path4" d="M180.000 113.400 L 180.000 116.800 178.400 116.800 L 176.800 116.800 176.800 120.000 L 176.800 123.200 175.000 123.200 L 173.200 123.200 173.200 126.600 L 173.200 130.000 175.000 130.000 L 176.800 130.000 176.800 126.600 L 176.800 123.200 178.400 123.200 L 180.000 123.200 180.000 120.000 L 180.000 116.800 181.600 116.800 L 183.200 116.800 183.200 113.400 L 183.200 110.000 181.600 110.000 L 180.000 110.000 180.000 113.400 M200.000 128.400 L 200.000 130.000 201.600 130.000 L 203.200 130.000 203.200 133.400 L 203.200 136.800 205.000 136.800 L 206.800 136.800 206.800 133.400 L 206.800 130.000 205.000 130.000 L 203.200 130.000 203.200 128.400 L 203.200 126.800 201.600 126.800 L 200.000 126.800 200.000 128.400 M183.200 158.200 L 183.200 160.000 181.600 160.000 L 180.000 160.000 180.000 161.600 L 180.000 163.200 181.600 163.200 L 183.200 163.200 183.200 165.000 L 183.200 166.800 195.000 166.800 L 206.800 166.800 206.800 163.400 L 206.800 160.000 205.000 160.000 L 203.200 160.000 203.200 158.200 L 203.200 156.400 193.200 156.400 L 183.200 156.400 183.200 158.200 M200.000 161.600 L 200.000 163.200 195.000 163.200 L 190.000 163.200 190.000 161.600 L 190.000 160.000 195.000 160.000 L 200.000 160.000 200.000 161.600 " stroke="none" fill="#94541c" fill-rule="evenodd"></path><path id="path5" d="M186.800 51.600 L 186.800 53.200 185.000 53.200 L 183.200 53.200 183.200 55.000 L 183.200 56.800 181.600 56.800 L 180.000 56.800 180.000 61.800 L 180.000 66.800 181.600 66.800 L 183.200 66.800 183.200 68.400 L 183.200 70.000 185.000 70.000 L 186.800 70.000 186.800 80.000 L 186.800 90.000 185.000 90.000 L 183.200 90.000 183.200 86.575 C 183.200 83.552,183.282 83.158,183.900 83.221 C 186.114 83.446,186.400 83.261,186.400 81.600 L 186.400 80.000 173.200 80.000 L 160.000 80.000 160.000 81.600 L 160.000 83.200 158.400 83.200 L 156.800 83.200 156.800 85.000 L 156.800 86.800 155.000 86.800 L 153.200 86.800 153.200 88.400 L 153.200 90.000 151.600 90.000 L 150.000 90.000 150.000 100.000 L 150.000 110.000 151.600 110.000 L 153.200 110.000 153.200 111.600 L 153.200 113.200 155.000 113.200 L 156.800 113.200 156.800 115.000 L 156.800 116.800 155.000 116.800 L 153.200 116.800 153.200 125.000 L 153.200 133.200 155.000 133.200 L 156.800 133.200 156.800 145.000 L 156.800 156.800 155.000 156.800 L 153.200 156.800 153.200 158.400 L 153.200 160.000 151.600 160.000 L 150.000 160.000 150.000 156.600 L 150.000 153.200 148.400 153.200 L 146.800 153.200 146.800 150.000 L 146.800 146.800 145.000 146.800 L 143.200 146.800 143.200 143.400 L 143.200 140.000 141.600 140.000 L 140.000 140.000 140.000 136.600 L 140.000 133.200 138.400 133.200 L 136.800 133.200 136.800 128.200 L 136.800 123.200 135.000 123.200 L 133.200 123.200 133.200 120.000 L 133.200 116.800 131.600 116.800 L 130.000 116.800 130.000 115.000 L 130.000 113.200 128.400 113.200 L 126.800 113.200 126.800 115.000 L 126.800 116.800 125.000 116.800 L 123.200 116.800 123.200 150.000 L 123.200 183.200 125.000 183.200 L 126.800 183.200 126.800 191.600 L 126.800 200.000 128.400 200.000 L 130.000 200.000 130.000 203.400 L 130.000 206.800 131.600 206.800 L 133.200 206.800 133.200 208.400 L 133.200 210.000 135.000 210.000 L 136.800 210.000 136.800 211.600 L 136.800 213.200 138.400 213.200 L 140.000 213.200 140.000 215.000 L 140.000 216.800 141.600 216.800 L 143.200 216.800 143.200 218.400 L 143.200 220.000 145.000 220.000 L 146.800 220.000 146.800 221.600 L 146.800 223.200 150.000 223.200 L 153.200 223.200 153.200 226.600 L 153.200 230.000 155.000 230.000 L 156.800 230.000 156.800 235.000 L 156.800 240.000 158.400 240.000 L 160.000 240.000 160.000 245.000 L 160.000 250.000 161.600 250.000 L 163.200 250.000 163.200 260.000 L 163.200 270.000 165.000 270.000 L 166.800 270.000 166.800 281.600 L 166.800 293.200 168.400 293.200 L 170.000 293.200 170.000 301.600 L 170.000 310.000 171.600 310.000 L 173.200 310.000 173.200 311.800 L 173.200 313.600 178.200 313.600 L 183.200 313.600 183.200 311.800 L 183.200 310.000 185.000 310.000 L 186.800 310.000 186.800 313.400 L 186.800 316.800 185.000 316.800 L 183.200 316.800 183.200 323.400 L 183.200 330.000 181.600 330.000 L 180.000 330.000 180.000 335.000 L 180.000 340.000 178.200 340.000 L 176.400 340.000 176.400 343.400 L 176.400 346.800 178.200 346.800 L 180.000 346.800 180.000 348.400 L 180.000 350.000 193.400 350.000 L 206.800 350.000 206.800 348.400 L 206.800 346.800 205.000 346.800 L 203.200 346.800 203.200 345.000 L 203.200 343.200 201.600 343.200 L 200.000 343.200 200.000 341.600 L 200.000 340.000 198.400 340.000 L 196.800 340.000 196.800 338.400 L 196.800 336.800 195.000 336.800 L 193.200 336.800 193.200 333.400 L 193.200 330.000 195.000 330.000 L 196.800 330.000 196.800 325.000 L 196.800 320.000 198.400 320.000 L 200.000 320.000 200.000 316.600 L 200.000 313.200 201.600 313.200 L 203.200 313.200 203.200 311.600 L 203.200 310.000 206.600 310.000 L 210.000 310.000 210.000 311.600 L 210.000 313.200 213.400 313.200 L 216.800 313.200 216.800 321.600 L 216.800 330.000 215.000 330.000 L 213.200 330.000 213.200 335.000 L 213.200 340.000 211.600 340.000 L 210.000 340.000 210.000 343.400 L 210.000 346.800 211.600 346.800 L 213.200 346.800 213.200 348.400 L 213.200 350.000 228.400 350.000 L 243.600 350.000 243.600 348.400 L 243.600 346.800 241.800 346.800 L 240.000 346.800 240.000 345.000 L 240.000 343.200 236.600 343.200 L 233.200 343.200 233.200 341.600 L 233.200 340.000 231.600 340.000 L 230.000 340.000 230.000 338.400 L 230.000 336.800 228.400 336.800 L 226.800 336.800 226.800 331.800 L 226.800 326.800 228.400 326.800 L 230.000 326.800 230.000 323.400 L 230.000 320.000 231.600 320.000 L 233.200 320.000 233.200 321.600 L 233.200 323.200 241.600 323.200 L 250.000 323.200 250.000 325.000 L 250.000 326.800 256.600 326.800 L 263.200 326.800 263.200 325.000 L 263.200 323.200 268.200 323.200 L 273.200 323.200 273.200 321.600 L 273.200 320.000 275.000 320.000 L 276.800 320.000 276.800 318.400 L 276.800 316.800 278.400 316.800 L 280.000 316.800 280.000 311.800 L 280.000 306.800 278.400 306.800 L 276.800 306.800 276.800 305.000 L 276.800 303.200 275.000 303.200 L 273.200 303.200 273.200 301.600 L 273.200 300.000 271.600 300.000 L 270.000 300.000 270.000 298.400 L 270.000 296.800 268.400 296.800 L 266.800 296.800 266.800 295.000 L 266.800 293.200 265.000 293.200 L 263.200 293.200 263.200 291.600 L 263.200 290.000 261.600 290.000 L 260.000 290.000 260.000 288.400 L 260.000 286.800 258.400 286.800 L 256.800 286.800 256.800 285.000 L 256.800 283.200 261.800 283.200 L 266.800 283.200 266.800 280.000 L 266.800 276.800 265.000 276.800 L 263.200 276.800 263.200 275.000 L 263.200 273.200 261.600 273.200 L 260.000 273.200 260.000 270.000 L 260.000 266.800 258.400 266.800 L 256.800 266.800 256.800 265.000 L 256.800 263.200 255.000 263.200 L 253.200 263.200 253.200 261.600 L 253.200 260.000 251.600 260.000 L 250.000 260.000 250.000 258.400 L 250.000 256.800 248.400 256.800 L 246.800 256.800 246.800 255.000 L 246.800 253.200 245.000 253.200 L 243.200 253.200 243.200 250.000 L 243.200 246.800 241.600 246.800 L 240.000 246.800 240.000 245.000 L 240.000 243.200 238.400 243.200 L 236.800 243.200 236.800 240.000 L 236.800 236.800 235.000 236.800 L 233.200 236.800 233.200 235.000 L 233.200 233.200 231.600 233.200 L 230.000 233.200 230.000 230.000 L 230.000 226.800 228.400 226.800 L 226.800 226.800 226.800 221.800 L 226.800 216.800 228.400 216.800 L 230.000 216.800 230.000 215.000 L 230.000 213.200 231.600 213.200 L 233.200 213.200 233.200 211.600 L 233.200 210.000 235.000 210.000 L 236.800 210.000 236.800 208.400 L 236.800 206.800 238.400 206.800 L 240.000 206.800 240.000 205.000 L 240.000 203.200 241.600 203.200 L 243.200 203.200 243.200 200.000 L 243.200 196.800 241.600 196.800 L 240.000 196.800 240.000 200.000 L 240.000 203.200 238.400 203.200 L 236.800 203.200 236.800 205.000 L 236.800 206.800 235.000 206.800 L 233.200 206.800 233.200 208.400 L 233.200 210.000 231.600 210.000 L 230.000 210.000 230.000 211.600 L 230.000 213.200 226.600 213.200 L 223.200 213.200 223.200 198.200 L 223.200 183.200 221.600 183.200 L 220.000 183.200 220.000 170.000 L 220.000 156.800 221.600 156.800 L 223.200 156.800 223.200 150.000 L 223.200 143.200 225.000 143.200 L 226.800 143.200 226.800 140.000 L 226.800 136.800 228.400 136.800 L 230.000 136.800 230.000 130.000 L 230.000 123.200 231.600 123.200 L 233.200 123.200 233.200 118.200 L 233.200 113.200 235.000 113.200 L 236.800 113.200 236.800 118.200 L 236.800 123.200 238.400 123.200 L 240.000 123.200 240.000 128.200 L 240.000 133.200 241.600 133.200 L 243.200 133.200 243.200 136.600 L 243.200 140.000 245.000 140.000 L 246.800 140.000 246.800 165.000 L 246.800 190.000 245.000 190.000 L 243.200 190.000 243.200 191.600 L 243.200 193.200 245.000 193.200 L 246.800 193.200 246.800 191.600 L 246.800 190.000 248.400 190.000 L 250.000 190.000 250.000 165.000 L 250.000 140.000 248.400 140.000 L 246.800 140.000 246.800 136.600 L 246.800 133.200 245.000 133.200 L 243.200 133.200 243.200 128.200 L 243.200 123.200 241.600 123.200 L 240.000 123.200 240.000 118.200 L 240.000 113.200 238.400 113.200 L 236.800 113.200 236.800 111.600 L 236.800 110.000 235.000 110.000 L 233.200 110.000 233.200 111.600 L 233.200 113.200 231.600 113.200 L 230.000 113.200 230.000 118.200 L 230.000 123.200 228.400 123.200 L 226.800 123.200 226.800 130.000 L 226.800 136.800 225.200 136.800 L 223.600 136.800 223.600 126.800 L 223.600 116.800 221.800 116.800 L 220.000 116.800 220.000 113.400 L 220.000 110.000 218.400 110.000 L 216.800 110.000 216.800 106.600 L 216.800 103.200 215.000 103.200 L 213.200 103.200 213.200 101.600 L 213.200 100.000 211.600 100.000 L 210.000 100.000 210.000 98.400 L 210.000 96.800 208.400 96.800 L 206.800 96.800 206.800 95.000 L 206.800 93.200 205.000 93.200 L 203.200 93.200 203.200 91.600 L 203.200 90.000 200.000 90.000 L 196.800 90.000 196.800 80.000 L 196.800 70.000 198.400 70.000 L 200.000 70.000 200.000 61.600 L 200.000 53.200 198.400 53.200 L 196.800 53.200 196.800 51.600 L 196.800 50.000 191.800 50.000 L 186.800 50.000 186.800 51.600 M196.800 61.600 L 196.800 70.000 195.000 70.000 L 193.200 70.000 193.200 80.000 L 193.200 90.000 191.600 90.000 L 190.000 90.000 190.000 80.000 L 190.000 70.000 188.400 70.000 L 186.800 70.000 186.800 68.400 L 186.800 66.800 185.000 66.800 L 183.200 66.800 183.200 61.800 L 183.200 56.800 185.000 56.800 L 186.800 56.800 186.800 55.000 L 186.800 53.200 191.800 53.200 L 196.800 53.200 196.800 61.600 M176.800 85.000 L 176.800 86.800 178.400 86.800 L 180.000 86.800 180.000 90.000 L 180.000 93.200 190.000 93.200 L 200.000 93.200 200.000 95.000 L 200.000 96.800 203.400 96.800 L 206.800 96.800 206.800 100.000 L 206.800 103.200 208.400 103.200 L 210.000 103.200 210.000 105.000 L 210.000 106.800 211.600 106.800 L 213.200 106.800 213.200 110.000 L 213.200 113.200 215.000 113.200 L 216.800 113.200 216.800 116.600 L 216.800 120.000 218.400 120.000 L 220.000 120.000 220.000 128.400 L 220.000 136.800 218.400 136.800 L 216.800 136.800 216.800 138.400 L 216.800 140.000 206.800 140.000 L 196.800 140.000 196.800 141.600 L 196.800 143.200 200.000 143.200 L 203.200 143.200 203.200 148.400 L 203.200 153.600 208.200 153.600 L 213.200 153.600 213.200 148.400 L 213.200 143.200 215.000 143.200 L 216.800 143.200 216.800 154.800 L 216.800 166.400 215.000 166.400 L 213.200 166.400 213.200 168.200 L 213.200 170.000 215.000 170.000 L 216.800 170.000 216.800 171.600 L 216.800 173.200 215.000 173.200 L 213.200 173.200 213.200 175.000 L 213.200 176.800 215.000 176.800 L 216.800 176.800 216.800 178.400 L 216.800 180.000 215.000 180.000 L 213.200 180.000 213.200 178.400 L 213.200 176.800 211.600 176.800 L 210.000 176.800 210.000 175.000 L 210.000 173.200 191.600 173.200 L 173.200 173.200 173.200 171.600 L 173.200 170.000 168.200 170.000 L 163.200 170.000 163.200 168.200 L 163.200 166.400 160.000 166.400 L 156.800 166.400 156.800 161.600 L 156.800 156.800 158.400 156.800 L 160.000 156.800 160.000 146.800 L 160.000 136.800 161.600 136.800 L 163.200 136.800 163.200 133.400 L 163.200 130.000 160.000 130.000 L 156.800 130.000 156.800 123.400 L 156.800 116.800 160.000 116.800 L 163.200 116.800 163.200 115.000 L 163.200 113.200 160.000 113.200 L 156.800 113.200 156.800 111.600 L 156.800 110.000 155.000 110.000 L 153.200 110.000 153.200 100.000 L 153.200 90.000 155.000 90.000 L 156.800 90.000 156.800 88.400 L 156.800 86.800 158.400 86.800 L 160.000 86.800 160.000 85.000 L 160.000 83.200 168.400 83.200 L 176.800 83.200 176.800 85.000 M176.800 108.400 L 176.800 110.000 183.400 110.000 L 190.000 110.000 190.000 111.600 L 190.000 113.200 191.600 113.200 L 193.200 113.200 193.200 115.000 L 193.200 116.800 196.600 116.800 L 200.000 116.800 200.000 118.400 L 200.000 120.000 201.600 120.000 L 203.200 120.000 203.200 123.400 L 203.200 126.800 205.000 126.800 L 206.800 126.800 206.800 128.400 L 206.800 130.000 210.000 130.000 L 213.200 130.000 213.200 133.400 L 213.200 136.800 215.000 136.800 L 216.800 136.800 216.800 131.800 L 216.800 126.800 211.800 126.800 L 206.800 126.800 206.800 123.400 L 206.800 120.000 205.000 120.000 L 203.200 120.000 203.200 118.400 L 203.200 116.800 201.600 116.800 L 200.000 116.800 200.000 115.000 L 200.000 113.200 196.600 113.200 L 193.200 113.200 193.200 111.600 L 193.200 110.000 191.600 110.000 L 190.000 110.000 190.000 108.400 L 190.000 106.800 183.400 106.800 L 176.800 106.800 176.800 108.400 M166.800 116.600 L 166.800 120.000 168.400 120.000 L 170.000 120.000 170.000 116.600 L 170.000 113.200 168.400 113.200 L 166.800 113.200 166.800 116.600 M130.000 120.000 L 130.000 123.200 131.600 123.200 L 133.200 123.200 133.200 128.200 L 133.200 133.200 135.000 133.200 L 136.800 133.200 136.800 136.600 L 136.800 140.000 138.400 140.000 L 140.000 140.000 140.000 143.400 L 140.000 146.800 141.600 146.800 L 143.200 146.800 143.200 150.000 L 143.200 153.200 145.000 153.200 L 146.800 153.200 146.800 156.600 L 146.800 160.000 148.400 160.000 L 150.000 160.000 150.000 163.400 L 150.000 166.800 151.600 166.800 L 153.200 166.800 153.200 185.000 L 153.200 203.200 155.000 203.200 L 156.800 203.200 156.800 190.000 L 156.800 176.800 158.400 176.800 L 160.000 176.800 160.000 185.000 L 160.000 193.200 161.600 193.200 L 163.200 193.200 163.200 186.600 L 163.200 180.000 165.000 180.000 L 166.800 180.000 166.800 181.600 L 166.800 183.200 170.000 183.200 L 173.200 183.200 173.200 185.000 L 173.200 186.800 175.000 186.800 L 176.800 186.800 176.800 188.400 L 176.800 190.000 181.800 190.000 L 186.800 190.000 186.800 191.600 L 186.800 193.200 190.000 193.200 L 193.200 193.200 193.200 195.000 L 193.200 196.800 196.600 196.800 L 200.000 196.800 200.000 195.000 L 200.000 193.200 201.600 193.200 L 203.200 193.200 203.200 191.600 L 203.200 190.000 196.600 190.000 L 190.000 190.000 190.000 188.400 L 190.000 186.800 185.000 186.800 L 180.000 186.800 180.000 185.200 L 180.000 183.600 193.400 183.600 L 206.800 183.600 206.800 185.200 L 206.800 186.800 205.000 186.800 L 203.200 186.800 203.200 188.400 L 203.200 190.000 206.600 190.000 L 210.000 190.000 210.000 188.400 L 210.000 186.800 211.600 186.800 L 213.200 186.800 213.200 185.000 L 213.200 183.200 215.000 183.200 L 216.800 183.200 216.800 185.000 L 216.800 186.800 218.400 186.800 L 220.000 186.800 220.000 203.400 L 220.000 220.000 221.600 220.000 L 223.200 220.000 223.200 223.400 L 223.200 226.800 225.000 226.800 L 226.800 226.800 226.800 230.000 L 226.800 233.200 228.400 233.200 L 230.000 233.200 230.000 235.000 L 230.000 236.800 231.600 236.800 L 233.200 236.800 233.200 240.000 L 233.200 243.200 235.000 243.200 L 236.800 243.200 236.800 245.000 L 236.800 246.800 238.400 246.800 L 240.000 246.800 240.000 250.000 L 240.000 253.200 241.600 253.200 L 243.200 253.200 243.200 255.000 L 243.200 256.800 245.000 256.800 L 246.800 256.800 246.800 258.400 L 246.800 260.000 248.400 260.000 L 250.000 260.000 250.000 263.400 L 250.000 266.800 253.400 266.800 L 256.800 266.800 256.800 270.000 L 256.800 273.200 258.400 273.200 L 260.000 273.200 260.000 275.000 L 260.000 276.800 261.600 276.800 L 263.200 276.800 263.200 278.400 L 263.200 280.000 253.200 280.000 L 243.200 280.000 243.200 283.400 L 243.200 286.800 245.000 286.800 L 246.800 286.800 246.800 285.000 L 246.800 283.200 250.000 283.200 L 253.200 283.200 253.200 285.000 L 253.200 286.800 255.000 286.800 L 256.800 286.800 256.800 288.400 L 256.800 290.000 258.400 290.000 L 260.000 290.000 260.000 291.600 L 260.000 293.200 261.600 293.200 L 263.200 293.200 263.200 295.000 L 263.200 296.800 265.000 296.800 L 266.800 296.800 266.800 298.400 L 266.800 300.000 268.400 300.000 L 270.000 300.000 270.000 301.600 L 270.000 303.200 271.600 303.200 L 273.200 303.200 273.200 305.000 L 273.200 306.800 275.000 306.800 L 276.800 306.800 276.800 311.800 L 276.800 316.800 275.000 316.800 L 273.200 316.800 273.200 318.400 L 273.200 320.000 268.200 320.000 L 263.200 320.000 263.200 321.600 L 263.200 323.200 256.600 323.200 L 250.000 323.200 250.000 321.600 L 250.000 320.000 241.600 320.000 L 233.200 320.000 233.200 318.400 L 233.200 316.800 228.200 316.800 L 223.200 316.800 223.200 315.000 L 223.200 313.200 220.000 313.200 L 216.800 313.200 216.800 311.600 L 216.800 310.000 213.400 310.000 L 210.000 310.000 210.000 308.400 L 210.000 306.800 208.400 306.800 L 206.800 306.800 206.800 305.000 L 206.800 303.200 208.400 303.200 L 210.000 303.200 210.000 300.000 L 210.000 296.800 208.400 296.800 L 206.800 296.800 206.800 293.400 L 206.800 290.000 213.400 290.000 L 220.000 290.000 220.000 288.400 L 220.000 286.800 215.000 286.800 L 210.000 286.800 210.000 285.000 L 210.000 283.200 208.400 283.200 L 206.800 283.200 206.800 285.000 L 206.800 286.800 205.000 286.800 L 203.200 286.800 203.200 288.400 L 203.200 290.000 201.600 290.000 L 200.000 290.000 200.000 293.400 L 200.000 296.800 198.400 296.800 L 196.800 296.800 196.800 298.400 L 196.800 300.000 195.000 300.000 L 193.200 300.000 193.200 301.600 L 193.200 303.200 191.600 303.200 L 190.000 303.200 190.000 305.000 L 190.000 306.800 185.000 306.800 L 180.000 306.800 180.000 308.400 L 180.000 310.000 178.400 310.000 L 176.800 310.000 176.800 308.400 L 176.800 306.800 175.000 306.800 L 173.200 306.800 173.200 300.000 L 173.200 293.200 171.600 293.200 L 170.000 293.200 170.000 280.000 L 170.000 266.800 168.400 266.800 L 166.800 266.800 166.800 261.800 L 166.800 256.800 168.400 256.800 L 170.000 256.800 170.000 255.000 L 170.000 253.200 168.400 253.200 L 166.800 253.200 166.800 250.000 L 166.800 246.800 165.000 246.800 L 163.200 246.800 163.200 243.400 L 163.200 240.000 161.600 240.000 L 160.000 240.000 160.000 235.000 L 160.000 230.000 158.400 230.000 L 156.800 230.000 156.800 225.000 L 156.800 220.000 151.800 220.000 L 146.800 220.000 146.800 218.400 L 146.800 216.800 145.000 216.800 L 143.200 216.800 143.200 215.000 L 143.200 213.200 141.600 213.200 L 140.000 213.200 140.000 211.600 L 140.000 210.000 138.400 210.000 L 136.800 210.000 136.800 208.400 L 136.800 206.800 135.000 206.800 L 133.200 206.800 133.200 203.400 L 133.200 200.000 131.600 200.000 L 130.000 200.000 130.000 191.600 L 130.000 183.200 128.400 183.200 L 126.800 183.200 126.800 150.000 L 126.800 116.800 128.400 116.800 L 130.000 116.800 130.000 120.000 M163.200 125.000 L 163.200 126.800 165.000 126.800 L 166.800 126.800 166.800 125.000 L 166.800 123.200 165.000 123.200 L 163.200 123.200 163.200 125.000 M173.200 141.600 L 173.200 143.200 176.600 143.200 L 180.000 143.200 180.000 148.400 L 180.000 153.600 185.000 153.600 L 190.000 153.600 190.000 148.400 L 190.000 143.200 191.600 143.200 L 193.200 143.200 193.200 141.600 L 193.200 140.000 183.200 140.000 L 173.200 140.000 173.200 141.600 M223.200 141.600 L 223.200 143.200 221.600 143.200 L 220.000 143.200 220.000 141.600 L 220.000 140.000 221.600 140.000 L 223.200 140.000 223.200 141.600 M190.000 161.600 L 190.000 163.200 195.000 163.200 L 200.000 163.200 200.000 161.600 L 200.000 160.000 195.000 160.000 L 190.000 160.000 190.000 161.600 M160.000 171.600 L 160.000 173.200 158.400 173.200 L 156.800 173.200 156.800 171.600 L 156.800 170.000 158.400 170.000 L 160.000 170.000 160.000 171.600 M210.000 171.600 L 210.000 173.200 211.600 173.200 L 213.200 173.200 213.200 171.600 L 213.200 170.000 211.600 170.000 L 210.000 170.000 210.000 171.600 M170.000 175.000 L 170.000 176.800 168.400 176.800 L 166.800 176.800 166.800 175.000 L 166.800 173.200 168.400 173.200 L 170.000 173.200 170.000 175.000 M180.000 178.400 L 180.000 180.000 178.400 180.000 L 176.800 180.000 176.800 178.400 L 176.800 176.800 178.400 176.800 L 180.000 176.800 180.000 178.400 M186.800 178.400 L 186.800 180.000 185.000 180.000 L 183.200 180.000 183.200 178.400 L 183.200 176.800 185.000 176.800 L 186.800 176.800 186.800 178.400 M193.200 178.400 L 193.200 180.000 191.600 180.000 L 190.000 180.000 190.000 178.400 L 190.000 176.800 191.600 176.800 L 193.200 176.800 193.200 178.400 M200.000 178.400 L 200.000 180.000 198.400 180.000 L 196.800 180.000 196.800 178.400 L 196.800 176.800 198.400 176.800 L 200.000 176.800 200.000 178.400 M206.800 178.400 L 206.800 180.000 205.000 180.000 L 203.200 180.000 203.200 178.400 L 203.200 176.800 205.000 176.800 L 206.800 176.800 206.800 178.400 M163.200 195.000 L 163.200 196.800 161.600 196.800 L 160.000 196.800 160.000 200.000 L 160.000 203.200 158.400 203.200 L 156.800 203.200 156.800 211.600 L 156.800 220.000 158.400 220.000 L 160.000 220.000 160.000 211.600 L 160.000 203.200 161.600 203.200 L 163.200 203.200 163.200 200.000 L 163.200 196.800 165.000 196.800 L 166.800 196.800 166.800 198.400 L 166.800 200.000 168.400 200.000 L 170.000 200.000 170.000 203.400 L 170.000 206.800 168.400 206.800 L 166.800 206.800 166.800 215.000 L 166.800 223.200 165.000 223.200 L 163.200 223.200 163.200 226.600 L 163.200 230.000 165.000 230.000 L 166.800 230.000 166.800 235.000 L 166.800 240.000 168.400 240.000 L 170.000 240.000 170.000 243.400 L 170.000 246.800 171.600 246.800 L 173.200 246.800 173.200 250.000 L 173.200 253.200 175.000 253.200 L 176.800 253.200 176.800 255.000 L 176.800 256.800 180.000 256.800 L 183.200 256.800 183.200 258.400 L 183.200 260.000 185.000 260.000 L 186.800 260.000 186.800 263.400 L 186.800 266.800 185.000 266.800 L 183.200 266.800 183.200 268.400 L 183.200 270.000 180.000 270.000 L 176.800 270.000 176.800 265.000 L 176.800 260.000 175.000 260.000 L 173.200 260.000 173.200 258.400 L 173.200 256.800 171.600 256.800 L 170.000 256.800 170.000 258.400 L 170.000 260.000 171.600 260.000 L 173.200 260.000 173.200 265.000 L 173.200 270.000 175.000 270.000 L 176.800 270.000 176.800 273.400 L 176.800 276.800 178.400 276.800 L 180.000 276.800 180.000 275.000 L 180.000 273.200 181.600 273.200 L 183.200 273.200 183.200 271.600 L 183.200 270.000 185.000 270.000 L 186.800 270.000 186.800 268.400 L 186.800 266.800 188.400 266.800 L 190.000 266.800 190.000 261.800 L 190.000 256.800 186.600 256.800 L 183.200 256.800 183.200 255.000 L 183.200 253.200 180.000 253.200 L 176.800 253.200 176.800 250.000 L 176.800 246.800 175.000 246.800 L 173.200 246.800 173.200 243.400 L 173.200 240.000 171.600 240.000 L 170.000 240.000 170.000 235.000 L 170.000 230.000 168.400 230.000 L 166.800 230.000 166.800 226.600 L 166.800 223.200 168.400 223.200 L 170.000 223.200 170.000 215.000 L 170.000 206.800 171.600 206.800 L 173.200 206.800 173.200 203.400 L 173.200 200.000 171.600 200.000 L 170.000 200.000 170.000 198.400 L 170.000 196.800 168.400 196.800 L 166.800 196.800 166.800 195.000 L 166.800 193.200 165.000 193.200 L 163.200 193.200 163.200 195.000 M240.000 290.000 L 240.000 293.200 238.400 293.200 L 236.800 293.200 236.800 295.000 L 236.800 296.800 235.000 296.800 L 233.200 296.800 233.200 295.000 L 233.200 293.200 228.200 293.200 L 223.200 293.200 223.200 291.600 L 223.200 290.000 221.600 290.000 L 220.000 290.000 220.000 291.600 L 220.000 293.200 221.600 293.200 L 223.200 293.200 223.200 295.000 L 223.200 296.800 226.600 296.800 L 230.000 296.800 230.000 298.400 L 230.000 300.000 235.000 300.000 L 240.000 300.000 240.000 298.400 L 240.000 296.800 241.600 296.800 L 243.200 296.800 243.200 291.800 L 243.200 286.800 241.600 286.800 L 240.000 286.800 240.000 290.000 " stroke="none" fill="#040404" fill-rule="evenodd"></path><path id="path6" d="" stroke="none" fill="#602c0c" fill-rule="evenodd"></path><path id="path7" d="" stroke="none" fill="#04300c" fill-rule="evenodd"></path></g></svg>