<svg id="svg" version="1.1" xmlns="http://www.w3.org/2000/svg" xmlns:xlink="http://www.w3.org/1999/xlink" width="400" height="400" viewBox="0, 0, 400,400"><g id="svgg"><path id="path0" d="M186.800 51.600 L 186.800 53.200 185.000 53.200 L 183.200 53.200 183.200 55.000 L 183.200 56.800 181.600 56.800 L 180.000 56.800 180.000 61.800 L 180.000 66.800 181.600 66.800 L 183.200 66.800 183.200 68.400 L 183.200 70.000 185.000 70.000 L 186.800 70.000 186.800 83.400 L 186.800 96.800 185.000 96.800 L 183.200 96.800 183.200 98.400 L 183.200 100.000 181.600 100.000 L 180.000 100.000 180.000 101.600 L 180.000 103.200 178.400 103.200 L 176.800 103.200 176.800 105.000 L 176.800 106.800 175.000 106.800 L 173.200 106.800 173.200 108.400 L 173.200 110.000 171.600 110.000 L 170.000 110.000 170.000 111.600 L 170.000 113.200 168.400 113.200 L 166.800 113.200 166.800 116.600 L 166.800 120.000 165.000 120.000 L 163.200 120.000 163.200 123.400 L 163.200 126.800 161.600 126.800 L 160.000 126.800 160.000 131.800 L 160.000 136.800 158.400 136.800 L 156.800 136.800 156.800 146.800 L 156.800 156.800 155.000 156.800 L 153.200 156.800 153.200 166.800 L 153.200 176.800 151.600 176.800 L 150.000 176.800 150.000 181.800 L 150.000 186.800 148.200 186.800 L 146.400 186.800 146.400 195.000 L 146.400 203.200 148.200 203.200 L 150.000 203.200 150.000 211.600 L 150.000 220.000 148.200 220.000 L 146.400 220.000 146.400 225.000 L 146.400 230.000 148.200 230.000 L 150.000 230.000 150.000 235.000 L 150.000 240.000 151.600 240.000 L 153.200 240.000 153.200 243.400 L 153.200 246.800 155.000 246.800 L 156.800 246.800 156.800 250.000 L 156.800 253.200 158.400 253.200 L 160.000 253.200 160.000 255.000 L 160.000 256.800 161.600 256.800 L 163.200 256.800 163.200 258.400 L 163.200 260.000 165.000 260.000 L 166.800 260.000 166.800 265.000 L 166.800 270.000 168.400 270.000 L 170.000 270.000 170.000 271.600 L 170.000 273.200 173.400 273.200 L 176.800 273.200 176.800 276.600 L 176.800 280.000 178.400 280.000 L 180.000 280.000 180.000 283.400 L 180.000 286.800 181.600 286.800 L 183.200 286.800 183.200 288.400 L 183.200 290.000 185.000 290.000 L 186.800 290.000 186.800 291.600 L 186.800 293.200 188.400 293.200 L 190.000 293.200 190.000 291.600 L 190.000 290.000 191.600 290.000 L 193.200 290.000 193.200 288.400 L 193.200 286.800 195.000 286.800 L 196.800 286.800 196.800 285.000 L 196.800 283.200 195.000 283.200 L 193.200 283.200 193.200 285.000 L 193.200 286.800 191.600 286.800 L 190.000 286.800 190.000 288.400 L 190.000 290.000 188.400 290.000 L 186.800 290.000 186.800 288.400 L 186.800 286.800 185.000 286.800 L 183.200 286.800 183.200 283.400 L 183.200 280.000 181.600 280.000 L 180.000 280.000 180.000 276.600 L 180.000 273.200 183.400 273.200 L 186.800 273.200 186.800 270.000 L 186.800 266.800 188.400 266.800 L 190.000 266.800 190.000 261.800 L 190.000 256.800 188.400 256.800 L 186.800 256.800 186.800 255.000 L 186.800 253.200 183.400 253.200 L 180.000 253.200 180.000 250.000 L 180.000 246.800 178.400 246.800 L 176.800 246.800 176.800 243.400 L 176.800 240.000 175.000 240.000 L 173.200 240.000 173.200 235.000 L 173.200 230.000 171.600 230.000 L 170.000 230.000 170.000 226.600 L 170.000 223.200 171.600 223.200 L 173.200 223.200 173.200 215.000 L 173.200 206.800 175.000 206.800 L 176.800 206.800 176.800 201.800 L 176.800 196.800 175.000 196.800 L 173.200 196.800 173.200 201.800 L 173.200 206.800 171.600 206.800 L 170.000 206.800 170.000 215.000 L 170.000 223.200 168.400 223.200 L 166.800 223.200 166.800 226.600 L 166.800 230.000 168.400 230.000 L 170.000 230.000 170.000 235.000 L 170.000 240.000 171.600 240.000 L 173.200 240.000 173.200 243.400 L 173.200 246.800 175.000 246.800 L 176.800 246.800 176.800 250.000 L 176.800 253.200 178.400 253.200 L 180.000 253.200 180.000 255.000 L 180.000 256.800 183.400 256.800 L 186.800 256.800 186.800 261.800 L 186.800 266.800 185.000 266.800 L 183.200 266.800 183.200 268.400 L 183.200 270.000 176.600 270.000 L 170.000 270.000 170.000 265.000 L 170.000 260.000 168.400 260.000 L 166.800 260.000 166.800 258.400 L 166.800 256.800 165.000 256.800 L 163.200 256.800 163.200 255.000 L 163.200 253.200 161.600 253.200 L 160.000 253.200 160.000 250.000 L 160.000 246.800 158.400 246.800 L 156.800 246.800 156.800 243.400 L 156.800 240.000 155.000 240.000 L 153.200 240.000 153.200 235.000 L 153.200 230.000 151.600 230.000 L 150.000 230.000 150.000 225.000 L 150.000 220.000 151.600 220.000 L 153.200 220.000 153.200 211.600 L 153.200 203.200 155.000 203.200 L 156.800 203.200 156.800 200.000 L 156.800 196.800 158.400 196.800 L 160.000 196.800 160.000 195.000 L 160.000 193.200 158.400 193.200 L 156.800 193.200 156.800 195.000 L 156.800 196.800 155.000 196.800 L 153.200 196.800 153.200 200.000 L 153.200 203.200 151.600 203.200 L 150.000 203.200 150.000 195.000 L 150.000 186.800 151.600 186.800 L 153.200 186.800 153.200 181.800 L 153.200 176.800 158.200 176.800 L 163.200 176.800 163.200 178.400 L 163.200 180.000 168.200 180.000 L 173.200 180.000 173.200 181.600 L 173.200 183.200 176.600 183.200 L 180.000 183.200 180.000 185.000 L 180.000 186.800 193.400 186.800 L 206.800 186.800 206.800 185.000 L 206.800 183.200 210.000 183.200 L 213.200 183.200 213.200 181.600 L 213.200 180.000 215.000 180.000 L 216.800 180.000 216.800 178.400 L 216.800 176.800 218.400 176.800 L 220.000 176.800 220.000 180.000 L 220.000 183.200 221.600 183.200 L 223.200 183.200 223.200 188.200 L 223.200 193.200 225.000 193.200 L 226.800 193.200 226.800 203.200 L 226.800 213.200 225.000 213.200 L 223.200 213.200 223.200 223.200 L 223.200 233.200 225.000 233.200 L 226.800 233.200 226.800 236.600 L 226.800 240.000 228.400 240.000 L 230.000 240.000 230.000 243.400 L 230.000 246.800 231.600 246.800 L 233.200 246.800 233.200 250.000 L 233.200 253.200 235.000 253.200 L 236.800 253.200 236.800 258.200 L 236.800 263.200 238.400 263.200 L 240.000 263.200 240.000 258.200 L 240.000 253.200 238.400 253.200 L 236.800 253.200 236.800 250.000 L 236.800 246.800 235.000 246.800 L 233.200 246.800 233.200 243.400 L 233.200 240.000 231.600 240.000 L 230.000 240.000 230.000 236.600 L 230.000 233.200 228.400 233.200 L 226.800 233.200 226.800 223.200 L 226.800 213.200 228.400 213.200 L 230.000 213.200 230.000 203.200 L 230.000 193.200 228.400 193.200 L 226.800 193.200 226.800 188.200 L 226.800 183.200 225.000 183.200 L 223.200 183.200 223.200 180.000 L 223.200 176.800 221.600 176.800 L 220.000 176.800 220.000 156.800 L 220.000 136.800 218.400 136.800 L 216.800 136.800 216.800 131.800 L 216.800 126.800 215.000 126.800 L 213.200 126.800 213.200 121.800 L 213.200 116.800 211.600 116.800 L 210.000 116.800 210.000 113.400 L 210.000 110.000 208.400 110.000 L 206.800 110.000 206.800 106.600 L 206.800 103.200 205.000 103.200 L 203.200 103.200 203.200 101.600 L 203.200 100.000 201.600 100.000 L 200.000 100.000 200.000 98.400 L 200.000 96.800 198.400 96.800 L 196.800 96.800 196.800 83.400 L 196.800 70.000 198.400 70.000 L 200.000 70.000 200.000 61.600 L 200.000 53.200 198.400 53.200 L 196.800 53.200 196.800 51.600 L 196.800 50.000 191.800 50.000 L 186.800 50.000 186.800 51.600 M196.800 61.600 L 196.800 70.000 195.000 70.000 L 193.200 70.000 193.200 83.400 L 193.200 96.800 195.000 96.800 L 196.800 96.800 196.800 98.400 L 196.800 100.000 198.400 100.000 L 200.000 100.000 200.000 101.600 L 200.000 103.200 201.600 103.200 L 203.200 103.200 203.200 106.600 L 203.200 110.000 205.000 110.000 L 206.800 110.000 206.800 113.400 L 206.800 116.800 208.400 116.800 L 210.000 116.800 210.000 121.800 L 210.000 126.800 211.600 126.800 L 213.200 126.800 213.200 130.000 L 213.200 133.200 211.600 133.200 L 210.000 133.200 210.000 135.000 L 210.000 136.800 211.600 136.800 L 213.200 136.800 213.200 138.400 L 213.200 140.000 205.000 140.000 L 196.800 140.000 196.800 141.600 L 196.800 143.200 200.000 143.200 L 203.200 143.200 203.200 148.400 L 203.200 153.600 208.200 153.600 L 213.200 153.600 213.200 148.400 L 213.200 143.200 215.000 143.200 L 216.800 143.200 216.800 150.000 L 216.800 156.800 215.000 156.800 L 213.200 156.800 213.200 160.000 L 213.200 163.200 215.000 163.200 L 216.800 163.200 216.800 166.600 L 216.800 170.000 215.000 170.000 L 213.200 170.000 213.200 171.600 L 213.200 173.200 215.000 173.200 L 216.800 173.200 216.800 175.000 L 216.800 176.800 215.000 176.800 L 213.200 176.800 213.200 178.400 L 213.200 180.000 210.000 180.000 L 206.800 180.000 206.800 181.600 L 206.800 183.200 193.400 183.200 L 180.000 183.200 180.000 181.600 L 180.000 180.000 176.600 180.000 L 173.200 180.000 173.200 178.400 L 173.200 176.800 168.200 176.800 L 163.200 176.800 163.200 175.000 L 163.200 173.200 160.000 173.200 L 156.800 173.200 156.800 171.600 L 156.800 170.000 160.000 170.000 L 163.200 170.000 163.200 168.400 L 163.200 166.800 160.000 166.800 L 156.800 166.800 156.800 161.800 L 156.800 156.800 158.400 156.800 L 160.000 156.800 160.000 146.800 L 160.000 136.800 161.600 136.800 L 163.200 136.800 163.200 131.800 L 163.200 126.800 165.000 126.800 L 166.800 126.800 166.800 123.400 L 166.800 120.000 168.400 120.000 L 170.000 120.000 170.000 116.600 L 170.000 113.200 171.600 113.200 L 173.200 113.200 173.200 111.600 L 173.200 110.000 175.000 110.000 L 176.800 110.000 176.800 108.400 L 176.800 106.800 178.400 106.800 L 180.000 106.800 180.000 105.000 L 180.000 103.200 181.600 103.200 L 183.200 103.200 183.200 101.600 L 183.200 100.000 185.000 100.000 L 186.800 100.000 186.800 98.400 L 186.800 96.800 188.400 96.800 L 190.000 96.800 190.000 83.400 L 190.000 70.000 188.400 70.000 L 186.800 70.000 186.800 68.400 L 186.800 66.800 185.000 66.800 L 183.200 66.800 183.200 61.800 L 183.200 56.800 185.000 56.800 L 186.800 56.800 186.800 55.000 L 186.800 53.200 191.800 53.200 L 196.800 53.200 196.800 61.600 M190.000 68.200 L 190.000 70.000 191.600 70.000 L 193.200 70.000 193.200 68.200 L 193.200 66.400 191.600 66.400 L 190.000 66.400 190.000 68.200 M176.800 131.600 L 176.800 133.200 175.000 133.200 L 173.200 133.200 173.200 135.000 L 173.200 136.800 171.600 136.800 L 170.000 136.800 170.000 138.400 L 170.000 140.000 168.400 140.000 L 166.800 140.000 166.800 148.400 L 166.800 156.800 168.400 156.800 L 170.000 156.800 170.000 160.000 L 170.000 163.200 171.600 163.200 L 173.200 163.200 173.200 165.000 L 173.200 166.800 175.000 166.800 L 176.800 166.800 176.800 168.400 L 176.800 170.000 178.400 170.000 L 180.000 170.000 180.000 171.600 L 180.000 173.200 176.600 173.200 L 173.200 173.200 173.200 171.600 L 173.200 170.000 168.200 170.000 L 163.200 170.000 163.200 171.600 L 163.200 173.200 168.200 173.200 L 173.200 173.200 173.200 175.000 L 173.200 176.800 176.600 176.800 L 180.000 176.800 180.000 178.400 L 180.000 180.000 193.400 180.000 L 206.800 180.000 206.800 178.400 L 206.800 176.800 210.000 176.800 L 213.200 176.800 213.200 175.000 L 213.200 173.200 210.000 173.200 L 206.800 173.200 206.800 171.600 L 206.800 170.000 208.400 170.000 L 210.000 170.000 210.000 168.400 L 210.000 166.800 211.600 166.800 L 213.200 166.800 213.200 165.000 L 213.200 163.200 211.600 163.200 L 210.000 163.200 210.000 165.000 L 210.000 166.800 208.400 166.800 L 206.800 166.800 206.800 168.400 L 206.800 170.000 193.400 170.000 L 180.000 170.000 180.000 168.400 L 180.000 166.800 178.400 166.800 L 176.800 166.800 176.800 165.000 L 176.800 163.200 175.000 163.200 L 173.200 163.200 173.200 160.000 L 173.200 156.800 171.600 156.800 L 170.000 156.800 170.000 148.400 L 170.000 140.000 171.600 140.000 L 173.200 140.000 173.200 141.600 L 173.200 143.200 176.600 143.200 L 180.000 143.200 180.000 148.400 L 180.000 153.600 185.000 153.600 L 190.000 153.600 190.000 148.400 L 190.000 143.200 191.600 143.200 L 193.200 143.200 193.200 141.600 L 193.200 140.000 183.200 140.000 L 173.200 140.000 173.200 138.400 L 173.200 136.800 175.000 136.800 L 176.800 136.800 176.800 135.000 L 176.800 133.200 193.400 133.200 L 210.000 133.200 210.000 131.600 L 210.000 130.000 193.400 130.000 L 176.800 130.000 176.800 131.600 M190.000 161.600 L 190.000 163.200 195.000 163.200 L 200.000 163.200 200.000 161.600 L 200.000 160.000 195.000 160.000 L 190.000 160.000 190.000 161.600 M206.800 175.000 L 206.800 176.800 193.400 176.800 L 180.000 176.800 180.000 175.000 L 180.000 173.200 193.400 173.200 L 206.800 173.200 206.800 175.000 M203.200 191.600 L 203.200 193.200 201.600 193.200 L 200.000 193.200 200.000 195.000 L 200.000 196.800 198.400 196.800 L 196.800 196.800 196.800 198.400 L 196.800 200.000 195.000 200.000 L 193.200 200.000 193.200 201.600 L 193.200 203.200 195.000 203.200 L 196.800 203.200 196.800 205.000 L 196.800 206.800 198.400 206.800 L 200.000 206.800 200.000 208.400 L 200.000 210.000 201.600 210.000 L 203.200 210.000 203.200 211.600 L 203.200 213.200 205.000 213.200 L 206.800 213.200 206.800 211.600 L 206.800 210.000 208.400 210.000 L 210.000 210.000 210.000 208.400 L 210.000 206.800 211.600 206.800 L 213.200 206.800 213.200 205.000 L 213.200 203.200 215.000 203.200 L 216.800 203.200 216.800 201.600 L 216.800 200.000 215.000 200.000 L 213.200 200.000 213.200 198.400 L 213.200 196.800 211.600 196.800 L 210.000 196.800 210.000 195.000 L 210.000 193.200 208.400 193.200 L 206.800 193.200 206.800 191.600 L 206.800 190.000 205.000 190.000 L 203.200 190.000 203.200 191.600 M206.800 195.000 L 206.800 196.800 208.400 196.800 L 210.000 196.800 210.000 198.400 L 210.000 200.000 211.600 200.000 L 213.200 200.000 213.200 201.600 L 213.200 203.200 211.600 203.200 L 210.000 203.200 210.000 205.000 L 210.000 206.800 208.400 206.800 L 206.800 206.800 206.800 208.400 L 206.800 210.000 205.000 210.000 L 203.200 210.000 203.200 208.400 L 203.200 206.800 201.600 206.800 L 200.000 206.800 200.000 205.000 L 200.000 203.200 198.400 203.200 L 196.800 203.200 196.800 201.600 L 196.800 200.000 198.400 200.000 L 200.000 200.000 200.000 198.400 L 200.000 196.800 201.600 196.800 L 203.200 196.800 203.200 195.000 L 203.200 193.200 205.000 193.200 L 206.800 193.200 206.800 195.000 M240.000 270.000 L 240.000 273.200 241.600 273.200 L 243.200 273.200 243.200 275.000 L 243.200 276.800 245.000 276.800 L 246.800 276.800 246.800 278.400 L 246.800 280.000 248.400 280.000 L 250.000 280.000 250.000 281.600 L 250.000 283.200 251.600 283.200 L 253.200 283.200 253.200 285.000 L 253.200 286.800 255.000 286.800 L 256.800 286.800 256.800 288.400 L 256.800 290.000 258.400 290.000 L 260.000 290.000 260.000 291.600 L 260.000 293.200 261.600 293.200 L 263.200 293.200 263.200 295.000 L 263.200 296.800 265.000 296.800 L 266.800 296.800 266.800 298.400 L 266.800 300.000 268.400 300.000 L 270.000 300.000 270.000 301.600 L 270.000 303.200 271.600 303.200 L 273.200 303.200 273.200 305.000 L 273.200 306.800 275.000 306.800 L 276.800 306.800 276.800 308.400 L 276.800 310.000 278.400 310.000 L 280.000 310.000 280.000 311.600 L 280.000 313.200 278.400 313.200 L 276.800 313.200 276.800 315.000 L 276.800 316.800 275.000 316.800 L 273.200 316.800 273.200 318.400 L 273.200 320.000 268.200 320.000 L 263.200 320.000 263.200 321.600 L 263.200 323.200 256.600 323.200 L 250.000 323.200 250.000 321.600 L 250.000 320.000 241.600 320.000 L 233.200 320.000 233.200 318.400 L 233.200 316.800 235.000 316.800 L 236.800 316.800 236.800 315.000 L 236.800 313.200 235.000 313.200 L 233.200 313.200 233.200 315.000 L 233.200 316.800 231.600 316.800 L 230.000 316.800 230.000 321.800 L 230.000 326.800 228.400 326.800 L 226.800 326.800 226.800 331.800 L 226.800 336.800 228.400 336.800 L 230.000 336.800 230.000 338.400 L 230.000 340.000 233.400 340.000 L 236.800 340.000 236.800 343.400 L 236.800 346.800 225.000 346.800 L 213.200 346.800 213.200 338.400 L 213.200 330.000 215.000 330.000 L 216.800 330.000 216.800 321.600 L 216.800 313.200 218.400 313.200 L 220.000 313.200 220.000 310.000 L 220.000 306.800 218.400 306.800 L 216.800 306.800 216.800 301.800 L 216.800 296.800 218.400 296.800 L 220.000 296.800 220.000 291.800 L 220.000 286.800 218.400 286.800 L 216.800 286.800 216.800 283.400 L 216.800 280.000 215.000 280.000 L 213.200 280.000 213.200 278.400 L 213.200 276.800 210.000 276.800 L 206.800 276.800 206.800 275.000 L 206.800 273.200 203.400 273.200 L 200.000 273.200 200.000 275.000 L 200.000 276.800 203.400 276.800 L 206.800 276.800 206.800 278.400 L 206.800 280.000 210.000 280.000 L 213.200 280.000 213.200 283.400 L 213.200 286.800 215.000 286.800 L 216.800 286.800 216.800 291.800 L 216.800 296.800 215.000 296.800 L 213.200 296.800 213.200 301.800 L 213.200 306.800 211.600 306.800 L 210.000 306.800 210.000 310.000 L 210.000 313.200 208.400 313.200 L 206.800 313.200 206.800 316.600 L 206.800 320.000 205.000 320.000 L 203.200 320.000 203.200 325.000 L 203.200 330.000 201.600 330.000 L 200.000 330.000 200.000 333.400 L 200.000 336.800 201.600 336.800 L 203.200 336.800 203.200 338.400 L 203.200 340.000 206.600 340.000 L 210.000 340.000 210.000 343.400 L 210.000 346.800 196.600 346.800 L 183.200 346.800 183.200 336.800 L 183.200 326.800 185.000 326.800 L 186.800 326.800 186.800 321.800 L 186.800 316.800 188.400 316.800 L 190.000 316.800 190.000 310.000 L 190.000 303.200 188.400 303.200 L 186.800 303.200 186.800 310.000 L 186.800 316.800 185.000 316.800 L 183.200 316.800 183.200 321.800 L 183.200 326.800 181.600 326.800 L 180.000 326.800 180.000 336.800 L 180.000 346.800 181.600 346.800 L 183.200 346.800 183.200 348.400 L 183.200 350.000 196.600 350.000 L 210.000 350.000 210.000 348.400 L 210.000 346.800 211.600 346.800 L 213.200 346.800 213.200 348.400 L 213.200 350.000 225.000 350.000 L 236.800 350.000 236.800 348.400 L 236.800 346.800 238.400 346.800 L 240.000 346.800 240.000 343.400 L 240.000 340.000 238.400 340.000 L 236.800 340.000 236.800 338.400 L 236.800 336.800 233.400 336.800 L 230.000 336.800 230.000 331.800 L 230.000 326.800 231.600 326.800 L 233.200 326.800 233.200 325.000 L 233.200 323.200 241.600 323.200 L 250.000 323.200 250.000 325.000 L 250.000 326.800 256.600 326.800 L 263.200 326.800 263.200 325.000 L 263.200 323.200 268.200 323.200 L 273.200 323.200 273.200 321.600 L 273.200 320.000 275.000 320.000 L 276.800 320.000 276.800 318.400 L 276.800 316.800 278.400 316.800 L 280.000 316.800 280.000 315.000 L 280.000 313.200 281.800 313.200 L 283.600 313.200 283.600 311.600 L 283.600 310.000 281.800 310.000 L 280.000 310.000 280.000 308.400 L 280.000 306.800 278.400 306.800 L 276.800 306.800 276.800 305.000 L 276.800 303.200 275.000 303.200 L 273.200 303.200 273.200 301.600 L 273.200 300.000 271.600 300.000 L 270.000 300.000 270.000 298.400 L 270.000 296.800 268.400 296.800 L 266.800 296.800 266.800 295.000 L 266.800 293.200 265.000 293.200 L 263.200 293.200 263.200 291.600 L 263.200 290.000 261.600 290.000 L 260.000 290.000 260.000 288.400 L 260.000 286.800 258.400 286.800 L 256.800 286.800 256.800 285.000 L 256.800 283.200 255.000 283.200 L 253.200 283.200 253.200 281.600 L 253.200 280.000 251.600 280.000 L 250.000 280.000 250.000 278.400 L 250.000 276.800 248.400 276.800 L 246.800 276.800 246.800 275.000 L 246.800 273.200 245.000 273.200 L 243.200 273.200 243.200 270.000 L 243.200 266.800 241.600 266.800 L 240.000 266.800 240.000 270.000 M216.800 308.400 L 216.800 310.000 215.000 310.000 L 213.200 310.000 213.200 308.400 L 213.200 306.800 215.000 306.800 L 216.800 306.800 216.800 308.400 M213.200 321.600 L 213.200 330.000 211.600 330.000 L 210.000 330.000 210.000 333.400 L 210.000 336.800 206.600 336.800 L 203.200 336.800 203.200 333.400 L 203.200 330.000 205.000 330.000 L 206.800 330.000 206.800 325.000 L 206.800 320.000 208.400 320.000 L 210.000 320.000 210.000 316.600 L 210.000 313.200 211.600 313.200 L 213.200 313.200 213.200 321.600 " stroke="none" fill="#050505" fill-rule="evenodd"></path><path id="path1" d="M186.800 55.000 L 186.800 56.800 185.000 56.800 L 183.200 56.800 183.200 61.800 L 183.200 66.800 185.000 66.800 L 186.800 66.800 186.800 68.400 L 186.800 70.000 188.400 70.000 L 190.000 70.000 190.000 68.200 L 190.000 66.400 191.600 66.400 L 193.200 66.400 193.200 68.200 L 193.200 70.000 195.000 70.000 L 196.800 70.000 196.800 61.600 L 196.800 53.200 191.800 53.200 L 186.800 53.200 186.800 55.000 M176.800 135.000 L 176.800 136.800 175.000 136.800 L 173.200 136.800 173.200 138.400 L 173.200 140.000 171.600 140.000 L 170.000 140.000 170.000 148.400 L 170.000 156.800 171.600 156.800 L 173.200 156.800 173.200 160.000 L 173.200 163.200 175.000 163.200 L 176.800 163.200 176.800 165.000 L 176.800 166.800 178.400 166.800 L 180.000 166.800 180.000 168.400 L 180.000 170.000 193.400 170.000 L 206.800 170.000 206.800 168.400 L 206.800 166.800 208.400 166.800 L 210.000 166.800 210.000 165.000 L 210.000 163.200 211.600 163.200 L 213.200 163.200 213.200 160.000 L 213.200 156.800 215.000 156.800 L 216.800 156.800 216.800 150.000 L 216.800 143.200 215.000 143.200 L 213.200 143.200 213.200 148.400 L 213.200 153.600 208.200 153.600 L 203.200 153.600 203.200 148.400 L 203.200 143.200 200.000 143.200 L 196.800 143.200 196.800 141.600 L 196.800 140.000 205.000 140.000 L 213.200 140.000 213.200 138.400 L 213.200 136.800 211.600 136.800 L 210.000 136.800 210.000 135.000 L 210.000 133.200 208.400 133.200 L 206.800 133.200 206.800 135.000 L 206.800 136.800 205.000 136.800 L 203.200 136.800 203.200 135.000 L 203.200 133.200 190.000 133.200 L 176.800 133.200 176.800 135.000 M193.200 141.600 L 193.200 143.200 191.600 143.200 L 190.000 143.200 190.000 148.400 L 190.000 153.600 185.000 153.600 L 180.000 153.600 180.000 148.400 L 180.000 143.200 176.600 143.200 L 173.200 143.200 173.200 141.600 L 173.200 140.000 183.200 140.000 L 193.200 140.000 193.200 141.600 M203.200 158.200 L 203.200 160.000 205.000 160.000 L 206.800 160.000 206.800 163.400 L 206.800 166.800 195.000 166.800 L 183.200 166.800 183.200 165.000 L 183.200 163.200 181.600 163.200 L 180.000 163.200 180.000 161.600 L 180.000 160.000 181.600 160.000 L 183.200 160.000 183.200 158.200 L 183.200 156.400 193.200 156.400 L 203.200 156.400 203.200 158.200 M203.200 201.600 L 203.200 203.200 205.000 203.200 L 206.800 203.200 206.800 201.600 L 206.800 200.000 205.000 200.000 L 203.200 200.000 203.200 201.600 M166.800 218.200 L 166.800 223.200 165.000 223.200 L 163.200 223.200 163.200 226.600 L 163.200 230.000 165.000 230.000 L 166.800 230.000 166.800 235.000 L 166.800 240.000 168.400 240.000 L 170.000 240.000 170.000 243.400 L 170.000 246.800 171.600 246.800 L 173.200 246.800 173.200 250.000 L 173.200 253.200 175.000 253.200 L 176.800 253.200 176.800 255.000 L 176.800 256.800 178.400 256.800 L 180.000 256.800 180.000 258.400 L 180.000 260.000 181.600 260.000 L 183.200 260.000 183.200 263.400 L 183.200 266.800 181.600 266.800 L 180.000 266.800 180.000 268.400 L 180.000 270.000 181.600 270.000 L 183.200 270.000 183.200 268.400 L 183.200 266.800 185.000 266.800 L 186.800 266.800 186.800 261.800 L 186.800 256.800 183.400 256.800 L 180.000 256.800 180.000 255.000 L 180.000 253.200 178.400 253.200 L 176.800 253.200 176.800 250.000 L 176.800 246.800 175.000 246.800 L 173.200 246.800 173.200 243.400 L 173.200 240.000 171.600 240.000 L 170.000 240.000 170.000 235.000 L 170.000 230.000 168.400 230.000 L 166.800 230.000 166.800 226.600 L 166.800 223.200 168.400 223.200 L 170.000 223.200 170.000 218.200 L 170.000 213.200 168.400 213.200 L 166.800 213.200 166.800 218.200 M226.800 215.000 L 226.800 216.800 228.400 216.800 L 230.000 216.800 230.000 215.000 L 230.000 213.200 228.400 213.200 L 226.800 213.200 226.800 215.000 M173.200 221.600 L 173.200 223.200 175.000 223.200 L 176.800 223.200 176.800 225.000 L 176.800 226.800 181.800 226.800 L 186.800 226.800 186.800 228.400 L 186.800 230.000 191.800 230.000 L 196.800 230.000 196.800 231.600 L 196.800 233.200 198.400 233.200 L 200.000 233.200 200.000 235.000 L 200.000 236.800 205.000 236.800 L 210.000 236.800 210.000 235.000 L 210.000 233.200 211.600 233.200 L 213.200 233.200 213.200 231.600 L 213.200 230.000 216.600 230.000 L 220.000 230.000 220.000 228.400 L 220.000 226.800 221.600 226.800 L 223.200 226.800 223.200 225.000 L 223.200 223.200 221.600 223.200 L 220.000 223.200 220.000 225.000 L 220.000 226.800 216.600 226.800 L 213.200 226.800 213.200 228.400 L 213.200 230.000 205.000 230.000 L 196.800 230.000 196.800 228.400 L 196.800 226.800 191.800 226.800 L 186.800 226.800 186.800 225.000 L 186.800 223.200 181.800 223.200 L 176.800 223.200 176.800 221.600 L 176.800 220.000 175.000 220.000 L 173.200 220.000 173.200 221.600 M173.200 235.000 L 173.200 236.800 176.600 236.800 L 180.000 236.800 180.000 238.400 L 180.000 240.000 185.000 240.000 L 190.000 240.000 190.000 241.600 L 190.000 243.200 195.000 243.200 L 200.000 243.200 200.000 245.000 L 200.000 246.800 201.600 246.800 L 203.200 246.800 203.200 248.400 L 203.200 250.000 208.200 250.000 L 213.200 250.000 213.200 246.600 L 213.200 243.200 216.600 243.200 L 220.000 243.200 220.000 241.600 L 220.000 240.000 221.600 240.000 L 223.200 240.000 223.200 238.400 L 223.200 236.800 225.000 236.800 L 226.800 236.800 226.800 235.000 L 226.800 233.200 225.000 233.200 L 223.200 233.200 223.200 235.000 L 223.200 236.800 221.600 236.800 L 220.000 236.800 220.000 238.400 L 220.000 240.000 216.600 240.000 L 213.200 240.000 213.200 241.600 L 213.200 243.200 206.600 243.200 L 200.000 243.200 200.000 241.600 L 200.000 240.000 195.000 240.000 L 190.000 240.000 190.000 238.400 L 190.000 236.800 185.000 236.800 L 180.000 236.800 180.000 235.000 L 180.000 233.200 176.600 233.200 L 173.200 233.200 173.200 235.000 M163.200 253.400 L 163.200 256.800 165.000 256.800 L 166.800 256.800 166.800 258.400 L 166.800 260.000 168.400 260.000 L 170.000 260.000 170.000 255.000 L 170.000 250.000 166.600 250.000 L 163.200 250.000 163.200 253.400 M236.800 251.600 L 236.800 253.200 238.400 253.200 L 240.000 253.200 240.000 251.600 L 240.000 250.000 238.400 250.000 L 236.800 250.000 236.800 251.600 M200.000 278.400 L 200.000 280.000 203.400 280.000 L 206.800 280.000 206.800 281.600 L 206.800 283.200 208.400 283.200 L 210.000 283.200 210.000 286.600 L 210.000 290.000 211.600 290.000 L 213.200 290.000 213.200 293.400 L 213.200 296.800 215.000 296.800 L 216.800 296.800 216.800 291.800 L 216.800 286.800 215.000 286.800 L 213.200 286.800 213.200 283.400 L 213.200 280.000 210.000 280.000 L 206.800 280.000 206.800 278.400 L 206.800 276.800 203.400 276.800 L 200.000 276.800 200.000 278.400 M190.000 285.000 L 190.000 286.800 188.400 286.800 L 186.800 286.800 186.800 288.400 L 186.800 290.000 188.400 290.000 L 190.000 290.000 190.000 288.400 L 190.000 286.800 191.600 286.800 L 193.200 286.800 193.200 285.000 L 193.200 283.200 191.600 283.200 L 190.000 283.200 190.000 285.000 M226.800 320.000 L 226.800 326.800 225.000 326.800 L 223.200 326.800 223.200 331.800 L 223.200 336.800 225.000 336.800 L 226.800 336.800 226.800 338.400 L 226.800 340.000 228.400 340.000 L 230.000 340.000 230.000 341.600 L 230.000 343.200 233.400 343.200 L 236.800 343.200 236.800 341.600 L 236.800 340.000 233.400 340.000 L 230.000 340.000 230.000 338.400 L 230.000 336.800 228.400 336.800 L 226.800 336.800 226.800 331.800 L 226.800 326.800 228.400 326.800 L 230.000 326.800 230.000 321.800 L 230.000 316.800 231.600 316.800 L 233.200 316.800 233.200 315.000 L 233.200 313.200 230.000 313.200 L 226.800 313.200 226.800 320.000 M200.000 325.000 L 200.000 330.000 198.400 330.000 L 196.800 330.000 196.800 333.400 L 196.800 336.800 198.400 336.800 L 200.000 336.800 200.000 338.400 L 200.000 340.000 201.600 340.000 L 203.200 340.000 203.200 341.600 L 203.200 343.200 206.600 343.200 L 210.000 343.200 210.000 341.600 L 210.000 340.000 206.600 340.000 L 203.200 340.000 203.200 338.400 L 203.200 336.800 205.000 336.800 L 206.800 336.800 206.800 335.000 L 206.800 333.200 205.000 333.200 L 203.200 333.200 203.200 335.000 L 203.200 336.800 201.600 336.800 L 200.000 336.800 200.000 333.400 L 200.000 330.000 201.600 330.000 L 203.200 330.000 203.200 325.000 L 203.200 320.000 201.600 320.000 L 200.000 320.000 200.000 325.000 M196.800 351.800 L 196.800 353.600 203.400 353.600 L 210.000 353.600 210.000 351.800 L 210.000 350.000 203.400 350.000 L 196.800 350.000 196.800 351.800 " stroke="none" fill="#fac811" fill-rule="evenodd"></path><path id="path2" d="M190.000 83.400 L 190.000 96.800 188.400 96.800 L 186.800 96.800 186.800 98.400 L 186.800 100.000 185.000 100.000 L 183.200 100.000 183.200 101.600 L 183.200 103.200 181.600 103.200 L 180.000 103.200 180.000 105.000 L 180.000 106.800 178.400 106.800 L 176.800 106.800 176.800 108.400 L 176.800 110.000 175.000 110.000 L 173.200 110.000 173.200 111.600 L 173.200 113.200 171.600 113.200 L 170.000 113.200 170.000 116.600 L 170.000 120.000 168.400 120.000 L 166.800 120.000 166.800 123.400 L 166.800 126.800 165.000 126.800 L 163.200 126.800 163.200 131.800 L 163.200 136.800 161.600 136.800 L 160.000 136.800 160.000 146.800 L 160.000 156.800 158.400 156.800 L 156.800 156.800 156.800 161.800 L 156.800 166.800 160.000 166.800 L 163.200 166.800 163.200 168.400 L 163.200 170.000 160.000 170.000 L 156.800 170.000 156.800 171.600 L 156.800 173.200 160.000 173.200 L 163.200 173.200 163.200 175.000 L 163.200 176.800 168.200 176.800 L 173.200 176.800 173.200 178.400 L 173.200 180.000 168.200 180.000 L 163.200 180.000 163.200 181.600 L 163.200 183.200 165.000 183.200 L 166.800 183.200 166.800 185.000 L 166.800 186.800 163.400 186.800 L 160.000 186.800 160.000 188.400 L 160.000 190.000 158.400 190.000 L 156.800 190.000 156.800 191.600 L 156.800 193.200 158.400 193.200 L 160.000 193.200 160.000 195.000 L 160.000 196.800 158.400 196.800 L 156.800 196.800 156.800 200.000 L 156.800 203.200 155.000 203.200 L 153.200 203.200 153.200 213.200 L 153.200 223.200 151.600 223.200 L 150.000 223.200 150.000 226.600 L 150.000 230.000 151.600 230.000 L 153.200 230.000 153.200 233.400 L 153.200 236.800 156.600 236.800 L 160.000 236.800 160.000 238.400 L 160.000 240.000 158.400 240.000 L 156.800 240.000 156.800 243.400 L 156.800 246.800 158.400 246.800 L 160.000 246.800 160.000 248.400 L 160.000 250.000 165.000 250.000 L 170.000 250.000 170.000 251.600 L 170.000 253.200 171.600 253.200 L 173.200 253.200 173.200 255.000 L 173.200 256.800 171.600 256.800 L 170.000 256.800 170.000 258.400 L 170.000 260.000 171.600 260.000 L 173.200 260.000 173.200 261.600 L 173.200 263.200 171.600 263.200 L 170.000 263.200 170.000 266.600 L 170.000 270.000 175.000 270.000 L 180.000 270.000 180.000 268.400 L 180.000 266.800 181.600 266.800 L 183.200 266.800 183.200 263.400 L 183.200 260.000 181.600 260.000 L 180.000 260.000 180.000 258.400 L 180.000 256.800 178.400 256.800 L 176.800 256.800 176.800 255.000 L 176.800 253.200 175.000 253.200 L 173.200 253.200 173.200 250.000 L 173.200 246.800 171.600 246.800 L 170.000 246.800 170.000 245.000 L 170.000 243.200 165.000 243.200 L 160.000 243.200 160.000 241.600 L 160.000 240.000 163.400 240.000 L 166.800 240.000 166.800 235.000 L 166.800 230.000 165.000 230.000 L 163.200 230.000 163.200 228.400 L 163.200 226.800 158.200 226.800 L 153.200 226.800 153.200 225.000 L 153.200 223.200 158.200 223.200 L 163.200 223.200 163.200 221.600 L 163.200 220.000 165.000 220.000 L 166.800 220.000 166.800 216.600 L 166.800 213.200 168.400 213.200 L 170.000 213.200 170.000 210.000 L 170.000 206.800 171.600 206.800 L 173.200 206.800 173.200 211.800 L 173.200 216.800 175.000 216.800 L 176.800 216.800 176.800 218.400 L 176.800 220.000 181.800 220.000 L 186.800 220.000 186.800 221.600 L 186.800 223.200 191.800 223.200 L 196.800 223.200 196.800 225.000 L 196.800 226.800 205.000 226.800 L 213.200 226.800 213.200 225.000 L 213.200 223.200 216.600 223.200 L 220.000 223.200 220.000 221.600 L 220.000 220.000 221.600 220.000 L 223.200 220.000 223.200 216.600 L 223.200 213.200 225.000 213.200 L 226.800 213.200 226.800 203.200 L 226.800 193.200 225.000 193.200 L 223.200 193.200 223.200 188.200 L 223.200 183.200 221.600 183.200 L 220.000 183.200 220.000 180.000 L 220.000 176.800 218.400 176.800 L 216.800 176.800 216.800 175.000 L 216.800 173.200 215.000 173.200 L 213.200 173.200 213.200 171.600 L 213.200 170.000 215.000 170.000 L 216.800 170.000 216.800 166.600 L 216.800 163.200 215.000 163.200 L 213.200 163.200 213.200 165.000 L 213.200 166.800 211.600 166.800 L 210.000 166.800 210.000 168.400 L 210.000 170.000 208.400 170.000 L 206.800 170.000 206.800 171.600 L 206.800 173.200 193.400 173.200 L 180.000 173.200 180.000 171.600 L 180.000 170.000 178.400 170.000 L 176.800 170.000 176.800 168.400 L 176.800 166.800 175.000 166.800 L 173.200 166.800 173.200 165.000 L 173.200 163.200 171.600 163.200 L 170.000 163.200 170.000 160.000 L 170.000 156.800 168.400 156.800 L 166.800 156.800 166.800 148.400 L 166.800 140.000 168.400 140.000 L 170.000 140.000 170.000 138.400 L 170.000 136.800 171.600 136.800 L 173.200 136.800 173.200 135.000 L 173.200 133.200 175.000 133.200 L 176.800 133.200 176.800 131.600 L 176.800 130.000 193.400 130.000 L 210.000 130.000 210.000 131.600 L 210.000 133.200 211.600 133.200 L 213.200 133.200 213.200 130.000 L 213.200 126.800 211.600 126.800 L 210.000 126.800 210.000 121.800 L 210.000 116.800 208.400 116.800 L 206.800 116.800 206.800 113.400 L 206.800 110.000 205.000 110.000 L 203.200 110.000 203.200 106.600 L 203.200 103.200 201.600 103.200 L 200.000 103.200 200.000 101.600 L 200.000 100.000 198.400 100.000 L 196.800 100.000 196.800 98.400 L 196.800 96.800 195.000 96.800 L 193.200 96.800 193.200 83.400 L 193.200 70.000 191.600 70.000 L 190.000 70.000 190.000 83.400 M173.200 171.600 L 173.200 173.200 176.600 173.200 L 180.000 173.200 180.000 175.000 L 180.000 176.800 193.400 176.800 L 206.800 176.800 206.800 175.000 L 206.800 173.200 210.000 173.200 L 213.200 173.200 213.200 175.000 L 213.200 176.800 215.000 176.800 L 216.800 176.800 216.800 178.400 L 216.800 180.000 215.000 180.000 L 213.200 180.000 213.200 181.600 L 213.200 183.200 210.000 183.200 L 206.800 183.200 206.800 185.000 L 206.800 186.800 193.400 186.800 L 180.000 186.800 180.000 185.000 L 180.000 183.200 176.600 183.200 L 173.200 183.200 173.200 181.600 L 173.200 180.000 176.600 180.000 L 180.000 180.000 180.000 178.400 L 180.000 176.800 176.600 176.800 L 173.200 176.800 173.200 175.000 L 173.200 173.200 168.200 173.200 L 163.200 173.200 163.200 171.600 L 163.200 170.000 168.200 170.000 L 173.200 170.000 173.200 171.600 M206.800 178.400 L 206.800 180.000 193.400 180.000 L 180.000 180.000 180.000 181.600 L 180.000 183.200 193.400 183.200 L 206.800 183.200 206.800 181.600 L 206.800 180.000 210.000 180.000 L 213.200 180.000 213.200 178.400 L 213.200 176.800 210.000 176.800 L 206.800 176.800 206.800 178.400 M170.000 188.400 L 170.000 190.000 171.600 190.000 L 173.200 190.000 173.200 193.400 L 173.200 196.800 175.000 196.800 L 176.800 196.800 176.800 201.800 L 176.800 206.800 175.000 206.800 L 173.200 206.800 173.200 201.800 L 173.200 196.800 171.600 196.800 L 170.000 196.800 170.000 193.400 L 170.000 190.000 168.400 190.000 L 166.800 190.000 166.800 188.400 L 166.800 186.800 168.400 186.800 L 170.000 186.800 170.000 188.400 M206.800 191.600 L 206.800 193.200 208.400 193.200 L 210.000 193.200 210.000 195.000 L 210.000 196.800 211.600 196.800 L 213.200 196.800 213.200 198.400 L 213.200 200.000 215.000 200.000 L 216.800 200.000 216.800 201.600 L 216.800 203.200 215.000 203.200 L 213.200 203.200 213.200 205.000 L 213.200 206.800 211.600 206.800 L 210.000 206.800 210.000 208.400 L 210.000 210.000 208.400 210.000 L 206.800 210.000 206.800 211.600 L 206.800 213.200 205.000 213.200 L 203.200 213.200 203.200 211.600 L 203.200 210.000 201.600 210.000 L 200.000 210.000 200.000 208.400 L 200.000 206.800 198.400 206.800 L 196.800 206.800 196.800 205.000 L 196.800 203.200 195.000 203.200 L 193.200 203.200 193.200 201.600 L 193.200 200.000 195.000 200.000 L 196.800 200.000 196.800 198.400 L 196.800 196.800 198.400 196.800 L 200.000 196.800 200.000 195.000 L 200.000 193.200 201.600 193.200 L 203.200 193.200 203.200 191.600 L 203.200 190.000 205.000 190.000 L 206.800 190.000 206.800 191.600 M173.200 228.200 L 173.200 233.200 176.600 233.200 L 180.000 233.200 180.000 235.000 L 180.000 236.800 178.400 236.800 L 176.800 236.800 176.800 240.000 L 176.800 243.200 178.400 243.200 L 180.000 243.200 180.000 246.600 L 180.000 250.000 183.400 250.000 L 186.800 250.000 186.800 251.600 L 186.800 253.200 191.800 253.200 L 196.800 253.200 196.800 255.000 L 196.800 256.800 193.400 256.800 L 190.000 256.800 190.000 260.000 L 190.000 263.200 191.600 263.200 L 193.200 263.200 193.200 265.000 L 193.200 266.800 195.000 266.800 L 196.800 266.800 196.800 268.400 L 196.800 270.000 203.400 270.000 L 210.000 270.000 210.000 271.600 L 210.000 273.200 215.000 273.200 L 220.000 273.200 220.000 276.600 L 220.000 280.000 221.600 280.000 L 223.200 280.000 223.200 285.000 L 223.200 290.000 225.000 290.000 L 226.800 290.000 226.800 291.600 L 226.800 293.200 228.400 293.200 L 230.000 293.200 230.000 295.000 L 230.000 296.800 231.600 296.800 L 233.200 296.800 233.200 300.000 L 233.200 303.200 238.200 303.200 L 243.200 303.200 243.200 305.000 L 243.200 306.800 245.000 306.800 L 246.800 306.800 246.800 308.400 L 246.800 310.000 251.800 310.000 L 256.800 310.000 256.800 311.600 L 256.800 313.200 261.800 313.200 L 266.800 313.200 266.800 311.600 L 266.800 310.000 268.400 310.000 L 270.000 310.000 270.000 308.400 L 270.000 306.800 271.600 306.800 L 273.200 306.800 273.200 305.000 L 273.200 303.200 271.600 303.200 L 270.000 303.200 270.000 301.600 L 270.000 300.000 268.400 300.000 L 266.800 300.000 266.800 298.400 L 266.800 296.800 265.000 296.800 L 263.200 296.800 263.200 295.000 L 263.200 293.200 261.600 293.200 L 260.000 293.200 260.000 291.600 L 260.000 290.000 258.400 290.000 L 256.800 290.000 256.800 288.400 L 256.800 286.800 255.000 286.800 L 253.200 286.800 253.200 285.000 L 253.200 283.200 251.600 283.200 L 250.000 283.200 250.000 281.600 L 250.000 280.000 248.400 280.000 L 246.800 280.000 246.800 278.400 L 246.800 276.800 245.000 276.800 L 243.200 276.800 243.200 275.000 L 243.200 273.200 241.600 273.200 L 240.000 273.200 240.000 268.200 L 240.000 263.200 238.400 263.200 L 236.800 263.200 236.800 258.200 L 236.800 253.200 235.000 253.200 L 233.200 253.200 233.200 250.000 L 233.200 246.800 231.600 246.800 L 230.000 246.800 230.000 243.400 L 230.000 240.000 228.400 240.000 L 226.800 240.000 226.800 238.400 L 226.800 236.800 225.000 236.800 L 223.200 236.800 223.200 231.800 L 223.200 226.800 221.600 226.800 L 220.000 226.800 220.000 228.400 L 220.000 230.000 216.600 230.000 L 213.200 230.000 213.200 231.600 L 213.200 233.200 211.600 233.200 L 210.000 233.200 210.000 235.000 L 210.000 236.800 205.000 236.800 L 200.000 236.800 200.000 235.000 L 200.000 233.200 198.400 233.200 L 196.800 233.200 196.800 231.600 L 196.800 230.000 191.800 230.000 L 186.800 230.000 186.800 228.400 L 186.800 226.800 181.800 226.800 L 176.800 226.800 176.800 225.000 L 176.800 223.200 175.000 223.200 L 173.200 223.200 173.200 228.200 M190.000 238.400 L 190.000 240.000 195.000 240.000 L 200.000 240.000 200.000 241.600 L 200.000 243.200 206.600 243.200 L 213.200 243.200 213.200 241.600 L 213.200 240.000 216.600 240.000 L 220.000 240.000 220.000 238.400 L 220.000 236.800 221.600 236.800 L 223.200 236.800 223.200 238.400 L 223.200 240.000 221.600 240.000 L 220.000 240.000 220.000 241.600 L 220.000 243.200 216.600 243.200 L 213.200 243.200 213.200 246.600 L 213.200 250.000 208.200 250.000 L 203.200 250.000 203.200 248.400 L 203.200 246.800 201.600 246.800 L 200.000 246.800 200.000 245.000 L 200.000 243.200 195.000 243.200 L 190.000 243.200 190.000 241.600 L 190.000 240.000 185.000 240.000 L 180.000 240.000 180.000 238.400 L 180.000 236.800 185.000 236.800 L 190.000 236.800 190.000 238.400 M233.200 255.000 L 233.200 256.800 230.000 256.800 L 226.800 256.800 226.800 258.400 L 226.800 260.000 223.400 260.000 L 220.000 260.000 220.000 261.600 L 220.000 263.200 213.400 263.200 L 206.800 263.200 206.800 261.600 L 206.800 260.000 201.800 260.000 L 196.800 260.000 196.800 258.400 L 196.800 256.800 201.800 256.800 L 206.800 256.800 206.800 258.400 L 206.800 260.000 213.400 260.000 L 220.000 260.000 220.000 258.400 L 220.000 256.800 223.400 256.800 L 226.800 256.800 226.800 255.000 L 226.800 253.200 230.000 253.200 L 233.200 253.200 233.200 255.000 M176.800 258.400 L 176.800 260.000 175.000 260.000 L 173.200 260.000 173.200 258.400 L 173.200 256.800 175.000 256.800 L 176.800 256.800 176.800 258.400 M200.000 283.400 L 200.000 286.800 198.400 286.800 L 196.800 286.800 196.800 296.800 L 196.800 306.800 195.000 306.800 L 193.200 306.800 193.200 311.800 L 193.200 316.800 191.600 316.800 L 190.000 316.800 190.000 323.400 L 190.000 330.000 188.400 330.000 L 186.800 330.000 186.800 335.000 L 186.800 340.000 188.400 340.000 L 190.000 340.000 190.000 341.600 L 190.000 343.200 196.600 343.200 L 203.200 343.200 203.200 341.600 L 203.200 340.000 201.600 340.000 L 200.000 340.000 200.000 338.400 L 200.000 336.800 198.400 336.800 L 196.800 336.800 196.800 333.400 L 196.800 330.000 198.400 330.000 L 200.000 330.000 200.000 325.000 L 200.000 320.000 203.400 320.000 L 206.800 320.000 206.800 316.600 L 206.800 313.200 208.400 313.200 L 210.000 313.200 210.000 310.000 L 210.000 306.800 211.600 306.800 L 213.200 306.800 213.200 298.400 L 213.200 290.000 211.600 290.000 L 210.000 290.000 210.000 286.600 L 210.000 283.200 208.400 283.200 L 206.800 283.200 206.800 281.600 L 206.800 280.000 203.400 280.000 L 200.000 280.000 200.000 283.400 " stroke="none" fill="#fc2424" fill-rule="evenodd"></path><path id="path3" d="M203.200 135.000 L 203.200 136.800 205.000 136.800 L 206.800 136.800 206.800 135.000 L 206.800 133.200 205.000 133.200 L 203.200 133.200 203.200 135.000 M183.200 158.200 L 183.200 160.000 181.600 160.000 L 180.000 160.000 180.000 161.600 L 180.000 163.200 181.600 163.200 L 183.200 163.200 183.200 165.000 L 183.200 166.800 195.000 166.800 L 206.800 166.800 206.800 163.400 L 206.800 160.000 205.000 160.000 L 203.200 160.000 203.200 158.200 L 203.200 156.400 193.200 156.400 L 183.200 156.400 183.200 158.200 M200.000 161.600 L 200.000 163.200 195.000 163.200 L 190.000 163.200 190.000 161.600 L 190.000 160.000 195.000 160.000 L 200.000 160.000 200.000 161.600 M153.200 181.800 L 153.200 186.800 151.600 186.800 L 150.000 186.800 150.000 195.000 L 150.000 203.200 151.600 203.200 L 153.200 203.200 153.200 200.000 L 153.200 196.800 155.000 196.800 L 156.800 196.800 156.800 193.400 L 156.800 190.000 158.400 190.000 L 160.000 190.000 160.000 188.400 L 160.000 186.800 163.400 186.800 L 166.800 186.800 166.800 188.400 L 166.800 190.000 168.400 190.000 L 170.000 190.000 170.000 193.400 L 170.000 196.800 171.600 196.800 L 173.200 196.800 173.200 193.400 L 173.200 190.000 171.600 190.000 L 170.000 190.000 170.000 188.400 L 170.000 186.800 168.400 186.800 L 166.800 186.800 166.800 185.000 L 166.800 183.200 165.000 183.200 L 163.200 183.200 163.200 180.000 L 163.200 176.800 158.200 176.800 L 153.200 176.800 153.200 181.800 M173.200 218.400 L 173.200 220.000 175.000 220.000 L 176.800 220.000 176.800 221.600 L 176.800 223.200 181.800 223.200 L 186.800 223.200 186.800 225.000 L 186.800 226.800 191.800 226.800 L 196.800 226.800 196.800 228.400 L 196.800 230.000 205.000 230.000 L 213.200 230.000 213.200 228.400 L 213.200 226.800 216.600 226.800 L 220.000 226.800 220.000 225.000 L 220.000 223.200 221.600 223.200 L 223.200 223.200 223.200 221.600 L 223.200 220.000 221.600 220.000 L 220.000 220.000 220.000 221.600 L 220.000 223.200 216.600 223.200 L 213.200 223.200 213.200 225.000 L 213.200 226.800 205.000 226.800 L 196.800 226.800 196.800 225.000 L 196.800 223.200 191.800 223.200 L 186.800 223.200 186.800 221.600 L 186.800 220.000 181.800 220.000 L 176.800 220.000 176.800 218.400 L 176.800 216.800 175.000 216.800 L 173.200 216.800 173.200 218.400 M150.000 221.600 L 150.000 223.200 151.600 223.200 L 153.200 223.200 153.200 225.000 L 153.200 226.800 158.200 226.800 L 163.200 226.800 163.200 225.000 L 163.200 223.200 165.000 223.200 L 166.800 223.200 166.800 221.600 L 166.800 220.000 165.000 220.000 L 163.200 220.000 163.200 221.600 L 163.200 223.200 158.200 223.200 L 153.200 223.200 153.200 221.600 L 153.200 220.000 151.600 220.000 L 150.000 220.000 150.000 221.600 M170.000 226.600 L 170.000 230.000 171.600 230.000 L 173.200 230.000 173.200 226.600 L 173.200 223.200 171.600 223.200 L 170.000 223.200 170.000 226.600 M153.200 238.400 L 153.200 240.000 156.600 240.000 L 160.000 240.000 160.000 241.600 L 160.000 243.200 165.000 243.200 L 170.000 243.200 170.000 241.600 L 170.000 240.000 165.000 240.000 L 160.000 240.000 160.000 238.400 L 160.000 236.800 156.600 236.800 L 153.200 236.800 153.200 238.400 M173.200 238.400 L 173.200 240.000 175.000 240.000 L 176.800 240.000 176.800 238.400 L 176.800 236.800 175.000 236.800 L 173.200 236.800 173.200 238.400 M176.800 245.000 L 176.800 246.800 178.400 246.800 L 180.000 246.800 180.000 245.000 L 180.000 243.200 178.400 243.200 L 176.800 243.200 176.800 245.000 M160.000 251.600 L 160.000 253.200 161.600 253.200 L 163.200 253.200 163.200 251.600 L 163.200 250.000 161.600 250.000 L 160.000 250.000 160.000 251.600 M180.000 251.600 L 180.000 253.200 183.400 253.200 L 186.800 253.200 186.800 255.000 L 186.800 256.800 191.800 256.800 L 196.800 256.800 196.800 258.400 L 196.800 260.000 201.800 260.000 L 206.800 260.000 206.800 261.600 L 206.800 263.200 213.400 263.200 L 220.000 263.200 220.000 261.600 L 220.000 260.000 223.400 260.000 L 226.800 260.000 226.800 258.400 L 226.800 256.800 230.000 256.800 L 233.200 256.800 233.200 255.000 L 233.200 253.200 230.000 253.200 L 226.800 253.200 226.800 255.000 L 226.800 256.800 223.400 256.800 L 220.000 256.800 220.000 258.400 L 220.000 260.000 213.400 260.000 L 206.800 260.000 206.800 258.400 L 206.800 256.800 201.800 256.800 L 196.800 256.800 196.800 255.000 L 196.800 253.200 191.800 253.200 L 186.800 253.200 186.800 251.600 L 186.800 250.000 183.400 250.000 L 180.000 250.000 180.000 251.600 M170.000 255.000 L 170.000 256.800 171.600 256.800 L 173.200 256.800 173.200 258.400 L 173.200 260.000 171.600 260.000 L 170.000 260.000 170.000 261.600 L 170.000 263.200 171.600 263.200 L 173.200 263.200 173.200 261.600 L 173.200 260.000 175.000 260.000 L 176.800 260.000 176.800 258.400 L 176.800 256.800 175.000 256.800 L 173.200 256.800 173.200 255.000 L 173.200 253.200 171.600 253.200 L 170.000 253.200 170.000 255.000 M190.000 265.000 L 190.000 266.800 188.400 266.800 L 186.800 266.800 186.800 270.000 L 186.800 273.200 183.400 273.200 L 180.000 273.200 180.000 276.600 L 180.000 280.000 181.600 280.000 L 183.200 280.000 183.200 283.400 L 183.200 286.800 186.600 286.800 L 190.000 286.800 190.000 285.000 L 190.000 283.200 193.400 283.200 L 196.800 283.200 196.800 285.000 L 196.800 286.800 195.000 286.800 L 193.200 286.800 193.200 288.400 L 193.200 290.000 191.600 290.000 L 190.000 290.000 190.000 303.400 L 190.000 316.800 188.400 316.800 L 186.800 316.800 186.800 321.800 L 186.800 326.800 185.000 326.800 L 183.200 326.800 183.200 336.800 L 183.200 346.800 196.600 346.800 L 210.000 346.800 210.000 345.000 L 210.000 343.200 200.000 343.200 L 190.000 343.200 190.000 341.600 L 190.000 340.000 188.400 340.000 L 186.800 340.000 186.800 335.000 L 186.800 330.000 188.400 330.000 L 190.000 330.000 190.000 323.400 L 190.000 316.800 191.600 316.800 L 193.200 316.800 193.200 311.800 L 193.200 306.800 195.000 306.800 L 196.800 306.800 196.800 296.800 L 196.800 286.800 198.400 286.800 L 200.000 286.800 200.000 280.000 L 200.000 273.200 203.400 273.200 L 206.800 273.200 206.800 275.000 L 206.800 276.800 210.000 276.800 L 213.200 276.800 213.200 278.400 L 213.200 280.000 215.000 280.000 L 216.800 280.000 216.800 283.400 L 216.800 286.800 218.400 286.800 L 220.000 286.800 220.000 291.800 L 220.000 296.800 218.400 296.800 L 216.800 296.800 216.800 301.800 L 216.800 306.800 215.000 306.800 L 213.200 306.800 213.200 308.400 L 213.200 310.000 215.000 310.000 L 216.800 310.000 216.800 308.400 L 216.800 306.800 218.400 306.800 L 220.000 306.800 220.000 310.000 L 220.000 313.200 218.400 313.200 L 216.800 313.200 216.800 321.600 L 216.800 330.000 215.000 330.000 L 213.200 330.000 213.200 338.400 L 213.200 346.800 225.000 346.800 L 236.800 346.800 236.800 345.000 L 236.800 343.200 233.400 343.200 L 230.000 343.200 230.000 341.600 L 230.000 340.000 228.400 340.000 L 226.800 340.000 226.800 338.400 L 226.800 336.800 225.000 336.800 L 223.200 336.800 223.200 331.800 L 223.200 326.800 225.000 326.800 L 226.800 326.800 226.800 320.000 L 226.800 313.200 231.800 313.200 L 236.800 313.200 236.800 315.000 L 236.800 316.800 235.000 316.800 L 233.200 316.800 233.200 318.400 L 233.200 320.000 241.600 320.000 L 250.000 320.000 250.000 321.600 L 250.000 323.200 256.600 323.200 L 263.200 323.200 263.200 321.600 L 263.200 320.000 268.200 320.000 L 273.200 320.000 273.200 318.400 L 273.200 316.800 275.000 316.800 L 276.800 316.800 276.800 315.000 L 276.800 313.200 278.400 313.200 L 280.000 313.200 280.000 311.600 L 280.000 310.000 278.400 310.000 L 276.800 310.000 276.800 308.400 L 276.800 306.800 273.400 306.800 L 270.000 306.800 270.000 308.400 L 270.000 310.000 268.400 310.000 L 266.800 310.000 266.800 311.600 L 266.800 313.200 261.800 313.200 L 256.800 313.200 256.800 311.600 L 256.800 310.000 251.800 310.000 L 246.800 310.000 246.800 308.400 L 246.800 306.800 245.000 306.800 L 243.200 306.800 243.200 305.000 L 243.200 303.200 238.200 303.200 L 233.200 303.200 233.200 300.000 L 233.200 296.800 231.600 296.800 L 230.000 296.800 230.000 295.000 L 230.000 293.200 228.400 293.200 L 226.800 293.200 226.800 291.600 L 226.800 290.000 225.000 290.000 L 223.200 290.000 223.200 285.000 L 223.200 280.000 221.600 280.000 L 220.000 280.000 220.000 276.600 L 220.000 273.200 215.000 273.200 L 210.000 273.200 210.000 271.600 L 210.000 270.000 203.400 270.000 L 196.800 270.000 196.800 268.400 L 196.800 266.800 195.000 266.800 L 193.200 266.800 193.200 265.000 L 193.200 263.200 191.600 263.200 L 190.000 263.200 190.000 265.000 " stroke="none" fill="#a41414" fill-rule="evenodd"></path><path id="path4" d="M203.200 195.000 L 203.200 196.800 201.600 196.800 L 200.000 196.800 200.000 198.400 L 200.000 200.000 198.400 200.000 L 196.800 200.000 196.800 201.600 L 196.800 203.200 198.400 203.200 L 200.000 203.200 200.000 205.000 L 200.000 206.800 201.600 206.800 L 203.200 206.800 203.200 208.400 L 203.200 210.000 205.000 210.000 L 206.800 210.000 206.800 208.400 L 206.800 206.800 208.400 206.800 L 210.000 206.800 210.000 205.000 L 210.000 203.200 211.600 203.200 L 213.200 203.200 213.200 201.600 L 213.200 200.000 211.600 200.000 L 210.000 200.000 210.000 198.400 L 210.000 196.800 208.400 196.800 L 206.800 196.800 206.800 195.000 L 206.800 193.200 205.000 193.200 L 203.200 193.200 203.200 195.000 M206.800 201.600 L 206.800 203.200 205.000 203.200 L 203.200 203.200 203.200 201.600 L 203.200 200.000 205.000 200.000 L 206.800 200.000 206.800 201.600 " stroke="none" fill="#44dcfc" fill-rule="evenodd"></path></g></svg>