<svg id="svg" version="1.1" xmlns="http://www.w3.org/2000/svg" xmlns:xlink="http://www.w3.org/1999/xlink" width="400" height="400" viewBox="0, 0, 400,400"><g id="svgg"><path id="path0" d="M173.200 145.000 L 173.200 146.800 175.000 146.800 L 176.800 146.800 176.800 148.400 L 176.800 150.000 178.400 150.000 L 180.000 150.000 180.000 146.600 L 180.000 143.200 176.600 143.200 L 173.200 143.200 173.200 145.000 M196.800 145.000 L 196.800 146.800 198.400 146.800 L 200.000 146.800 200.000 148.400 L 200.000 150.000 201.600 150.000 L 203.200 150.000 203.200 146.600 L 203.200 143.200 200.000 143.200 L 196.800 143.200 196.800 145.000 M156.800 171.600 L 156.800 173.200 158.400 173.200 L 160.000 173.200 160.000 171.600 L 160.000 170.000 158.400 170.000 L 156.800 170.000 156.800 171.600 M213.200 171.600 L 213.200 173.200 211.600 173.200 L 210.000 173.200 210.000 175.000 L 210.000 176.800 211.600 176.800 L 213.200 176.800 213.200 175.000 L 213.200 173.200 215.000 173.200 L 216.800 173.200 216.800 171.600 L 216.800 170.000 215.000 170.000 L 213.200 170.000 213.200 171.600 M166.800 175.000 L 166.800 176.800 168.400 176.800 L 170.000 176.800 170.000 175.000 L 170.000 173.200 168.400 173.200 L 166.800 173.200 166.800 175.000 M176.800 178.400 L 176.800 180.000 178.400 180.000 L 180.000 180.000 180.000 178.400 L 180.000 176.800 178.400 176.800 L 176.800 176.800 176.800 178.400 M183.200 178.400 L 183.200 180.000 185.000 180.000 L 186.800 180.000 186.800 178.400 L 186.800 176.800 185.000 176.800 L 183.200 176.800 183.200 178.400 M190.000 178.400 L 190.000 180.000 191.600 180.000 L 193.200 180.000 193.200 178.400 L 193.200 176.800 191.600 176.800 L 190.000 176.800 190.000 178.400 M196.800 178.400 L 196.800 180.000 198.400 180.000 L 200.000 180.000 200.000 178.400 L 200.000 176.800 198.400 176.800 L 196.800 176.800 196.800 178.400 M203.200 178.400 L 203.200 180.000 205.000 180.000 L 206.800 180.000 206.800 178.400 L 206.800 176.800 205.000 176.800 L 203.200 176.800 203.200 178.400 M166.800 195.000 L 166.800 196.800 163.400 196.800 L 160.000 196.800 160.000 198.400 L 160.000 200.000 158.400 200.000 L 156.800 200.000 156.800 203.400 L 156.800 206.800 155.000 206.800 L 153.200 206.800 153.200 211.800 L 153.200 216.800 151.600 216.800 L 150.000 216.800 150.000 233.400 L 150.000 250.000 151.600 250.000 L 153.200 250.000 153.200 255.000 L 153.200 260.000 156.600 260.000 L 160.000 260.000 160.000 258.400 L 160.000 256.800 161.600 256.800 L 163.200 256.800 163.200 255.000 L 163.200 253.200 166.600 253.200 L 170.000 253.200 170.000 251.600 L 170.000 250.000 171.600 250.000 L 173.200 250.000 173.200 248.400 L 173.200 246.800 171.600 246.800 L 170.000 246.800 170.000 243.400 L 170.000 240.000 168.400 240.000 L 166.800 240.000 166.800 235.000 L 166.800 230.000 165.000 230.000 L 163.200 230.000 163.200 226.600 L 163.200 223.200 165.000 223.200 L 166.800 223.200 166.800 215.000 L 166.800 206.800 168.400 206.800 L 170.000 206.800 170.000 200.000 L 170.000 193.200 168.400 193.200 L 166.800 193.200 166.800 195.000 M220.000 195.000 L 220.000 196.800 218.400 196.800 L 216.800 196.800 216.800 203.400 L 216.800 210.000 215.000 210.000 L 213.200 210.000 213.200 213.400 L 213.200 216.800 211.600 216.800 L 210.000 216.800 210.000 218.400 L 210.000 220.000 211.600 220.000 L 213.200 220.000 213.200 221.600 L 213.200 223.200 218.200 223.200 L 223.200 223.200 223.200 208.200 L 223.200 193.200 221.600 193.200 L 220.000 193.200 220.000 195.000 M176.800 208.400 L 176.800 210.000 175.000 210.000 L 173.200 210.000 173.200 215.000 L 173.200 220.000 175.000 220.000 L 176.800 220.000 176.800 223.400 L 176.800 226.800 178.400 226.800 L 180.000 226.800 180.000 228.400 L 180.000 230.000 181.600 230.000 L 183.200 230.000 183.200 228.400 L 183.200 226.800 186.600 226.800 L 190.000 226.800 190.000 223.400 L 190.000 220.000 191.600 220.000 L 193.200 220.000 193.200 216.600 L 193.200 213.200 191.600 213.200 L 190.000 213.200 190.000 211.600 L 190.000 210.000 188.400 210.000 L 186.800 210.000 186.800 208.400 L 186.800 206.800 181.800 206.800 L 176.800 206.800 176.800 208.400 M270.000 215.000 L 270.000 216.800 268.400 216.800 L 266.800 216.800 266.800 218.400 L 266.800 220.000 265.000 220.000 L 263.200 220.000 263.200 221.600 L 263.200 223.200 261.600 223.200 L 260.000 223.200 260.000 225.000 L 260.000 226.800 258.400 226.800 L 256.800 226.800 256.800 228.400 L 256.800 230.000 255.000 230.000 L 253.200 230.000 253.200 231.600 L 253.200 233.200 255.000 233.200 L 256.800 233.200 256.800 231.600 L 256.800 230.000 258.400 230.000 L 260.000 230.000 260.000 228.400 L 260.000 226.800 261.600 226.800 L 263.200 226.800 263.200 225.000 L 263.200 223.200 265.000 223.200 L 266.800 223.200 266.800 221.600 L 266.800 220.000 268.400 220.000 L 270.000 220.000 270.000 218.400 L 270.000 216.800 271.600 216.800 L 273.200 216.800 273.200 215.000 L 273.200 213.200 271.600 213.200 L 270.000 213.200 270.000 215.000 M243.200 238.400 L 243.200 240.000 241.600 240.000 L 240.000 240.000 240.000 241.600 L 240.000 243.200 238.400 243.200 L 236.800 243.200 236.800 245.000 L 236.800 246.800 235.000 246.800 L 233.200 246.800 233.200 250.000 L 233.200 253.200 231.600 253.200 L 230.000 253.200 230.000 251.600 L 230.000 250.000 228.400 250.000 L 226.800 250.000 226.800 251.600 L 226.800 253.200 225.000 253.200 L 223.200 253.200 223.200 255.000 L 223.200 256.800 221.600 256.800 L 220.000 256.800 220.000 258.400 L 220.000 260.000 218.400 260.000 L 216.800 260.000 216.800 261.600 L 216.800 263.200 215.000 263.200 L 213.200 263.200 213.200 268.200 L 213.200 273.200 211.600 273.200 L 210.000 273.200 210.000 293.200 L 210.000 313.200 211.600 313.200 L 213.200 313.200 213.200 321.600 L 213.200 330.000 215.000 330.000 L 216.800 330.000 216.800 331.600 L 216.800 333.200 218.400 333.200 L 220.000 333.200 220.000 335.000 L 220.000 336.800 221.600 336.800 L 223.200 336.800 223.200 338.400 L 223.200 340.000 226.600 340.000 L 230.000 340.000 230.000 341.600 L 230.000 343.200 233.400 343.200 L 236.800 343.200 236.800 345.000 L 236.800 346.800 245.000 346.800 L 253.200 346.800 253.200 345.000 L 253.200 343.200 255.000 343.200 L 256.800 343.200 256.800 341.600 L 256.800 340.000 260.000 340.000 L 263.200 340.000 263.200 338.400 L 263.200 336.800 265.000 336.800 L 266.800 336.800 266.800 335.000 L 266.800 333.200 268.400 333.200 L 270.000 333.200 270.000 331.600 L 270.000 330.000 271.600 330.000 L 273.200 330.000 273.200 325.000 L 273.200 320.000 271.600 320.000 L 270.000 320.000 270.000 316.600 L 270.000 313.200 268.400 313.200 L 266.800 313.200 266.800 310.000 L 266.800 306.800 265.000 306.800 L 263.200 306.800 263.200 303.400 L 263.200 300.000 261.600 300.000 L 260.000 300.000 260.000 298.400 L 260.000 296.800 258.400 296.800 L 256.800 296.800 256.800 295.000 L 256.800 293.200 255.000 293.200 L 253.200 293.200 253.200 291.600 L 253.200 290.000 251.600 290.000 L 250.000 290.000 250.000 288.400 L 250.000 286.800 248.400 286.800 L 246.800 286.800 246.800 283.400 L 246.800 280.000 245.000 280.000 L 243.200 280.000 243.200 276.600 L 243.200 273.200 241.600 273.200 L 240.000 273.200 240.000 270.000 L 240.000 266.800 238.400 266.800 L 236.800 266.800 236.800 263.400 L 236.800 260.000 235.000 260.000 L 233.200 260.000 233.200 256.600 L 233.200 253.200 236.600 253.200 L 240.000 253.200 240.000 251.600 L 240.000 250.000 241.600 250.000 L 243.200 250.000 243.200 248.400 L 243.200 246.800 245.000 246.800 L 246.800 246.800 246.800 245.000 L 246.800 243.200 248.400 243.200 L 250.000 243.200 250.000 241.600 L 250.000 240.000 248.400 240.000 L 246.800 240.000 246.800 238.400 L 246.800 236.800 245.000 236.800 L 243.200 236.800 243.200 238.400 M180.000 251.600 L 180.000 253.200 181.600 253.200 L 183.200 253.200 183.200 255.000 L 183.200 256.800 185.000 256.800 L 186.800 256.800 186.800 258.400 L 186.800 260.000 188.400 260.000 L 190.000 260.000 190.000 266.600 L 190.000 273.200 188.400 273.200 L 186.800 273.200 186.800 275.000 L 186.800 276.800 180.000 276.800 L 173.200 276.800 173.200 275.000 L 173.200 273.200 171.600 273.200 L 170.000 273.200 170.000 275.000 L 170.000 276.800 168.400 276.800 L 166.800 276.800 166.800 280.000 L 166.800 283.200 165.000 283.200 L 163.200 283.200 163.200 290.000 L 163.200 296.800 161.600 296.800 L 160.000 296.800 160.000 306.800 L 160.000 316.800 158.400 316.800 L 156.800 316.800 156.800 321.800 L 156.800 326.800 155.000 326.800 L 153.200 326.800 153.200 330.000 L 153.200 333.200 155.000 333.200 L 156.800 333.200 156.800 335.000 L 156.800 336.800 158.400 336.800 L 160.000 336.800 160.000 338.400 L 160.000 340.000 161.600 340.000 L 163.200 340.000 163.200 341.600 L 163.200 343.200 165.000 343.200 L 166.800 343.200 166.800 345.000 L 166.800 346.800 168.400 346.800 L 170.000 346.800 170.000 348.400 L 170.000 350.000 175.000 350.000 L 180.000 350.000 180.000 348.400 L 180.000 346.800 181.600 346.800 L 183.200 346.800 183.200 345.000 L 183.200 343.200 186.600 343.200 L 190.000 343.200 190.000 340.000 L 190.000 336.800 191.600 336.800 L 193.200 336.800 193.200 323.400 L 193.200 310.000 191.600 310.000 L 190.000 310.000 190.000 301.600 L 190.000 293.200 191.600 293.200 L 193.200 293.200 193.200 273.200 L 193.200 253.200 190.000 253.200 L 186.800 253.200 186.800 251.600 L 186.800 250.000 183.400 250.000 L 180.000 250.000 180.000 251.600 " stroke="none" fill="#c5e4fb" fill-rule="evenodd"></path><path id="path1" d="M186.800 51.600 L 186.800 53.200 185.000 53.200 L 183.200 53.200 183.200 55.000 L 183.200 56.800 181.600 56.800 L 180.000 56.800 180.000 61.800 L 180.000 66.800 181.600 66.800 L 183.200 66.800 183.200 68.400 L 183.200 70.000 185.000 70.000 L 186.800 70.000 186.800 80.200 L 186.800 90.400 185.200 90.400 L 183.600 90.400 183.600 88.600 L 183.600 86.800 175.200 86.800 L 166.800 86.800 166.800 85.200 L 166.800 83.600 161.800 83.600 L 156.800 83.600 156.800 85.200 L 156.800 86.800 153.600 86.800 L 150.400 86.800 150.400 88.600 L 150.400 90.400 148.600 90.400 L 146.800 90.400 146.800 88.600 L 146.800 86.800 143.600 86.800 L 140.400 86.800 140.400 85.200 L 140.400 83.600 138.600 83.600 L 136.800 83.600 136.800 82.000 L 136.800 80.400 135.200 80.400 L 133.600 80.400 133.600 78.600 L 133.600 76.800 132.000 76.800 L 130.400 76.800 130.400 75.200 L 130.400 73.600 128.600 73.600 L 126.800 73.600 126.800 75.200 L 126.800 76.800 125.200 76.800 L 123.600 76.800 123.600 78.600 L 123.600 80.400 122.000 80.400 L 120.400 80.400 120.400 82.000 L 120.400 83.600 118.600 83.600 L 116.800 83.600 116.800 82.000 L 116.800 80.400 113.600 80.400 L 110.400 80.400 110.400 82.000 L 110.400 83.600 108.600 83.600 L 106.800 83.600 106.800 87.000 L 106.800 90.400 105.200 90.400 L 103.600 90.400 103.600 92.000 L 103.600 93.600 105.200 93.600 L 106.800 93.600 106.800 95.200 L 106.800 96.800 108.600 96.800 L 110.400 96.800 110.400 98.600 L 110.400 100.400 113.600 100.400 L 116.800 100.400 116.800 102.000 L 116.800 103.600 120.200 103.600 L 123.600 103.600 123.600 105.200 L 123.600 106.800 125.200 106.800 L 126.800 106.800 126.800 108.600 L 126.800 110.400 130.200 110.400 L 133.600 110.400 133.600 112.000 L 133.600 113.600 137.000 113.600 L 140.400 113.600 140.400 115.200 L 140.400 116.800 143.600 116.800 L 146.800 116.800 146.800 115.200 L 146.800 113.600 150.200 113.600 L 153.600 113.600 153.600 112.000 L 153.600 110.400 157.000 110.400 L 160.400 110.400 160.400 108.600 L 160.400 106.800 163.600 106.800 L 166.800 106.800 166.800 105.200 L 166.800 103.600 168.600 103.600 L 170.400 103.600 170.400 102.000 L 170.400 100.400 173.600 100.400 L 176.800 100.400 176.800 98.600 L 176.800 96.800 180.000 96.800 L 183.200 96.800 183.200 98.400 L 183.200 100.000 181.600 100.000 L 180.000 100.000 180.000 101.600 L 180.000 103.200 178.400 103.200 L 176.800 103.200 176.800 105.000 L 176.800 106.800 175.000 106.800 L 173.200 106.800 173.200 108.400 L 173.200 110.000 171.600 110.000 L 170.000 110.000 170.000 111.600 L 170.000 113.200 168.400 113.200 L 166.800 113.200 166.800 116.600 L 166.800 120.000 165.000 120.000 L 163.200 120.000 163.200 123.400 L 163.200 126.800 161.600 126.800 L 160.000 126.800 160.000 131.800 L 160.000 136.800 158.400 136.800 L 156.800 136.800 156.800 146.800 L 156.800 156.800 155.000 156.800 L 153.200 156.800 153.200 175.000 L 153.200 193.200 151.600 193.200 L 150.000 193.200 150.000 196.600 L 150.000 200.000 148.400 200.000 L 146.800 200.000 146.800 208.400 L 146.800 216.800 145.000 216.800 L 143.200 216.800 143.200 241.800 L 143.200 266.800 145.000 266.800 L 146.800 266.800 146.800 270.000 L 146.800 273.200 148.400 273.200 L 150.000 273.200 150.000 275.000 L 150.000 276.800 151.600 276.800 L 153.200 276.800 153.200 283.400 L 153.200 290.000 151.600 290.000 L 150.000 290.000 150.000 305.000 L 150.000 320.000 148.400 320.000 L 146.800 320.000 146.800 336.600 L 146.800 353.200 148.400 353.200 L 150.000 353.200 150.000 355.000 L 150.000 356.800 156.600 356.800 L 163.200 356.800 163.200 358.400 L 163.200 360.000 180.000 360.000 L 196.800 360.000 196.800 358.400 L 196.800 356.800 198.400 356.800 L 200.000 356.800 200.000 358.400 L 200.000 360.000 203.400 360.000 L 206.800 360.000 206.800 358.400 L 206.800 356.800 208.400 356.800 L 210.000 356.800 210.000 358.400 L 210.000 360.000 220.000 360.000 L 230.000 360.000 230.000 361.800 L 230.000 363.600 236.600 363.600 L 243.200 363.600 243.200 361.800 L 243.200 360.000 248.200 360.000 L 253.200 360.000 253.200 358.400 L 253.200 356.800 260.000 356.800 L 266.800 356.800 266.800 355.000 L 266.800 353.200 270.000 353.200 L 273.200 353.200 273.200 351.600 L 273.200 350.000 276.600 350.000 L 280.000 350.000 280.000 348.400 L 280.000 346.800 281.800 346.800 L 283.600 346.800 283.600 343.400 L 283.600 340.000 281.800 340.000 L 280.000 340.000 280.000 335.000 L 280.000 330.000 281.800 330.000 L 283.600 330.000 283.600 323.400 L 283.600 316.800 281.800 316.800 L 280.000 316.800 280.000 311.800 L 280.000 306.800 278.400 306.800 L 276.800 306.800 276.800 305.000 L 276.800 303.200 275.000 303.200 L 273.200 303.200 273.200 301.600 L 273.200 300.000 271.600 300.000 L 270.000 300.000 270.000 298.400 L 270.000 296.800 268.400 296.800 L 266.800 296.800 266.800 295.000 L 266.800 293.200 265.000 293.200 L 263.200 293.200 263.200 291.600 L 263.200 290.000 261.600 290.000 L 260.000 290.000 260.000 288.400 L 260.000 286.800 258.400 286.800 L 256.800 286.800 256.800 285.000 L 256.800 283.200 255.000 283.200 L 253.200 283.200 253.200 281.600 L 253.200 280.000 251.600 280.000 L 250.000 280.000 250.000 278.400 L 250.000 276.800 248.400 276.800 L 246.800 276.800 246.800 275.000 L 246.800 273.200 245.000 273.200 L 243.200 273.200 243.200 270.000 L 243.200 266.800 241.600 266.800 L 240.000 266.800 240.000 263.400 L 240.000 260.000 238.400 260.000 L 236.800 260.000 236.800 258.400 L 236.800 256.800 238.400 256.800 L 240.000 256.800 240.000 255.000 L 240.000 253.200 241.600 253.200 L 243.200 253.200 243.200 251.600 L 243.200 250.000 245.000 250.000 L 246.800 250.000 246.800 248.400 L 246.800 246.800 248.400 246.800 L 250.000 246.800 250.000 245.000 L 250.000 243.200 251.600 243.200 L 253.200 243.200 253.200 245.000 L 253.200 246.800 255.000 246.800 L 256.800 246.800 256.800 248.400 L 256.800 250.000 258.400 250.000 L 260.000 250.000 260.000 248.400 L 260.000 246.800 261.600 246.800 L 263.200 246.800 263.200 245.000 L 263.200 243.200 261.600 243.200 L 260.000 243.200 260.000 241.600 L 260.000 240.000 258.400 240.000 L 256.800 240.000 256.800 238.400 L 256.800 236.800 258.400 236.800 L 260.000 236.800 260.000 235.000 L 260.000 233.200 261.600 233.200 L 263.200 233.200 263.200 231.600 L 263.200 230.000 265.000 230.000 L 266.800 230.000 266.800 228.400 L 266.800 226.800 268.400 226.800 L 270.000 226.800 270.000 225.000 L 270.000 223.200 271.600 223.200 L 273.200 223.200 273.200 221.600 L 273.200 220.000 275.000 220.000 L 276.800 220.000 276.800 218.400 L 276.800 216.800 278.400 216.800 L 280.000 216.800 280.000 215.000 L 280.000 213.200 278.400 213.200 L 276.800 213.200 276.800 211.600 L 276.800 210.000 275.000 210.000 L 273.200 210.000 273.200 208.200 L 273.200 206.400 271.600 206.400 L 270.000 206.400 270.000 208.200 L 270.000 210.000 268.400 210.000 L 266.800 210.000 266.800 211.600 L 266.800 213.200 265.000 213.200 L 263.200 213.200 263.200 215.000 L 263.200 216.800 261.600 216.800 L 260.000 216.800 260.000 218.400 L 260.000 220.000 258.400 220.000 L 256.800 220.000 256.800 221.600 L 256.800 223.200 255.000 223.200 L 253.200 223.200 253.200 225.000 L 253.200 226.800 251.600 226.800 L 250.000 226.800 250.000 228.400 L 250.000 230.000 248.400 230.000 L 246.800 230.000 246.800 228.400 L 246.800 226.800 245.000 226.800 L 243.200 226.800 243.200 225.000 L 243.200 223.200 241.600 223.200 L 240.000 223.200 240.000 225.000 L 240.000 226.800 238.400 226.800 L 236.800 226.800 236.800 228.400 L 236.800 230.000 238.400 230.000 L 240.000 230.000 240.000 231.600 L 240.000 233.200 241.600 233.200 L 243.200 233.200 243.200 235.000 L 243.200 236.800 241.600 236.800 L 240.000 236.800 240.000 238.400 L 240.000 240.000 238.400 240.000 L 236.800 240.000 236.800 241.600 L 236.800 243.200 233.400 243.200 L 230.000 243.200 230.000 240.000 L 230.000 236.800 228.400 236.800 L 226.800 236.800 226.800 231.800 L 226.800 226.800 225.000 226.800 L 223.200 226.800 223.200 225.000 L 223.200 223.200 225.000 223.200 L 226.800 223.200 226.800 208.200 L 226.800 193.200 225.000 193.200 L 223.200 193.200 223.200 186.600 L 223.200 180.000 221.600 180.000 L 220.000 180.000 220.000 158.400 L 220.000 136.800 218.400 136.800 L 216.800 136.800 216.800 131.800 L 216.800 126.800 215.000 126.800 L 213.200 126.800 213.200 121.800 L 213.200 116.800 211.600 116.800 L 210.000 116.800 210.000 113.400 L 210.000 110.000 208.400 110.000 L 206.800 110.000 206.800 106.600 L 206.800 103.200 205.000 103.200 L 203.200 103.200 203.200 101.600 L 203.200 100.000 201.600 100.000 L 200.000 100.000 200.000 98.400 L 200.000 96.800 198.400 96.800 L 196.800 96.800 196.800 83.400 L 196.800 70.000 198.400 70.000 L 200.000 70.000 200.000 61.600 L 200.000 53.200 198.400 53.200 L 196.800 53.200 196.800 51.600 L 196.800 50.000 191.800 50.000 L 186.800 50.000 186.800 51.600 M196.800 61.600 L 196.800 70.000 195.000 70.000 L 193.200 70.000 193.200 80.200 L 193.200 90.400 191.800 90.400 C 190.433 90.400,190.400 90.438,190.400 92.000 C 190.400 93.562,190.433 93.600,191.800 93.600 C 193.167 93.600,193.200 93.638,193.200 95.200 L 193.200 96.800 195.000 96.800 L 196.800 96.800 196.800 98.400 L 196.800 100.000 198.400 100.000 L 200.000 100.000 200.000 101.600 L 200.000 103.200 201.600 103.200 L 203.200 103.200 203.200 106.600 L 203.200 110.000 205.000 110.000 L 206.800 110.000 206.800 113.400 L 206.800 116.800 208.400 116.800 L 210.000 116.800 210.000 121.800 L 210.000 126.800 211.600 126.800 L 213.200 126.800 213.200 131.800 L 213.200 136.800 215.000 136.800 L 216.800 136.800 216.800 138.400 L 216.800 140.000 206.800 140.000 L 196.800 140.000 196.800 141.600 L 196.800 143.200 200.000 143.200 L 203.200 143.200 203.200 148.400 L 203.200 153.600 208.200 153.600 L 213.200 153.600 213.200 148.400 L 213.200 143.200 215.000 143.200 L 216.800 143.200 216.800 154.800 L 216.800 166.400 215.000 166.400 L 213.200 166.400 213.200 168.200 L 213.200 170.000 215.000 170.000 L 216.800 170.000 216.800 171.600 L 216.800 173.200 215.000 173.200 L 213.200 173.200 213.200 175.000 L 213.200 176.800 215.000 176.800 L 216.800 176.800 216.800 178.400 L 216.800 180.000 218.400 180.000 L 220.000 180.000 220.000 186.600 L 220.000 193.200 221.600 193.200 L 223.200 193.200 223.200 208.200 L 223.200 223.200 220.000 223.200 L 216.800 223.200 216.800 225.000 L 216.800 226.800 220.000 226.800 L 223.200 226.800 223.200 231.800 L 223.200 236.800 225.000 236.800 L 226.800 236.800 226.800 240.000 L 226.800 243.200 228.400 243.200 L 230.000 243.200 230.000 248.200 L 230.000 253.200 231.600 253.200 L 233.200 253.200 233.200 250.000 L 233.200 246.800 235.000 246.800 L 236.800 246.800 236.800 245.000 L 236.800 243.200 238.400 243.200 L 240.000 243.200 240.000 241.600 L 240.000 240.000 241.600 240.000 L 243.200 240.000 243.200 238.400 L 243.200 236.800 245.000 236.800 L 246.800 236.800 246.800 235.000 L 246.800 233.200 245.000 233.200 L 243.200 233.200 243.200 231.600 L 243.200 230.000 241.600 230.000 L 240.000 230.000 240.000 228.400 L 240.000 226.800 241.600 226.800 L 243.200 226.800 243.200 228.400 L 243.200 230.000 245.000 230.000 L 246.800 230.000 246.800 231.600 L 246.800 233.200 248.400 233.200 L 250.000 233.200 250.000 231.600 L 250.000 230.000 251.600 230.000 L 253.200 230.000 253.200 228.400 L 253.200 226.800 255.000 226.800 L 256.800 226.800 256.800 225.000 L 256.800 223.200 258.400 223.200 L 260.000 223.200 260.000 221.600 L 260.000 220.000 261.600 220.000 L 263.200 220.000 263.200 218.400 L 263.200 216.800 265.000 216.800 L 266.800 216.800 266.800 215.000 L 266.800 213.200 268.400 213.200 L 270.000 213.200 270.000 211.600 L 270.000 210.000 271.600 210.000 L 273.200 210.000 273.200 211.600 L 273.200 213.200 275.000 213.200 L 276.800 213.200 276.800 215.000 L 276.800 216.800 275.000 216.800 L 273.200 216.800 273.200 218.400 L 273.200 220.000 271.600 220.000 L 270.000 220.000 270.000 221.600 L 270.000 223.200 268.400 223.200 L 266.800 223.200 266.800 225.000 L 266.800 226.800 265.000 226.800 L 263.200 226.800 263.200 228.400 L 263.200 230.000 261.600 230.000 L 260.000 230.000 260.000 231.600 L 260.000 233.200 258.400 233.200 L 256.800 233.200 256.800 235.000 L 256.800 236.800 255.000 236.800 L 253.200 236.800 253.200 238.400 L 253.200 240.000 255.000 240.000 L 256.800 240.000 256.800 241.600 L 256.800 243.200 258.400 243.200 L 260.000 243.200 260.000 245.000 L 260.000 246.800 258.400 246.800 L 256.800 246.800 256.800 245.000 L 256.800 243.200 255.000 243.200 L 253.200 243.200 253.200 241.600 L 253.200 240.000 251.600 240.000 L 250.000 240.000 250.000 241.600 L 250.000 243.200 248.400 243.200 L 246.800 243.200 246.800 245.000 L 246.800 246.800 245.000 246.800 L 243.200 246.800 243.200 248.400 L 243.200 250.000 241.600 250.000 L 240.000 250.000 240.000 251.600 L 240.000 253.200 236.600 253.200 L 233.200 253.200 233.200 256.600 L 233.200 260.000 235.000 260.000 L 236.800 260.000 236.800 263.400 L 236.800 266.800 238.400 266.800 L 240.000 266.800 240.000 270.000 L 240.000 273.200 241.600 273.200 L 243.200 273.200 243.200 275.000 L 243.200 276.800 245.000 276.800 L 246.800 276.800 246.800 278.400 L 246.800 280.000 248.400 280.000 L 250.000 280.000 250.000 281.600 L 250.000 283.200 251.600 283.200 L 253.200 283.200 253.200 285.000 L 253.200 286.800 255.000 286.800 L 256.800 286.800 256.800 288.400 L 256.800 290.000 258.400 290.000 L 260.000 290.000 260.000 291.600 L 260.000 293.200 261.600 293.200 L 263.200 293.200 263.200 295.000 L 263.200 296.800 265.000 296.800 L 266.800 296.800 266.800 298.400 L 266.800 300.000 268.400 300.000 L 270.000 300.000 270.000 301.600 L 270.000 303.200 271.600 303.200 L 273.200 303.200 273.200 305.000 L 273.200 306.800 275.000 306.800 L 276.800 306.800 276.800 311.800 L 276.800 316.800 278.400 316.800 L 280.000 316.800 280.000 323.400 L 280.000 330.000 278.400 330.000 L 276.800 330.000 276.800 333.400 L 276.800 336.800 273.400 336.800 L 270.000 336.800 270.000 338.400 L 270.000 340.000 275.000 340.000 L 280.000 340.000 280.000 343.400 L 280.000 346.800 276.600 346.800 L 273.200 346.800 273.200 348.400 L 273.200 350.000 270.000 350.000 L 266.800 350.000 266.800 351.600 L 266.800 353.200 260.000 353.200 L 253.200 353.200 253.200 355.000 L 253.200 356.800 248.200 356.800 L 243.200 356.800 243.200 358.400 L 243.200 360.000 236.600 360.000 L 230.000 360.000 230.000 358.400 L 230.000 356.800 220.000 356.800 L 210.000 356.800 210.000 353.400 L 210.000 350.000 221.600 350.000 L 233.200 350.000 233.200 348.400 L 233.200 346.800 221.600 346.800 L 210.000 346.800 210.000 340.000 L 210.000 333.200 208.400 333.200 L 206.800 333.200 206.800 345.000 L 206.800 356.800 203.400 356.800 L 200.000 356.800 200.000 333.400 L 200.000 310.000 198.400 310.000 L 196.800 310.000 196.800 328.400 L 196.800 346.800 191.800 346.800 L 186.800 346.800 186.800 348.400 L 186.800 350.000 191.800 350.000 L 196.800 350.000 196.800 353.400 L 196.800 356.800 180.000 356.800 L 163.200 356.800 163.200 355.000 L 163.200 353.200 156.600 353.200 L 150.000 353.200 150.000 350.000 L 150.000 346.800 153.400 346.800 L 156.800 346.800 156.800 345.000 L 156.800 343.200 153.400 343.200 L 150.000 343.200 150.000 331.600 L 150.000 320.000 151.600 320.000 L 153.200 320.000 153.200 306.600 L 153.200 293.200 155.000 293.200 L 156.800 293.200 156.800 286.600 L 156.800 280.000 158.400 280.000 L 160.000 280.000 160.000 275.000 L 160.000 270.000 156.600 270.000 L 153.200 270.000 153.200 271.600 L 153.200 273.200 155.000 273.200 L 156.800 273.200 156.800 275.000 L 156.800 276.800 155.000 276.800 L 153.200 276.800 153.200 275.000 L 153.200 273.200 151.600 273.200 L 150.000 273.200 150.000 270.000 L 150.000 266.800 148.400 266.800 L 146.800 266.800 146.800 241.800 L 146.800 216.800 148.400 216.800 L 150.000 216.800 150.000 208.400 L 150.000 200.000 151.600 200.000 L 153.200 200.000 153.200 196.600 L 153.200 193.200 155.000 193.200 L 156.800 193.200 156.800 190.000 L 156.800 186.800 158.400 186.800 L 160.000 186.800 160.000 185.000 L 160.000 183.200 158.400 183.200 L 156.800 183.200 156.800 180.000 L 156.800 176.800 158.400 176.800 L 160.000 176.800 160.000 178.400 L 160.000 180.000 163.400 180.000 L 166.800 180.000 166.800 181.600 L 166.800 183.200 168.400 183.200 L 170.000 183.200 170.000 181.600 L 170.000 180.000 171.600 180.000 L 173.200 180.000 173.200 181.600 L 173.200 183.200 171.600 183.200 L 170.000 183.200 170.000 185.000 L 170.000 186.800 171.600 186.800 L 173.200 186.800 173.200 185.200 L 173.200 183.600 191.600 183.600 L 210.000 183.600 210.000 186.800 L 210.000 190.000 211.600 190.000 L 213.200 190.000 213.200 186.600 L 213.200 183.200 211.600 183.200 L 210.000 183.200 210.000 181.600 L 210.000 180.000 211.600 180.000 L 213.200 180.000 213.200 178.400 L 213.200 176.800 211.600 176.800 L 210.000 176.800 210.000 175.000 L 210.000 173.200 191.600 173.200 L 173.200 173.200 173.200 171.600 L 173.200 170.000 168.200 170.000 L 163.200 170.000 163.200 168.200 L 163.200 166.400 160.000 166.400 L 156.800 166.400 156.800 161.600 L 156.800 156.800 158.400 156.800 L 160.000 156.800 160.000 146.800 L 160.000 136.800 161.600 136.800 L 163.200 136.800 163.200 131.800 L 163.200 126.800 165.000 126.800 L 166.800 126.800 166.800 123.400 L 166.800 120.000 168.400 120.000 L 170.000 120.000 170.000 116.600 L 170.000 113.200 171.600 113.200 L 173.200 113.200 173.200 111.600 L 173.200 110.000 175.000 110.000 L 176.800 110.000 176.800 108.400 L 176.800 106.800 178.400 106.800 L 180.000 106.800 180.000 105.000 L 180.000 103.200 181.600 103.200 L 183.200 103.200 183.200 101.600 L 183.200 100.000 185.000 100.000 L 186.800 100.000 186.800 98.400 L 186.800 96.800 185.200 96.800 L 183.600 96.800 183.600 95.200 L 183.600 93.600 180.200 93.600 L 176.800 93.600 176.800 95.200 L 176.800 96.800 173.600 96.800 L 170.400 96.800 170.400 98.600 L 170.400 100.400 168.600 100.400 L 166.800 100.400 166.800 102.000 L 166.800 103.600 163.600 103.600 L 160.400 103.600 160.400 105.200 L 160.400 106.800 157.000 106.800 L 153.600 106.800 153.600 108.600 L 153.600 110.400 150.200 110.400 L 146.800 110.400 146.800 112.000 L 146.800 113.600 143.600 113.600 L 140.400 113.600 140.400 112.000 L 140.400 110.400 137.000 110.400 L 133.600 110.400 133.600 108.600 L 133.600 106.800 130.200 106.800 L 126.800 106.800 126.800 105.200 L 126.800 103.600 125.200 103.600 L 123.600 103.600 123.600 102.000 L 123.600 100.400 120.200 100.400 L 116.800 100.400 116.800 98.600 L 116.800 96.800 113.600 96.800 L 110.400 96.800 110.400 95.200 L 110.400 93.600 108.600 93.600 L 106.800 93.600 106.800 92.000 L 106.800 90.400 108.600 90.400 L 110.400 90.400 110.400 87.000 L 110.400 83.600 113.600 83.600 L 116.800 83.600 116.800 85.200 L 116.800 86.800 118.600 86.800 L 120.400 86.800 120.400 85.200 L 120.400 83.600 122.000 83.600 L 123.600 83.600 123.600 82.000 L 123.600 80.400 125.200 80.400 L 126.800 80.400 126.800 78.600 L 126.800 76.800 128.600 76.800 L 130.400 76.800 130.400 78.600 L 130.400 80.400 132.000 80.400 L 133.600 80.400 133.600 82.000 L 133.600 83.600 135.200 83.600 L 136.800 83.600 136.800 85.200 L 136.800 86.800 138.600 86.800 L 140.400 86.800 140.400 88.600 L 140.400 90.400 143.600 90.400 L 146.800 90.400 146.800 92.000 L 146.800 93.600 148.600 93.600 L 150.400 93.600 150.400 92.000 L 150.400 90.400 153.600 90.400 L 156.800 90.400 156.800 88.600 L 156.800 86.800 161.800 86.800 L 166.800 86.800 166.800 88.600 L 166.800 90.400 175.200 90.400 L 183.600 90.400 183.600 92.000 L 183.600 93.600 185.200 93.600 L 186.800 93.600 186.800 92.000 L 186.800 90.400 188.658 90.400 L 190.516 90.400 190.261 87.700 C 190.120 86.215,190.004 81.625,190.003 77.500 L 190.000 70.000 188.400 70.000 L 186.800 70.000 186.800 68.400 L 186.800 66.800 185.000 66.800 L 183.200 66.800 183.200 61.800 L 183.200 56.800 185.000 56.800 L 186.800 56.800 186.800 55.000 L 186.800 53.200 191.800 53.200 L 196.800 53.200 196.800 61.600 M120.400 88.600 L 120.400 90.400 123.600 90.400 L 126.800 90.400 126.800 92.000 L 126.800 93.600 128.600 93.600 L 130.400 93.600 130.400 95.200 L 130.400 96.800 132.000 96.800 L 133.600 96.800 133.600 98.600 L 133.600 100.400 137.000 100.400 L 140.400 100.400 140.400 102.000 L 140.400 103.600 143.600 103.600 L 146.800 103.600 146.800 102.000 L 146.800 100.400 150.200 100.400 L 153.600 100.400 153.600 98.600 L 153.600 96.800 157.000 96.800 L 160.400 96.800 160.400 95.200 L 160.400 93.600 163.600 93.600 L 166.800 93.600 166.800 92.000 L 166.800 90.400 163.600 90.400 L 160.400 90.400 160.400 92.000 L 160.400 93.600 157.000 93.600 L 153.600 93.600 153.600 95.200 L 153.600 96.800 150.200 96.800 L 146.800 96.800 146.800 98.600 L 146.800 100.400 143.600 100.400 L 140.400 100.400 140.400 98.600 L 140.400 96.800 137.000 96.800 L 133.600 96.800 133.600 95.200 L 133.600 93.600 132.000 93.600 L 130.400 93.600 130.400 92.000 L 130.400 90.400 128.600 90.400 L 126.800 90.400 126.800 88.600 L 126.800 86.800 123.600 86.800 L 120.400 86.800 120.400 88.600 M186.800 95.200 L 186.800 96.800 188.600 96.800 L 190.400 96.800 190.400 95.200 L 190.400 93.600 188.600 93.600 L 186.800 93.600 186.800 95.200 M173.200 141.600 L 173.200 143.200 176.600 143.200 L 180.000 143.200 180.000 148.400 L 180.000 153.600 185.000 153.600 L 190.000 153.600 190.000 148.400 L 190.000 143.200 191.600 143.200 L 193.200 143.200 193.200 141.600 L 193.200 140.000 183.200 140.000 L 173.200 140.000 173.200 141.600 M190.000 161.600 L 190.000 163.200 195.000 163.200 L 200.000 163.200 200.000 161.600 L 200.000 160.000 195.000 160.000 L 190.000 160.000 190.000 161.600 M160.000 171.600 L 160.000 173.200 158.400 173.200 L 156.800 173.200 156.800 171.600 L 156.800 170.000 158.400 170.000 L 160.000 170.000 160.000 171.600 M210.000 171.600 L 210.000 173.200 211.600 173.200 L 213.200 173.200 213.200 171.600 L 213.200 170.000 211.600 170.000 L 210.000 170.000 210.000 171.600 M170.000 175.000 L 170.000 176.800 168.400 176.800 L 166.800 176.800 166.800 175.000 L 166.800 173.200 168.400 173.200 L 170.000 173.200 170.000 175.000 M180.000 178.400 L 180.000 180.000 178.400 180.000 L 176.800 180.000 176.800 178.400 L 176.800 176.800 178.400 176.800 L 180.000 176.800 180.000 178.400 M186.800 178.400 L 186.800 180.000 185.000 180.000 L 183.200 180.000 183.200 178.400 L 183.200 176.800 185.000 176.800 L 186.800 176.800 186.800 178.400 M193.200 178.400 L 193.200 180.000 191.600 180.000 L 190.000 180.000 190.000 178.400 L 190.000 176.800 191.600 176.800 L 193.200 176.800 193.200 178.400 M200.000 178.400 L 200.000 180.000 198.400 180.000 L 196.800 180.000 196.800 178.400 L 196.800 176.800 198.400 176.800 L 200.000 176.800 200.000 178.400 M206.800 178.400 L 206.800 180.000 205.000 180.000 L 203.200 180.000 203.200 178.400 L 203.200 176.800 205.000 176.800 L 206.800 176.800 206.800 178.400 M213.200 181.600 L 213.200 183.200 215.000 183.200 L 216.800 183.200 216.800 181.600 L 216.800 180.000 215.000 180.000 L 213.200 180.000 213.200 181.600 M160.000 188.400 L 160.000 190.000 163.400 190.000 L 166.800 190.000 166.800 191.600 L 166.800 193.200 168.400 193.200 L 170.000 193.200 170.000 200.000 L 170.000 206.800 168.400 206.800 L 166.800 206.800 166.800 215.000 L 166.800 223.200 165.000 223.200 L 163.200 223.200 163.200 226.600 L 163.200 230.000 165.000 230.000 L 166.800 230.000 166.800 235.000 L 166.800 240.000 168.400 240.000 L 170.000 240.000 170.000 243.400 L 170.000 246.800 171.600 246.800 L 173.200 246.800 173.200 248.400 L 173.200 250.000 171.600 250.000 L 170.000 250.000 170.000 251.600 L 170.000 253.200 166.600 253.200 L 163.200 253.200 163.200 255.000 L 163.200 256.800 161.600 256.800 L 160.000 256.800 160.000 258.400 L 160.000 260.000 158.400 260.000 L 156.800 260.000 156.800 261.600 L 156.800 263.200 153.400 263.200 L 150.000 263.200 150.000 265.000 L 150.000 266.800 153.400 266.800 L 156.800 266.800 156.800 265.000 L 156.800 263.200 158.400 263.200 L 160.000 263.200 160.000 261.600 L 160.000 260.000 161.600 260.000 L 163.200 260.000 163.200 258.400 L 163.200 256.800 166.600 256.800 L 170.000 256.800 170.000 258.400 L 170.000 260.000 168.400 260.000 L 166.800 260.000 166.800 261.600 L 166.800 263.200 165.000 263.200 L 163.200 263.200 163.200 265.000 L 163.200 266.800 161.600 266.800 L 160.000 266.800 160.000 268.400 L 160.000 270.000 161.600 270.000 L 163.200 270.000 163.200 268.400 L 163.200 266.800 165.000 266.800 L 166.800 266.800 166.800 265.000 L 166.800 263.200 168.400 263.200 L 170.000 263.200 170.000 261.600 L 170.000 260.000 171.600 260.000 L 173.200 260.000 173.200 265.000 L 173.200 270.000 175.000 270.000 L 176.800 270.000 176.800 271.600 L 176.800 273.200 180.000 273.200 L 183.200 273.200 183.200 271.600 L 183.200 270.000 185.000 270.000 L 186.800 270.000 186.800 268.400 L 186.800 266.800 188.400 266.800 L 190.000 266.800 190.000 263.400 L 190.000 260.000 188.400 260.000 L 186.800 260.000 186.800 258.400 L 186.800 256.800 185.000 256.800 L 183.200 256.800 183.200 255.000 L 183.200 253.200 181.600 253.200 L 180.000 253.200 180.000 251.600 L 180.000 250.000 183.400 250.000 L 186.800 250.000 186.800 251.600 L 186.800 253.200 190.000 253.200 L 193.200 253.200 193.200 281.600 L 193.200 310.000 195.000 310.000 L 196.800 310.000 196.800 280.000 L 196.800 250.000 198.400 250.000 L 200.000 250.000 200.000 263.400 L 200.000 276.800 201.600 276.800 L 203.200 276.800 203.200 305.000 L 203.200 333.200 205.000 333.200 L 206.800 333.200 206.800 305.000 L 206.800 276.800 205.000 276.800 L 203.200 276.800 203.200 263.400 L 203.200 250.000 205.000 250.000 L 206.800 250.000 206.800 251.600 L 206.800 253.200 211.800 253.200 L 216.800 253.200 216.800 251.600 L 216.800 250.000 220.000 250.000 L 223.200 250.000 223.200 248.400 L 223.200 246.800 225.000 246.800 L 226.800 246.800 226.800 245.000 L 226.800 243.200 225.000 243.200 L 223.200 243.200 223.200 245.000 L 223.200 246.800 220.000 246.800 L 216.800 246.800 216.800 248.400 L 216.800 250.000 211.800 250.000 L 206.800 250.000 206.800 248.400 L 206.800 246.800 201.800 246.800 L 196.800 246.800 196.800 248.400 L 196.800 250.000 191.800 250.000 L 186.800 250.000 186.800 248.400 L 186.800 246.800 180.000 246.800 L 173.200 246.800 173.200 243.400 L 173.200 240.000 171.600 240.000 L 170.000 240.000 170.000 235.000 L 170.000 230.000 173.400 230.000 L 176.800 230.000 176.800 231.600 L 176.800 233.200 180.000 233.200 L 183.200 233.200 183.200 231.600 L 183.200 230.000 186.600 230.000 L 190.000 230.000 190.000 228.400 L 190.000 226.800 191.600 226.800 L 193.200 226.800 193.200 228.400 L 193.200 230.000 200.000 230.000 L 206.800 230.000 206.800 231.600 L 206.800 233.200 210.000 233.200 L 213.200 233.200 213.200 231.600 L 213.200 230.000 215.000 230.000 L 216.800 230.000 216.800 228.400 L 216.800 226.800 215.000 226.800 L 213.200 226.800 213.200 228.400 L 213.200 230.000 210.000 230.000 L 206.800 230.000 206.800 228.400 L 206.800 226.800 205.000 226.800 L 203.200 226.800 203.200 223.400 L 203.200 220.000 205.000 220.000 L 206.800 220.000 206.800 216.600 L 206.800 213.200 208.400 213.200 L 210.000 213.200 210.000 210.000 L 210.000 206.800 211.600 206.800 L 213.200 206.800 213.200 205.000 L 213.200 203.200 215.000 203.200 L 216.800 203.200 216.800 200.000 L 216.800 196.800 218.400 196.800 L 220.000 196.800 220.000 195.000 L 220.000 193.200 218.400 193.200 L 216.800 193.200 216.800 195.000 L 216.800 196.800 215.000 196.800 L 213.200 196.800 213.200 200.000 L 213.200 203.200 211.600 203.200 L 210.000 203.200 210.000 205.000 L 210.000 206.800 208.400 206.800 L 206.800 206.800 206.800 210.000 L 206.800 213.200 205.000 213.200 L 203.200 213.200 203.200 216.600 L 203.200 220.000 201.600 220.000 L 200.000 220.000 200.000 223.400 L 200.000 226.800 196.600 226.800 L 193.200 226.800 193.200 223.400 L 193.200 220.000 195.000 220.000 L 196.800 220.000 196.800 216.600 L 196.800 213.200 198.400 213.200 L 200.000 213.200 200.000 210.000 L 200.000 206.800 201.600 206.800 L 203.200 206.800 203.200 203.400 L 203.200 200.000 205.000 200.000 L 206.800 200.000 206.800 198.400 L 206.800 196.800 208.400 196.800 L 210.000 196.800 210.000 193.400 L 210.000 190.000 208.400 190.000 L 206.800 190.000 206.800 193.400 L 206.800 196.800 205.000 196.800 L 203.200 196.800 203.200 198.400 L 203.200 200.000 201.600 200.000 L 200.000 200.000 200.000 203.400 L 200.000 206.800 198.400 206.800 L 196.800 206.800 196.800 205.000 L 196.800 203.200 195.000 203.200 L 193.200 203.200 193.200 201.600 L 193.200 200.000 191.600 200.000 L 190.000 200.000 190.000 198.400 L 190.000 196.800 188.400 196.800 L 186.800 196.800 186.800 195.000 L 186.800 193.200 185.000 193.200 L 183.200 193.200 183.200 191.600 L 183.200 190.000 180.000 190.000 L 176.800 190.000 176.800 188.400 L 176.800 186.800 175.000 186.800 L 173.200 186.800 173.200 188.400 L 173.200 190.000 175.000 190.000 L 176.800 190.000 176.800 191.600 L 176.800 193.200 180.000 193.200 L 183.200 193.200 183.200 195.000 L 183.200 196.800 185.000 196.800 L 186.800 196.800 186.800 198.400 L 186.800 200.000 188.400 200.000 L 190.000 200.000 190.000 201.600 L 190.000 203.200 191.600 203.200 L 193.200 203.200 193.200 205.000 L 193.200 206.800 195.000 206.800 L 196.800 206.800 196.800 210.000 L 196.800 213.200 195.000 213.200 L 193.200 213.200 193.200 211.600 L 193.200 210.000 191.600 210.000 L 190.000 210.000 190.000 208.400 L 190.000 206.800 188.400 206.800 L 186.800 206.800 186.800 205.000 L 186.800 203.200 185.000 203.200 L 183.200 203.200 183.200 201.600 L 183.200 200.000 180.000 200.000 L 176.800 200.000 176.800 198.400 L 176.800 196.800 175.000 196.800 L 173.200 196.800 173.200 195.000 L 173.200 193.200 171.600 193.200 L 170.000 193.200 170.000 191.600 L 170.000 190.000 168.400 190.000 L 166.800 190.000 166.800 188.400 L 166.800 186.800 163.400 186.800 L 160.000 186.800 160.000 188.400 M176.800 201.600 L 176.800 203.200 180.000 203.200 L 183.200 203.200 183.200 205.000 L 183.200 206.800 185.000 206.800 L 186.800 206.800 186.800 208.400 L 186.800 210.000 188.400 210.000 L 190.000 210.000 190.000 211.600 L 190.000 213.200 191.600 213.200 L 193.200 213.200 193.200 216.600 L 193.200 220.000 191.600 220.000 L 190.000 220.000 190.000 223.400 L 190.000 226.800 186.600 226.800 L 183.200 226.800 183.200 228.400 L 183.200 230.000 180.000 230.000 L 176.800 230.000 176.800 228.400 L 176.800 226.800 173.400 226.800 L 170.000 226.800 170.000 228.400 L 170.000 230.000 168.400 230.000 L 166.800 230.000 166.800 226.600 L 166.800 223.200 168.400 223.200 L 170.000 223.200 170.000 215.000 L 170.000 206.800 171.600 206.800 L 173.200 206.800 173.200 203.400 L 173.200 200.000 175.000 200.000 L 176.800 200.000 176.800 201.600 M250.000 235.000 L 250.000 236.800 248.400 236.800 L 246.800 236.800 246.800 238.400 L 246.800 240.000 248.400 240.000 L 250.000 240.000 250.000 238.400 L 250.000 236.800 251.600 236.800 L 253.200 236.800 253.200 235.000 L 253.200 233.200 251.600 233.200 L 250.000 233.200 250.000 235.000 M176.800 255.000 L 176.800 256.800 180.000 256.800 L 183.200 256.800 183.200 258.400 L 183.200 260.000 185.000 260.000 L 186.800 260.000 186.800 263.400 L 186.800 266.800 185.000 266.800 L 183.200 266.800 183.200 268.400 L 183.200 270.000 180.000 270.000 L 176.800 270.000 176.800 263.400 L 176.800 256.800 173.400 256.800 L 170.000 256.800 170.000 255.000 L 170.000 253.200 173.400 253.200 L 176.800 253.200 176.800 255.000 M263.200 341.600 L 263.200 343.200 258.200 343.200 L 253.200 343.200 253.200 345.000 L 253.200 346.800 248.200 346.800 L 243.200 346.800 243.200 348.400 L 243.200 350.000 238.200 350.000 L 233.200 350.000 233.200 351.600 L 233.200 353.200 238.200 353.200 L 243.200 353.200 243.200 351.600 L 243.200 350.000 248.200 350.000 L 253.200 350.000 253.200 348.400 L 253.200 346.800 258.200 346.800 L 263.200 346.800 263.200 345.000 L 263.200 343.200 266.600 343.200 L 270.000 343.200 270.000 341.600 L 270.000 340.000 266.600 340.000 L 263.200 340.000 263.200 341.600 M156.800 348.400 L 156.800 350.000 163.400 350.000 L 170.000 350.000 170.000 351.600 L 170.000 353.200 178.400 353.200 L 186.800 353.200 186.800 351.600 L 186.800 350.000 178.400 350.000 L 170.000 350.000 170.000 348.400 L 170.000 346.800 163.400 346.800 L 156.800 346.800 156.800 348.400 " stroke="none" fill="#040404" fill-rule="evenodd"></path><path id="path2" d="M126.800 78.600 L 126.800 80.400 125.200 80.400 L 123.600 80.400 123.600 82.000 L 123.600 83.600 122.000 83.600 L 120.400 83.600 120.400 85.200 L 120.400 86.800 118.600 86.800 L 116.800 86.800 116.800 85.200 L 116.800 83.600 113.600 83.600 L 110.400 83.600 110.400 87.000 L 110.400 90.400 108.600 90.400 L 106.800 90.400 106.800 92.000 L 106.800 93.600 108.600 93.600 L 110.400 93.600 110.400 95.200 L 110.400 96.800 113.600 96.800 L 116.800 96.800 116.800 98.600 L 116.800 100.400 120.200 100.400 L 123.600 100.400 123.600 102.000 L 123.600 103.600 125.200 103.600 L 126.800 103.600 126.800 105.200 L 126.800 106.800 130.200 106.800 L 133.600 106.800 133.600 108.600 L 133.600 110.400 137.000 110.400 L 140.400 110.400 140.400 112.000 L 140.400 113.600 143.600 113.600 L 146.800 113.600 146.800 112.000 L 146.800 110.400 150.200 110.400 L 153.600 110.400 153.600 108.600 L 153.600 106.800 157.000 106.800 L 160.400 106.800 160.400 105.200 L 160.400 103.600 163.600 103.600 L 166.800 103.600 166.800 102.000 L 166.800 100.400 168.600 100.400 L 170.400 100.400 170.400 98.600 L 170.400 96.800 173.600 96.800 L 176.800 96.800 176.800 95.200 L 176.800 93.600 180.200 93.600 L 183.600 93.600 183.600 92.000 L 183.600 90.400 175.200 90.400 L 166.800 90.400 166.800 88.600 L 166.800 86.800 161.800 86.800 L 156.800 86.800 156.800 88.600 L 156.800 90.400 153.600 90.400 L 150.400 90.400 150.400 92.000 L 150.400 93.600 148.600 93.600 L 146.800 93.600 146.800 92.000 L 146.800 90.400 143.600 90.400 L 140.400 90.400 140.400 88.600 L 140.400 86.800 138.600 86.800 L 136.800 86.800 136.800 85.200 L 136.800 83.600 135.200 83.600 L 133.600 83.600 133.600 82.000 L 133.600 80.400 132.000 80.400 L 130.400 80.400 130.400 78.600 L 130.400 76.800 128.600 76.800 L 126.800 76.800 126.800 78.600 M126.800 88.600 L 126.800 90.400 128.600 90.400 L 130.400 90.400 130.400 92.000 L 130.400 93.600 132.000 93.600 L 133.600 93.600 133.600 95.200 L 133.600 96.800 137.000 96.800 L 140.400 96.800 140.400 98.600 L 140.400 100.400 143.600 100.400 L 146.800 100.400 146.800 98.600 L 146.800 96.800 150.200 96.800 L 153.600 96.800 153.600 95.200 L 153.600 93.600 157.000 93.600 L 160.400 93.600 160.400 92.000 L 160.400 90.400 163.600 90.400 L 166.800 90.400 166.800 92.000 L 166.800 93.600 163.600 93.600 L 160.400 93.600 160.400 95.200 L 160.400 96.800 157.000 96.800 L 153.600 96.800 153.600 98.600 L 153.600 100.400 150.200 100.400 L 146.800 100.400 146.800 102.000 L 146.800 103.600 143.600 103.600 L 140.400 103.600 140.400 102.000 L 140.400 100.400 137.000 100.400 L 133.600 100.400 133.600 98.600 L 133.600 96.800 132.000 96.800 L 130.400 96.800 130.400 95.200 L 130.400 93.600 128.600 93.600 L 126.800 93.600 126.800 92.000 L 126.800 90.400 123.600 90.400 L 120.400 90.400 120.400 88.600 L 120.400 86.800 123.600 86.800 L 126.800 86.800 126.800 88.600 M186.800 92.000 L 186.800 93.600 188.600 93.600 L 190.400 93.600 190.400 92.000 L 190.400 90.400 188.600 90.400 L 186.800 90.400 186.800 92.000 M183.200 108.400 L 183.200 110.000 181.600 110.000 L 180.000 110.000 180.000 113.400 L 180.000 116.800 178.400 116.800 L 176.800 116.800 176.800 120.000 L 176.800 123.200 175.000 123.200 L 173.200 123.200 173.200 126.600 L 173.200 130.000 175.000 130.000 L 176.800 130.000 176.800 126.600 L 176.800 123.200 178.400 123.200 L 180.000 123.200 180.000 120.000 L 180.000 116.800 181.600 116.800 L 183.200 116.800 183.200 113.400 L 183.200 110.000 185.000 110.000 L 186.800 110.000 186.800 108.400 L 186.800 106.800 185.000 106.800 L 183.200 106.800 183.200 108.400 M200.000 128.400 L 200.000 130.000 201.600 130.000 L 203.200 130.000 203.200 133.400 L 203.200 136.800 205.000 136.800 L 206.800 136.800 206.800 133.400 L 206.800 130.000 205.000 130.000 L 203.200 130.000 203.200 128.400 L 203.200 126.800 201.600 126.800 L 200.000 126.800 200.000 128.400 M183.200 188.400 L 183.200 190.000 185.000 190.000 L 186.800 190.000 186.800 188.400 L 186.800 186.800 185.000 186.800 L 183.200 186.800 183.200 188.400 M203.200 188.400 L 203.200 190.000 201.600 190.000 L 200.000 190.000 200.000 191.600 L 200.000 193.200 201.600 193.200 L 203.200 193.200 203.200 191.600 L 203.200 190.000 206.600 190.000 L 210.000 190.000 210.000 188.400 L 210.000 186.800 206.600 186.800 L 203.200 186.800 203.200 188.400 " stroke="none" fill="#c43f42" fill-rule="evenodd"></path><path id="path3" d="M156.800 190.000 L 156.800 193.200 155.000 193.200 L 153.200 193.200 153.200 196.600 L 153.200 200.000 151.600 200.000 L 150.000 200.000 150.000 208.400 L 150.000 216.800 148.400 216.800 L 146.800 216.800 146.800 241.800 L 146.800 266.800 148.400 266.800 L 150.000 266.800 150.000 265.000 L 150.000 263.200 153.400 263.200 L 156.800 263.200 156.800 261.600 L 156.800 260.000 155.000 260.000 L 153.200 260.000 153.200 255.000 L 153.200 250.000 151.600 250.000 L 150.000 250.000 150.000 233.400 L 150.000 216.800 151.600 216.800 L 153.200 216.800 153.200 211.800 L 153.200 206.800 155.000 206.800 L 156.800 206.800 156.800 203.400 L 156.800 200.000 158.400 200.000 L 160.000 200.000 160.000 198.400 L 160.000 196.800 163.400 196.800 L 166.800 196.800 166.800 193.400 L 166.800 190.000 163.400 190.000 L 160.000 190.000 160.000 188.400 L 160.000 186.800 158.400 186.800 L 156.800 186.800 156.800 190.000 M173.200 203.400 L 173.200 206.800 171.600 206.800 L 170.000 206.800 170.000 215.000 L 170.000 223.200 168.400 223.200 L 166.800 223.200 166.800 226.600 L 166.800 230.000 168.400 230.000 L 170.000 230.000 170.000 228.400 L 170.000 226.800 173.400 226.800 L 176.800 226.800 176.800 228.400 L 176.800 230.000 178.400 230.000 L 180.000 230.000 180.000 228.400 L 180.000 226.800 178.400 226.800 L 176.800 226.800 176.800 223.400 L 176.800 220.000 175.000 220.000 L 173.200 220.000 173.200 215.000 L 173.200 210.000 175.000 210.000 L 176.800 210.000 176.800 208.400 L 176.800 206.800 180.000 206.800 L 183.200 206.800 183.200 205.000 L 183.200 203.200 180.000 203.200 L 176.800 203.200 176.800 201.600 L 176.800 200.000 175.000 200.000 L 173.200 200.000 173.200 203.400 M213.200 205.000 L 213.200 206.800 211.600 206.800 L 210.000 206.800 210.000 210.000 L 210.000 213.200 208.400 213.200 L 206.800 213.200 206.800 216.600 L 206.800 220.000 205.000 220.000 L 203.200 220.000 203.200 223.400 L 203.200 226.800 205.000 226.800 L 206.800 226.800 206.800 228.400 L 206.800 230.000 210.000 230.000 L 213.200 230.000 213.200 228.400 L 213.200 226.800 215.000 226.800 L 216.800 226.800 216.800 225.000 L 216.800 223.200 215.000 223.200 L 213.200 223.200 213.200 221.600 L 213.200 220.000 211.600 220.000 L 210.000 220.000 210.000 218.400 L 210.000 216.800 211.600 216.800 L 213.200 216.800 213.200 213.400 L 213.200 210.000 215.000 210.000 L 216.800 210.000 216.800 206.600 L 216.800 203.200 215.000 203.200 L 213.200 203.200 213.200 205.000 M226.800 245.000 L 226.800 246.800 225.000 246.800 L 223.200 246.800 223.200 248.400 L 223.200 250.000 220.000 250.000 L 216.800 250.000 216.800 251.600 L 216.800 253.200 211.800 253.200 L 206.800 253.200 206.800 251.600 L 206.800 250.000 205.000 250.000 L 203.200 250.000 203.200 263.400 L 203.200 276.800 205.000 276.800 L 206.800 276.800 206.800 305.000 L 206.800 333.200 208.400 333.200 L 210.000 333.200 210.000 340.000 L 210.000 346.800 221.600 346.800 L 233.200 346.800 233.200 348.400 L 233.200 350.000 238.200 350.000 L 243.200 350.000 243.200 348.400 L 243.200 346.800 240.000 346.800 L 236.800 346.800 236.800 345.000 L 236.800 343.200 233.400 343.200 L 230.000 343.200 230.000 341.600 L 230.000 340.000 226.600 340.000 L 223.200 340.000 223.200 338.400 L 223.200 336.800 221.600 336.800 L 220.000 336.800 220.000 335.000 L 220.000 333.200 218.400 333.200 L 216.800 333.200 216.800 331.600 L 216.800 330.000 215.000 330.000 L 213.200 330.000 213.200 321.600 L 213.200 313.200 211.600 313.200 L 210.000 313.200 210.000 293.200 L 210.000 273.200 211.600 273.200 L 213.200 273.200 213.200 268.200 L 213.200 263.200 215.000 263.200 L 216.800 263.200 216.800 261.600 L 216.800 260.000 218.400 260.000 L 220.000 260.000 220.000 258.400 L 220.000 256.800 221.600 256.800 L 223.200 256.800 223.200 255.000 L 223.200 253.200 225.000 253.200 L 226.800 253.200 226.800 251.600 L 226.800 250.000 228.400 250.000 L 230.000 250.000 230.000 246.600 L 230.000 243.200 228.400 243.200 L 226.800 243.200 226.800 245.000 M170.000 261.600 L 170.000 263.200 168.400 263.200 L 166.800 263.200 166.800 265.000 L 166.800 266.800 165.000 266.800 L 163.200 266.800 163.200 268.400 L 163.200 270.000 161.600 270.000 L 160.000 270.000 160.000 275.000 L 160.000 280.000 158.400 280.000 L 156.800 280.000 156.800 286.600 L 156.800 293.200 155.000 293.200 L 153.200 293.200 153.200 306.600 L 153.200 320.000 151.600 320.000 L 150.000 320.000 150.000 331.600 L 150.000 343.200 153.400 343.200 L 156.800 343.200 156.800 345.000 L 156.800 346.800 161.800 346.800 L 166.800 346.800 166.800 345.000 L 166.800 343.200 165.000 343.200 L 163.200 343.200 163.200 341.600 L 163.200 340.000 161.600 340.000 L 160.000 340.000 160.000 338.400 L 160.000 336.800 158.400 336.800 L 156.800 336.800 156.800 335.000 L 156.800 333.200 155.000 333.200 L 153.200 333.200 153.200 330.000 L 153.200 326.800 155.000 326.800 L 156.800 326.800 156.800 321.800 L 156.800 316.800 158.400 316.800 L 160.000 316.800 160.000 306.800 L 160.000 296.800 161.600 296.800 L 163.200 296.800 163.200 290.000 L 163.200 283.200 165.000 283.200 L 166.800 283.200 166.800 280.000 L 166.800 276.800 168.400 276.800 L 170.000 276.800 170.000 275.000 L 170.000 273.200 171.600 273.200 L 173.200 273.200 173.200 275.000 L 173.200 276.800 180.000 276.800 L 186.800 276.800 186.800 275.000 L 186.800 273.200 188.400 273.200 L 190.000 273.200 190.000 270.000 L 190.000 266.800 188.400 266.800 L 186.800 266.800 186.800 268.400 L 186.800 270.000 185.000 270.000 L 183.200 270.000 183.200 271.600 L 183.200 273.200 180.000 273.200 L 176.800 273.200 176.800 271.600 L 176.800 270.000 175.000 270.000 L 173.200 270.000 173.200 265.000 L 173.200 260.000 171.600 260.000 L 170.000 260.000 170.000 261.600 M243.200 278.400 L 243.200 280.000 245.000 280.000 L 246.800 280.000 246.800 283.400 L 246.800 286.800 248.400 286.800 L 250.000 286.800 250.000 288.400 L 250.000 290.000 251.600 290.000 L 253.200 290.000 253.200 291.600 L 253.200 293.200 255.000 293.200 L 256.800 293.200 256.800 295.000 L 256.800 296.800 258.400 296.800 L 260.000 296.800 260.000 298.400 L 260.000 300.000 261.600 300.000 L 263.200 300.000 263.200 303.400 L 263.200 306.800 265.000 306.800 L 266.800 306.800 266.800 310.000 L 266.800 313.200 268.400 313.200 L 270.000 313.200 270.000 316.600 L 270.000 320.000 271.600 320.000 L 273.200 320.000 273.200 325.000 L 273.200 330.000 271.600 330.000 L 270.000 330.000 270.000 331.600 L 270.000 333.200 268.400 333.200 L 266.800 333.200 266.800 335.000 L 266.800 336.800 265.000 336.800 L 263.200 336.800 263.200 338.400 L 263.200 340.000 260.000 340.000 L 256.800 340.000 256.800 341.600 L 256.800 343.200 260.000 343.200 L 263.200 343.200 263.200 341.600 L 263.200 340.000 266.600 340.000 L 270.000 340.000 270.000 338.400 L 270.000 336.800 273.400 336.800 L 276.800 336.800 276.800 333.400 L 276.800 330.000 278.400 330.000 L 280.000 330.000 280.000 323.400 L 280.000 316.800 278.400 316.800 L 276.800 316.800 276.800 311.800 L 276.800 306.800 275.000 306.800 L 273.200 306.800 273.200 305.000 L 273.200 303.200 271.600 303.200 L 270.000 303.200 270.000 301.600 L 270.000 300.000 268.400 300.000 L 266.800 300.000 266.800 298.400 L 266.800 296.800 265.000 296.800 L 263.200 296.800 263.200 295.000 L 263.200 293.200 261.600 293.200 L 260.000 293.200 260.000 291.600 L 260.000 290.000 258.400 290.000 L 256.800 290.000 256.800 288.400 L 256.800 286.800 255.000 286.800 L 253.200 286.800 253.200 285.000 L 253.200 283.200 251.600 283.200 L 250.000 283.200 250.000 281.600 L 250.000 280.000 248.400 280.000 L 246.800 280.000 246.800 278.400 L 246.800 276.800 245.000 276.800 L 243.200 276.800 243.200 278.400 M190.000 301.600 L 190.000 310.000 191.600 310.000 L 193.200 310.000 193.200 323.400 L 193.200 336.800 191.600 336.800 L 190.000 336.800 190.000 340.000 L 190.000 343.200 186.600 343.200 L 183.200 343.200 183.200 345.000 L 183.200 346.800 181.600 346.800 L 180.000 346.800 180.000 348.400 L 180.000 350.000 183.400 350.000 L 186.800 350.000 186.800 348.400 L 186.800 346.800 191.800 346.800 L 196.800 346.800 196.800 328.400 L 196.800 310.000 195.000 310.000 L 193.200 310.000 193.200 301.600 L 193.200 293.200 191.600 293.200 L 190.000 293.200 190.000 301.600 " stroke="none" fill="#9cd4f4" fill-rule="evenodd"></path><path id="path4" d="M156.800 180.000 L 156.800 183.200 158.400 183.200 L 160.000 183.200 160.000 185.000 L 160.000 186.800 163.400 186.800 L 166.800 186.800 166.800 188.400 L 166.800 190.000 168.400 190.000 L 170.000 190.000 170.000 191.600 L 170.000 193.200 171.600 193.200 L 173.200 193.200 173.200 195.000 L 173.200 196.800 175.000 196.800 L 176.800 196.800 176.800 198.400 L 176.800 200.000 180.000 200.000 L 183.200 200.000 183.200 201.600 L 183.200 203.200 185.000 203.200 L 186.800 203.200 186.800 205.000 L 186.800 206.800 188.400 206.800 L 190.000 206.800 190.000 208.400 L 190.000 210.000 191.600 210.000 L 193.200 210.000 193.200 211.600 L 193.200 213.200 195.000 213.200 L 196.800 213.200 196.800 216.600 L 196.800 220.000 195.000 220.000 L 193.200 220.000 193.200 223.400 L 193.200 226.800 191.600 226.800 L 190.000 226.800 190.000 228.400 L 190.000 230.000 186.600 230.000 L 183.200 230.000 183.200 231.600 L 183.200 233.200 180.000 233.200 L 176.800 233.200 176.800 231.600 L 176.800 230.000 173.400 230.000 L 170.000 230.000 170.000 235.000 L 170.000 240.000 171.600 240.000 L 173.200 240.000 173.200 241.600 L 173.200 243.200 175.000 243.200 L 176.800 243.200 176.800 245.000 L 176.800 246.800 181.800 246.800 L 186.800 246.800 186.800 248.400 L 186.800 250.000 191.800 250.000 L 196.800 250.000 196.800 280.000 L 196.800 310.000 198.400 310.000 L 200.000 310.000 200.000 333.400 L 200.000 356.800 203.400 356.800 L 206.800 356.800 206.800 345.000 L 206.800 333.200 205.000 333.200 L 203.200 333.200 203.200 305.000 L 203.200 276.800 201.600 276.800 L 200.000 276.800 200.000 263.400 L 200.000 250.000 198.400 250.000 L 196.800 250.000 196.800 246.600 L 196.800 243.200 198.400 243.200 L 200.000 243.200 200.000 245.000 L 200.000 246.800 203.400 246.800 L 206.800 246.800 206.800 248.400 L 206.800 250.000 211.800 250.000 L 216.800 250.000 216.800 248.400 L 216.800 246.800 220.000 246.800 L 223.200 246.800 223.200 245.000 L 223.200 243.200 225.000 243.200 L 226.800 243.200 226.800 240.000 L 226.800 236.800 225.000 236.800 L 223.200 236.800 223.200 235.000 L 223.200 233.200 221.600 233.200 L 220.000 233.200 220.000 231.600 L 220.000 230.000 221.600 230.000 L 223.200 230.000 223.200 228.400 L 223.200 226.800 220.000 226.800 L 216.800 226.800 216.800 228.400 L 216.800 230.000 215.000 230.000 L 213.200 230.000 213.200 231.600 L 213.200 233.200 210.000 233.200 L 206.800 233.200 206.800 231.600 L 206.800 230.000 203.400 230.000 L 200.000 230.000 200.000 231.600 L 200.000 233.200 198.400 233.200 L 196.800 233.200 196.800 231.600 L 196.800 230.000 195.000 230.000 L 193.200 230.000 193.200 228.400 L 193.200 226.800 196.600 226.800 L 200.000 226.800 200.000 223.400 L 200.000 220.000 201.600 220.000 L 203.200 220.000 203.200 216.600 L 203.200 213.200 205.000 213.200 L 206.800 213.200 206.800 210.000 L 206.800 206.800 208.400 206.800 L 210.000 206.800 210.000 205.000 L 210.000 203.200 211.600 203.200 L 213.200 203.200 213.200 200.000 L 213.200 196.800 215.000 196.800 L 216.800 196.800 216.800 195.000 L 216.800 193.200 218.400 193.200 L 220.000 193.200 220.000 186.600 L 220.000 180.000 218.400 180.000 L 216.800 180.000 216.800 181.600 L 216.800 183.200 215.000 183.200 L 213.200 183.200 213.200 186.600 L 213.200 190.000 211.600 190.000 L 210.000 190.000 210.000 193.400 L 210.000 196.800 208.400 196.800 L 206.800 196.800 206.800 198.400 L 206.800 200.000 205.000 200.000 L 203.200 200.000 203.200 203.400 L 203.200 206.800 201.600 206.800 L 200.000 206.800 200.000 210.000 L 200.000 213.200 198.400 213.200 L 196.800 213.200 196.800 210.000 L 196.800 206.800 195.000 206.800 L 193.200 206.800 193.200 205.000 L 193.200 203.200 191.600 203.200 L 190.000 203.200 190.000 201.600 L 190.000 200.000 188.400 200.000 L 186.800 200.000 186.800 198.400 L 186.800 196.800 185.000 196.800 L 183.200 196.800 183.200 195.000 L 183.200 193.200 180.000 193.200 L 176.800 193.200 176.800 191.600 L 176.800 190.000 175.000 190.000 L 173.200 190.000 173.200 188.400 L 173.200 186.800 171.600 186.800 L 170.000 186.800 170.000 185.000 L 170.000 183.200 168.400 183.200 L 166.800 183.200 166.800 181.600 L 166.800 180.000 163.400 180.000 L 160.000 180.000 160.000 178.400 L 160.000 176.800 158.400 176.800 L 156.800 176.800 156.800 180.000 M270.000 211.600 L 270.000 213.200 268.400 213.200 L 266.800 213.200 266.800 215.000 L 266.800 216.800 265.000 216.800 L 263.200 216.800 263.200 218.400 L 263.200 220.000 261.600 220.000 L 260.000 220.000 260.000 221.600 L 260.000 223.200 258.400 223.200 L 256.800 223.200 256.800 225.000 L 256.800 226.800 255.000 226.800 L 253.200 226.800 253.200 228.400 L 253.200 230.000 251.600 230.000 L 250.000 230.000 250.000 231.600 L 250.000 233.200 248.400 233.200 L 246.800 233.200 246.800 231.600 L 246.800 230.000 245.000 230.000 L 243.200 230.000 243.200 228.400 L 243.200 226.800 241.600 226.800 L 240.000 226.800 240.000 228.400 L 240.000 230.000 241.600 230.000 L 243.200 230.000 243.200 231.600 L 243.200 233.200 245.000 233.200 L 246.800 233.200 246.800 235.000 L 246.800 236.800 248.400 236.800 L 250.000 236.800 250.000 238.400 L 250.000 240.000 251.600 240.000 L 253.200 240.000 253.200 241.600 L 253.200 243.200 255.000 243.200 L 256.800 243.200 256.800 245.000 L 256.800 246.800 258.400 246.800 L 260.000 246.800 260.000 245.000 L 260.000 243.200 258.400 243.200 L 256.800 243.200 256.800 241.600 L 256.800 240.000 255.000 240.000 L 253.200 240.000 253.200 238.400 L 253.200 236.800 255.000 236.800 L 256.800 236.800 256.800 235.000 L 256.800 233.200 258.400 233.200 L 260.000 233.200 260.000 231.600 L 260.000 230.000 261.600 230.000 L 263.200 230.000 263.200 228.400 L 263.200 226.800 265.000 226.800 L 266.800 226.800 266.800 225.000 L 266.800 223.200 268.400 223.200 L 270.000 223.200 270.000 221.600 L 270.000 220.000 271.600 220.000 L 273.200 220.000 273.200 218.400 L 273.200 216.800 275.000 216.800 L 276.800 216.800 276.800 215.000 L 276.800 213.200 275.000 213.200 L 273.200 213.200 273.200 211.600 L 273.200 210.000 271.600 210.000 L 270.000 210.000 270.000 211.600 M273.200 215.000 L 273.200 216.800 271.600 216.800 L 270.000 216.800 270.000 218.400 L 270.000 220.000 268.400 220.000 L 266.800 220.000 266.800 221.600 L 266.800 223.200 265.000 223.200 L 263.200 223.200 263.200 225.000 L 263.200 226.800 261.600 226.800 L 260.000 226.800 260.000 228.400 L 260.000 230.000 258.400 230.000 L 256.800 230.000 256.800 231.600 L 256.800 233.200 255.000 233.200 L 253.200 233.200 253.200 235.000 L 253.200 236.800 251.600 236.800 L 250.000 236.800 250.000 235.000 L 250.000 233.200 251.600 233.200 L 253.200 233.200 253.200 231.600 L 253.200 230.000 255.000 230.000 L 256.800 230.000 256.800 228.400 L 256.800 226.800 258.400 226.800 L 260.000 226.800 260.000 225.000 L 260.000 223.200 261.600 223.200 L 263.200 223.200 263.200 221.600 L 263.200 220.000 265.000 220.000 L 266.800 220.000 266.800 218.400 L 266.800 216.800 268.400 216.800 L 270.000 216.800 270.000 215.000 L 270.000 213.200 271.600 213.200 L 273.200 213.200 273.200 215.000 M196.800 235.000 L 196.800 236.800 193.400 236.800 L 190.000 236.800 190.000 238.400 L 190.000 240.000 186.600 240.000 L 183.200 240.000 183.200 241.600 L 183.200 243.200 180.000 243.200 L 176.800 243.200 176.800 241.600 L 176.800 240.000 180.000 240.000 L 183.200 240.000 183.200 238.400 L 183.200 236.800 186.600 236.800 L 190.000 236.800 190.000 235.000 L 190.000 233.200 193.400 233.200 L 196.800 233.200 196.800 235.000 M220.000 235.000 L 220.000 236.800 218.400 236.800 L 216.800 236.800 216.800 238.400 L 216.800 240.000 211.800 240.000 L 206.800 240.000 206.800 241.600 L 206.800 243.200 203.400 243.200 L 200.000 243.200 200.000 241.600 L 200.000 240.000 203.400 240.000 L 206.800 240.000 206.800 238.400 L 206.800 236.800 211.800 236.800 L 216.800 236.800 216.800 235.000 L 216.800 233.200 218.400 233.200 L 220.000 233.200 220.000 235.000 M170.000 255.000 L 170.000 256.800 166.600 256.800 L 163.200 256.800 163.200 258.400 L 163.200 260.000 161.600 260.000 L 160.000 260.000 160.000 261.600 L 160.000 263.200 158.400 263.200 L 156.800 263.200 156.800 265.000 L 156.800 266.800 153.400 266.800 L 150.000 266.800 150.000 270.000 L 150.000 273.200 151.600 273.200 L 153.200 273.200 153.200 271.600 L 153.200 270.000 156.600 270.000 L 160.000 270.000 160.000 268.400 L 160.000 266.800 161.600 266.800 L 163.200 266.800 163.200 265.000 L 163.200 263.200 165.000 263.200 L 166.800 263.200 166.800 261.600 L 166.800 260.000 168.400 260.000 L 170.000 260.000 170.000 258.400 L 170.000 256.800 173.400 256.800 L 176.800 256.800 176.800 255.000 L 176.800 253.200 173.400 253.200 L 170.000 253.200 170.000 255.000 M270.000 341.600 L 270.000 343.200 266.600 343.200 L 263.200 343.200 263.200 345.000 L 263.200 346.800 258.200 346.800 L 253.200 346.800 253.200 348.400 L 253.200 350.000 248.200 350.000 L 243.200 350.000 243.200 351.600 L 243.200 353.200 238.200 353.200 L 233.200 353.200 233.200 351.600 L 233.200 350.000 221.600 350.000 L 210.000 350.000 210.000 353.400 L 210.000 356.800 220.000 356.800 L 230.000 356.800 230.000 358.400 L 230.000 360.000 236.600 360.000 L 243.200 360.000 243.200 358.400 L 243.200 356.800 248.200 356.800 L 253.200 356.800 253.200 355.000 L 253.200 353.200 260.000 353.200 L 266.800 353.200 266.800 351.600 L 266.800 350.000 270.000 350.000 L 273.200 350.000 273.200 348.400 L 273.200 346.800 276.600 346.800 L 280.000 346.800 280.000 343.400 L 280.000 340.000 275.000 340.000 L 270.000 340.000 270.000 341.600 M150.000 350.000 L 150.000 353.200 156.600 353.200 L 163.200 353.200 163.200 355.000 L 163.200 356.800 180.000 356.800 L 196.800 356.800 196.800 353.400 L 196.800 350.000 191.800 350.000 L 186.800 350.000 186.800 351.600 L 186.800 353.200 178.400 353.200 L 170.000 353.200 170.000 351.600 L 170.000 350.000 163.400 350.000 L 156.800 350.000 156.800 348.400 L 156.800 346.800 153.400 346.800 L 150.000 346.800 150.000 350.000 " stroke="none" fill="#1774aa" fill-rule="evenodd"></path><path id="path5" d="M187.067 53.467 C 186.920 53.613,186.800 54.413,186.800 55.244 C 186.800 56.735,186.778 56.756,185.100 56.877 L 183.400 57.000 183.400 61.800 L 183.400 66.600 185.077 66.722 C 186.696 66.840,186.759 66.895,186.877 68.322 C 186.993 69.715,187.086 69.807,188.500 69.924 L 190.000 70.048 190.000 68.424 L 190.000 66.800 188.400 66.800 L 186.800 66.800 186.800 61.800 L 186.800 56.800 188.400 56.800 L 190.000 56.800 190.000 55.000 C 190.000 53.243,188.221 52.313,187.067 53.467 M187.067 97.067 C 186.920 97.213,186.800 97.923,186.800 98.644 C 186.800 99.899,186.729 99.959,185.100 100.077 C 183.455 100.196,183.396 100.248,183.277 101.677 C 183.162 103.065,183.065 103.162,181.677 103.277 C 180.251 103.396,180.196 103.458,180.078 105.077 C 179.960 106.696,179.905 106.759,178.478 106.877 C 177.089 106.993,176.993 107.089,176.877 108.478 C 176.759 109.905,176.696 109.960,175.077 110.078 C 173.458 110.196,173.396 110.251,173.277 111.677 C 173.162 113.065,173.065 113.162,171.677 113.277 L 170.200 113.400 170.084 116.677 L 169.968 119.954 168.484 120.077 L 167.000 120.200 166.884 123.478 L 166.768 126.756 165.084 126.878 L 163.400 127.000 163.288 131.877 L 163.176 136.753 161.688 136.877 L 160.200 137.000 160.093 146.876 L 159.986 156.753 158.493 156.876 L 157.000 157.000 156.887 161.700 L 156.775 166.400 159.987 166.400 L 163.200 166.400 163.200 168.200 L 163.200 170.000 168.200 170.000 L 173.200 170.000 173.200 161.600 L 173.200 153.200 175.000 153.200 L 176.800 153.200 176.800 150.000 L 176.800 146.800 175.000 146.800 L 173.200 146.800 173.200 143.400 L 173.200 140.000 175.000 140.000 L 176.800 140.000 176.800 138.400 L 176.800 136.800 178.400 136.800 L 180.000 136.800 180.000 130.000 L 180.000 123.200 181.600 123.200 L 183.200 123.200 183.200 120.000 L 183.200 116.800 185.000 116.800 L 186.800 116.800 186.800 113.400 L 186.800 110.000 185.000 110.000 L 183.200 110.000 183.200 108.400 L 183.200 106.800 186.600 106.800 L 190.000 106.800 190.000 101.800 L 190.000 96.800 188.667 96.800 C 187.933 96.800,187.213 96.920,187.067 97.067 M183.200 113.400 L 183.200 116.800 181.600 116.800 L 180.000 116.800 180.000 120.000 L 180.000 123.200 178.400 123.200 L 176.800 123.200 176.800 126.600 L 176.800 130.000 175.000 130.000 L 173.200 130.000 173.200 126.600 L 173.200 123.200 175.000 123.200 L 176.800 123.200 176.800 120.000 L 176.800 116.800 178.400 116.800 L 180.000 116.800 180.000 113.400 L 180.000 110.000 181.600 110.000 L 183.200 110.000 183.200 113.400 M170.000 181.600 L 170.000 183.200 171.600 183.200 L 173.200 183.200 173.200 181.600 L 173.200 180.000 171.600 180.000 L 170.000 180.000 170.000 181.600 M176.888 264.900 L 177.000 269.800 180.000 269.800 L 183.000 269.800 183.116 266.500 L 183.232 263.200 181.616 263.200 L 180.000 263.200 180.000 261.600 L 180.000 260.000 178.388 260.000 L 176.775 260.000 176.888 264.900 " stroke="none" fill="#f4a404" fill-rule="evenodd"></path><path id="path6" d="M196.800 231.600 L 196.800 233.200 193.400 233.200 L 190.000 233.200 190.000 235.000 L 190.000 236.800 186.600 236.800 L 183.200 236.800 183.200 238.400 L 183.200 240.000 180.000 240.000 L 176.800 240.000 176.800 241.600 L 176.800 243.200 175.000 243.200 L 173.200 243.200 173.200 245.000 L 173.200 246.800 175.000 246.800 L 176.800 246.800 176.800 245.000 L 176.800 243.200 180.000 243.200 L 183.200 243.200 183.200 241.600 L 183.200 240.000 186.600 240.000 L 190.000 240.000 190.000 238.400 L 190.000 236.800 193.400 236.800 L 196.800 236.800 196.800 235.000 L 196.800 233.200 198.400 233.200 L 200.000 233.200 200.000 231.600 L 200.000 230.000 198.400 230.000 L 196.800 230.000 196.800 231.600 M220.000 231.600 L 220.000 233.200 218.400 233.200 L 216.800 233.200 216.800 235.000 L 216.800 236.800 211.800 236.800 L 206.800 236.800 206.800 238.400 L 206.800 240.000 203.400 240.000 L 200.000 240.000 200.000 241.600 L 200.000 243.200 198.400 243.200 L 196.800 243.200 196.800 245.000 L 196.800 246.800 198.400 246.800 L 200.000 246.800 200.000 245.000 L 200.000 243.200 203.400 243.200 L 206.800 243.200 206.800 241.600 L 206.800 240.000 211.800 240.000 L 216.800 240.000 216.800 238.400 L 216.800 236.800 218.400 236.800 L 220.000 236.800 220.000 235.000 L 220.000 233.200 221.600 233.200 L 223.200 233.200 223.200 231.600 L 223.200 230.000 221.600 230.000 L 220.000 230.000 220.000 231.600 " stroke="none" fill="#349ce4" fill-rule="evenodd"></path><path id="path7" d="M190.000 55.000 L 190.000 56.800 188.400 56.800 L 186.800 56.800 186.800 61.800 L 186.800 66.800 188.400 66.800 L 190.000 66.800 190.003 75.900 C 190.004 80.905,190.120 86.215,190.261 87.700 L 190.516 90.400 191.858 90.400 L 193.200 90.400 193.200 80.200 L 193.200 70.000 195.000 70.000 L 196.800 70.000 196.800 61.600 L 196.800 53.200 193.400 53.200 L 190.000 53.200 190.000 55.000 M190.257 96.059 C 190.116 97.411,190.000 100.381,190.000 102.659 L 190.000 106.800 188.400 106.800 L 186.800 106.800 186.800 111.800 L 186.800 116.800 185.000 116.800 L 183.200 116.800 183.200 120.000 L 183.200 123.200 181.600 123.200 L 180.000 123.200 180.000 130.000 L 180.000 136.800 178.400 136.800 L 176.800 136.800 176.800 138.400 L 176.800 140.000 185.000 140.000 L 193.200 140.000 193.200 141.600 L 193.200 143.200 191.600 143.200 L 190.000 143.200 190.000 148.400 L 190.000 153.600 185.000 153.600 L 180.000 153.600 180.000 151.800 L 180.000 150.000 178.400 150.000 L 176.800 150.000 176.800 151.600 L 176.800 153.200 175.000 153.200 L 173.200 153.200 173.200 163.200 L 173.200 173.200 191.600 173.200 L 210.000 173.200 210.000 171.600 L 210.000 170.000 211.600 170.000 L 213.200 170.000 213.200 168.200 L 213.200 166.400 215.000 166.400 L 216.800 166.400 216.800 154.800 L 216.800 143.200 215.000 143.200 L 213.200 143.200 213.200 148.400 L 213.200 153.600 208.200 153.600 L 203.200 153.600 203.200 151.800 L 203.200 150.000 201.600 150.000 L 200.000 150.000 200.000 148.400 L 200.000 146.800 198.400 146.800 L 196.800 146.800 196.800 143.400 L 196.800 140.000 206.800 140.000 L 216.800 140.000 216.800 138.400 L 216.800 136.800 215.000 136.800 L 213.200 136.800 213.200 131.800 L 213.200 126.800 211.600 126.800 L 210.000 126.800 210.000 121.800 L 210.000 116.800 208.400 116.800 L 206.800 116.800 206.800 113.400 L 206.800 110.000 205.000 110.000 L 203.200 110.000 203.200 106.600 L 203.200 103.200 201.600 103.200 L 200.000 103.200 200.000 101.600 L 200.000 100.000 198.400 100.000 L 196.800 100.000 196.800 98.400 L 196.800 96.800 195.000 96.800 L 193.200 96.800 193.200 95.200 C 193.200 93.651,193.157 93.600,191.857 93.600 L 190.514 93.600 190.257 96.059 M203.200 128.400 L 203.200 130.000 205.000 130.000 L 206.800 130.000 206.800 133.400 L 206.800 136.800 205.000 136.800 L 203.200 136.800 203.200 133.400 L 203.200 130.000 201.600 130.000 L 200.000 130.000 200.000 128.400 L 200.000 126.800 201.600 126.800 L 203.200 126.800 203.200 128.400 M203.200 158.200 L 203.200 160.000 205.000 160.000 L 206.800 160.000 206.800 163.400 L 206.800 166.800 195.000 166.800 L 183.200 166.800 183.200 165.000 L 183.200 163.200 181.600 163.200 L 180.000 163.200 180.000 161.600 L 180.000 160.000 181.600 160.000 L 183.200 160.000 183.200 158.200 L 183.200 156.400 193.200 156.400 L 203.200 156.400 203.200 158.200 M213.200 178.400 L 213.200 180.000 211.600 180.000 L 210.000 180.000 210.000 181.600 L 210.000 183.200 211.600 183.200 L 213.200 183.200 213.200 181.600 L 213.200 180.000 215.000 180.000 L 216.800 180.000 216.800 178.400 L 216.800 176.800 215.000 176.800 L 213.200 176.800 213.200 178.400 M173.200 185.200 L 173.200 186.800 175.000 186.800 L 176.800 186.800 176.800 188.400 L 176.800 190.000 180.000 190.000 L 183.200 190.000 183.200 191.600 L 183.200 193.200 185.000 193.200 L 186.800 193.200 186.800 195.000 L 186.800 196.800 188.400 196.800 L 190.000 196.800 190.000 198.400 L 190.000 200.000 191.600 200.000 L 193.200 200.000 193.200 201.600 L 193.200 203.200 195.000 203.200 L 196.800 203.200 196.800 205.000 L 196.800 206.800 198.400 206.800 L 200.000 206.800 200.000 203.400 L 200.000 200.000 201.600 200.000 L 203.200 200.000 203.200 198.400 L 203.200 196.800 205.000 196.800 L 206.800 196.800 206.800 193.400 L 206.800 190.000 205.000 190.000 L 203.200 190.000 203.200 188.400 L 203.200 186.800 206.600 186.800 L 210.000 186.800 210.000 185.200 L 210.000 183.600 191.600 183.600 L 173.200 183.600 173.200 185.200 M186.800 188.400 L 186.800 190.000 185.000 190.000 L 183.200 190.000 183.200 188.400 L 183.200 186.800 185.000 186.800 L 186.800 186.800 186.800 188.400 M203.200 191.600 L 203.200 193.200 201.600 193.200 L 200.000 193.200 200.000 191.600 L 200.000 190.000 201.600 190.000 L 203.200 190.000 203.200 191.600 M176.800 258.400 L 176.800 260.000 178.400 260.000 L 180.000 260.000 180.000 261.600 L 180.000 263.200 181.600 263.200 L 183.200 263.200 183.200 265.000 L 183.200 266.800 185.000 266.800 L 186.800 266.800 186.800 263.400 L 186.800 260.000 185.000 260.000 L 183.200 260.000 183.200 258.400 L 183.200 256.800 180.000 256.800 L 176.800 256.800 176.800 258.400 " stroke="none" fill="#fccd04" fill-rule="evenodd"></path><path id="path8" d="M183.200 158.200 L 183.200 160.000 181.600 160.000 L 180.000 160.000 180.000 161.600 L 180.000 163.200 181.600 163.200 L 183.200 163.200 183.200 165.000 L 183.200 166.800 195.000 166.800 L 206.800 166.800 206.800 163.400 L 206.800 160.000 205.000 160.000 L 203.200 160.000 203.200 158.200 L 203.200 156.400 193.200 156.400 L 183.200 156.400 183.200 158.200 M200.000 161.600 L 200.000 163.200 195.000 163.200 L 190.000 163.200 190.000 161.600 L 190.000 160.000 195.000 160.000 L 200.000 160.000 200.000 161.600 " stroke="none" fill="#ac74cc" fill-rule="evenodd"></path></g></svg>