<svg id="svg" version="1.1" xmlns="http://www.w3.org/2000/svg" xmlns:xlink="http://www.w3.org/1999/xlink" width="400" height="400" viewBox="0, 0, 400,400"><g id="svgg"><path id="path0" d="M203.200 101.600 L 203.200 103.200 205.000 103.200 L 206.800 103.200 206.800 105.000 L 206.800 106.800 208.400 106.800 L 210.000 106.800 210.000 110.000 L 210.000 113.200 211.600 113.200 L 213.200 113.200 213.200 116.600 L 213.200 120.000 215.000 120.000 L 216.800 120.000 216.800 125.000 L 216.800 130.000 218.400 130.000 L 220.000 130.000 220.000 131.600 L 220.000 133.200 221.600 133.200 L 223.200 133.200 223.200 131.600 L 223.200 130.000 221.600 130.000 L 220.000 130.000 220.000 123.400 L 220.000 116.800 218.400 116.800 L 216.800 116.800 216.800 115.000 L 216.800 113.200 215.000 113.200 L 213.200 113.200 213.200 110.000 L 213.200 106.800 211.600 106.800 L 210.000 106.800 210.000 105.000 L 210.000 103.200 208.400 103.200 L 206.800 103.200 206.800 101.600 L 206.800 100.000 205.000 100.000 L 203.200 100.000 203.200 101.600 M173.200 108.400 L 173.200 110.000 175.000 110.000 L 176.800 110.000 176.800 108.400 L 176.800 106.800 175.000 106.800 L 173.200 106.800 173.200 108.400 M166.800 115.000 L 166.800 116.800 165.000 116.800 L 163.200 116.800 163.200 118.400 L 163.200 120.000 161.600 120.000 L 160.000 120.000 160.000 121.600 L 160.000 123.200 158.400 123.200 L 156.800 123.200 156.800 128.200 L 156.800 133.200 155.000 133.200 L 153.200 133.200 153.200 135.000 L 153.200 136.800 151.600 136.800 L 150.000 136.800 150.000 140.000 L 150.000 143.200 148.400 143.200 L 146.800 143.200 146.800 145.000 L 146.800 146.800 145.000 146.800 L 143.200 146.800 143.200 148.400 L 143.200 150.000 141.600 150.000 L 140.000 150.000 140.000 151.600 L 140.000 153.200 138.400 153.200 L 136.800 153.200 136.800 158.200 L 136.800 163.200 135.000 163.200 L 133.200 163.200 133.200 166.600 L 133.200 170.000 131.600 170.000 L 130.000 170.000 130.000 175.000 L 130.000 180.000 131.600 180.000 L 133.200 180.000 133.200 185.000 L 133.200 190.000 135.000 190.000 L 136.800 190.000 136.800 191.600 L 136.800 193.200 138.400 193.200 L 140.000 193.200 140.000 196.600 L 140.000 200.000 138.400 200.000 L 136.800 200.000 136.800 201.600 L 136.800 203.200 135.000 203.200 L 133.200 203.200 133.200 205.000 L 133.200 206.800 131.600 206.800 L 130.000 206.800 130.000 211.800 L 130.000 216.800 131.600 216.800 L 133.200 216.800 133.200 218.400 L 133.200 220.000 135.000 220.000 L 136.800 220.000 136.800 221.600 L 136.800 223.200 138.400 223.200 L 140.000 223.200 140.000 225.000 L 140.000 226.800 141.600 226.800 L 143.200 226.800 143.200 228.400 L 143.200 230.000 145.000 230.000 L 146.800 230.000 146.800 231.600 L 146.800 233.200 148.400 233.200 L 150.000 233.200 150.000 228.200 L 150.000 223.200 151.600 223.200 L 153.200 223.200 153.200 220.000 L 153.200 216.800 151.600 216.800 L 150.000 216.800 150.000 213.400 L 150.000 210.000 148.400 210.000 L 146.800 210.000 146.800 203.400 L 146.800 196.800 148.400 196.800 L 150.000 196.800 150.000 186.800 L 150.000 176.800 148.400 176.800 L 146.800 176.800 146.800 170.000 L 146.800 163.200 148.400 163.200 L 150.000 163.200 150.000 156.600 L 150.000 150.000 151.600 150.000 L 153.200 150.000 153.200 145.000 L 153.200 140.000 155.000 140.000 L 156.800 140.000 156.800 138.400 L 156.800 136.800 158.400 136.800 L 160.000 136.800 160.000 133.400 L 160.000 130.000 161.600 130.000 L 163.200 130.000 163.200 126.600 L 163.200 123.200 165.000 123.200 L 166.800 123.200 166.800 120.000 L 166.800 116.800 168.400 116.800 L 170.000 116.800 170.000 115.000 L 170.000 113.200 168.400 113.200 L 166.800 113.200 166.800 115.000 M180.000 115.000 L 180.000 116.800 178.400 116.800 L 176.800 116.800 176.800 118.400 L 176.800 120.000 178.400 120.000 L 180.000 120.000 180.000 118.400 L 180.000 116.800 181.600 116.800 L 183.200 116.800 183.200 115.000 L 183.200 113.200 181.600 113.200 L 180.000 113.200 180.000 115.000 M203.200 135.000 L 203.200 136.800 205.000 136.800 L 206.800 136.800 206.800 135.000 L 206.800 133.200 205.000 133.200 L 203.200 133.200 203.200 135.000 M220.000 140.000 L 220.000 143.200 223.400 143.200 L 226.800 143.200 226.800 141.600 L 226.800 140.000 225.000 140.000 L 223.200 140.000 223.200 138.400 L 223.200 136.800 221.600 136.800 L 220.000 136.800 220.000 140.000 M223.200 151.600 L 223.200 153.200 225.000 153.200 L 226.800 153.200 226.800 151.600 L 226.800 150.000 225.000 150.000 L 223.200 150.000 223.200 151.600 M223.200 165.000 L 223.200 173.200 225.000 173.200 L 226.800 173.200 226.800 178.200 L 226.800 183.200 228.400 183.200 L 230.000 183.200 230.000 193.200 L 230.000 203.200 228.400 203.200 L 226.800 203.200 226.800 205.000 L 226.800 206.800 225.000 206.800 L 223.200 206.800 223.200 211.800 L 223.200 216.800 225.000 216.800 L 226.800 216.800 226.800 221.800 L 226.800 226.800 225.000 226.800 L 223.200 226.800 223.200 228.400 L 223.200 230.000 228.200 230.000 L 233.200 230.000 233.200 228.400 L 233.200 226.800 235.000 226.800 L 236.800 226.800 236.800 225.000 L 236.800 223.200 238.400 223.200 L 240.000 223.200 240.000 221.600 L 240.000 220.000 241.600 220.000 L 243.200 220.000 243.200 218.400 L 243.200 216.800 245.000 216.800 L 246.800 216.800 246.800 215.000 L 246.800 213.200 243.400 213.200 L 240.000 213.200 240.000 210.000 L 240.000 206.800 238.400 206.800 L 236.800 206.800 236.800 203.400 L 236.800 200.000 235.000 200.000 L 233.200 200.000 233.200 198.400 L 233.200 196.800 235.000 196.800 L 236.800 196.800 236.800 195.000 L 236.800 193.200 235.000 193.200 L 233.200 193.200 233.200 188.200 L 233.200 183.200 235.000 183.200 L 236.800 183.200 236.800 176.600 L 236.800 170.000 235.000 170.000 L 233.200 170.000 233.200 166.600 L 233.200 163.200 231.600 163.200 L 230.000 163.200 230.000 161.600 L 230.000 160.000 228.400 160.000 L 226.800 160.000 226.800 158.400 L 226.800 156.800 225.000 156.800 L 223.200 156.800 223.200 165.000 M210.000 185.000 L 210.000 186.800 206.600 186.800 L 203.200 186.800 203.200 188.400 L 203.200 190.000 201.600 190.000 L 200.000 190.000 200.000 191.600 L 200.000 193.200 201.600 193.200 L 203.200 193.200 203.200 191.600 L 203.200 190.000 206.600 190.000 L 210.000 190.000 210.000 188.400 L 210.000 186.800 211.600 186.800 L 213.200 186.800 213.200 190.000 L 213.200 193.200 215.000 193.200 L 216.800 193.200 216.800 190.000 L 216.800 186.800 215.000 186.800 L 213.200 186.800 213.200 185.000 L 213.200 183.200 211.600 183.200 L 210.000 183.200 210.000 185.000 M183.200 188.400 L 183.200 190.000 181.600 190.000 L 180.000 190.000 180.000 193.400 L 180.000 196.800 181.600 196.800 L 183.200 196.800 183.200 193.400 L 183.200 190.000 185.000 190.000 L 186.800 190.000 186.800 188.400 L 186.800 186.800 185.000 186.800 L 183.200 186.800 183.200 188.400 M223.200 286.600 L 223.200 290.000 225.000 290.000 L 226.800 290.000 226.800 291.600 L 226.800 293.200 230.000 293.200 L 233.200 293.200 233.200 291.600 L 233.200 290.000 230.000 290.000 L 226.800 290.000 226.800 286.600 L 226.800 283.200 225.000 283.200 L 223.200 283.200 223.200 286.600 " stroke="none" fill="#94543c" fill-rule="evenodd"></path><path id="path1" d="M186.800 55.000 L 186.800 56.800 185.000 56.800 L 183.200 56.800 183.200 61.800 L 183.200 66.800 185.000 66.800 L 186.800 66.800 186.800 68.400 L 186.800 70.000 188.400 70.000 L 190.000 70.000 190.000 85.000 L 190.000 100.000 191.600 100.000 L 193.200 100.000 193.200 85.000 L 193.200 70.000 195.000 70.000 L 196.800 70.000 196.800 61.600 L 196.800 53.200 191.800 53.200 L 186.800 53.200 186.800 55.000 M186.800 111.600 L 186.800 113.200 185.000 113.200 L 183.200 113.200 183.200 115.000 L 183.200 116.800 181.600 116.800 L 180.000 116.800 180.000 120.000 L 180.000 123.200 173.400 123.200 L 166.800 123.200 166.800 125.000 L 166.800 126.800 171.800 126.800 L 176.800 126.800 176.800 128.400 L 176.800 130.000 170.000 130.000 L 163.200 130.000 163.200 136.600 L 163.200 143.200 161.600 143.200 L 160.000 143.200 160.000 151.600 L 160.000 160.000 158.400 160.000 L 156.800 160.000 156.800 163.200 L 156.800 166.400 160.000 166.400 L 163.200 166.400 163.200 168.200 L 163.200 170.000 168.200 170.000 L 173.200 170.000 173.200 171.600 L 173.200 173.200 191.600 173.200 L 210.000 173.200 210.000 171.600 L 210.000 170.000 211.600 170.000 L 213.200 170.000 213.200 168.200 L 213.200 166.400 215.000 166.400 L 216.800 166.400 216.800 154.800 L 216.800 143.200 215.000 143.200 L 213.200 143.200 213.200 150.000 L 213.200 156.800 208.200 156.800 L 203.200 156.800 203.200 155.000 L 203.200 153.200 201.600 153.200 L 200.000 153.200 200.000 151.600 L 200.000 150.000 198.400 150.000 L 196.800 150.000 196.800 146.600 L 196.800 143.200 200.000 143.200 L 203.200 143.200 203.200 141.600 L 203.200 140.000 205.000 140.000 L 206.800 140.000 206.800 138.400 L 206.800 136.800 208.400 136.800 L 210.000 136.800 210.000 138.400 L 210.000 140.000 211.600 140.000 L 213.200 140.000 213.200 135.000 L 213.200 130.000 211.600 130.000 L 210.000 130.000 210.000 126.600 L 210.000 123.200 206.600 123.200 L 203.200 123.200 203.200 121.600 L 203.200 120.000 205.000 120.000 L 206.800 120.000 206.800 118.400 L 206.800 116.800 203.400 116.800 L 200.000 116.800 200.000 115.000 L 200.000 113.200 196.600 113.200 L 193.200 113.200 193.200 111.600 L 193.200 110.000 190.000 110.000 L 186.800 110.000 186.800 111.600 M170.000 118.400 L 170.000 120.000 173.400 120.000 L 176.800 120.000 176.800 118.400 L 176.800 116.800 173.400 116.800 L 170.000 116.800 170.000 118.400 M190.000 125.000 L 190.000 126.800 193.400 126.800 L 196.800 126.800 196.800 125.000 L 196.800 123.200 200.000 123.200 L 203.200 123.200 203.200 125.000 L 203.200 126.800 200.000 126.800 L 196.800 126.800 196.800 128.400 L 196.800 130.000 193.400 130.000 L 190.000 130.000 190.000 128.400 L 190.000 126.800 185.000 126.800 L 180.000 126.800 180.000 125.000 L 180.000 123.200 185.000 123.200 L 190.000 123.200 190.000 125.000 M186.800 131.600 L 186.800 133.200 190.000 133.200 L 193.200 133.200 193.200 135.000 L 193.200 136.800 195.000 136.800 L 196.800 136.800 196.800 135.000 L 196.800 133.200 200.000 133.200 L 203.200 133.200 203.200 131.600 L 203.200 130.000 206.600 130.000 L 210.000 130.000 210.000 131.600 L 210.000 133.200 208.400 133.200 L 206.800 133.200 206.800 135.000 L 206.800 136.800 201.800 136.800 L 196.800 136.800 196.800 138.400 L 196.800 140.000 195.000 140.000 L 193.200 140.000 193.200 138.400 L 193.200 136.800 190.000 136.800 L 186.800 136.800 186.800 135.000 L 186.800 133.200 181.800 133.200 L 176.800 133.200 176.800 131.600 L 176.800 130.000 181.800 130.000 L 186.800 130.000 186.800 131.600 M173.200 138.400 L 173.200 140.000 175.000 140.000 L 176.800 140.000 176.800 138.400 L 176.800 136.800 178.400 136.800 L 180.000 136.800 180.000 138.400 L 180.000 140.000 181.600 140.000 L 183.200 140.000 183.200 141.600 L 183.200 143.200 188.200 143.200 L 193.200 143.200 193.200 145.000 L 193.200 146.800 191.600 146.800 L 190.000 146.800 190.000 151.800 L 190.000 156.800 185.000 156.800 L 180.000 156.800 180.000 155.000 L 180.000 153.200 178.400 153.200 L 176.800 153.200 176.800 151.600 L 176.800 150.000 173.400 150.000 L 170.000 150.000 170.000 148.400 L 170.000 146.800 171.600 146.800 L 173.200 146.800 173.200 145.000 L 173.200 143.200 171.600 143.200 L 170.000 143.200 170.000 140.000 L 170.000 136.800 171.600 136.800 L 173.200 136.800 173.200 138.400 M203.200 161.600 L 203.200 163.200 205.000 163.200 L 206.800 163.200 206.800 166.600 L 206.800 170.000 195.000 170.000 L 183.200 170.000 183.200 168.400 L 183.200 166.800 181.600 166.800 L 180.000 166.800 180.000 165.000 L 180.000 163.200 181.600 163.200 L 183.200 163.200 183.200 161.600 L 183.200 160.000 193.200 160.000 L 203.200 160.000 203.200 161.600 M156.800 190.000 L 156.800 203.200 158.400 203.200 L 160.000 203.200 160.000 215.000 L 160.000 226.800 158.400 226.800 L 156.800 226.800 156.800 228.400 L 156.800 230.000 158.400 230.000 L 160.000 230.000 160.000 235.000 L 160.000 240.000 161.600 240.000 L 163.200 240.000 163.200 243.200 L 163.200 246.400 158.200 246.400 L 153.200 246.400 153.200 248.200 L 153.200 250.000 150.000 250.000 L 146.800 250.000 146.800 251.600 L 146.800 253.200 145.000 253.200 L 143.200 253.200 143.200 255.000 L 143.200 256.800 141.600 256.800 L 140.000 256.800 140.000 258.400 L 140.000 260.000 138.400 260.000 L 136.800 260.000 136.800 261.600 L 136.800 263.200 135.000 263.200 L 133.200 263.200 133.200 266.600 L 133.200 270.000 131.600 270.000 L 130.000 270.000 130.000 278.400 L 130.000 286.800 131.600 286.800 L 133.200 286.800 133.200 290.000 L 133.200 293.200 135.000 293.200 L 136.800 293.200 136.800 296.600 L 136.800 300.000 138.400 300.000 L 140.000 300.000 140.000 301.600 L 140.000 303.200 141.600 303.200 L 143.200 303.200 143.200 305.000 L 143.200 306.800 145.000 306.800 L 146.800 306.800 146.800 308.400 L 146.800 310.000 155.000 310.000 L 163.200 310.000 163.200 308.400 L 163.200 306.800 166.600 306.800 L 170.000 306.800 170.000 305.000 L 170.000 303.200 171.600 303.200 L 173.200 303.200 173.200 301.600 L 173.200 300.000 175.000 300.000 L 176.800 300.000 176.800 296.600 L 176.800 293.200 178.400 293.200 L 180.000 293.200 180.000 288.200 L 180.000 283.200 181.800 283.200 L 183.600 283.200 183.600 278.200 L 183.600 273.200 181.800 273.200 L 180.000 273.200 180.000 278.200 L 180.000 283.200 178.400 283.200 L 176.800 283.200 176.800 288.200 L 176.800 293.200 175.000 293.200 L 173.200 293.200 173.200 296.600 L 173.200 300.000 171.600 300.000 L 170.000 300.000 170.000 301.600 L 170.000 303.200 166.600 303.200 L 163.200 303.200 163.200 305.000 L 163.200 306.800 155.000 306.800 L 146.800 306.800 146.800 305.000 L 146.800 303.200 145.000 303.200 L 143.200 303.200 143.200 301.600 L 143.200 300.000 141.600 300.000 L 140.000 300.000 140.000 296.600 L 140.000 293.200 138.400 293.200 L 136.800 293.200 136.800 290.000 L 136.800 286.800 135.000 286.800 L 133.200 286.800 133.200 278.400 L 133.200 270.000 135.000 270.000 L 136.800 270.000 136.800 266.600 L 136.800 263.200 138.400 263.200 L 140.000 263.200 140.000 261.600 L 140.000 260.000 141.600 260.000 L 143.200 260.000 143.200 258.400 L 143.200 256.800 145.000 256.800 L 146.800 256.800 146.800 255.000 L 146.800 253.200 150.000 253.200 L 153.200 253.200 153.200 251.600 L 153.200 250.000 156.600 250.000 L 160.000 250.000 160.000 251.600 L 160.000 253.200 158.400 253.200 L 156.800 253.200 156.800 255.000 L 156.800 256.800 155.000 256.800 L 153.200 256.800 153.200 258.400 L 153.200 260.000 151.600 260.000 L 150.000 260.000 150.000 261.600 L 150.000 263.200 148.400 263.200 L 146.800 263.200 146.800 266.600 L 146.800 270.000 145.000 270.000 L 143.200 270.000 143.200 276.600 L 143.200 283.200 145.000 283.200 L 146.800 283.200 146.800 286.600 L 146.800 290.000 148.400 290.000 L 150.000 290.000 150.000 291.600 L 150.000 293.200 156.600 293.200 L 163.200 293.200 163.200 291.600 L 163.200 290.000 165.000 290.000 L 166.800 290.000 166.800 285.000 L 166.800 280.000 168.400 280.000 L 170.000 280.000 170.000 276.600 L 170.000 273.200 171.600 273.200 L 173.200 273.200 173.200 266.600 L 173.200 260.000 175.000 260.000 L 176.800 260.000 176.800 265.000 L 176.800 270.000 180.000 270.000 L 183.200 270.000 183.200 268.400 L 183.200 266.800 185.000 266.800 L 186.800 266.800 186.800 263.400 L 186.800 260.000 185.000 260.000 L 183.200 260.000 183.200 258.400 L 183.200 256.800 180.000 256.800 L 176.800 256.800 176.800 255.000 L 176.800 253.200 175.000 253.200 L 173.200 253.200 173.200 250.000 L 173.200 246.800 180.000 246.800 L 186.800 246.800 186.800 248.400 L 186.800 250.000 191.800 250.000 L 196.800 250.000 196.800 251.600 L 196.800 253.200 201.800 253.200 L 206.800 253.200 206.800 255.000 L 206.800 256.800 208.400 256.800 L 210.000 256.800 210.000 258.400 L 210.000 260.000 211.600 260.000 L 213.200 260.000 213.200 258.400 L 213.200 256.800 215.000 256.800 L 216.800 256.800 216.800 255.000 L 216.800 253.200 218.400 253.200 L 220.000 253.200 220.000 251.600 L 220.000 250.000 223.400 250.000 L 226.800 250.000 226.800 245.000 L 226.800 240.000 225.000 240.000 L 223.200 240.000 223.200 241.600 L 223.200 243.200 220.000 243.200 L 216.800 243.200 216.800 245.000 L 216.800 246.800 215.000 246.800 L 213.200 246.800 213.200 248.400 L 213.200 250.000 211.600 250.000 L 210.000 250.000 210.000 248.400 L 210.000 246.800 203.400 246.800 L 196.800 246.800 196.800 245.000 L 196.800 243.200 191.800 243.200 L 186.800 243.200 186.800 241.600 L 186.800 240.000 180.000 240.000 L 173.200 240.000 173.200 243.400 L 173.200 246.800 171.600 246.800 L 170.000 246.800 170.000 243.400 L 170.000 240.000 168.400 240.000 L 166.800 240.000 166.800 235.000 L 166.800 230.000 165.000 230.000 L 163.200 230.000 163.200 226.600 L 163.200 223.200 165.000 223.200 L 166.800 223.200 166.800 215.000 L 166.800 206.800 168.400 206.800 L 170.000 206.800 170.000 208.400 L 170.000 210.000 175.000 210.000 L 180.000 210.000 180.000 208.400 L 180.000 206.800 185.000 206.800 L 190.000 206.800 190.000 208.400 L 190.000 210.000 193.400 210.000 L 196.800 210.000 196.800 211.600 L 196.800 213.200 198.400 213.200 L 200.000 213.200 200.000 215.000 L 200.000 216.800 201.600 216.800 L 203.200 216.800 203.200 215.000 L 203.200 213.200 205.000 213.200 L 206.800 213.200 206.800 211.600 L 206.800 210.000 210.000 210.000 L 213.200 210.000 213.200 208.400 L 213.200 206.800 216.600 206.800 L 220.000 206.800 220.000 205.000 L 220.000 203.200 216.600 203.200 L 213.200 203.200 213.200 201.600 L 213.200 200.000 215.000 200.000 L 216.800 200.000 216.800 196.600 L 216.800 193.200 215.000 193.200 L 213.200 193.200 213.200 190.000 L 213.200 186.800 215.000 186.800 L 216.800 186.800 216.800 181.800 L 216.800 176.800 215.000 176.800 L 213.200 176.800 213.200 178.400 L 213.200 180.000 211.600 180.000 L 210.000 180.000 210.000 181.600 L 210.000 183.200 211.600 183.200 L 213.200 183.200 213.200 185.000 L 213.200 186.800 211.600 186.800 L 210.000 186.800 210.000 185.200 L 210.000 183.600 191.600 183.600 L 173.200 183.600 173.200 181.800 L 173.200 180.000 168.200 180.000 L 163.200 180.000 163.200 178.400 L 163.200 176.800 160.000 176.800 L 156.800 176.800 156.800 190.000 M186.800 188.400 L 186.800 190.000 185.000 190.000 L 183.200 190.000 183.200 193.400 L 183.200 196.800 181.600 196.800 L 180.000 196.800 180.000 193.400 L 180.000 190.000 181.600 190.000 L 183.200 190.000 183.200 188.400 L 183.200 186.800 185.000 186.800 L 186.800 186.800 186.800 188.400 M210.000 188.400 L 210.000 190.000 206.600 190.000 L 203.200 190.000 203.200 191.600 L 203.200 193.200 201.600 193.200 L 200.000 193.200 200.000 191.600 L 200.000 190.000 201.600 190.000 L 203.200 190.000 203.200 188.400 L 203.200 186.800 206.600 186.800 L 210.000 186.800 210.000 188.400 M163.200 200.000 L 163.200 203.200 161.600 203.200 L 160.000 203.200 160.000 200.000 L 160.000 196.800 161.600 196.800 L 163.200 196.800 163.200 200.000 M173.200 200.000 L 173.200 203.200 176.600 203.200 L 180.000 203.200 180.000 201.600 L 180.000 200.000 185.000 200.000 L 190.000 200.000 190.000 201.600 L 190.000 203.200 193.400 203.200 L 196.800 203.200 196.800 205.000 L 196.800 206.800 198.400 206.800 L 200.000 206.800 200.000 208.400 L 200.000 210.000 201.600 210.000 L 203.200 210.000 203.200 208.400 L 203.200 206.800 205.000 206.800 L 206.800 206.800 206.800 205.000 L 206.800 203.200 210.000 203.200 L 213.200 203.200 213.200 205.000 L 213.200 206.800 210.000 206.800 L 206.800 206.800 206.800 208.400 L 206.800 210.000 205.000 210.000 L 203.200 210.000 203.200 211.600 L 203.200 213.200 201.600 213.200 L 200.000 213.200 200.000 211.600 L 200.000 210.000 198.400 210.000 L 196.800 210.000 196.800 208.400 L 196.800 206.800 193.400 206.800 L 190.000 206.800 190.000 205.000 L 190.000 203.200 185.000 203.200 L 180.000 203.200 180.000 205.000 L 180.000 206.800 175.000 206.800 L 170.000 206.800 170.000 201.800 L 170.000 196.800 171.600 196.800 L 173.200 196.800 173.200 200.000 M166.800 248.400 L 166.800 250.000 165.000 250.000 L 163.200 250.000 163.200 248.400 L 163.200 246.800 165.000 246.800 L 166.800 246.800 166.800 248.400 M166.800 256.600 L 166.800 260.000 168.400 260.000 L 170.000 260.000 170.000 258.400 L 170.000 256.800 171.600 256.800 L 173.200 256.800 173.200 258.400 L 173.200 260.000 171.600 260.000 L 170.000 260.000 170.000 266.600 L 170.000 273.200 168.400 273.200 L 166.800 273.200 166.800 276.600 L 166.800 280.000 165.000 280.000 L 163.200 280.000 163.200 285.000 L 163.200 290.000 156.600 290.000 L 150.000 290.000 150.000 286.600 L 150.000 283.200 148.400 283.200 L 146.800 283.200 146.800 276.600 L 146.800 270.000 148.400 270.000 L 150.000 270.000 150.000 266.600 L 150.000 263.200 151.600 263.200 L 153.200 263.200 153.200 261.600 L 153.200 260.000 155.000 260.000 L 156.800 260.000 156.800 258.400 L 156.800 256.800 158.400 256.800 L 160.000 256.800 160.000 255.000 L 160.000 253.200 163.400 253.200 L 166.800 253.200 166.800 256.600 M236.800 275.000 L 236.800 276.800 235.000 276.800 L 233.200 276.800 233.200 278.400 L 233.200 280.000 231.600 280.000 L 230.000 280.000 230.000 281.600 L 230.000 283.200 228.400 283.200 L 226.800 283.200 226.800 286.600 L 226.800 290.000 225.000 290.000 L 223.200 290.000 223.200 288.400 L 223.200 286.800 220.000 286.800 L 216.800 286.800 216.800 285.000 L 216.800 283.200 210.000 283.200 L 203.200 283.200 203.200 281.600 L 203.200 280.000 201.600 280.000 L 200.000 280.000 200.000 278.400 L 200.000 276.800 198.400 276.800 L 196.800 276.800 196.800 278.400 L 196.800 280.000 195.000 280.000 L 193.200 280.000 193.200 283.400 L 193.200 286.800 196.600 286.800 L 200.000 286.800 200.000 288.400 L 200.000 290.000 195.000 290.000 L 190.000 290.000 190.000 291.600 L 190.000 293.200 193.400 293.200 L 196.800 293.200 196.800 295.000 L 196.800 296.800 198.400 296.800 L 200.000 296.800 200.000 298.400 L 200.000 300.000 201.600 300.000 L 203.200 300.000 203.200 301.600 L 203.200 303.200 205.000 303.200 L 206.800 303.200 206.800 305.000 L 206.800 306.800 208.400 306.800 L 210.000 306.800 210.000 308.400 L 210.000 310.000 213.400 310.000 L 216.800 310.000 216.800 311.600 L 216.800 313.200 220.000 313.200 L 223.200 313.200 223.200 315.000 L 223.200 316.800 228.200 316.800 L 233.200 316.800 233.200 318.400 L 233.200 320.000 241.600 320.000 L 250.000 320.000 250.000 321.600 L 250.000 323.200 256.600 323.200 L 263.200 323.200 263.200 321.600 L 263.200 320.000 268.200 320.000 L 273.200 320.000 273.200 318.400 L 273.200 316.800 275.000 316.800 L 276.800 316.800 276.800 311.800 L 276.800 306.800 275.000 306.800 L 273.200 306.800 273.200 305.000 L 273.200 303.200 271.600 303.200 L 270.000 303.200 270.000 301.600 L 270.000 300.000 268.400 300.000 L 266.800 300.000 266.800 298.400 L 266.800 296.800 265.000 296.800 L 263.200 296.800 263.200 295.000 L 263.200 293.200 261.600 293.200 L 260.000 293.200 260.000 291.600 L 260.000 290.000 258.400 290.000 L 256.800 290.000 256.800 288.400 L 256.800 286.800 255.000 286.800 L 253.200 286.800 253.200 285.000 L 253.200 283.200 251.600 283.200 L 250.000 283.200 250.000 281.600 L 250.000 280.000 248.400 280.000 L 246.800 280.000 246.800 278.400 L 246.800 276.800 245.000 276.800 L 243.200 276.800 243.200 275.000 L 243.200 273.200 240.000 273.200 L 236.800 273.200 236.800 275.000 M203.200 291.600 L 203.200 293.200 205.000 293.200 L 206.800 293.200 206.800 295.000 L 206.800 296.800 208.400 296.800 L 210.000 296.800 210.000 300.000 L 210.000 303.200 208.400 303.200 L 206.800 303.200 206.800 300.000 L 206.800 296.800 205.000 296.800 L 203.200 296.800 203.200 295.000 L 203.200 293.200 201.600 293.200 L 200.000 293.200 200.000 291.600 L 200.000 290.000 201.600 290.000 L 203.200 290.000 203.200 291.600 M233.200 291.600 L 233.200 293.200 230.000 293.200 L 226.800 293.200 226.800 291.600 L 226.800 290.000 230.000 290.000 L 233.200 290.000 233.200 291.600 " stroke="none" fill="#f8d610" fill-rule="evenodd"></path><path id="path2" d="M173.200 101.600 L 173.200 103.200 168.200 103.200 L 163.200 103.200 163.200 105.000 L 163.200 106.800 161.600 106.800 L 160.000 106.800 160.000 108.400 L 160.000 110.000 158.400 110.000 L 156.800 110.000 156.800 113.400 L 156.800 116.800 155.000 116.800 L 153.200 116.800 153.200 120.000 L 153.200 123.200 151.600 123.200 L 150.000 123.200 150.000 128.200 L 150.000 133.200 148.400 133.200 L 146.800 133.200 146.800 135.000 L 146.800 136.800 145.000 136.800 L 143.200 136.800 143.200 138.400 L 143.200 140.000 141.600 140.000 L 140.000 140.000 140.000 141.600 L 140.000 143.200 138.400 143.200 L 136.800 143.200 136.800 145.000 L 136.800 146.800 135.000 146.800 L 133.200 146.800 133.200 148.400 L 133.200 150.000 131.600 150.000 L 130.000 150.000 130.000 151.600 L 130.000 153.200 128.400 153.200 L 126.800 153.200 126.800 155.000 L 126.800 156.800 125.000 156.800 L 123.200 156.800 123.200 160.000 L 123.200 163.200 121.600 163.200 L 120.000 163.200 120.000 171.600 L 120.000 180.000 121.600 180.000 L 123.200 180.000 123.200 185.000 L 123.200 190.000 121.600 190.000 L 120.000 190.000 120.000 193.400 L 120.000 196.800 118.400 196.800 L 116.800 196.800 116.800 200.000 L 116.800 203.200 115.000 203.200 L 113.200 203.200 113.200 211.600 L 113.200 220.000 115.000 220.000 L 116.800 220.000 116.800 221.600 L 116.800 223.200 118.400 223.200 L 120.000 223.200 120.000 225.000 L 120.000 226.800 121.600 226.800 L 123.200 226.800 123.200 228.400 L 123.200 230.000 125.000 230.000 L 126.800 230.000 126.800 231.600 L 126.800 233.200 131.800 233.200 L 136.800 233.200 136.800 235.000 L 136.800 236.800 141.800 236.800 L 146.800 236.800 146.800 238.400 L 146.800 240.000 151.800 240.000 L 156.800 240.000 156.800 236.600 L 156.800 233.200 155.000 233.200 L 153.200 233.200 153.200 230.000 L 153.200 226.800 155.000 226.800 L 156.800 226.800 156.800 218.400 L 156.800 210.000 155.000 210.000 L 153.200 210.000 153.200 185.000 L 153.200 160.000 155.000 160.000 L 156.800 160.000 156.800 151.600 L 156.800 143.200 158.400 143.200 L 160.000 143.200 160.000 140.000 L 160.000 136.800 158.400 136.800 L 156.800 136.800 156.800 138.400 L 156.800 140.000 155.000 140.000 L 153.200 140.000 153.200 145.000 L 153.200 150.000 151.600 150.000 L 150.000 150.000 150.000 156.600 L 150.000 163.200 148.400 163.200 L 146.800 163.200 146.800 170.000 L 146.800 176.800 148.400 176.800 L 150.000 176.800 150.000 186.800 L 150.000 196.800 148.400 196.800 L 146.800 196.800 146.800 203.400 L 146.800 210.000 148.400 210.000 L 150.000 210.000 150.000 213.400 L 150.000 216.800 151.600 216.800 L 153.200 216.800 153.200 220.000 L 153.200 223.200 151.600 223.200 L 150.000 223.200 150.000 228.200 L 150.000 233.200 148.400 233.200 L 146.800 233.200 146.800 231.600 L 146.800 230.000 145.000 230.000 L 143.200 230.000 143.200 228.400 L 143.200 226.800 141.600 226.800 L 140.000 226.800 140.000 225.000 L 140.000 223.200 138.400 223.200 L 136.800 223.200 136.800 221.600 L 136.800 220.000 135.000 220.000 L 133.200 220.000 133.200 218.400 L 133.200 216.800 131.600 216.800 L 130.000 216.800 130.000 211.800 L 130.000 206.800 131.600 206.800 L 133.200 206.800 133.200 205.000 L 133.200 203.200 135.000 203.200 L 136.800 203.200 136.800 201.600 L 136.800 200.000 138.400 200.000 L 140.000 200.000 140.000 196.600 L 140.000 193.200 138.400 193.200 L 136.800 193.200 136.800 191.600 L 136.800 190.000 135.000 190.000 L 133.200 190.000 133.200 185.000 L 133.200 180.000 131.600 180.000 L 130.000 180.000 130.000 175.000 L 130.000 170.000 131.600 170.000 L 133.200 170.000 133.200 166.600 L 133.200 163.200 135.000 163.200 L 136.800 163.200 136.800 158.200 L 136.800 153.200 138.400 153.200 L 140.000 153.200 140.000 151.600 L 140.000 150.000 141.600 150.000 L 143.200 150.000 143.200 148.400 L 143.200 146.800 145.000 146.800 L 146.800 146.800 146.800 145.000 L 146.800 143.200 148.400 143.200 L 150.000 143.200 150.000 140.000 L 150.000 136.800 151.600 136.800 L 153.200 136.800 153.200 135.000 L 153.200 133.200 155.000 133.200 L 156.800 133.200 156.800 128.200 L 156.800 123.200 158.400 123.200 L 160.000 123.200 160.000 121.600 L 160.000 120.000 161.600 120.000 L 163.200 120.000 163.200 118.400 L 163.200 116.800 165.000 116.800 L 166.800 116.800 166.800 115.000 L 166.800 113.200 173.400 113.200 L 180.000 113.200 180.000 111.600 L 180.000 110.000 183.400 110.000 L 186.800 110.000 186.800 108.400 L 186.800 106.800 190.000 106.800 L 193.200 106.800 193.200 108.400 L 193.200 110.000 196.600 110.000 L 200.000 110.000 200.000 111.600 L 200.000 113.200 203.400 113.200 L 206.800 113.200 206.800 115.000 L 206.800 116.800 208.400 116.800 L 210.000 116.800 210.000 118.400 L 210.000 120.000 211.600 120.000 L 213.200 120.000 213.200 125.000 L 213.200 130.000 215.000 130.000 L 216.800 130.000 216.800 135.000 L 216.800 140.000 218.400 140.000 L 220.000 140.000 220.000 138.400 L 220.000 136.800 221.600 136.800 L 223.200 136.800 223.200 138.400 L 223.200 140.000 225.000 140.000 L 226.800 140.000 226.800 136.600 L 226.800 133.200 223.400 133.200 L 220.000 133.200 220.000 131.600 L 220.000 130.000 218.400 130.000 L 216.800 130.000 216.800 125.000 L 216.800 120.000 215.000 120.000 L 213.200 120.000 213.200 116.600 L 213.200 113.200 215.000 113.200 L 216.800 113.200 216.800 115.000 L 216.800 116.800 218.400 116.800 L 220.000 116.800 220.000 115.000 L 220.000 113.200 218.400 113.200 L 216.800 113.200 216.800 110.000 L 216.800 106.800 215.000 106.800 L 213.200 106.800 213.200 105.000 L 213.200 103.200 211.600 103.200 L 210.000 103.200 210.000 105.000 L 210.000 106.800 208.400 106.800 L 206.800 106.800 206.800 105.000 L 206.800 103.200 205.000 103.200 L 203.200 103.200 203.200 101.600 L 203.200 100.000 198.200 100.000 L 193.200 100.000 193.200 101.600 L 193.200 103.200 191.600 103.200 L 190.000 103.200 190.000 101.600 L 190.000 100.000 181.600 100.000 L 173.200 100.000 173.200 101.600 M176.800 108.400 L 176.800 110.000 175.000 110.000 L 173.200 110.000 173.200 108.400 L 173.200 106.800 175.000 106.800 L 176.800 106.800 176.800 108.400 M213.200 110.000 L 213.200 113.200 211.600 113.200 L 210.000 113.200 210.000 110.000 L 210.000 106.800 211.600 106.800 L 213.200 106.800 213.200 110.000 M220.000 173.200 L 220.000 203.200 221.600 203.200 L 223.200 203.200 223.200 205.000 L 223.200 206.800 225.000 206.800 L 226.800 206.800 226.800 205.000 L 226.800 203.200 228.400 203.200 L 230.000 203.200 230.000 193.200 L 230.000 183.200 228.400 183.200 L 226.800 183.200 226.800 178.200 L 226.800 173.200 225.000 173.200 L 223.200 173.200 223.200 165.000 L 223.200 156.800 225.000 156.800 L 226.800 156.800 226.800 158.400 L 226.800 160.000 228.400 160.000 L 230.000 160.000 230.000 161.600 L 230.000 163.200 231.600 163.200 L 233.200 163.200 233.200 166.600 L 233.200 170.000 235.000 170.000 L 236.800 170.000 236.800 176.600 L 236.800 183.200 235.000 183.200 L 233.200 183.200 233.200 188.200 L 233.200 193.200 235.000 193.200 L 236.800 193.200 236.800 191.600 L 236.800 190.000 238.400 190.000 L 240.000 190.000 240.000 185.000 L 240.000 180.000 241.600 180.000 L 243.200 180.000 243.200 175.000 L 243.200 170.000 241.600 170.000 L 240.000 170.000 240.000 166.600 L 240.000 163.200 238.400 163.200 L 236.800 163.200 236.800 161.600 L 236.800 160.000 235.000 160.000 L 233.200 160.000 233.200 158.400 L 233.200 156.800 231.600 156.800 L 230.000 156.800 230.000 155.000 L 230.000 153.200 226.600 153.200 L 223.200 153.200 223.200 148.200 L 223.200 143.200 221.600 143.200 L 220.000 143.200 220.000 173.200 M233.200 198.400 L 233.200 200.000 235.000 200.000 L 236.800 200.000 236.800 203.400 L 236.800 206.800 238.400 206.800 L 240.000 206.800 240.000 210.000 L 240.000 213.200 241.600 213.200 L 243.200 213.200 243.200 210.000 L 243.200 206.800 241.600 206.800 L 240.000 206.800 240.000 203.400 L 240.000 200.000 238.400 200.000 L 236.800 200.000 236.800 198.400 L 236.800 196.800 235.000 196.800 L 233.200 196.800 233.200 198.400 M180.000 211.600 L 180.000 213.200 175.000 213.200 L 170.000 213.200 170.000 218.200 L 170.000 223.200 168.400 223.200 L 166.800 223.200 166.800 226.600 L 166.800 230.000 168.400 230.000 L 170.000 230.000 170.000 235.000 L 170.000 240.000 171.600 240.000 L 173.200 240.000 173.200 236.600 L 173.200 233.200 175.000 233.200 L 176.800 233.200 176.800 231.600 L 176.800 230.000 180.000 230.000 L 183.200 230.000 183.200 231.600 L 183.200 233.200 186.600 233.200 L 190.000 233.200 190.000 231.600 L 190.000 230.000 193.400 230.000 L 196.800 230.000 196.800 228.400 L 196.800 226.800 193.400 226.800 L 190.000 226.800 190.000 228.400 L 190.000 230.000 186.600 230.000 L 183.200 230.000 183.200 228.400 L 183.200 226.800 180.000 226.800 L 176.800 226.800 176.800 225.000 L 176.800 223.200 175.000 223.200 L 173.200 223.200 173.200 220.000 L 173.200 216.800 178.200 216.800 L 183.200 216.800 183.200 215.000 L 183.200 213.200 185.000 213.200 L 186.800 213.200 186.800 211.600 L 186.800 210.000 183.400 210.000 L 180.000 210.000 180.000 211.600 M213.200 211.600 L 213.200 213.200 210.000 213.200 L 206.800 213.200 206.800 215.000 L 206.800 216.800 205.000 216.800 L 203.200 216.800 203.200 218.400 L 203.200 220.000 206.600 220.000 L 210.000 220.000 210.000 218.400 L 210.000 216.800 213.400 216.800 L 216.800 216.800 216.800 213.400 L 216.800 210.000 215.000 210.000 L 213.200 210.000 213.200 211.600 M220.000 218.400 L 220.000 220.000 218.400 220.000 L 216.800 220.000 216.800 221.600 L 216.800 223.200 220.000 223.200 L 223.200 223.200 223.200 220.000 L 223.200 216.800 221.600 216.800 L 220.000 216.800 220.000 218.400 M243.200 218.400 L 243.200 220.000 241.600 220.000 L 240.000 220.000 240.000 221.600 L 240.000 223.200 238.400 223.200 L 236.800 223.200 236.800 225.000 L 236.800 226.800 235.000 226.800 L 233.200 226.800 233.200 228.400 L 233.200 230.000 230.000 230.000 L 226.800 230.000 226.800 231.600 L 226.800 233.200 231.800 233.200 L 236.800 233.200 236.800 231.600 L 236.800 230.000 238.400 230.000 L 240.000 230.000 240.000 228.400 L 240.000 226.800 241.600 226.800 L 243.200 226.800 243.200 225.000 L 243.200 223.200 245.000 223.200 L 246.800 223.200 246.800 220.000 L 246.800 216.800 245.000 216.800 L 243.200 216.800 243.200 218.400 M203.200 228.400 L 203.200 230.000 206.600 230.000 L 210.000 230.000 210.000 231.600 L 210.000 233.200 213.400 233.200 L 216.800 233.200 216.800 231.600 L 216.800 230.000 218.400 230.000 L 220.000 230.000 220.000 228.400 L 220.000 226.800 218.400 226.800 L 216.800 226.800 216.800 228.400 L 216.800 230.000 213.400 230.000 L 210.000 230.000 210.000 228.400 L 210.000 226.800 206.600 226.800 L 203.200 226.800 203.200 228.400 M186.800 238.400 L 186.800 240.000 191.800 240.000 L 196.800 240.000 196.800 241.600 L 196.800 243.200 203.400 243.200 L 210.000 243.200 210.000 245.000 L 210.000 246.800 211.600 246.800 L 213.200 246.800 213.200 245.000 L 213.200 243.200 215.000 243.200 L 216.800 243.200 216.800 241.600 L 216.800 240.000 215.000 240.000 L 213.200 240.000 213.200 241.600 L 213.200 243.200 211.600 243.200 L 210.000 243.200 210.000 241.600 L 210.000 240.000 203.400 240.000 L 196.800 240.000 196.800 238.400 L 196.800 236.800 191.800 236.800 L 186.800 236.800 186.800 238.400 M220.000 238.400 L 220.000 240.000 221.600 240.000 L 223.200 240.000 223.200 238.400 L 223.200 236.800 221.600 236.800 L 220.000 236.800 220.000 238.400 M190.000 305.000 L 190.000 316.800 188.400 316.800 L 186.800 316.800 186.800 323.400 L 186.800 330.000 185.000 330.000 L 183.200 330.000 183.200 335.000 L 183.200 340.000 181.600 340.000 L 180.000 340.000 180.000 343.400 L 180.000 346.800 181.600 346.800 L 183.200 346.800 183.200 343.400 L 183.200 340.000 185.000 340.000 L 186.800 340.000 186.800 335.000 L 186.800 330.000 188.400 330.000 L 190.000 330.000 190.000 323.400 L 190.000 316.800 191.600 316.800 L 193.200 316.800 193.200 311.800 L 193.200 306.800 195.000 306.800 L 196.800 306.800 196.800 300.000 L 196.800 293.200 193.400 293.200 L 190.000 293.200 190.000 305.000 M220.000 323.400 L 220.000 330.000 218.400 330.000 L 216.800 330.000 216.800 335.000 L 216.800 340.000 215.000 340.000 L 213.200 340.000 213.200 343.400 L 213.200 346.800 215.000 346.800 L 216.800 346.800 216.800 343.400 L 216.800 340.000 218.400 340.000 L 220.000 340.000 220.000 335.000 L 220.000 330.000 221.600 330.000 L 223.200 330.000 223.200 323.400 L 223.200 316.800 221.600 316.800 L 220.000 316.800 220.000 323.400 " stroke="none" fill="#783028" fill-rule="evenodd"></path><path id="path3" d="M230.000 255.000 L 230.000 256.800 228.400 256.800 L 226.800 256.800 226.800 258.400 L 226.800 260.000 225.000 260.000 L 223.200 260.000 223.200 261.600 L 223.200 263.200 220.000 263.200 L 216.800 263.200 216.800 265.000 L 216.800 266.800 215.000 266.800 L 213.200 266.800 213.200 268.400 L 213.200 270.000 211.600 270.000 L 210.000 270.000 210.000 268.400 L 210.000 266.800 208.400 266.800 L 206.800 266.800 206.800 265.000 L 206.800 263.200 205.000 263.200 L 203.200 263.200 203.200 261.600 L 203.200 260.000 198.200 260.000 L 193.200 260.000 193.200 258.400 L 193.200 256.800 190.000 256.800 L 186.800 256.800 186.800 258.400 L 186.800 260.000 188.400 260.000 L 190.000 260.000 190.000 266.600 L 190.000 273.200 188.400 273.200 L 186.800 273.200 186.800 275.000 L 186.800 276.800 185.200 276.800 L 183.600 276.800 183.600 280.000 L 183.600 283.200 186.800 283.200 L 190.000 283.200 190.000 281.600 L 190.000 280.000 191.600 280.000 L 193.200 280.000 193.200 278.400 L 193.200 276.800 195.000 276.800 L 196.800 276.800 196.800 275.000 L 196.800 273.200 201.800 273.200 L 206.800 273.200 206.800 275.000 L 206.800 276.800 208.400 276.800 L 210.000 276.800 210.000 275.000 L 210.000 273.200 213.400 273.200 L 216.800 273.200 216.800 275.000 L 216.800 276.800 218.400 276.800 L 220.000 276.800 220.000 278.400 L 220.000 280.000 223.400 280.000 L 226.800 280.000 226.800 276.600 L 226.800 273.200 228.400 273.200 L 230.000 273.200 230.000 271.600 L 230.000 270.000 231.600 270.000 L 233.200 270.000 233.200 268.400 L 233.200 266.800 240.000 266.800 L 246.800 266.800 246.800 265.000 L 246.800 263.200 245.000 263.200 L 243.200 263.200 243.200 261.600 L 243.200 260.000 241.600 260.000 L 240.000 260.000 240.000 256.600 L 240.000 253.200 235.000 253.200 L 230.000 253.200 230.000 255.000 M170.000 280.000 L 170.000 283.200 171.600 283.200 L 173.200 283.200 173.200 285.000 L 173.200 286.800 175.000 286.800 L 176.800 286.800 176.800 285.000 L 176.800 283.200 178.400 283.200 L 180.000 283.200 180.000 281.600 L 180.000 280.000 176.600 280.000 L 173.200 280.000 173.200 278.400 L 173.200 276.800 171.600 276.800 L 170.000 276.800 170.000 280.000 " stroke="none" fill="#3474bc" fill-rule="evenodd"></path><path id="path4" d="M183.200 161.600 L 183.200 163.200 181.600 163.200 L 180.000 163.200 180.000 165.000 L 180.000 166.800 181.600 166.800 L 183.200 166.800 183.200 168.400 L 183.200 170.000 195.000 170.000 L 206.800 170.000 206.800 166.600 L 206.800 163.200 205.000 163.200 L 203.200 163.200 203.200 161.600 L 203.200 160.000 193.200 160.000 L 183.200 160.000 183.200 161.600 M200.000 165.000 L 200.000 166.800 195.000 166.800 L 190.000 166.800 190.000 165.000 L 190.000 163.200 195.000 163.200 L 200.000 163.200 200.000 165.000 M186.800 211.600 L 186.800 213.200 185.000 213.200 L 183.200 213.200 183.200 215.000 L 183.200 216.800 178.200 216.800 L 173.200 216.800 173.200 220.000 L 173.200 223.200 175.000 223.200 L 176.800 223.200 176.800 225.000 L 176.800 226.800 180.000 226.800 L 183.200 226.800 183.200 228.400 L 183.200 230.000 180.000 230.000 L 176.800 230.000 176.800 231.600 L 176.800 233.200 175.000 233.200 L 173.200 233.200 173.200 235.000 L 173.200 236.800 185.000 236.800 L 196.800 236.800 196.800 238.400 L 196.800 240.000 203.400 240.000 L 210.000 240.000 210.000 241.600 L 210.000 243.200 211.600 243.200 L 213.200 243.200 213.200 241.600 L 213.200 240.000 216.600 240.000 L 220.000 240.000 220.000 238.400 L 220.000 236.800 221.600 236.800 L 223.200 236.800 223.200 233.400 L 223.200 230.000 220.000 230.000 L 216.800 230.000 216.800 228.400 L 216.800 226.800 218.400 226.800 L 220.000 226.800 220.000 225.000 L 220.000 223.200 218.400 223.200 L 216.800 223.200 216.800 221.600 L 216.800 220.000 218.400 220.000 L 220.000 220.000 220.000 215.000 L 220.000 210.000 218.400 210.000 L 216.800 210.000 216.800 213.400 L 216.800 216.800 213.400 216.800 L 210.000 216.800 210.000 218.400 L 210.000 220.000 205.000 220.000 L 200.000 220.000 200.000 218.400 L 200.000 216.800 198.400 216.800 L 196.800 216.800 196.800 215.000 L 196.800 213.200 193.400 213.200 L 190.000 213.200 190.000 211.600 L 190.000 210.000 188.400 210.000 L 186.800 210.000 186.800 211.600 M196.800 228.400 L 196.800 230.000 193.400 230.000 L 190.000 230.000 190.000 231.600 L 190.000 233.200 186.600 233.200 L 183.200 233.200 183.200 231.600 L 183.200 230.000 186.600 230.000 L 190.000 230.000 190.000 228.400 L 190.000 226.800 193.400 226.800 L 196.800 226.800 196.800 228.400 M210.000 228.400 L 210.000 230.000 213.400 230.000 L 216.800 230.000 216.800 231.600 L 216.800 233.200 213.400 233.200 L 210.000 233.200 210.000 231.600 L 210.000 230.000 206.600 230.000 L 203.200 230.000 203.200 228.400 L 203.200 226.800 206.600 226.800 L 210.000 226.800 210.000 228.400 M196.800 301.800 L 196.800 306.800 195.000 306.800 L 193.200 306.800 193.200 311.800 L 193.200 316.800 191.600 316.800 L 190.000 316.800 190.000 323.400 L 190.000 330.000 188.400 330.000 L 186.800 330.000 186.800 335.000 L 186.800 340.000 185.000 340.000 L 183.200 340.000 183.200 343.400 L 183.200 346.800 191.600 346.800 L 200.000 346.800 200.000 345.000 L 200.000 343.200 198.400 343.200 L 196.800 343.200 196.800 341.600 L 196.800 340.000 195.000 340.000 L 193.200 340.000 193.200 338.400 L 193.200 336.800 191.600 336.800 L 190.000 336.800 190.000 333.400 L 190.000 330.000 191.600 330.000 L 193.200 330.000 193.200 325.000 L 193.200 320.000 195.000 320.000 L 196.800 320.000 196.800 316.600 L 196.800 313.200 198.400 313.200 L 200.000 313.200 200.000 310.000 L 200.000 306.800 201.600 306.800 L 203.200 306.800 203.200 303.400 L 203.200 300.000 201.600 300.000 L 200.000 300.000 200.000 298.400 L 200.000 296.800 198.400 296.800 L 196.800 296.800 196.800 301.800 M223.200 323.400 L 223.200 326.800 225.000 326.800 L 226.800 326.800 226.800 323.400 L 226.800 320.000 225.000 320.000 L 223.200 320.000 223.200 323.400 M220.000 335.000 L 220.000 340.000 218.400 340.000 L 216.800 340.000 216.800 343.400 L 216.800 346.800 225.000 346.800 L 233.200 346.800 233.200 345.000 L 233.200 343.200 231.600 343.200 L 230.000 343.200 230.000 341.600 L 230.000 340.000 226.600 340.000 L 223.200 340.000 223.200 335.000 L 223.200 330.000 221.600 330.000 L 220.000 330.000 220.000 335.000 " stroke="none" fill="#ef6b07" fill-rule="evenodd"></path><path id="path5" d="M176.800 251.600 L 176.800 253.200 180.000 253.200 L 183.200 253.200 183.200 255.000 L 183.200 256.800 188.200 256.800 L 193.200 256.800 193.200 258.400 L 193.200 260.000 198.200 260.000 L 203.200 260.000 203.200 261.600 L 203.200 263.200 205.000 263.200 L 206.800 263.200 206.800 265.000 L 206.800 266.800 208.400 266.800 L 210.000 266.800 210.000 268.400 L 210.000 270.000 211.600 270.000 L 213.200 270.000 213.200 268.400 L 213.200 266.800 215.000 266.800 L 216.800 266.800 216.800 265.000 L 216.800 263.200 220.000 263.200 L 223.200 263.200 223.200 261.600 L 223.200 260.000 225.000 260.000 L 226.800 260.000 226.800 258.400 L 226.800 256.800 228.400 256.800 L 230.000 256.800 230.000 255.000 L 230.000 253.200 231.600 253.200 L 233.200 253.200 233.200 251.600 L 233.200 250.000 230.000 250.000 L 226.800 250.000 226.800 251.600 L 226.800 253.200 223.400 253.200 L 220.000 253.200 220.000 255.000 L 220.000 256.800 218.400 256.800 L 216.800 256.800 216.800 258.400 L 216.800 260.000 215.000 260.000 L 213.200 260.000 213.200 261.600 L 213.200 263.200 211.600 263.200 L 210.000 263.200 210.000 261.600 L 210.000 260.000 208.400 260.000 L 206.800 260.000 206.800 258.400 L 206.800 256.800 201.800 256.800 L 196.800 256.800 196.800 255.000 L 196.800 253.200 191.800 253.200 L 186.800 253.200 186.800 251.600 L 186.800 250.000 181.800 250.000 L 176.800 250.000 176.800 251.600 M240.000 258.400 L 240.000 260.000 241.600 260.000 L 243.200 260.000 243.200 261.600 L 243.200 263.200 245.000 263.200 L 246.800 263.200 246.800 265.000 L 246.800 266.800 248.400 266.800 L 250.000 266.800 250.000 265.000 L 250.000 263.200 248.400 263.200 L 246.800 263.200 246.800 261.600 L 246.800 260.000 245.000 260.000 L 243.200 260.000 243.200 258.400 L 243.200 256.800 241.600 256.800 L 240.000 256.800 240.000 258.400 M166.800 263.400 L 166.800 266.800 165.000 266.800 L 163.200 266.800 163.200 273.400 L 163.200 280.000 161.600 280.000 L 160.000 280.000 160.000 281.600 L 160.000 283.200 161.600 283.200 L 163.200 283.200 163.200 281.600 L 163.200 280.000 165.000 280.000 L 166.800 280.000 166.800 283.400 L 166.800 286.800 170.000 286.800 L 173.200 286.800 173.200 285.000 L 173.200 283.200 171.600 283.200 L 170.000 283.200 170.000 281.600 L 170.000 280.000 168.400 280.000 L 166.800 280.000 166.800 276.600 L 166.800 273.200 168.400 273.200 L 170.000 273.200 170.000 275.000 L 170.000 276.800 171.600 276.800 L 173.200 276.800 173.200 278.400 L 173.200 280.000 176.600 280.000 L 180.000 280.000 180.000 276.600 L 180.000 273.200 178.400 273.200 L 176.800 273.200 176.800 271.600 L 176.800 270.000 175.000 270.000 L 173.200 270.000 173.200 271.600 L 173.200 273.200 171.600 273.200 L 170.000 273.200 170.000 266.600 L 170.000 260.000 168.400 260.000 L 166.800 260.000 166.800 263.400 M186.800 268.400 L 186.800 270.000 184.943 270.000 L 183.086 270.000 183.343 272.459 C 183.484 273.811,183.600 275.341,183.600 275.859 C 183.600 276.690,183.787 276.800,185.200 276.800 L 186.800 276.800 186.800 275.000 L 186.800 273.200 188.400 273.200 L 190.000 273.200 190.000 270.000 L 190.000 266.800 188.400 266.800 L 186.800 266.800 186.800 268.400 M233.200 268.400 L 233.200 270.000 231.600 270.000 L 230.000 270.000 230.000 271.600 L 230.000 273.200 228.400 273.200 L 226.800 273.200 226.800 276.600 L 226.800 280.000 228.400 280.000 L 230.000 280.000 230.000 278.400 L 230.000 276.800 231.600 276.800 L 233.200 276.800 233.200 275.000 L 233.200 273.200 235.000 273.200 L 236.800 273.200 236.800 271.600 L 236.800 270.000 240.000 270.000 L 243.200 270.000 243.200 268.400 L 243.200 266.800 238.200 266.800 L 233.200 266.800 233.200 268.400 M200.000 275.000 L 200.000 276.800 201.600 276.800 L 203.200 276.800 203.200 278.400 L 203.200 280.000 210.000 280.000 L 216.800 280.000 216.800 281.600 L 216.800 283.200 220.000 283.200 L 223.200 283.200 223.200 281.600 L 223.200 280.000 221.600 280.000 L 220.000 280.000 220.000 278.400 L 220.000 276.800 218.400 276.800 L 216.800 276.800 216.800 275.000 L 216.800 273.200 213.400 273.200 L 210.000 273.200 210.000 275.000 L 210.000 276.800 208.400 276.800 L 206.800 276.800 206.800 275.000 L 206.800 273.200 203.400 273.200 L 200.000 273.200 200.000 275.000 " stroke="none" fill="#244c84" fill-rule="evenodd"></path><path id="path6" d="M186.800 51.600 L 186.800 53.200 185.000 53.200 L 183.200 53.200 183.200 55.000 L 183.200 56.800 181.600 56.800 L 180.000 56.800 180.000 61.800 L 180.000 66.800 181.600 66.800 L 183.200 66.800 183.200 68.400 L 183.200 70.000 185.000 70.000 L 186.800 70.000 186.800 83.200 L 186.800 96.400 180.000 96.400 L 173.200 96.400 173.200 98.200 L 173.200 100.000 168.200 100.000 L 163.200 100.000 163.200 101.600 L 163.200 103.200 161.600 103.200 L 160.000 103.200 160.000 105.000 L 160.000 106.800 158.400 106.800 L 156.800 106.800 156.800 108.400 L 156.800 110.000 155.000 110.000 L 153.200 110.000 153.200 113.400 L 153.200 116.800 151.600 116.800 L 150.000 116.800 150.000 120.000 L 150.000 123.200 151.600 123.200 L 153.200 123.200 153.200 120.000 L 153.200 116.800 155.000 116.800 L 156.800 116.800 156.800 113.400 L 156.800 110.000 158.400 110.000 L 160.000 110.000 160.000 108.400 L 160.000 106.800 161.600 106.800 L 163.200 106.800 163.200 105.000 L 163.200 103.200 168.200 103.200 L 173.200 103.200 173.200 101.600 L 173.200 100.000 181.600 100.000 L 190.000 100.000 190.000 101.600 L 190.000 103.200 191.600 103.200 L 193.200 103.200 193.200 101.600 L 193.200 100.000 200.000 100.000 L 206.800 100.000 206.800 101.600 L 206.800 103.200 210.000 103.200 L 213.200 103.200 213.200 105.000 L 213.200 106.800 215.000 106.800 L 216.800 106.800 216.800 110.000 L 216.800 113.200 218.400 113.200 L 220.000 113.200 220.000 121.600 L 220.000 130.000 221.600 130.000 L 223.200 130.000 223.200 131.600 L 223.200 133.200 225.000 133.200 L 226.800 133.200 226.800 138.200 L 226.800 143.200 225.000 143.200 L 223.200 143.200 223.200 146.600 L 223.200 150.000 225.000 150.000 L 226.800 150.000 226.800 151.600 L 226.800 153.200 228.400 153.200 L 230.000 153.200 230.000 155.000 L 230.000 156.800 231.600 156.800 L 233.200 156.800 233.200 158.400 L 233.200 160.000 235.000 160.000 L 236.800 160.000 236.800 161.600 L 236.800 163.200 238.400 163.200 L 240.000 163.200 240.000 166.600 L 240.000 170.000 241.600 170.000 L 243.200 170.000 243.200 175.000 L 243.200 180.000 241.600 180.000 L 240.000 180.000 240.000 185.000 L 240.000 190.000 238.400 190.000 L 236.800 190.000 236.800 195.000 L 236.800 200.000 238.400 200.000 L 240.000 200.000 240.000 203.400 L 240.000 206.800 241.600 206.800 L 243.200 206.800 243.200 210.000 L 243.200 213.200 245.000 213.200 L 246.800 213.200 246.800 218.200 L 246.800 223.200 245.000 223.200 L 243.200 223.200 243.200 225.000 L 243.200 226.800 241.600 226.800 L 240.000 226.800 240.000 228.400 L 240.000 230.000 238.400 230.000 L 236.800 230.000 236.800 231.600 L 236.800 233.200 231.800 233.200 L 226.800 233.200 226.800 231.600 L 226.800 230.000 225.000 230.000 L 223.200 230.000 223.200 228.400 L 223.200 226.800 225.000 226.800 L 226.800 226.800 226.800 221.800 L 226.800 216.800 225.000 216.800 L 223.200 216.800 223.200 210.000 L 223.200 203.200 221.600 203.200 L 220.000 203.200 220.000 171.600 L 220.000 140.000 218.400 140.000 L 216.800 140.000 216.800 135.000 L 216.800 130.000 215.000 130.000 L 213.200 130.000 213.200 125.000 L 213.200 120.000 211.600 120.000 L 210.000 120.000 210.000 118.400 L 210.000 116.800 208.400 116.800 L 206.800 116.800 206.800 115.000 L 206.800 113.200 203.400 113.200 L 200.000 113.200 200.000 111.600 L 200.000 110.000 196.600 110.000 L 193.200 110.000 193.200 108.400 L 193.200 106.800 190.000 106.800 L 186.800 106.800 186.800 108.400 L 186.800 110.000 183.400 110.000 L 180.000 110.000 180.000 111.600 L 180.000 113.200 175.000 113.200 L 170.000 113.200 170.000 115.000 L 170.000 116.800 168.400 116.800 L 166.800 116.800 166.800 120.000 L 166.800 123.200 165.000 123.200 L 163.200 123.200 163.200 126.600 L 163.200 130.000 161.600 130.000 L 160.000 130.000 160.000 136.600 L 160.000 143.200 158.400 143.200 L 156.800 143.200 156.800 151.600 L 156.800 160.000 155.000 160.000 L 153.200 160.000 153.200 185.000 L 153.200 210.000 155.000 210.000 L 156.800 210.000 156.800 218.400 L 156.800 226.800 155.000 226.800 L 153.200 226.800 153.200 230.000 L 153.200 233.200 155.000 233.200 L 156.800 233.200 156.800 236.600 L 156.800 240.000 151.800 240.000 L 146.800 240.000 146.800 238.400 L 146.800 236.800 141.800 236.800 L 136.800 236.800 136.800 235.000 L 136.800 233.200 131.800 233.200 L 126.800 233.200 126.800 231.600 L 126.800 230.000 125.000 230.000 L 123.200 230.000 123.200 228.400 L 123.200 226.800 121.600 226.800 L 120.000 226.800 120.000 225.000 L 120.000 223.200 118.400 223.200 L 116.800 223.200 116.800 221.600 L 116.800 220.000 115.000 220.000 L 113.200 220.000 113.200 211.600 L 113.200 203.200 115.000 203.200 L 116.800 203.200 116.800 200.000 L 116.800 196.800 118.400 196.800 L 120.000 196.800 120.000 193.400 L 120.000 190.000 121.600 190.000 L 123.200 190.000 123.200 185.000 L 123.200 180.000 121.600 180.000 L 120.000 180.000 120.000 173.400 L 120.000 166.800 118.400 166.800 L 116.800 166.800 116.800 173.400 L 116.800 180.000 118.400 180.000 L 120.000 180.000 120.000 185.000 L 120.000 190.000 118.400 190.000 L 116.800 190.000 116.800 193.400 L 116.800 196.800 115.000 196.800 L 113.200 196.800 113.200 200.000 L 113.200 203.200 111.600 203.200 L 110.000 203.200 110.000 211.600 L 110.000 220.000 111.600 220.000 L 113.200 220.000 113.200 221.600 L 113.200 223.200 115.000 223.200 L 116.800 223.200 116.800 225.000 L 116.800 226.800 118.400 226.800 L 120.000 226.800 120.000 228.400 L 120.000 230.000 121.600 230.000 L 123.200 230.000 123.200 231.600 L 123.200 233.200 125.000 233.200 L 126.800 233.200 126.800 235.000 L 126.800 236.800 131.800 236.800 L 136.800 236.800 136.800 238.400 L 136.800 240.000 141.800 240.000 L 146.800 240.000 146.800 241.800 L 146.800 243.600 153.400 243.600 L 160.000 243.600 160.000 245.000 C 160.000 246.367,160.038 246.400,161.600 246.400 L 163.200 246.400 163.200 243.200 L 163.200 240.000 161.600 240.000 L 160.000 240.000 160.000 235.000 L 160.000 230.000 158.400 230.000 L 156.800 230.000 156.800 228.400 L 156.800 226.800 158.400 226.800 L 160.000 226.800 160.000 215.000 L 160.000 203.200 161.600 203.200 L 163.200 203.200 163.200 200.000 L 163.200 196.800 161.600 196.800 L 160.000 196.800 160.000 200.000 L 160.000 203.200 158.400 203.200 L 156.800 203.200 156.800 190.000 L 156.800 176.800 160.000 176.800 L 163.200 176.800 163.200 178.400 L 163.200 180.000 168.200 180.000 L 173.200 180.000 173.200 181.800 L 173.200 183.600 191.600 183.600 L 210.000 183.600 210.000 181.800 L 210.000 180.000 211.600 180.000 L 213.200 180.000 213.200 178.400 L 213.200 176.800 215.000 176.800 L 216.800 176.800 216.800 188.400 L 216.800 200.000 215.000 200.000 L 213.200 200.000 213.200 201.600 L 213.200 203.200 210.000 203.200 L 206.800 203.200 206.800 205.000 L 206.800 206.800 205.000 206.800 L 203.200 206.800 203.200 208.400 L 203.200 210.000 201.600 210.000 L 200.000 210.000 200.000 208.400 L 200.000 206.800 198.400 206.800 L 196.800 206.800 196.800 205.000 L 196.800 203.200 193.400 203.200 L 190.000 203.200 190.000 201.600 L 190.000 200.000 185.000 200.000 L 180.000 200.000 180.000 201.600 L 180.000 203.200 176.600 203.200 L 173.200 203.200 173.200 200.000 L 173.200 196.800 171.600 196.800 L 170.000 196.800 170.000 201.800 L 170.000 206.800 168.400 206.800 L 166.800 206.800 166.800 215.000 L 166.800 223.200 165.000 223.200 L 163.200 223.200 163.200 226.600 L 163.200 230.000 165.000 230.000 L 166.800 230.000 166.800 235.000 L 166.800 240.000 168.400 240.000 L 170.000 240.000 170.000 243.400 L 170.000 246.800 171.600 246.800 L 173.200 246.800 173.200 250.000 L 173.200 253.200 175.000 253.200 L 176.800 253.200 176.800 255.000 L 176.800 256.800 180.000 256.800 L 183.200 256.800 183.200 258.400 L 183.200 260.000 185.000 260.000 L 186.800 260.000 186.800 263.400 L 186.800 266.800 185.000 266.800 L 183.200 266.800 183.200 268.400 L 183.200 270.000 180.000 270.000 L 176.800 270.000 176.800 265.000 L 176.800 260.000 175.000 260.000 L 173.200 260.000 173.200 258.400 L 173.200 256.800 171.600 256.800 L 170.000 256.800 170.000 258.400 L 170.000 260.000 171.600 260.000 L 173.200 260.000 173.200 265.000 L 173.200 270.000 175.000 270.000 L 176.800 270.000 176.800 271.600 L 176.800 273.200 180.000 273.200 L 183.200 273.200 183.200 271.600 L 183.200 270.000 185.000 270.000 L 186.800 270.000 186.800 268.400 L 186.800 266.800 188.400 266.800 L 190.000 266.800 190.000 263.400 L 190.000 260.000 188.400 260.000 L 186.800 260.000 186.800 258.400 L 186.800 256.800 185.000 256.800 L 183.200 256.800 183.200 255.000 L 183.200 253.200 180.000 253.200 L 176.800 253.200 176.800 251.600 L 176.800 250.000 181.800 250.000 L 186.800 250.000 186.800 251.600 L 186.800 253.200 191.800 253.200 L 196.800 253.200 196.800 255.000 L 196.800 256.800 201.800 256.800 L 206.800 256.800 206.800 258.400 L 206.800 260.000 208.400 260.000 L 210.000 260.000 210.000 261.600 L 210.000 263.200 211.600 263.200 L 213.200 263.200 213.200 261.600 L 213.200 260.000 215.000 260.000 L 216.800 260.000 216.800 258.400 L 216.800 256.800 218.400 256.800 L 220.000 256.800 220.000 255.000 L 220.000 253.200 223.400 253.200 L 226.800 253.200 226.800 251.600 L 226.800 250.000 230.000 250.000 L 233.200 250.000 233.200 251.600 L 233.200 253.200 236.600 253.200 L 240.000 253.200 240.000 255.000 L 240.000 256.800 241.600 256.800 L 243.200 256.800 243.200 258.400 L 243.200 260.000 245.000 260.000 L 246.800 260.000 246.800 261.600 L 246.800 263.200 248.400 263.200 L 250.000 263.200 250.000 265.000 L 250.000 266.800 246.600 266.800 L 243.200 266.800 243.200 268.400 L 243.200 270.000 240.000 270.000 L 236.800 270.000 236.800 271.600 L 236.800 273.200 235.000 273.200 L 233.200 273.200 233.200 275.000 L 233.200 276.800 231.600 276.800 L 230.000 276.800 230.000 278.400 L 230.000 280.000 226.600 280.000 L 223.200 280.000 223.200 281.600 L 223.200 283.200 220.000 283.200 L 216.800 283.200 216.800 281.600 L 216.800 280.000 210.000 280.000 L 203.200 280.000 203.200 278.400 L 203.200 276.800 201.600 276.800 L 200.000 276.800 200.000 275.000 L 200.000 273.200 198.400 273.200 L 196.800 273.200 196.800 275.000 L 196.800 276.800 195.000 276.800 L 193.200 276.800 193.200 278.400 L 193.200 280.000 191.600 280.000 L 190.000 280.000 190.000 281.600 L 190.000 283.200 185.000 283.200 L 180.000 283.200 180.000 285.000 L 180.000 286.800 181.600 286.800 L 183.200 286.800 183.200 288.400 L 183.200 290.000 185.000 290.000 L 186.800 290.000 186.800 303.400 L 186.800 316.800 185.000 316.800 L 183.200 316.800 183.200 323.400 L 183.200 330.000 181.600 330.000 L 180.000 330.000 180.000 335.000 L 180.000 340.000 178.200 340.000 L 176.400 340.000 176.400 343.400 L 176.400 346.800 178.200 346.800 L 180.000 346.800 180.000 348.400 L 180.000 350.000 193.400 350.000 L 206.800 350.000 206.800 348.400 L 206.800 346.800 205.000 346.800 L 203.200 346.800 203.200 345.000 L 203.200 343.200 201.600 343.200 L 200.000 343.200 200.000 341.600 L 200.000 340.000 198.400 340.000 L 196.800 340.000 196.800 338.400 L 196.800 336.800 195.000 336.800 L 193.200 336.800 193.200 333.400 L 193.200 330.000 195.000 330.000 L 196.800 330.000 196.800 325.000 L 196.800 320.000 198.400 320.000 L 200.000 320.000 200.000 316.600 L 200.000 313.200 201.600 313.200 L 203.200 313.200 203.200 311.600 L 203.200 310.000 206.600 310.000 L 210.000 310.000 210.000 311.600 L 210.000 313.200 213.400 313.200 L 216.800 313.200 216.800 321.600 L 216.800 330.000 215.000 330.000 L 213.200 330.000 213.200 335.000 L 213.200 340.000 211.600 340.000 L 210.000 340.000 210.000 343.400 L 210.000 346.800 211.600 346.800 L 213.200 346.800 213.200 348.400 L 213.200 350.000 228.400 350.000 L 243.600 350.000 243.600 348.400 L 243.600 346.800 241.800 346.800 L 240.000 346.800 240.000 345.000 L 240.000 343.200 236.600 343.200 L 233.200 343.200 233.200 341.600 L 233.200 340.000 231.600 340.000 L 230.000 340.000 230.000 338.400 L 230.000 336.800 228.400 336.800 L 226.800 336.800 226.800 331.800 L 226.800 326.800 228.400 326.800 L 230.000 326.800 230.000 323.400 L 230.000 320.000 231.600 320.000 L 233.200 320.000 233.200 321.600 L 233.200 323.200 241.600 323.200 L 250.000 323.200 250.000 325.000 L 250.000 326.800 256.600 326.800 L 263.200 326.800 263.200 325.000 L 263.200 323.200 268.200 323.200 L 273.200 323.200 273.200 321.600 L 273.200 320.000 275.000 320.000 L 276.800 320.000 276.800 318.400 L 276.800 316.800 278.400 316.800 L 280.000 316.800 280.000 311.800 L 280.000 306.800 278.400 306.800 L 276.800 306.800 276.800 305.000 L 276.800 303.200 275.000 303.200 L 273.200 303.200 273.200 301.600 L 273.200 300.000 271.600 300.000 L 270.000 300.000 270.000 298.400 L 270.000 296.800 268.400 296.800 L 266.800 296.800 266.800 295.000 L 266.800 293.200 265.000 293.200 L 263.200 293.200 263.200 291.600 L 263.200 290.000 261.600 290.000 L 260.000 290.000 260.000 288.400 L 260.000 286.800 258.400 286.800 L 256.800 286.800 256.800 285.000 L 256.800 283.200 255.000 283.200 L 253.200 283.200 253.200 281.600 L 253.200 280.000 251.600 280.000 L 250.000 280.000 250.000 278.400 L 250.000 276.800 248.400 276.800 L 246.800 276.800 246.800 275.000 L 246.800 273.200 245.000 273.200 L 243.200 273.200 243.200 271.600 L 243.200 270.000 246.600 270.000 L 250.000 270.000 250.000 268.400 L 250.000 266.800 251.800 266.800 L 253.600 266.800 253.600 265.000 L 253.600 263.200 251.800 263.200 L 250.000 263.200 250.000 261.600 L 250.000 260.000 248.400 260.000 L 246.800 260.000 246.800 258.400 L 246.800 256.800 245.000 256.800 L 243.200 256.800 243.200 255.000 L 243.200 253.200 241.600 253.200 L 240.000 253.200 240.000 251.600 L 240.000 250.000 236.600 250.000 L 233.200 250.000 233.200 248.400 L 233.200 246.800 231.600 246.800 L 230.000 246.800 230.000 241.800 L 230.000 236.800 233.400 236.800 L 236.800 236.800 236.800 235.000 L 236.800 233.200 238.400 233.200 L 240.000 233.200 240.000 231.600 L 240.000 230.000 241.600 230.000 L 243.200 230.000 243.200 228.400 L 243.200 226.800 245.000 226.800 L 246.800 226.800 246.800 225.000 L 246.800 223.200 248.400 223.200 L 250.000 223.200 250.000 218.200 L 250.000 213.200 248.400 213.200 L 246.800 213.200 246.800 210.000 L 246.800 206.800 245.000 206.800 L 243.200 206.800 243.200 203.400 L 243.200 200.000 241.600 200.000 L 240.000 200.000 240.000 195.000 L 240.000 190.000 241.600 190.000 L 243.200 190.000 243.200 185.000 L 243.200 180.000 245.000 180.000 L 246.800 180.000 246.800 175.000 L 246.800 170.000 245.000 170.000 L 243.200 170.000 243.200 166.600 L 243.200 163.200 241.600 163.200 L 240.000 163.200 240.000 161.600 L 240.000 160.000 238.400 160.000 L 236.800 160.000 236.800 158.400 L 236.800 156.800 235.000 156.800 L 233.200 156.800 233.200 155.000 L 233.200 153.200 231.600 153.200 L 230.000 153.200 230.000 151.600 L 230.000 150.000 228.400 150.000 L 226.800 150.000 226.800 146.600 L 226.800 143.200 228.400 143.200 L 230.000 143.200 230.000 138.200 L 230.000 133.200 228.400 133.200 L 226.800 133.200 226.800 131.600 L 226.800 130.000 225.000 130.000 L 223.200 130.000 223.200 121.600 L 223.200 113.200 221.600 113.200 L 220.000 113.200 220.000 110.000 L 220.000 106.800 218.400 106.800 L 216.800 106.800 216.800 105.000 L 216.800 103.200 215.000 103.200 L 213.200 103.200 213.200 101.600 L 213.200 100.000 210.000 100.000 L 206.800 100.000 206.800 98.200 L 206.800 96.400 201.800 96.400 L 196.800 96.400 196.800 83.200 L 196.800 70.000 198.400 70.000 L 200.000 70.000 200.000 61.600 L 200.000 53.200 198.400 53.200 L 196.800 53.200 196.800 51.600 L 196.800 50.000 191.800 50.000 L 186.800 50.000 186.800 51.600 M196.800 61.600 L 196.800 70.000 195.000 70.000 L 193.200 70.000 193.200 85.000 L 193.200 100.000 191.600 100.000 L 190.000 100.000 190.000 85.000 L 190.000 70.000 188.400 70.000 L 186.800 70.000 186.800 68.400 L 186.800 66.800 185.000 66.800 L 183.200 66.800 183.200 61.800 L 183.200 56.800 185.000 56.800 L 186.800 56.800 186.800 55.000 L 186.800 53.200 191.800 53.200 L 196.800 53.200 196.800 61.600 M193.200 111.600 L 193.200 113.200 196.600 113.200 L 200.000 113.200 200.000 115.000 L 200.000 116.800 203.400 116.800 L 206.800 116.800 206.800 118.400 L 206.800 120.000 205.000 120.000 L 203.200 120.000 203.200 121.600 L 203.200 123.200 206.600 123.200 L 210.000 123.200 210.000 126.600 L 210.000 130.000 211.600 130.000 L 213.200 130.000 213.200 135.000 L 213.200 140.000 211.600 140.000 L 210.000 140.000 210.000 138.400 L 210.000 136.800 208.400 136.800 L 206.800 136.800 206.800 138.400 L 206.800 140.000 205.000 140.000 L 203.200 140.000 203.200 141.600 L 203.200 143.200 200.000 143.200 L 196.800 143.200 196.800 145.000 L 196.800 146.800 200.000 146.800 L 203.200 146.800 203.200 151.800 L 203.200 156.800 208.200 156.800 L 213.200 156.800 213.200 150.000 L 213.200 143.200 215.000 143.200 L 216.800 143.200 216.800 154.800 L 216.800 166.400 215.000 166.400 L 213.200 166.400 213.200 168.200 L 213.200 170.000 215.000 170.000 L 216.800 170.000 216.800 171.600 L 216.800 173.200 215.000 173.200 L 213.200 173.200 213.200 175.000 L 213.200 176.800 211.600 176.800 L 210.000 176.800 210.000 175.000 L 210.000 173.200 191.600 173.200 L 173.200 173.200 173.200 171.600 L 173.200 170.000 168.200 170.000 L 163.200 170.000 163.200 168.200 L 163.200 166.400 160.000 166.400 L 156.800 166.400 156.800 163.200 L 156.800 160.000 158.400 160.000 L 160.000 160.000 160.000 151.600 L 160.000 143.200 161.600 143.200 L 163.200 143.200 163.200 136.600 L 163.200 130.000 170.000 130.000 L 176.800 130.000 176.800 128.400 L 176.800 126.800 171.800 126.800 L 166.800 126.800 166.800 125.000 L 166.800 123.200 173.400 123.200 L 180.000 123.200 180.000 121.600 L 180.000 120.000 175.000 120.000 L 170.000 120.000 170.000 118.400 L 170.000 116.800 175.000 116.800 L 180.000 116.800 180.000 115.000 L 180.000 113.200 183.400 113.200 L 186.800 113.200 186.800 111.600 L 186.800 110.000 190.000 110.000 L 193.200 110.000 193.200 111.600 M180.000 125.000 L 180.000 126.800 185.000 126.800 L 190.000 126.800 190.000 128.400 L 190.000 130.000 193.400 130.000 L 196.800 130.000 196.800 128.400 L 196.800 126.800 200.000 126.800 L 203.200 126.800 203.200 125.000 L 203.200 123.200 200.000 123.200 L 196.800 123.200 196.800 125.000 L 196.800 126.800 193.400 126.800 L 190.000 126.800 190.000 125.000 L 190.000 123.200 185.000 123.200 L 180.000 123.200 180.000 125.000 M146.800 130.000 L 146.800 133.200 145.000 133.200 L 143.200 133.200 143.200 135.000 L 143.200 136.800 141.600 136.800 L 140.000 136.800 140.000 138.400 L 140.000 140.000 138.400 140.000 L 136.800 140.000 136.800 141.600 L 136.800 143.200 135.000 143.200 L 133.200 143.200 133.200 145.000 L 133.200 146.800 131.600 146.800 L 130.000 146.800 130.000 148.400 L 130.000 150.000 128.400 150.000 L 126.800 150.000 126.800 151.600 L 126.800 153.200 125.000 153.200 L 123.200 153.200 123.200 155.000 L 123.200 156.800 121.600 156.800 L 120.000 156.800 120.000 160.000 L 120.000 163.200 121.600 163.200 L 123.200 163.200 123.200 160.000 L 123.200 156.800 125.000 156.800 L 126.800 156.800 126.800 155.000 L 126.800 153.200 128.400 153.200 L 130.000 153.200 130.000 151.600 L 130.000 150.000 131.600 150.000 L 133.200 150.000 133.200 148.400 L 133.200 146.800 135.000 146.800 L 136.800 146.800 136.800 145.000 L 136.800 143.200 138.400 143.200 L 140.000 143.200 140.000 141.600 L 140.000 140.000 141.600 140.000 L 143.200 140.000 143.200 138.400 L 143.200 136.800 145.000 136.800 L 146.800 136.800 146.800 135.000 L 146.800 133.200 148.400 133.200 L 150.000 133.200 150.000 130.000 L 150.000 126.800 148.400 126.800 L 146.800 126.800 146.800 130.000 M176.800 131.600 L 176.800 133.200 181.800 133.200 L 186.800 133.200 186.800 135.000 L 186.800 136.800 190.000 136.800 L 193.200 136.800 193.200 138.400 L 193.200 140.000 195.000 140.000 L 196.800 140.000 196.800 138.400 L 196.800 136.800 200.000 136.800 L 203.200 136.800 203.200 135.000 L 203.200 133.200 206.600 133.200 L 210.000 133.200 210.000 131.600 L 210.000 130.000 206.600 130.000 L 203.200 130.000 203.200 131.600 L 203.200 133.200 200.000 133.200 L 196.800 133.200 196.800 135.000 L 196.800 136.800 195.000 136.800 L 193.200 136.800 193.200 135.000 L 193.200 133.200 190.000 133.200 L 186.800 133.200 186.800 131.600 L 186.800 130.000 181.800 130.000 L 176.800 130.000 176.800 131.600 M170.000 140.000 L 170.000 143.200 171.600 143.200 L 173.200 143.200 173.200 145.000 L 173.200 146.800 171.600 146.800 L 170.000 146.800 170.000 148.400 L 170.000 150.000 171.600 150.000 L 173.200 150.000 173.200 148.400 L 173.200 146.800 176.600 146.800 L 180.000 146.800 180.000 151.800 L 180.000 156.800 185.000 156.800 L 190.000 156.800 190.000 151.800 L 190.000 146.800 191.600 146.800 L 193.200 146.800 193.200 145.000 L 193.200 143.200 188.200 143.200 L 183.200 143.200 183.200 141.600 L 183.200 140.000 181.600 140.000 L 180.000 140.000 180.000 138.400 L 180.000 136.800 178.400 136.800 L 176.800 136.800 176.800 138.400 L 176.800 140.000 175.000 140.000 L 173.200 140.000 173.200 138.400 L 173.200 136.800 171.600 136.800 L 170.000 136.800 170.000 140.000 M190.000 165.000 L 190.000 166.800 195.000 166.800 L 200.000 166.800 200.000 165.000 L 200.000 163.200 195.000 163.200 L 190.000 163.200 190.000 165.000 M160.000 171.600 L 160.000 173.200 158.400 173.200 L 156.800 173.200 156.800 171.600 L 156.800 170.000 158.400 170.000 L 160.000 170.000 160.000 171.600 M210.000 171.600 L 210.000 173.200 211.600 173.200 L 213.200 173.200 213.200 171.600 L 213.200 170.000 211.600 170.000 L 210.000 170.000 210.000 171.600 M170.000 175.000 L 170.000 176.800 168.400 176.800 L 166.800 176.800 166.800 175.000 L 166.800 173.200 168.400 173.200 L 170.000 173.200 170.000 175.000 M180.000 178.400 L 180.000 180.000 178.400 180.000 L 176.800 180.000 176.800 178.400 L 176.800 176.800 178.400 176.800 L 180.000 176.800 180.000 178.400 M186.800 178.400 L 186.800 180.000 185.000 180.000 L 183.200 180.000 183.200 178.400 L 183.200 176.800 185.000 176.800 L 186.800 176.800 186.800 178.400 M193.200 178.400 L 193.200 180.000 191.600 180.000 L 190.000 180.000 190.000 178.400 L 190.000 176.800 191.600 176.800 L 193.200 176.800 193.200 178.400 M200.000 178.400 L 200.000 180.000 198.400 180.000 L 196.800 180.000 196.800 178.400 L 196.800 176.800 198.400 176.800 L 200.000 176.800 200.000 178.400 M206.800 178.400 L 206.800 180.000 205.000 180.000 L 203.200 180.000 203.200 178.400 L 203.200 176.800 205.000 176.800 L 206.800 176.800 206.800 178.400 M190.000 205.000 L 190.000 206.800 193.400 206.800 L 196.800 206.800 196.800 208.400 L 196.800 210.000 198.400 210.000 L 200.000 210.000 200.000 211.600 L 200.000 213.200 201.600 213.200 L 203.200 213.200 203.200 211.600 L 203.200 210.000 205.000 210.000 L 206.800 210.000 206.800 208.400 L 206.800 206.800 210.000 206.800 L 213.200 206.800 213.200 205.000 L 213.200 203.200 216.600 203.200 L 220.000 203.200 220.000 205.000 L 220.000 206.800 216.600 206.800 L 213.200 206.800 213.200 208.400 L 213.200 210.000 216.600 210.000 L 220.000 210.000 220.000 213.400 L 220.000 216.800 221.600 216.800 L 223.200 216.800 223.200 220.000 L 223.200 223.200 221.600 223.200 L 220.000 223.200 220.000 226.600 L 220.000 230.000 221.600 230.000 L 223.200 230.000 223.200 235.000 L 223.200 240.000 225.000 240.000 L 226.800 240.000 226.800 245.000 L 226.800 250.000 223.400 250.000 L 220.000 250.000 220.000 251.600 L 220.000 253.200 218.400 253.200 L 216.800 253.200 216.800 255.000 L 216.800 256.800 215.000 256.800 L 213.200 256.800 213.200 258.400 L 213.200 260.000 211.600 260.000 L 210.000 260.000 210.000 258.400 L 210.000 256.800 208.400 256.800 L 206.800 256.800 206.800 255.000 L 206.800 253.200 201.800 253.200 L 196.800 253.200 196.800 251.600 L 196.800 250.000 191.800 250.000 L 186.800 250.000 186.800 248.400 L 186.800 246.800 180.000 246.800 L 173.200 246.800 173.200 243.400 L 173.200 240.000 171.600 240.000 L 170.000 240.000 170.000 235.000 L 170.000 230.000 168.400 230.000 L 166.800 230.000 166.800 226.600 L 166.800 223.200 168.400 223.200 L 170.000 223.200 170.000 218.200 L 170.000 213.200 175.000 213.200 L 180.000 213.200 180.000 211.600 L 180.000 210.000 175.000 210.000 L 170.000 210.000 170.000 208.400 L 170.000 206.800 175.000 206.800 L 180.000 206.800 180.000 205.000 L 180.000 203.200 185.000 203.200 L 190.000 203.200 190.000 205.000 M180.000 208.400 L 180.000 210.000 185.000 210.000 L 190.000 210.000 190.000 211.600 L 190.000 213.200 193.400 213.200 L 196.800 213.200 196.800 215.000 L 196.800 216.800 198.400 216.800 L 200.000 216.800 200.000 218.400 L 200.000 220.000 201.600 220.000 L 203.200 220.000 203.200 218.400 L 203.200 216.800 205.000 216.800 L 206.800 216.800 206.800 215.000 L 206.800 213.200 210.000 213.200 L 213.200 213.200 213.200 211.600 L 213.200 210.000 210.000 210.000 L 206.800 210.000 206.800 211.600 L 206.800 213.200 205.000 213.200 L 203.200 213.200 203.200 215.000 L 203.200 216.800 201.600 216.800 L 200.000 216.800 200.000 215.000 L 200.000 213.200 198.400 213.200 L 196.800 213.200 196.800 211.600 L 196.800 210.000 193.400 210.000 L 190.000 210.000 190.000 208.400 L 190.000 206.800 185.000 206.800 L 180.000 206.800 180.000 208.400 M173.200 238.400 L 173.200 240.000 180.000 240.000 L 186.800 240.000 186.800 241.600 L 186.800 243.200 191.800 243.200 L 196.800 243.200 196.800 245.000 L 196.800 246.800 203.400 246.800 L 210.000 246.800 210.000 248.400 L 210.000 250.000 211.600 250.000 L 213.200 250.000 213.200 248.400 L 213.200 246.800 215.000 246.800 L 216.800 246.800 216.800 245.000 L 216.800 243.200 220.000 243.200 L 223.200 243.200 223.200 241.600 L 223.200 240.000 220.000 240.000 L 216.800 240.000 216.800 241.600 L 216.800 243.200 215.000 243.200 L 213.200 243.200 213.200 245.000 L 213.200 246.800 211.600 246.800 L 210.000 246.800 210.000 245.000 L 210.000 243.200 203.400 243.200 L 196.800 243.200 196.800 241.600 L 196.800 240.000 191.800 240.000 L 186.800 240.000 186.800 238.400 L 186.800 236.800 180.000 236.800 L 173.200 236.800 173.200 238.400 M163.200 248.400 L 163.200 250.000 165.000 250.000 L 166.800 250.000 166.800 248.400 L 166.800 246.800 165.000 246.800 L 163.200 246.800 163.200 248.400 M163.200 260.000 L 163.200 266.800 161.600 266.800 L 160.000 266.800 160.000 273.400 L 160.000 280.000 158.200 280.000 L 156.400 280.000 156.400 283.400 L 156.400 286.800 159.800 286.800 L 163.200 286.800 163.200 285.000 L 163.200 283.200 161.600 283.200 L 160.000 283.200 160.000 281.600 L 160.000 280.000 161.600 280.000 L 163.200 280.000 163.200 273.400 L 163.200 266.800 165.000 266.800 L 166.800 266.800 166.800 260.000 L 166.800 253.200 165.000 253.200 L 163.200 253.200 163.200 260.000 M243.200 275.000 L 243.200 276.800 245.000 276.800 L 246.800 276.800 246.800 278.400 L 246.800 280.000 248.400 280.000 L 250.000 280.000 250.000 281.600 L 250.000 283.200 251.600 283.200 L 253.200 283.200 253.200 285.000 L 253.200 286.800 255.000 286.800 L 256.800 286.800 256.800 288.400 L 256.800 290.000 258.400 290.000 L 260.000 290.000 260.000 291.600 L 260.000 293.200 261.600 293.200 L 263.200 293.200 263.200 295.000 L 263.200 296.800 265.000 296.800 L 266.800 296.800 266.800 298.400 L 266.800 300.000 268.400 300.000 L 270.000 300.000 270.000 301.600 L 270.000 303.200 271.600 303.200 L 273.200 303.200 273.200 305.000 L 273.200 306.800 275.000 306.800 L 276.800 306.800 276.800 311.800 L 276.800 316.800 275.000 316.800 L 273.200 316.800 273.200 318.400 L 273.200 320.000 268.200 320.000 L 263.200 320.000 263.200 321.600 L 263.200 323.200 256.600 323.200 L 250.000 323.200 250.000 321.600 L 250.000 320.000 241.600 320.000 L 233.200 320.000 233.200 318.400 L 233.200 316.800 228.200 316.800 L 223.200 316.800 223.200 318.400 L 223.200 320.000 225.000 320.000 L 226.800 320.000 226.800 323.400 L 226.800 326.800 225.000 326.800 L 223.200 326.800 223.200 333.400 L 223.200 340.000 226.600 340.000 L 230.000 340.000 230.000 341.600 L 230.000 343.200 231.600 343.200 L 233.200 343.200 233.200 345.000 L 233.200 346.800 223.200 346.800 L 213.200 346.800 213.200 343.400 L 213.200 340.000 215.000 340.000 L 216.800 340.000 216.800 335.000 L 216.800 330.000 218.400 330.000 L 220.000 330.000 220.000 323.400 L 220.000 316.800 221.600 316.800 L 223.200 316.800 223.200 315.000 L 223.200 313.200 220.000 313.200 L 216.800 313.200 216.800 311.600 L 216.800 310.000 213.400 310.000 L 210.000 310.000 210.000 308.400 L 210.000 306.800 208.400 306.800 L 206.800 306.800 206.800 305.000 L 206.800 303.200 205.000 303.200 L 203.200 303.200 203.200 305.000 L 203.200 306.800 201.600 306.800 L 200.000 306.800 200.000 310.000 L 200.000 313.200 198.400 313.200 L 196.800 313.200 196.800 316.600 L 196.800 320.000 195.000 320.000 L 193.200 320.000 193.200 325.000 L 193.200 330.000 191.600 330.000 L 190.000 330.000 190.000 333.400 L 190.000 336.800 191.600 336.800 L 193.200 336.800 193.200 338.400 L 193.200 340.000 195.000 340.000 L 196.800 340.000 196.800 341.600 L 196.800 343.200 198.400 343.200 L 200.000 343.200 200.000 345.000 L 200.000 346.800 190.000 346.800 L 180.000 346.800 180.000 343.400 L 180.000 340.000 181.600 340.000 L 183.200 340.000 183.200 335.000 L 183.200 330.000 185.000 330.000 L 186.800 330.000 186.800 323.400 L 186.800 316.800 188.400 316.800 L 190.000 316.800 190.000 303.400 L 190.000 290.000 195.000 290.000 L 200.000 290.000 200.000 288.400 L 200.000 286.800 196.600 286.800 L 193.200 286.800 193.200 283.400 L 193.200 280.000 195.000 280.000 L 196.800 280.000 196.800 278.400 L 196.800 276.800 198.400 276.800 L 200.000 276.800 200.000 278.400 L 200.000 280.000 201.600 280.000 L 203.200 280.000 203.200 281.600 L 203.200 283.200 210.000 283.200 L 216.800 283.200 216.800 285.000 L 216.800 286.800 220.000 286.800 L 223.200 286.800 223.200 285.000 L 223.200 283.200 226.600 283.200 L 230.000 283.200 230.000 281.600 L 230.000 280.000 231.600 280.000 L 233.200 280.000 233.200 278.400 L 233.200 276.800 235.000 276.800 L 236.800 276.800 236.800 275.000 L 236.800 273.200 240.000 273.200 L 243.200 273.200 243.200 275.000 M166.800 288.400 L 166.800 290.000 171.800 290.000 L 176.800 290.000 176.800 288.400 L 176.800 286.800 171.800 286.800 L 166.800 286.800 166.800 288.400 M200.000 291.600 L 200.000 293.200 201.600 293.200 L 203.200 293.200 203.200 295.000 L 203.200 296.800 205.000 296.800 L 206.800 296.800 206.800 300.000 L 206.800 303.200 208.400 303.200 L 210.000 303.200 210.000 300.000 L 210.000 296.800 208.400 296.800 L 206.800 296.800 206.800 295.000 L 206.800 293.200 205.000 293.200 L 203.200 293.200 203.200 291.600 L 203.200 290.000 201.600 290.000 L 200.000 290.000 200.000 291.600 " stroke="none" fill="#040404" fill-rule="evenodd"></path><path id="path7" d="M173.200 148.400 L 173.200 150.000 175.000 150.000 L 176.800 150.000 176.800 151.600 L 176.800 153.200 178.400 153.200 L 180.000 153.200 180.000 150.000 L 180.000 146.800 176.600 146.800 L 173.200 146.800 173.200 148.400 M196.800 148.400 L 196.800 150.000 198.400 150.000 L 200.000 150.000 200.000 151.600 L 200.000 153.200 201.600 153.200 L 203.200 153.200 203.200 150.000 L 203.200 146.800 200.000 146.800 L 196.800 146.800 196.800 148.400 M156.800 171.600 L 156.800 173.200 158.400 173.200 L 160.000 173.200 160.000 171.600 L 160.000 170.000 158.400 170.000 L 156.800 170.000 156.800 171.600 M213.200 171.600 L 213.200 173.200 211.600 173.200 L 210.000 173.200 210.000 175.000 L 210.000 176.800 211.600 176.800 L 213.200 176.800 213.200 175.000 L 213.200 173.200 215.000 173.200 L 216.800 173.200 216.800 171.600 L 216.800 170.000 215.000 170.000 L 213.200 170.000 213.200 171.600 M166.800 175.000 L 166.800 176.800 168.400 176.800 L 170.000 176.800 170.000 175.000 L 170.000 173.200 168.400 173.200 L 166.800 173.200 166.800 175.000 M176.800 178.400 L 176.800 180.000 178.400 180.000 L 180.000 180.000 180.000 178.400 L 180.000 176.800 178.400 176.800 L 176.800 176.800 176.800 178.400 M183.200 178.400 L 183.200 180.000 185.000 180.000 L 186.800 180.000 186.800 178.400 L 186.800 176.800 185.000 176.800 L 183.200 176.800 183.200 178.400 M190.000 178.400 L 190.000 180.000 191.600 180.000 L 193.200 180.000 193.200 178.400 L 193.200 176.800 191.600 176.800 L 190.000 176.800 190.000 178.400 M196.800 178.400 L 196.800 180.000 198.400 180.000 L 200.000 180.000 200.000 178.400 L 200.000 176.800 198.400 176.800 L 196.800 176.800 196.800 178.400 M203.200 178.400 L 203.200 180.000 205.000 180.000 L 206.800 180.000 206.800 178.400 L 206.800 176.800 205.000 176.800 L 203.200 176.800 203.200 178.400 " stroke="none" fill="#fcfcfc" fill-rule="evenodd"></path><path id="path8" d="" stroke="none" fill="#243844" fill-rule="evenodd"></path></g></svg>