<svg id="svg" version="1.1" xmlns="http://www.w3.org/2000/svg" xmlns:xlink="http://www.w3.org/1999/xlink" width="400" height="400" viewBox="0, 0, 400,400"><g id="svgg"><path id="path0" d="M156.800 101.800 L 156.800 126.800 158.400 126.800 L 160.000 126.800 160.000 130.000 L 160.000 133.200 190.000 133.200 L 220.000 133.200 220.000 123.200 L 220.000 113.200 218.400 113.200 L 216.800 113.200 216.800 111.600 L 216.800 110.000 215.000 110.000 L 213.200 110.000 213.200 108.400 L 213.200 106.800 211.600 106.800 L 210.000 106.800 210.000 105.000 L 210.000 103.200 208.400 103.200 L 206.800 103.200 206.800 105.000 L 206.800 106.800 205.000 106.800 L 203.200 106.800 203.200 108.400 L 203.200 110.000 193.200 110.000 L 183.200 110.000 183.200 108.400 L 183.200 106.800 181.600 106.800 L 180.000 106.800 180.000 105.000 L 180.000 103.200 178.400 103.200 L 176.800 103.200 176.800 105.000 L 176.800 106.800 173.400 106.800 L 170.000 106.800 170.000 108.400 L 170.000 110.000 168.400 110.000 L 166.800 110.000 166.800 113.400 L 166.800 116.800 165.000 116.800 L 163.200 116.800 163.200 121.800 L 163.200 126.800 161.600 126.800 L 160.000 126.800 160.000 101.800 L 160.000 76.800 158.400 76.800 L 156.800 76.800 156.800 101.800 M183.200 98.400 L 183.200 100.000 185.000 100.000 L 186.800 100.000 186.800 98.400 L 186.800 96.800 185.000 96.800 L 183.200 96.800 183.200 98.400 M173.200 120.000 L 173.200 123.200 171.600 123.200 L 170.000 123.200 170.000 120.000 L 170.000 116.800 171.600 116.800 L 173.200 116.800 173.200 120.000 M216.800 125.000 L 216.800 126.800 215.000 126.800 L 213.200 126.800 213.200 128.400 L 213.200 130.000 211.600 130.000 L 210.000 130.000 210.000 126.600 L 210.000 123.200 213.400 123.200 L 216.800 123.200 216.800 125.000 M166.800 163.400 L 166.800 170.000 168.400 170.000 L 170.000 170.000 170.000 171.600 L 170.000 173.200 171.600 173.200 L 173.200 173.200 173.200 175.000 L 173.200 176.800 178.200 176.800 L 183.200 176.800 183.200 171.800 L 183.200 166.800 181.600 166.800 L 180.000 166.800 180.000 165.000 L 180.000 163.200 178.400 163.200 L 176.800 163.200 176.800 161.600 L 176.800 160.000 173.400 160.000 L 170.000 160.000 170.000 158.400 L 170.000 156.800 168.400 156.800 L 166.800 156.800 166.800 163.400 M173.200 165.000 L 173.200 166.800 171.600 166.800 L 170.000 166.800 170.000 165.000 L 170.000 163.200 171.600 163.200 L 173.200 163.200 173.200 165.000 M213.200 165.000 L 213.200 166.800 211.600 166.800 L 210.000 166.800 210.000 168.400 L 210.000 170.000 208.400 170.000 L 206.800 170.000 206.800 173.400 L 206.800 176.800 208.400 176.800 L 210.000 176.800 210.000 175.000 L 210.000 173.200 211.600 173.200 L 213.200 173.200 213.200 171.600 L 213.200 170.000 216.600 170.000 L 220.000 170.000 220.000 166.600 L 220.000 163.200 216.600 163.200 L 213.200 163.200 213.200 165.000 " stroke="none" fill="#848494" fill-rule="evenodd"></path><path id="path1" d="M150.000 71.600 L 150.000 73.200 153.400 73.200 L 156.800 73.200 156.800 75.000 L 156.800 76.800 160.000 76.800 L 163.200 76.800 163.200 75.000 L 163.200 73.200 166.600 73.200 L 170.000 73.200 170.000 71.600 L 170.000 70.000 160.000 70.000 L 150.000 70.000 150.000 71.600 M156.800 150.000 L 156.800 160.000 158.400 160.000 L 160.000 160.000 160.000 161.600 L 160.000 163.200 161.600 163.200 L 163.200 163.200 163.200 165.000 L 163.200 166.800 165.000 166.800 L 166.800 166.800 166.800 161.800 L 166.800 156.800 168.400 156.800 L 170.000 156.800 170.000 158.400 L 170.000 160.000 173.400 160.000 L 176.800 160.000 176.800 161.600 L 176.800 163.200 178.400 163.200 L 180.000 163.200 180.000 165.000 L 180.000 166.800 181.600 166.800 L 183.200 166.800 183.200 171.800 L 183.200 176.800 188.200 176.800 L 193.200 176.800 193.200 168.400 L 193.200 160.000 190.000 160.000 L 186.800 160.000 186.800 158.400 L 186.800 156.800 183.400 156.800 L 180.000 156.800 180.000 153.400 L 180.000 150.000 171.600 150.000 L 163.200 150.000 163.200 145.000 L 163.200 140.000 160.000 140.000 L 156.800 140.000 156.800 150.000 M196.800 141.600 L 196.800 143.200 210.000 143.200 L 223.200 143.200 223.200 141.600 L 223.200 140.000 210.000 140.000 L 196.800 140.000 196.800 141.600 M220.000 148.400 L 220.000 150.000 216.600 150.000 L 213.200 150.000 213.200 153.400 L 213.200 156.800 210.000 156.800 L 206.800 156.800 206.800 158.400 L 206.800 160.000 203.400 160.000 L 200.000 160.000 200.000 168.400 L 200.000 176.800 203.400 176.800 L 206.800 176.800 206.800 173.400 L 206.800 170.000 208.400 170.000 L 210.000 170.000 210.000 168.400 L 210.000 166.800 211.600 166.800 L 213.200 166.800 213.200 165.000 L 213.200 163.200 216.600 163.200 L 220.000 163.200 220.000 166.600 L 220.000 170.000 221.600 170.000 L 223.200 170.000 223.200 158.400 L 223.200 146.800 221.600 146.800 L 220.000 146.800 220.000 148.400 " stroke="none" fill="#1966cd" fill-rule="evenodd"></path><path id="path2" d="M180.000 105.000 L 180.000 106.800 181.600 106.800 L 183.200 106.800 183.200 108.400 L 183.200 110.000 193.200 110.000 L 203.200 110.000 203.200 108.400 L 203.200 106.800 205.000 106.800 L 206.800 106.800 206.800 105.000 L 206.800 103.200 193.400 103.200 L 180.000 103.200 180.000 105.000 M170.000 120.000 L 170.000 123.200 171.600 123.200 L 173.200 123.200 173.200 120.000 L 173.200 116.800 171.600 116.800 L 170.000 116.800 170.000 120.000 M210.000 126.600 L 210.000 130.000 211.600 130.000 L 213.200 130.000 213.200 128.400 L 213.200 126.800 215.000 126.800 L 216.800 126.800 216.800 125.000 L 216.800 123.200 213.400 123.200 L 210.000 123.200 210.000 126.600 M163.200 145.000 L 163.200 150.000 168.200 150.000 L 173.200 150.000 173.200 148.400 L 173.200 146.800 170.000 146.800 L 166.800 146.800 166.800 145.000 L 166.800 143.200 181.800 143.200 L 196.800 143.200 196.800 141.600 L 196.800 140.000 180.000 140.000 L 163.200 140.000 163.200 145.000 M170.000 165.000 L 170.000 166.800 171.600 166.800 L 173.200 166.800 173.200 165.000 L 173.200 163.200 171.600 163.200 L 170.000 163.200 170.000 165.000 " stroke="none" fill="#7ec2e1" fill-rule="evenodd"></path><path id="path3" d="M153.200 75.000 L 153.200 76.800 155.000 76.800 L 156.800 76.800 156.800 75.000 L 156.800 73.200 155.000 73.200 L 153.200 73.200 153.200 75.000 M163.200 75.000 L 163.200 76.800 161.600 76.800 L 160.000 76.800 160.000 101.800 L 160.000 126.800 158.400 126.800 L 156.800 126.800 156.800 133.400 L 156.800 140.000 155.000 140.000 L 153.200 140.000 153.200 150.000 L 153.200 160.000 155.000 160.000 L 156.800 160.000 156.800 163.400 L 156.800 166.800 158.400 166.800 L 160.000 166.800 160.000 168.400 L 160.000 170.000 161.600 170.000 L 163.200 170.000 163.200 171.600 L 163.200 173.200 165.000 173.200 L 166.800 173.200 166.800 175.000 L 166.800 176.800 170.000 176.800 L 173.200 176.800 173.200 178.400 L 173.200 180.000 193.200 180.000 L 213.200 180.000 213.200 178.400 L 213.200 176.800 215.000 176.800 L 216.800 176.800 216.800 175.000 L 216.800 173.200 220.000 173.200 L 223.200 173.200 223.200 171.600 L 223.200 170.000 225.000 170.000 L 226.800 170.000 226.800 151.600 L 226.800 133.200 225.000 133.200 L 223.200 133.200 223.200 123.200 L 223.200 113.200 221.600 113.200 L 220.000 113.200 220.000 111.600 L 220.000 110.000 218.400 110.000 L 216.800 110.000 216.800 108.400 L 216.800 106.800 215.000 106.800 L 213.200 106.800 213.200 105.000 L 213.200 103.200 211.600 103.200 L 210.000 103.200 210.000 101.600 L 210.000 100.000 205.000 100.000 L 200.000 100.000 200.000 98.400 L 200.000 96.800 195.000 96.800 L 190.000 96.800 190.000 98.400 L 190.000 100.000 181.600 100.000 L 173.200 100.000 173.200 101.600 L 173.200 103.200 171.600 103.200 L 170.000 103.200 170.000 105.000 L 170.000 106.800 166.600 106.800 L 163.200 106.800 163.200 93.400 L 163.200 80.000 165.000 80.000 L 166.800 80.000 166.800 78.400 L 166.800 76.800 168.400 76.800 L 170.000 76.800 170.000 75.000 L 170.000 73.200 166.600 73.200 L 163.200 73.200 163.200 75.000 M210.000 105.000 L 210.000 106.800 211.600 106.800 L 213.200 106.800 213.200 108.400 L 213.200 110.000 215.000 110.000 L 216.800 110.000 216.800 111.600 L 216.800 113.200 218.400 113.200 L 220.000 113.200 220.000 123.200 L 220.000 133.200 190.000 133.200 L 160.000 133.200 160.000 130.000 L 160.000 126.800 161.600 126.800 L 163.200 126.800 163.200 121.800 L 163.200 116.800 165.000 116.800 L 166.800 116.800 166.800 113.400 L 166.800 110.000 168.400 110.000 L 170.000 110.000 170.000 108.400 L 170.000 106.800 173.400 106.800 L 176.800 106.800 176.800 105.000 L 176.800 103.200 193.400 103.200 L 210.000 103.200 210.000 105.000 M223.200 141.600 L 223.200 143.200 195.000 143.200 L 166.800 143.200 166.800 145.000 L 166.800 146.800 170.000 146.800 L 173.200 146.800 173.200 148.400 L 173.200 150.000 176.600 150.000 L 180.000 150.000 180.000 153.400 L 180.000 156.800 183.400 156.800 L 186.800 156.800 186.800 158.400 L 186.800 160.000 190.000 160.000 L 193.200 160.000 193.200 168.400 L 193.200 176.800 183.200 176.800 L 173.200 176.800 173.200 175.000 L 173.200 173.200 171.600 173.200 L 170.000 173.200 170.000 171.600 L 170.000 170.000 168.400 170.000 L 166.800 170.000 166.800 168.400 L 166.800 166.800 165.000 166.800 L 163.200 166.800 163.200 165.000 L 163.200 163.200 161.600 163.200 L 160.000 163.200 160.000 161.600 L 160.000 160.000 158.400 160.000 L 156.800 160.000 156.800 150.000 L 156.800 140.000 190.000 140.000 L 223.200 140.000 223.200 141.600 M223.200 158.400 L 223.200 170.000 218.200 170.000 L 213.200 170.000 213.200 171.600 L 213.200 173.200 211.600 173.200 L 210.000 173.200 210.000 175.000 L 210.000 176.800 205.000 176.800 L 200.000 176.800 200.000 168.400 L 200.000 160.000 203.400 160.000 L 206.800 160.000 206.800 158.400 L 206.800 156.800 210.000 156.800 L 213.200 156.800 213.200 153.400 L 213.200 150.000 216.600 150.000 L 220.000 150.000 220.000 148.400 L 220.000 146.800 221.600 146.800 L 223.200 146.800 223.200 158.400 " stroke="none" fill="#040404" fill-rule="evenodd"></path><path id="path4" d="" stroke="none" fill="#6c6824" fill-rule="evenodd"></path><path id="path5" d="" stroke="none" fill="#046c24" fill-rule="evenodd"></path><path id="path6" d="M150.000 75.000 L 150.000 76.800 151.600 76.800 L 153.200 76.800 153.200 75.000 L 153.200 73.200 151.600 73.200 L 150.000 73.200 150.000 75.000 " stroke="none" fill="#040428" fill-rule="evenodd"></path><path id="path7" d="" stroke="none" fill="#080404" fill-rule="evenodd"></path><path id="path8" d="" stroke="none" fill="#080404" fill-rule="evenodd"></path></g></svg>