<svg width="45" height="12" viewBox="0 0 45 12" fill="none" xmlns="http://www.w3.org/2000/svg">
<path d="M0.120001 11.4519V0.851547H3.90584C5.00626 0.851547 5.83915 1.10394 6.4045 1.60872C6.96985 2.11349 7.25253 2.76466 7.25253 3.56221C7.25253 4.17804 7.091 4.67777 6.76794 5.0614C6.44488 5.44504 6.07134 5.72266 5.64733 5.89429V6.00029C6.15211 6.18201 6.58622 6.47983 6.94966 6.89375C7.3131 7.29757 7.49482 7.83264 7.49482 8.49895C7.49482 9.04411 7.35853 9.54384 7.08595 9.99814C6.82346 10.4423 6.43478 10.7957 5.91991 11.0582C5.40504 11.3207 4.77406 11.4519 4.02699 11.4519H0.120001ZM1.7252 5.27341H3.70898C4.32481 5.27341 4.79425 5.15226 5.11731 4.90997C5.44037 4.65758 5.6019 4.279 5.6019 3.77422C5.6019 2.77476 4.96083 2.27502 3.67869 2.27502H1.7252V5.27341ZM1.7252 9.96785H3.81498C4.4712 9.96785 4.97597 9.82652 5.32932 9.54384C5.68266 9.26116 5.85934 8.84725 5.85934 8.30208C5.85934 7.76702 5.67257 7.35815 5.29903 7.07547C4.9255 6.7827 4.42072 6.63631 3.7847 6.63631H1.7252V9.96785ZM8.77609 11.4519L11.9411 0.851547H13.8491L17.0141 11.4519H15.2726L14.5609 8.90782H11.2293L10.5176 11.4519H8.77609ZM12.8497 3.12305L11.5928 7.62063H14.1974L12.9405 3.12305H12.8497ZM18.2045 11.4519V0.851547H19.7794L24.2164 8.62009V0.851547H25.7459V11.4519H24.171L19.734 3.68336V11.4519H18.2045ZM27.2846 11.4519V0.851547H28.8595L33.2965 8.62009V0.851547H34.826V11.4519H33.2511L28.8141 3.68336V11.4519H27.2846ZM39.3328 11.4519V7.42377L35.8347 0.851547H37.667L40.1354 5.72771L42.6038 0.851547H44.4361L40.938 7.42377V11.4519H39.3328Z" fill="black"/>
</svg>
