<svg width="262" height="56" viewBox="0 0 262 56" fill="none" xmlns="http://www.w3.org/2000/svg">
<path fill-rule="evenodd" clip-rule="evenodd" d="M251.059 0.085022H9.2973V8.37929H0.800293V48.0098H10.4796V55.3827H251.871V48.0098H261.621V8.37929H251.059V0.085022Z" fill="#CACE9E"/>
<path d="M60.58 33.439V20.5362H62.6444L65.3171 26.3609L67.9898 20.5362H70.0543V33.439H68.1926V24.2595L66.0913 28.8677H64.543L62.4416 24.278V33.439H60.58ZM72.5908 33.439V31.7063H75.3925V22.2688H72.6277V20.5362H80.1113V22.2688H77.3464V31.7063H80.1481V33.439H72.5908ZM82.8321 33.439V20.5362H84.7491L90.1498 29.9921V20.5362H92.0115V33.439H90.0945L84.6938 23.9831V33.439H82.8321ZM97.4972 33.439V22.2873H94.0319V20.5362H102.916V22.2873H99.4511V33.439H97.4972ZM115.842 33.439V20.5362H117.906L120.579 26.3609L123.252 20.5362H125.316V33.439H123.454V24.2595L121.353 28.8677H119.805L117.703 24.278V33.439H115.842ZM130.654 33.439V28.5359L126.396 20.5362H128.627L131.631 26.4715L134.636 20.5362H136.866L132.608 28.5359V33.439H130.654ZM149.238 33.439V20.5362H153.846C155.186 20.5362 156.2 20.8434 156.888 21.4578C157.576 22.0722 157.92 22.8648 157.92 23.8356C157.92 24.5852 157.723 25.1935 157.33 25.6604C156.937 26.1274 156.482 26.4653 155.966 26.6742V26.8032C156.581 27.0244 157.109 27.3869 157.551 27.8908C157.994 28.3823 158.215 29.0336 158.215 29.8446C158.215 30.5082 158.049 31.1165 157.717 31.6694C157.398 32.2101 156.925 32.6402 156.298 32.9597C155.671 33.2792 154.903 33.439 153.994 33.439H149.238ZM151.192 25.9185H153.607C154.356 25.9185 154.928 25.771 155.321 25.4761C155.714 25.1689 155.911 24.7081 155.911 24.0937C155.911 22.8771 155.131 22.2688 153.57 22.2688H151.192V25.9185ZM151.192 31.6326H153.736C154.535 31.6326 155.149 31.4605 155.579 31.1165C156.009 30.7724 156.224 30.2686 156.224 29.605C156.224 28.9537 155.997 28.456 155.542 28.112C155.088 27.7556 154.473 27.5774 153.699 27.5774H151.192V31.6326ZM159.775 33.439L163.627 20.5362H165.949L169.802 33.439H167.682L166.816 30.3423H162.761L161.894 33.439H159.775ZM164.733 23.3011L163.203 28.7755H166.373L164.843 23.3011H164.733ZM171.251 33.439V20.5362H173.168L178.569 29.9921V20.5362H180.43V33.439H178.513L173.113 23.9831V33.439H171.251ZM182.303 33.439V20.5362H184.22L189.621 29.9921V20.5362H191.483V33.439H189.566L184.165 23.9831V33.439H182.303ZM196.968 33.439V28.5359L192.71 20.5362H194.941L197.945 26.4715L200.95 20.5362H203.18L198.922 28.5359V33.439H196.968Z" fill="white"/>
</svg>
