<svg width="172" height="56" viewBox="0 0 172 56" fill="none" xmlns="http://www.w3.org/2000/svg">
<path d="M59.5006 34.0468V21.144H63.7217C64.7293 21.144 65.5588 21.3161 66.2101 21.6601C66.8736 22.0042 67.3652 22.4712 67.6847 23.061C68.0165 23.6386 68.1823 24.296 68.1823 25.0333C68.1823 25.8689 67.9673 26.6123 67.5372 27.2636C67.1194 27.9026 66.4743 28.3696 65.6018 28.6645L68.3114 34.0468H66.0442L63.5742 28.941H61.4545V34.0468H59.5006ZM61.4545 27.1715H63.6111C64.4958 27.1715 65.141 26.9749 65.5465 26.5816C65.9643 26.1884 66.1732 25.6723 66.1732 25.0333C66.1732 24.382 65.9704 23.8659 65.5649 23.485C65.1594 23.0917 64.502 22.8951 63.5926 22.8951H61.4545V27.1715ZM70.6451 34.0468V21.144H78.8845V22.8951H72.599V26.6554H78.3315V28.388H72.599V32.2957H78.8845V34.0468H70.6451ZM85.8816 34.268C84.9723 34.268 84.1736 34.1021 83.4854 33.7703C82.8096 33.4385 82.275 32.9654 81.8818 32.351C81.5008 31.7366 81.3042 31.0054 81.2919 30.1575H83.3564C83.3687 30.8088 83.5899 31.3679 84.02 31.8349C84.4623 32.2896 85.0768 32.5169 85.8632 32.5169C86.5882 32.5169 87.1535 32.351 87.559 32.0192C87.9645 31.6752 88.1673 31.2328 88.1673 30.6921C88.1673 30.2374 88.0444 29.8626 87.7986 29.5677C87.5652 29.2605 87.1965 28.9901 86.6927 28.7567C86.1889 28.5109 85.5376 28.259 84.7388 28.0009C83.6697 27.6569 82.8833 27.1838 82.3795 26.5816C81.8756 25.9672 81.6237 25.2176 81.6237 24.3328C81.6237 23.3129 81.9924 22.4896 82.7297 21.8629C83.467 21.2362 84.4808 20.9228 85.7711 20.9228C87.0245 20.9228 88.0321 21.2485 88.794 21.8997C89.5559 22.5387 89.9491 23.4297 89.9737 24.5725H87.8908C87.8908 24.2653 87.8048 23.9703 87.6327 23.6877C87.4607 23.3928 87.2149 23.1532 86.8954 22.9688C86.5759 22.7722 86.1827 22.6739 85.7158 22.6739C85.1382 22.6616 84.6528 22.8029 84.2596 23.0979C83.8664 23.3805 83.6697 23.7676 83.6697 24.2591C83.6697 24.8612 83.9094 25.3344 84.3886 25.6784C84.8679 26.0102 85.6482 26.3543 86.7295 26.7107C87.4054 26.9318 88.0014 27.2022 88.5175 27.5217C89.0459 27.8289 89.4576 28.2283 89.7525 28.7198C90.0597 29.199 90.2133 29.8135 90.2133 30.5631C90.2133 31.2512 90.0413 31.8779 89.6972 32.4432C89.3531 32.9962 88.8554 33.4385 88.2042 33.7703C87.5652 34.1021 86.791 34.268 85.8816 34.268ZM92.7498 34.0468V21.144H100.989V22.8951H94.7036V26.6554H100.436V28.388H94.7036V32.2957H100.989V34.0468H92.7498ZM106.88 34.0468V22.8951H103.415V21.144H112.3V22.8951H108.834V34.0468H106.88Z" fill="black"/>
<mask id="path-2-inside-1_2658_34302" fill="white">
<path fill-rule="evenodd" clip-rule="evenodd" d="M164.537 0.085022H5.63901V8.37929H0.0556641V48.0098H6.41733V55.3827H165.069V48.0098H171.479V8.37929H164.537V0.085022Z"/>
</mask>
<path d="M5.63901 0.085022V-2.67986H2.87412V0.085022H5.63901ZM164.537 0.085022H167.301V-2.67986H164.537V0.085022ZM5.63901 8.37929V11.1442H8.40389V8.37929H5.63901ZM0.0556641 8.37929V5.6144H-2.70922V8.37929H0.0556641ZM0.0556641 48.0098H-2.70922V50.7747H0.0556641V48.0098ZM6.41733 48.0098H9.18222V45.2449H6.41733V48.0098ZM6.41733 55.3827H3.65245V58.1476H6.41733V55.3827ZM165.069 55.3827V58.1476H167.834V55.3827H165.069ZM165.069 48.0098V45.2449H162.304V48.0098H165.069ZM171.479 48.0098V50.7747H174.243V48.0098H171.479ZM171.479 8.37929H174.243V5.6144H171.479V8.37929ZM164.537 8.37929H161.772V11.1442H164.537V8.37929ZM5.63901 2.84991H164.537V-2.67986H5.63901V2.84991ZM8.40389 8.37929V0.085022H2.87412V8.37929H8.40389ZM0.0556641 11.1442H5.63901V5.6144H0.0556641V11.1442ZM2.82055 48.0098V8.37929H-2.70922V48.0098H2.82055ZM0.0556641 50.7747H6.41733V45.2449H0.0556641V50.7747ZM3.65245 48.0098V55.3827H9.18222V48.0098H3.65245ZM165.069 52.6178H6.41733V58.1476H165.069V52.6178ZM162.304 48.0098V55.3827H167.834V48.0098H162.304ZM171.479 45.2449H165.069V50.7747H171.479V45.2449ZM168.714 8.37929V48.0098H174.243V8.37929H168.714ZM164.537 11.1442H171.479V5.6144H164.537V11.1442ZM161.772 0.085022V8.37929H167.301V0.085022H161.772Z" fill="#A9B149" mask="url(#path-2-inside-1_2658_34302)"/>
</svg>
