<svg width="551" height="108" viewBox="0 0 551 108" fill="none" xmlns="http://www.w3.org/2000/svg">
<g clip-path="url(#clip0_2658_34268)">
<path d="M193.447 101.506H138.157V96.497H85.57V90.738H55.9118V80.6366H30.064V74.8644H0.865234V32.8664H29.4019V22.0173H55.2363V17.0087H84.8809V11.2365H111.269V6.12282H167.127V0.471313H383.314C383.786 2.17673 383.314 4.03696 383.57 5.98114H438.779V11.1053H465.14V16.8644H494.258V21.873H520.606V32.7248H550.129V74.7411H521.322V80.4031H495.19C494.582 82.1453 495.001 83.8139 494.92 85.4459C494.839 87.0779 494.92 88.8095 494.92 90.6015H465.87V96.3737H413.269V101.498H357.871V106.884C343.913 107.409 248.629 107.572 193.393 107.16V101.519L193.447 101.506Z" fill="#1D1D1D" fill-opacity="0.48"/>
</g>
<defs>
<clipPath id="clip0_2658_34268">
<rect width="549.291" height="106.909" fill="white" transform="translate(0.866089 0.470825)"/>
</clipPath>
</defs>
</svg>
