<svg width="18" height="19" viewBox="0 0 18 19" fill="none" xmlns="http://www.w3.org/2000/svg">
<path d="M10.1825 9.18488L15.3585 3.01514C15.4452 2.91261 15.3723 2.75684 15.2382 2.75684H13.6647C13.572 2.75684 13.4833 2.79824 13.4222 2.86923L9.15325 7.95842L4.88432 2.86923C4.82517 2.79824 4.73644 2.75684 4.64179 2.75684H3.0683C2.93422 2.75684 2.86126 2.91261 2.94802 3.01514L8.12398 9.18488L2.94802 15.3546C2.92859 15.3775 2.91612 15.4054 2.9121 15.4352C2.90808 15.4649 2.91267 15.4951 2.92533 15.5223C2.938 15.5495 2.9582 15.5725 2.98354 15.5886C3.00888 15.6046 3.0383 15.6131 3.0683 15.6129H4.64179C4.73447 15.6129 4.8232 15.5715 4.88432 15.5005L9.15325 10.4113L13.4222 15.5005C13.4813 15.5715 13.5701 15.6129 13.6647 15.6129H15.2382C15.3723 15.6129 15.4452 15.4572 15.3585 15.3546L10.1825 9.18488Z" fill="black" fill-opacity="0.85"/>
</svg>
