<svg width="30" height="11" viewBox="0 0 30 11" fill="none" xmlns="http://www.w3.org/2000/svg">
<path d="M0.972013 10.3159V0.893379H7.0159V2.226H2.39885V5.1066H6.27556V6.35845H2.39885V10.3159H0.972013ZM7.88559 10.3159L10.6989 0.893379H12.3949L15.2082 10.3159H13.6603L13.0276 8.05451H10.0662L9.43358 10.3159H7.88559ZM11.5065 2.91249L10.3893 6.91034H12.7045L11.5873 2.91249H11.5065ZM19.2412 10.4774C18.4515 10.4774 17.7785 10.2755 17.2221 9.87171C16.6747 9.46789 16.2529 8.90254 15.9568 8.17566C15.6696 7.4398 15.526 6.58728 15.526 5.61811C15.526 4.63996 15.6696 3.78744 15.9568 3.06056C16.2529 2.32471 16.6792 1.75487 17.2356 1.35105C17.7919 0.938248 18.4605 0.73185 19.2412 0.73185C20.2553 0.73185 21.0629 1.01004 21.6642 1.56642C22.2654 2.11382 22.6154 2.85865 22.7141 3.80091H21.1392C21.0584 3.30734 20.8565 2.89903 20.5335 2.57597C20.2194 2.24394 19.7841 2.07793 19.2278 2.07793C18.5188 2.07793 17.9669 2.39201 17.5721 3.02018C17.1772 3.64835 16.9798 4.51433 16.9798 5.61811C16.9798 6.71292 17.1772 7.57441 17.5721 8.20258C17.9669 8.82177 18.5188 9.13137 19.2278 9.13137C19.8021 9.13137 20.2418 8.9833 20.5469 8.68716C20.852 8.38205 21.0495 7.98272 21.1392 7.48916H22.7141C22.5705 8.41346 22.2071 9.14483 21.6238 9.68326C21.0405 10.2127 20.2463 10.4774 19.2412 10.4774ZM23.9203 10.3159V0.893379H29.9373V2.17215H25.3472V4.91815H29.5335V6.18346H25.3472V9.03714H29.9373V10.3159H23.9203Z" fill="white"/>
</svg>
