<svg width="69" height="10" viewBox="0 0 69 10" fill="none" xmlns="http://www.w3.org/2000/svg">
<path d="M0.204479 9.78857V0.366035H1.63132V4.26966H5.75032V0.366035H7.17716V9.78857H5.75032V5.57535H1.63132V9.78857H0.204479ZM8.39683 9.78857V0.366035H14.4138V1.64481H9.82367V4.39081H14.01V5.65612H9.82367V8.5098H14.4138V9.78857H8.39683ZM15.3643 9.78857L18.1776 0.366035H19.8736L22.6869 9.78857H21.1389L20.5063 7.52716H17.5449L16.9122 9.78857H15.3643ZM18.9852 2.38515L17.868 6.383H20.1832L19.066 2.38515H18.9852ZM23.422 9.78857V0.366035H25.6834C27.2 0.366035 28.3262 0.787806 29.0621 1.63135C29.7979 2.46592 30.1658 3.61457 30.1658 5.0773C30.1658 6.54004 29.7979 7.69318 29.0621 8.53672C28.3262 9.37129 27.2 9.78857 25.6834 9.78857H23.422ZM24.8488 8.46942H25.6296C26.7244 8.46942 27.5141 8.16431 27.9987 7.55409C28.4832 6.93489 28.7255 6.1093 28.7255 5.0773C28.7255 4.04531 28.4832 3.22421 27.9987 2.61398C27.5141 1.99479 26.7244 1.68519 25.6296 1.68519H24.8488V8.46942ZM41.9066 9.9501C41.2066 9.9501 40.5919 9.75268 40.0624 9.35783C39.533 8.95401 39.1202 8.38865 38.8241 7.66177C38.5279 6.93489 38.3799 6.0734 38.3799 5.0773C38.3799 4.09916 38.5279 3.24664 38.8241 2.51976C39.1202 1.79288 39.542 1.22752 40.0894 0.823702C40.6457 0.410905 41.3098 0.204506 42.0816 0.204506C43.0148 0.204506 43.7642 0.460261 44.3295 0.97177C44.9038 1.48328 45.2538 2.20567 45.3795 3.13895H43.8315C43.7417 2.65437 43.5443 2.26849 43.2392 1.98133C42.9431 1.69416 42.5572 1.55058 42.0816 1.55058C41.3547 1.55058 40.7983 1.86467 40.4124 2.49284C40.0266 3.12101 39.8336 3.9825 39.8336 5.0773C39.8336 6.21698 40.0355 7.09193 40.4394 7.70215C40.8521 8.3034 41.3861 8.60403 42.0412 8.60403C42.4809 8.60403 42.8443 8.47391 43.1315 8.21366C43.4187 7.95342 43.6385 7.62139 43.7911 7.21757C43.9436 6.80477 44.0379 6.36954 44.0738 5.91187H42.095V4.72732H45.5141V9.78857H44.1949L44.1007 8.52326H44.0199C43.8404 8.93606 43.5892 9.27706 43.2661 9.54628C42.9431 9.8155 42.4899 9.9501 41.9066 9.9501ZM46.7337 9.78857V0.366035H52.7507V1.64481H48.1606V4.39081H52.3469V5.65612H48.1606V8.5098H52.7507V9.78857H46.7337ZM53.7012 9.78857L56.5145 0.366035H58.2105L61.0238 9.78857H59.4758L58.8432 7.52716H55.8818L55.2491 9.78857H53.7012ZM57.3221 2.38515L56.2049 6.383H58.5201L57.4029 2.38515H57.3221ZM62.0012 9.78857V0.366035H65.0837C65.8196 0.366035 66.4253 0.491669 66.9009 0.742936C67.3855 0.994204 67.7445 1.33521 67.9778 1.76596C68.2201 2.18773 68.3412 2.66783 68.3412 3.20626C68.3412 3.81648 68.1842 4.3594 67.8701 4.83501C67.565 5.30165 67.0938 5.64266 66.4567 5.85803L68.4354 9.78857H66.7798L64.976 6.05994H63.428V9.78857H62.0012ZM63.428 4.76771H65.0029C65.6491 4.76771 66.1202 4.62413 66.4163 4.33696C66.7214 4.0498 66.874 3.6729 66.874 3.20626C66.874 2.73064 66.7259 2.35374 66.4298 2.07555C66.1336 1.78839 65.6535 1.64481 64.9895 1.64481H63.428V4.76771Z" fill="white"/>
</svg>
