<svg width="334" height="44" viewBox="0 0 334 44" fill="none" xmlns="http://www.w3.org/2000/svg">
<path d="M0.480044 15.7845V1.06183H9.92362V3.14404H2.70948V7.64499H8.76683V9.601H2.70948V15.7845H0.480044ZM16.793 3.75398C16.3023 3.75398 15.8886 3.59974 15.5521 3.29127C15.2296 2.96877 15.0684 2.57616 15.0684 2.11345C15.0684 1.65074 15.2296 1.26514 15.5521 0.956664C15.8886 0.648188 16.3023 0.49395 16.793 0.49395C17.2978 0.49395 17.7114 0.648188 18.0339 0.956664C18.3704 1.26514 18.5387 1.65074 18.5387 2.11345C18.5387 2.57616 18.3704 2.96877 18.0339 3.29127C17.7114 3.59974 17.2978 3.75398 16.793 3.75398ZM12.6076 15.7845V13.8496H15.8886V7.9815C15.8886 7.51879 15.6643 7.28743 15.2156 7.28743H12.902V5.35245H15.6152C16.4845 5.35245 17.1155 5.55576 17.5081 5.96239C17.9147 6.35499 18.1181 6.98597 18.1181 7.85531V13.8496H21.3991V15.7845H12.6076ZM24.2934 15.7845V13.8496H26.8383V7.9815C26.8383 7.51879 26.614 7.28743 26.1653 7.28743H24.5037V5.35245H27.0066C27.5815 5.35245 28.0512 5.52071 28.4157 5.85723C28.7803 6.17972 28.9626 6.63543 28.9626 7.22434V7.47673H29.0678C29.222 6.69151 29.5515 6.1026 30.0563 5.71C30.5751 5.30337 31.3252 5.10006 32.3068 5.10006H33.9262V7.45569H31.6547C30.8275 7.45569 30.1895 7.74314 29.7408 8.31802C29.2921 8.89291 29.0678 9.57997 29.0678 10.3792V13.8496H32.3068V15.7845H24.2934ZM41.048 16.0369C39.6739 16.0369 38.5802 15.7144 37.767 15.0694C36.9537 14.4244 36.491 13.5691 36.3788 12.5035H38.6714C38.7555 12.9942 39.0009 13.3939 39.4075 13.7023C39.8282 14.0108 40.382 14.165 41.0691 14.165C41.7281 14.165 42.2329 14.0318 42.5834 13.7654C42.948 13.485 43.1303 13.1625 43.1303 12.7979C43.1303 12.2651 42.9129 11.9006 42.4782 11.7042C42.0576 11.5079 41.4336 11.3607 40.6064 11.2626C39.8913 11.1784 39.2392 11.0172 38.6503 10.7788C38.0755 10.5264 37.6197 10.1899 37.2832 9.76926C36.9467 9.33459 36.7784 8.79476 36.7784 8.14976C36.7784 7.23836 37.136 6.50222 37.8511 5.94136C38.5662 5.38049 39.5617 5.10006 40.8377 5.10006C42.1137 5.10006 43.1022 5.3875 43.8033 5.96239C44.5044 6.53728 44.911 7.32249 45.0232 8.31802H42.8779C42.8218 7.89737 42.6044 7.56787 42.2259 7.3295C41.8473 7.07711 41.3775 6.95091 40.8167 6.95091C40.2418 6.95091 39.7861 7.06309 39.4496 7.28743C39.1131 7.49776 38.9448 7.77819 38.9448 8.12873C38.9448 8.8859 39.758 9.34861 41.3846 9.51687C42.1557 9.601 42.8428 9.74823 43.4457 9.95856C44.0487 10.1549 44.5254 10.4703 44.8759 10.905C45.2265 11.3257 45.4018 11.9216 45.4018 12.6928C45.4158 13.3237 45.2335 13.8916 44.8549 14.3964C44.4903 14.9012 43.9786 15.3008 43.3195 15.5953C42.6745 15.8897 41.9174 16.0369 41.048 16.0369ZM54.0799 15.7845C53.0564 15.7845 52.2431 15.5392 51.6402 15.0484C51.0372 14.5436 50.7358 13.6533 50.7358 12.3773V7.24537H48.1067V5.35245H49.6631C50.3782 5.35245 50.7989 5.00191 50.9251 4.30083L51.2406 2.61823H52.9652V5.35245H57.0876V7.24537H52.9652V12.3352C52.9652 12.8821 53.0844 13.2677 53.3228 13.492C53.5752 13.7023 54.0028 13.8075 54.6058 13.8075H57.0455V15.7845H54.0799ZM77.052 16.0369C76.0845 16.0369 75.2152 15.8126 74.444 15.3639C73.6868 14.9152 73.0909 14.2842 72.6562 13.471C72.2215 12.6437 72.0042 11.6762 72.0042 10.5685C72.0042 9.46079 72.2215 8.50031 72.6562 7.68705C73.1049 6.8738 73.7078 6.24282 74.465 5.79413C75.2222 5.33142 76.0845 5.10006 77.052 5.10006C78.384 5.10006 79.4567 5.43658 80.27 6.10962C81.0972 6.76863 81.623 7.68004 81.8474 8.84384H79.5128C79.3726 8.33906 79.0851 7.93944 78.6505 7.64499C78.2298 7.35053 77.69 7.2033 77.031 7.2033C76.5542 7.2033 76.0985 7.3295 75.6638 7.58189C75.2432 7.83428 74.8997 8.21286 74.6333 8.71764C74.3809 9.2084 74.2547 9.82535 74.2547 10.5685C74.2547 11.2976 74.3809 11.9146 74.6333 12.4194C74.8997 12.9241 75.2432 13.3097 75.6638 13.5761C76.0985 13.8285 76.5542 13.9547 77.031 13.9547C77.704 13.9547 78.2438 13.8075 78.6505 13.513C79.0571 13.2186 79.3445 12.812 79.5128 12.2932H81.8474C81.567 13.4429 81.0201 14.3543 80.2069 15.0274C79.3936 15.7004 78.342 16.0369 77.052 16.0369ZM84.1107 15.7845V0.641177H86.3401V6.90885C86.6205 6.39005 87.0692 5.96239 87.6862 5.62587C88.3031 5.27533 88.9972 5.10006 89.7684 5.10006C91.0584 5.10006 92.0399 5.49266 92.7129 6.27788C93.386 7.04907 93.7225 8.16379 93.7225 9.62204V15.7845H91.4931V9.93752C91.4931 9.06818 91.2827 8.39514 90.8621 7.91841C90.4414 7.44167 89.8595 7.2033 89.1164 7.2033C88.3452 7.2033 87.6862 7.4627 87.1393 7.9815C86.6065 8.50031 86.3401 9.25046 86.3401 10.232V15.7845H84.1107ZM100.865 16.0369C99.8698 16.0369 98.9794 15.8126 98.1942 15.3639C97.409 14.9152 96.792 14.2842 96.3433 13.471C95.8947 12.6437 95.6703 11.6762 95.6703 10.5685C95.6703 9.46079 95.8947 8.50031 96.3433 7.68705C96.792 6.85977 97.409 6.22179 98.1942 5.7731C98.9794 5.3244 99.8768 5.10006 100.886 5.10006C101.896 5.10006 102.786 5.3244 103.557 5.7731C104.343 6.22179 104.953 6.85977 105.387 7.68705C105.836 8.50031 106.06 9.46079 106.06 10.5685C106.06 11.6762 105.836 12.6437 105.387 13.471C104.939 14.2842 104.322 14.9152 103.536 15.3639C102.765 15.8126 101.875 16.0369 100.865 16.0369ZM100.865 13.9127C101.398 13.9127 101.889 13.7935 102.338 13.5551C102.786 13.3167 103.144 12.9522 103.41 12.4614C103.691 11.9566 103.831 11.3257 103.831 10.5685C103.831 9.79731 103.691 9.16633 103.41 8.67558C103.144 8.18482 102.786 7.82026 102.338 7.58189C101.903 7.34352 101.419 7.22434 100.886 7.22434C100.354 7.22434 99.8628 7.34352 99.4141 7.58189C98.9654 7.82026 98.6008 8.18482 98.3204 8.67558C98.054 9.16633 97.9208 9.79731 97.9208 10.5685C97.9208 11.7183 98.2082 12.5666 98.7831 13.1134C99.372 13.6462 100.066 13.9127 100.865 13.9127ZM112.846 16.0369C111.85 16.0369 110.96 15.8126 110.174 15.3639C109.389 14.9152 108.772 14.2842 108.324 13.471C107.875 12.6437 107.651 11.6762 107.651 10.5685C107.651 9.46079 107.875 8.50031 108.324 7.68705C108.772 6.85977 109.389 6.22179 110.174 5.7731C110.96 5.3244 111.857 5.10006 112.867 5.10006C113.876 5.10006 114.767 5.3244 115.538 5.7731C116.323 6.22179 116.933 6.85977 117.368 7.68705C117.816 8.50031 118.041 9.46079 118.041 10.5685C118.041 11.6762 117.816 12.6437 117.368 13.471C116.919 14.2842 116.302 14.9152 115.517 15.3639C114.746 15.8126 113.855 16.0369 112.846 16.0369ZM112.846 13.9127C113.378 13.9127 113.869 13.7935 114.318 13.5551C114.767 13.3167 115.124 12.9522 115.391 12.4614C115.671 11.9566 115.811 11.3257 115.811 10.5685C115.811 9.79731 115.671 9.16633 115.391 8.67558C115.124 8.18482 114.767 7.82026 114.318 7.58189C113.883 7.34352 113.399 7.22434 112.867 7.22434C112.334 7.22434 111.843 7.34352 111.394 7.58189C110.946 7.82026 110.581 8.18482 110.301 8.67558C110.034 9.16633 109.901 9.79731 109.901 10.5685C109.901 11.7183 110.189 12.5666 110.763 13.1134C111.352 13.6462 112.046 13.9127 112.846 13.9127ZM124.91 16.0369C123.536 16.0369 122.442 15.7144 121.629 15.0694C120.816 14.4244 120.353 13.5691 120.241 12.5035H122.533C122.617 12.9942 122.863 13.3939 123.269 13.7023C123.69 14.0108 124.244 14.165 124.931 14.165C125.59 14.165 126.095 14.0318 126.445 13.7654C126.81 13.485 126.992 13.1625 126.992 12.7979C126.992 12.2651 126.775 11.9006 126.34 11.7042C125.92 11.5079 125.296 11.3607 124.468 11.2626C123.753 11.1784 123.101 11.0172 122.512 10.7788C121.937 10.5264 121.482 10.1899 121.145 9.76926C120.809 9.33459 120.64 8.79476 120.64 8.14976C120.64 7.23836 120.998 6.50222 121.713 5.94136C122.428 5.38049 123.424 5.10006 124.7 5.10006C125.976 5.10006 126.964 5.3875 127.665 5.96239C128.366 6.53728 128.773 7.32249 128.885 8.31802H126.74C126.684 7.89737 126.466 7.56787 126.088 7.3295C125.709 7.07711 125.24 6.95091 124.679 6.95091C124.104 6.95091 123.648 7.06309 123.312 7.28743C122.975 7.49776 122.807 7.77819 122.807 8.12873C122.807 8.8859 123.62 9.34861 125.247 9.51687C126.018 9.601 126.705 9.74823 127.308 9.95856C127.911 10.1549 128.387 10.4703 128.738 10.905C129.088 11.3257 129.264 11.9216 129.264 12.6928C129.278 13.3237 129.095 13.8916 128.717 14.3964C128.352 14.9012 127.841 15.3008 127.182 15.5953C126.537 15.8897 125.779 16.0369 124.91 16.0369ZM136.932 16.0369C135.923 16.0369 135.032 15.8126 134.261 15.3639C133.49 14.9012 132.887 14.2632 132.452 13.4499C132.018 12.6367 131.8 11.6902 131.8 10.6106C131.8 9.51687 132.011 8.55639 132.431 7.72912C132.866 6.90184 133.469 6.25684 134.24 5.79413C135.025 5.33142 135.93 5.10006 136.953 5.10006C137.963 5.10006 138.832 5.33142 139.561 5.79413C140.291 6.24282 140.851 6.84575 141.244 7.60292C141.651 8.36009 141.854 9.19438 141.854 10.1058C141.854 10.246 141.854 10.4002 141.854 10.5685C141.854 10.7227 141.847 10.898 141.833 11.0943H133.988C134.058 12.0618 134.373 12.7979 134.934 13.3027C135.495 13.7935 136.154 14.0389 136.911 14.0389C137.57 14.0389 138.089 13.9056 138.468 13.6392C138.86 13.3588 139.148 12.9802 139.33 12.5035H141.581C141.328 13.499 140.802 14.3403 140.003 15.0274C139.204 15.7004 138.18 16.0369 136.932 16.0369ZM136.932 7.03504C136.245 7.03504 135.635 7.24537 135.103 7.66602C134.57 8.07265 134.226 8.64753 134.072 9.39068H139.625C139.568 8.6896 139.295 8.12172 138.804 7.68705C138.314 7.25238 137.69 7.03504 136.932 7.03504ZM161.903 15.7845C160.879 15.7845 160.066 15.5392 159.463 15.0484C158.86 14.5436 158.558 13.6533 158.558 12.3773V7.24537H155.929V5.35245H157.486C158.201 5.35245 158.621 5.00191 158.748 4.30083L159.063 2.61823H160.788V5.35245H164.91V7.24537H160.788V12.3352C160.788 12.8821 160.907 13.2677 161.145 13.492C161.398 13.7023 161.825 13.8075 162.428 13.8075H164.868V15.7845H161.903ZM167.973 15.7845V0.641177H170.202V6.90885C170.483 6.39005 170.931 5.96239 171.548 5.62587C172.165 5.27533 172.859 5.10006 173.63 5.10006C174.92 5.10006 175.902 5.49266 176.575 6.27788C177.248 7.04907 177.584 8.16379 177.584 9.62204V15.7845H175.355V9.93752C175.355 9.06818 175.145 8.39514 174.724 7.91841C174.303 7.44167 173.722 7.2033 172.978 7.2033C172.207 7.2033 171.548 7.4627 171.001 7.9815C170.469 8.50031 170.202 9.25046 170.202 10.232V15.7845H167.973ZM184.854 16.0369C183.844 16.0369 182.954 15.8126 182.182 15.3639C181.411 14.9012 180.808 14.2632 180.374 13.4499C179.939 12.6367 179.722 11.6902 179.722 10.6106C179.722 9.51687 179.932 8.55639 180.353 7.72912C180.787 6.90184 181.39 6.25684 182.161 5.79413C182.947 5.33142 183.851 5.10006 184.875 5.10006C185.884 5.10006 186.753 5.33142 187.483 5.79413C188.212 6.24282 188.773 6.84575 189.165 7.60292C189.572 8.36009 189.775 9.19438 189.775 10.1058C189.775 10.246 189.775 10.4002 189.775 10.5685C189.775 10.7227 189.768 10.898 189.754 11.0943H181.909C181.979 12.0618 182.295 12.7979 182.855 13.3027C183.416 13.7935 184.075 14.0389 184.832 14.0389C185.491 14.0389 186.01 13.9056 186.389 13.6392C186.781 13.3588 187.069 12.9802 187.251 12.5035H189.502C189.249 13.499 188.723 14.3403 187.924 15.0274C187.125 15.7004 186.101 16.0369 184.854 16.0369ZM184.854 7.03504C184.166 7.03504 183.557 7.24537 183.024 7.66602C182.491 8.07265 182.147 8.64753 181.993 9.39068H187.546C187.49 8.6896 187.216 8.12172 186.725 7.68705C186.235 7.25238 185.611 7.03504 184.854 7.03504ZM207.363 15.7845L202.82 1.06183H205.218L208.688 12.84L212.158 1.06183H214.556L210.013 15.7845H207.363ZM220.794 16.0369C219.785 16.0369 218.894 15.8126 218.123 15.3639C217.352 14.9012 216.749 14.2632 216.314 13.4499C215.88 12.6367 215.662 11.6902 215.662 10.6106C215.662 9.51687 215.873 8.55639 216.293 7.72912C216.728 6.90184 217.331 6.25684 218.102 5.79413C218.887 5.33142 219.792 5.10006 220.815 5.10006C221.825 5.10006 222.694 5.33142 223.423 5.79413C224.153 6.24282 224.713 6.84575 225.106 7.60292C225.513 8.36009 225.716 9.19438 225.716 10.1058C225.716 10.246 225.716 10.4002 225.716 10.5685C225.716 10.7227 225.709 10.898 225.695 11.0943H217.85C217.92 12.0618 218.235 12.7979 218.796 13.3027C219.357 13.7935 220.016 14.0389 220.773 14.0389C221.432 14.0389 221.951 13.9056 222.33 13.6392C222.722 13.3588 223.01 12.9802 223.192 12.5035H225.443C225.19 13.499 224.664 14.3403 223.865 15.0274C223.066 15.7004 222.042 16.0369 220.794 16.0369ZM220.794 7.03504C220.107 7.03504 219.497 7.24537 218.965 7.66602C218.432 8.07265 218.088 8.64753 217.934 9.39068H223.487C223.43 8.6896 223.157 8.12172 222.666 7.68705C222.175 7.25238 221.552 7.03504 220.794 7.03504ZM227.517 15.7845V1.06183H232.775C234.303 1.06183 235.46 1.41237 236.245 2.11345C237.03 2.81453 237.423 3.71893 237.423 4.82664C237.423 5.68196 237.198 6.37603 236.75 6.90885C236.301 7.44167 235.782 7.82727 235.193 8.06563V8.21286C235.894 8.46525 236.497 8.87889 237.002 9.45378C237.507 10.0146 237.759 10.7578 237.759 11.6832C237.759 12.4404 237.57 13.1345 237.191 13.7654C236.827 14.3824 236.287 14.8731 235.572 15.2377C234.857 15.6023 233.981 15.7845 232.943 15.7845H227.517ZM229.746 7.2033H232.501C233.357 7.2033 234.009 7.03504 234.457 6.69852C234.906 6.34798 235.13 5.82217 235.13 5.12109C235.13 3.73295 234.24 3.03888 232.459 3.03888H229.746V7.2033ZM229.746 13.7234H232.648C233.56 13.7234 234.261 13.5271 234.752 13.1345C235.242 12.7419 235.488 12.167 235.488 11.4098C235.488 10.6666 235.228 10.0988 234.71 9.70617C234.191 9.29954 233.49 9.09622 232.606 9.09622H229.746V13.7234ZM243.682 16.0369C242.855 16.0369 242.161 15.8967 241.6 15.6163C241.039 15.3218 240.619 14.9362 240.338 14.4595C240.058 13.9687 239.917 13.4359 239.917 12.861C239.917 11.8375 240.289 11.0382 241.032 10.4633C241.789 9.88845 242.855 9.601 244.229 9.601H246.921V9.36965C246.921 7.79922 246.192 7.01401 244.734 7.01401C244.131 7.01401 243.619 7.14722 243.199 7.41363C242.792 7.66602 242.518 8.07966 242.378 8.65454H240.149C240.261 7.56086 240.731 6.69852 241.558 6.06755C242.399 5.42256 243.458 5.10006 244.734 5.10006C246.276 5.10006 247.398 5.47864 248.099 6.23581C248.8 6.99298 249.151 8.03759 249.151 9.36965V15.7845H247.258L247.069 14.2492H246.921C246.613 14.7399 246.227 15.1606 245.764 15.5111C245.302 15.8617 244.608 16.0369 243.682 16.0369ZM244.103 14.165C245.014 14.165 245.694 13.8916 246.143 13.3448C246.606 12.7839 246.858 12.0758 246.9 11.2205H244.46C243.661 11.2205 243.093 11.3537 242.757 11.6201C242.434 11.8725 242.273 12.2301 242.273 12.6928C242.273 13.1555 242.434 13.5201 242.757 13.7865C243.093 14.0389 243.542 14.165 244.103 14.165ZM251.94 15.7845V5.35245H253.875L254.064 6.90885H254.169C254.45 6.40407 254.884 5.97641 255.473 5.62587C256.062 5.27533 256.742 5.10006 257.513 5.10006C258.789 5.10006 259.75 5.48565 260.395 6.25684C261.04 7.02803 261.362 8.16379 261.362 9.6641V15.7845H259.133V9.93752C259.133 9.06818 258.951 8.39514 258.586 7.91841C258.222 7.44167 257.647 7.2033 256.861 7.2033C256.09 7.2033 255.445 7.4627 254.926 7.9815C254.422 8.50031 254.169 9.25046 254.169 10.232V15.7845H251.94ZM263.92 15.7845V5.35245H265.855L266.044 6.90885H266.15C266.43 6.40407 266.865 5.97641 267.454 5.62587C268.042 5.27533 268.723 5.10006 269.494 5.10006C270.77 5.10006 271.73 5.48565 272.375 6.25684C273.02 7.02803 273.343 8.16379 273.343 9.6641V15.7845H271.113V9.93752C271.113 9.06818 270.931 8.39514 270.566 7.91841C270.202 7.44167 269.627 7.2033 268.842 7.2033C268.071 7.2033 267.426 7.4627 266.907 7.9815C266.402 8.50031 266.15 9.25046 266.15 10.232V15.7845H263.92ZM277.267 20.4117L279.749 14.9222H279.139L275.08 5.35245H277.499L280.612 12.9872L283.914 5.35245H286.248L279.623 20.4117H277.267ZM301.228 20.4117L303.71 14.9222H303.1L299.041 5.35245H301.459L304.572 12.9872L307.874 5.35245H310.209L303.584 20.4117H301.228ZM316.51 16.0369C315.515 16.0369 314.625 15.8126 313.839 15.3639C313.054 14.9152 312.437 14.2842 311.988 13.471C311.54 12.6437 311.315 11.6762 311.315 10.5685C311.315 9.46079 311.54 8.50031 311.988 7.68705C312.437 6.85977 313.054 6.22179 313.839 5.7731C314.625 5.3244 315.522 5.10006 316.531 5.10006C317.541 5.10006 318.431 5.3244 319.203 5.7731C319.988 6.22179 320.598 6.85977 321.032 7.68705C321.481 8.50031 321.705 9.46079 321.705 10.5685C321.705 11.6762 321.481 12.6437 321.032 13.471C320.584 14.2842 319.967 14.9152 319.182 15.3639C318.41 15.8126 317.52 16.0369 316.51 16.0369ZM316.51 13.9127C317.043 13.9127 317.534 13.7935 317.983 13.5551C318.431 13.3167 318.789 12.9522 319.055 12.4614C319.336 11.9566 319.476 11.3257 319.476 10.5685C319.476 9.79731 319.336 9.16633 319.055 8.67558C318.789 8.18482 318.431 7.82026 317.983 7.58189C317.548 7.34352 317.064 7.22434 316.531 7.22434C315.999 7.22434 315.508 7.34352 315.059 7.58189C314.611 7.82026 314.246 8.18482 313.966 8.67558C313.699 9.16633 313.566 9.79731 313.566 10.5685C313.566 11.7183 313.853 12.5666 314.428 13.1134C315.017 13.6462 315.711 13.9127 316.51 13.9127ZM327.565 16.0369C326.303 16.0369 325.343 15.6513 324.684 14.8802C324.039 14.0949 323.716 12.9592 323.716 11.4729V5.35245H325.946V11.1995C325.946 12.0548 326.128 12.7278 326.493 13.2186C326.871 13.6953 327.446 13.9337 328.217 13.9337C328.988 13.9337 329.633 13.6743 330.152 13.1555C330.671 12.6367 330.93 11.8865 330.93 10.905V5.35245H333.16V15.7845H331.225L331.036 14.2281H330.93C330.65 14.7329 330.215 15.1606 329.626 15.5111C329.038 15.8617 328.35 16.0369 327.565 16.0369ZM12.8179 42.7845L10.5464 32.3524H12.7337L13.9957 39.6717L15.489 32.3524H17.8867L19.38 39.6717L20.642 32.3524H22.8293L20.5578 42.7845H18.2653L16.6878 35.2549L15.1104 42.7845H12.8179ZM28.6681 43.0369C27.6726 43.0369 26.7822 42.8126 25.997 42.3639C25.2118 41.9152 24.5948 41.2842 24.1462 40.471C23.6975 39.6437 23.4731 38.6762 23.4731 37.5685C23.4731 36.4608 23.6975 35.5003 24.1462 34.6871C24.5948 33.8598 25.2118 33.2218 25.997 32.7731C26.7822 32.3244 27.6796 32.1001 28.6892 32.1001C29.6987 32.1001 30.5891 32.3244 31.3603 32.7731C32.1455 33.2218 32.7554 33.8598 33.1901 34.6871C33.6388 35.5003 33.8632 36.4608 33.8632 37.5685C33.8632 38.6762 33.6388 39.6437 33.1901 40.471C32.7414 41.2842 32.1245 41.9152 31.3393 42.3639C30.5681 42.8126 29.6777 43.0369 28.6681 43.0369ZM28.6681 40.9127C29.201 40.9127 29.6917 40.7935 30.1404 40.5551C30.5891 40.3167 30.9467 39.9522 31.2131 39.4614C31.4935 38.9566 31.6337 38.3257 31.6337 37.5685C31.6337 36.7973 31.4935 36.1663 31.2131 35.6756C30.9467 35.1848 30.5891 34.8203 30.1404 34.5819C29.7057 34.3435 29.222 34.2243 28.6892 34.2243C28.1563 34.2243 27.6656 34.3435 27.2169 34.5819C26.7682 34.8203 26.4036 35.1848 26.1232 35.6756C25.8568 36.1663 25.7236 36.7973 25.7236 37.5685C25.7236 38.7183 26.011 39.5666 26.5859 40.1134C27.1748 40.6462 27.8689 40.9127 28.6681 40.9127ZM39.723 43.0369C38.461 43.0369 37.5006 42.6513 36.8415 41.8802C36.1965 41.0949 35.874 39.9592 35.874 38.4729V32.3524H38.1035V38.1995C38.1035 39.0548 38.2858 39.7278 38.6503 40.2186C39.0289 40.6953 39.6038 40.9337 40.375 40.9337C41.1462 40.9337 41.7912 40.6743 42.31 40.1555C42.8288 39.6367 43.0882 38.8865 43.0882 37.905V32.3524H45.3176V42.7845H43.3826L43.1933 41.2281H43.0882C42.8077 41.7329 42.3731 42.1606 41.7842 42.5111C41.1953 42.8617 40.5082 43.0369 39.723 43.0369ZM47.7492 42.7845V40.8496H51.2406V30.2702C51.2406 29.8075 51.0162 29.5762 50.5675 29.5762H48.0436V27.6412H50.9671C51.7804 27.6412 52.3973 27.8585 52.818 28.2932C53.2527 28.7138 53.47 29.3308 53.47 30.144V40.8496H56.9824V42.7845H47.7492ZM64.0411 43.0369C63.1718 43.0369 62.3936 42.8336 61.7065 42.427C61.0194 42.0063 60.4726 41.3894 60.066 40.5761C59.6734 39.7629 59.4771 38.7603 59.4771 37.5685C59.4771 36.3767 59.6804 35.3741 60.087 34.5609C60.4936 33.7476 61.0405 33.1377 61.7275 32.731C62.4286 32.3104 63.2068 32.1001 64.0621 32.1001C64.8614 32.1001 65.5204 32.2543 66.0392 32.5628C66.558 32.8572 66.9436 33.2358 67.196 33.6985V27.6412H69.4254V42.7845H67.5115L67.3222 41.2492H67.196C66.9155 41.796 66.5159 42.2307 65.9971 42.5532C65.4923 42.8757 64.8403 43.0369 64.0411 43.0369ZM64.5038 40.9127C65.3031 40.9127 65.9621 40.6322 66.4809 40.0714C67.0137 39.5105 67.2801 38.6762 67.2801 37.5685C67.2801 36.4468 67.0137 35.6125 66.4809 35.0656C65.9621 34.5048 65.3031 34.2243 64.5038 34.2243C63.7046 34.2243 63.0386 34.5048 62.5057 35.0656C61.9869 35.6265 61.7275 36.4678 61.7275 37.5895C61.7275 38.6972 61.9869 39.5315 62.5057 40.0924C63.0386 40.6392 63.7046 40.9127 64.5038 40.9127ZM83.69 42.7845V40.8496H87.1814V30.2702C87.1814 29.8075 86.9571 29.5762 86.5084 29.5762H83.9845V27.6412H86.908C87.7212 27.6412 88.3382 27.8585 88.7588 28.2932C89.1935 28.7138 89.4109 29.3308 89.4109 30.144V40.8496H92.9233V42.7845H83.69ZM100.34 30.754C99.8488 30.754 99.4351 30.5997 99.0986 30.2913C98.7761 29.9688 98.6148 29.5762 98.6148 29.1134C98.6148 28.6507 98.7761 28.2651 99.0986 27.9567C99.4351 27.6482 99.8488 27.4939 100.34 27.4939C100.844 27.4939 101.258 27.6482 101.58 27.9567C101.917 28.2651 102.085 28.6507 102.085 29.1134C102.085 29.5762 101.917 29.9688 101.58 30.2913C101.258 30.5997 100.844 30.754 100.34 30.754ZM96.1541 42.7845V40.8496H99.4351V34.9815C99.4351 34.5188 99.2108 34.2874 98.7621 34.2874H96.4485V32.3524H99.1617C100.031 32.3524 100.662 32.5558 101.055 32.9624C101.461 33.355 101.665 33.986 101.665 34.8553V40.8496H104.946V42.7845H96.1541ZM108.282 42.7845V27.6412H110.511V36.7272L114.507 32.3524H117.304L112.951 36.9796V37.1478L117.872 42.7845H115.159L110.511 37.4213V42.7845H108.282ZM124.637 43.0369C123.627 43.0369 122.737 42.8126 121.965 42.3639C121.194 41.9012 120.591 41.2632 120.157 40.4499C119.722 39.6367 119.505 38.6902 119.505 37.6106C119.505 36.5169 119.715 35.5564 120.136 34.7291C120.57 33.9018 121.173 33.2568 121.944 32.7941C122.73 32.3314 123.634 32.1001 124.658 32.1001C125.667 32.1001 126.537 32.3314 127.266 32.7941C127.995 33.2428 128.556 33.8458 128.948 34.6029C129.355 35.3601 129.558 36.1944 129.558 37.1058C129.558 37.246 129.558 37.4002 129.558 37.5685C129.558 37.7227 129.551 37.898 129.537 38.0943H121.692C121.762 39.0618 122.078 39.7979 122.639 40.3027C123.199 40.7935 123.858 41.0389 124.616 41.0389C125.275 41.0389 125.793 40.9056 126.172 40.6392C126.565 40.3588 126.852 39.9802 127.034 39.5035H129.285C129.032 40.499 128.507 41.3403 127.707 42.0274C126.908 42.7004 125.885 43.0369 124.637 43.0369ZM124.637 34.035C123.95 34.035 123.34 34.2454 122.807 34.666C122.274 35.0726 121.93 35.6475 121.776 36.3907H127.329C127.273 35.6896 126.999 35.1217 126.508 34.6871C126.018 34.2524 125.394 34.035 124.637 34.035ZM149.607 42.7845C148.583 42.7845 147.77 42.5392 147.167 42.0484C146.564 41.5436 146.263 40.6533 146.263 39.3773V34.2454H143.634V32.3524H145.19C145.905 32.3524 146.326 32.0019 146.452 31.3008L146.767 29.6182H148.492V32.3524H152.614V34.2454H148.492V39.3352C148.492 39.8821 148.611 40.2677 148.85 40.492C149.102 40.7023 149.53 40.8075 150.133 40.8075H152.572V42.7845H149.607ZM160.451 43.0369C159.456 43.0369 158.565 42.8126 157.78 42.3639C156.995 41.9152 156.378 41.2842 155.929 40.471C155.481 39.6437 155.256 38.6762 155.256 37.5685C155.256 36.4608 155.481 35.5003 155.929 34.6871C156.378 33.8598 156.995 33.2218 157.78 32.7731C158.565 32.3244 159.463 32.1001 160.472 32.1001C161.482 32.1001 162.372 32.3244 163.143 32.7731C163.929 33.2218 164.539 33.8598 164.973 34.6871C165.422 35.5003 165.646 36.4608 165.646 37.5685C165.646 38.6762 165.422 39.6437 164.973 40.471C164.525 41.2842 163.908 41.9152 163.122 42.3639C162.351 42.8126 161.461 43.0369 160.451 43.0369ZM160.451 40.9127C160.984 40.9127 161.475 40.7935 161.924 40.5551C162.372 40.3167 162.73 39.9522 162.996 39.4614C163.277 38.9566 163.417 38.3257 163.417 37.5685C163.417 36.7973 163.277 36.1663 162.996 35.6756C162.73 35.1848 162.372 34.8203 161.924 34.5819C161.489 34.3435 161.005 34.2243 160.472 34.2243C159.939 34.2243 159.449 34.3435 159 34.5819C158.551 34.8203 158.187 35.1848 157.906 35.6756C157.64 36.1663 157.507 36.7973 157.507 37.5685C157.507 38.7183 157.794 39.5666 158.369 40.1134C158.958 40.6462 159.652 40.9127 160.451 40.9127ZM183.465 43.0369C182.638 43.0369 181.944 42.8967 181.383 42.6163C180.822 42.3218 180.402 41.9362 180.121 41.4595C179.841 40.9687 179.701 40.4359 179.701 39.861C179.701 38.8375 180.072 38.0382 180.815 37.4633C181.572 36.8884 182.638 36.601 184.012 36.601H186.704V36.3696C186.704 34.7992 185.975 34.014 184.517 34.014C183.914 34.014 183.402 34.1472 182.982 34.4136C182.575 34.666 182.302 35.0797 182.161 35.6545H179.932C180.044 34.5609 180.514 33.6985 181.341 33.0676C182.182 32.4226 183.241 32.1001 184.517 32.1001C186.059 32.1001 187.181 32.4786 187.882 33.2358C188.583 33.993 188.934 35.0376 188.934 36.3696V42.7845H187.041L186.852 41.2492H186.704C186.396 41.7399 186.01 42.1606 185.548 42.5111C185.085 42.8617 184.391 43.0369 183.465 43.0369ZM183.886 41.165C184.797 41.165 185.477 40.8916 185.926 40.3448C186.389 39.7839 186.641 39.0758 186.683 38.2205H184.244C183.444 38.2205 182.876 38.3537 182.54 38.6201C182.217 38.8725 182.056 39.2301 182.056 39.6928C182.056 40.1555 182.217 40.5201 182.54 40.7865C182.876 41.0389 183.325 41.165 183.886 41.165ZM196.539 43.0369C195.572 43.0369 194.702 42.8126 193.931 42.3639C193.174 41.9152 192.578 41.2842 192.144 40.471C191.709 39.6437 191.492 38.6762 191.492 37.5685C191.492 36.4608 191.709 35.5003 192.144 34.6871C192.592 33.8738 193.195 33.2428 193.952 32.7941C194.71 32.3314 195.572 32.1001 196.539 32.1001C197.871 32.1001 198.944 32.4366 199.757 33.1096C200.585 33.7686 201.11 34.68 201.335 35.8438H199C198.86 35.3391 198.572 34.9394 198.138 34.645C197.717 34.3505 197.177 34.2033 196.518 34.2033C196.042 34.2033 195.586 34.3295 195.151 34.5819C194.731 34.8343 194.387 35.2129 194.121 35.7176C193.868 36.2084 193.742 36.8253 193.742 37.5685C193.742 38.2976 193.868 38.9146 194.121 39.4194C194.387 39.9241 194.731 40.3097 195.151 40.5761C195.586 40.8285 196.042 40.9547 196.518 40.9547C197.191 40.9547 197.731 40.8075 198.138 40.513C198.544 40.2186 198.832 39.812 199 39.2932H201.335C201.054 40.4429 200.507 41.3543 199.694 42.0274C198.881 42.7004 197.829 43.0369 196.539 43.0369ZM208.52 43.0369C207.552 43.0369 206.683 42.8126 205.912 42.3639C205.154 41.9152 204.559 41.2842 204.124 40.471C203.689 39.6437 203.472 38.6762 203.472 37.5685C203.472 36.4608 203.689 35.5003 204.124 34.6871C204.573 33.8738 205.175 33.2428 205.933 32.7941C206.69 32.3314 207.552 32.1001 208.52 32.1001C209.852 32.1001 210.924 32.4366 211.738 33.1096C212.565 33.7686 213.091 34.68 213.315 35.8438H210.98C210.84 35.3391 210.553 34.9394 210.118 34.645C209.697 34.3505 209.158 34.2033 208.499 34.2033C208.022 34.2033 207.566 34.3295 207.131 34.5819C206.711 34.8343 206.367 35.2129 206.101 35.7176C205.848 36.2084 205.722 36.8253 205.722 37.5685C205.722 38.2976 205.848 38.9146 206.101 39.4194C206.367 39.9241 206.711 40.3097 207.131 40.5761C207.566 40.8285 208.022 40.9547 208.499 40.9547C209.172 40.9547 209.711 40.8075 210.118 40.513C210.525 40.2186 210.812 39.812 210.98 39.2932H213.315C213.035 40.4429 212.488 41.3543 211.674 42.0274C210.861 42.7004 209.81 43.0369 208.52 43.0369ZM220.479 43.0369C219.469 43.0369 218.579 42.8126 217.808 42.3639C217.037 41.9012 216.434 41.2632 215.999 40.4499C215.564 39.6367 215.347 38.6902 215.347 37.6106C215.347 36.5169 215.557 35.5564 215.978 34.7291C216.413 33.9018 217.016 33.2568 217.787 32.7941C218.572 32.3314 219.476 32.1001 220.5 32.1001C221.509 32.1001 222.379 32.3314 223.108 32.7941C223.837 33.2428 224.398 33.8458 224.791 34.6029C225.197 35.3601 225.4 36.1944 225.4 37.1058C225.4 37.246 225.4 37.4002 225.4 37.5685C225.4 37.7227 225.393 37.898 225.379 38.0943H217.534C217.604 39.0618 217.92 39.7979 218.481 40.3027C219.042 40.7935 219.701 41.0389 220.458 41.0389C221.117 41.0389 221.636 40.9056 222.014 40.6392C222.407 40.3588 222.694 39.9802 222.877 39.5035H225.127C224.875 40.499 224.349 41.3403 223.55 42.0274C222.75 42.7004 221.727 43.0369 220.479 43.0369ZM220.479 34.035C219.792 34.035 219.182 34.2454 218.649 34.666C218.116 35.0726 217.773 35.6475 217.618 36.3907H223.171C223.115 35.6896 222.842 35.1217 222.351 34.6871C221.86 34.2524 221.236 34.035 220.479 34.035ZM232.417 43.0369C231.043 43.0369 229.949 42.7144 229.136 42.0694C228.323 41.4244 227.86 40.5691 227.748 39.5035H230.04C230.125 39.9942 230.37 40.3939 230.777 40.7023C231.197 41.0108 231.751 41.165 232.438 41.165C233.097 41.165 233.602 41.0318 233.952 40.7654C234.317 40.485 234.499 40.1625 234.499 39.7979C234.499 39.2651 234.282 38.9006 233.847 38.7042C233.427 38.5079 232.803 38.3607 231.975 38.2626C231.26 38.1784 230.608 38.0172 230.019 37.7788C229.445 37.5264 228.989 37.1899 228.652 36.7693C228.316 36.3346 228.148 35.7948 228.148 35.1498C228.148 34.2384 228.505 33.5022 229.22 32.9414C229.935 32.3805 230.931 32.1001 232.207 32.1001C233.483 32.1001 234.471 32.3875 235.172 32.9624C235.873 33.5373 236.28 34.3225 236.392 35.318H234.247C234.191 34.8974 233.973 34.5679 233.595 34.3295C233.216 34.0771 232.747 33.9509 232.186 33.9509C231.611 33.9509 231.155 34.0631 230.819 34.2874C230.482 34.4978 230.314 34.7782 230.314 35.1287C230.314 35.8859 231.127 36.3486 232.754 36.5169C233.525 36.601 234.212 36.7482 234.815 36.9586C235.418 37.1549 235.894 37.4703 236.245 37.905C236.596 38.3257 236.771 38.9216 236.771 39.6928C236.785 40.3237 236.603 40.8916 236.224 41.3964C235.859 41.9012 235.348 42.3008 234.689 42.5953C234.044 42.8897 233.286 43.0369 232.417 43.0369ZM244.397 43.0369C243.023 43.0369 241.93 42.7144 241.116 42.0694C240.303 41.4244 239.84 40.5691 239.728 39.5035H242.021C242.105 39.9942 242.35 40.3939 242.757 40.7023C243.177 41.0108 243.731 41.165 244.418 41.165C245.077 41.165 245.582 41.0318 245.933 40.7654C246.297 40.485 246.48 40.1625 246.48 39.7979C246.48 39.2651 246.262 38.9006 245.828 38.7042C245.407 38.5079 244.783 38.3607 243.956 38.2626C243.241 38.1784 242.589 38.0172 242 37.7788C241.425 37.5264 240.969 37.1899 240.633 36.7693C240.296 36.3346 240.128 35.7948 240.128 35.1498C240.128 34.2384 240.485 33.5022 241.2 32.9414C241.916 32.3805 242.911 32.1001 244.187 32.1001C245.463 32.1001 246.452 32.3875 247.153 32.9624C247.854 33.5373 248.26 34.3225 248.373 35.318H246.227C246.171 34.8974 245.954 34.5679 245.575 34.3295C245.197 34.0771 244.727 33.9509 244.166 33.9509C243.591 33.9509 243.135 34.0631 242.799 34.2874C242.462 34.4978 242.294 34.7782 242.294 35.1287C242.294 35.8859 243.107 36.3486 244.734 36.5169C245.505 36.601 246.192 36.7482 246.795 36.9586C247.398 37.1549 247.875 37.4703 248.225 37.905C248.576 38.3257 248.751 38.9216 248.751 39.6928C248.765 40.3237 248.583 40.8916 248.204 41.3964C247.84 41.9012 247.328 42.3008 246.669 42.5953C246.024 42.8897 245.267 43.0369 244.397 43.0369ZM256.294 43.0369C255.298 43.0369 254.408 42.8126 253.622 42.3639C252.837 41.9152 252.22 41.2842 251.772 40.471C251.323 39.6437 251.099 38.6762 251.099 37.5685C251.099 36.4608 251.323 35.5003 251.772 34.6871C252.22 33.8598 252.837 33.2218 253.622 32.7731C254.408 32.3244 255.305 32.1001 256.315 32.1001C257.324 32.1001 258.214 32.3244 258.986 32.7731C259.771 33.2218 260.381 33.8598 260.816 34.6871C261.264 35.5003 261.489 36.4608 261.489 37.5685C261.489 38.6762 261.264 39.6437 260.816 40.471C260.367 41.2842 259.75 41.9152 258.965 42.3639C258.193 42.8126 257.303 43.0369 256.294 43.0369ZM256.294 40.9127C256.826 40.9127 257.317 40.7935 257.766 40.5551C258.214 40.3167 258.572 39.9522 258.838 39.4614C259.119 38.9566 259.259 38.3257 259.259 37.5685C259.259 36.7973 259.119 36.1663 258.838 35.6756C258.572 35.1848 258.214 34.8203 257.766 34.5819C257.331 34.3435 256.847 34.2243 256.315 34.2243C255.782 34.2243 255.291 34.3435 254.842 34.5819C254.394 34.8203 254.029 35.1848 253.749 35.6756C253.482 36.1663 253.349 36.7973 253.349 37.5685C253.349 38.7183 253.636 39.5666 254.211 40.1134C254.8 40.6462 255.494 40.9127 256.294 40.9127ZM263.584 42.7845V40.8496H266.129V34.9815C266.129 34.5188 265.904 34.2874 265.455 34.2874H263.794V32.3524H266.297C266.872 32.3524 267.341 32.5207 267.706 32.8572C268.071 33.1797 268.253 33.6354 268.253 34.2243V34.4767H268.358C268.512 33.6915 268.842 33.1026 269.346 32.71C269.865 32.3034 270.615 32.1001 271.597 32.1001H273.216V34.4557H270.945C270.118 34.4557 269.48 34.7431 269.031 35.318C268.582 35.8929 268.358 36.58 268.358 37.3792V40.8496H271.597V42.7845H263.584ZM280.044 30.754C279.553 30.754 279.139 30.5997 278.803 30.2913C278.48 29.9688 278.319 29.5762 278.319 29.1134C278.319 28.6507 278.48 28.2651 278.803 27.9567C279.139 27.6482 279.553 27.4939 280.044 27.4939C280.549 27.4939 280.962 27.6482 281.285 27.9567C281.621 28.2651 281.789 28.6507 281.789 29.1134C281.789 29.5762 281.621 29.9688 281.285 30.2913C280.962 30.5997 280.549 30.754 280.044 30.754ZM275.858 42.7845V40.8496H279.139V34.9815C279.139 34.5188 278.915 34.2874 278.466 34.2874H276.153V32.3524H278.866C279.735 32.3524 280.366 32.5558 280.759 32.9624C281.166 33.355 281.369 33.986 281.369 34.8553V40.8496H284.65V42.7845H275.858ZM287.902 42.7845V40.7865L293.686 34.3926H287.986V32.3524H296.462V34.3505L290.615 40.7444H296.567V42.7845H287.902ZM304.341 43.0369C303.331 43.0369 302.441 42.8126 301.67 42.3639C300.899 41.9012 300.296 41.2632 299.861 40.4499C299.426 39.6367 299.209 38.6902 299.209 37.6106C299.209 36.5169 299.419 35.5564 299.84 34.7291C300.275 33.9018 300.878 33.2568 301.649 32.7941C302.434 32.3314 303.338 32.1001 304.362 32.1001C305.371 32.1001 306.241 32.3314 306.97 32.7941C307.699 33.2428 308.26 33.8458 308.653 34.6029C309.059 35.3601 309.262 36.1944 309.262 37.1058C309.262 37.246 309.262 37.4002 309.262 37.5685C309.262 37.7227 309.255 37.898 309.241 38.0943H301.396C301.466 39.0618 301.782 39.7979 302.343 40.3027C302.904 40.7935 303.563 41.0389 304.32 41.0389C304.979 41.0389 305.498 40.9056 305.876 40.6392C306.269 40.3588 306.556 39.9802 306.739 39.5035H308.989C308.737 40.499 308.211 41.3403 307.412 42.0274C306.612 42.7004 305.589 43.0369 304.341 43.0369ZM304.341 34.035C303.654 34.035 303.044 34.2454 302.511 34.666C301.978 35.0726 301.635 35.6475 301.48 36.3907H307.033C306.977 35.6896 306.704 35.1217 306.213 34.6871C305.722 34.2524 305.098 34.035 304.341 34.035ZM315.143 37.4213L314.807 28.0618H317.583L317.226 37.4213H315.143ZM316.216 42.9107C315.697 42.9107 315.256 42.7425 314.891 42.406C314.526 42.0554 314.344 41.6348 314.344 41.144C314.344 40.6533 314.526 40.2396 314.891 39.9031C315.256 39.5666 315.697 39.3983 316.216 39.3983C316.749 39.3983 317.19 39.5666 317.541 39.9031C317.906 40.2396 318.088 40.6533 318.088 41.144C318.088 41.6348 317.906 42.0554 317.541 42.406C317.19 42.7425 316.749 42.9107 316.216 42.9107Z" fill="black"/>
</svg>
