<svg width="359" height="75" viewBox="0 0 359 75" fill="none" xmlns="http://www.w3.org/2000/svg">
<path d="M0.91085 16.1196V1.39691H6.16896C7.69732 1.39691 8.85411 1.74745 9.63932 2.44853C10.4245 3.14961 10.8171 4.05401 10.8171 5.16172C10.8171 6.01704 10.5928 6.71111 10.1441 7.24393C9.69541 7.77675 9.17661 8.16235 8.5877 8.40072V8.54794C9.28878 8.80033 9.89171 9.21397 10.3965 9.78886C10.9013 10.3497 11.1537 11.0929 11.1537 12.0183C11.1537 12.7755 10.9644 13.4695 10.5858 14.1005C10.2212 14.7175 9.68138 15.2082 8.96628 15.5728C8.25118 15.9373 7.37482 16.1196 6.33722 16.1196H0.91085ZM3.14029 7.53839H5.89554C6.75086 7.53839 7.40287 7.37013 7.85156 7.03361C8.30025 6.68307 8.5246 6.15726 8.5246 5.45617C8.5246 4.06803 7.63422 3.37396 5.85348 3.37396H3.14029V7.53839ZM3.14029 14.0584H6.04277C6.95418 14.0584 7.65526 13.8621 8.14601 13.4695C8.63677 13.0769 8.88215 12.502 8.88215 11.7449C8.88215 11.0017 8.62275 10.4339 8.10395 10.0412C7.58515 9.63462 6.88407 9.43131 6.0007 9.43131H3.14029V14.0584ZM17.0766 16.372C16.2493 16.372 15.5552 16.2318 14.9944 15.9514C14.4335 15.6569 14.0129 15.2713 13.7324 14.7946C13.452 14.3038 13.3118 13.771 13.3118 13.1961C13.3118 12.1725 13.6834 11.3733 14.4265 10.7984C15.1837 10.2235 16.2493 9.93609 17.6234 9.93609H20.3156V9.70473C20.3156 8.13431 19.5865 7.34909 18.1282 7.34909C17.5253 7.34909 17.0135 7.4823 16.5928 7.74871C16.1862 8.0011 15.9128 8.41474 15.7726 8.98963H13.5431C13.6553 7.89594 14.125 7.03361 14.9523 6.40263C15.7936 5.75764 16.8522 5.43514 18.1282 5.43514C19.6706 5.43514 20.7923 5.81373 21.4934 6.57089C22.1945 7.32806 22.545 8.37267 22.545 9.70473V16.1196H20.6521L20.4628 14.5843H20.3156C20.0071 15.075 19.6215 15.4957 19.1588 15.8462C18.6961 16.1967 18.002 16.372 17.0766 16.372ZM17.4972 14.5001C18.4086 14.5001 19.0887 14.2267 19.5374 13.6799C20.0001 13.119 20.2525 12.4109 20.2946 11.5556H17.8548C17.0556 11.5556 16.4877 11.6888 16.1512 11.9552C15.8287 12.2076 15.6674 12.5651 15.6674 13.0279C15.6674 13.4906 15.8287 13.8551 16.1512 14.1215C16.4877 14.3739 16.9364 14.5001 17.4972 14.5001ZM30.0875 16.372C28.7133 16.372 27.6197 16.0495 26.8064 15.4045C25.9931 14.7595 25.5304 13.9042 25.4183 12.8386H27.7108C27.7949 13.3293 28.0403 13.7289 28.4469 14.0374C28.8676 14.3459 29.4214 14.5001 30.1085 14.5001C30.7675 14.5001 31.2723 14.3669 31.6228 14.1005C31.9874 13.8201 32.1697 13.4976 32.1697 13.133C32.1697 12.6002 31.9523 12.2356 31.5177 12.0393C31.097 11.843 30.4731 11.6958 29.6458 11.5977C28.9307 11.5135 28.2787 11.3523 27.6898 11.1139C27.1149 10.8615 26.6592 10.525 26.3227 10.1043C25.9861 9.66968 25.8179 9.12984 25.8179 8.48485C25.8179 7.57344 26.1754 6.8373 26.8905 6.27644C27.6056 5.71557 28.6012 5.43514 29.8771 5.43514C31.1531 5.43514 32.1416 5.72258 32.8427 6.29747C33.5438 6.87236 33.9504 7.65757 34.0626 8.65311H31.9173C31.8612 8.23246 31.6439 7.90295 31.2653 7.66458C30.8867 7.41219 30.417 7.286 29.8561 7.286C29.2812 7.286 28.8255 7.39817 28.489 7.62252C28.1525 7.83284 27.9842 8.11327 27.9842 8.46381C27.9842 9.22098 28.7975 9.6837 30.424 9.85196C31.1952 9.93609 31.8822 10.0833 32.4852 10.2936C33.0881 10.4899 33.5648 10.8054 33.9154 11.2401C34.2659 11.6607 34.4412 12.2567 34.4412 13.0279C34.4552 13.6588 34.2729 14.2267 33.8943 14.7315C33.5298 15.2363 33.018 15.6359 32.359 15.9303C31.714 16.2248 30.9568 16.372 30.0875 16.372ZM42.1098 16.372C41.1003 16.372 40.2099 16.1477 39.4387 15.699C38.6675 15.2363 38.0646 14.5983 37.6299 13.785C37.1952 12.9718 36.9779 12.0253 36.9779 10.9456C36.9779 9.85196 37.1882 8.89147 37.6089 8.0642C38.0435 7.23692 38.6465 6.59193 39.4177 6.12921C40.2029 5.6665 41.1073 5.43514 42.1308 5.43514C43.1404 5.43514 44.0097 5.6665 44.7389 6.12921C45.468 6.5779 46.0289 7.18083 46.4215 7.938C46.8281 8.69517 47.0314 9.52946 47.0314 10.4409C47.0314 10.5811 47.0314 10.7353 47.0314 10.9036C47.0314 11.0578 47.0244 11.2331 47.0104 11.4294H39.1653C39.2354 12.3969 39.5509 13.133 40.1117 13.6378C40.6726 14.1286 41.3316 14.3739 42.0888 14.3739C42.7478 14.3739 43.2666 14.2407 43.6452 13.9743C44.0378 13.6939 44.3252 13.3153 44.5075 12.8386H46.758C46.5056 13.8341 45.9798 14.6754 45.1806 15.3625C44.3813 16.0355 43.3577 16.372 42.1098 16.372ZM42.1098 7.37013C41.4228 7.37013 40.8128 7.58045 40.28 8.0011C39.7472 8.40773 39.4036 8.98262 39.2494 9.72576H44.802C44.7459 9.02468 44.4725 8.4568 43.9817 8.02213C43.4909 7.58746 42.867 7.37013 42.1098 7.37013ZM53.396 16.372C52.5267 16.372 51.7485 16.1687 51.0614 15.7621C50.3744 15.3414 49.8275 14.7245 49.4209 13.9112C49.0283 13.098 48.832 12.0954 48.832 10.9036C48.832 9.71174 49.0353 8.70919 49.4419 7.89594C49.8486 7.08268 50.3954 6.47274 51.0825 6.06611C51.7835 5.64547 52.5617 5.43514 53.4171 5.43514C54.2163 5.43514 54.8753 5.58938 55.3941 5.89785C55.9129 6.19231 56.2985 6.57089 56.5509 7.03361V0.97626H58.7803V16.1196H56.8664L56.6771 14.5843H56.5509C56.2705 15.1311 55.8708 15.5658 55.352 15.8883C54.8473 16.2108 54.1953 16.372 53.396 16.372ZM53.8587 14.2477C54.658 14.2477 55.317 13.9673 55.8358 13.4064C56.3686 12.8456 56.635 12.0113 56.635 10.9036C56.635 9.78185 56.3686 8.94756 55.8358 8.40072C55.317 7.83985 54.658 7.55942 53.8587 7.55942C53.0595 7.55942 52.3935 7.83985 51.8607 8.40072C51.3419 8.96158 51.0825 9.80288 51.0825 10.9246C51.0825 12.0323 51.3419 12.8666 51.8607 13.4275C52.3935 13.9743 53.0595 14.2477 53.8587 14.2477ZM77.9245 16.372C76.9289 16.372 76.0386 16.1477 75.2534 15.699C74.4681 15.2503 73.8512 14.6193 73.4025 13.8061C72.9538 12.9788 72.7295 12.0113 72.7295 10.9036C72.7295 9.79587 72.9538 8.83539 73.4025 8.02213C73.8512 7.19486 74.4681 6.55687 75.2534 6.10818C76.0386 5.65949 76.936 5.43514 77.9455 5.43514C78.9551 5.43514 79.8454 5.65949 80.6166 6.10818C81.4018 6.55687 82.0118 7.19486 82.4465 8.02213C82.8951 8.83539 83.1195 9.79587 83.1195 10.9036C83.1195 12.0113 82.8951 12.9788 82.4465 13.8061C81.9978 14.6193 81.3808 15.2503 80.5956 15.699C79.8244 16.1477 78.934 16.372 77.9245 16.372ZM77.9245 14.2477C78.4573 14.2477 78.9481 14.1286 79.3967 13.8902C79.8454 13.6518 80.203 13.2873 80.4694 12.7965C80.7498 12.2917 80.8901 11.6607 80.8901 10.9036C80.8901 10.1324 80.7498 9.50142 80.4694 9.01066C80.203 8.5199 79.8454 8.15534 79.3967 7.91697C78.9621 7.6786 78.4783 7.55942 77.9455 7.55942C77.4127 7.55942 76.9219 7.6786 76.4732 7.91697C76.0245 8.15534 75.66 8.5199 75.3795 9.01066C75.1131 9.50142 74.9799 10.1324 74.9799 10.9036C74.9799 12.0534 75.2674 12.9017 75.8423 13.4485C76.4312 13.9813 77.1252 14.2477 77.9245 14.2477ZM85.2355 16.1196V5.68753H87.1705L87.3598 7.24393H87.465C87.7454 6.73915 88.1801 6.31149 88.769 5.96095C89.3579 5.61041 90.038 5.43514 90.8091 5.43514C92.0851 5.43514 93.0456 5.82074 93.6906 6.59193C94.3356 7.36312 94.6581 8.49887 94.6581 9.99918V16.1196H92.4286V10.2726C92.4286 9.40326 92.2464 8.73023 91.8818 8.25349C91.5172 7.77675 90.9424 7.53839 90.1571 7.53839C89.386 7.53839 88.741 7.79779 88.2222 8.31659C87.7174 8.83539 87.465 9.58555 87.465 10.5671V16.1196H85.2355ZM110.563 20.7468L113.045 15.2573H112.435L108.376 5.68753H110.795L113.907 13.3223L117.209 5.68753H119.544L112.919 20.7468H110.563ZM125.846 16.372C124.85 16.372 123.96 16.1477 123.174 15.699C122.389 15.2503 121.772 14.6193 121.324 13.8061C120.875 12.9788 120.651 12.0113 120.651 10.9036C120.651 9.79587 120.875 8.83539 121.324 8.02213C121.772 7.19486 122.389 6.55687 123.174 6.10818C123.96 5.65949 124.857 5.43514 125.867 5.43514C126.876 5.43514 127.767 5.65949 128.538 6.10818C129.323 6.55687 129.933 7.19486 130.368 8.02213C130.816 8.83539 131.041 9.79587 131.041 10.9036C131.041 12.0113 130.816 12.9788 130.368 13.8061C129.919 14.6193 129.302 15.2503 128.517 15.699C127.746 16.1477 126.855 16.372 125.846 16.372ZM125.846 14.2477C126.378 14.2477 126.869 14.1286 127.318 13.8902C127.767 13.6518 128.124 13.2873 128.391 12.7965C128.671 12.2917 128.811 11.6607 128.811 10.9036C128.811 10.1324 128.671 9.50142 128.391 9.01066C128.124 8.5199 127.767 8.15534 127.318 7.91697C126.883 7.6786 126.399 7.55942 125.867 7.55942C125.334 7.55942 124.843 7.6786 124.394 7.91697C123.946 8.15534 123.581 8.5199 123.301 9.01066C123.034 9.50142 122.901 10.1324 122.901 10.9036C122.901 12.0534 123.189 12.9017 123.763 13.4485C124.352 13.9813 125.046 14.2477 125.846 14.2477ZM136.9 16.372C135.639 16.372 134.678 15.9864 134.019 15.2152C133.374 14.43 133.052 13.2943 133.052 11.808V5.68753H135.281V11.5346C135.281 12.3899 135.463 13.0629 135.828 13.5537C136.206 14.0304 136.781 14.2688 137.552 14.2688C138.324 14.2688 138.969 14.0094 139.487 13.4906C140.006 12.9718 140.266 12.2216 140.266 11.2401V5.68753H142.495V16.1196H140.56L140.371 14.5632H140.266C139.985 15.068 139.551 15.4957 138.962 15.8462C138.373 16.1967 137.686 16.372 136.9 16.372ZM145.116 16.1196V14.1846H147.661V8.31659C147.661 7.85387 147.437 7.62252 146.988 7.62252H145.326V5.68753H147.829C148.404 5.68753 148.874 5.85579 149.238 6.19231C149.603 6.51481 149.785 6.97051 149.785 7.55942V7.81181H149.89C150.045 7.0266 150.374 6.43769 150.879 6.04508C151.398 5.63845 152.148 5.43514 153.129 5.43514H154.749V7.79078H152.477C151.65 7.79078 151.012 8.07822 150.563 8.65311C150.115 9.22799 149.89 9.91505 149.89 10.7143V14.1846H153.129V16.1196H145.116ZM173.851 16.372C172.477 16.372 171.383 16.0495 170.57 15.4045C169.757 14.7595 169.294 13.9042 169.182 12.8386H171.474C171.558 13.3293 171.804 13.7289 172.21 14.0374C172.631 14.3459 173.185 14.5001 173.872 14.5001C174.531 14.5001 175.036 14.3669 175.386 14.1005C175.751 13.8201 175.933 13.4976 175.933 13.133C175.933 12.6002 175.716 12.2356 175.281 12.0393C174.86 11.843 174.236 11.6958 173.409 11.5977C172.694 11.5135 172.042 11.3523 171.453 11.1139C170.878 10.8615 170.423 10.525 170.086 10.1043C169.75 9.66968 169.581 9.12984 169.581 8.48485C169.581 7.57344 169.939 6.8373 170.654 6.27644C171.369 5.71557 172.365 5.43514 173.641 5.43514C174.917 5.43514 175.905 5.72258 176.606 6.29747C177.307 6.87236 177.714 7.65757 177.826 8.65311H175.681C175.625 8.23246 175.407 7.90295 175.029 7.66458C174.65 7.41219 174.18 7.286 173.62 7.286C173.045 7.286 172.589 7.39817 172.252 7.62252C171.916 7.83284 171.748 8.11327 171.748 8.46381C171.748 9.22098 172.561 9.6837 174.187 9.85196C174.959 9.93609 175.646 10.0833 176.249 10.2936C176.851 10.4899 177.328 10.8054 177.679 11.2401C178.029 11.6607 178.205 12.2567 178.205 13.0279C178.219 13.6588 178.036 14.2267 177.658 14.7315C177.293 15.2363 176.781 15.6359 176.122 15.9303C175.477 16.2248 174.72 16.372 173.851 16.372ZM186.883 16.1196C185.859 16.1196 185.046 15.8743 184.443 15.3835C183.84 14.8787 183.539 13.9883 183.539 12.7124V7.58045H180.91V5.68753H182.466C183.181 5.68753 183.602 5.33699 183.728 4.63591L184.043 2.95331H185.768V5.68753H189.89V7.58045H185.768V12.6703C185.768 13.2172 185.887 13.6027 186.126 13.8271C186.378 14.0374 186.806 14.1426 187.409 14.1426H189.848V16.1196H186.883ZM196.781 16.372C195.954 16.372 195.26 16.2318 194.699 15.9514C194.138 15.6569 193.717 15.2713 193.437 14.7946C193.156 14.3038 193.016 13.771 193.016 13.1961C193.016 12.1725 193.388 11.3733 194.131 10.7984C194.888 10.2235 195.954 9.93609 197.328 9.93609H200.02V9.70473C200.02 8.13431 199.291 7.34909 197.832 7.34909C197.23 7.34909 196.718 7.4823 196.297 7.74871C195.89 8.0011 195.617 8.41474 195.477 8.98963H193.247C193.36 7.89594 193.829 7.03361 194.657 6.40263C195.498 5.75764 196.557 5.43514 197.832 5.43514C199.375 5.43514 200.497 5.81373 201.198 6.57089C201.899 7.32806 202.249 8.37267 202.249 9.70473V16.1196H200.356L200.167 14.5843H200.02C199.711 15.075 199.326 15.4957 198.863 15.8462C198.4 16.1967 197.706 16.372 196.781 16.372ZM197.201 14.5001C198.113 14.5001 198.793 14.2267 199.242 13.6799C199.704 13.119 199.957 12.4109 199.999 11.5556H197.559C196.76 11.5556 196.192 11.6888 195.855 11.9552C195.533 12.2076 195.372 12.5651 195.372 13.0279C195.372 13.4906 195.533 13.8551 195.855 14.1215C196.192 14.3739 196.641 14.5001 197.201 14.5001ZM205.459 16.1196V0.97626H207.688V10.0623L211.685 5.68753H214.482L210.128 10.3147V10.4829L215.05 16.1196H212.337L207.688 10.7564V16.1196H205.459ZM221.478 4.08906C220.987 4.08906 220.573 3.93483 220.237 3.62635C219.914 3.30385 219.753 2.91125 219.753 2.44853C219.753 1.98582 219.914 1.60022 220.237 1.29175C220.573 0.983271 220.987 0.829033 221.478 0.829033C221.982 0.829033 222.396 0.983271 222.718 1.29175C223.055 1.60022 223.223 1.98582 223.223 2.44853C223.223 2.91125 223.055 3.30385 222.718 3.62635C222.396 3.93483 221.982 4.08906 221.478 4.08906ZM217.292 16.1196V14.1846H220.573V8.31659C220.573 7.85387 220.349 7.62252 219.9 7.62252H217.587V5.68753H220.3C221.169 5.68753 221.8 5.89084 222.193 6.29747C222.599 6.69008 222.803 7.32105 222.803 8.19039V14.1846H226.084V16.1196H217.292ZM228.999 16.1196V5.68753H230.934L231.123 7.24393H231.228C231.509 6.73915 231.944 6.31149 232.532 5.96095C233.121 5.61041 233.801 5.43514 234.573 5.43514C235.849 5.43514 236.809 5.82074 237.454 6.59193C238.099 7.36312 238.422 8.49887 238.422 9.99918V16.1196H236.192V10.2726C236.192 9.40326 236.01 8.73023 235.645 8.25349C235.281 7.77675 234.706 7.53839 233.921 7.53839C233.149 7.53839 232.504 7.79779 231.986 8.31659C231.481 8.83539 231.228 9.58555 231.228 10.5671V16.1196H228.999ZM245.417 13.112C244.772 13.112 244.176 13.0068 243.629 12.7965L243.104 13.4275C242.935 13.6378 242.886 13.8411 242.956 14.0374C243.04 14.2197 243.23 14.3108 243.524 14.3108H246.279C247.499 14.3108 248.481 14.5702 249.224 15.089C249.981 15.5938 250.36 16.372 250.36 17.4236C250.36 18.0827 250.191 18.6786 249.855 19.2114C249.532 19.7582 249.007 20.1929 248.278 20.5154C247.562 20.8379 246.616 20.9992 245.438 20.9992C243.952 20.9992 242.753 20.7187 241.842 20.1579C240.944 19.611 240.495 18.7837 240.495 17.676C240.495 17.2834 240.587 16.9189 240.769 16.5823C240.965 16.2598 241.218 15.9654 241.526 15.699C241.148 15.4185 240.916 15.0259 240.832 14.5212C240.762 14.0024 240.916 13.5046 241.295 13.0279L242.22 11.85C241.561 11.149 241.232 10.2866 241.232 9.26305C241.232 8.57599 241.393 7.94501 241.715 7.37013C242.052 6.78122 242.529 6.31149 243.146 5.96095C243.777 5.61041 244.534 5.43514 245.417 5.43514C245.992 5.43514 246.525 5.51927 247.016 5.68753H250.949V7.1598L249.119 7.26496V7.45426C249.413 8.0011 249.56 8.60403 249.56 9.26305C249.56 9.95011 249.392 10.5881 249.056 11.177C248.733 11.7659 248.263 12.2356 247.647 12.5862C247.03 12.9367 246.286 13.112 245.417 13.112ZM245.417 11.3242C246.034 11.3242 246.539 11.1419 246.931 10.7774C247.338 10.4128 247.541 9.90804 247.541 9.26305C247.541 8.6461 247.338 8.15534 246.931 7.79078C246.539 7.42621 246.034 7.24393 245.417 7.24393C244.786 7.24393 244.267 7.42621 243.861 7.79078C243.468 8.15534 243.272 8.6461 243.272 9.26305C243.272 9.90804 243.468 10.4128 243.861 10.7774C244.267 11.1419 244.786 11.3242 245.417 11.3242ZM242.599 17.5078C242.599 18.0686 242.865 18.4823 243.398 18.7487C243.945 19.0151 244.625 19.1483 245.438 19.1483C246.307 19.1483 246.995 19.0011 247.499 18.7066C248.004 18.4122 248.256 17.9985 248.256 17.4657C248.256 17.017 248.074 16.6595 247.71 16.3931C247.345 16.1407 246.728 16.0145 245.859 16.0145H243.398C242.865 16.4351 242.599 16.9329 242.599 17.5078ZM264.751 20.7468V5.68753H266.686L266.854 7.286H266.98C267.26 6.7672 267.681 6.33253 268.242 5.98198C268.817 5.61742 269.497 5.43514 270.282 5.43514C271.095 5.43514 271.838 5.64547 272.512 6.06611C273.185 6.47274 273.717 7.08268 274.11 7.89594C274.517 8.69517 274.72 9.69772 274.72 10.9036C274.72 12.0954 274.51 13.098 274.089 13.9112C273.682 14.7245 273.128 15.3414 272.427 15.7621C271.726 16.1687 270.941 16.372 270.072 16.372C269.301 16.372 268.656 16.2178 268.137 15.9093C267.618 15.6008 267.232 15.2503 266.98 14.8577V20.7468H264.751ZM269.693 14.2477C270.478 14.2477 271.13 13.9673 271.649 13.4064C272.182 12.8456 272.448 12.0043 272.448 10.8825C272.448 9.76082 272.182 8.92653 271.649 8.37968C271.13 7.83284 270.478 7.55942 269.693 7.55942C268.894 7.55942 268.228 7.83985 267.695 8.40072C267.176 8.94756 266.917 9.78185 266.917 10.9036C266.917 12.0113 267.176 12.8456 267.695 13.4064C268.228 13.9673 268.894 14.2477 269.693 14.2477ZM281.589 16.372C280.594 16.372 279.703 16.1477 278.918 15.699C278.133 15.2503 277.516 14.6193 277.067 13.8061C276.619 12.9788 276.394 12.0113 276.394 10.9036C276.394 9.79587 276.619 8.83539 277.067 8.02213C277.516 7.19486 278.133 6.55687 278.918 6.10818C279.703 5.65949 280.601 5.43514 281.61 5.43514C282.62 5.43514 283.51 5.65949 284.281 6.10818C285.067 6.55687 285.677 7.19486 286.111 8.02213C286.56 8.83539 286.784 9.79587 286.784 10.9036C286.784 12.0113 286.56 12.9788 286.111 13.8061C285.663 14.6193 285.046 15.2503 284.26 15.699C283.489 16.1477 282.599 16.372 281.589 16.372ZM281.589 14.2477C282.122 14.2477 282.613 14.1286 283.062 13.8902C283.51 13.6518 283.868 13.2873 284.134 12.7965C284.415 12.2917 284.555 11.6607 284.555 10.9036C284.555 10.1324 284.415 9.50142 284.134 9.01066C283.868 8.5199 283.51 8.15534 283.062 7.91697C282.627 7.6786 282.143 7.55942 281.61 7.55942C281.078 7.55942 280.587 7.6786 280.138 7.91697C279.689 8.15534 279.325 8.5199 279.044 9.01066C278.778 9.50142 278.645 10.1324 278.645 10.9036C278.645 12.0534 278.932 12.9017 279.507 13.4485C280.096 13.9813 280.79 14.2477 281.589 14.2477ZM293.654 16.372C292.28 16.372 291.186 16.0495 290.373 15.4045C289.559 14.7595 289.097 13.9042 288.985 12.8386H291.277C291.361 13.3293 291.607 13.7289 292.013 14.0374C292.434 14.3459 292.988 14.5001 293.675 14.5001C294.334 14.5001 294.839 14.3669 295.189 14.1005C295.554 13.8201 295.736 13.4976 295.736 13.133C295.736 12.6002 295.519 12.2356 295.084 12.0393C294.663 11.843 294.039 11.6958 293.212 11.5977C292.497 11.5135 291.845 11.3523 291.256 11.1139C290.681 10.8615 290.225 10.525 289.889 10.1043C289.552 9.66968 289.384 9.12984 289.384 8.48485C289.384 7.57344 289.742 6.8373 290.457 6.27644C291.172 5.71557 292.167 5.43514 293.443 5.43514C294.719 5.43514 295.708 5.72258 296.409 6.29747C297.11 6.87236 297.517 7.65757 297.629 8.65311H295.484C295.427 8.23246 295.21 7.90295 294.832 7.66458C294.453 7.41219 293.983 7.286 293.422 7.286C292.847 7.286 292.392 7.39817 292.055 7.62252C291.719 7.83284 291.55 8.11327 291.55 8.46381C291.55 9.22098 292.364 9.6837 293.99 9.85196C294.761 9.93609 295.448 10.0833 296.051 10.2936C296.654 10.4899 297.131 10.8054 297.482 11.2401C297.832 11.6607 298.007 12.2567 298.007 13.0279C298.021 13.6588 297.839 14.2267 297.461 14.7315C297.096 15.2363 296.584 15.6359 295.925 15.9303C295.28 16.2248 294.523 16.372 293.654 16.372ZM305.34 4.08906C304.849 4.08906 304.435 3.93483 304.099 3.62635C303.776 3.30385 303.615 2.91125 303.615 2.44853C303.615 1.98582 303.776 1.60022 304.099 1.29175C304.435 0.983271 304.849 0.829033 305.34 0.829033C305.844 0.829033 306.258 0.983271 306.58 1.29175C306.917 1.60022 307.085 1.98582 307.085 2.44853C307.085 2.91125 306.917 3.30385 306.58 3.62635C306.258 3.93483 305.844 4.08906 305.34 4.08906ZM301.154 16.1196V14.1846H304.435V8.31659C304.435 7.85387 304.211 7.62252 303.762 7.62252H301.449V5.68753H304.162C305.031 5.68753 305.662 5.89084 306.055 6.29747C306.461 6.69008 306.665 7.32105 306.665 8.19039V14.1846H309.946V16.1196H301.154ZM318.666 16.1196C317.642 16.1196 316.829 15.8743 316.226 15.3835C315.623 14.8787 315.322 13.9883 315.322 12.7124V7.58045H312.693V5.68753H314.249C314.964 5.68753 315.385 5.33699 315.511 4.63591L315.827 2.95331H317.551V5.68753H321.674V7.58045H317.551V12.6703C317.551 13.2172 317.67 13.6027 317.909 13.8271C318.161 14.0374 318.589 14.1426 319.192 14.1426H321.631V16.1196H318.666ZM329.3 4.08906C328.809 4.08906 328.396 3.93483 328.059 3.62635C327.737 3.30385 327.575 2.91125 327.575 2.44853C327.575 1.98582 327.737 1.60022 328.059 1.29175C328.396 0.983271 328.809 0.829033 329.3 0.829033C329.805 0.829033 330.219 0.983271 330.541 1.29175C330.878 1.60022 331.046 1.98582 331.046 2.44853C331.046 2.91125 330.878 3.30385 330.541 3.62635C330.219 3.93483 329.805 4.08906 329.3 4.08906ZM325.115 16.1196V14.1846H328.396V8.31659C328.396 7.85387 328.171 7.62252 327.723 7.62252H325.409V5.68753H328.122C328.992 5.68753 329.623 5.89084 330.015 6.29747C330.422 6.69008 330.625 7.32105 330.625 8.19039V14.1846H333.906V16.1196H325.115ZM341.491 16.372C340.495 16.372 339.605 16.1477 338.82 15.699C338.034 15.2503 337.417 14.6193 336.969 13.8061C336.52 12.9788 336.296 12.0113 336.296 10.9036C336.296 9.79587 336.52 8.83539 336.969 8.02213C337.417 7.19486 338.034 6.55687 338.82 6.10818C339.605 5.65949 340.502 5.43514 341.512 5.43514C342.521 5.43514 343.412 5.65949 344.183 6.10818C344.968 6.55687 345.578 7.19486 346.013 8.02213C346.461 8.83539 346.686 9.79587 346.686 10.9036C346.686 12.0113 346.461 12.9788 346.013 13.8061C345.564 14.6193 344.947 15.2503 344.162 15.699C343.391 16.1477 342.5 16.372 341.491 16.372ZM341.491 14.2477C342.024 14.2477 342.514 14.1286 342.963 13.8902C343.412 13.6518 343.769 13.2873 344.036 12.7965C344.316 12.2917 344.456 11.6607 344.456 10.9036C344.456 10.1324 344.316 9.50142 344.036 9.01066C343.769 8.5199 343.412 8.15534 342.963 7.91697C342.528 7.6786 342.045 7.55942 341.512 7.55942C340.979 7.55942 340.488 7.6786 340.039 7.91697C339.591 8.15534 339.226 8.5199 338.946 9.01066C338.679 9.50142 338.546 10.1324 338.546 10.9036C338.546 12.0534 338.834 12.9017 339.408 13.4485C339.997 13.9813 340.691 14.2477 341.491 14.2477ZM348.802 16.1196V5.68753H350.737L350.926 7.24393H351.031C351.312 6.73915 351.746 6.31149 352.335 5.96095C352.924 5.61041 353.604 5.43514 354.375 5.43514C355.651 5.43514 356.612 5.82074 357.257 6.59193C357.902 7.36312 358.224 8.49887 358.224 9.99918V16.1196H355.995V10.2726C355.995 9.40326 355.813 8.73023 355.448 8.25349C355.083 7.77675 354.509 7.53839 353.723 7.53839C352.952 7.53839 352.307 7.79779 351.788 8.31659C351.284 8.83539 351.031 9.58555 351.031 10.5671V16.1196H348.802ZM38.6815 47.7468L41.1633 42.2573H40.5534L36.4941 32.6875H38.9129L42.0257 40.3223L45.3278 32.6875H47.6624L41.0372 47.7468H38.6815ZM53.9639 43.372C52.9684 43.372 52.078 43.1477 51.2928 42.699C50.5076 42.2503 49.8906 41.6193 49.4419 40.8061C48.9932 39.9788 48.7689 39.0113 48.7689 37.9036C48.7689 36.7959 48.9932 35.8354 49.4419 35.0221C49.8906 34.1949 50.5076 33.5569 51.2928 33.1082C52.078 32.6595 52.9754 32.4351 53.9849 32.4351C54.9945 32.4351 55.8849 32.6595 56.6561 33.1082C57.4413 33.5569 58.0512 34.1949 58.4859 35.0221C58.9346 35.8354 59.1589 36.7959 59.1589 37.9036C59.1589 39.0113 58.9346 39.9788 58.4859 40.8061C58.0372 41.6193 57.4202 42.2503 56.635 42.699C55.8638 43.1477 54.9735 43.372 53.9639 43.372ZM53.9639 41.2477C54.4967 41.2477 54.9875 41.1286 55.4362 40.8902C55.8849 40.6518 56.2424 40.2873 56.5088 39.7965C56.7893 39.2917 56.9295 38.6607 56.9295 37.9036C56.9295 37.1324 56.7893 36.5014 56.5088 36.0107C56.2424 35.5199 55.8849 35.1553 55.4362 34.917C55.0015 34.6786 54.5178 34.5594 53.9849 34.5594C53.4521 34.5594 52.9613 34.6786 52.5127 34.917C52.064 35.1553 51.6994 35.5199 51.419 36.0107C51.1526 36.5014 51.0194 37.1324 51.0194 37.9036C51.0194 39.0534 51.3068 39.9017 51.8817 40.4485C52.4706 40.9813 53.1647 41.2477 53.9639 41.2477ZM65.0188 43.372C63.7568 43.372 62.7963 42.9864 62.1373 42.2152C61.4923 41.43 61.1698 40.2943 61.1698 38.808V32.6875H63.3993V38.5346C63.3993 39.3899 63.5815 40.0629 63.9461 40.5537C64.3247 41.0304 64.8996 41.2688 65.6708 41.2688C66.4419 41.2688 67.0869 41.0094 67.6057 40.4906C68.1245 39.9718 68.3839 39.2216 68.3839 38.2401V32.6875H70.6134V43.1196H68.6784L68.4891 41.5632H68.3839C68.1035 42.068 67.6688 42.4957 67.0799 42.8462C66.491 43.1967 65.804 43.372 65.0188 43.372ZM88.9583 43.372C88.131 43.372 87.4369 43.2318 86.8761 42.9514C86.3152 42.6569 85.8946 42.2713 85.6141 41.7946C85.3337 41.3038 85.1935 40.771 85.1935 40.1961C85.1935 39.1725 85.565 38.3733 86.3082 37.7984C87.0654 37.2235 88.131 36.9361 89.5051 36.9361H92.1973V36.7047C92.1973 35.1343 91.4682 34.3491 90.0099 34.3491C89.407 34.3491 88.8952 34.4823 88.4745 34.7487C88.0679 35.0011 87.7945 35.4147 87.6543 35.9896H85.4248C85.537 34.8959 86.0067 34.0336 86.834 33.4026C87.6753 32.7576 88.7339 32.4351 90.0099 32.4351C91.5523 32.4351 92.674 32.8137 93.3751 33.5709C94.0762 34.3281 94.4267 35.3727 94.4267 36.7047V43.1196H92.5338L92.3445 41.5843H92.1973C91.8888 42.075 91.5032 42.4957 91.0405 42.8462C90.5778 43.1967 89.8837 43.372 88.9583 43.372ZM89.3789 41.5001C90.2903 41.5001 90.9704 41.2267 91.4191 40.6799C91.8818 40.119 92.1342 39.4109 92.1763 38.5556H89.7365C88.9373 38.5556 88.3694 38.6888 88.0329 38.9552C87.7104 39.2076 87.5491 39.5651 87.5491 40.0279C87.5491 40.4906 87.7104 40.8551 88.0329 41.1215C88.3694 41.3739 88.8181 41.5001 89.3789 41.5001ZM97.1948 43.1196V41.1846H99.7397V35.3166C99.7397 34.8539 99.5154 34.6225 99.0667 34.6225H97.4051V32.6875H99.908C100.483 32.6875 100.953 32.8558 101.317 33.1923C101.682 33.5148 101.864 33.9705 101.864 34.5594V34.8118H101.969C102.123 34.0266 102.453 33.4377 102.958 33.0451C103.476 32.6385 104.227 32.4351 105.208 32.4351H106.828V34.7908H104.556C103.729 34.7908 103.091 35.0782 102.642 35.6531C102.194 36.228 101.969 36.9151 101.969 37.7143V41.1846H105.208V43.1196H97.1948ZM113.992 43.372C112.982 43.372 112.092 43.1477 111.32 42.699C110.549 42.2363 109.946 41.5983 109.512 40.785C109.077 39.9718 108.86 39.0253 108.86 37.9456C108.86 36.852 109.07 35.8915 109.491 35.0642C109.925 34.2369 110.528 33.5919 111.299 33.1292C112.085 32.6665 112.989 32.4351 114.013 32.4351C115.022 32.4351 115.891 32.6665 116.621 33.1292C117.35 33.5779 117.911 34.1808 118.303 34.938C118.71 35.6952 118.913 36.5295 118.913 37.4409C118.913 37.5811 118.913 37.7353 118.913 37.9036C118.913 38.0578 118.906 38.2331 118.892 38.4294H111.047C111.117 39.3969 111.433 40.133 111.993 40.6378C112.554 41.1286 113.213 41.3739 113.97 41.3739C114.629 41.3739 115.148 41.2407 115.527 40.9743C115.919 40.6939 116.207 40.3153 116.389 39.8386H118.64C118.387 40.8341 117.861 41.6754 117.062 42.3625C116.263 43.0355 115.239 43.372 113.992 43.372ZM113.992 34.3701C113.304 34.3701 112.695 34.5805 112.162 35.0011C111.629 35.4077 111.285 35.9826 111.131 36.7258H116.684C116.628 36.0247 116.354 35.4568 115.863 35.0221C115.373 34.5875 114.749 34.3701 113.992 34.3701ZM136.879 43.372C136.052 43.372 135.358 43.2318 134.797 42.9514C134.236 42.6569 133.816 42.2713 133.535 41.7946C133.255 41.3038 133.115 40.771 133.115 40.1961C133.115 39.1725 133.486 38.3733 134.229 37.7984C134.986 37.2235 136.052 36.9361 137.426 36.9361H140.118V36.7047C140.118 35.1343 139.389 34.3491 137.931 34.3491C137.328 34.3491 136.816 34.4823 136.396 34.7487C135.989 35.0011 135.716 35.4147 135.575 35.9896H133.346C133.458 34.8959 133.928 34.0336 134.755 33.4026C135.596 32.7576 136.655 32.4351 137.931 32.4351C139.473 32.4351 140.595 32.8137 141.296 33.5709C141.997 34.3281 142.348 35.3727 142.348 36.7047V43.1196H140.455L140.266 41.5843H140.118C139.81 42.075 139.424 42.4957 138.962 42.8462C138.499 43.1967 137.805 43.372 136.879 43.372ZM137.3 41.5001C138.211 41.5001 138.892 41.2267 139.34 40.6799C139.803 40.119 140.055 39.4109 140.097 38.5556H137.658C136.858 38.5556 136.291 38.6888 135.954 38.9552C135.631 39.2076 135.47 39.5651 135.47 40.0279C135.47 40.4906 135.631 40.8551 135.954 41.1215C136.291 41.3739 136.739 41.5001 137.3 41.5001ZM150.374 43.372C149.603 43.372 148.951 43.2178 148.418 42.9093C147.899 42.5868 147.5 42.1451 147.219 41.5843H147.093L146.904 43.1196H144.99V27.9763H147.219V34.0336C147.472 33.613 147.871 33.2414 148.418 32.9189C148.965 32.5964 149.617 32.4351 150.374 32.4351C151.243 32.4351 152.022 32.6455 152.709 33.0661C153.396 33.4727 153.936 34.0827 154.328 34.8959C154.735 35.7092 154.938 36.7117 154.938 37.9036C154.938 39.0954 154.735 40.098 154.328 40.9112C153.936 41.7245 153.396 42.3414 152.709 42.7621C152.022 43.1687 151.243 43.372 150.374 43.372ZM149.911 41.2477C150.711 41.2477 151.37 40.9743 151.888 40.4275C152.421 39.8666 152.688 39.0323 152.688 37.9246C152.688 36.8029 152.421 35.9616 151.888 35.4007C151.37 34.8399 150.711 34.5594 149.911 34.5594C149.112 34.5594 148.446 34.8399 147.913 35.4007C147.394 35.9476 147.135 36.7818 147.135 37.9036C147.135 39.0113 147.394 39.8456 147.913 40.4064C148.446 40.9673 149.112 41.2477 149.911 41.2477ZM156.907 43.1196V41.1846H160.398V30.6053C160.398 30.1426 160.174 29.9112 159.725 29.9112H157.201V27.9763H160.125C160.938 27.9763 161.555 28.1936 161.976 28.6283C162.41 29.0489 162.628 29.6659 162.628 30.4791V41.1846H166.14V43.1196H156.907ZM173.893 43.372C172.883 43.372 171.993 43.1477 171.222 42.699C170.451 42.2363 169.848 41.5983 169.413 40.785C168.978 39.9718 168.761 39.0253 168.761 37.9456C168.761 36.852 168.971 35.8915 169.392 35.0642C169.827 34.2369 170.43 33.5919 171.201 33.1292C171.986 32.6665 172.89 32.4351 173.914 32.4351C174.924 32.4351 175.793 32.6665 176.522 33.1292C177.251 33.5779 177.812 34.1808 178.205 34.938C178.611 35.6952 178.815 36.5295 178.815 37.4409C178.815 37.5811 178.815 37.7353 178.815 37.9036C178.815 38.0578 178.808 38.2331 178.793 38.4294H170.948C171.018 39.3969 171.334 40.133 171.895 40.6378C172.456 41.1286 173.115 41.3739 173.872 41.3739C174.531 41.3739 175.05 41.2407 175.428 40.9743C175.821 40.6939 176.108 40.3153 176.291 39.8386H178.541C178.289 40.8341 177.763 41.6754 176.964 42.3625C176.164 43.0355 175.141 43.372 173.893 43.372ZM173.893 34.3701C173.206 34.3701 172.596 34.5805 172.063 35.0011C171.53 35.4077 171.187 35.9826 171.033 36.7258H176.585C176.529 36.0247 176.256 35.4568 175.765 35.0221C175.274 34.5875 174.65 34.3701 173.893 34.3701ZM198.863 43.1196C197.839 43.1196 197.026 42.8743 196.423 42.3835C195.82 41.8787 195.519 40.9883 195.519 39.7124V34.5805H192.89V32.6875H194.446C195.161 32.6875 195.582 32.337 195.708 31.6359L196.024 29.9533H197.748V32.6875H201.871V34.5805H197.748V39.6703C197.748 40.2172 197.868 40.6027 198.106 40.8271C198.358 41.0374 198.786 41.1426 199.389 41.1426H201.829V43.1196H198.863ZM209.708 43.372C208.712 43.372 207.822 43.1477 207.036 42.699C206.251 42.2503 205.634 41.6193 205.186 40.8061C204.737 39.9788 204.513 39.0113 204.513 37.9036C204.513 36.7959 204.737 35.8354 205.186 35.0221C205.634 34.1949 206.251 33.5569 207.036 33.1082C207.822 32.6595 208.719 32.4351 209.729 32.4351C210.738 32.4351 211.629 32.6595 212.4 33.1082C213.185 33.5569 213.795 34.1949 214.23 35.0221C214.678 35.8354 214.903 36.7959 214.903 37.9036C214.903 39.0113 214.678 39.9788 214.23 40.8061C213.781 41.6193 213.164 42.2503 212.379 42.699C211.608 43.1477 210.717 43.372 209.708 43.372ZM209.708 41.2477C210.24 41.2477 210.731 41.1286 211.18 40.8902C211.629 40.6518 211.986 40.2873 212.253 39.7965C212.533 39.2917 212.673 38.6607 212.673 37.9036C212.673 37.1324 212.533 36.5014 212.253 36.0107C211.986 35.5199 211.629 35.1553 211.18 34.917C210.745 34.6786 210.261 34.5594 209.729 34.5594C209.196 34.5594 208.705 34.6786 208.256 34.917C207.808 35.1553 207.443 35.5199 207.163 36.0107C206.896 36.5014 206.763 37.1324 206.763 37.9036C206.763 39.0534 207.05 39.9017 207.625 40.4485C208.214 40.9813 208.908 41.2477 209.708 41.2477ZM233.815 43.372C232.848 43.372 231.979 43.1477 231.207 42.699C230.45 42.2503 229.854 41.6193 229.42 40.8061C228.985 39.9788 228.768 39.0113 228.768 37.9036C228.768 36.7959 228.985 35.8354 229.42 35.0221C229.868 34.2089 230.471 33.5779 231.228 33.1292C231.986 32.6665 232.848 32.4351 233.815 32.4351C235.147 32.4351 236.22 32.7717 237.033 33.4447C237.861 34.1037 238.386 35.0151 238.611 36.1789H236.276C236.136 35.6741 235.849 35.2745 235.414 34.9801C234.993 34.6856 234.453 34.5384 233.794 34.5384C233.318 34.5384 232.862 34.6646 232.427 34.917C232.007 35.1694 231.663 35.5479 231.397 36.0527C231.144 36.5435 231.018 37.1604 231.018 37.9036C231.018 38.6327 231.144 39.2497 231.397 39.7544C231.663 40.2592 232.007 40.6448 232.427 40.9112C232.862 41.1636 233.318 41.2898 233.794 41.2898C234.467 41.2898 235.007 41.1426 235.414 40.8481C235.82 40.5537 236.108 40.147 236.276 39.6282H238.611C238.33 40.778 237.784 41.6894 236.97 42.3625C236.157 43.0355 235.105 43.372 233.815 43.372ZM240.874 43.1196V27.9763H243.104V34.2439C243.384 33.7251 243.833 33.2975 244.45 32.961C245.067 32.6104 245.761 32.4351 246.532 32.4351C247.822 32.4351 248.803 32.8277 249.476 33.613C250.149 34.3841 250.486 35.4989 250.486 36.9571V43.1196H248.256V37.2726C248.256 36.4033 248.046 35.7302 247.625 35.2535C247.205 34.7768 246.623 34.5384 245.88 34.5384C245.109 34.5384 244.45 34.7978 243.903 35.3166C243.37 35.8354 243.104 36.5855 243.104 37.5671V43.1196H240.874ZM256.682 43.372C255.855 43.372 255.161 43.2318 254.6 42.9514C254.039 42.6569 253.619 42.2713 253.338 41.7946C253.058 41.3038 252.917 40.771 252.917 40.1961C252.917 39.1725 253.289 38.3733 254.032 37.7984C254.789 37.2235 255.855 36.9361 257.229 36.9361H259.921V36.7047C259.921 35.1343 259.192 34.3491 257.734 34.3491C257.131 34.3491 256.619 34.4823 256.199 34.7487C255.792 35.0011 255.518 35.4147 255.378 35.9896H253.149C253.261 34.8959 253.731 34.0336 254.558 33.4026C255.399 32.7576 256.458 32.4351 257.734 32.4351C259.276 32.4351 260.398 32.8137 261.099 33.5709C261.8 34.3281 262.151 35.3727 262.151 36.7047V43.1196H260.258L260.068 41.5843H259.921C259.613 42.075 259.227 42.4957 258.764 42.8462C258.302 43.1967 257.608 43.372 256.682 43.372ZM257.103 41.5001C258.014 41.5001 258.694 41.2267 259.143 40.6799C259.606 40.119 259.858 39.4109 259.9 38.5556H257.46C256.661 38.5556 256.093 38.6888 255.757 38.9552C255.434 39.2076 255.273 39.5651 255.273 40.0279C255.273 40.4906 255.434 40.8551 255.757 41.1215C256.093 41.3739 256.542 41.5001 257.103 41.5001ZM264.94 43.1196V32.6875H266.875L267.064 34.2439H267.169C267.45 33.7392 267.884 33.3115 268.473 32.961C269.062 32.6104 269.742 32.4351 270.513 32.4351C271.789 32.4351 272.75 32.8207 273.395 33.5919C274.04 34.3631 274.362 35.4989 274.362 36.9992V43.1196H272.133V37.2726C272.133 36.4033 271.951 35.7302 271.586 35.2535C271.221 34.7768 270.647 34.5384 269.861 34.5384C269.09 34.5384 268.445 34.7978 267.926 35.3166C267.422 35.8354 267.169 36.5855 267.169 37.5671V43.1196H264.94ZM281.358 40.112C280.713 40.112 280.117 40.0068 279.57 39.7965L279.044 40.4275C278.876 40.6378 278.827 40.8411 278.897 41.0374C278.981 41.2197 279.171 41.3108 279.465 41.3108H282.22C283.44 41.3108 284.422 41.5702 285.165 42.089C285.922 42.5938 286.301 43.372 286.301 44.4236C286.301 45.0827 286.132 45.6786 285.796 46.2114C285.473 46.7582 284.947 47.1929 284.218 47.5154C283.503 47.8379 282.557 47.9992 281.379 47.9992C279.893 47.9992 278.694 47.7187 277.782 47.1579C276.885 46.611 276.436 45.7837 276.436 44.676C276.436 44.2834 276.527 43.9189 276.71 43.5823C276.906 43.2598 277.158 42.9654 277.467 42.699C277.088 42.4185 276.857 42.0259 276.773 41.5212C276.703 41.0024 276.857 40.5046 277.236 40.0279L278.161 38.85C277.502 38.149 277.172 37.2866 277.172 36.263C277.172 35.576 277.334 34.945 277.656 34.3701C277.993 33.7812 278.469 33.3115 279.086 32.961C279.717 32.6104 280.475 32.4351 281.358 32.4351C281.933 32.4351 282.466 32.5193 282.956 32.6875H286.889V34.1598L285.06 34.265V34.4543C285.354 35.0011 285.501 35.604 285.501 36.263C285.501 36.9501 285.333 37.5881 284.997 38.177C284.674 38.7659 284.204 39.2356 283.587 39.5862C282.97 39.9367 282.227 40.112 281.358 40.112ZM281.358 38.3242C281.975 38.3242 282.48 38.1419 282.872 37.7774C283.279 37.4128 283.482 36.908 283.482 36.263C283.482 35.6461 283.279 35.1553 282.872 34.7908C282.48 34.4262 281.975 34.2439 281.358 34.2439C280.727 34.2439 280.208 34.4262 279.802 34.7908C279.409 35.1553 279.213 35.6461 279.213 36.263C279.213 36.908 279.409 37.4128 279.802 37.7774C280.208 38.1419 280.727 38.3242 281.358 38.3242ZM278.54 44.5078C278.54 45.0686 278.806 45.4823 279.339 45.7487C279.886 46.0151 280.566 46.1483 281.379 46.1483C282.248 46.1483 282.935 46.0011 283.44 45.7066C283.945 45.4122 284.197 44.9985 284.197 44.4657C284.197 44.017 284.015 43.6595 283.65 43.3931C283.286 43.1407 282.669 43.0145 281.8 43.0145H279.339C278.806 43.4351 278.54 43.9329 278.54 44.5078ZM293.696 43.372C292.686 43.372 291.796 43.1477 291.025 42.699C290.253 42.2363 289.651 41.5983 289.216 40.785C288.781 39.9718 288.564 39.0253 288.564 37.9456C288.564 36.852 288.774 35.8915 289.195 35.0642C289.629 34.2369 290.232 33.5919 291.004 33.1292C291.789 32.6665 292.693 32.4351 293.717 32.4351C294.726 32.4351 295.596 32.6665 296.325 33.1292C297.054 33.5779 297.615 34.1808 298.007 34.938C298.414 35.6952 298.617 36.5295 298.617 37.4409C298.617 37.5811 298.617 37.7353 298.617 37.9036C298.617 38.0578 298.61 38.2331 298.596 38.4294H290.751C290.821 39.3969 291.137 40.133 291.698 40.6378C292.259 41.1286 292.918 41.3739 293.675 41.3739C294.334 41.3739 294.853 41.2407 295.231 40.9743C295.624 40.6939 295.911 40.3153 296.093 39.8386H298.344C298.092 40.8341 297.566 41.6754 296.766 42.3625C295.967 43.0355 294.944 43.372 293.696 43.372ZM293.696 34.3701C293.009 34.3701 292.399 34.5805 291.866 35.0011C291.333 35.4077 290.99 35.9826 290.835 36.7258H296.388C296.332 36.0247 296.058 35.4568 295.568 35.0221C295.077 34.5875 294.453 34.3701 293.696 34.3701ZM317.635 43.372C316.668 43.372 315.791 43.1897 315.006 42.8252C314.221 42.4606 313.597 41.9278 313.134 41.2267C312.672 40.5116 312.419 39.6493 312.377 38.6397H314.607C314.649 39.4109 314.929 40.0489 315.448 40.5537C315.981 41.0584 316.71 41.3108 317.635 41.3108C318.547 41.3108 319.262 41.0865 319.781 40.6378C320.299 40.1891 320.559 39.5722 320.559 38.7869C320.559 37.9176 320.243 37.2796 319.612 36.873C318.981 36.4664 318.21 36.263 317.299 36.263H315.995V34.286H317.109C317.937 34.286 318.617 34.1177 319.15 33.7812C319.682 33.4447 319.949 32.9189 319.949 32.2038C319.949 31.5868 319.746 31.1031 319.339 30.7525C318.932 30.388 318.357 30.2057 317.614 30.2057C316.857 30.2057 316.254 30.409 315.805 30.8156C315.357 31.2223 315.104 31.7411 315.048 32.372H312.84C312.882 31.5307 313.106 30.7946 313.513 30.1636C313.92 29.5327 314.473 29.0419 315.174 28.6914C315.876 28.3268 316.689 28.1445 317.614 28.1445C318.624 28.1445 319.465 28.3198 320.138 28.6703C320.811 29.0069 321.316 29.4626 321.652 30.0374C321.989 30.6123 322.157 31.2573 322.157 31.9724C322.157 32.7016 321.94 33.3325 321.505 33.8653C321.085 34.3841 320.573 34.7627 319.97 35.0011V35.1273C320.783 35.3516 321.449 35.7723 321.968 36.3892C322.501 36.9922 322.767 37.8054 322.767 38.829C322.767 39.6563 322.564 40.4205 322.157 41.1215C321.765 41.8086 321.183 42.3554 320.412 42.7621C319.654 43.1687 318.729 43.372 317.635 43.372ZM35.047 70.372C34.2197 70.372 33.5257 70.2318 32.9648 69.9514C32.4039 69.6569 31.9833 69.2713 31.7028 68.7946C31.4224 68.3038 31.2822 67.771 31.2822 67.1961C31.2822 66.1725 31.6538 65.3733 32.3969 64.7984C33.1541 64.2235 34.2197 63.9361 35.5939 63.9361H38.286V63.7047C38.286 62.1343 37.5569 61.3491 36.0986 61.3491C35.4957 61.3491 34.9839 61.4823 34.5633 61.7487C34.1566 62.0011 33.8832 62.4147 33.743 62.9896H31.5136C31.6257 61.8959 32.0955 61.0336 32.9227 60.4026C33.764 59.7576 34.8227 59.4351 36.0986 59.4351C37.641 59.4351 38.7627 59.8137 39.4638 60.5709C40.1649 61.3281 40.5154 62.3727 40.5154 63.7047V70.1196H38.6225L38.4332 68.5843H38.286C37.9775 69.075 37.5919 69.4957 37.1292 69.8462C36.6665 70.1967 35.9724 70.372 35.047 70.372ZM35.4677 68.5001C36.3791 68.5001 37.0591 68.2267 37.5078 67.6799C37.9705 67.119 38.2229 66.4109 38.265 65.5556H35.8252C35.026 65.5556 34.4581 65.6888 34.1216 65.9552C33.7991 66.2076 33.6378 66.5651 33.6378 67.0279C33.6378 67.4906 33.7991 67.8551 34.1216 68.1215C34.4581 68.3739 34.9068 68.5001 35.4677 68.5001ZM48.121 70.372C47.1535 70.372 46.2841 70.1477 45.513 69.699C44.7558 69.2503 44.1599 68.6193 43.7252 67.8061C43.2905 66.9788 43.0732 66.0113 43.0732 64.9036C43.0732 63.7959 43.2905 62.8354 43.7252 62.0221C44.1739 61.2089 44.7768 60.5779 45.534 60.1292C46.2912 59.6665 47.1535 59.4351 48.121 59.4351C49.453 59.4351 50.5257 59.7717 51.3389 60.4447C52.1662 61.1037 52.692 62.0151 52.9164 63.1789H50.5818C50.4416 62.6741 50.1541 62.2745 49.7194 61.9801C49.2988 61.6856 48.759 61.5384 48.0999 61.5384C47.6232 61.5384 47.1675 61.6646 46.7328 61.917C46.3122 62.1694 45.9687 62.5479 45.7022 63.0527C45.4499 63.5435 45.3237 64.1604 45.3237 64.9036C45.3237 65.6327 45.4499 66.2497 45.7022 66.7544C45.9687 67.2592 46.3122 67.6448 46.7328 67.9112C47.1675 68.1636 47.6232 68.2898 48.0999 68.2898C48.773 68.2898 49.3128 68.1426 49.7194 67.8481C50.1261 67.5537 50.4135 67.147 50.5818 66.6282H52.9164C52.6359 67.778 52.0891 68.6894 51.2758 69.3625C50.4626 70.0355 49.411 70.372 48.121 70.372ZM60.1013 70.372C59.1338 70.372 58.2644 70.1477 57.4932 69.699C56.7361 69.2503 56.1402 68.6193 55.7055 67.8061C55.2708 66.9788 55.0535 66.0113 55.0535 64.9036C55.0535 63.7959 55.2708 62.8354 55.7055 62.0221C56.1542 61.2089 56.7571 60.5779 57.5143 60.1292C58.2714 59.6665 59.1338 59.4351 60.1013 59.4351C61.4333 59.4351 62.506 59.7717 63.3192 60.4447C64.1465 61.1037 64.6723 62.0151 64.8967 63.1789H62.5621C62.4218 62.6741 62.1344 62.2745 61.6997 61.9801C61.2791 61.6856 60.7392 61.5384 60.0802 61.5384C59.6035 61.5384 59.1478 61.6646 58.7131 61.917C58.2925 62.1694 57.9489 62.5479 57.6825 63.0527C57.4301 63.5435 57.3039 64.1604 57.3039 64.9036C57.3039 65.6327 57.4301 66.2497 57.6825 66.7544C57.9489 67.2592 58.2925 67.6448 58.7131 67.9112C59.1478 68.1636 59.6035 68.2898 60.0802 68.2898C60.7533 68.2898 61.2931 68.1426 61.6997 67.8481C62.1064 67.5537 62.3938 67.147 62.5621 66.6282H64.8967C64.6162 67.778 64.0694 68.6894 63.2561 69.3625C62.4429 70.0355 61.3913 70.372 60.1013 70.372ZM72.0605 70.372C71.051 70.372 70.1606 70.1477 69.3894 69.699C68.6182 69.2363 68.0153 68.5983 67.5806 67.785C67.1459 66.9718 66.9286 66.0253 66.9286 64.9456C66.9286 63.852 67.1389 62.8915 67.5596 62.0642C67.9942 61.2369 68.5972 60.5919 69.3684 60.1292C70.1536 59.6665 71.058 59.4351 72.0816 59.4351C73.0911 59.4351 73.9605 59.6665 74.6896 60.1292C75.4187 60.5779 75.9796 61.1808 76.3722 61.938C76.7788 62.6952 76.9821 63.5295 76.9821 64.4409C76.9821 64.5811 76.9821 64.7353 76.9821 64.9036C76.9821 65.0578 76.9751 65.2331 76.9611 65.4294H69.116C69.1861 66.3969 69.5016 67.133 70.0624 67.6378C70.6233 68.1286 71.2823 68.3739 72.0395 68.3739C72.6985 68.3739 73.2173 68.2407 73.5959 67.9743C73.9885 67.6939 74.2759 67.3153 74.4582 66.8386H76.7087C76.4563 67.8341 75.9305 68.6754 75.1313 69.3625C74.332 70.0355 73.3084 70.372 72.0605 70.372ZM72.0605 61.3701C71.3735 61.3701 70.7635 61.5805 70.2307 62.0011C69.6979 62.4077 69.3543 62.9826 69.2001 63.7258H74.7527C74.6966 63.0247 74.4232 62.4568 73.9324 62.0221C73.4417 61.5875 72.8177 61.3701 72.0605 61.3701ZM83.9987 70.372C82.6246 70.372 81.5309 70.0495 80.7177 69.4045C79.9044 68.7595 79.4417 67.9042 79.3295 66.8386H81.6221C81.7062 67.3293 81.9516 67.7289 82.3582 68.0374C82.7789 68.3459 83.3327 68.5001 84.0198 68.5001C84.6788 68.5001 85.1836 68.3669 85.5341 68.1005C85.8987 67.8201 86.0809 67.4976 86.0809 67.133C86.0809 66.6002 85.8636 66.2356 85.4289 66.0393C85.0083 65.843 84.3843 65.6958 83.5571 65.5977C82.8419 65.5135 82.1899 65.3523 81.601 65.1139C81.0261 64.8615 80.5704 64.525 80.2339 64.1043C79.8974 63.6697 79.7291 63.1298 79.7291 62.4848C79.7291 61.5734 80.0867 60.8373 80.8018 60.2764C81.5169 59.7156 82.5124 59.4351 83.7884 59.4351C85.0644 59.4351 86.0529 59.7226 86.754 60.2975C87.4551 60.8724 87.8617 61.6576 87.9739 62.6531H85.8286C85.7725 62.2325 85.5551 61.9029 85.1766 61.6646C84.798 61.4122 84.3282 61.286 83.7674 61.286C83.1925 61.286 82.7368 61.3982 82.4003 61.6225C82.0637 61.8328 81.8955 62.1133 81.8955 62.4638C81.8955 63.221 82.7087 63.6837 84.3353 63.852C85.1064 63.9361 85.7935 64.0833 86.3964 64.2936C86.9994 64.4899 87.4761 64.8054 87.8266 65.2401C88.1772 65.6607 88.3525 66.2567 88.3525 67.0279C88.3665 67.6588 88.1842 68.2267 87.8056 68.7315C87.441 69.2363 86.9293 69.6359 86.2702 69.9303C85.6252 70.2248 84.8681 70.372 83.9987 70.372ZM95.979 70.372C94.6049 70.372 93.5112 70.0495 92.698 69.4045C91.8847 68.7595 91.422 67.9042 91.3098 66.8386H93.6024C93.6865 67.3293 93.9319 67.7289 94.3385 68.0374C94.7591 68.3459 95.313 68.5001 96.0001 68.5001C96.6591 68.5001 97.1638 68.3669 97.5144 68.1005C97.879 67.8201 98.0612 67.4976 98.0612 67.133C98.0612 66.6002 97.8439 66.2356 97.4092 66.0393C96.9886 65.843 96.3646 65.6958 95.5373 65.5977C94.8222 65.5135 94.1702 65.3523 93.5813 65.1139C93.0064 64.8615 92.5507 64.525 92.2142 64.1043C91.8777 63.6697 91.7094 63.1298 91.7094 62.4848C91.7094 61.5734 92.067 60.8373 92.7821 60.2764C93.4972 59.7156 94.4927 59.4351 95.7687 59.4351C97.0447 59.4351 98.0332 59.7226 98.7343 60.2975C99.4354 60.8724 99.842 61.6576 99.9542 62.6531H97.8088C97.7528 62.2325 97.5354 61.9029 97.1568 61.6646C96.7783 61.4122 96.3085 61.286 95.7477 61.286C95.1728 61.286 94.7171 61.3982 94.3806 61.6225C94.044 61.8328 93.8758 62.1133 93.8758 62.4638C93.8758 63.221 94.689 63.6837 96.3155 63.852C97.0867 63.9361 97.7738 64.0833 98.3767 64.2936C98.9796 64.4899 99.4564 64.8054 99.8069 65.2401C100.157 65.6607 100.333 66.2567 100.333 67.0279C100.347 67.6588 100.164 68.2267 99.7859 68.7315C99.4213 69.2363 98.9095 69.6359 98.2505 69.9303C97.6055 70.2248 96.8484 70.372 95.979 70.372ZM107.875 70.372C106.88 70.372 105.989 70.1477 105.204 69.699C104.419 69.2503 103.802 68.6193 103.353 67.8061C102.905 66.9788 102.68 66.0113 102.68 64.9036C102.68 63.7959 102.905 62.8354 103.353 62.0221C103.802 61.1949 104.419 60.5569 105.204 60.1082C105.989 59.6595 106.887 59.4351 107.896 59.4351C108.906 59.4351 109.796 59.6595 110.567 60.1082C111.353 60.5569 111.962 61.1949 112.397 62.0221C112.846 62.8354 113.07 63.7959 113.07 64.9036C113.07 66.0113 112.846 66.9788 112.397 67.8061C111.948 68.6193 111.332 69.2503 110.546 69.699C109.775 70.1477 108.885 70.372 107.875 70.372ZM107.875 68.2477C108.408 68.2477 108.899 68.1286 109.347 67.8902C109.796 67.6518 110.154 67.2873 110.42 66.7965C110.701 66.2917 110.841 65.6607 110.841 64.9036C110.841 64.1324 110.701 63.5014 110.42 63.0107C110.154 62.5199 109.796 62.1553 109.347 61.917C108.913 61.6786 108.429 61.5594 107.896 61.5594C107.363 61.5594 106.873 61.6786 106.424 61.917C105.975 62.1553 105.611 62.5199 105.33 63.0107C105.064 63.5014 104.931 64.1324 104.931 64.9036C104.931 66.0534 105.218 66.9017 105.793 67.4485C106.382 67.9813 107.076 68.2477 107.875 68.2477ZM115.165 70.1196V68.1846H117.71V62.3166C117.71 61.8539 117.486 61.6225 117.037 61.6225H115.376V59.6875H117.878C118.453 59.6875 118.923 59.8558 119.288 60.1923C119.652 60.5148 119.834 60.9705 119.834 61.5594V61.8118H119.94C120.094 61.0266 120.423 60.4377 120.928 60.0451C121.447 59.6385 122.197 59.4351 123.179 59.4351H124.798V61.7908H122.527C121.699 61.7908 121.061 62.0782 120.613 62.6531C120.164 63.228 119.94 63.9151 119.94 64.7143V68.1846H123.179V70.1196H115.165ZM131.625 58.0891C131.135 58.0891 130.721 57.9348 130.384 57.6263C130.062 57.3039 129.901 56.9112 129.901 56.4485C129.901 55.9858 130.062 55.6002 130.384 55.2917C130.721 54.9833 131.135 54.829 131.625 54.829C132.13 54.829 132.544 54.9833 132.866 55.2917C133.203 55.6002 133.371 55.9858 133.371 56.4485C133.371 56.9112 133.203 57.3039 132.866 57.6263C132.544 57.9348 132.13 58.0891 131.625 58.0891ZM127.44 70.1196V68.1846H130.721V62.3166C130.721 61.8539 130.497 61.6225 130.048 61.6225H127.734V59.6875H130.448C131.317 59.6875 131.948 59.8908 132.341 60.2975C132.747 60.6901 132.95 61.3211 132.95 62.1904V68.1846H136.232V70.1196H127.44ZM143.942 70.372C142.933 70.372 142.042 70.1477 141.271 69.699C140.5 69.2363 139.897 68.5983 139.462 67.785C139.028 66.9718 138.81 66.0253 138.81 64.9456C138.81 63.852 139.021 62.8915 139.441 62.0642C139.876 61.2369 140.479 60.5919 141.25 60.1292C142.035 59.6665 142.94 59.4351 143.963 59.4351C144.973 59.4351 145.842 59.6665 146.571 60.1292C147.3 60.5779 147.861 61.1808 148.254 61.938C148.66 62.6952 148.864 63.5295 148.864 64.4409C148.864 64.5811 148.864 64.7353 148.864 64.9036C148.864 65.0578 148.857 65.2331 148.843 65.4294H140.998C141.068 66.3969 141.383 67.133 141.944 67.6378C142.505 68.1286 143.164 68.3739 143.921 68.3739C144.58 68.3739 145.099 68.2407 145.478 67.9743C145.87 67.6939 146.158 67.3153 146.34 66.8386H148.59C148.338 67.8341 147.812 68.6754 147.013 69.3625C146.214 70.0355 145.19 70.372 143.942 70.372ZM143.942 61.3701C143.255 61.3701 142.645 61.5805 142.112 62.0011C141.58 62.4077 141.236 62.9826 141.082 63.7258H146.634C146.578 63.0247 146.305 62.4568 145.814 62.0221C145.323 61.5875 144.699 61.3701 143.942 61.3701ZM155.88 70.372C154.506 70.372 153.413 70.0495 152.599 69.4045C151.786 68.7595 151.323 67.9042 151.211 66.8386H153.504C153.588 67.3293 153.833 67.7289 154.24 68.0374C154.661 68.3459 155.214 68.5001 155.901 68.5001C156.56 68.5001 157.065 68.3669 157.416 68.1005C157.78 67.8201 157.963 67.4976 157.963 67.133C157.963 66.6002 157.745 66.2356 157.311 66.0393C156.89 65.843 156.266 65.6958 155.439 65.5977C154.724 65.5135 154.072 65.3523 153.483 65.1139C152.908 64.8615 152.452 64.525 152.116 64.1043C151.779 63.6697 151.611 63.1298 151.611 62.4848C151.611 61.5734 151.968 60.8373 152.684 60.2764C153.399 59.7156 154.394 59.4351 155.67 59.4351C156.946 59.4351 157.935 59.7226 158.636 60.2975C159.337 60.8724 159.743 61.6576 159.856 62.6531H157.71C157.654 62.2325 157.437 61.9029 157.058 61.6646C156.68 61.4122 156.21 61.286 155.649 61.286C155.074 61.286 154.618 61.3982 154.282 61.6225C153.945 61.8328 153.777 62.1133 153.777 62.4638C153.777 63.221 154.59 63.6837 156.217 63.852C156.988 63.9361 157.675 64.0833 158.278 64.2936C158.881 64.4899 159.358 64.8054 159.708 65.2401C160.059 65.6607 160.234 66.2567 160.234 67.0279C160.248 67.6588 160.066 68.2267 159.687 68.7315C159.323 69.2363 158.811 69.6359 158.152 69.9303C157.507 70.2248 156.75 70.372 155.88 70.372ZM179.757 70.372C178.761 70.372 177.871 70.1477 177.086 69.699C176.301 69.2503 175.684 68.6193 175.235 67.8061C174.786 66.9788 174.562 66.0113 174.562 64.9036C174.562 63.7959 174.786 62.8354 175.235 62.0221C175.684 61.1949 176.301 60.5569 177.086 60.1082C177.871 59.6595 178.768 59.4351 179.778 59.4351C180.787 59.4351 181.678 59.6595 182.449 60.1082C183.234 60.5569 183.844 61.1949 184.279 62.0221C184.728 62.8354 184.952 63.7959 184.952 64.9036C184.952 66.0113 184.728 66.9788 184.279 67.8061C183.83 68.6193 183.213 69.2503 182.428 69.699C181.657 70.1477 180.766 70.372 179.757 70.372ZM179.757 68.2477C180.29 68.2477 180.78 68.1286 181.229 67.8902C181.678 67.6518 182.035 67.2873 182.302 66.7965C182.582 66.2917 182.722 65.6607 182.722 64.9036C182.722 64.1324 182.582 63.5014 182.302 63.0107C182.035 62.5199 181.678 62.1553 181.229 61.917C180.794 61.6786 180.311 61.5594 179.778 61.5594C179.245 61.5594 178.754 61.6786 178.306 61.917C177.857 62.1553 177.492 62.5199 177.212 63.0107C176.946 63.5014 176.812 64.1324 176.812 64.9036C176.812 66.0534 177.1 66.9017 177.675 67.4485C178.264 67.9813 178.958 68.2477 179.757 68.2477ZM187.068 70.1196V59.6875H189.003L189.192 61.2439H189.297C189.578 60.7392 190.013 60.3115 190.601 59.961C191.19 59.6104 191.87 59.4351 192.642 59.4351C193.918 59.4351 194.878 59.8207 195.523 60.5919C196.168 61.3631 196.491 62.4989 196.491 63.9992V70.1196H194.261V64.2726C194.261 63.4033 194.079 62.7302 193.714 62.2535C193.35 61.7768 192.775 61.5384 191.99 61.5384C191.218 61.5384 190.573 61.7978 190.055 62.3166C189.55 62.8354 189.297 63.5855 189.297 64.5671V70.1196H187.068ZM212.396 74.7468L214.877 69.2573H214.268L210.208 59.6875H212.627L215.74 67.3223L219.042 59.6875H221.376L214.751 74.7468H212.396ZM227.678 70.372C226.682 70.372 225.792 70.1477 225.007 69.699C224.222 69.2503 223.605 68.6193 223.156 67.8061C222.707 66.9788 222.483 66.0113 222.483 64.9036C222.483 63.7959 222.707 62.8354 223.156 62.0221C223.605 61.1949 224.222 60.5569 225.007 60.1082C225.792 59.6595 226.689 59.4351 227.699 59.4351C228.709 59.4351 229.599 59.6595 230.37 60.1082C231.155 60.5569 231.765 61.1949 232.2 62.0221C232.649 62.8354 232.873 63.7959 232.873 64.9036C232.873 66.0113 232.649 66.9788 232.2 67.8061C231.751 68.6193 231.134 69.2503 230.349 69.699C229.578 70.1477 228.688 70.372 227.678 70.372ZM227.678 68.2477C228.211 68.2477 228.702 68.1286 229.15 67.8902C229.599 67.6518 229.957 67.2873 230.223 66.7965C230.503 66.2917 230.644 65.6607 230.644 64.9036C230.644 64.1324 230.503 63.5014 230.223 63.0107C229.957 62.5199 229.599 62.1553 229.15 61.917C228.716 61.6786 228.232 61.5594 227.699 61.5594C227.166 61.5594 226.675 61.6786 226.227 61.917C225.778 62.1553 225.414 62.5199 225.133 63.0107C224.867 63.5014 224.733 64.1324 224.733 64.9036C224.733 66.0534 225.021 66.9017 225.596 67.4485C226.185 67.9813 226.879 68.2477 227.678 68.2477ZM238.733 70.372C237.471 70.372 236.51 69.9864 235.851 69.2152C235.206 68.43 234.884 67.2943 234.884 65.808V59.6875H237.113V65.5346C237.113 66.3899 237.296 67.0629 237.66 67.5537C238.039 68.0304 238.614 68.2688 239.385 68.2688C240.156 68.2688 240.801 68.0094 241.32 67.4906C241.839 66.9718 242.098 66.2216 242.098 65.2401V59.6875H244.327V70.1196H242.393L242.203 68.5632H242.098C241.818 69.068 241.383 69.4957 240.794 69.8462C240.205 70.1967 239.518 70.372 238.733 70.372ZM264.187 70.372C263.416 70.372 262.764 70.2178 262.231 69.9093C261.712 69.5868 261.312 69.1451 261.032 68.5843H260.906L260.716 70.1196H258.802V54.9763H261.032V61.0336C261.284 60.613 261.684 60.2414 262.231 59.9189C262.778 59.5964 263.43 59.4351 264.187 59.4351C265.056 59.4351 265.834 59.6455 266.521 60.0661C267.208 60.4727 267.748 61.0827 268.141 61.8959C268.547 62.7092 268.751 63.7117 268.751 64.9036C268.751 66.0954 268.547 67.098 268.141 67.9112C267.748 68.7245 267.208 69.3414 266.521 69.7621C265.834 70.1687 265.056 70.372 264.187 70.372ZM263.724 68.2477C264.523 68.2477 265.182 67.9743 265.701 67.4275C266.234 66.8666 266.5 66.0323 266.5 64.9246C266.5 63.8029 266.234 62.9616 265.701 62.4007C265.182 61.8399 264.523 61.5594 263.724 61.5594C262.925 61.5594 262.259 61.8399 261.726 62.4007C261.207 62.9476 260.948 63.7818 260.948 64.9036C260.948 66.0113 261.207 66.8456 261.726 67.4064C262.259 67.9673 262.925 68.2477 263.724 68.2477ZM274.653 70.372C273.825 70.372 273.131 70.2318 272.57 69.9514C272.01 69.6569 271.589 69.2713 271.309 68.7946C271.028 68.3038 270.888 67.771 270.888 67.1961C270.888 66.1725 271.259 65.3733 272.003 64.7984C272.76 64.2235 273.825 63.9361 275.2 63.9361H277.892V63.7047C277.892 62.1343 277.163 61.3491 275.704 61.3491C275.101 61.3491 274.59 61.4823 274.169 61.7487C273.762 62.0011 273.489 62.4147 273.349 62.9896H271.119C271.231 61.8959 271.701 61.0336 272.528 60.4026C273.37 59.7576 274.428 59.4351 275.704 59.4351C277.247 59.4351 278.368 59.8137 279.07 60.5709C279.771 61.3281 280.121 62.3727 280.121 63.7047V70.1196H278.228L278.039 68.5843H277.892C277.583 69.075 277.198 69.4957 276.735 69.8462C276.272 70.1967 275.578 70.372 274.653 70.372ZM275.073 68.5001C275.985 68.5001 276.665 68.2267 277.114 67.6799C277.576 67.119 277.829 66.4109 277.871 65.5556H275.431C274.632 65.5556 274.064 65.6888 273.727 65.9552C273.405 66.2076 273.244 66.5651 273.244 67.0279C273.244 67.4906 273.405 67.8551 273.727 68.1215C274.064 68.3739 274.512 68.5001 275.073 68.5001ZM282.91 70.1196V59.6875H284.845L285.035 61.2439H285.14C285.42 60.7392 285.855 60.3115 286.444 59.961C287.033 59.6104 287.713 59.4351 288.484 59.4351C289.76 59.4351 290.72 59.8207 291.365 60.5919C292.01 61.3631 292.333 62.4989 292.333 63.9992V70.1196H290.103V64.2726C290.103 63.4033 289.921 62.7302 289.557 62.2535C289.192 61.7768 288.617 61.5384 287.832 61.5384C287.061 61.5384 286.416 61.7978 285.897 62.3166C285.392 62.8354 285.14 63.5855 285.14 64.5671V70.1196H282.91ZM294.891 70.1196V59.6875H296.826L297.015 61.2439H297.12C297.4 60.7392 297.835 60.3115 298.424 59.961C299.013 59.6104 299.693 59.4351 300.464 59.4351C301.74 59.4351 302.701 59.8207 303.346 60.5919C303.991 61.3631 304.313 62.4989 304.313 63.9992V70.1196H302.084V64.2726C302.084 63.4033 301.901 62.7302 301.537 62.2535C301.172 61.7768 300.597 61.5384 299.812 61.5384C299.041 61.5384 298.396 61.7978 297.877 62.3166C297.372 62.8354 297.12 63.5855 297.12 64.5671V70.1196H294.891ZM308.238 74.7468L310.72 69.2573H310.11L306.051 59.6875H308.469L311.582 67.3223L314.884 59.6875H317.219L310.594 74.7468H308.238ZM322.469 64.7564L322.132 55.3969H324.908L324.551 64.7564H322.469ZM323.541 70.2458C323.023 70.2458 322.581 70.0776 322.216 69.741C321.852 69.3905 321.669 68.9699 321.669 68.4791C321.669 67.9883 321.852 67.5747 322.216 67.2382C322.581 66.9017 323.023 66.7334 323.541 66.7334C324.074 66.7334 324.516 66.9017 324.866 67.2382C325.231 67.5747 325.413 67.9883 325.413 68.4791C325.413 68.9699 325.231 69.3905 324.866 69.741C324.516 70.0776 324.074 70.2458 323.541 70.2458Z" fill="black"/>
</svg>
