<svg width="54" height="10" viewBox="0 0 54 10" fill="none" xmlns="http://www.w3.org/2000/svg">
<path d="M4.41958 9.9313C3.6568 9.9313 2.99722 9.73388 2.44085 9.33903C1.88447 8.94418 1.45821 8.38332 1.16207 7.65643C0.865935 6.92955 0.717867 6.06358 0.717867 5.05851C0.717867 4.05343 0.865935 3.18746 1.16207 2.46058C1.45821 1.7337 1.88447 1.17283 2.44085 0.777981C2.99722 0.383132 3.6568 0.185707 4.41958 0.185707C5.19133 0.185707 5.85091 0.383132 6.39831 0.777981C6.95469 1.17283 7.38095 1.7337 7.67709 2.46058C7.97322 3.18746 8.12129 4.05343 8.12129 5.05851C8.12129 6.06358 7.97322 6.92955 7.67709 7.65643C7.38095 8.38332 6.95469 8.94418 6.39831 9.33903C5.85091 9.73388 5.19133 9.9313 4.41958 9.9313ZM4.41958 8.58523C5.09262 8.58523 5.63554 8.2846 6.04833 7.68336C6.46113 7.07313 6.66753 6.19818 6.66753 5.05851C6.66753 3.91883 6.46113 3.04836 6.04833 2.44712C5.63554 1.83689 5.09262 1.53178 4.41958 1.53178C3.73757 1.53178 3.19016 1.83689 2.77736 2.44712C2.37354 3.04836 2.17163 3.91883 2.17163 5.05851C2.17163 6.19818 2.37354 7.07313 2.77736 7.68336C3.19016 8.2846 3.73757 8.58523 4.41958 8.58523ZM8.80253 9.76978V0.347236H12.1677C13.1459 0.347236 13.8862 0.571582 14.3888 1.02027C14.8913 1.46897 15.1426 2.04778 15.1426 2.75671C15.1426 3.30412 14.999 3.74832 14.7118 4.08933C14.4246 4.43034 14.0926 4.67712 13.7157 4.82967V4.9239C14.1644 5.08543 14.5503 5.35016 14.8733 5.71808C15.1964 6.07704 15.3579 6.55265 15.3579 7.14493C15.3579 7.62951 15.2368 8.07372 14.9945 8.47754C14.7612 8.87239 14.4157 9.18648 13.958 9.4198C13.5003 9.65312 12.9395 9.76978 12.2754 9.76978H8.80253ZM10.2294 4.27778H11.9927C12.5401 4.27778 12.9574 4.17009 13.2446 3.95472C13.5317 3.73038 13.6753 3.39386 13.6753 2.94516C13.6753 2.05675 13.1055 1.61255 11.9658 1.61255H10.2294V4.27778ZM10.2294 8.45062H12.087C12.6703 8.45062 13.119 8.32499 13.433 8.07372C13.7471 7.82245 13.9042 7.45452 13.9042 6.96994C13.9042 6.49432 13.7381 6.13088 13.4061 5.87961C13.0741 5.61937 12.6254 5.48925 12.06 5.48925H10.2294V8.45062ZM19.8755 9.9313C18.9063 9.9313 18.1615 9.66209 17.641 9.12366C17.1205 8.57625 16.8603 7.82694 16.8603 6.87571H18.3006C18.3095 7.36927 18.4352 7.78656 18.6775 8.12756C18.9198 8.46857 19.3146 8.63907 19.862 8.63907C20.3915 8.63907 20.7684 8.47305 20.9927 8.14102C21.2261 7.80899 21.3427 7.39619 21.3427 6.90263V0.347236H22.7696V6.90263C22.7696 7.87181 22.5138 8.62112 22.0023 9.15058C21.4908 9.67106 20.7818 9.9313 19.8755 9.9313ZM24.4603 9.76978V0.347236H30.4773V1.62601H25.8872V4.37201H30.0735V5.63732H25.8872V8.491H30.4773V9.76978H24.4603ZM35.116 9.9313C34.3263 9.9313 33.6533 9.72939 33.0969 9.32557C32.5495 8.92175 32.1277 8.35639 31.8316 7.62951C31.5444 6.89366 31.4008 6.04114 31.4008 5.07197C31.4008 4.09382 31.5444 3.2413 31.8316 2.51442C32.1277 1.77856 32.554 1.20873 33.1104 0.804903C33.6667 0.392106 34.3353 0.185707 35.116 0.185707C36.1301 0.185707 36.9377 0.463896 37.539 1.02027C38.1402 1.56768 38.4902 2.31251 38.5889 3.25476H37.014C36.9332 2.7612 36.7313 2.35289 36.4083 2.02983C36.0942 1.6978 35.6589 1.53178 35.1026 1.53178C34.3936 1.53178 33.8417 1.84587 33.4469 2.47404C33.052 3.10221 32.8546 3.96818 32.8546 5.07197C32.8546 6.16678 33.052 7.02827 33.4469 7.65643C33.8417 8.27563 34.3936 8.58523 35.1026 8.58523C35.6769 8.58523 36.1166 8.43716 36.4217 8.14102C36.7268 7.83591 36.9243 7.43658 37.014 6.94301H38.5889C38.4453 7.86732 38.0819 8.59869 37.4986 9.13712C36.9153 9.66658 36.1211 9.9313 35.116 9.9313ZM42.0431 9.76978V1.62601H39.5124V0.347236H46.0005V1.62601H43.4699V9.76978H42.0431ZM50.5181 9.9313C49.854 9.9313 49.2707 9.81016 48.7682 9.56786C48.2746 9.32557 47.8843 8.98008 47.5971 8.53138C47.3189 8.08269 47.1753 7.54875 47.1664 6.92955H48.674C48.6829 7.40517 48.8445 7.81348 49.1585 8.15448C49.4816 8.48652 49.9303 8.65253 50.5046 8.65253C51.0341 8.65253 51.4469 8.53138 51.743 8.28909C52.0392 8.03782 52.1872 7.71476 52.1872 7.31992C52.1872 6.98788 52.0975 6.71418 51.918 6.49881C51.7475 6.27446 51.4783 6.07704 51.1104 5.90653C50.7424 5.72706 50.2668 5.54309 49.6835 5.35464C48.9028 5.10338 48.3285 4.75788 47.9605 4.31816C47.5926 3.86947 47.4086 3.32207 47.4086 2.67595C47.4086 1.93112 47.6779 1.32987 48.2163 0.872206C48.7547 0.41454 49.4951 0.185707 50.4373 0.185707C51.3527 0.185707 52.0885 0.423514 52.6449 0.899128C53.2013 1.36577 53.4884 2.01637 53.5064 2.85094H51.9853C51.9853 2.62659 51.9225 2.41122 51.7969 2.20482C51.6712 1.98945 51.4917 1.81446 51.2584 1.67985C51.0251 1.53627 50.7379 1.46448 50.3969 1.46448C49.9752 1.45551 49.6207 1.55871 49.3335 1.77408C49.0464 1.98048 48.9028 2.26315 48.9028 2.62211C48.9028 3.06182 49.0778 3.40732 49.4278 3.65859C49.7777 3.90088 50.3476 4.15215 51.1373 4.41239C51.6308 4.57392 52.0661 4.77134 52.443 5.00466C52.8288 5.22901 53.1295 5.52066 53.3448 5.87961C53.5692 6.22959 53.6814 6.67829 53.6814 7.22569C53.6814 7.72823 53.5557 8.18589 53.3045 8.59869C53.0532 9.00251 52.6898 9.32557 52.2141 9.56786C51.7475 9.81016 51.1821 9.9313 50.5181 9.9313Z" fill="white"/>
</svg>
