<svg width="47" height="11" viewBox="0 0 47 11" fill="none" xmlns="http://www.w3.org/2000/svg">
<path d="M4.46597 10.3559C3.70319 10.3559 3.04361 10.1584 2.48723 9.76359C1.93085 9.36874 1.5046 8.80788 1.20846 8.081C0.912322 7.35411 0.764254 6.48814 0.764254 5.48307C0.764254 4.478 0.912322 3.61202 1.20846 2.88514C1.5046 2.15826 1.93085 1.59739 2.48723 1.20254C3.04361 0.807692 3.70319 0.610268 4.46597 0.610268C5.23772 0.610268 5.89729 0.807692 6.4447 1.20254C7.00108 1.59739 7.42733 2.15826 7.72347 2.88514C8.01961 3.61202 8.16768 4.478 8.16768 5.48307C8.16768 6.48814 8.01961 7.35411 7.72347 8.081C7.42733 8.80788 7.00108 9.36874 6.4447 9.76359C5.89729 10.1584 5.23772 10.3559 4.46597 10.3559ZM4.46597 9.00979C5.139 9.00979 5.68192 8.70916 6.09472 8.10792C6.50752 7.4977 6.71391 6.62274 6.71391 5.48307C6.71391 4.34339 6.50752 3.47292 6.09472 2.87168C5.68192 2.26146 5.139 1.95634 4.46597 1.95634C3.78395 1.95634 3.23655 2.26146 2.82375 2.87168C2.41993 3.47292 2.21802 4.34339 2.21802 5.48307C2.21802 6.62274 2.41993 7.4977 2.82375 8.10792C3.23655 8.70916 3.78395 9.00979 4.46597 9.00979ZM12.1064 10.3559C11.4693 10.3559 10.8994 10.2257 10.3969 9.9655C9.90334 9.70526 9.51298 9.31041 9.22582 8.78096C8.93866 8.24252 8.79507 7.565 8.79507 6.74838V0.771797H10.2219V6.82914C10.2219 7.54705 10.3924 8.10343 10.7334 8.49828C11.0744 8.88415 11.5411 9.07709 12.1333 9.07709C12.7256 9.07709 13.1923 8.88415 13.5333 8.49828C13.8743 8.10343 14.0448 7.54705 14.0448 6.82914V0.771797H15.4716V6.74838C15.4716 7.565 15.3235 8.24252 15.0274 8.78096C14.7313 9.31041 14.3275 9.70526 13.8159 9.9655C13.3134 10.2257 12.7436 10.3559 12.1064 10.3559ZM19.0873 10.1943V2.05057H16.5567V0.771797H23.0448V2.05057H20.5141V10.1943H19.0873ZM24.5606 10.1943V0.771797H30.6045V2.10441H25.9874V4.98502H29.8641V6.23687H25.9874V10.1943H24.5606ZM32.376 10.1943V8.92902H34.4221V2.03711H32.403V0.771797H37.868V2.03711H35.8489V8.92902H37.8949V10.1943H32.376ZM42.0894 10.1943V2.05057H39.5588V0.771797H46.0469V2.05057H43.5163V10.1943H42.0894Z" fill="white"/>
</svg>
