<svg width="168" height="20" viewBox="0 0 168 20" fill="none" xmlns="http://www.w3.org/2000/svg">
<path d="M6.41381 15.445C5.17991 15.445 4.12829 15.1295 3.25895 14.4986C2.40363 13.8676 1.74461 12.9842 1.28189 11.8485C0.833202 10.6987 0.608856 9.36664 0.608856 7.8523C0.608856 6.32394 0.833202 4.99189 1.28189 3.85613C1.74461 2.70636 2.41064 1.81598 3.27998 1.18501C4.14932 0.540016 5.19393 0.217518 6.41381 0.217518C7.99826 0.217518 9.26021 0.652189 10.1997 1.52153C11.1391 2.37685 11.6859 3.54065 11.8402 5.01292H9.37939C9.2532 4.24173 8.93771 3.60374 8.43293 3.09896C7.94217 2.58016 7.26212 2.32076 6.39278 2.32076C5.28507 2.32076 4.42274 2.81152 3.80579 3.79303C3.18884 4.77455 2.88036 6.12764 2.88036 7.8523C2.88036 9.56294 3.18884 10.909 3.80579 11.8905C4.42274 12.858 5.28507 13.3418 6.39278 13.3418C7.29017 13.3418 7.97723 13.1104 8.45396 12.6477C8.9307 12.171 9.23917 11.547 9.37939 10.7758H11.8402C11.6158 12.22 11.048 13.3628 10.1366 14.2041C9.22515 15.0314 7.98424 15.445 6.41381 15.445ZM13.5777 15.1926V0.0492584H15.8071V6.31693C16.0875 5.79813 16.5362 5.37047 17.1532 5.03395C17.7701 4.68341 18.4642 4.50814 19.2354 4.50814C20.5254 4.50814 21.5069 4.90075 22.1799 5.68596C22.853 6.45715 23.1895 7.57187 23.1895 9.03012V15.1926H20.9601V9.3456C20.9601 8.47626 20.7497 7.80322 20.3291 7.32649C19.9084 6.84975 19.3265 6.61138 18.5834 6.61138C17.8122 6.61138 17.1532 6.87078 16.6063 7.38959C16.0735 7.90839 15.8071 8.65854 15.8071 9.64006V15.1926H13.5777ZM30.3323 15.445C29.3368 15.445 28.4464 15.2207 27.6612 14.772C26.876 14.3233 26.259 13.6923 25.8103 12.8791C25.3616 12.0518 25.1373 11.0843 25.1373 9.97658C25.1373 8.86887 25.3616 7.90839 25.8103 7.09513C26.259 6.26785 26.876 5.62987 27.6612 5.18118C28.4464 4.73249 29.3438 4.50814 30.3533 4.50814C31.3629 4.50814 32.2533 4.73249 33.0245 5.18118C33.8097 5.62987 34.4196 6.26785 34.8543 7.09513C35.303 7.90839 35.5273 8.86887 35.5273 9.97658C35.5273 11.0843 35.303 12.0518 34.8543 12.8791C34.4056 13.6923 33.7886 14.3233 33.0034 14.772C32.2322 15.2207 31.3419 15.445 30.3323 15.445ZM30.3323 13.3207C30.8651 13.3207 31.3559 13.2016 31.8046 12.9632C32.2533 12.7248 32.6108 12.3603 32.8772 11.8695C33.1577 11.3647 33.2979 10.7337 33.2979 9.97658C33.2979 9.20539 33.1577 8.57441 32.8772 8.08366C32.6108 7.5929 32.2533 7.22834 31.8046 6.98997C31.3699 6.7516 30.8862 6.63242 30.3533 6.63242C29.8205 6.63242 29.3298 6.7516 28.8811 6.98997C28.4324 7.22834 28.0678 7.5929 27.7874 8.08366C27.521 8.57441 27.3878 9.20539 27.3878 9.97658C27.3878 11.1264 27.6752 11.9747 28.2501 12.5215C28.839 13.0543 29.5331 13.3207 30.3323 13.3207ZM42.3126 15.445C41.3171 15.445 40.4267 15.2207 39.6415 14.772C38.8563 14.3233 38.2393 13.6923 37.7906 12.8791C37.3419 12.0518 37.1176 11.0843 37.1176 9.97658C37.1176 8.86887 37.3419 7.90839 37.7906 7.09513C38.2393 6.26785 38.8563 5.62987 39.6415 5.18118C40.4267 4.73249 41.3241 4.50814 42.3336 4.50814C43.3432 4.50814 44.2336 4.73249 45.0048 5.18118C45.79 5.62987 46.3999 6.26785 46.8346 7.09513C47.2833 7.90839 47.5076 8.86887 47.5076 9.97658C47.5076 11.0843 47.2833 12.0518 46.8346 12.8791C46.3859 13.6923 45.7689 14.3233 44.9837 14.772C44.2125 15.2207 43.3222 15.445 42.3126 15.445ZM42.3126 13.3207C42.8454 13.3207 43.3362 13.2016 43.7849 12.9632C44.2336 12.7248 44.5911 12.3603 44.8575 11.8695C45.138 11.3647 45.2782 10.7337 45.2782 9.97658C45.2782 9.20539 45.138 8.57441 44.8575 8.08366C44.5911 7.5929 44.2336 7.22834 43.7849 6.98997C43.3502 6.7516 42.8665 6.63242 42.3336 6.63242C41.8008 6.63242 41.3101 6.7516 40.8614 6.98997C40.4127 7.22834 40.0481 7.5929 39.7677 8.08366C39.5013 8.57441 39.3681 9.20539 39.3681 9.97658C39.3681 11.1264 39.6555 11.9747 40.2304 12.5215C40.8193 13.0543 41.5134 13.3207 42.3126 13.3207ZM54.377 15.445C53.0029 15.445 51.9092 15.1225 51.096 14.4775C50.2827 13.8325 49.82 12.9772 49.7078 11.9116H52.0003C52.0845 12.4023 52.3299 12.8019 52.7365 13.1104C53.1571 13.4189 53.711 13.5731 54.398 13.5731C55.0571 13.5731 55.5618 13.4399 55.9124 13.1735C56.2769 12.8931 56.4592 12.5706 56.4592 12.206C56.4592 11.6732 56.2419 11.3086 55.8072 11.1123C55.3866 10.916 54.7626 10.7688 53.9353 10.6706C53.2202 10.5865 52.5682 10.4253 51.9793 10.1869C51.4044 9.93451 50.9487 9.59799 50.6122 9.17734C50.2757 8.74267 50.1074 8.20284 50.1074 7.55785C50.1074 6.64644 50.465 5.9103 51.1801 5.34944C51.8952 4.78857 52.8907 4.50814 54.1667 4.50814C55.4427 4.50814 56.4312 4.79558 57.1323 5.37047C57.8333 5.94536 58.24 6.73057 58.3521 7.7261H56.2068C56.1508 7.30546 55.9334 6.97595 55.5548 6.73758C55.1762 6.48519 54.7065 6.359 54.1457 6.359C53.5708 6.359 53.1151 6.47117 52.7785 6.69551C52.442 6.90584 52.2738 7.18627 52.2738 7.53681C52.2738 8.29398 53.087 8.7567 54.7135 8.92496C55.4847 9.00908 56.1718 9.15631 56.7747 9.36664C57.3776 9.56294 57.8544 9.87843 58.2049 10.3131C58.5555 10.7337 58.7307 11.3297 58.7307 12.1009C58.7448 12.7318 58.5625 13.2997 58.1839 13.8045C57.8193 14.3093 57.3075 14.7089 56.6485 15.0033C56.0035 15.2978 55.2464 15.445 54.377 15.445ZM66.3994 15.445C65.3898 15.445 64.4994 15.2207 63.7282 14.772C62.9571 14.3093 62.3541 13.6713 61.9195 12.858C61.4848 12.0448 61.2674 11.0983 61.2674 10.0186C61.2674 8.92496 61.4778 7.96447 61.8984 7.1372C62.3331 6.30992 62.936 5.66492 63.7072 5.20221C64.4924 4.7395 65.3968 4.50814 66.4204 4.50814C67.43 4.50814 68.2993 4.7395 69.0284 5.20221C69.7575 5.6509 70.3184 6.25383 70.711 7.011C71.1176 7.76817 71.321 8.60246 71.321 9.51386C71.321 9.65408 71.321 9.80832 71.321 9.97658C71.321 10.1308 71.3139 10.3061 71.2999 10.5024H63.4548C63.5249 11.4699 63.8404 12.206 64.4013 12.7108C64.9621 13.2016 65.6212 13.4469 66.3783 13.4469C67.0373 13.4469 67.5561 13.3137 67.9347 13.0473C68.3273 12.7669 68.6148 12.3883 68.7971 11.9116H71.0475C70.7951 12.9071 70.2693 13.7484 69.4701 14.4355C68.6709 15.1085 67.6473 15.445 66.3994 15.445ZM66.3994 6.44313C65.7123 6.44313 65.1024 6.65345 64.5695 7.0741C64.0367 7.48073 63.6932 8.05561 63.5389 8.79876H69.0915C69.0354 8.09768 68.762 7.5298 68.2713 7.09513C67.7805 6.66046 67.1565 6.44313 66.3994 6.44313ZM89.2873 15.445C88.46 15.445 87.7659 15.3048 87.2051 15.0244C86.6442 14.7299 86.2235 14.3443 85.9431 13.8676C85.6627 13.3768 85.5225 12.844 85.5225 12.2691C85.5225 11.2455 85.894 10.4463 86.6372 9.87142C87.3944 9.29653 88.46 9.00909 89.8341 9.00909H92.5263V8.77773C92.5263 7.2073 91.7971 6.42209 90.3389 6.42209C89.736 6.42209 89.2242 6.5553 88.8035 6.82171C88.3969 7.0741 88.1235 7.48774 87.9833 8.06262H85.7538C85.866 6.96894 86.3357 6.10661 87.163 5.47563C88.0043 4.83064 89.0629 4.50814 90.3389 4.50814C91.8813 4.50814 93.003 4.88672 93.7041 5.64389C94.4052 6.40106 94.7557 7.44567 94.7557 8.77773V15.1926H92.8628L92.6735 13.6573H92.5263C92.2178 14.148 91.8322 14.5687 91.3695 14.9192C90.9068 15.2697 90.2127 15.445 89.2873 15.445ZM89.7079 13.5731C90.6193 13.5731 91.2994 13.2997 91.7481 12.7529C92.2108 12.192 92.4632 11.4839 92.5052 10.6286H90.0655C89.2662 10.6286 88.6984 10.7618 88.3618 11.0282C88.0393 11.2806 87.8781 11.6381 87.8781 12.1009C87.8781 12.5636 88.0393 12.9281 88.3618 13.1945C88.6984 13.4469 89.1471 13.5731 89.7079 13.5731ZM114.762 15.445C113.991 15.445 113.339 15.2908 112.806 14.9823C112.287 14.6598 111.888 14.2181 111.607 13.6573H111.481L111.292 15.1926H109.378V0.0492584H111.607V6.10661C111.86 5.68596 112.259 5.31438 112.806 4.99189C113.353 4.66939 114.005 4.50814 114.762 4.50814C115.632 4.50814 116.41 4.71846 117.097 5.13911C117.784 5.54574 118.324 6.15568 118.716 6.96894C119.123 7.78219 119.326 8.78474 119.326 9.97658C119.326 11.1684 119.123 12.171 118.716 12.9842C118.324 13.7975 117.784 14.4144 117.097 14.8351C116.41 15.2417 115.632 15.445 114.762 15.445ZM114.299 13.3207C115.099 13.3207 115.758 13.0473 116.277 12.5005C116.809 11.9396 117.076 11.1053 117.076 9.99761C117.076 8.87588 116.809 8.03458 116.277 7.47372C115.758 6.91285 115.099 6.63242 114.299 6.63242C113.5 6.63242 112.834 6.91285 112.301 7.47372C111.783 8.02056 111.523 8.85485 111.523 9.97658C111.523 11.0843 111.783 11.9186 112.301 12.4794C112.834 13.0403 113.5 13.3207 114.299 13.3207ZM125.228 15.445C124.401 15.445 123.707 15.3048 123.146 15.0244C122.585 14.7299 122.164 14.3443 121.884 13.8676C121.604 13.3768 121.463 12.844 121.463 12.2691C121.463 11.2455 121.835 10.4463 122.578 9.87142C123.335 9.29653 124.401 9.00909 125.775 9.00909H128.467V8.77773C128.467 7.2073 127.738 6.42209 126.28 6.42209C125.677 6.42209 125.165 6.5553 124.744 6.82171C124.338 7.0741 124.064 7.48774 123.924 8.06262H121.695C121.807 6.96894 122.277 6.10661 123.104 5.47563C123.945 4.83064 125.004 4.50814 126.28 4.50814C127.822 4.50814 128.944 4.88672 129.645 5.64389C130.346 6.40106 130.697 7.44567 130.697 8.77773V15.1926H128.804L128.614 13.6573H128.467C128.159 14.148 127.773 14.5687 127.31 14.9192C126.848 15.2697 126.154 15.445 125.228 15.445ZM125.649 13.5731C126.56 13.5731 127.24 13.2997 127.689 12.7529C128.152 12.192 128.404 11.4839 128.446 10.6286H126.006C125.207 10.6286 124.639 10.7618 124.303 11.0282C123.98 11.2806 123.819 11.6381 123.819 12.1009C123.819 12.5636 123.98 12.9281 124.303 13.1945C124.639 13.4469 125.088 13.5731 125.649 13.5731ZM133.486 15.1926V4.76053H135.421L135.61 6.31693H135.715C135.996 5.81215 136.43 5.38449 137.019 5.03395C137.608 4.68341 138.288 4.50814 139.059 4.50814C140.335 4.50814 141.296 4.89373 141.941 5.66492C142.586 6.43611 142.908 7.57187 142.908 9.07218V15.1926H140.679V9.3456C140.679 8.47626 140.496 7.80322 140.132 7.32649C139.767 6.84975 139.192 6.61138 138.407 6.61138C137.636 6.61138 136.991 6.87078 136.472 7.38959C135.968 7.90839 135.715 8.65854 135.715 9.64006V15.1926H133.486ZM145.466 15.1926V4.76053H147.401L147.59 6.31693H147.695C147.976 5.81215 148.41 5.38449 148.999 5.03395C149.588 4.68341 150.268 4.50814 151.04 4.50814C152.316 4.50814 153.276 4.89373 153.921 5.66492C154.566 6.43611 154.888 7.57187 154.888 9.07218V15.1926H152.659V9.3456C152.659 8.47626 152.477 7.80322 152.112 7.32649C151.748 6.84975 151.173 6.61138 150.388 6.61138C149.616 6.61138 148.971 6.87078 148.453 7.38959C147.948 7.90839 147.695 8.65854 147.695 9.64006V15.1926H145.466ZM158.813 19.8198L161.295 14.3303H160.685L156.626 4.76053H159.045L162.158 12.3953L165.46 4.76053H167.794L161.169 19.8198H158.813Z" fill="black"/>
</svg>
