<svg width="1394" height="679" viewBox="0 0 1394 679" fill="none" xmlns="http://www.w3.org/2000/svg">
<path d="M1464 0H-52V73.3521H1464V0Z" fill="#A227C4"/>
<path d="M1464 73.3521H-52V134.479H1464V73.3521Z" fill="#9235C5"/>
<path d="M1464 134.479H-52V195.606H1464V134.479Z" fill="#8243C6"/>
<path d="M1464 195.606H-52V256.732H1464V195.606Z" fill="#7252C6"/>
<path d="M1464 256.732H-52V317.859H1464V256.732Z" fill="#6260C7"/>
<path d="M1464 317.859H-52V378.986H1464V317.859Z" fill="#526EC8"/>
<path d="M1464 378.986H-52V440.113H1464V378.986Z" fill="#437CC9"/>
<path d="M1464 440.113H-52V501.239H1464V440.113Z" fill="#338ACA"/>
<path d="M1464 501.239H-52V562.366H1464V501.239Z" fill="#2399CA"/>
<path d="M1464 562.366H-52V623.493H1464V562.366Z" fill="#13A7CB"/>
<path d="M1464 623.493H-52V678.507H1464V623.493Z" fill="#03B5CC"/>
</svg>
