<svg width="445" height="72" viewBox="0 0 445 72" fill="none" xmlns="http://www.w3.org/2000/svg">
<path d="M13.9568 7.26382V0.555309C17.2472 -0.00179961 416.241 -0.239733 430.709 0.317375V7.26963H13.9568V7.26382Z" fill="#2692CB"/>
<path d="M430.714 63.7697V70.4782C427.424 71.0353 28.4357 71.2733 13.9625 70.7162V63.7639H430.714V63.7697Z" fill="#2692CB"/>
<path d="M13.9567 63.7698H7.0393C6.70852 61.5182 7.0509 59.2027 6.82458 56.8117H0V14.3264H6.89422V49.6448H13.9567V63.7698Z" fill="#2692CB"/>
<path d="M437.777 14.3264H444.474C445.025 17.4311 445.188 42.6229 444.746 56.5738H437.963C437.539 58.9473 437.957 61.2628 437.667 63.7698H430.708V49.6448H437.771V14.3264H437.777Z" fill="#2692CB"/>
<path d="M6.89429 14.3262V7.26367H13.9568V14.3262H6.89429Z" fill="#2692CB"/>
<path d="M430.715 7.26367H437.777V14.3262H430.715V7.26367Z" fill="#2692CB"/>
<path d="M430.715 7.26367V14.3262H13.9568V7.26367H430.715Z" fill="#74F452"/>
<path d="M430.715 56.707V63.7695H13.9568V56.707H430.715V56.707Z" fill="#39ABE7"/>
<path d="M13.9568 14.3264H437.777V21.3889H6.89429V14.3264H13.9568Z" fill="#11E53E"/>
<path d="M6.89429 21.3889H437.777V28.4514H6.89429V21.3889Z" fill="#36E25A"/>
<path d="M6.89429 28.4514H437.777V35.5139H6.89429V28.4514Z" fill="#32D855"/>
<path d="M6.89429 35.5198H437.777V42.5823H6.89429V35.5198Z" fill="#32D893"/>
<path d="M6.89429 42.582H437.777V49.6445H6.89429V42.582Z" fill="#2EDAAF"/>
<path d="M13.9568 49.6448H430.715V56.7073H13.9568V49.6448Z" fill="#2EC8DA"/>
<path d="M56.8305 25.3147H70.6077V27.0369H72.3298V28.759H74.052V42.5362H72.3298V44.2583H70.6077V45.9805H56.8305V25.3147ZM68.8856 28.759H60.2748V42.5362H68.8856V40.814H70.6077V30.4812H68.8856V28.759ZM77.4828 25.3147H94.7043V28.759H80.9271V33.9255H92.9821V37.3697H80.9271V42.5362H94.7043V45.9805H77.4828V25.3147ZM98.1351 27.0369H99.8572V25.3147H115.357V28.759H101.579V33.9255H113.634V35.6476H115.357V44.2583H113.634V45.9805H98.1351V42.5362H111.912V37.3697H98.1351V27.0369ZM118.787 25.3147H125.676V28.759H123.954V42.5362H125.676V45.9805H118.787V42.5362H120.51V28.759H118.787V25.3147ZM129.114 27.0369H130.836V25.3147H146.335V28.759H132.558V42.5362H142.891V37.3697H137.724V33.9255H146.335V45.9805H130.836V44.2583H129.114V27.0369ZM149.766 25.3147H151.488V27.0369H153.21V28.759H154.932V30.4812H156.654V32.2033H158.377V33.9255H160.099V35.6476H161.821V37.3697H163.543V25.3147H166.987V45.9805H165.265V44.2583H163.543V42.5362H161.821V40.814H160.099V39.0919H158.377V37.3697H156.654V35.6476H154.932V33.9255H153.21V45.9805H149.766V25.3147ZM187.64 25.3147H191.084V30.4812H192.806V32.2033H194.528V33.9255H197.972V32.2033H199.695V30.4812H201.417V25.3147H204.861V32.2033H203.139V33.9255H201.417V35.6476H199.695V37.3697H197.972V45.9805H194.528V37.3697H192.806V35.6476H191.084V33.9255H189.362V32.2033H187.64V25.3147ZM208.292 27.0369H210.014V25.3147H223.791V27.0369H225.513V44.2583H223.791V45.9805H210.014V44.2583H208.292V27.0369ZM211.736 42.5362H222.069V28.759H211.736V42.5362ZM228.944 25.3147H232.388V42.5362H242.721V25.3147H246.165V44.2583H244.443V45.9805H230.666V44.2583H228.944V25.3147ZM249.596 25.3147H265.096V27.0369H266.818V37.3697H265.096V39.0919H261.651V40.814H263.373V42.5362H265.096V44.2583H266.818V45.9805H261.651V44.2583H259.929V42.5362H258.207V40.814H256.485V39.0919H253.041V45.9805H249.596V25.3147ZM253.041 35.6476H263.373V28.759H253.041V35.6476ZM287.47 25.3147H302.969V27.0369H304.691V44.2583H302.969V45.9805H287.47V25.3147ZM301.247 28.759H290.914V33.9255H301.247V28.759ZM290.914 42.5362H301.247V37.3697H290.914V42.5362ZM308.122 27.0369H309.844V25.3147H323.622V27.0369H325.344V45.9805H321.899V39.0919H311.567V45.9805H308.122V27.0369ZM311.567 35.6476H321.899V28.759H311.567V35.6476ZM328.775 25.3147H330.497V27.0369H332.219V28.759H333.941V30.4812H335.663V32.2033H337.385V33.9255H339.107V35.6476H340.83V37.3697H342.552V25.3147H345.996V45.9805H344.274V44.2583H342.552V42.5362H340.83V40.814H339.107V39.0919H337.385V37.3697H335.663V35.6476H333.941V33.9255H332.219V45.9805H328.775V25.3147ZM349.427 25.3147H351.149V27.0369H352.871V28.759H354.593V30.4812H356.315V32.2033H358.038V33.9255H359.76V35.6476H361.482V37.3697H363.204V25.3147H366.648V45.9805H364.926V44.2583H363.204V42.5362H361.482V40.814H359.76V39.0919H358.038V37.3697H356.315V35.6476H354.593V33.9255H352.871V45.9805H349.427V25.3147ZM370.079 25.3147H373.523V30.4812H375.246V32.2033H376.968V33.9255H380.412V32.2033H382.134V30.4812H383.856V25.3147H387.301V32.2033H385.578V33.9255H383.856V35.6476H382.134V37.3697H380.412V45.9805H376.968V37.3697H375.246V35.6476H373.523V33.9255H371.801V32.2033H370.079V25.3147Z" fill="white"/>
</svg>
