<svg width="445" height="72" viewBox="0 0 445 72" fill="none" xmlns="http://www.w3.org/2000/svg">
<path d="M13.9568 7.26382V0.555309C17.2472 -0.00179961 416.241 -0.239733 430.709 0.317375V7.26963H13.9568V7.26382Z" fill="#2692CB"/>
<path d="M430.714 63.7697V70.4782C427.424 71.0353 28.4357 71.2733 13.9625 70.7162V63.7639H430.714V63.7697Z" fill="#2692CB"/>
<path d="M13.9567 63.7698H7.0393C6.70852 61.5182 7.0509 59.2027 6.82458 56.8117H0V14.3264H6.89422V49.6448H13.9567V63.7698Z" fill="#2692CB"/>
<path d="M437.777 14.3264H444.474C445.025 17.4311 445.188 42.6229 444.746 56.5738H437.963C437.539 58.9473 437.957 61.2628 437.667 63.7698H430.708V49.6448H437.771V14.3264H437.777Z" fill="#2692CB"/>
<path d="M6.89429 14.3262V7.26367H13.9568V14.3262H6.89429Z" fill="#2692CB"/>
<path d="M430.715 7.26367H437.777V14.3262H430.715V7.26367Z" fill="#2692CB"/>
<path d="M430.715 7.26367V14.3262H13.9568V7.26367H430.715Z" fill="#74F452"/>
<path d="M430.715 56.707V63.7695H13.9568V56.707H430.715Z" fill="#39ABE7"/>
<path d="M13.9568 14.3264H437.777V21.3889H6.89429V14.3264H13.9568Z" fill="#11E53E"/>
<path d="M6.89429 21.3889H437.777V28.4514H6.89429V21.3889Z" fill="#36E25A"/>
<path d="M6.89429 28.4514H437.777V35.5139H6.89429V28.4514Z" fill="#32D855"/>
<path d="M6.89429 35.5198H437.777V42.5823H6.89429V35.5198Z" fill="#32D893"/>
<path d="M6.89429 42.582H437.777V49.6445H6.89429V42.582Z" fill="#2EDAAF"/>
<path d="M13.9568 49.6448H430.715V56.7073H13.9568V49.6448Z" fill="#2EC8DA"/>
</svg>
