<svg width="332" height="21" viewBox="0 0 332 21" fill="none" xmlns="http://www.w3.org/2000/svg">
<path d="M0.830543 0.314738H14.6077V2.03688H16.3298V3.75903H18.052V17.5362H16.3298V19.2583H14.6077V20.9805H0.830543V0.314738ZM12.8856 3.75903H4.27483V17.5362H12.8856V15.814H14.6077V5.48117H12.8856V3.75903ZM21.4828 0.314738H38.7043V3.75903H24.9271V8.92546H36.9821V12.3697H24.9271V17.5362H38.7043V20.9805H21.4828V0.314738ZM42.1351 2.03688H43.8572V0.314738H59.3565V3.75903H45.5794V8.92546H57.6344V10.6476H59.3565V19.2583H57.6344V20.9805H42.1351V17.5362H55.9122V12.3697H42.1351V2.03688ZM62.7874 0.314738H69.6759V3.75903H67.9538V17.5362H69.6759V20.9805H62.7874V17.5362H64.5095V3.75903H62.7874V0.314738ZM73.1135 2.03688H74.8356V0.314738H90.3349V3.75903H76.5578V17.5362H86.8907V12.3697H81.7242V8.92546H90.3349V20.9805H74.8356V19.2583H73.1135V2.03688ZM93.7658 0.314738H95.4879V2.03688H97.2101V3.75903H98.9322V5.48117H100.654V7.20332H102.377V8.92546H104.099V10.6476H105.821V12.3697H107.543V0.314738H110.987V20.9805H109.265V19.2583H107.543V17.5362H105.821V15.814H104.099V14.0919H102.377V12.3697H100.654V10.6476H98.9322V8.92546H97.2101V20.9805H93.7658V0.314738ZM131.64 0.314738H135.084V5.48117H136.806V7.20332H138.528V8.92546H141.972V7.20332H143.695V5.48117H145.417V0.314738H148.861V7.20332H147.139V8.92546H145.417V10.6476H143.695V12.3697H141.972V20.9805H138.528V12.3697H136.806V10.6476H135.084V8.92546H133.362V7.20332H131.64V0.314738ZM152.292 2.03688H154.014V0.314738H167.791V2.03688H169.513V19.2583H167.791V20.9805H154.014V19.2583H152.292V2.03688ZM155.736 17.5362H166.069V3.75903H155.736V17.5362ZM172.944 0.314738H176.388V17.5362H186.721V0.314738H190.165V19.2583H188.443V20.9805H174.666V19.2583H172.944V0.314738ZM193.596 0.314738H209.096V2.03688H210.818V12.3697H209.096V14.0919H205.651V15.814H207.373V17.5362H209.096V19.2583H210.818V20.9805H205.651V19.2583H203.929V17.5362H202.207V15.814H200.485V14.0919H197.041V20.9805H193.596V0.314738ZM197.041 10.6476H207.373V3.75903H197.041V10.6476ZM231.47 0.314738H246.969V2.03688H248.691V19.2583H246.969V20.9805H231.47V0.314738ZM245.247 3.75903H234.914V8.92546H245.247V3.75903ZM234.914 17.5362H245.247V12.3697H234.914V17.5362ZM252.122 2.03688H253.844V0.314738H267.622V2.03688H269.344V20.9805H265.899V14.0919H255.567V20.9805H252.122V2.03688ZM255.567 10.6476H265.899V3.75903H255.567V10.6476ZM272.775 0.314738H274.497V2.03688H276.219V3.75903H277.941V5.48117H279.663V7.20332H281.385V8.92546H283.107V10.6476H284.83V12.3697H286.552V0.314738H289.996V20.9805H288.274V19.2583H286.552V17.5362H284.83V15.814H283.107V14.0919H281.385V12.3697H279.663V10.6476H277.941V8.92546H276.219V20.9805H272.775V0.314738ZM293.427 0.314738H295.149V2.03688H296.871V3.75903H298.593V5.48117H300.315V7.20332H302.038V8.92546H303.76V10.6476H305.482V12.3697H307.204V0.314738H310.648V20.9805H308.926V19.2583H307.204V17.5362H305.482V15.814H303.76V14.0919H302.038V12.3697H300.315V10.6476H298.593V8.92546H296.871V20.9805H293.427V0.314738ZM314.079 0.314738H317.523V5.48117H319.246V7.20332H320.968V8.92546H324.412V7.20332H326.134V5.48117H327.856V0.314738H331.301V7.20332H329.578V8.92546H327.856V10.6476H326.134V12.3697H324.412V20.9805H320.968V12.3697H319.246V10.6476H317.523V8.92546H315.801V7.20332H314.079V0.314738Z" fill="white"/>
</svg>
