<svg width="27" height="54" viewBox="0 0 27 54" fill="none" xmlns="http://www.w3.org/2000/svg">
<g clip-path="url(#clip0_230_1044)">
<path d="M6.4731 48.6432V47.4469C6.07749 47.4279 5.68069 47.4451 5.27558 47.4362V46.2886H4.12202V45.081H5.26845V43.95C5.29518 43.9233 5.31241 43.9054 5.33914 43.8793H7.6225V42.7222H8.75231L8.82299 42.6515V40.3159H9.37542V39.1581H8.23077V37.9588H5.87909C5.85949 38.3449 5.88087 38.7423 5.86781 39.1474H3.5197V40.3527H2.36316V39.1564H1.21614V36.8047C0.828843 36.7821 0.448084 36.8047 0.0649494 36.7916C0.0435651 36.7554 0.0192108 36.7233 0.00495464 36.6871C-0.00336146 36.6657 0.00317262 36.6378 0.00317262 36.6122V32.0289H1.20485V30.8296H2.35247C2.37148 30.4417 2.35247 30.0609 2.36376 29.6724H3.51435V28.8699C3.51435 28.7779 3.509 28.6852 3.51673 28.5943C3.52029 28.5504 3.5494 28.5082 3.5684 28.4618H4.7184V26.1013C5.10273 26.1013 5.48764 26.1013 5.87612 26.0977C5.88028 28.0734 5.88028 30.0455 5.88028 32.0259H7.07721V34.3877H8.23314V35.5953H9.38076V36.7174L9.44789 36.7845H11.1414V31.4925C11.1729 31.4634 11.1966 31.4414 11.2305 31.4099H12.3502V30.2724H13.4978V31.4224C13.8489 31.4224 14.1827 31.423 14.516 31.4218C14.5837 31.4218 14.6502 31.4164 14.7066 31.5216V36.7352H17.6084C17.6084 36.3598 17.6084 35.9927 17.6084 35.6256C17.6084 35.6184 17.6131 35.6107 17.6179 35.6048C17.6226 35.5983 17.6297 35.5941 17.6482 35.5792H18.7649V34.3793H19.9208V32.0176H21.1267V26.1007C21.5015 26.1007 21.868 26.1007 22.2345 26.1007C22.2416 26.1007 22.2493 26.0965 22.2559 26.0918C22.2624 26.087 22.2672 26.0799 22.263 26.0846V24.3495H21.1736V25.4686L21.0851 25.5572H19.9642V26.0935C15.2602 26.0935 10.5658 26.0935 5.87493 26.0971C5.87078 25.7187 5.87078 25.3368 5.87078 24.9465C5.48764 24.9465 5.12173 24.9465 4.75523 24.9465C4.7481 24.9465 4.73979 24.9507 4.73385 24.9548C4.72731 24.9596 4.72256 24.9667 4.71662 24.9727V26.1007H3.53811C3.4995 25.8761 3.48406 18.7481 3.52088 17.8172H4.71603V21.3819C5.50071 21.3819 6.26817 21.3819 7.03562 21.3819C7.04275 21.3819 7.05048 21.386 7.05701 21.3908C7.06354 21.3955 7.0683 21.4027 7.08315 21.4193V22.5295C8.38165 22.5705 19.7266 22.5527 19.9731 22.5081V21.3813C20.2487 21.3813 20.5154 21.373 20.7815 21.3837C21.0447 21.3938 21.2983 21.3064 21.5633 21.3272C21.7943 21.3451 22.0272 21.3308 22.2594 21.3308V17.8101H21.11V13.0895H19.9808L19.9107 13.0194V9.52906H18.7554V7.16729H17.5995V5.96858C17.224 5.96858 16.8581 5.96858 16.4916 5.96858C16.4845 5.96858 16.4762 5.97274 16.4702 5.9769C16.4637 5.98165 16.459 5.98878 16.4441 6.00541V7.11799H10.5824V5.96799C10.2231 5.96799 9.88092 5.96621 9.53936 5.96977C9.48769 5.96977 9.4366 5.9971 9.38136 6.01254C9.38136 6.3832 9.38136 6.73307 9.38136 7.08294C9.38136 7.09007 9.3778 7.09838 9.37364 7.10492C9.36948 7.11205 9.36235 7.11739 9.3576 7.12274H8.2278V5.91809C8.60677 5.9169 8.98694 5.91809 9.37483 5.9175V3.64126L9.46333 3.55276H10.5842V2.41286H11.7318V1.20583H12.8919V0.30235C12.8919 0.235227 12.8848 0.16751 12.8949 0.102169C12.9003 0.0665288 12.9329 0.0344524 12.9537 0H14.0883V1.19455H15.2448V2.32554L15.3155 2.39622H16.4524C16.453 2.78471 16.4524 3.16487 16.4524 3.55335H17.6012V5.91572H18.731L18.8017 5.9864V7.11739H19.9583V9.47976H21.1142V13.0385H22.282C22.2992 13.0533 22.307 13.0581 22.3117 13.0646C22.3165 13.0705 22.3206 13.0783 22.3206 13.0854C22.3206 14.6571 22.3206 16.2289 22.3206 17.8089H23.4617V26.0941H22.3319V28.4565H23.4712V29.6641H24.6687V30.8201C24.7988 30.8201 24.9212 30.8201 25.043 30.8201C25.16 30.8201 25.277 30.8201 25.394 30.8201H25.7457C25.8383 30.8694 25.8318 30.9365 25.8318 31.0042C25.8306 31.338 25.8318 31.6719 25.8318 32.0152H26.9557C26.999 32.2368 27.0139 35.8757 26.977 36.7857H25.8389V38.5457H24.6824V39.6767C24.6468 39.7123 24.6295 39.7302 24.607 39.7521H23.4813V38.5576H21.1213V37.407H18.8118V39.0756L18.7411 39.1463H17.6173V40.304H18.1281C18.1548 40.3307 18.1727 40.3485 18.2077 40.3836V42.718H17.0037C17.0037 41.9327 17.0037 41.1641 17.0037 40.396C17.0037 40.3889 16.9995 40.3812 16.9948 40.3747C16.99 40.3681 16.9829 40.3634 16.987 40.3675H14.6953V43.9244H13.54V45.0667H12.3342V43.9167H11.1289V40.3705H9.97418V42.7145C9.58689 42.7269 9.20672 42.7061 8.81943 42.7269V43.9244H7.6724V45.081H5.32845V46.2375H7.60468C7.63082 46.2636 7.64864 46.2815 7.66646 46.2993C7.69616 46.9503 7.68547 48.4371 7.64923 48.6426H6.47132L6.4731 48.6432Z" fill="white"/>
<path d="M21.7211 46.2839H22.8485C22.8883 46.5031 22.9014 48.8797 22.8675 49.8391H21.7585C21.7419 49.8539 21.7347 49.8581 21.73 49.8646C21.7258 49.8706 21.7211 49.8789 21.7211 49.886C21.7211 50.2525 21.7211 50.6196 21.7211 50.9944H20.5681C20.5657 51.3823 20.5681 51.7625 20.5669 52.1331L20.4962 52.2038H19.367V53.3597H18.2117V53.9603H17.0148V52.8204C16.6275 52.7972 16.2479 52.8204 15.8523 52.8061V51.6051H17.0563C17.0563 51.9888 17.0563 52.3553 17.0563 52.7224C17.0563 52.7295 17.0605 52.7372 17.0653 52.7438C17.07 52.7503 17.0771 52.755 17.073 52.7509H18.2117V51.0009H19.3575V50.4467H18.2164V49.2017H19.3409C19.3664 49.2255 19.3908 49.2486 19.4229 49.2783V49.7933H21.7211V46.2839Z" fill="white"/>
<path d="M9.98405 51.6055V52.7852C9.77912 52.8203 7.69653 52.8316 7.08173 52.8007V51.6174H5.35971C5.32644 51.5859 5.30268 51.5633 5.27417 51.5366V48.6438H6.47288V50.4056H8.23173V51.6055H9.98405Z" fill="white"/>
<path d="M15.8522 51.6055H14.7022C14.6939 51.9839 14.7022 52.3634 14.6975 52.7543C14.6547 52.7733 14.6137 52.8006 14.5698 52.8078C14.5127 52.8173 14.4533 52.8101 14.3951 52.8101H11.2101C11.1916 52.7888 11.1703 52.7632 11.137 52.724V51.6049H9.98462V50.4003C10.3844 50.4003 10.7669 50.4003 11.1501 50.4003C11.1572 50.4003 11.1655 50.4044 11.1714 50.4086C11.178 50.4133 11.1827 50.4205 11.197 50.4359V51.5972C12.0328 51.6293 14.4296 51.6168 14.6577 51.5782V50.3997C15.0491 50.3997 15.4317 50.3997 15.8148 50.3997C15.8219 50.3997 15.8302 50.4038 15.8362 50.408C15.8427 50.4127 15.8475 50.4199 15.8528 50.4258V51.6043L15.8522 51.6055Z" fill="white"/>
<path d="M4.71765 17.8179V13.0486H5.87121V17.8179H4.71765Z" fill="white"/>
<path d="M5.87122 13.0485V9.48389H7.07527V13.0485H5.87122Z" fill="white"/>
<path d="M18.2098 42.7192H19.3622C19.3646 43.0988 19.3622 43.479 19.364 43.8675H20.4855C20.5176 43.9001 20.5413 43.9233 20.574 43.956V45.078H21.721V46.2839H20.511V45.0739H19.3598V43.9215H18.2098V42.7192Z" fill="white"/>
<path d="M7.07458 9.48391V7.12451H8.22815V9.48391H7.07458Z" fill="white"/>
<path d="M17.6082 16.6131V17.8089C17.2304 17.8303 16.8508 17.8089 16.4635 17.8214V18.9624C16.0768 18.985 15.6967 18.9624 15.3284 18.9755C15.2494 19.0195 15.2494 19.0836 15.25 19.1531C15.2524 19.4869 15.2512 19.8208 15.2512 20.1659H11.7483V18.9749C11.3616 18.9684 10.982 18.9749 10.5864 18.9714V17.8178H11.7893C11.7929 18.2134 11.7869 18.5936 11.7929 18.9654H15.2488V17.8499L15.3337 17.759H16.4053C16.4053 17.3836 16.4053 17.0171 16.4053 16.6506C16.4053 16.6434 16.4095 16.6357 16.4142 16.6292C16.419 16.6226 16.4261 16.6179 16.432 16.6125H17.6088L17.6082 16.6131Z" fill="white"/>
<path d="M16.4546 10.6892H17.5986C17.6212 11.0676 17.5986 11.4478 17.6111 11.8232C17.7044 11.8968 17.8077 11.8962 17.9141 11.895C18.2057 11.8921 18.498 11.8939 18.8009 11.8939V16.6132H17.6082V11.8962C17.2131 11.8891 16.833 11.901 16.4546 11.8891V10.6892Z" fill="white"/>
<path d="M10.5857 17.8178H9.38466C9.37813 17.4222 9.38466 17.0254 9.38109 16.6209H8.2406V11.8938H9.38228C9.38228 12.1611 9.39238 12.429 9.37931 12.6957C9.36624 12.9594 9.44109 13.2131 9.43753 13.4774C9.42386 14.4385 9.43218 15.3996 9.43218 16.3607V16.609C9.82779 16.6227 10.208 16.6001 10.5857 16.6221V17.8178Z" fill="white"/>
<path d="M11.7394 9.48398V8.35537C11.9574 8.31616 14.3114 8.30309 15.2411 8.33636V9.44715C15.2559 9.46319 15.2601 9.47032 15.2666 9.47507C15.2725 9.47923 15.2808 9.48339 15.288 9.48339C15.6711 9.48339 16.0542 9.48339 16.454 9.48339V10.688H15.2529C15.2422 10.2924 15.2618 9.91167 15.2411 9.53329H14.3477C14.0554 9.53329 13.7626 9.51903 13.4715 9.53744C13.1822 9.55526 12.9024 9.47804 12.6155 9.4822C12.3233 9.48636 12.031 9.48339 11.7394 9.48339V9.48398Z" fill="white"/>
<path d="M9.38232 11.8939V10.6892H10.5864V11.8939H9.38232Z" fill="white"/>
<path d="M10.5858 10.6893V9.48462H11.7394V10.6893H10.5858Z" fill="white"/>
<path d="M12.35 48.6421H11.1442V47.4945H9.9906V45.0899H11.7364V46.2239H14.0952V45.0881H15.8273C15.8635 45.2865 15.8748 46.7543 15.8433 47.4808H14.7052V48.6373H13.5445C13.5445 48.7098 13.5481 48.774 13.5445 48.8375C13.5243 49.1547 13.5018 49.4719 13.4798 49.7933H12.35V48.6421Z" fill="white"/>
</g>
<defs>
<clipPath id="clip0_230_1044">
<rect width="27" height="53.9602" fill="white"/>
</clipPath>
</defs>
</svg>
