<svg width="31" height="31" viewBox="0 0 31 31" fill="none" xmlns="http://www.w3.org/2000/svg">
<rect x="13.4109" y="13.3657" width="4.75215" height="4.75215" fill="white"/>
<rect x="13.4109" y="9.08911" width="4.75215" height="4.27693" fill="#64C4E2"/>
<rect x="18.1642" y="13.3657" width="4.27693" height="4.75215" fill="#64C4E2"/>
<rect x="13.4109" y="18.1172" width="4.75215" height="4.27693" fill="#64C4E2"/>
<rect x="9.13232" y="13.3657" width="4.27693" height="4.75215" fill="#64C4E2"/>
<rect x="13.4109" y="4.81152" width="4.75215" height="4.27693" fill="#64C4E2"/>
<rect x="13.4109" y="22.3948" width="4.75215" height="4.27693" fill="#64C4E2"/>
<rect x="9.13232" y="18.1172" width="4.27693" height="4.27693" fill="#57B1CD"/>
<rect x="9.13232" y="9.08911" width="4.27693" height="4.27693" fill="#57B1CD"/>
<rect x="18.1642" y="9.08911" width="4.27693" height="4.27693" fill="#57B1CD"/>
<rect x="18.1642" y="18.1172" width="4.27693" height="4.27693" fill="#57B1CD"/>
<rect x="4.85559" y="13.3657" width="4.27693" height="4.75215" fill="#57B1CD"/>
<rect x="4.85559" y="9.08911" width="4.27693" height="4.27693" fill="#468CA2"/>
<rect x="9.13232" y="4.81152" width="4.27693" height="4.27693" fill="#468CA2"/>
<rect x="18.1642" y="4.81152" width="4.27693" height="4.27693" fill="#468CA2"/>
<rect x="22.4408" y="9.08911" width="4.27693" height="4.27693" fill="#468CA2"/>
<rect x="22.4408" y="18.1172" width="4.27693" height="4.27693" fill="#468CA2"/>
<rect x="18.1642" y="22.3948" width="4.27693" height="4.27693" fill="#468CA2"/>
<rect x="9.13232" y="22.3948" width="4.27693" height="4.27693" fill="#468CA2"/>
<rect x="4.85559" y="18.1172" width="4.27693" height="4.27693" fill="#468CA2"/>
<rect x="13.4109" y="0.534912" width="4.75215" height="4.27693" fill="#64C4E2"/>
<rect x="13.4109" y="26.6726" width="4.75215" height="4.27693" fill="#64C4E2"/>
<rect x="0.578979" y="13.3657" width="4.27693" height="4.75215" fill="#57B1CD"/>
<rect x="26.7156" y="13.3657" width="4.27693" height="4.75215" fill="#57B1CD"/>
<rect x="22.4408" y="13.3657" width="4.27693" height="4.75215" fill="#57B1CD"/>
</svg>
