<svg width="618" height="72" viewBox="0 0 618 72" fill="none" xmlns="http://www.w3.org/2000/svg">
<rect x="8.29883" y="0.293457" width="599.98" height="65.4356" fill="#A9B149"/>
<rect x="0.00585938" y="9.51013" width="16.5893" height="46.0814" fill="#A9B149"/>
<rect x="600.909" y="9.51013" width="16.5893" height="46.0814" fill="#A9B149"/>
<path d="M176.428 28.0223H179.792V38.091H176.428V28.0223ZM184.838 39.773V26.3403L181.474 22.9533H171.405V43.137H181.474L184.838 39.773ZM202.206 38.091H193.796V34.7271H198.842V31.4092H193.796V28.0453H202.206V22.9994H188.774V43.16H202.206V38.091ZM206.119 22.9763V34.7271H212.801V38.091H206.119V43.137H219.552V31.3862H211.142V28.0223H219.552V22.9763H206.119ZM223.464 22.9763V43.137H228.464V22.9763H223.464ZM245.805 31.3862H239.077V34.7041H242.441V38.068H237.395V27.9992H245.805V26.3172L242.441 22.9533H232.372V43.1139H245.805V31.3862ZM259.808 22.9763V29.7042H258.126V28.0223H256.444V26.3403H254.763V22.9763H249.763V43.137H254.763V31.3862H256.444V33.0682H258.126V34.7041H259.808V43.1139H264.854V22.9533L259.808 22.9763ZM287.191 22.9763V31.3862H283.827V22.9763H278.828V31.3862H280.51V33.0682H282.145V34.7041H283.827V43.1139H287.191V34.7041H288.873V33.0682H290.555V31.3862H292.237V22.9763H287.191ZM301.173 28.0223H304.537V38.091H301.173V28.0223ZM296.173 22.9763V43.137H309.606V22.9763H296.173ZM321.882 22.9763V38.091H318.518V22.9763H313.518V43.137H326.951V22.9763H321.882ZM335.863 33.0682V28.0223H339.227V33.0682H335.863ZM330.864 22.9994V43.137H335.863V38.091H339.227V43.137H344.273V38.091H342.591V36.4091H340.909V33.0912H342.591V31.4092H344.273V22.9994H330.864ZM363.264 34.681H366.628V38.045H363.264V34.681ZM366.628 31.3632H363.264V27.9992H366.628V31.3632ZM371.674 39.7269V26.2942L369.992 24.6122H370.015L368.31 22.9303H358.241V43.0909H368.31L371.674 39.7269ZM383.973 33.0682H380.609V28.0223H383.973V33.0682ZM375.609 22.9763V43.137H380.609V39.773H383.973V43.137H389.019V22.9763H375.609ZM403.024 22.9763V29.7042H401.342V28.0223H399.66V26.3403H397.978V22.9763H392.978V43.137H397.978V31.3862H399.66V33.0682H401.342V34.7041H403.024V43.1139H408.069V22.9533L403.024 22.9763ZM422.056 22.9763V29.7042H420.374V28.0223H418.692V26.3403H417.011V22.9763H412.011V43.137H417.011V31.3862H418.692V33.0682H420.374V34.7041H422.056V43.1139H427.102V22.9533L422.056 22.9763ZM439.384 22.9763V31.3862H436.02V22.9763H431.021V31.3862H432.703V33.0682H434.338V34.7041H436.02V43.1139H439.384V34.7041H441.066V33.0682H442.748V31.3862H444.43V22.9763H439.384Z" fill="white"/>
</svg>
