<svg width="89" height="117" viewBox="0 0 89 117" fill="none" xmlns="http://www.w3.org/2000/svg">
<rect x="38.8608" y="0.431641" width="38.0611" height="10.8746" fill="#AB78FF"/>
<rect width="38.0611" height="10.8746" transform="matrix(1 0 0 -1 38.8608 116.557)" fill="#AB78FF"/>
<rect x="19.8281" y="9.75171" width="76.5105" height="12.4281" fill="#AB78FF"/>
<rect width="76.5105" height="12.4281" transform="matrix(1 0 0 -1 19.8281 106.847)" fill="#AB78FF"/>
<rect x="10.1187" y="18.2964" width="96.3178" height="20.9724" fill="#AB78FF"/>
<rect width="96.3178" height="20.9724" transform="matrix(1 0 0 -1 10.1187 98.6914)" fill="#AB78FF"/>
<rect x="0.0224609" y="38.8804" width="116.125" height="38.8378" fill="#AB78FF"/>
<rect x="0.0224609" y="57.5233" width="10.0978" height="10.0978" fill="#65408A"/>
<rect x="10.1187" y="57.5233" width="10.0978" height="10.0978" fill="#65408A"/>
<rect x="0.0224609" y="67.6215" width="10.0978" height="10.0978" fill="#65408A"/>
<rect x="10.1187" y="83.9336" width="22.9143" height="14.37" fill="#65408A"/>
<rect x="20.2188" y="83.9336" width="28.3516" height="22.9143" fill="#65408A"/>
<rect x="67.9897" y="96.7502" width="28.3516" height="10.0978" fill="#65408A"/>
<rect x="38.8608" y="96.7502" width="38.0611" height="19.8073" fill="#65408A"/>
<rect x="0.0224609" y="47.427" width="10.0978" height="10.0978" fill="#65408A"/>
<rect x="40.0249" y="61.4084" width="10.0978" height="10.0978" fill="#E0C566"/>
<rect x="62.0415" y="34.7426" width="10.0978" height="10.0978" fill="#E0C566"/>
<rect x="31.6914" y="32.1036" width="10.0978" height="10.0978" fill="#E0C566"/>
<rect x="52.8066" y="10.9893" width="10.0978" height="10.0978" fill="#E0C566"/>
<rect x="68.6426" y="78.2882" width="10.0978" height="10.0978" fill="#E0C566"/>
<rect x="46.2061" y="99.4026" width="10.0978" height="10.0978" fill="#CBB853"/>
<rect x="21.1338" y="83.567" width="10.0978" height="10.0978" fill="#CBB853"/>
<rect x="10.5781" y="43.9802" width="10.0978" height="10.0978" fill="#CBB853"/>
</svg>
