<svg width="168" height="88" viewBox="0 0 168 88" fill="none" xmlns="http://www.w3.org/2000/svg">
<rect x="51.9287" y="70.1617" width="64.4251" height="5.68457" fill="#B062FF"/>
<rect x="41.8862" y="64.478" width="84.5106" height="5.68457" fill="#B062FF"/>
<rect x="55.7192" y="75.8473" width="56.8457" height="5.68457" fill="#B062FF"/>
<rect x="60.4551" y="81.531" width="47.3714" height="5.68457" fill="#B062FF"/>
<rect x="26.5386" y="59.3619" width="25.3911" height="5.11611" fill="#B062FF"/>
<rect x="116.354" y="59.3619" width="25.3911" height="5.11611" fill="#B062FF"/>
<rect x="136.059" y="54.2458" width="15.5378" height="5.11611" fill="#B062FF"/>
<rect x="16.4961" y="54.2458" width="15.5378" height="5.11611" fill="#B062FF"/>
<rect x="6.45166" y="49.1296" width="11.1797" height="5.11611" fill="#B062FF"/>
<rect x="151.599" y="49.1296" width="11.1797" height="5.11611" fill="#B062FF"/>
<rect x="51.9287" y="50.4563" width="64.4251" height="14.0219" fill="#F4B3FF"/>
<rect x="32.0327" y="40.7917" width="19.896" height="18.5696" fill="#F4B3FF"/>
<rect x="116.163" y="40.7917" width="19.896" height="18.5696" fill="#F4B3FF"/>
<rect x="51.9287" y="45.5288" width="4.73714" height="4.92663" fill="#F4B3FF"/>
<rect x="111.237" y="45.5288" width="8.52685" height="6.25303" fill="#F4B3FF"/>
<rect x="16.4961" y="35.8661" width="18.0011" height="18.3801" fill="#F4B3FF"/>
<rect x="134.166" y="35.8661" width="18.0011" height="18.3801" fill="#F4B3FF"/>
<rect x="6.45166" y="40.7917" width="11.1797" height="8.33737" fill="#F4B3FF"/>
<rect x="150.462" y="40.7917" width="11.1797" height="8.33737" fill="#F4B3FF"/>
<rect x="0.388672" y="43.066" width="6.06354" height="6.06354" fill="#F4B3FF"/>
<rect x="161.64" y="43.066" width="6.06354" height="6.06354" fill="#F4B3FF"/>
<rect x="34.4946" y="35.4861" width="11.9376" height="5.3056" fill="#F4B3FF"/>
<rect width="12.6955" height="5.49508" transform="matrix(-1 0 0 1 134.166 36.0547)" fill="#F4B3FF"/>
<rect x="26.5386" y="30.5596" width="19.896" height="5.3056" fill="#F4B3FF"/>
<rect width="21.0329" height="5.68457" transform="matrix(-1 0 0 1 142.504 30.748)" fill="#F4B3FF"/>
<rect x="36.0107" y="25.2539" width="10.4217" height="5.3056" fill="#F4B3FF"/>
<rect width="10.9902" height="5.49508" transform="matrix(-1 0 0 1 132.459 25.2539)" fill="#F4B3FF"/>
<rect x="66.9009" y="0.810547" width="34.2969" height="4.92663" fill="#C5E5EC"/>
<rect x="61.4028" y="5.73706" width="45.2871" height="4.92663" fill="#C5E5EC"/>
<rect x="56.8545" y="10.6638" width="54.3824" height="4.92663" fill="#C5E5EC"/>
<rect x="51.9287" y="15.5903" width="64.2356" height="4.92663" fill="#C5E5EC"/>
<rect x="51.9287" y="20.5168" width="64.2356" height="4.92663" fill="#C5E5EC"/>
<rect x="46.4346" y="25.2539" width="75.0363" height="4.92663" fill="#C5E5EC"/>
<rect x="46.4346" y="30.1805" width="75.0363" height="4.92663" fill="#C5E5EC"/>
<rect x="46.4346" y="35.1071" width="75.0363" height="5.68457" fill="#C5E5EC"/>
<rect x="51.7393" y="40.7917" width="64.4251" height="5.68457" fill="#A2D7E8"/>
<rect x="56.2876" y="44.7708" width="54.9508" height="5.68457" fill="#A2D7E8"/>
<rect x="73.3428" y="54.2458" width="21.2224" height="6.632" fill="#E09D4E"/>
<rect x="34.4946" y="46.8564" width="14.9694" height="6.632" fill="#E09D4E"/>
<rect x="29.3794" y="32.4537" width="10.2322" height="6.632" fill="#E09D4E"/>
<rect x="129.996" y="32.4537" width="10.2322" height="6.632" fill="#E09D4E"/>
<rect x="117.681" y="47.0449" width="14.9694" height="6.632" fill="#E09D4E"/>
</svg>
