<svg width="85" height="84" viewBox="0 0 85 84" fill="none" xmlns="http://www.w3.org/2000/svg">
<rect width="27.2889" height="7.79682" transform="matrix(-1 0 0 1 56.1777 0.0966797)" fill="#4CE15B"/>
<rect x="56.1777" y="83.3546" width="27.2889" height="7.79682" transform="rotate(180 56.1777 83.3546)" fill="#4CE15B"/>
<rect width="54.8562" height="8.91065" transform="matrix(-1 0 0 1 69.8271 6.77869)" fill="#4CE15B"/>
<rect x="69.8271" y="76.394" width="54.8562" height="8.91065" transform="rotate(180 69.8271 76.394)" fill="#4CE15B"/>
<rect width="69.0576" height="15.0367" transform="matrix(-1 0 0 1 76.7856 12.9056)" fill="#4CE15B"/>
<rect x="76.7856" y="70.5466" width="69.0576" height="15.0367" transform="rotate(180 76.7856 70.5466)" fill="#4CE15B"/>
<rect width="83.2589" height="27.8458" transform="matrix(-1 0 0 1 84.0259 27.6633)" fill="#4CE15B"/>
<rect width="7.23991" height="7.23991" transform="matrix(-1 0 0 1 84.0259 41.0283)" fill="#1C8E00"/>
<rect width="7.23991" height="7.23991" transform="matrix(-1 0 0 1 76.7856 41.0283)" fill="#1C8E00"/>
<rect width="7.23991" height="7.23991" transform="matrix(-1 0 0 1 84.0259 48.2684)" fill="#1C8E00"/>
<rect width="16.429" height="10.3029" transform="matrix(-1 0 0 1 76.7856 59.9651)" fill="#1C8E00"/>
<rect width="20.3274" height="16.429" transform="matrix(-1 0 0 1 69.5459 59.9651)" fill="#1C8E00"/>
<rect width="20.3274" height="7.23991" transform="matrix(-1 0 0 1 35.2959 69.153)" fill="#1C8E00"/>
<rect width="27.2889" height="14.2014" transform="matrix(-1 0 0 1 56.1777 69.153)" fill="#1C8E00"/>
<rect width="7.23991" height="7.23991" transform="matrix(-1 0 0 1 84.0259 33.7902)" fill="#1C8E00"/>
<rect width="7.23991" height="7.23991" transform="matrix(-1 0 0 1 55.3433 43.8137)" fill="#E0C566"/>
<rect width="7.23991" height="7.23991" transform="matrix(-1 0 0 1 39.5576 24.6951)" fill="#E0C566"/>
<rect width="7.23991" height="7.23991" transform="matrix(-1 0 0 1 61.3179 22.8027)" fill="#E0C566"/>
<rect width="7.23991" height="7.23991" transform="matrix(-1 0 0 1 46.1831 7.66504)" fill="#E0C566"/>
<rect width="7.23991" height="7.23991" transform="matrix(-1 0 0 1 16.8516 30.3711)" fill="#E0C566"/>
<rect width="7.23991" height="7.23991" transform="matrix(-1 0 0 1 34.8271 55.9172)" fill="#E0C566"/>
<rect width="7.23991" height="7.23991" transform="matrix(-1 0 0 1 50.9116 71.0559)" fill="#CBB853"/>
<rect width="7.23991" height="7.23991" transform="matrix(-1 0 0 1 68.8892 59.7028)" fill="#CBB853"/>
<rect width="7.23991" height="7.23991" transform="matrix(-1 0 0 1 76.4565 31.3187)" fill="#CBB853"/>
</svg>
