<svg width="31" height="32" viewBox="0 0 31 32" fill="none" xmlns="http://www.w3.org/2000/svg">
<rect x="13.0908" y="13.611" width="4.75215" height="4.75215" fill="white"/>
<rect x="13.0908" y="9.33435" width="4.75215" height="4.27693" fill="#64C4E2"/>
<rect x="17.8442" y="13.611" width="4.27693" height="4.75215" fill="#64C4E2"/>
<rect x="13.0908" y="18.3624" width="4.75215" height="4.27693" fill="#64C4E2"/>
<rect x="8.81201" y="13.611" width="4.27693" height="4.75215" fill="#64C4E2"/>
<rect x="13.0908" y="5.05664" width="4.75215" height="4.27693" fill="#64C4E2"/>
<rect x="13.0908" y="22.64" width="4.75215" height="4.27693" fill="#64C4E2"/>
<rect x="8.81201" y="18.3624" width="4.27693" height="4.27693" fill="#57B1CD"/>
<rect x="8.81201" y="9.33435" width="4.27693" height="4.27693" fill="#57B1CD"/>
<rect x="17.8442" y="9.33435" width="4.27693" height="4.27693" fill="#57B1CD"/>
<rect x="17.8442" y="18.3624" width="4.27693" height="4.27693" fill="#57B1CD"/>
<rect x="4.53564" y="13.611" width="4.27693" height="4.75215" fill="#57B1CD"/>
<rect x="4.53564" y="9.33435" width="4.27693" height="4.27693" fill="#468CA2"/>
<rect x="8.81201" y="5.05664" width="4.27693" height="4.27693" fill="#468CA2"/>
<rect x="17.8442" y="5.05664" width="4.27693" height="4.27693" fill="#468CA2"/>
<rect x="22.1206" y="9.33435" width="4.27693" height="4.27693" fill="#468CA2"/>
<rect x="22.1206" y="18.3624" width="4.27693" height="4.27693" fill="#468CA2"/>
<rect x="17.8442" y="22.64" width="4.27693" height="4.27693" fill="#468CA2"/>
<rect x="8.81201" y="22.64" width="4.27693" height="4.27693" fill="#468CA2"/>
<rect x="4.53564" y="18.3624" width="4.27693" height="4.27693" fill="#468CA2"/>
<rect x="13.0908" y="0.780029" width="4.75215" height="4.27693" fill="#64C4E2"/>
<rect x="13.0908" y="26.9176" width="4.75215" height="4.27693" fill="#64C4E2"/>
<rect x="0.258789" y="13.611" width="4.27693" height="4.75215" fill="#57B1CD"/>
<rect x="26.3955" y="13.611" width="4.27693" height="4.75215" fill="#57B1CD"/>
<rect x="22.1206" y="13.611" width="4.27693" height="4.75215" fill="#57B1CD"/>
</svg>
