<svg width="31" height="31" viewBox="0 0 31 31" fill="none" xmlns="http://www.w3.org/2000/svg">
<rect x="12.8745" y="13.1936" width="4.75215" height="4.75215" fill="white"/>
<rect x="12.8745" y="8.91699" width="4.75215" height="4.27693" fill="#64C4E2"/>
<rect x="17.6279" y="13.1936" width="4.27693" height="4.75215" fill="#64C4E2"/>
<rect x="12.8745" y="17.9451" width="4.75215" height="4.27693" fill="#64C4E2"/>
<rect x="8.5957" y="13.1936" width="4.27693" height="4.75215" fill="#64C4E2"/>
<rect x="12.8745" y="4.63928" width="4.75215" height="4.27693" fill="#64C4E2"/>
<rect x="12.8745" y="22.2227" width="4.75215" height="4.27693" fill="#64C4E2"/>
<rect x="8.5957" y="17.9451" width="4.27693" height="4.27693" fill="#57B1CD"/>
<rect x="8.5957" y="8.91699" width="4.27693" height="4.27693" fill="#57B1CD"/>
<rect x="17.6279" y="8.91699" width="4.27693" height="4.27693" fill="#57B1CD"/>
<rect x="17.6279" y="17.9451" width="4.27693" height="4.27693" fill="#57B1CD"/>
<rect x="4.31934" y="13.1936" width="4.27693" height="4.75215" fill="#57B1CD"/>
<rect x="4.31934" y="8.91699" width="4.27693" height="4.27693" fill="#468CA2"/>
<rect x="8.5957" y="4.63928" width="4.27693" height="4.27693" fill="#468CA2"/>
<rect x="17.6279" y="4.63928" width="4.27693" height="4.27693" fill="#468CA2"/>
<rect x="21.9043" y="8.91699" width="4.27693" height="4.27693" fill="#468CA2"/>
<rect x="21.9043" y="17.9451" width="4.27693" height="4.27693" fill="#468CA2"/>
<rect x="17.6279" y="22.2227" width="4.27693" height="4.27693" fill="#468CA2"/>
<rect x="8.5957" y="22.2227" width="4.27693" height="4.27693" fill="#468CA2"/>
<rect x="4.31934" y="17.9451" width="4.27693" height="4.27693" fill="#468CA2"/>
<rect x="12.8745" y="0.362671" width="4.75215" height="4.27693" fill="#64C4E2"/>
<rect x="12.8745" y="26.5002" width="4.75215" height="4.27693" fill="#64C4E2"/>
<rect x="0.0424805" y="13.1936" width="4.27693" height="4.75215" fill="#57B1CD"/>
<rect x="26.1792" y="13.1936" width="4.27693" height="4.75215" fill="#57B1CD"/>
<rect x="21.9043" y="13.1936" width="4.27693" height="4.75215" fill="#57B1CD"/>
</svg>
