<svg width="33" height="33" viewBox="0 0 33 33" fill="none" xmlns="http://www.w3.org/2000/svg">
<rect x="13.7852" y="14.0173" width="5.04016" height="5.04016" fill="white"/>
<rect x="13.7852" y="9.48132" width="5.04016" height="4.53614" fill="#64C4E2"/>
<rect x="18.8257" y="14.0173" width="4.53614" height="5.04016" fill="#64C4E2"/>
<rect x="13.7852" y="19.0579" width="5.04016" height="4.53614" fill="#64C4E2"/>
<rect x="9.24854" y="14.0173" width="4.53614" height="5.04016" fill="#64C4E2"/>
<rect x="13.7852" y="4.94519" width="5.04016" height="4.53614" fill="#64C4E2"/>
<rect x="13.7852" y="23.5939" width="5.04016" height="4.53614" fill="#64C4E2"/>
<rect x="9.24854" y="19.0579" width="4.53614" height="4.53614" fill="#57B1CD"/>
<rect x="9.24854" y="9.48132" width="4.53614" height="4.53614" fill="#57B1CD"/>
<rect x="18.8257" y="9.48132" width="4.53614" height="4.53614" fill="#57B1CD"/>
<rect x="18.8257" y="19.0579" width="4.53614" height="4.53614" fill="#57B1CD"/>
<rect x="4.71338" y="14.0173" width="4.53614" height="5.04016" fill="#57B1CD"/>
<rect x="4.71338" y="9.48132" width="4.53614" height="4.53614" fill="#468CA2"/>
<rect x="9.24854" y="4.94519" width="4.53614" height="4.53614" fill="#468CA2"/>
<rect x="18.8257" y="4.94519" width="4.53614" height="4.53614" fill="#468CA2"/>
<rect x="23.3608" y="9.48132" width="4.53614" height="4.53614" fill="#468CA2"/>
<rect x="23.3608" y="19.0579" width="4.53614" height="4.53614" fill="#468CA2"/>
<rect x="18.8257" y="23.5939" width="4.53614" height="4.53614" fill="#468CA2"/>
<rect x="9.24854" y="23.5939" width="4.53614" height="4.53614" fill="#468CA2"/>
<rect x="4.71338" y="19.0579" width="4.53614" height="4.53614" fill="#468CA2"/>
<rect x="13.7852" y="0.40918" width="5.04016" height="4.53614" fill="#64C4E2"/>
<rect x="13.7852" y="28.1299" width="5.04016" height="4.53614" fill="#64C4E2"/>
<rect x="0.17627" y="14.0173" width="4.53614" height="5.04016" fill="#57B1CD"/>
<rect x="27.896" y="14.0173" width="4.53614" height="5.04016" fill="#57B1CD"/>
<rect x="23.3608" y="14.0173" width="4.53614" height="5.04016" fill="#57B1CD"/>
</svg>
