<svg width="31" height="31" viewBox="0 0 31 31" fill="none" xmlns="http://www.w3.org/2000/svg">
<rect x="13.4111" y="13.3658" width="4.75215" height="4.75215" fill="white"/>
<rect x="13.4111" y="9.08923" width="4.75215" height="4.27693" fill="#64C4E2"/>
<rect x="18.1646" y="13.3658" width="4.27693" height="4.75215" fill="#64C4E2"/>
<rect x="13.4111" y="18.1173" width="4.75215" height="4.27693" fill="#64C4E2"/>
<rect x="9.13232" y="13.3658" width="4.27693" height="4.75215" fill="#64C4E2"/>
<rect x="13.4111" y="4.81152" width="4.75215" height="4.27693" fill="#64C4E2"/>
<rect x="13.4111" y="22.3949" width="4.75215" height="4.27693" fill="#64C4E2"/>
<rect x="9.13232" y="18.1173" width="4.27693" height="4.27693" fill="#57B1CD"/>
<rect x="9.13232" y="9.08923" width="4.27693" height="4.27693" fill="#57B1CD"/>
<rect x="18.1646" y="9.08923" width="4.27693" height="4.27693" fill="#57B1CD"/>
<rect x="18.1646" y="18.1173" width="4.27693" height="4.27693" fill="#57B1CD"/>
<rect x="4.85596" y="13.3658" width="4.27693" height="4.75215" fill="#57B1CD"/>
<rect x="4.85596" y="9.08923" width="4.27693" height="4.27693" fill="#468CA2"/>
<rect x="9.13232" y="4.81152" width="4.27693" height="4.27693" fill="#468CA2"/>
<rect x="18.1646" y="4.81152" width="4.27693" height="4.27693" fill="#468CA2"/>
<rect x="22.4409" y="9.08923" width="4.27693" height="4.27693" fill="#468CA2"/>
<rect x="22.4409" y="18.1173" width="4.27693" height="4.27693" fill="#468CA2"/>
<rect x="18.1646" y="22.3949" width="4.27693" height="4.27693" fill="#468CA2"/>
<rect x="9.13232" y="22.3949" width="4.27693" height="4.27693" fill="#468CA2"/>
<rect x="4.85596" y="18.1173" width="4.27693" height="4.27693" fill="#468CA2"/>
<rect x="13.4111" y="0.534912" width="4.75215" height="4.27693" fill="#64C4E2"/>
<rect x="13.4111" y="26.6725" width="4.75215" height="4.27693" fill="#64C4E2"/>
<rect x="0.579102" y="13.3658" width="4.27693" height="4.75215" fill="#57B1CD"/>
<rect x="26.7158" y="13.3658" width="4.27693" height="4.75215" fill="#57B1CD"/>
<rect x="22.4409" y="13.3658" width="4.27693" height="4.75215" fill="#57B1CD"/>
</svg>
