<svg width="32" height="32" viewBox="0 0 32 32" fill="none" xmlns="http://www.w3.org/2000/svg">
<rect x="13.8154" y="13.5845" width="4.75215" height="4.75215" fill="white"/>
<rect x="13.8154" y="9.30786" width="4.75215" height="4.27693" fill="#64C4E2"/>
<rect x="18.5688" y="13.5845" width="4.27693" height="4.75215" fill="#64C4E2"/>
<rect x="13.8154" y="18.3359" width="4.75215" height="4.27693" fill="#64C4E2"/>
<rect x="9.53662" y="13.5845" width="4.27693" height="4.75215" fill="#64C4E2"/>
<rect x="13.8154" y="5.03027" width="4.75215" height="4.27693" fill="#64C4E2"/>
<rect x="13.8154" y="22.6135" width="4.75215" height="4.27693" fill="#64C4E2"/>
<rect x="9.53662" y="18.3359" width="4.27693" height="4.27693" fill="#57B1CD"/>
<rect x="9.53662" y="9.30786" width="4.27693" height="4.27693" fill="#57B1CD"/>
<rect x="18.5688" y="9.30786" width="4.27693" height="4.27693" fill="#57B1CD"/>
<rect x="18.5688" y="18.3359" width="4.27693" height="4.27693" fill="#57B1CD"/>
<rect x="5.26025" y="13.5845" width="4.27693" height="4.75215" fill="#57B1CD"/>
<rect x="5.26025" y="9.30786" width="4.27693" height="4.27693" fill="#468CA2"/>
<rect x="9.53662" y="5.03027" width="4.27693" height="4.27693" fill="#468CA2"/>
<rect x="18.5688" y="5.03027" width="4.27693" height="4.27693" fill="#468CA2"/>
<rect x="22.8452" y="9.30786" width="4.27693" height="4.27693" fill="#468CA2"/>
<rect x="22.8452" y="18.3359" width="4.27693" height="4.27693" fill="#468CA2"/>
<rect x="18.5688" y="22.6135" width="4.27693" height="4.27693" fill="#468CA2"/>
<rect x="9.53662" y="22.6135" width="4.27693" height="4.27693" fill="#468CA2"/>
<rect x="5.26025" y="18.3359" width="4.27693" height="4.27693" fill="#468CA2"/>
<rect x="13.8154" y="0.753662" width="4.75215" height="4.27693" fill="#64C4E2"/>
<rect x="13.8154" y="26.8914" width="4.75215" height="4.27693" fill="#64C4E2"/>
<rect x="0.983398" y="13.5845" width="4.27693" height="4.75215" fill="#57B1CD"/>
<rect x="27.1201" y="13.5845" width="4.27693" height="4.75215" fill="#57B1CD"/>
<rect x="22.8452" y="13.5845" width="4.27693" height="4.75215" fill="#57B1CD"/>
</svg>
