<svg width="31" height="31" viewBox="0 0 31 31" fill="none" xmlns="http://www.w3.org/2000/svg">
<rect x="13.2207" y="13.1537" width="4.75215" height="4.75215" fill="white"/>
<rect x="13.2207" y="8.87695" width="4.75215" height="4.27693" fill="#64C4E2"/>
<rect x="17.9741" y="13.1537" width="4.27693" height="4.75215" fill="#64C4E2"/>
<rect x="13.2207" y="17.9052" width="4.75215" height="4.27693" fill="#64C4E2"/>
<rect x="8.94189" y="13.1537" width="4.27693" height="4.75215" fill="#64C4E2"/>
<rect x="13.2207" y="4.59937" width="4.75215" height="4.27693" fill="#64C4E2"/>
<rect x="13.2207" y="22.1827" width="4.75215" height="4.27693" fill="#64C4E2"/>
<rect x="8.94189" y="17.9052" width="4.27693" height="4.27693" fill="#57B1CD"/>
<rect x="8.94189" y="8.87695" width="4.27693" height="4.27693" fill="#57B1CD"/>
<rect x="17.9741" y="8.87695" width="4.27693" height="4.27693" fill="#57B1CD"/>
<rect x="17.9741" y="17.9052" width="4.27693" height="4.27693" fill="#57B1CD"/>
<rect x="4.66553" y="13.1537" width="4.27693" height="4.75215" fill="#57B1CD"/>
<rect x="4.66553" y="8.87695" width="4.27693" height="4.27693" fill="#468CA2"/>
<rect x="8.94189" y="4.59937" width="4.27693" height="4.27693" fill="#468CA2"/>
<rect x="17.9741" y="4.59937" width="4.27693" height="4.27693" fill="#468CA2"/>
<rect x="22.2505" y="8.87695" width="4.27693" height="4.27693" fill="#468CA2"/>
<rect x="22.2505" y="17.9052" width="4.27693" height="4.27693" fill="#468CA2"/>
<rect x="17.9741" y="22.1827" width="4.27693" height="4.27693" fill="#468CA2"/>
<rect x="8.94189" y="22.1827" width="4.27693" height="4.27693" fill="#468CA2"/>
<rect x="4.66553" y="17.9052" width="4.27693" height="4.27693" fill="#468CA2"/>
<rect x="13.2207" y="0.322754" width="4.75215" height="4.27693" fill="#64C4E2"/>
<rect x="13.2207" y="26.4603" width="4.75215" height="4.27693" fill="#64C4E2"/>
<rect x="0.388672" y="13.1537" width="4.27693" height="4.75215" fill="#57B1CD"/>
<rect x="26.5254" y="13.1537" width="4.27693" height="4.75215" fill="#57B1CD"/>
<rect x="22.2505" y="13.1537" width="4.27693" height="4.75215" fill="#57B1CD"/>
</svg>
