<svg width="49" height="49" viewBox="0 0 49 49" fill="none" xmlns="http://www.w3.org/2000/svg">
<rect x="20.6875" y="20.7329" width="7.63224" height="7.63224" fill="white"/>
<rect x="20.6875" y="13.8643" width="7.63224" height="6.86901" fill="#64C4E2"/>
<rect x="28.3223" y="20.7329" width="6.86901" height="7.63224" fill="#64C4E2"/>
<rect x="20.6875" y="28.3645" width="7.63224" height="6.86901" fill="#64C4E2"/>
<rect x="13.8188" y="20.7329" width="6.86901" height="7.63224" fill="#64C4E2"/>
<rect x="20.6875" y="6.99463" width="7.63224" height="6.86901" fill="#64C4E2"/>
<rect x="20.6875" y="35.2343" width="7.63224" height="6.86901" fill="#64C4E2"/>
<rect x="13.8188" y="28.3645" width="6.86901" height="6.86901" fill="#57B1CD"/>
<rect x="13.8188" y="13.8643" width="6.86901" height="6.86901" fill="#57B1CD"/>
<rect x="28.3223" y="13.8643" width="6.86901" height="6.86901" fill="#57B1CD"/>
<rect x="28.3223" y="28.3645" width="6.86901" height="6.86901" fill="#57B1CD"/>
<rect x="6.95215" y="20.7329" width="6.86901" height="7.63224" fill="#57B1CD"/>
<rect x="6.95215" y="13.8643" width="6.86901" height="6.86901" fill="#468CA2"/>
<rect x="13.8188" y="6.99463" width="6.86901" height="6.86901" fill="#468CA2"/>
<rect x="28.3223" y="6.99463" width="6.86901" height="6.86901" fill="#468CA2"/>
<rect x="35.189" y="13.8643" width="6.86901" height="6.86901" fill="#468CA2"/>
<rect x="35.189" y="28.3645" width="6.86901" height="6.86901" fill="#468CA2"/>
<rect x="28.3223" y="35.2343" width="6.86901" height="6.86901" fill="#468CA2"/>
<rect x="13.8188" y="35.2343" width="6.86901" height="6.86901" fill="#468CA2"/>
<rect x="6.95215" y="28.3645" width="6.86901" height="6.86901" fill="#468CA2"/>
<rect x="20.6875" y="0.125977" width="7.63224" height="6.86901" fill="#64C4E2"/>
<rect x="20.6875" y="42.1029" width="7.63224" height="6.86901" fill="#64C4E2"/>
<rect x="0.081543" y="20.7329" width="6.86901" height="7.63224" fill="#57B1CD"/>
<rect x="42.0576" y="20.7329" width="6.86901" height="7.63224" fill="#57B1CD"/>
<rect x="35.189" y="20.7329" width="6.86901" height="7.63224" fill="#57B1CD"/>
</svg>
