<svg width="31" height="32" viewBox="0 0 31 32" fill="none" xmlns="http://www.w3.org/2000/svg">
<rect x="13.23" y="13.5813" width="4.75215" height="4.75215" fill="white"/>
<rect x="13.23" y="9.30469" width="4.75215" height="4.27693" fill="#64C4E2"/>
<rect x="17.9834" y="13.5813" width="4.27693" height="4.75215" fill="#64C4E2"/>
<rect x="13.23" y="18.3328" width="4.75215" height="4.27693" fill="#64C4E2"/>
<rect x="8.95117" y="13.5813" width="4.27693" height="4.75215" fill="#64C4E2"/>
<rect x="13.23" y="5.02698" width="4.75215" height="4.27693" fill="#64C4E2"/>
<rect x="13.23" y="22.6104" width="4.75215" height="4.27693" fill="#64C4E2"/>
<rect x="8.95117" y="18.3328" width="4.27693" height="4.27693" fill="#57B1CD"/>
<rect x="8.95117" y="9.30469" width="4.27693" height="4.27693" fill="#57B1CD"/>
<rect x="17.9834" y="9.30469" width="4.27693" height="4.27693" fill="#57B1CD"/>
<rect x="17.9834" y="18.3328" width="4.27693" height="4.27693" fill="#57B1CD"/>
<rect x="4.6748" y="13.5813" width="4.27693" height="4.75215" fill="#57B1CD"/>
<rect x="4.6748" y="9.30469" width="4.27693" height="4.27693" fill="#468CA2"/>
<rect x="8.95117" y="5.02698" width="4.27693" height="4.27693" fill="#468CA2"/>
<rect x="17.9834" y="5.02698" width="4.27693" height="4.27693" fill="#468CA2"/>
<rect x="22.2598" y="9.30469" width="4.27693" height="4.27693" fill="#468CA2"/>
<rect x="22.2598" y="18.3328" width="4.27693" height="4.27693" fill="#468CA2"/>
<rect x="17.9834" y="22.6104" width="4.27693" height="4.27693" fill="#468CA2"/>
<rect x="8.95117" y="22.6104" width="4.27693" height="4.27693" fill="#468CA2"/>
<rect x="4.6748" y="18.3328" width="4.27693" height="4.27693" fill="#468CA2"/>
<rect x="13.23" y="0.750366" width="4.75215" height="4.27693" fill="#64C4E2"/>
<rect x="13.23" y="26.8879" width="4.75215" height="4.27693" fill="#64C4E2"/>
<rect x="0.397949" y="13.5813" width="4.27693" height="4.75215" fill="#57B1CD"/>
<rect x="26.5347" y="13.5813" width="4.27693" height="4.75215" fill="#57B1CD"/>
<rect x="22.2598" y="13.5813" width="4.27693" height="4.75215" fill="#57B1CD"/>
</svg>
