<svg width="50" height="50" viewBox="0 0 50 50" fill="none" xmlns="http://www.w3.org/2000/svg">
<rect x="21.2104" y="21.0702" width="7.63224" height="7.63224" fill="white"/>
<rect x="21.2104" y="14.2014" width="7.63224" height="6.86901" fill="#64C4E2"/>
<rect x="28.8452" y="21.0702" width="6.86901" height="7.63224" fill="#64C4E2"/>
<rect x="21.2104" y="28.7017" width="7.63224" height="6.86901" fill="#64C4E2"/>
<rect x="14.3418" y="21.0702" width="6.86901" height="7.63224" fill="#64C4E2"/>
<rect x="21.2104" y="7.33179" width="7.63224" height="6.86901" fill="#64C4E2"/>
<rect x="21.2104" y="35.5714" width="7.63224" height="6.86901" fill="#64C4E2"/>
<rect x="14.3418" y="28.7017" width="6.86901" height="6.86901" fill="#57B1CD"/>
<rect x="14.3418" y="14.2014" width="6.86901" height="6.86901" fill="#57B1CD"/>
<rect x="28.8452" y="14.2014" width="6.86901" height="6.86901" fill="#57B1CD"/>
<rect x="28.8452" y="28.7017" width="6.86901" height="6.86901" fill="#57B1CD"/>
<rect x="7.4751" y="21.0702" width="6.86901" height="7.63224" fill="#57B1CD"/>
<rect x="7.4751" y="14.2014" width="6.86901" height="6.86901" fill="#468CA2"/>
<rect x="14.3418" y="7.33179" width="6.86901" height="6.86901" fill="#468CA2"/>
<rect x="28.8452" y="7.33179" width="6.86901" height="6.86901" fill="#468CA2"/>
<rect x="35.7119" y="14.2014" width="6.86901" height="6.86901" fill="#468CA2"/>
<rect x="35.7119" y="28.7017" width="6.86901" height="6.86901" fill="#468CA2"/>
<rect x="28.8452" y="35.5714" width="6.86901" height="6.86901" fill="#468CA2"/>
<rect x="14.3418" y="35.5714" width="6.86901" height="6.86901" fill="#468CA2"/>
<rect x="7.4751" y="28.7017" width="6.86901" height="6.86901" fill="#468CA2"/>
<rect x="21.2104" y="0.463135" width="7.63224" height="6.86901" fill="#64C4E2"/>
<rect x="21.2104" y="42.4401" width="7.63224" height="6.86901" fill="#64C4E2"/>
<rect x="0.604492" y="21.0702" width="6.86901" height="7.63224" fill="#57B1CD"/>
<rect x="42.5806" y="21.0702" width="6.86901" height="7.63224" fill="#57B1CD"/>
<rect x="35.7119" y="21.0702" width="6.86901" height="7.63224" fill="#57B1CD"/>
</svg>
