<svg width="31" height="32" viewBox="0 0 31 32" fill="none" xmlns="http://www.w3.org/2000/svg">
<rect x="12.8774" y="13.6832" width="4.75215" height="4.75215" fill="white"/>
<rect x="12.8774" y="9.40662" width="4.75215" height="4.27693" fill="#64C4E2"/>
<rect x="17.6309" y="13.6832" width="4.27693" height="4.75215" fill="#64C4E2"/>
<rect x="12.8774" y="18.4347" width="4.75215" height="4.27693" fill="#64C4E2"/>
<rect x="8.59863" y="13.6832" width="4.27693" height="4.75215" fill="#64C4E2"/>
<rect x="12.8774" y="5.12891" width="4.75215" height="4.27693" fill="#64C4E2"/>
<rect x="12.8774" y="22.7123" width="4.75215" height="4.27693" fill="#64C4E2"/>
<rect x="8.59863" y="18.4347" width="4.27693" height="4.27693" fill="#57B1CD"/>
<rect x="8.59863" y="9.40662" width="4.27693" height="4.27693" fill="#57B1CD"/>
<rect x="17.6309" y="9.40662" width="4.27693" height="4.27693" fill="#57B1CD"/>
<rect x="17.6309" y="18.4347" width="4.27693" height="4.27693" fill="#57B1CD"/>
<rect x="4.32227" y="13.6832" width="4.27693" height="4.75215" fill="#57B1CD"/>
<rect x="4.32227" y="9.40662" width="4.27693" height="4.27693" fill="#468CA2"/>
<rect x="8.59863" y="5.12891" width="4.27693" height="4.27693" fill="#468CA2"/>
<rect x="17.6309" y="5.12891" width="4.27693" height="4.27693" fill="#468CA2"/>
<rect x="21.9072" y="9.40662" width="4.27693" height="4.27693" fill="#468CA2"/>
<rect x="21.9072" y="18.4347" width="4.27693" height="4.27693" fill="#468CA2"/>
<rect x="17.6309" y="22.7123" width="4.27693" height="4.27693" fill="#468CA2"/>
<rect x="8.59863" y="22.7123" width="4.27693" height="4.27693" fill="#468CA2"/>
<rect x="4.32227" y="18.4347" width="4.27693" height="4.27693" fill="#468CA2"/>
<rect x="12.8774" y="0.852295" width="4.75215" height="4.27693" fill="#64C4E2"/>
<rect x="12.8774" y="26.9899" width="4.75215" height="4.27693" fill="#64C4E2"/>
<rect x="0.0454102" y="13.6832" width="4.27693" height="4.75215" fill="#57B1CD"/>
<rect x="26.1821" y="13.6832" width="4.27693" height="4.75215" fill="#57B1CD"/>
<rect x="21.9072" y="13.6832" width="4.27693" height="4.75215" fill="#57B1CD"/>
</svg>
