<svg width="32" height="31" viewBox="0 0 32 31" fill="none" xmlns="http://www.w3.org/2000/svg">
<rect x="13.6133" y="12.951" width="4.75215" height="4.75215" fill="white"/>
<rect x="13.6133" y="8.67444" width="4.75215" height="4.27693" fill="#64C4E2"/>
<rect x="18.3667" y="12.951" width="4.27693" height="4.75215" fill="#64C4E2"/>
<rect x="13.6133" y="17.7025" width="4.75215" height="4.27693" fill="#64C4E2"/>
<rect x="9.33447" y="12.951" width="4.27693" height="4.75215" fill="#64C4E2"/>
<rect x="13.6133" y="4.39673" width="4.75215" height="4.27693" fill="#64C4E2"/>
<rect x="13.6133" y="21.9801" width="4.75215" height="4.27693" fill="#64C4E2"/>
<rect x="9.33447" y="17.7025" width="4.27693" height="4.27693" fill="#57B1CD"/>
<rect x="9.33447" y="8.67444" width="4.27693" height="4.27693" fill="#57B1CD"/>
<rect x="18.3667" y="8.67444" width="4.27693" height="4.27693" fill="#57B1CD"/>
<rect x="18.3667" y="17.7025" width="4.27693" height="4.27693" fill="#57B1CD"/>
<rect x="5.05811" y="12.951" width="4.27693" height="4.75215" fill="#57B1CD"/>
<rect x="5.05811" y="8.67444" width="4.27693" height="4.27693" fill="#468CA2"/>
<rect x="9.33447" y="4.39673" width="4.27693" height="4.27693" fill="#468CA2"/>
<rect x="18.3667" y="4.39673" width="4.27693" height="4.27693" fill="#468CA2"/>
<rect x="22.6431" y="8.67444" width="4.27693" height="4.27693" fill="#468CA2"/>
<rect x="22.6431" y="17.7025" width="4.27693" height="4.27693" fill="#468CA2"/>
<rect x="18.3667" y="21.9801" width="4.27693" height="4.27693" fill="#468CA2"/>
<rect x="9.33447" y="21.9801" width="4.27693" height="4.27693" fill="#468CA2"/>
<rect x="5.05811" y="17.7025" width="4.27693" height="4.27693" fill="#468CA2"/>
<rect x="13.6133" y="0.120117" width="4.75215" height="4.27693" fill="#64C4E2"/>
<rect x="13.6133" y="26.2577" width="4.75215" height="4.27693" fill="#64C4E2"/>
<rect x="0.78125" y="12.951" width="4.27693" height="4.75215" fill="#57B1CD"/>
<rect x="26.918" y="12.951" width="4.27693" height="4.75215" fill="#57B1CD"/>
<rect x="22.6431" y="12.951" width="4.27693" height="4.75215" fill="#57B1CD"/>
</svg>
