<svg width="32" height="32" viewBox="0 0 32 32" fill="none" xmlns="http://www.w3.org/2000/svg">
<rect x="13.6992" y="13.4276" width="4.75215" height="4.75215" fill="white"/>
<rect x="13.6992" y="9.151" width="4.75215" height="4.27693" fill="#64C4E2"/>
<rect x="18.4526" y="13.4276" width="4.27693" height="4.75215" fill="#64C4E2"/>
<rect x="13.6992" y="18.1791" width="4.75215" height="4.27693" fill="#64C4E2"/>
<rect x="9.42041" y="13.4276" width="4.27693" height="4.75215" fill="#64C4E2"/>
<rect x="13.6992" y="4.87329" width="4.75215" height="4.27693" fill="#64C4E2"/>
<rect x="13.6992" y="22.4567" width="4.75215" height="4.27693" fill="#64C4E2"/>
<rect x="9.42041" y="18.1791" width="4.27693" height="4.27693" fill="#57B1CD"/>
<rect x="9.42041" y="9.151" width="4.27693" height="4.27693" fill="#57B1CD"/>
<rect x="18.4526" y="9.151" width="4.27693" height="4.27693" fill="#57B1CD"/>
<rect x="18.4526" y="18.1791" width="4.27693" height="4.27693" fill="#57B1CD"/>
<rect x="5.14404" y="13.4276" width="4.27693" height="4.75215" fill="#57B1CD"/>
<rect x="5.14404" y="9.151" width="4.27693" height="4.27693" fill="#468CA2"/>
<rect x="9.42041" y="4.87329" width="4.27693" height="4.27693" fill="#468CA2"/>
<rect x="18.4526" y="4.87329" width="4.27693" height="4.27693" fill="#468CA2"/>
<rect x="22.729" y="9.151" width="4.27693" height="4.27693" fill="#468CA2"/>
<rect x="22.729" y="18.1791" width="4.27693" height="4.27693" fill="#468CA2"/>
<rect x="18.4526" y="22.4567" width="4.27693" height="4.27693" fill="#468CA2"/>
<rect x="9.42041" y="22.4567" width="4.27693" height="4.27693" fill="#468CA2"/>
<rect x="5.14404" y="18.1791" width="4.27693" height="4.27693" fill="#468CA2"/>
<rect x="13.6992" y="0.59668" width="4.75215" height="4.27693" fill="#64C4E2"/>
<rect x="13.6992" y="26.7343" width="4.75215" height="4.27693" fill="#64C4E2"/>
<rect x="0.867188" y="13.4276" width="4.27693" height="4.75215" fill="#57B1CD"/>
<rect x="27.0039" y="13.4276" width="4.27693" height="4.75215" fill="#57B1CD"/>
<rect x="22.729" y="13.4276" width="4.27693" height="4.75215" fill="#57B1CD"/>
</svg>
