<svg width="26" height="26" viewBox="0 0 26 26" fill="none" xmlns="http://www.w3.org/2000/svg">
<rect x="10.9082" y="10.6621" width="3.88812" height="3.88812" fill="white"/>
<rect x="10.9082" y="7.16174" width="3.88812" height="3.49931" fill="#64C4E2"/>
<rect x="14.7959" y="10.6621" width="3.49931" height="3.88812" fill="#64C4E2"/>
<rect x="10.9082" y="14.5502" width="3.88812" height="3.49931" fill="#64C4E2"/>
<rect x="7.40869" y="10.6621" width="3.49931" height="3.88812" fill="#64C4E2"/>
<rect x="10.9082" y="3.66321" width="3.88812" height="3.49931" fill="#64C4E2"/>
<rect x="10.9082" y="18.0496" width="3.88812" height="3.49931" fill="#64C4E2"/>
<rect x="7.40869" y="14.5502" width="3.49931" height="3.49931" fill="#57B1CD"/>
<rect x="7.40869" y="7.16174" width="3.49931" height="3.49931" fill="#57B1CD"/>
<rect x="14.7959" y="7.16174" width="3.49931" height="3.49931" fill="#57B1CD"/>
<rect x="14.7959" y="14.5502" width="3.49931" height="3.49931" fill="#57B1CD"/>
<rect x="3.91113" y="10.6621" width="3.49931" height="3.88812" fill="#57B1CD"/>
<rect x="3.91113" y="7.16174" width="3.49931" height="3.49931" fill="#468CA2"/>
<rect x="7.40869" y="3.66321" width="3.49931" height="3.49931" fill="#468CA2"/>
<rect x="14.7959" y="3.66321" width="3.49931" height="3.49931" fill="#468CA2"/>
<rect x="18.2954" y="7.16174" width="3.49931" height="3.49931" fill="#468CA2"/>
<rect x="18.2954" y="14.5502" width="3.49931" height="3.49931" fill="#468CA2"/>
<rect x="14.7959" y="18.0496" width="3.49931" height="3.49931" fill="#468CA2"/>
<rect x="7.40869" y="18.0496" width="3.49931" height="3.49931" fill="#468CA2"/>
<rect x="3.91113" y="14.5502" width="3.49931" height="3.49931" fill="#468CA2"/>
<rect x="10.9082" y="0.163818" width="3.88812" height="3.49931" fill="#64C4E2"/>
<rect x="10.9082" y="21.5491" width="3.88812" height="3.49931" fill="#64C4E2"/>
<rect x="0.409668" y="10.6621" width="3.49931" height="3.88812" fill="#57B1CD"/>
<rect x="21.793" y="10.6621" width="3.49931" height="3.88812" fill="#57B1CD"/>
<rect x="18.2954" y="10.6621" width="3.49931" height="3.88812" fill="#57B1CD"/>
</svg>
