<svg width="50" height="50" viewBox="0 0 50 50" fill="none" xmlns="http://www.w3.org/2000/svg">
<rect x="21.394" y="21.5375" width="7.63224" height="7.63224" fill="white"/>
<rect x="21.394" y="14.6687" width="7.63224" height="6.86901" fill="#64C4E2"/>
<rect x="29.0288" y="21.5375" width="6.86901" height="7.63224" fill="#64C4E2"/>
<rect x="21.394" y="29.1689" width="7.63224" height="6.86901" fill="#64C4E2"/>
<rect x="14.5254" y="21.5375" width="6.86901" height="7.63224" fill="#64C4E2"/>
<rect x="21.394" y="7.79907" width="7.63224" height="6.86901" fill="#64C4E2"/>
<rect x="21.394" y="36.0387" width="7.63224" height="6.86901" fill="#64C4E2"/>
<rect x="14.5254" y="29.1689" width="6.86901" height="6.86901" fill="#57B1CD"/>
<rect x="14.5254" y="14.6687" width="6.86901" height="6.86901" fill="#57B1CD"/>
<rect x="29.0288" y="14.6687" width="6.86901" height="6.86901" fill="#57B1CD"/>
<rect x="29.0288" y="29.1689" width="6.86901" height="6.86901" fill="#57B1CD"/>
<rect x="7.65869" y="21.5375" width="6.86901" height="7.63224" fill="#57B1CD"/>
<rect x="7.65869" y="14.6687" width="6.86901" height="6.86901" fill="#468CA2"/>
<rect x="14.5254" y="7.79907" width="6.86901" height="6.86901" fill="#468CA2"/>
<rect x="29.0288" y="7.79907" width="6.86901" height="6.86901" fill="#468CA2"/>
<rect x="35.8955" y="14.6687" width="6.86901" height="6.86901" fill="#468CA2"/>
<rect x="35.8955" y="29.1689" width="6.86901" height="6.86901" fill="#468CA2"/>
<rect x="29.0288" y="36.0387" width="6.86901" height="6.86901" fill="#468CA2"/>
<rect x="14.5254" y="36.0387" width="6.86901" height="6.86901" fill="#468CA2"/>
<rect x="7.65869" y="29.1689" width="6.86901" height="6.86901" fill="#468CA2"/>
<rect x="21.394" y="0.93042" width="7.63224" height="6.86901" fill="#64C4E2"/>
<rect x="21.394" y="42.9073" width="7.63224" height="6.86901" fill="#64C4E2"/>
<rect x="0.788086" y="21.5375" width="6.86901" height="7.63224" fill="#57B1CD"/>
<rect x="42.7642" y="21.5375" width="6.86901" height="7.63224" fill="#57B1CD"/>
<rect x="35.8955" y="21.5375" width="6.86901" height="7.63224" fill="#57B1CD"/>
</svg>
