<svg width="46" height="12" viewBox="0 0 46 12" fill="none" xmlns="http://www.w3.org/2000/svg">
<path d="M0.932745 11.4519V0.851547H4.71859C5.81901 0.851547 6.65189 1.10394 7.21724 1.60872C7.78259 2.11349 8.06527 2.76466 8.06527 3.56221C8.06527 4.17804 7.90374 4.67777 7.58068 5.0614C7.25762 5.44504 6.88409 5.72266 6.46007 5.89429V6.00029C6.96485 6.18201 7.39896 6.47983 7.7624 6.89375C8.12584 7.29757 8.30757 7.83264 8.30757 8.49895C8.30757 9.04411 8.17127 9.54384 7.89869 9.99814C7.63621 10.4423 7.24753 10.7957 6.73265 11.0582C6.21778 11.3207 5.58681 11.4519 4.83973 11.4519H0.932745ZM2.53794 5.27341H4.52172C5.13755 5.27341 5.607 5.15226 5.93006 4.90997C6.25311 4.65758 6.41464 4.279 6.41464 3.77422C6.41464 2.77476 5.77357 2.27502 4.49144 2.27502H2.53794V5.27341ZM2.53794 9.96785H4.62773C5.28394 9.96785 5.78872 9.82652 6.14206 9.54384C6.49541 9.26116 6.67208 8.84725 6.67208 8.30208C6.67208 7.76702 6.48531 7.35815 6.11178 7.07547C5.73824 6.7827 5.23346 6.63631 4.59744 6.63631H2.53794V9.96785ZM9.58883 11.4519L12.7538 0.851547H14.6619L17.8268 11.4519H16.0853L15.3736 8.90782H12.0421L11.3303 11.4519H9.58883ZM13.6624 3.12305L12.4055 7.62063H15.0102L13.7533 3.12305H13.6624ZM19.0172 11.4519V0.851547H20.5921L25.0292 8.62009V0.851547H26.5586V11.4519H24.9837L20.5467 3.68336V11.4519H19.0172ZM28.0973 11.4519V0.851547H29.6722L34.1093 8.62009V0.851547H35.6387V11.4519H34.0638L29.6268 3.68336V11.4519H28.0973ZM40.1455 11.4519V7.42377L36.6474 0.851547H38.4798L40.9481 5.72771L43.4165 0.851547H45.2489L41.7507 7.42377V11.4519H40.1455Z" fill="black"/>
</svg>
