<svg width="173" height="56" viewBox="0 0 173 56" fill="none" xmlns="http://www.w3.org/2000/svg">
<path d="M60.3147 34.0468V21.144H64.5358C65.5434 21.144 66.3729 21.3161 67.0241 21.6601C67.6877 22.0042 68.1793 22.4712 68.4988 23.061C68.8305 23.6386 68.9964 24.296 68.9964 25.0333C68.9964 25.8689 68.7814 26.6123 68.3513 27.2636C67.9335 27.9026 67.2883 28.3696 66.4159 28.6645L69.1255 34.0468H66.8583L64.3883 28.941H62.2685V34.0468H60.3147ZM62.2685 27.1715H64.4252C65.3099 27.1715 65.9551 26.9749 66.3606 26.5816C66.7784 26.1884 66.9873 25.6723 66.9873 25.0333C66.9873 24.382 66.7845 23.8659 66.379 23.485C65.9735 23.0917 65.3161 22.8951 64.4067 22.8951H62.2685V27.1715ZM71.4592 34.0468V21.144H79.6986V22.8951H73.4131V26.6554H79.1456V28.388H73.4131V32.2957H79.6986V34.0468H71.4592ZM86.6957 34.268C85.7864 34.268 84.9876 34.1021 84.2995 33.7703C83.6236 33.4385 83.0891 32.9654 82.6959 32.351C82.3149 31.7366 82.1183 31.0054 82.106 30.1575H84.1705C84.1828 30.8088 84.404 31.3679 84.834 31.8349C85.2764 32.2896 85.8908 32.5169 86.6773 32.5169C87.4023 32.5169 87.9676 32.351 88.3731 32.0192C88.7786 31.6752 88.9814 31.2328 88.9814 30.6921C88.9814 30.2374 88.8585 29.8626 88.6127 29.5677C88.3792 29.2605 88.0106 28.9901 87.5068 28.7567C87.0029 28.5109 86.3517 28.259 85.5529 28.0009C84.4838 27.6569 83.6974 27.1838 83.1935 26.5816C82.6897 25.9672 82.4378 25.2176 82.4378 24.3328C82.4378 23.3129 82.8065 22.4896 83.5438 21.8629C84.2811 21.2362 85.2949 20.9228 86.5851 20.9228C87.8386 20.9228 88.8462 21.2485 89.6081 21.8997C90.37 22.5387 90.7632 23.4297 90.7878 24.5725H88.7049C88.7049 24.2653 88.6189 23.9703 88.4468 23.6877C88.2748 23.3928 88.029 23.1532 87.7095 22.9688C87.39 22.7722 86.9968 22.6739 86.5298 22.6739C85.9523 22.6616 85.4669 22.8029 85.0737 23.0979C84.6804 23.3805 84.4838 23.7676 84.4838 24.2591C84.4838 24.8612 84.7234 25.3344 85.2027 25.6784C85.6819 26.0102 86.4623 26.3543 87.5436 26.7107C88.2195 26.9318 88.8155 27.2022 89.3316 27.5217C89.86 27.8289 90.2717 28.2283 90.5666 28.7198C90.8738 29.199 91.0274 29.8135 91.0274 30.5631C91.0274 31.2512 90.8553 31.8779 90.5113 32.4432C90.1672 32.9962 89.6695 33.4385 89.0182 33.7703C88.3792 34.1021 87.6051 34.268 86.6957 34.268ZM93.5639 34.0468V21.144H101.803V22.8951H95.5177V26.6554H101.25V28.388H95.5177V32.2957H101.803V34.0468H93.5639ZM107.694 34.0468V22.8951H104.229V21.144H113.114V22.8951H109.648V34.0468H107.694Z" fill="black"/>
<mask id="path-2-inside-1_2658_35577" fill="white">
<path fill-rule="evenodd" clip-rule="evenodd" d="M165.349 0.085022H6.45332V8.37929H0.869019V48.0098H7.23069V55.3827H165.884V48.0098H172.292V8.37929H165.349V0.085022Z"/>
</mask>
<path d="M6.45332 0.085022V-2.67986H3.68843V0.085022H6.45332ZM165.349 0.085022H168.114V-2.67986H165.349V0.085022ZM6.45332 8.37929V11.1442H9.2182V8.37929H6.45332ZM0.869019 8.37929V5.6144H-1.89587V8.37929H0.869019ZM0.869019 48.0098H-1.89587V50.7747H0.869019V48.0098ZM7.23069 48.0098H9.99557V45.2449H7.23069V48.0098ZM7.23069 55.3827H4.4658V58.1476H7.23069V55.3827ZM165.884 55.3827V58.1476H168.649V55.3827H165.884ZM165.884 48.0098V45.2449H163.119V48.0098H165.884ZM172.292 48.0098V50.7747H175.057V48.0098H172.292ZM172.292 8.37929H175.057V5.6144H172.292V8.37929ZM165.349 8.37929H162.584V11.1442H165.349V8.37929ZM6.45332 2.84991H165.349V-2.67986H6.45332V2.84991ZM9.2182 8.37929V0.085022H3.68843V8.37929H9.2182ZM0.869019 11.1442H6.45332V5.6144H0.869019V11.1442ZM3.6339 48.0098V8.37929H-1.89587V48.0098H3.6339ZM0.869019 50.7747H7.23069V45.2449H0.869019V50.7747ZM4.4658 48.0098V55.3827H9.99557V48.0098H4.4658ZM165.884 52.6178H7.23069V58.1476H165.884V52.6178ZM163.119 48.0098V55.3827H168.649V48.0098H163.119ZM172.292 45.2449H165.884V50.7747H172.292V45.2449ZM169.527 8.37929V48.0098H175.057V8.37929H169.527ZM165.349 11.1442H172.292V5.6144H165.349V11.1442ZM162.584 0.085022V8.37929H168.114V0.085022H162.584Z" fill="#A9B149" mask="url(#path-2-inside-1_2658_35577)"/>
</svg>
