<svg width="262" height="56" viewBox="0 0 262 56" fill="none" xmlns="http://www.w3.org/2000/svg">
<path fill-rule="evenodd" clip-rule="evenodd" d="M250.875 0.085022H9.11395V8.37929H0.616943V48.0098H10.2972V55.3827H251.687V48.0098H261.438V8.37929H250.875V0.085022Z" fill="#CACE9E"/>
<path d="M60.3936 33.439V20.5362H62.458L65.1307 26.3609L67.8034 20.5362H69.8679V33.439H68.0062V24.2595L65.9049 28.8677H64.3566L62.2552 24.278V33.439H60.3936ZM72.4044 33.439V31.7063H75.2061V22.2688H72.4413V20.5362H79.9249V22.2688H77.16V31.7063H79.9617V33.439H72.4044ZM82.6457 33.439V20.5362H84.5627L89.9634 29.9921V20.5362H91.8251V33.439H89.9081L84.5074 23.9831V33.439H82.6457ZM97.3108 33.439V22.2873H93.8455V20.5362H102.73V22.2873H99.2647V33.439H97.3108ZM115.655 33.439V20.5362H117.72L120.392 26.3609L123.065 20.5362H125.13V33.439H123.268V24.2595L121.167 28.8677H119.618L117.517 24.278V33.439H115.655ZM130.468 33.439V28.5359L126.21 20.5362H128.44L131.445 26.4715L134.449 20.5362H136.68L132.422 28.5359V33.439H130.468ZM149.052 33.439V20.5362H153.66C154.999 20.5362 156.013 20.8434 156.701 21.4578C157.39 22.0722 157.734 22.8648 157.734 23.8356C157.734 24.5852 157.537 25.1935 157.144 25.6604C156.751 26.1274 156.296 26.4653 155.78 26.6742V26.8032C156.394 27.0244 156.923 27.3869 157.365 27.8908C157.807 28.3823 158.029 29.0336 158.029 29.8446C158.029 30.5082 157.863 31.1165 157.531 31.6694C157.211 32.2101 156.738 32.6402 156.112 32.9597C155.485 33.2792 154.717 33.439 153.808 33.439H149.052ZM151.006 25.9185H153.42C154.17 25.9185 154.741 25.771 155.135 25.4761C155.528 25.1689 155.724 24.7081 155.724 24.0937C155.724 22.8771 154.944 22.2688 153.384 22.2688H151.006V25.9185ZM151.006 31.6326H153.549C154.348 31.6326 154.963 31.4605 155.393 31.1165C155.823 30.7724 156.038 30.2686 156.038 29.605C156.038 28.9537 155.811 28.456 155.356 28.112C154.901 27.7556 154.287 27.5774 153.513 27.5774H151.006V31.6326ZM159.588 33.439L163.441 20.5362H165.763L169.615 33.439H167.496L166.629 30.3423H162.574L161.708 33.439H159.588ZM164.546 23.3011L163.017 28.7755H166.187L164.657 23.3011H164.546ZM171.064 33.439V20.5362H172.981L178.382 29.9921V20.5362H180.244V33.439H178.327L172.926 23.9831V33.439H171.064ZM182.117 33.439V20.5362H184.034L189.435 29.9921V20.5362H191.296V33.439H189.379L183.978 23.9831V33.439H182.117ZM196.782 33.439V28.5359L192.524 20.5362H194.754L197.759 26.4715L200.763 20.5362H202.994L198.736 28.5359V33.439H196.782Z" fill="white"/>
</svg>
