<svg width="18" height="19" viewBox="0 0 18 19" fill="none" xmlns="http://www.w3.org/2000/svg">
<path d="M9.99619 9.18488L15.1721 3.01514C15.2589 2.91261 15.1859 2.75684 15.0519 2.75684H13.4784C13.3857 2.75684 13.297 2.79824 13.2358 2.86923L8.96691 7.95842L4.69798 2.86923C4.63883 2.79824 4.5501 2.75684 4.45545 2.75684H2.88196C2.74788 2.75684 2.67492 2.91261 2.76168 3.01514L7.93764 9.18488L2.76168 15.3546C2.74225 15.3775 2.72978 15.4054 2.72576 15.4352C2.72174 15.4649 2.72633 15.4951 2.73899 15.5223C2.75166 15.5495 2.77186 15.5725 2.7972 15.5886C2.82254 15.6046 2.85196 15.6131 2.88196 15.6129H4.45545C4.54813 15.6129 4.63686 15.5715 4.69798 15.5005L8.96691 10.4113L13.2358 15.5005C13.295 15.5715 13.3837 15.6129 13.4784 15.6129H15.0519C15.1859 15.6129 15.2589 15.4572 15.1721 15.3546L9.99619 9.18488Z" fill="black" fill-opacity="0.85"/>
</svg>
