<svg width="30" height="11" viewBox="0 0 30 11" fill="none" xmlns="http://www.w3.org/2000/svg">
<path d="M0.787687 10.3159V0.893379H6.83157V2.226H2.21453V5.1066H6.09123V6.35845H2.21453V10.3159H0.787687ZM7.70126 10.3159L10.5146 0.893379H12.2106L15.0239 10.3159H13.4759L12.8433 8.05451H9.88191L9.24925 10.3159H7.70126ZM11.3222 2.91249L10.205 6.91034H12.5202L11.403 2.91249H11.3222ZM19.0569 10.4774C18.2672 10.4774 17.5942 10.2755 17.0378 9.87171C16.4904 9.46789 16.0686 8.90254 15.7725 8.17566C15.4853 7.4398 15.3417 6.58728 15.3417 5.61811C15.3417 4.63996 15.4853 3.78744 15.7725 3.06056C16.0686 2.32471 16.4949 1.75487 17.0512 1.35105C17.6076 0.938248 18.2762 0.73185 19.0569 0.73185C20.0709 0.73185 20.8786 1.01004 21.4798 1.56642C22.0811 2.11382 22.4311 2.85865 22.5298 3.80091H20.9549C20.8741 3.30734 20.6722 2.89903 20.3491 2.57597C20.035 2.24394 19.5998 2.07793 19.0434 2.07793C18.3345 2.07793 17.7826 2.39201 17.3878 3.02018C16.9929 3.64835 16.7955 4.51433 16.7955 5.61811C16.7955 6.71292 16.9929 7.57441 17.3878 8.20258C17.7826 8.82177 18.3345 9.13137 19.0434 9.13137C19.6178 9.13137 20.0575 8.9833 20.3626 8.68716C20.6677 8.38205 20.8651 7.98272 20.9549 7.48916H22.5298C22.3862 8.41346 22.0228 9.14483 21.4395 9.68326C20.8562 10.2127 20.062 10.4774 19.0569 10.4774ZM23.736 10.3159V0.893379H29.7529V2.17215H25.1628V4.91815H29.3491V6.18346H25.1628V9.03714H29.7529V10.3159H23.736Z" fill="white"/>
</svg>
