<svg width="69" height="10" viewBox="0 0 69 10" fill="none" xmlns="http://www.w3.org/2000/svg">
<path d="M0.0172236 9.78857V0.366035H1.44407V4.26966H5.56306V0.366035H6.9899V9.78857H5.56306V5.57535H1.44407V9.78857H0.0172236ZM8.20957 9.78857V0.366035H14.2265V1.64481H9.63642V4.39081H13.8227V5.65612H9.63642V8.5098H14.2265V9.78857H8.20957ZM15.177 9.78857L17.9903 0.366035H19.6864L22.4997 9.78857H20.9517L20.319 7.52716H17.3576L16.725 9.78857H15.177ZM18.7979 2.38515L17.6807 6.383H19.9959L18.8787 2.38515H18.7979ZM23.2347 9.78857V0.366035H25.4961C27.0127 0.366035 28.1389 0.787806 28.8748 1.63135C29.6107 2.46592 29.9786 3.61457 29.9786 5.0773C29.9786 6.54004 29.6107 7.69318 28.8748 8.53672C28.1389 9.37129 27.0127 9.78857 25.4961 9.78857H23.2347ZM24.6616 8.46942H25.4423C26.5371 8.46942 27.3268 8.16431 27.8114 7.55409C28.296 6.93489 28.5383 6.1093 28.5383 5.0773C28.5383 4.04531 28.296 3.22421 27.8114 2.61398C27.3268 1.99479 26.5371 1.68519 25.4423 1.68519H24.6616V8.46942ZM41.7193 9.9501C41.0194 9.9501 40.4047 9.75268 39.8752 9.35783C39.3457 8.95401 38.9329 8.38865 38.6368 7.66177C38.3407 6.93489 38.1926 6.0734 38.1926 5.0773C38.1926 4.09916 38.3407 3.24664 38.6368 2.51976C38.9329 1.79288 39.3547 1.22752 39.9021 0.823702C40.4585 0.410905 41.1226 0.204506 41.8943 0.204506C42.8276 0.204506 43.5769 0.460261 44.1423 0.97177C44.7166 1.48328 45.0666 2.20567 45.1922 3.13895H43.6442C43.5545 2.65437 43.357 2.26849 43.0519 1.98133C42.7558 1.69416 42.3699 1.55058 41.8943 1.55058C41.1674 1.55058 40.611 1.86467 40.2252 2.49284C39.8393 3.12101 39.6464 3.9825 39.6464 5.0773C39.6464 6.21698 39.8483 7.09193 40.2521 7.70215C40.6649 8.3034 41.1988 8.60403 41.8539 8.60403C42.2936 8.60403 42.6571 8.47391 42.9442 8.21366C43.2314 7.95342 43.4513 7.62139 43.6038 7.21757C43.7564 6.80477 43.8506 6.36954 43.8865 5.91187H41.9078V4.72732H45.3268V9.78857H44.0076L43.9134 8.52326H43.8327C43.6532 8.93606 43.4019 9.27706 43.0789 9.54628C42.7558 9.8155 42.3026 9.9501 41.7193 9.9501ZM46.5465 9.78857V0.366035H52.5634V1.64481H47.9733V4.39081H52.1596V5.65612H47.9733V8.5098H52.5634V9.78857H46.5465ZM53.5139 9.78857L56.3272 0.366035H58.0233L60.8366 9.78857H59.2886L58.6559 7.52716H55.6945L55.0619 9.78857H53.5139ZM57.1348 2.38515L56.0176 6.383H58.3329L57.2156 2.38515H57.1348ZM61.8139 9.78857V0.366035H64.8964C65.6323 0.366035 66.238 0.491669 66.7137 0.742936C67.1982 0.994204 67.5572 1.33521 67.7905 1.76596C68.0328 2.18773 68.154 2.66783 68.154 3.20626C68.154 3.81648 67.9969 4.3594 67.6828 4.83501C67.3777 5.30165 66.9066 5.64266 66.2694 5.85803L68.2482 9.78857H66.5925L64.7888 6.05994H63.2408V9.78857H61.8139ZM63.2408 4.76771H64.8157C65.4618 4.76771 65.9329 4.62413 66.2291 4.33696C66.5342 4.0498 66.6867 3.6729 66.6867 3.20626C66.6867 2.73064 66.5387 2.35374 66.2425 2.07555C65.9464 1.78839 65.4663 1.64481 64.8022 1.64481H63.2408V4.76771Z" fill="white"/>
</svg>
