<svg width="335" height="44" viewBox="0 0 335 44" fill="none" xmlns="http://www.w3.org/2000/svg">
<path d="M5.87969 16.0369C4.64579 16.0369 3.59417 15.7214 2.72483 15.0905C1.86951 14.4595 1.21049 13.5761 0.747776 12.4404C0.299083 11.2906 0.0747369 9.95856 0.0747369 8.44422C0.0747369 6.91586 0.299083 5.5838 0.747776 4.44805C1.21049 3.29828 1.87652 2.4079 2.74586 1.77693C3.6152 1.13194 4.65981 0.809437 5.87969 0.809437C7.46414 0.809437 8.72609 1.24411 9.66554 2.11345C10.605 2.96877 11.1518 4.13256 11.3061 5.60484H8.84527C8.71908 4.83365 8.40359 4.19566 7.89881 3.69088C7.40805 3.17208 6.728 2.91268 5.85866 2.91268C4.75095 2.91268 3.88862 3.40344 3.27167 4.38495C2.65472 5.36647 2.34624 6.71956 2.34624 8.44422C2.34624 10.1549 2.65472 11.5009 3.27167 12.4825C3.88862 13.4499 4.75095 13.9337 5.85866 13.9337C6.75605 13.9337 7.44311 13.7023 7.91984 13.2396C8.39658 12.7629 8.70505 12.1389 8.84527 11.3677H11.3061C11.0817 12.812 10.5138 13.9547 9.60244 14.796C8.69103 15.6233 7.45012 16.0369 5.87969 16.0369ZM13.0435 15.7845V0.641177H15.273V6.90885C15.5534 6.39005 16.0021 5.96239 16.6191 5.62587C17.236 5.27533 17.9301 5.10006 18.7013 5.10006C19.9913 5.10006 20.9728 5.49266 21.6458 6.27788C22.3189 7.04907 22.6554 8.16379 22.6554 9.62204V15.7845H20.4259V9.93752C20.4259 9.06818 20.2156 8.39514 19.795 7.91841C19.3743 7.44167 18.7924 7.2033 18.0493 7.2033C17.2781 7.2033 16.6191 7.4627 16.0722 7.9815C15.5394 8.50031 15.273 9.25046 15.273 10.232V15.7845H13.0435ZM29.7982 16.0369C28.8027 16.0369 27.9123 15.8126 27.1271 15.3639C26.3419 14.9152 25.7249 14.2842 25.2762 13.471C24.8275 12.6437 24.6032 11.6762 24.6032 10.5685C24.6032 9.46079 24.8275 8.50031 25.2762 7.68705C25.7249 6.85977 26.3419 6.22179 27.1271 5.7731C27.9123 5.3244 28.8097 5.10006 29.8192 5.10006C30.8288 5.10006 31.7192 5.3244 32.4904 5.7731C33.2756 6.22179 33.8855 6.85977 34.3202 7.68705C34.7689 8.50031 34.9932 9.46079 34.9932 10.5685C34.9932 11.6762 34.7689 12.6437 34.3202 13.471C33.8715 14.2842 33.2545 14.9152 32.4693 15.3639C31.6981 15.8126 30.8078 16.0369 29.7982 16.0369ZM29.7982 13.9127C30.331 13.9127 30.8218 13.7935 31.2705 13.5551C31.7192 13.3167 32.0767 12.9522 32.3431 12.4614C32.6236 11.9566 32.7638 11.3257 32.7638 10.5685C32.7638 9.79731 32.6236 9.16633 32.3431 8.67558C32.0767 8.18482 31.7192 7.82026 31.2705 7.58189C30.8358 7.34352 30.3521 7.22434 29.8192 7.22434C29.2864 7.22434 28.7957 7.34352 28.347 7.58189C27.8983 7.82026 27.5337 8.18482 27.2533 8.67558C26.9869 9.16633 26.8537 9.79731 26.8537 10.5685C26.8537 11.7183 27.1411 12.5666 27.716 13.1134C28.3049 13.6462 28.999 13.9127 29.7982 13.9127ZM41.7785 16.0369C40.7829 16.0369 39.8926 15.8126 39.1074 15.3639C38.3221 14.9152 37.7052 14.2842 37.2565 13.471C36.8078 12.6437 36.5835 11.6762 36.5835 10.5685C36.5835 9.46079 36.8078 8.50031 37.2565 7.68705C37.7052 6.85977 38.3221 6.22179 39.1074 5.7731C39.8926 5.3244 40.79 5.10006 41.7995 5.10006C42.8091 5.10006 43.6994 5.3244 44.4706 5.7731C45.2558 6.22179 45.8658 6.85977 46.3005 7.68705C46.7492 8.50031 46.9735 9.46079 46.9735 10.5685C46.9735 11.6762 46.7492 12.6437 46.3005 13.471C45.8518 14.2842 45.2348 14.9152 44.4496 15.3639C43.6784 15.8126 42.788 16.0369 41.7785 16.0369ZM41.7785 13.9127C42.3113 13.9127 42.8021 13.7935 43.2508 13.5551C43.6994 13.3167 44.057 12.9522 44.3234 12.4614C44.6038 11.9566 44.7441 11.3257 44.7441 10.5685C44.7441 9.79731 44.6038 9.16633 44.3234 8.67558C44.057 8.18482 43.6994 7.82026 43.2508 7.58189C42.8161 7.34352 42.3323 7.22434 41.7995 7.22434C41.2667 7.22434 40.7759 7.34352 40.3272 7.58189C39.8786 7.82026 39.514 8.18482 39.2336 8.67558C38.9671 9.16633 38.8339 9.79731 38.8339 10.5685C38.8339 11.7183 39.1214 12.5666 39.6963 13.1134C40.2852 13.6462 40.9792 13.9127 41.7785 13.9127ZM53.8429 16.0369C52.4688 16.0369 51.3751 15.7144 50.5618 15.0694C49.7486 14.4244 49.2859 13.5691 49.1737 12.5035H51.4662C51.5504 12.9942 51.7957 13.3939 52.2024 13.7023C52.623 14.0108 53.1769 14.165 53.8639 14.165C54.5229 14.165 55.0277 14.0318 55.3783 13.7654C55.7428 13.485 55.9251 13.1625 55.9251 12.7979C55.9251 12.2651 55.7078 11.9006 55.2731 11.7042C54.8525 11.5079 54.2285 11.3607 53.4012 11.2626C52.6861 11.1784 52.0341 11.0172 51.4452 10.7788C50.8703 10.5264 50.4146 10.1899 50.0781 9.76926C49.7416 9.33459 49.5733 8.79476 49.5733 8.14976C49.5733 7.23836 49.9309 6.50222 50.646 5.94136C51.3611 5.38049 52.3566 5.10006 53.6326 5.10006C54.9085 5.10006 55.8971 5.3875 56.5981 5.96239C57.2992 6.53728 57.7059 7.32249 57.818 8.31802H55.6727C55.6166 7.89737 55.3993 7.56787 55.0207 7.3295C54.6421 7.07711 54.1724 6.95091 53.6115 6.95091C53.0367 6.95091 52.5809 7.06309 52.2444 7.28743C51.9079 7.49776 51.7396 7.77819 51.7396 8.12873C51.7396 8.8859 52.5529 9.34861 54.1794 9.51687C54.9506 9.601 55.6377 9.74823 56.2406 9.95856C56.8435 10.1549 57.3203 10.4703 57.6708 10.905C58.0213 11.3257 58.1966 11.9216 58.1966 12.6928C58.2106 13.3237 58.0284 13.8916 57.6498 14.3964C57.2852 14.9012 56.7734 15.3008 56.1144 15.5953C55.4694 15.8897 54.7122 16.0369 53.8429 16.0369ZM65.8652 16.0369C64.8557 16.0369 63.9653 15.8126 63.1941 15.3639C62.4229 14.9012 61.82 14.2632 61.3853 13.4499C60.9507 12.6367 60.7333 11.6902 60.7333 10.6106C60.7333 9.51687 60.9437 8.55639 61.3643 7.72912C61.799 6.90184 62.4019 6.25684 63.1731 5.79413C63.9583 5.33142 64.8627 5.10006 65.8863 5.10006C66.8958 5.10006 67.7652 5.33142 68.4943 5.79413C69.2234 6.24282 69.7843 6.84575 70.1769 7.60292C70.5835 8.36009 70.7868 9.19438 70.7868 10.1058C70.7868 10.246 70.7868 10.4002 70.7868 10.5685C70.7868 10.7227 70.7798 10.898 70.7658 11.0943H62.9207C62.9908 12.0618 63.3063 12.7979 63.8672 13.3027C64.428 13.7935 65.087 14.0389 65.8442 14.0389C66.5032 14.0389 67.022 13.9056 67.4006 13.6392C67.7932 13.3588 68.0807 12.9802 68.2629 12.5035H70.5134C70.261 13.499 69.7352 14.3403 68.936 15.0274C68.1368 15.7004 67.1132 16.0369 65.8652 16.0369ZM65.8652 7.03504C65.1782 7.03504 64.5682 7.24537 64.0354 7.66602C63.5026 8.07265 63.1591 8.64753 63.0048 9.39068H68.5574C68.5013 8.6896 68.2279 8.12172 67.7371 7.68705C67.2464 7.25238 66.6224 7.03504 65.8652 7.03504ZM90.8354 15.7845C89.8118 15.7845 88.9985 15.5392 88.3956 15.0484C87.7927 14.5436 87.4912 13.6533 87.4912 12.3773V7.24537H84.8621V5.35245H86.4186C87.1337 5.35245 87.5543 5.00191 87.6805 4.30083L87.996 2.61823H89.7206V5.35245H93.843V7.24537H89.7206V12.3352C89.7206 12.8821 89.8398 13.2677 90.0782 13.492C90.3306 13.7023 90.7582 13.8075 91.3612 13.8075H93.8009V15.7845H90.8354ZM96.9055 15.7845V0.641177H99.135V6.90885C99.4154 6.39005 99.8641 5.96239 100.481 5.62587C101.098 5.27533 101.792 5.10006 102.563 5.10006C103.853 5.10006 104.835 5.49266 105.508 6.27788C106.181 7.04907 106.517 8.16379 106.517 9.62204V15.7845H104.288V9.93752C104.288 9.06818 104.078 8.39514 103.657 7.91841C103.236 7.44167 102.654 7.2033 101.911 7.2033C101.14 7.2033 100.481 7.4627 99.9342 7.9815C99.4014 8.50031 99.135 9.25046 99.135 10.232V15.7845H96.9055ZM113.786 16.0369C112.777 16.0369 111.886 15.8126 111.115 15.3639C110.344 14.9012 109.741 14.2632 109.306 13.4499C108.872 12.6367 108.654 11.6902 108.654 10.6106C108.654 9.51687 108.865 8.55639 109.285 7.72912C109.72 6.90184 110.323 6.25684 111.094 5.79413C111.879 5.33142 112.784 5.10006 113.807 5.10006C114.817 5.10006 115.686 5.33142 116.415 5.79413C117.145 6.24282 117.705 6.84575 118.098 7.60292C118.505 8.36009 118.708 9.19438 118.708 10.1058C118.708 10.246 118.708 10.4002 118.708 10.5685C118.708 10.7227 118.701 10.898 118.687 11.0943H110.842C110.912 12.0618 111.227 12.7979 111.788 13.3027C112.349 13.7935 113.008 14.0389 113.765 14.0389C114.424 14.0389 114.943 13.9056 115.322 13.6392C115.714 13.3588 116.002 12.9802 116.184 12.5035H118.435C118.182 13.499 117.656 14.3403 116.857 15.0274C116.058 15.7004 115.034 16.0369 113.786 16.0369ZM113.786 7.03504C113.099 7.03504 112.489 7.24537 111.957 7.66602C111.424 8.07265 111.08 8.64753 110.926 9.39068H116.479C116.422 8.6896 116.149 8.12172 115.658 7.68705C115.168 7.25238 114.544 7.03504 113.786 7.03504ZM136.296 15.7845L131.753 1.06183H134.15L137.621 12.84L141.091 1.06183H143.489L138.946 15.7845H136.296ZM149.727 16.0369C148.718 16.0369 147.827 15.8126 147.056 15.3639C146.285 14.9012 145.682 14.2632 145.247 13.4499C144.813 12.6367 144.595 11.6902 144.595 10.6106C144.595 9.51687 144.806 8.55639 145.226 7.72912C145.661 6.90184 146.264 6.25684 147.035 5.79413C147.82 5.33142 148.725 5.10006 149.748 5.10006C150.758 5.10006 151.627 5.33142 152.356 5.79413C153.085 6.24282 153.646 6.84575 154.039 7.60292C154.446 8.36009 154.649 9.19438 154.649 10.1058C154.649 10.246 154.649 10.4002 154.649 10.5685C154.649 10.7227 154.642 10.898 154.628 11.0943H146.783C146.853 12.0618 147.168 12.7979 147.729 13.3027C148.29 13.7935 148.949 14.0389 149.706 14.0389C150.365 14.0389 150.884 13.9056 151.263 13.6392C151.655 13.3588 151.943 12.9802 152.125 12.5035H154.375C154.123 13.499 153.597 14.3403 152.798 15.0274C151.999 15.7004 150.975 16.0369 149.727 16.0369ZM149.727 7.03504C149.04 7.03504 148.43 7.24537 147.897 7.66602C147.365 8.07265 147.021 8.64753 146.867 9.39068H152.419C152.363 8.6896 152.09 8.12172 151.599 7.68705C151.108 7.25238 150.484 7.03504 149.727 7.03504ZM156.449 15.7845V1.06183H161.708C163.236 1.06183 164.393 1.41237 165.178 2.11345C165.963 2.81453 166.356 3.71893 166.356 4.82664C166.356 5.68196 166.131 6.37603 165.683 6.90885C165.234 7.44167 164.715 7.82727 164.126 8.06563V8.21286C164.827 8.46525 165.43 8.87889 165.935 9.45378C166.44 10.0146 166.692 10.7578 166.692 11.6832C166.692 12.4404 166.503 13.1345 166.124 13.7654C165.76 14.3824 165.22 14.8731 164.505 15.2377C163.79 15.6023 162.913 15.7845 161.876 15.7845H156.449ZM158.679 7.2033H161.434C162.289 7.2033 162.941 7.03504 163.39 6.69852C163.839 6.34798 164.063 5.82217 164.063 5.12109C164.063 3.73295 163.173 3.03888 161.392 3.03888H158.679V7.2033ZM158.679 13.7234H161.581C162.493 13.7234 163.194 13.5271 163.685 13.1345C164.175 12.7419 164.421 12.167 164.421 11.4098C164.421 10.6666 164.161 10.0988 163.643 9.70617C163.124 9.29954 162.423 9.09622 161.539 9.09622H158.679V13.7234ZM172.615 16.0369C171.788 16.0369 171.094 15.8967 170.533 15.6163C169.972 15.3218 169.551 14.9362 169.271 14.4595C168.991 13.9687 168.85 13.4359 168.85 12.861C168.85 11.8375 169.222 11.0382 169.965 10.4633C170.722 9.88845 171.788 9.601 173.162 9.601H175.854V9.36965C175.854 7.79922 175.125 7.01401 173.667 7.01401C173.064 7.01401 172.552 7.14722 172.131 7.41363C171.725 7.66602 171.451 8.07966 171.311 8.65454H169.082C169.194 7.56086 169.664 6.69852 170.491 6.06755C171.332 5.42256 172.391 5.10006 173.667 5.10006C175.209 5.10006 176.331 5.47864 177.032 6.23581C177.733 6.99298 178.084 8.03759 178.084 9.36965V15.7845H176.191L176.001 14.2492H175.854C175.546 14.7399 175.16 15.1606 174.697 15.5111C174.235 15.8617 173.541 16.0369 172.615 16.0369ZM173.036 14.165C173.947 14.165 174.627 13.8916 175.076 13.3448C175.539 12.7839 175.791 12.0758 175.833 11.2205H173.393C172.594 11.2205 172.026 11.3537 171.69 11.6201C171.367 11.8725 171.206 12.2301 171.206 12.6928C171.206 13.1555 171.367 13.5201 171.69 13.7865C172.026 14.0389 172.475 14.165 173.036 14.165ZM180.873 15.7845V5.35245H182.808L182.997 6.90885H183.102C183.383 6.40407 183.817 5.97641 184.406 5.62587C184.995 5.27533 185.675 5.10006 186.446 5.10006C187.722 5.10006 188.683 5.48565 189.328 6.25684C189.973 7.02803 190.295 8.16379 190.295 9.6641V15.7845H188.066V9.93752C188.066 9.06818 187.883 8.39514 187.519 7.91841C187.154 7.44167 186.579 7.2033 185.794 7.2033C185.023 7.2033 184.378 7.4627 183.859 7.9815C183.355 8.50031 183.102 9.25046 183.102 10.232V15.7845H180.873ZM192.853 15.7845V5.35245H194.788L194.977 6.90885H195.082C195.363 6.40407 195.798 5.97641 196.386 5.62587C196.975 5.27533 197.655 5.10006 198.427 5.10006C199.703 5.10006 200.663 5.48565 201.308 6.25684C201.953 7.02803 202.276 8.16379 202.276 9.6641V15.7845H200.046V9.93752C200.046 9.06818 199.864 8.39514 199.499 7.91841C199.135 7.44167 198.56 7.2033 197.775 7.2033C197.003 7.2033 196.358 7.4627 195.84 7.9815C195.335 8.50031 195.082 9.25046 195.082 10.232V15.7845H192.853ZM206.2 20.4117L208.682 14.9222H208.072L204.013 5.35245H206.432L209.545 12.9872L212.847 5.35245H215.181L208.556 20.4117H206.2ZM230.161 20.4117L232.643 14.9222H232.033L227.974 5.35245H230.392L233.505 12.9872L236.807 5.35245H239.142L232.517 20.4117H230.161ZM245.443 16.0369C244.448 16.0369 243.557 15.8126 242.772 15.3639C241.987 14.9152 241.37 14.2842 240.921 13.471C240.473 12.6437 240.248 11.6762 240.248 10.5685C240.248 9.46079 240.473 8.50031 240.921 7.68705C241.37 6.85977 241.987 6.22179 242.772 5.7731C243.557 5.3244 244.455 5.10006 245.464 5.10006C246.474 5.10006 247.364 5.3244 248.135 5.7731C248.921 6.22179 249.531 6.85977 249.965 7.68705C250.414 8.50031 250.638 9.46079 250.638 10.5685C250.638 11.6762 250.414 12.6437 249.965 13.471C249.517 14.2842 248.9 14.9152 248.114 15.3639C247.343 15.8126 246.453 16.0369 245.443 16.0369ZM245.443 13.9127C245.976 13.9127 246.467 13.7935 246.916 13.5551C247.364 13.3167 247.722 12.9522 247.988 12.4614C248.269 11.9566 248.409 11.3257 248.409 10.5685C248.409 9.79731 248.269 9.16633 247.988 8.67558C247.722 8.18482 247.364 7.82026 246.916 7.58189C246.481 7.34352 245.997 7.22434 245.464 7.22434C244.932 7.22434 244.441 7.34352 243.992 7.58189C243.543 7.82026 243.179 8.18482 242.898 8.67558C242.632 9.16633 242.499 9.79731 242.499 10.5685C242.499 11.7183 242.786 12.5666 243.361 13.1134C243.95 13.6462 244.644 13.9127 245.443 13.9127ZM256.498 16.0369C255.236 16.0369 254.276 15.6513 253.617 14.8802C252.972 14.0949 252.649 12.9592 252.649 11.4729V5.35245H254.879V11.1995C254.879 12.0548 255.061 12.7278 255.426 13.2186C255.804 13.6953 256.379 13.9337 257.15 13.9337C257.921 13.9337 258.566 13.6743 259.085 13.1555C259.604 12.6367 259.863 11.8865 259.863 10.905V5.35245H262.093V15.7845H260.158L259.969 14.2281H259.863C259.583 14.7329 259.148 15.1606 258.559 15.5111C257.97 15.8617 257.283 16.0369 256.498 16.0369ZM277.514 15.7845L275.243 5.35245H277.43L278.692 12.6717L280.185 5.35245H282.583L284.076 12.6717L285.338 5.35245H287.526L285.254 15.7845H282.962L281.384 8.25493L279.807 15.7845H277.514ZM293.364 16.0369C292.369 16.0369 291.479 15.8126 290.693 15.3639C289.908 14.9152 289.291 14.2842 288.842 13.471C288.394 12.6437 288.169 11.6762 288.169 10.5685C288.169 9.46079 288.394 8.50031 288.842 7.68705C289.291 6.85977 289.908 6.22179 290.693 5.7731C291.479 5.3244 292.376 5.10006 293.385 5.10006C294.395 5.10006 295.285 5.3244 296.057 5.7731C296.842 6.22179 297.452 6.85977 297.886 7.68705C298.335 8.50031 298.559 9.46079 298.559 10.5685C298.559 11.6762 298.335 12.6437 297.886 13.471C297.438 14.2842 296.821 14.9152 296.036 15.3639C295.264 15.8126 294.374 16.0369 293.364 16.0369ZM293.364 13.9127C293.897 13.9127 294.388 13.7935 294.837 13.5551C295.285 13.3167 295.643 12.9522 295.909 12.4614C296.19 11.9566 296.33 11.3257 296.33 10.5685C296.33 9.79731 296.19 9.16633 295.909 8.67558C295.643 8.18482 295.285 7.82026 294.837 7.58189C294.402 7.34352 293.918 7.22434 293.385 7.22434C292.853 7.22434 292.362 7.34352 291.913 7.58189C291.465 7.82026 291.1 8.18482 290.82 8.67558C290.553 9.16633 290.42 9.79731 290.42 10.5685C290.42 11.7183 290.707 12.5666 291.282 13.1134C291.871 13.6462 292.565 13.9127 293.364 13.9127ZM304.419 16.0369C303.157 16.0369 302.197 15.6513 301.538 14.8802C300.893 14.0949 300.57 12.9592 300.57 11.4729V5.35245H302.8V11.1995C302.8 12.0548 302.982 12.7278 303.347 13.2186C303.725 13.6953 304.3 13.9337 305.071 13.9337C305.843 13.9337 306.488 13.6743 307.006 13.1555C307.525 12.6367 307.785 11.8865 307.785 10.905V5.35245H310.014V15.7845H308.079L307.89 14.2281H307.785C307.504 14.7329 307.069 15.1606 306.48 15.5111C305.892 15.8617 305.205 16.0369 304.419 16.0369ZM312.445 15.7845V13.8496H315.937V3.27023C315.937 2.80752 315.713 2.57616 315.264 2.57616H312.74V0.641177H315.663C316.477 0.641177 317.094 0.858513 317.514 1.29318C317.949 1.71383 318.166 2.33078 318.166 3.14404V13.8496H321.679V15.7845H312.445ZM328.737 16.0369C327.868 16.0369 327.09 15.8336 326.403 15.427C325.716 15.0063 325.169 14.3894 324.762 13.5761C324.37 12.7629 324.173 11.7603 324.173 10.5685C324.173 9.37666 324.377 8.37411 324.783 7.56086C325.19 6.7476 325.737 6.13766 326.424 5.73103C327.125 5.31038 327.903 5.10006 328.758 5.10006C329.558 5.10006 330.217 5.2543 330.735 5.56277C331.254 5.85723 331.64 6.23581 331.892 6.69852V0.641177H334.122V15.7845H332.208L332.018 14.2492H331.892C331.612 14.796 331.212 15.2307 330.693 15.5532C330.189 15.8757 329.537 16.0369 328.737 16.0369ZM329.2 13.9127C329.999 13.9127 330.658 13.6322 331.177 13.0714C331.71 12.5105 331.976 11.6762 331.976 10.5685C331.976 9.44677 331.71 8.61248 331.177 8.06563C330.658 7.50477 329.999 7.22434 329.2 7.22434C328.401 7.22434 327.735 7.50477 327.202 8.06563C326.683 8.6265 326.424 9.4678 326.424 10.5895C326.424 11.6972 326.683 12.5315 327.202 13.0924C327.735 13.6392 328.401 13.9127 329.2 13.9127ZM48.5637 42.7845V40.8496H52.0551V30.2702C52.0551 29.8075 51.8308 29.5762 51.3821 29.5762H48.8582V27.6412H51.7817C52.595 27.6412 53.2119 27.8585 53.6326 28.2932C54.0672 28.7138 54.2846 29.3308 54.2846 30.144V40.8496H57.797V42.7845H48.5637ZM65.2132 30.754C64.7225 30.754 64.3088 30.5997 63.9723 30.2913C63.6498 29.9688 63.4886 29.5762 63.4886 29.1134C63.4886 28.6507 63.6498 28.2651 63.9723 27.9567C64.3088 27.6482 64.7225 27.4939 65.2132 27.4939C65.718 27.4939 66.1317 27.6482 66.4542 27.9567C66.7907 28.2651 66.9589 28.6507 66.9589 29.1134C66.9589 29.5762 66.7907 29.9688 66.4542 30.2913C66.1317 30.5997 65.718 30.754 65.2132 30.754ZM61.0278 42.7845V40.8496H64.3088V34.9815C64.3088 34.5188 64.0845 34.2874 63.6358 34.2874H61.3222V32.3524H64.0354C64.9048 32.3524 65.5357 32.5558 65.9283 32.9624C66.335 33.355 66.5383 33.986 66.5383 34.8553V40.8496H69.8193V42.7845H61.0278ZM73.1553 42.7845V27.6412H75.3847V36.7272L79.3809 32.3524H82.1782L77.8245 36.9796V37.1478L82.7461 42.7845H80.0329L75.3847 37.4213V42.7845H73.1553ZM89.5103 43.0369C88.5008 43.0369 87.6104 42.8126 86.8392 42.3639C86.068 41.9012 85.4651 41.2632 85.0304 40.4499C84.5957 39.6367 84.3784 38.6902 84.3784 37.6106C84.3784 36.5169 84.5887 35.5564 85.0094 34.7291C85.444 33.9018 86.047 33.2568 86.8182 32.7941C87.6034 32.3314 88.5078 32.1001 89.5314 32.1001C90.5409 32.1001 91.4103 32.3314 92.1394 32.7941C92.8685 33.2428 93.4294 33.8458 93.822 34.6029C94.2286 35.3601 94.4319 36.1944 94.4319 37.1058C94.4319 37.246 94.4319 37.4002 94.4319 37.5685C94.4319 37.7227 94.4249 37.898 94.4109 38.0943H86.5658C86.6359 39.0618 86.9514 39.7979 87.5122 40.3027C88.0731 40.7935 88.7321 41.0389 89.4893 41.0389C90.1483 41.0389 90.6671 40.9056 91.0457 40.6392C91.4383 40.3588 91.7257 39.9802 91.908 39.5035H94.1585C93.9061 40.499 93.3803 41.3403 92.5811 42.0274C91.7818 42.7004 90.7582 43.0369 89.5103 43.0369ZM89.5103 34.035C88.8233 34.035 88.2133 34.2454 87.6805 34.666C87.1477 35.0726 86.8041 35.6475 86.6499 36.3907H92.2025C92.1464 35.6896 91.873 35.1217 91.3822 34.6871C90.8914 34.2524 90.2675 34.035 89.5103 34.035ZM114.48 42.7845C113.457 42.7845 112.644 42.5392 112.041 42.0484C111.438 41.5436 111.136 40.6533 111.136 39.3773V34.2454H108.507V32.3524H110.064C110.779 32.3524 111.199 32.0019 111.326 31.3008L111.641 29.6182H113.366V32.3524H117.488V34.2454H113.366V39.3352C113.366 39.8821 113.485 40.2677 113.723 40.492C113.976 40.7023 114.403 40.8075 115.006 40.8075H117.446V42.7845H114.48ZM125.325 43.0369C124.329 43.0369 123.439 42.8126 122.654 42.3639C121.869 41.9152 121.252 41.2842 120.803 40.471C120.354 39.6437 120.13 38.6762 120.13 37.5685C120.13 36.4608 120.354 35.5003 120.803 34.6871C121.252 33.8598 121.869 33.2218 122.654 32.7731C123.439 32.3244 124.336 32.1001 125.346 32.1001C126.356 32.1001 127.246 32.3244 128.017 32.7731C128.802 33.2218 129.412 33.8598 129.847 34.6871C130.296 35.5003 130.52 36.4608 130.52 37.5685C130.52 38.6762 130.296 39.6437 129.847 40.471C129.398 41.2842 128.781 41.9152 127.996 42.3639C127.225 42.8126 126.335 43.0369 125.325 43.0369ZM125.325 40.9127C125.858 40.9127 126.349 40.7935 126.797 40.5551C127.246 40.3167 127.603 39.9522 127.87 39.4614C128.15 38.9566 128.291 38.3257 128.291 37.5685C128.291 36.7973 128.15 36.1663 127.87 35.6756C127.603 35.1848 127.246 34.8203 126.797 34.5819C126.363 34.3435 125.879 34.2243 125.346 34.2243C124.813 34.2243 124.322 34.3435 123.874 34.5819C123.425 34.8203 123.06 35.1848 122.78 35.6756C122.514 36.1663 122.38 36.7973 122.38 37.5685C122.38 38.7183 122.668 39.5666 123.243 40.1134C123.832 40.6462 124.526 40.9127 125.325 40.9127ZM148.339 43.0369C147.512 43.0369 146.818 42.8967 146.257 42.6163C145.696 42.3218 145.275 41.9362 144.995 41.4595C144.714 40.9687 144.574 40.4359 144.574 39.861C144.574 38.8375 144.946 38.0382 145.689 37.4633C146.446 36.8884 147.512 36.601 148.886 36.601H151.578V36.3696C151.578 34.7992 150.849 34.014 149.391 34.014C148.788 34.014 148.276 34.1472 147.855 34.4136C147.449 34.666 147.175 35.0797 147.035 35.6545H144.806C144.918 34.5609 145.388 33.6985 146.215 33.0676C147.056 32.4226 148.115 32.1001 149.391 32.1001C150.933 32.1001 152.055 32.4786 152.756 33.2358C153.457 33.993 153.808 35.0376 153.808 36.3696V42.7845H151.915L151.725 41.2492H151.578C151.27 41.7399 150.884 42.1606 150.421 42.5111C149.959 42.8617 149.265 43.0369 148.339 43.0369ZM148.76 41.165C149.671 41.165 150.351 40.8916 150.8 40.3448C151.263 39.7839 151.515 39.0758 151.557 38.2205H149.117C148.318 38.2205 147.75 38.3537 147.414 38.6201C147.091 38.8725 146.93 39.2301 146.93 39.6928C146.93 40.1555 147.091 40.5201 147.414 40.7865C147.75 41.0389 148.199 41.165 148.76 41.165ZM161.413 43.0369C160.446 43.0369 159.576 42.8126 158.805 42.3639C158.048 41.9152 157.452 41.2842 157.017 40.471C156.583 39.6437 156.365 38.6762 156.365 37.5685C156.365 36.4608 156.583 35.5003 157.017 34.6871C157.466 33.8738 158.069 33.2428 158.826 32.7941C159.583 32.3314 160.446 32.1001 161.413 32.1001C162.745 32.1001 163.818 32.4366 164.631 33.1096C165.458 33.7686 165.984 34.68 166.208 35.8438H163.874C163.734 35.3391 163.446 34.9394 163.012 34.645C162.591 34.3505 162.051 34.2033 161.392 34.2033C160.915 34.2033 160.46 34.3295 160.025 34.5819C159.604 34.8343 159.261 35.2129 158.994 35.7176C158.742 36.2084 158.616 36.8253 158.616 37.5685C158.616 38.2976 158.742 38.9146 158.994 39.4194C159.261 39.9241 159.604 40.3097 160.025 40.5761C160.46 40.8285 160.915 40.9547 161.392 40.9547C162.065 40.9547 162.605 40.8075 163.012 40.513C163.418 40.2186 163.706 39.812 163.874 39.2932H166.208C165.928 40.4429 165.381 41.3543 164.568 42.0274C163.755 42.7004 162.703 43.0369 161.413 43.0369ZM173.393 43.0369C172.426 43.0369 171.557 42.8126 170.785 42.3639C170.028 41.9152 169.432 41.2842 168.998 40.471C168.563 39.6437 168.346 38.6762 168.346 37.5685C168.346 36.4608 168.563 35.5003 168.998 34.6871C169.446 33.8738 170.049 33.2428 170.806 32.7941C171.564 32.3314 172.426 32.1001 173.393 32.1001C174.725 32.1001 175.798 32.4366 176.611 33.1096C177.439 33.7686 177.964 34.68 178.189 35.8438H175.854C175.714 35.3391 175.426 34.9394 174.992 34.645C174.571 34.3505 174.031 34.2033 173.372 34.2033C172.896 34.2033 172.44 34.3295 172.005 34.5819C171.585 34.8343 171.241 35.2129 170.975 35.7176C170.722 36.2084 170.596 36.8253 170.596 37.5685C170.596 38.2976 170.722 38.9146 170.975 39.4194C171.241 39.9241 171.585 40.3097 172.005 40.5761C172.44 40.8285 172.896 40.9547 173.372 40.9547C174.045 40.9547 174.585 40.8075 174.992 40.513C175.398 40.2186 175.686 39.812 175.854 39.2932H178.189C177.908 40.4429 177.361 41.3543 176.548 42.0274C175.735 42.7004 174.683 43.0369 173.393 43.0369ZM185.353 43.0369C184.343 43.0369 183.453 42.8126 182.681 42.3639C181.91 41.9012 181.307 41.2632 180.873 40.4499C180.438 39.6367 180.221 38.6902 180.221 37.6106C180.221 36.5169 180.431 35.5564 180.852 34.7291C181.286 33.9018 181.889 33.2568 182.66 32.7941C183.446 32.3314 184.35 32.1001 185.374 32.1001C186.383 32.1001 187.253 32.3314 187.982 32.7941C188.711 33.2428 189.272 33.8458 189.664 34.6029C190.071 35.3601 190.274 36.1944 190.274 37.1058C190.274 37.246 190.274 37.4002 190.274 37.5685C190.274 37.7227 190.267 37.898 190.253 38.0943H182.408C182.478 39.0618 182.794 39.7979 183.355 40.3027C183.915 40.7935 184.574 41.0389 185.332 41.0389C185.991 41.0389 186.509 40.9056 186.888 40.6392C187.281 40.3588 187.568 39.9802 187.75 39.5035H190.001C189.748 40.499 189.223 41.3403 188.423 42.0274C187.624 42.7004 186.601 43.0369 185.353 43.0369ZM185.353 34.035C184.666 34.035 184.056 34.2454 183.523 34.666C182.99 35.0726 182.646 35.6475 182.492 36.3907H188.045C187.989 35.6896 187.715 35.1217 187.224 34.6871C186.734 34.2524 186.11 34.035 185.353 34.035ZM197.291 43.0369C195.917 43.0369 194.823 42.7144 194.01 42.0694C193.196 41.4244 192.734 40.5691 192.622 39.5035H194.914C194.998 39.9942 195.244 40.3939 195.65 40.7023C196.071 41.0108 196.625 41.165 197.312 41.165C197.971 41.165 198.476 41.0318 198.826 40.7654C199.191 40.485 199.373 40.1625 199.373 39.7979C199.373 39.2651 199.156 38.9006 198.721 38.7042C198.3 38.5079 197.676 38.3607 196.849 38.2626C196.134 38.1784 195.482 38.0172 194.893 37.7788C194.318 37.5264 193.863 37.1899 193.526 36.7693C193.189 36.3346 193.021 35.7948 193.021 35.1498C193.021 34.2384 193.379 33.5022 194.094 32.9414C194.809 32.3805 195.805 32.1001 197.08 32.1001C198.356 32.1001 199.345 32.3875 200.046 32.9624C200.747 33.5373 201.154 34.3225 201.266 35.318H199.121C199.065 34.8974 198.847 34.5679 198.469 34.3295C198.09 34.0771 197.62 33.9509 197.059 33.9509C196.485 33.9509 196.029 34.0631 195.692 34.2874C195.356 34.4978 195.188 34.7782 195.188 35.1287C195.188 35.8859 196.001 36.3486 197.627 36.5169C198.399 36.601 199.086 36.7482 199.689 36.9586C200.291 37.1549 200.768 37.4703 201.119 37.905C201.469 38.3257 201.645 38.9216 201.645 39.6928C201.659 40.3237 201.476 40.8916 201.098 41.3964C200.733 41.9012 200.221 42.3008 199.562 42.5953C198.917 42.8897 198.16 43.0369 197.291 43.0369ZM209.271 43.0369C207.897 43.0369 206.803 42.7144 205.99 42.0694C205.177 41.4244 204.714 40.5691 204.602 39.5035H206.894C206.979 39.9942 207.224 40.3939 207.631 40.7023C208.051 41.0108 208.605 41.165 209.292 41.165C209.951 41.165 210.456 41.0318 210.806 40.7654C211.171 40.485 211.353 40.1625 211.353 39.7979C211.353 39.2651 211.136 38.9006 210.701 38.7042C210.281 38.5079 209.657 38.3607 208.829 38.2626C208.114 38.1784 207.462 38.0172 206.873 37.7788C206.299 37.5264 205.843 37.1899 205.506 36.7693C205.17 36.3346 205.002 35.7948 205.002 35.1498C205.002 34.2384 205.359 33.5022 206.074 32.9414C206.789 32.3805 207.785 32.1001 209.061 32.1001C210.337 32.1001 211.325 32.3875 212.026 32.9624C212.727 33.5373 213.134 34.3225 213.246 35.318H211.101C211.045 34.8974 210.827 34.5679 210.449 34.3295C210.07 34.0771 209.601 33.9509 209.04 33.9509C208.465 33.9509 208.009 34.0631 207.673 34.2874C207.336 34.4978 207.168 34.7782 207.168 35.1287C207.168 35.8859 207.981 36.3486 209.608 36.5169C210.379 36.601 211.066 36.7482 211.669 36.9586C212.272 37.1549 212.748 37.4703 213.099 37.905C213.45 38.3257 213.625 38.9216 213.625 39.6928C213.639 40.3237 213.457 40.8916 213.078 41.3964C212.713 41.9012 212.202 42.3008 211.543 42.5953C210.898 42.8897 210.14 43.0369 209.271 43.0369ZM221.167 43.0369C220.172 43.0369 219.281 42.8126 218.496 42.3639C217.711 41.9152 217.094 41.2842 216.645 40.471C216.197 39.6437 215.972 38.6762 215.972 37.5685C215.972 36.4608 216.197 35.5003 216.645 34.6871C217.094 33.8598 217.711 33.2218 218.496 32.7731C219.281 32.3244 220.179 32.1001 221.188 32.1001C222.198 32.1001 223.088 32.3244 223.859 32.7731C224.645 33.2218 225.255 33.8598 225.689 34.6871C226.138 35.5003 226.362 36.4608 226.362 37.5685C226.362 38.6762 226.138 39.6437 225.689 40.471C225.241 41.2842 224.624 41.9152 223.838 42.3639C223.067 42.8126 222.177 43.0369 221.167 43.0369ZM221.167 40.9127C221.7 40.9127 222.191 40.7935 222.64 40.5551C223.088 40.3167 223.446 39.9522 223.712 39.4614C223.993 38.9566 224.133 38.3257 224.133 37.5685C224.133 36.7973 223.993 36.1663 223.712 35.6756C223.446 35.1848 223.088 34.8203 222.64 34.5819C222.205 34.3435 221.721 34.2243 221.188 34.2243C220.655 34.2243 220.165 34.3435 219.716 34.5819C219.267 34.8203 218.903 35.1848 218.622 35.6756C218.356 36.1663 218.223 36.7973 218.223 37.5685C218.223 38.7183 218.51 39.5666 219.085 40.1134C219.674 40.6462 220.368 40.9127 221.167 40.9127ZM228.457 42.7845V40.8496H231.002V34.9815C231.002 34.5188 230.778 34.2874 230.329 34.2874H228.668V32.3524H231.17C231.745 32.3524 232.215 32.5207 232.58 32.8572C232.944 33.1797 233.127 33.6354 233.127 34.2243V34.4767H233.232C233.386 33.6915 233.715 33.1026 234.22 32.71C234.739 32.3034 235.489 32.1001 236.471 32.1001H238.09V34.4557H235.819C234.991 34.4557 234.353 34.7431 233.905 35.318C233.456 35.8929 233.232 36.58 233.232 37.3792V40.8496H236.471V42.7845H228.457ZM244.917 30.754C244.427 30.754 244.013 30.5997 243.677 30.2913C243.354 29.9688 243.193 29.5762 243.193 29.1134C243.193 28.6507 243.354 28.2651 243.677 27.9567C244.013 27.6482 244.427 27.4939 244.917 27.4939C245.422 27.4939 245.836 27.6482 246.158 27.9567C246.495 28.2651 246.663 28.6507 246.663 29.1134C246.663 29.5762 246.495 29.9688 246.158 30.2913C245.836 30.5997 245.422 30.754 244.917 30.754ZM240.732 42.7845V40.8496H244.013V34.9815C244.013 34.5188 243.789 34.2874 243.34 34.2874H241.026V32.3524H243.74C244.609 32.3524 245.24 32.5558 245.633 32.9624C246.039 33.355 246.243 33.986 246.243 34.8553V40.8496H249.524V42.7845H240.732ZM252.775 42.7845V40.7865L258.559 34.3926H252.86V32.3524H261.336V34.3505L255.489 40.7444H261.441V42.7845H252.775ZM269.215 43.0369C268.205 43.0369 267.315 42.8126 266.543 42.3639C265.772 41.9012 265.169 41.2632 264.735 40.4499C264.3 39.6367 264.083 38.6902 264.083 37.6106C264.083 36.5169 264.293 35.5564 264.714 34.7291C265.148 33.9018 265.751 33.2568 266.522 32.7941C267.308 32.3314 268.212 32.1001 269.236 32.1001C270.245 32.1001 271.115 32.3314 271.844 32.7941C272.573 33.2428 273.134 33.8458 273.526 34.6029C273.933 35.3601 274.136 36.1944 274.136 37.1058C274.136 37.246 274.136 37.4002 274.136 37.5685C274.136 37.7227 274.129 37.898 274.115 38.0943H266.27C266.34 39.0618 266.656 39.7979 267.217 40.3027C267.777 40.7935 268.436 41.0389 269.194 41.0389C269.853 41.0389 270.371 40.9056 270.75 40.6392C271.143 40.3588 271.43 39.9802 271.612 39.5035H273.863C273.61 40.499 273.085 41.3403 272.285 42.0274C271.486 42.7004 270.463 43.0369 269.215 43.0369ZM269.215 34.035C268.528 34.035 267.918 34.2454 267.385 34.666C266.852 35.0726 266.508 35.6475 266.354 36.3907H271.907C271.851 35.6896 271.577 35.1217 271.086 34.6871C270.596 34.2524 269.972 34.035 269.215 34.035ZM280.017 37.4213L279.681 28.0618H282.457L282.099 37.4213H280.017ZM281.09 42.9107C280.571 42.9107 280.129 42.7425 279.765 42.406C279.4 42.0554 279.218 41.6348 279.218 41.144C279.218 40.6533 279.4 40.2396 279.765 39.9031C280.129 39.5666 280.571 39.3983 281.09 39.3983C281.623 39.3983 282.064 39.5666 282.415 39.9031C282.779 40.2396 282.962 40.6533 282.962 41.144C282.962 41.6348 282.779 42.0554 282.415 42.406C282.064 42.7425 281.623 42.9107 281.09 42.9107Z" fill="black"/>
</svg>
