<svg width="61" height="10" viewBox="0 0 61 10" fill="none" xmlns="http://www.w3.org/2000/svg">
<path d="M0.357642 9.77838V0.355842H1.75756L5.70157 7.26122V0.355842H7.06111V9.77838H5.66119L1.71718 2.87301V9.77838H0.357642ZM8.41538 9.77838V0.355842H14.4323V1.63462H9.84223V4.38061H14.0285V5.64592H9.84223V8.49961H14.4323V9.77838H8.41538ZM19.0711 9.93991C18.2814 9.93991 17.6083 9.738 17.0519 9.33418C16.5045 8.93035 16.0828 8.365 15.7866 7.63812C15.4995 6.90226 15.3559 6.04975 15.3559 5.08057C15.3559 4.10242 15.4995 3.24991 15.7866 2.52303C16.0828 1.78717 16.509 1.21733 17.0654 0.813509C17.6218 0.400712 18.2903 0.194313 19.0711 0.194313C20.0851 0.194313 20.8927 0.472502 21.494 1.02888C22.0952 1.57629 22.4452 2.32111 22.5439 3.26337H20.969C20.8883 2.76981 20.6863 2.3615 20.3633 2.03844C20.0492 1.70641 19.614 1.54039 19.0576 1.54039C18.3487 1.54039 17.7968 1.85447 17.4019 2.48264C17.0071 3.11081 16.8096 3.97679 16.8096 5.08057C16.8096 6.17538 17.0071 7.03687 17.4019 7.66504C17.7968 8.28424 18.3487 8.59383 19.0576 8.59383C19.6319 8.59383 20.0716 8.44577 20.3768 8.14963C20.6819 7.84452 20.8793 7.44518 20.969 6.95162H22.5439C22.4004 7.87593 22.0369 8.60729 21.4536 9.14573C20.8703 9.67518 20.0761 9.93991 19.0711 9.93991ZM23.6963 9.77838V0.355842H25.1231V4.66329L28.4614 0.355842H30.2248L26.5365 5.02673V5.10749L30.3055 9.77838H28.5018L25.1231 5.5517V9.77838H23.6963ZM31.431 9.77838V0.355842H32.8578V8.49961H37.5018V9.77838H31.431ZM38.3849 9.77838L41.1982 0.355842H42.8943L45.7076 9.77838H44.1596L43.527 7.51697H40.5656L39.9329 9.77838H38.3849ZM42.0059 2.37496L40.8887 6.37281H43.2039L42.0867 2.37496H42.0059ZM49.7406 9.93991C48.9509 9.93991 48.2778 9.738 47.7215 9.33418C47.1741 8.93035 46.7523 8.365 46.4561 7.63812C46.169 6.90226 46.0254 6.04975 46.0254 5.08057C46.0254 4.10242 46.169 3.24991 46.4561 2.52303C46.7523 1.78717 47.1785 1.21733 47.7349 0.813509C48.2913 0.400712 48.9599 0.194313 49.7406 0.194313C50.7546 0.194313 51.5623 0.472502 52.1635 1.02888C52.7648 1.57629 53.1147 2.32111 53.2135 3.26337H51.6385C51.5578 2.76981 51.3559 2.3615 51.0328 2.03844C50.7187 1.70641 50.2835 1.54039 49.7271 1.54039C49.0182 1.54039 48.4663 1.85447 48.0714 2.48264C47.6766 3.11081 47.4792 3.97679 47.4792 5.08057C47.4792 6.17538 47.6766 7.03687 48.0714 7.66504C48.4663 8.28424 49.0182 8.59383 49.7271 8.59383C50.3014 8.59383 50.7412 8.44577 51.0463 8.14963C51.3514 7.84452 51.5488 7.44518 51.6385 6.95162H53.2135C53.0699 7.87593 52.7064 8.60729 52.1231 9.14573C51.5398 9.67518 50.7456 9.93991 49.7406 9.93991ZM54.4197 9.77838V0.355842H60.4366V1.63462H55.8465V4.38061H60.0328V5.64592H55.8465V8.49961H60.4366V9.77838H54.4197Z" fill="white"/>
</svg>
