<svg width="54" height="10" viewBox="0 0 54 10" fill="none" xmlns="http://www.w3.org/2000/svg">
<path d="M4.2344 9.9313C3.47162 9.9313 2.81204 9.73388 2.25566 9.33903C1.69929 8.94418 1.27303 8.38332 0.976892 7.65643C0.680755 6.92955 0.532686 6.06358 0.532686 5.05851C0.532686 4.05343 0.680755 3.18746 0.976892 2.46058C1.27303 1.7337 1.69929 1.17283 2.25566 0.777981C2.81204 0.383132 3.47162 0.185707 4.2344 0.185707C5.00615 0.185707 5.66573 0.383132 6.21313 0.777981C6.76951 1.17283 7.19577 1.7337 7.4919 2.46058C7.78804 3.18746 7.93611 4.05343 7.93611 5.05851C7.93611 6.06358 7.78804 6.92955 7.4919 7.65643C7.19577 8.38332 6.76951 8.94418 6.21313 9.33903C5.66573 9.73388 5.00615 9.9313 4.2344 9.9313ZM4.2344 8.58523C4.90744 8.58523 5.45035 8.2846 5.86315 7.68336C6.27595 7.07313 6.48235 6.19818 6.48235 5.05851C6.48235 3.91883 6.27595 3.04836 5.86315 2.44712C5.45035 1.83689 4.90744 1.53178 4.2344 1.53178C3.55239 1.53178 3.00498 1.83689 2.59218 2.44712C2.18836 3.04836 1.98645 3.91883 1.98645 5.05851C1.98645 6.19818 2.18836 7.07313 2.59218 7.68336C3.00498 8.2846 3.55239 8.58523 4.2344 8.58523ZM8.61735 9.76978V0.347236H11.9825C12.9607 0.347236 13.701 0.571582 14.2036 1.02027C14.7061 1.46897 14.9574 2.04778 14.9574 2.75671C14.9574 3.30412 14.8138 3.74832 14.5266 4.08933C14.2395 4.43034 13.9074 4.67712 13.5305 4.82967V4.9239C13.9792 5.08543 14.3651 5.35016 14.6882 5.71808C15.0112 6.07704 15.1727 6.55265 15.1727 7.14493C15.1727 7.62951 15.0516 8.07372 14.8093 8.47754C14.576 8.87239 14.2305 9.18648 13.7728 9.4198C13.3152 9.65312 12.7543 9.76978 12.0902 9.76978H8.61735ZM10.0442 4.27778H11.8076C12.355 4.27778 12.7722 4.17009 13.0594 3.95472C13.3466 3.73038 13.4901 3.39386 13.4901 2.94516C13.4901 2.05675 12.9203 1.61255 11.7806 1.61255H10.0442V4.27778ZM10.0442 8.45062H11.9018C12.4851 8.45062 12.9338 8.32499 13.2479 8.07372C13.5619 7.82245 13.719 7.45452 13.719 6.96994C13.719 6.49432 13.553 6.13088 13.2209 5.87961C12.8889 5.61937 12.4402 5.48925 11.8749 5.48925H10.0442V8.45062ZM19.6903 9.9313C18.7211 9.9313 17.9763 9.66209 17.4558 9.12366C16.9353 8.57625 16.6751 7.82694 16.6751 6.87571H18.1154C18.1244 7.36927 18.25 7.78656 18.4923 8.12756C18.7346 8.46857 19.1294 8.63907 19.6768 8.63907C20.2063 8.63907 20.5832 8.47305 20.8075 8.14102C21.0409 7.80899 21.1575 7.39619 21.1575 6.90263V0.347236H22.5844V6.90263C22.5844 7.87181 22.3286 8.62112 21.8171 9.15058C21.3056 9.67106 20.5967 9.9313 19.6903 9.9313ZM24.2752 9.76978V0.347236H30.2921V1.62601H25.702V4.37201H29.8883V5.63732H25.702V8.491H30.2921V9.76978H24.2752ZM34.9308 9.9313C34.1411 9.9313 33.4681 9.72939 32.9117 9.32557C32.3643 8.92175 31.9425 8.35639 31.6464 7.62951C31.3592 6.89366 31.2157 6.04114 31.2157 5.07197C31.2157 4.09382 31.3592 3.2413 31.6464 2.51442C31.9425 1.77856 32.3688 1.20873 32.9252 0.804903C33.4816 0.392106 34.1501 0.185707 34.9308 0.185707C35.9449 0.185707 36.7525 0.463896 37.3538 1.02027C37.955 1.56768 38.305 2.31251 38.4037 3.25476H36.8288C36.748 2.7612 36.5461 2.35289 36.2231 2.02983C35.909 1.6978 35.4738 1.53178 34.9174 1.53178C34.2084 1.53178 33.6566 1.84587 33.2617 2.47404C32.8669 3.10221 32.6694 3.96818 32.6694 5.07197C32.6694 6.16678 32.8669 7.02827 33.2617 7.65643C33.6566 8.27563 34.2084 8.58523 34.9174 8.58523C35.4917 8.58523 35.9314 8.43716 36.2365 8.14102C36.5416 7.83591 36.7391 7.43658 36.8288 6.94301H38.4037C38.2601 7.86732 37.8967 8.59869 37.3134 9.13712C36.7301 9.66658 35.9359 9.9313 34.9308 9.9313ZM41.8579 9.76978V1.62601H39.3273V0.347236H45.8153V1.62601H43.2847V9.76978H41.8579ZM50.3329 9.9313C49.6688 9.9313 49.0855 9.81016 48.583 9.56786C48.0894 9.32557 47.6991 8.98008 47.4119 8.53138C47.1337 8.08269 46.9901 7.54875 46.9812 6.92955H48.4888C48.4978 7.40517 48.6593 7.81348 48.9734 8.15448C49.2964 8.48652 49.7451 8.65253 50.3194 8.65253C50.8489 8.65253 51.2617 8.53138 51.5578 8.28909C51.854 8.03782 52.002 7.71476 52.002 7.31992C52.002 6.98788 51.9123 6.71418 51.7328 6.49881C51.5623 6.27446 51.2931 6.07704 50.9252 5.90653C50.5572 5.72706 50.0816 5.54309 49.4983 5.35464C48.7176 5.10338 48.1433 4.75788 47.7754 4.31816C47.4074 3.86947 47.2235 3.32207 47.2235 2.67595C47.2235 1.93112 47.4927 1.32987 48.0311 0.872206C48.5695 0.41454 49.3099 0.185707 50.2521 0.185707C51.1675 0.185707 51.9033 0.423514 52.4597 0.899128C53.0161 1.36577 53.3032 2.01637 53.3212 2.85094H51.8001C51.8001 2.62659 51.7373 2.41122 51.6117 2.20482C51.486 1.98945 51.3066 1.81446 51.0732 1.67985C50.8399 1.53627 50.5528 1.46448 50.2118 1.46448C49.79 1.45551 49.4355 1.55871 49.1484 1.77408C48.8612 1.98048 48.7176 2.26315 48.7176 2.62211C48.7176 3.06182 48.8926 3.40732 49.2426 3.65859C49.5926 3.90088 50.1624 4.15215 50.9521 4.41239C51.4457 4.57392 51.8809 4.77134 52.2578 5.00466C52.6437 5.22901 52.9443 5.52066 53.1597 5.87961C53.384 6.22959 53.4962 6.67829 53.4962 7.22569C53.4962 7.72823 53.3706 8.18589 53.1193 8.59869C52.868 9.00251 52.5046 9.32557 52.029 9.56786C51.5623 9.81016 50.997 9.9313 50.3329 9.9313Z" fill="white"/>
</svg>
