<svg width="46" height="11" viewBox="0 0 46 11" fill="none" xmlns="http://www.w3.org/2000/svg">
<path d="M4.28066 10.3559C3.51789 10.3559 2.85831 10.1584 2.30193 9.76359C1.74555 9.36874 1.31929 8.80788 1.02316 8.081C0.727019 7.35411 0.578951 6.48814 0.578951 5.48307C0.578951 4.478 0.727019 3.61202 1.02316 2.88514C1.31929 2.15826 1.74555 1.59739 2.30193 1.20254C2.85831 0.807692 3.51789 0.610268 4.28066 0.610268C5.05241 0.610268 5.71199 0.807692 6.2594 1.20254C6.81577 1.59739 7.24203 2.15826 7.53817 2.88514C7.83431 3.61202 7.98237 4.478 7.98237 5.48307C7.98237 6.48814 7.83431 7.35411 7.53817 8.081C7.24203 8.80788 6.81577 9.36874 6.2594 9.76359C5.71199 10.1584 5.05241 10.3559 4.28066 10.3559ZM4.28066 9.00979C4.9537 9.00979 5.49662 8.70916 5.90942 8.10792C6.32221 7.4977 6.52861 6.62274 6.52861 5.48307C6.52861 4.34339 6.32221 3.47292 5.90942 2.87168C5.49662 2.26146 4.9537 1.95634 4.28066 1.95634C3.59865 1.95634 3.05125 2.26146 2.63845 2.87168C2.23463 3.47292 2.03271 4.34339 2.03271 5.48307C2.03271 6.62274 2.23463 7.4977 2.63845 8.10792C3.05125 8.70916 3.59865 9.00979 4.28066 9.00979ZM11.9211 10.3559C11.284 10.3559 10.7141 10.2257 10.2116 9.9655C9.71804 9.70526 9.32768 9.31041 9.04052 8.78096C8.75335 8.24252 8.60977 7.565 8.60977 6.74838V0.771797H10.0366V6.82914C10.0366 7.54705 10.2071 8.10343 10.5481 8.49828C10.8891 8.88415 11.3558 9.07709 11.948 9.07709C12.5403 9.07709 13.007 8.88415 13.348 8.49828C13.689 8.10343 13.8595 7.54705 13.8595 6.82914V0.771797H15.2863V6.74838C15.2863 7.565 15.1382 8.24252 14.8421 8.78096C14.546 9.31041 14.1421 9.70526 13.6306 9.9655C13.1281 10.2257 12.5583 10.3559 11.9211 10.3559ZM18.902 10.1943V2.05057H16.3714V0.771797H22.8595V2.05057H20.3288V10.1943H18.902ZM24.3753 10.1943V0.771797H30.4192V2.10441H25.8021V4.98502H29.6788V6.23687H25.8021V10.1943H24.3753ZM32.1907 10.1943V8.92902H34.2368V2.03711H32.2176V0.771797H37.6827V2.03711H35.6636V8.92902H37.7096V10.1943H32.1907ZM41.9041 10.1943V2.05057H39.3735V0.771797H45.8616V2.05057H43.331V10.1943H41.9041Z" fill="white"/>
</svg>
