<svg width="119" height="17" viewBox="0 0 119 17" fill="none" xmlns="http://www.w3.org/2000/svg">
<path d="M5.393 16.2877C4.3554 16.2877 3.44399 16.0984 2.65878 15.7198C1.88759 15.3412 1.27765 14.8014 0.828956 14.1003C0.394285 13.3992 0.169939 12.5649 0.155918 11.5974H2.51155C2.52557 12.3406 2.77796 12.9786 3.26872 13.5114C3.7735 14.0302 4.47458 14.2896 5.37197 14.2896C6.19924 14.2896 6.84424 14.1003 7.30695 13.7217C7.76967 13.3291 8.00102 12.8243 8.00102 12.2074C8.00102 11.6886 7.86081 11.2609 7.58037 10.9244C7.31396 10.5739 6.89331 10.2654 6.31843 9.99896C5.74354 9.71853 5.00039 9.43109 4.08899 9.13663C2.8691 8.74403 1.97172 8.20419 1.39683 7.51713C0.821945 6.81605 0.534502 5.96073 0.534502 4.95117C0.534502 3.78738 0.955151 2.84793 1.79645 2.13282C2.63775 1.41772 3.79453 1.06017 5.2668 1.06017C6.69701 1.06017 7.84679 1.43174 8.71613 2.17489C9.58547 2.90401 10.0342 3.92058 10.0622 5.2246H7.68554C7.68554 4.87405 7.58739 4.53754 7.39108 4.21504C7.19478 3.87852 6.91435 3.6051 6.54978 3.39477C6.18522 3.17043 5.73653 3.05825 5.20371 3.05825C4.54469 3.04423 3.99084 3.20548 3.54214 3.542C3.09345 3.8645 2.8691 4.30618 2.8691 4.86704C2.8691 5.5541 3.14253 6.09394 3.68937 6.48654C4.23621 6.86513 5.12659 7.25773 6.36049 7.66436C7.13168 7.91675 7.81173 8.22523 8.40064 8.58979C9.00357 8.94033 9.4733 9.39603 9.80982 9.9569C10.1604 10.5037 10.3356 11.2048 10.3356 12.0601C10.3356 12.8454 10.1393 13.5605 9.74672 14.2055C9.35411 14.8364 8.78624 15.3412 8.04309 15.7198C7.31396 16.0984 6.4306 16.2877 5.393 16.2877ZM18.3618 16.0353C17.3382 16.0353 16.525 15.7899 15.922 15.2991C15.3191 14.7944 15.0176 13.904 15.0176 12.628V7.4961H12.3886V5.60318H13.945C14.6601 5.60318 15.0807 5.25264 15.2069 4.55156L15.5224 2.86896H17.2471V5.60318H21.3694V7.4961H17.2471V12.586C17.2471 13.1328 17.3663 13.5184 17.6046 13.7427C17.857 13.9531 18.2847 14.0582 18.8876 14.0582H21.3274V16.0353H18.3618ZM28.2599 16.2877C27.4326 16.2877 26.7385 16.1475 26.1777 15.867C25.6168 15.5726 25.1962 15.187 24.9157 14.7102C24.6353 14.2195 24.4951 13.6867 24.4951 13.1118C24.4951 12.0882 24.8666 11.289 25.6098 10.7141C26.367 10.1392 27.4326 9.85174 28.8067 9.85174H31.4989V9.62038C31.4989 8.04996 30.7698 7.26474 29.3115 7.26474C28.7086 7.26474 28.1968 7.39795 27.7761 7.66436C27.3695 7.91675 27.0961 8.33039 26.9559 8.90528H24.7264C24.8386 7.81159 25.3083 6.94926 26.1356 6.31828C26.9769 5.67329 28.0355 5.35079 29.3115 5.35079C30.8539 5.35079 31.9756 5.72937 32.6767 6.48654C33.3778 7.24371 33.7283 8.28832 33.7283 9.62038V16.0353H31.8354L31.6461 14.4999H31.4989C31.1904 14.9907 30.8048 15.4113 30.3421 15.7619C29.8794 16.1124 29.1853 16.2877 28.2599 16.2877ZM28.6805 14.4158C29.5919 14.4158 30.272 14.1424 30.7207 13.5955C31.1834 13.0346 31.4358 12.3266 31.4778 11.4712H29.0381C28.2388 11.4712 27.671 11.6044 27.3345 11.8709C27.012 12.1232 26.8507 12.4808 26.8507 12.9435C26.8507 13.4062 27.012 13.7708 27.3345 14.0372C27.671 14.2896 28.1197 14.4158 28.6805 14.4158ZM36.4964 16.0353V14.1003H39.0413V8.23224C39.0413 7.76952 38.817 7.53817 38.3683 7.53817H36.7067V5.60318H39.2096C39.7845 5.60318 40.2542 5.77144 40.6187 6.10796C40.9833 6.43046 41.1656 6.88616 41.1656 7.47507V7.72746H41.2708C41.425 6.94225 41.7545 6.35334 42.2593 5.96073C42.7781 5.5541 43.5282 5.35079 44.5098 5.35079H46.1293V7.70643H43.8577C43.0305 7.70643 42.3925 7.99387 41.9438 8.56876C41.4951 9.14364 41.2708 9.8307 41.2708 10.6299V14.1003H44.5098V16.0353H36.4964ZM54.3027 16.0353C53.2791 16.0353 52.4658 15.7899 51.8629 15.2991C51.26 14.7944 50.9585 13.904 50.9585 12.628V7.4961H48.3294V5.60318H49.8858C50.6009 5.60318 51.0216 5.25264 51.1478 4.55156L51.4633 2.86896H53.1879V5.60318H57.3103V7.4961H53.1879V12.586C53.1879 13.1328 53.3071 13.5184 53.5455 13.7427C53.7979 13.9531 54.2255 14.0582 54.8285 14.0582H57.2682V16.0353H54.3027ZM72.3531 16.0353V0.89191H74.5826V7.15958C74.863 6.64078 75.3117 6.21312 75.9286 5.8766C76.5456 5.52606 77.2397 5.35079 78.0108 5.35079C79.3008 5.35079 80.2823 5.7434 80.9554 6.52861C81.6284 7.2998 81.9649 8.41452 81.9649 9.87277V16.0353H79.7355V10.1883C79.7355 9.31891 79.5252 8.64588 79.1045 8.16914C78.6839 7.6924 78.102 7.45404 77.3588 7.45404C76.5876 7.45404 75.9286 7.71344 75.3818 8.23224C74.849 8.75104 74.5826 9.5012 74.5826 10.4827V16.0353H72.3531ZM89.234 16.2877C88.2244 16.2877 87.334 16.0633 86.5628 15.6146C85.7916 15.1519 85.1887 14.5139 84.754 13.7007C84.3194 12.8874 84.102 11.941 84.102 10.8613C84.102 9.76761 84.3124 8.80712 84.733 7.97985C85.1677 7.15257 85.7706 6.50758 86.5418 6.04486C87.327 5.58215 88.2314 5.35079 89.255 5.35079C90.2645 5.35079 91.1339 5.58215 91.863 6.04486C92.5921 6.49355 93.153 7.09648 93.5456 7.85365C93.9522 8.61082 94.1555 9.44511 94.1555 10.3565C94.1555 10.4967 94.1555 10.651 94.1555 10.8192C94.1555 10.9735 94.1485 11.1487 94.1345 11.345H86.2894C86.3595 12.3125 86.675 13.0487 87.2359 13.5534C87.7967 14.0442 88.4558 14.2896 89.2129 14.2896C89.8719 14.2896 90.3907 14.1564 90.7693 13.89C91.1619 13.6095 91.4494 13.231 91.6317 12.7542H93.8821C93.6297 13.7498 93.1039 14.591 92.3047 15.2781C91.5055 15.9511 90.4819 16.2877 89.234 16.2877ZM89.234 7.28578C88.5469 7.28578 87.9369 7.4961 87.4041 7.91675C86.8713 8.32338 86.5278 8.89826 86.3735 9.64141H91.9261C91.87 8.94033 91.5966 8.37245 91.1058 7.93778C90.6151 7.50311 89.9911 7.28578 89.234 7.28578ZM96.3978 16.0353V14.1003H98.9427V8.23224C98.9427 7.76952 98.7184 7.53817 98.2697 7.53817H96.6081V5.60318H99.111C99.6859 5.60318 100.156 5.77144 100.52 6.10796C100.885 6.43046 101.067 6.88616 101.067 7.47507V7.72746H101.172C101.326 6.94225 101.656 6.35334 102.161 5.96073C102.679 5.5541 103.43 5.35079 104.411 5.35079H106.031V7.70643H103.759C102.932 7.70643 102.294 7.99387 101.845 8.56876C101.397 9.14364 101.172 9.8307 101.172 10.6299V14.1003H104.411V16.0353H96.3978ZM113.195 16.2877C112.185 16.2877 111.295 16.0633 110.523 15.6146C109.752 15.1519 109.149 14.5139 108.715 13.7007C108.28 12.8874 108.063 11.941 108.063 10.8613C108.063 9.76761 108.273 8.80712 108.694 7.97985C109.128 7.15257 109.731 6.50758 110.502 6.04486C111.288 5.58215 112.192 5.35079 113.216 5.35079C114.225 5.35079 115.094 5.58215 115.824 6.04486C116.553 6.49355 117.114 7.09648 117.506 7.85365C117.913 8.61082 118.116 9.44511 118.116 10.3565C118.116 10.4967 118.116 10.651 118.116 10.8192C118.116 10.9735 118.109 11.1487 118.095 11.345H110.25C110.32 12.3125 110.636 13.0487 111.196 13.5534C111.757 14.0442 112.416 14.2896 113.173 14.2896C113.833 14.2896 114.351 14.1564 114.73 13.89C115.122 13.6095 115.41 13.231 115.592 12.7542H117.843C117.59 13.7498 117.064 14.591 116.265 15.2781C115.466 15.9511 114.442 16.2877 113.195 16.2877ZM113.195 7.28578C112.507 7.28578 111.898 7.4961 111.365 7.91675C110.832 8.32338 110.488 8.89826 110.334 9.64141H115.887C115.831 8.94033 115.557 8.37245 115.066 7.93778C114.576 7.50311 113.952 7.28578 113.195 7.28578Z" fill="black"/>
</svg>
