<svg width="814" height="351" viewBox="0 0 814 351" fill="none" xmlns="http://www.w3.org/2000/svg">
<path d="M336.328 56.1165H308.08L322.227 10.0351H298.394L302.228 0.127563H372.014L370.558 10.0443H346.724L336.328 56.1165Z" fill="#E6ECEF"/>
<path d="M405.029 56.1165H376.781L382.891 0.127563H406.586L406.033 20.0716H429.996L428.982 0.127563H452.677L459.985 56.1165H431.737L430.521 31.4629H405.711L405.029 56.1165Z" fill="#E6ECEF"/>
<path d="M542.426 56.1165H472.963L463.553 0.127563H521.809L525.495 10.0443H489.699L492.197 20.0716H529.136L533.329 31.4629H495.045L497.92 42.9833H537.55L542.426 56.1165Z" fill="#E6ECEF"/>
<path d="M107.001 159.411L168.455 69.4509H240.591L221.412 109.155H237.255L214.97 159.411H107.001ZM188.556 84.7592L179.109 100.584H193.745L202.629 84.8329L188.556 84.7592ZM156.852 137.449H189.828L199.689 118.666H168.16L156.852 137.449Z" fill="#E6ECEF"/>
<path d="M268.451 159.411H231.798L268.322 69.4509H354.725L339.767 159.411H303.113L313.196 118.694H281.676L268.451 159.411ZM292.681 84.7592L287.566 100.584H317.694L321.592 84.8329L292.681 84.7592Z" fill="#E6ECEF"/>
<path d="M393.247 159.411H356.594L368.188 69.4509H454.591L464.563 159.411H427.947L425.753 84.7592H396.796L393.247 159.411Z" fill="#E6ECEF"/>
<path d="M518.047 159.411H481.403L468.067 69.4509H554.47L589.362 159.411H552.709L529.834 84.7592H500.914L518.047 159.411Z" fill="#E6ECEF"/>
<path d="M678.504 159.411H641.851L621.308 118.694H588.876L567.937 69.4509H597.272L613.013 100.584H643.141L625.004 69.4509H654.339L687.085 118.694H654.671L678.504 159.411Z" fill="#E6ECEF"/>
<path d="M0.3125 350.237L108.945 182.131H147.441L77.0934 306.68H99.4337L109.47 287.676H132.382L183.855 182.168H222.351L171.284 307.786H147.58L138.474 328.228H113.959L103.258 350.237H0.3125Z" fill="#E6ECEF"/>
<path d="M306.293 350.237H177.983L240.037 182.131H334.716L330.19 208.905H270.837L262.7 237.162H325.416L319.748 270.746H253.041L242.7 306.69H313.666L306.293 350.237Z" fill="#E6ECEF"/>
<path d="M382.467 350.237H330.256L352.375 182.131H447.082L447.948 194.785H467.183L473.57 253.889H452.003L453.091 269.778H475.293L483.993 350.237H431.811L429.682 270.746H386.476L382.467 350.237ZM389.554 208.905L388.144 237.162H428.778L428.023 208.905H389.554ZM447.082 182.131H465.809L467.183 194.785H447.948L447.082 182.131Z" fill="#E6ECEF"/>
<path d="M636.285 350.237H507.957L501.616 306.68H596.249L585.328 270.737H518.62L515.505 253.889H493.939L485.331 194.785H504.566L502.215 182.131H596.903L607.217 208.905H528.067L534.518 237.162H597.189L602.654 252.977H624.193L653.178 328.228H628.672L636.285 350.237ZM493.939 253.889H515.505L518.62 270.746H496.391L493.939 253.889ZM484.603 182.519H502.289L504.566 194.785H486.409L484.603 182.519ZM597.198 237.162H618.101L624.202 252.977H602.664L597.198 237.162ZM628.672 328.228H653.178L661.39 349.545H636.036L628.672 328.228Z" fill="#E6ECEF"/>
<path d="M813.954 350.237H685.626L614.578 182.131H709.266L725.938 208.905H666.576L680.824 237.162H743.495L764.407 270.746H697.745L715.855 306.69H786.821L813.954 350.237Z" fill="#E6ECEF"/>
</svg>
