<svg width="192" height="199" viewBox="0 0 192 199" fill="none" xmlns="http://www.w3.org/2000/svg">
<rect x="126.194" y="39.9736" width="38.8475" height="11.0993" transform="rotate(45.112 126.194 39.9736)" fill="#F38CA5"/>
<rect width="38.8475" height="11.0993" transform="matrix(0.705723 0.708488 0.708488 -0.705723 42.2207 123.62)" fill="#F38CA5"/>
<rect x="105.745" y="32.927" width="78.0915" height="12.6849" transform="rotate(45.112 105.745 32.927)" fill="#F38CA5"/>
<rect width="78.0915" height="12.6849" transform="matrix(0.705723 0.708488 0.708488 -0.705723 35.5342 102.865)" fill="#F38CA5"/>
<rect x="92.5737" y="32.0598" width="98.308" height="21.4058" transform="rotate(45.112 92.5737 32.0598)" fill="#F38CA5"/>
<rect width="98.308" height="21.4058" transform="matrix(0.705723 0.708488 0.708488 -0.705723 34.439 89.9689)" fill="#F38CA5"/>
<rect x="70.4155" y="39.5852" width="118.525" height="39.6403" transform="rotate(45.112 70.4155 39.5852)" fill="#F38CA5"/>
<rect x="56.937" y="53.0127" width="10.3065" height="10.3065" transform="rotate(45.112 56.937 53.0127)" fill="#E97F98"/>
<rect x="64.2114" y="60.3142" width="10.3065" height="10.3065" transform="rotate(45.112 64.2114 60.3142)" fill="#E97F98"/>
<rect x="49.6318" y="60.2854" width="10.3065" height="10.3065" transform="rotate(45.112 49.6318 60.2854)" fill="#E97F98"/>
<rect x="56.9062" y="67.5867" width="10.3065" height="10.3065" transform="rotate(45.112 56.9062 67.5867)" fill="#F1A449"/>
<rect x="50.4492" y="74.0208" width="10.3065" height="10.3065" transform="rotate(45.112 50.4492 74.0208)" fill="#F1A449"/>
<rect x="75.6689" y="77.4351" width="10.3065" height="10.3065" transform="rotate(45.112 75.6689 77.4351)" fill="#F1A449"/>
<rect x="71.1719" y="81.9109" width="10.3065" height="10.3065" transform="rotate(45.112 71.1719 81.9109)" fill="#F1A449"/>
<rect x="78.4771" y="74.6372" width="10.3065" height="10.3065" transform="rotate(45.112 78.4771 74.6372)" fill="#F1A449"/>
<rect x="88.5601" y="79.1417" width="20.613" height="18.2346" transform="rotate(45.112 88.5601 79.1417)" fill="#FFAE4F"/>
<rect x="97.4902" y="99.3411" width="20.613" height="18.2346" transform="rotate(45.112 97.4902 99.3411)" fill="#FFAE4F"/>
<rect x="119.339" y="106.11" width="20.613" height="18.2346" transform="rotate(45.112 119.339 106.11)" fill="#FFAE4F"/>
<rect x="139.516" y="108.953" width="20.613" height="18.2346" transform="rotate(45.112 139.516 108.953)" fill="#FFAE4F"/>
<rect x="63.8994" y="74.6077" width="10.3065" height="19.4238" transform="rotate(45.112 63.8994 74.6077)" fill="#F1A449"/>
<rect x="71.2026" y="67.3359" width="10.3065" height="19.4238" transform="rotate(45.112 71.2026 67.3359)" fill="#F1A449"/>
<rect x="45.1118" y="79.337" width="23.3878" height="14.6669" transform="rotate(45.112 45.1118 79.337)" fill="#E97F98"/>
<rect x="52.3862" y="86.6393" width="28.9374" height="23.3878" transform="rotate(45.112 52.3862 86.6393)" fill="#E97F98"/>
<rect x="77.5278" y="130.414" width="28.9374" height="10.3065" transform="rotate(45.112 77.5278 130.414)" fill="#E97F98"/>
<rect x="56.5444" y="109.35" width="38.8475" height="20.2166" transform="rotate(45.112 56.5444 109.35)" fill="#E97F98"/>
<rect x="64.2383" y="45.7383" width="10.3065" height="10.3065" transform="rotate(45.112 64.2383 45.7383)" fill="#E97F98"/>
<rect x="82.9414" y="84.7365" width="10.3065" height="10.3065" transform="rotate(45.112 82.9414 84.7365)" fill="#F1A449"/>
<rect x="46.4082" y="65.1501" width="8.3488" height="15.3592" transform="rotate(45.112 46.4082 65.1501)" fill="#57B1CD"/>
<rect x="17.0459" y="70.8311" width="8.3488" height="15.3592" transform="rotate(45.112 17.0459 70.8311)" fill="#57B1CD"/>
<rect x="35.0771" y="64.6562" width="8.3488" height="40.1703" transform="rotate(45.112 35.0771 64.6562)" fill="#57B1CD"/>
<rect x="23.3901" y="88.0803" width="25.0464" height="15.3592" transform="rotate(45.112 23.3901 88.0803)" fill="#57B1CD"/>
<rect x="41.0654" y="105.825" width="17.3398" height="7.67962" transform="rotate(45.112 41.0654 105.825)" fill="#57B1CD"/>
<rect x="52.8501" y="106.776" width="26.973" height="7.67962" transform="rotate(45.112 52.8501 106.776)" fill="#57B1CD"/>
<rect x="72.6904" y="113.301" width="17.3398" height="9.45183" transform="rotate(45.112 72.6904 113.301)" fill="#57B1CD"/>
<rect x="85.7329" y="113.001" width="17.3398" height="9.45183" transform="rotate(45.112 85.7329 113.001)" fill="#57B1CD"/>
<rect x="96.2637" y="115.201" width="17.3398" height="9.45183" transform="rotate(45.112 96.2637 115.201)" fill="#57B1CD"/>
<rect x="126.947" y="120.894" width="17.3398" height="9.45183" transform="rotate(45.112 126.947 120.894)" fill="#57B1CD"/>
<rect x="138.316" y="122.262" width="17.3398" height="9.45183" transform="rotate(45.112 138.316 122.262)" fill="#57B1CD"/>
<rect x="151.359" y="121.96" width="17.3398" height="9.45183" transform="rotate(45.112 151.359 121.96)" fill="#57B1CD"/>
<rect x="108.853" y="114.446" width="26.3308" height="9.45183" transform="rotate(45.112 108.853 114.446)" fill="#57B1CD"/>
<rect x="173.188" y="112.906" width="17.3398" height="23.6296" transform="rotate(45.112 173.188 112.906)" fill="#57B1CD"/>
<rect x="160.433" y="87.5433" width="35.3218" height="15.3592" transform="rotate(45.112 160.433 87.5433)" fill="#57B1CD"/>
</svg>
