<svg width="117" height="118" viewBox="0 0 117 118" fill="none" xmlns="http://www.w3.org/2000/svg">
<rect x="38.8597" y="0.879883" width="38.0611" height="10.8746" fill="#AB78FF"/>
<rect width="38.0611" height="10.8746" transform="matrix(1 0 0 -1 38.8597 117.005)" fill="#AB78FF"/>
<rect x="19.8273" y="10.2" width="76.5105" height="12.4281" fill="#AB78FF"/>
<rect width="76.5105" height="12.4281" transform="matrix(1 0 0 -1 19.8273 107.295)" fill="#AB78FF"/>
<rect x="10.1177" y="18.7446" width="96.3178" height="20.9724" fill="#AB78FF"/>
<rect width="96.3178" height="20.9724" transform="matrix(1 0 0 -1 10.1177 99.1396)" fill="#AB78FF"/>
<rect x="0.0213623" y="39.3286" width="116.125" height="38.8378" fill="#AB78FF"/>
<rect x="0.0213623" y="57.9714" width="10.0978" height="10.0978" fill="#65408A"/>
<rect x="10.1177" y="57.9714" width="10.0978" height="10.0978" fill="#65408A"/>
<rect x="0.0213623" y="68.0698" width="10.0978" height="10.0978" fill="#65408A"/>
<rect x="10.1177" y="84.3818" width="22.9143" height="14.37" fill="#65408A"/>
<rect x="20.2178" y="84.3818" width="28.3516" height="22.9143" fill="#65408A"/>
<rect x="67.9884" y="97.1985" width="28.3516" height="10.0978" fill="#65408A"/>
<rect x="38.8597" y="97.1985" width="38.0611" height="19.8073" fill="#65408A"/>
<rect x="0.0213623" y="47.8752" width="10.0978" height="10.0978" fill="#65408A"/>
<rect x="40.0237" y="61.8567" width="10.0978" height="10.0978" fill="#E0C566"/>
<rect x="62.0405" y="35.1907" width="10.0978" height="10.0978" fill="#E0C566"/>
<rect x="31.6904" y="32.5518" width="10.0978" height="10.0978" fill="#E0C566"/>
<rect x="52.8058" y="11.4375" width="10.0978" height="10.0978" fill="#E0C566"/>
<rect x="93.7115" y="43.1084" width="10.0978" height="10.0978" fill="#E0C566"/>
<rect x="68.6412" y="78.7366" width="10.0978" height="10.0978" fill="#E0C566"/>
<rect x="46.2051" y="99.8508" width="10.0978" height="10.0978" fill="#CBB853"/>
<rect x="21.1328" y="84.0154" width="10.0978" height="10.0978" fill="#CBB853"/>
<rect x="10.5771" y="44.4285" width="10.0978" height="10.0978" fill="#CBB853"/>
</svg>
