<svg width="49" height="50" viewBox="0 0 49 50" fill="none" xmlns="http://www.w3.org/2000/svg">
<rect x="20.6792" y="21.223" width="7.63224" height="7.63224" fill="white"/>
<rect x="20.6792" y="14.3544" width="7.63224" height="6.86901" fill="#64C4E2"/>
<rect x="28.314" y="21.223" width="6.86901" height="7.63224" fill="#64C4E2"/>
<rect x="20.6792" y="28.8546" width="7.63224" height="6.86901" fill="#64C4E2"/>
<rect x="13.8105" y="21.223" width="6.86901" height="7.63224" fill="#64C4E2"/>
<rect x="20.6792" y="7.48462" width="7.63224" height="6.86901" fill="#64C4E2"/>
<rect x="20.6792" y="35.7242" width="7.63224" height="6.86901" fill="#64C4E2"/>
<rect x="13.8105" y="28.8546" width="6.86901" height="6.86901" fill="#57B1CD"/>
<rect x="13.8105" y="14.3544" width="6.86901" height="6.86901" fill="#57B1CD"/>
<rect x="28.314" y="14.3544" width="6.86901" height="6.86901" fill="#57B1CD"/>
<rect x="28.314" y="28.8546" width="6.86901" height="6.86901" fill="#57B1CD"/>
<rect x="6.94385" y="21.223" width="6.86901" height="7.63224" fill="#57B1CD"/>
<rect x="6.94385" y="14.3544" width="6.86901" height="6.86901" fill="#468CA2"/>
<rect x="13.8105" y="7.48462" width="6.86901" height="6.86901" fill="#468CA2"/>
<rect x="28.314" y="7.48462" width="6.86901" height="6.86901" fill="#468CA2"/>
<rect x="35.1807" y="14.3544" width="6.86901" height="6.86901" fill="#468CA2"/>
<rect x="35.1807" y="28.8546" width="6.86901" height="6.86901" fill="#468CA2"/>
<rect x="28.314" y="35.7242" width="6.86901" height="6.86901" fill="#468CA2"/>
<rect x="13.8105" y="35.7242" width="6.86901" height="6.86901" fill="#468CA2"/>
<rect x="6.94385" y="28.8546" width="6.86901" height="6.86901" fill="#468CA2"/>
<rect x="20.6792" y="0.615967" width="7.63224" height="6.86901" fill="#64C4E2"/>
<rect x="20.6792" y="42.5929" width="7.63224" height="6.86901" fill="#64C4E2"/>
<rect x="0.0732422" y="21.223" width="6.86901" height="7.63224" fill="#57B1CD"/>
<rect x="42.0493" y="21.223" width="6.86901" height="7.63224" fill="#57B1CD"/>
<rect x="35.1807" y="21.223" width="6.86901" height="7.63224" fill="#57B1CD"/>
</svg>
