<svg width="445" height="78" viewBox="0 0 445 78" fill="none" xmlns="http://www.w3.org/2000/svg">
<path d="M13.9568 7.95116V0.607855C17.2472 -0.00196989 416.241 -0.262418 430.709 0.347407V7.95752H13.9568V7.95116Z" fill="#2692CB"/>
<path d="M430.714 69.8042V77.148C427.424 77.7578 28.4356 78.0183 13.9624 77.4084V69.7979H430.714V69.8042Z" fill="#2692CB"/>
<path d="M13.9567 69.8047H7.0393C6.70851 67.34 7.0509 64.8054 6.82458 62.1882H0V15.6826H6.89422V54.343H13.9567V69.8047Z" fill="#2692CB"/>
<path d="M437.777 15.6826H444.474C445.025 19.0811 445.187 46.6567 444.746 61.9278H437.962C437.539 64.5259 437.957 67.0605 437.667 69.8047H430.708V54.343H437.771V15.6826H437.777Z" fill="#2692CB"/>
<path d="M6.89429 15.6821V7.95117H13.9568V15.6821H6.89429Z" fill="#2692CB"/>
<path d="M430.715 7.95117H437.777V15.6821H430.715V7.95117Z" fill="#2692CB"/>
<path d="M430.715 7.95117V15.6821H13.9568V7.95117H430.715Z" fill="#74F452"/>
<path d="M430.715 62.0737V69.8042H13.9568V62.0737H430.715Z" fill="#39ABE7"/>
<path d="M13.9568 15.6826H437.777V23.4136H6.89429V15.6826H13.9568Z" fill="#11E53E"/>
<path d="M6.89429 23.4131H437.777V31.144H6.89429V23.4131Z" fill="#36E25A"/>
<path d="M6.89429 31.144H437.777V38.8745H6.89429V31.144Z" fill="#32D855"/>
<path d="M6.89429 38.8813H437.777V46.6113H6.89429V38.8813Z" fill="#32D893"/>
<path d="M6.89429 46.6118H437.777V54.3428H6.89429V46.6118Z" fill="#2EDAAF"/>
<path d="M13.9568 54.3428H430.715V62.0737H13.9568V54.3428Z" fill="#2EC8DA"/>
</svg>
