<svg width="338" height="19" viewBox="0 0 338 19" fill="none" xmlns="http://www.w3.org/2000/svg">
<path d="M0.5 0.324706H2V1.82471H3.5V3.32471H5V4.82471H6.5V6.32471H9.5V4.82471H11V3.32471H12.5V1.82471H14V0.324706H15.5V18.3247H12.5V7.82471H11V9.32471H9.5V12.3247H6.5V9.32471H5V7.82471H3.5V18.3247H0.5V0.324706ZM18.4883 0.324706H33.4883V3.32471H21.4883V7.82471H31.9883V10.8247H21.4883V15.3247H33.4883V18.3247H18.4883V0.324706ZM36.4766 0.324706H51.4766V3.32471H39.4766V7.82471H49.9766V10.8247H39.4766V15.3247H51.4766V18.3247H36.4766V0.324706ZM54.4648 0.324706H69.4648V3.32471H63.4648V18.3247H60.4648V3.32471H54.4648V0.324706ZM87.4531 1.82471H88.9531V0.324706H100.953V1.82471H102.453V18.3247H99.4531V12.3247H90.4531V18.3247H87.4531V1.82471ZM90.4531 9.32471H99.4531V3.32471H90.4531V9.32471ZM105.441 0.324706H108.441V15.3247H120.441V18.3247H105.441V0.324706ZM123.43 0.324706H126.43V15.3247H138.43V18.3247H123.43V0.324706ZM156.418 0.324706H171.418V3.32471H165.418V18.3247H162.418V3.32471H156.418V0.324706ZM174.406 0.324706H177.406V7.82471H186.406V0.324706H189.406V18.3247H186.406V10.8247H177.406V18.3247H174.406V0.324706ZM192.395 0.324706H207.395V3.32471H195.395V7.82471H205.895V10.8247H195.395V15.3247H207.395V18.3247H192.395V0.324706ZM225.383 0.324706H238.883V1.82471H240.383V16.8247H238.883V18.3247H225.383V0.324706ZM237.383 3.32471H228.383V7.82471H237.383V3.32471ZM228.383 15.3247H237.383V10.8247H228.383V15.3247ZM243.371 1.82471H244.871V0.324706H256.871V1.82471H258.371V18.3247H255.371V12.3247H246.371V18.3247H243.371V1.82471ZM246.371 9.32471H255.371V3.32471H246.371V9.32471ZM261.359 0.324706H262.859V1.82471H264.359V3.32471H265.859V4.82471H267.359V6.32471H268.859V7.82471H270.359V9.32471H271.859V10.8247H273.359V0.324706H276.359V18.3247H274.859V16.8247H273.359V15.3247H271.859V13.8247H270.359V12.3247H268.859V10.8247H267.359V9.32471H265.859V7.82471H264.359V18.3247H261.359V0.324706ZM279.348 0.324706H280.848V1.82471H282.348V3.32471H283.848V4.82471H285.348V6.32471H286.848V7.82471H288.348V9.32471H289.848V10.8247H291.348V0.324706H294.348V18.3247H292.848V16.8247H291.348V15.3247H289.848V13.8247H288.348V12.3247H286.848V10.8247H285.348V9.32471H283.848V7.82471H282.348V18.3247H279.348V0.324706ZM297.336 0.324706H300.336V4.82471H301.836V6.32471H303.336V7.82471H306.336V6.32471H307.836V4.82471H309.336V0.324706H312.336V6.32471H310.836V7.82471H309.336V9.32471H307.836V10.8247H306.336V18.3247H303.336V10.8247H301.836V9.32471H300.336V7.82471H298.836V6.32471H297.336V0.324706ZM315.324 0.324706H318.324V3.32471H319.824V6.32471H318.324V4.82471H316.824V3.32471H315.324V0.324706ZM322.824 1.82471H324.324V0.324706H337.824V3.32471H325.824V7.82471H336.324V9.32471H337.824V16.8247H336.324V18.3247H322.824V15.3247H334.824V10.8247H322.824V1.82471Z" fill="white"/>
</svg>
