<svg width="213" height="53" viewBox="0 0 213 53" fill="none" xmlns="http://www.w3.org/2000/svg">
<path fill-rule="evenodd" clip-rule="evenodd" d="M13.6479 0.156494H122.308H125.358H198.72V6.4846H125.358H122.308H13.6483V12.977H6.74219V6.48455H13.6479V0.156494ZM13.6479 45.4839H6.84785C6.70933 44.3062 6.72491 43.1108 6.74076 41.8941C6.75279 40.9709 6.76498 40.0354 6.71015 39.0861H0C0 34.7146 0.0225082 31.9663 0.0450163 29.218C0.0674544 26.4782 0.0898925 23.7385 0.090032 19.3907L0 19.3896V12.9769H6.74192V19.3499H6.97495V30.3034C6.97495 31.3863 6.9167 29.7706 6.85844 28.155C6.80018 26.5394 6.74192 24.9237 6.74192 26.0066V32.4991H13.648V45.4838H122.308H125.353H125.358H198.72V51.6526C197.558 51.8372 165.817 51.9838 125.358 52.0695V52.1505C71.0734 52.1804 19.9344 52.1007 13.6479 51.8717V45.4839ZM212.993 19.35C213.004 24.0069 213 28.8226 212.996 33.1545L212.996 33.1924C212.995 35.1729 212.993 37.0518 212.993 38.7674H205.579C205.579 40.7589 205.579 43.2484 205.526 45.4839H198.72V32.4991H205.626V26.0067C205.626 24.9238 205.613 23.6766 205.6 22.4294C205.587 21.1822 205.573 19.935 205.573 18.8521L205.631 18.856V12.977C206.722 12.977 208.017 12.9509 209.312 12.9248L209.312 12.9248L209.312 12.9248C210.607 12.8986 211.902 12.8725 212.993 12.8725V19.345L212.934 19.346L212.993 19.35ZM205.631 6.48455H198.725V12.977H205.631V6.48455Z" fill="#0E75AB"/>
</svg>
