<svg width="140" height="12" viewBox="0 0 140 12" fill="none" xmlns="http://www.w3.org/2000/svg">
<path d="M0.9 1.25649H1.8V0.356494H9.9V2.15649H2.7V9.35649H9.9V11.1565H1.8V10.2565H0.9V1.25649ZM10.973 1.25649H11.873V0.356494H19.073V1.25649H19.973V10.2565H19.073V11.1565H11.873V10.2565H10.973V1.25649ZM12.773 9.35649H18.173V2.15649H12.773V9.35649ZM21.0459 0.356494H21.9459V1.25649H22.8459V2.15649H23.7459V3.05649H24.6459V3.95649H25.5459V4.85649H26.4459V5.75649H27.3459V6.65649H28.2459V0.356494H30.0459V11.1565H29.1459V10.2565H28.2459V9.35649H27.3459V8.45649H26.4459V7.55649H25.5459V6.65649H24.6459V5.75649H23.7459V4.85649H22.8459V11.1565H21.0459V0.356494ZM31.1189 0.356494H32.0189V1.25649H32.9189V2.15649H33.8189V3.05649H34.7189V3.95649H35.6189V4.85649H36.5189V5.75649H37.4189V6.65649H38.3189V0.356494H40.1189V11.1565H39.2189V10.2565H38.3189V9.35649H37.4189V8.45649H36.5189V7.55649H35.6189V6.65649H34.7189V5.75649H33.8189V4.85649H32.9189V11.1565H31.1189V0.356494ZM41.1919 0.356494H50.1919V2.15649H42.9919V4.85649H49.2919V6.65649H42.9919V9.35649H50.1919V11.1565H41.1919V0.356494ZM51.2648 1.25649H52.1648V0.356494H60.2648V2.15649H53.0648V9.35649H60.2648V11.1565H52.1648V10.2565H51.2648V1.25649ZM61.3378 0.356494H70.3378V2.15649H66.7378V11.1565H64.9378V2.15649H61.3378V0.356494ZM79.6908 0.356494H81.4908V7.55649H83.2908V3.95649H85.0908V7.55649H86.8908V0.356494H88.6908V8.45649H87.7908V9.35649H86.8908V11.1565H85.0908V9.35649H83.2908V11.1565H81.4908V9.35649H80.5908V8.45649H79.6908V0.356494ZM89.7637 1.25649H90.6637V0.356494H97.8637V1.25649H98.7637V11.1565H96.9637V7.55649H91.5637V11.1565H89.7637V1.25649ZM91.5637 5.75649H96.9637V2.15649H91.5637V5.75649ZM99.8367 0.356494H101.637V9.35649H108.837V11.1565H99.8367V0.356494ZM109.91 0.356494H111.71V9.35649H118.91V11.1565H109.91V0.356494ZM119.983 0.356494H128.983V2.15649H121.783V4.85649H128.083V6.65649H121.783V9.35649H128.983V11.1565H119.983V0.356494ZM130.056 0.356494H139.056V2.15649H135.456V11.1565H133.656V2.15649H130.056V0.356494Z" fill="#0E75AB"/>
</svg>
