<svg width="243" height="56" viewBox="0 0 243 56" fill="none" xmlns="http://www.w3.org/2000/svg">
<g clip-path="url(#clip0_204_8898)">
<path d="M12.3125 7.17576V0.437988H229.957V7.17576H12.3125Z" fill="#2692CB"/>
<path d="M229.957 48.6997V55.2678C227.166 55.8086 24.4405 56.0365 12.3125 55.5011V48.6997H229.957Z" fill="#2692CB"/>
<path d="M0.365479 20.9164V14.0885H6.26719V21.0012" fill="#2692CB"/>
<path d="M0.444292 20.8739C0.444292 30.1827 0.365479 32.5789 0.365479 41.8877H6.23938C6.35064 44.2308 6.14666 46.4944 6.35992 48.6997H12.3126V34.8743H6.2672V27.9616C6.2672 25.6555 6.47118 34.8425 6.47118 32.5365V20.8739" fill="#2692CB"/>
<path d="M242.448 20.874C242.462 28.1154 242.448 35.7172 242.448 41.5485H235.957C235.957 43.669 235.957 46.3196 235.911 48.6998H229.953V34.8744H235.999V27.9616C235.999 25.6556 235.952 22.6499 235.952 20.3439" fill="#2692CB"/>
<path d="M236.003 21.0011V14.0884C237.913 14.0884 240.537 13.9771 242.447 13.9771V20.8686" fill="#2692CB"/>
<path d="M6.26709 14.0885V7.17578H12.3125V14.0885H6.26709Z" fill="#2692CB"/>
<path d="M229.958 7.17578H236.003V14.0885H229.958V7.17578Z" fill="#2692CB"/>
<path d="M229.957 7.17578V14.0885H12.3125V7.17578H229.957Z" fill="#74F452"/>
<path d="M229.957 41.787V48.6997H12.3125V41.787H229.957Z" fill="#39ABE7"/>
<path d="M12.3125 14.0885H236.003V21.0012H6.26709V14.0885H12.3125Z" fill="#11E53E"/>
<path d="M6.26709 21.0223V27.9351H236.003V21.0223H6.26709Z" fill="#32D855"/>
<path d="M6.26709 27.9615H236.003V34.8743H6.26709V27.9615Z" fill="#2EDAAF"/>
<path d="M6.47119 34.8743H235.957V41.787H6.47119V34.8743Z" fill="#2EC8DA"/>
<path d="M94.8323 17.0063H96.395V18.569H97.9577V20.1317H99.5205V21.6945H101.083V23.2572H104.209V21.6945H105.771V20.1317H107.334V18.569H108.897V17.0063H110.46V35.759H107.334V24.8199H105.771V26.3826H104.209V29.5081H101.083V26.3826H99.5205V24.8199H97.9577V35.759H94.8323V17.0063ZM112.323 17.0063H118.574V20.1317H117.011V32.6336H118.574V35.759H112.323V32.6336H113.885V20.1317H112.323V17.0063ZM120.443 17.0063H122.005V18.569H123.568V20.1317H125.131V21.6945H126.694V23.2572H128.256V24.8199H129.819V26.3826H131.382V27.9454H132.945V17.0063H136.07V35.759H134.507V34.1963H132.945V32.6336H131.382V31.0708H129.819V29.5081H128.256V27.9454H126.694V26.3826H125.131V24.8199H123.568V35.759H120.443V17.0063ZM137.933 17.0063H153.56V20.1317H147.309V35.759H144.184V20.1317H137.933V17.0063Z" fill="white"/>
</g>
<defs>
<clipPath id="clip0_204_8898">
<rect width="242.086" height="55.3653" fill="white" transform="translate(0.365479 0.437988)"/>
</clipPath>
</defs>
</svg>
